%TF.GenerationSoftware,KiCad,Pcbnew,8.0.4*%
%TF.CreationDate,2024-09-16T16:17:47+01:00*%
%TF.ProjectId,algoritmi_motor,616c676f-7269-4746-9d69-5f6d6f746f72,rev?*%
%TF.SameCoordinates,Original*%
%TF.FileFunction,Copper,L1,Top*%
%TF.FilePolarity,Positive*%
%FSLAX46Y46*%
G04 Gerber Fmt 4.6, Leading zero omitted, Abs format (unit mm)*
G04 Created by KiCad (PCBNEW 8.0.4) date 2024-09-16 16:17:47*
%MOMM*%
%LPD*%
G01*
G04 APERTURE LIST*
G04 Aperture macros list*
%AMRoundRect*
0 Rectangle with rounded corners*
0 $1 Rounding radius*
0 $2 $3 $4 $5 $6 $7 $8 $9 X,Y pos of 4 corners*
0 Add a 4 corners polygon primitive as box body*
4,1,4,$2,$3,$4,$5,$6,$7,$8,$9,$2,$3,0*
0 Add four circle primitives for the rounded corners*
1,1,$1+$1,$2,$3*
1,1,$1+$1,$4,$5*
1,1,$1+$1,$6,$7*
1,1,$1+$1,$8,$9*
0 Add four rect primitives between the rounded corners*
20,1,$1+$1,$2,$3,$4,$5,0*
20,1,$1+$1,$4,$5,$6,$7,0*
20,1,$1+$1,$6,$7,$8,$9,0*
20,1,$1+$1,$8,$9,$2,$3,0*%
G04 Aperture macros list end*
%TA.AperFunction,SMDPad,CuDef*%
%ADD10R,3.180000X1.270000*%
%TD*%
%TA.AperFunction,SMDPad,CuDef*%
%ADD11RoundRect,0.150000X-0.825000X-0.150000X0.825000X-0.150000X0.825000X0.150000X-0.825000X0.150000X0*%
%TD*%
%TA.AperFunction,SMDPad,CuDef*%
%ADD12RoundRect,0.100000X-0.100000X0.130000X-0.100000X-0.130000X0.100000X-0.130000X0.100000X0.130000X0*%
%TD*%
%TA.AperFunction,Conductor*%
%ADD13C,0.400000*%
%TD*%
G04 APERTURE END LIST*
D10*
%TO.P,J1,1,1*%
%TO.N,+3.3V*%
X147800000Y-95263673D03*
%TO.P,J1,2,2*%
%TO.N,GND*%
X147800000Y-97803673D03*
%TO.P,J1,3,3*%
%TO.N,CSN*%
X147800000Y-100343673D03*
%TO.P,J1,4,4*%
%TO.N,CLK*%
X147800000Y-102883673D03*
%TO.P,J1,5,5*%
%TO.N,DO*%
X147800000Y-105423673D03*
%TD*%
D11*
%TO.P,U1,1,VDD*%
%TO.N,+3.3V*%
X138525000Y-98438673D03*
%TO.P,U1,2,MODE*%
X138525000Y-99708673D03*
%TO.P,U1,3,ANALOG/PWM*%
%TO.N,unconnected-(U1-ANALOG{slash}PWM-Pad3)*%
X138525000Y-100978673D03*
%TO.P,U1,4,GND*%
%TO.N,GND*%
X138525000Y-102248673D03*
%TO.P,U1,5,PUSH*%
%TO.N,unconnected-(U1-PUSH-Pad5)*%
X143475000Y-102248673D03*
%TO.P,U1,6,A/U/SDA/DO*%
%TO.N,DO*%
X143475000Y-100978673D03*
%TO.P,U1,7,B/V/SCL/CLK*%
%TO.N,CLK*%
X143475000Y-99708673D03*
%TO.P,U1,8,Z/W/CSN*%
%TO.N,CSN*%
X143475000Y-98438673D03*
%TD*%
D12*
%TO.P,C1,1*%
%TO.N,+3.3V*%
X143730000Y-95120000D03*
%TO.P,C1,2*%
%TO.N,GND*%
X143730000Y-95830000D03*
%TD*%
D13*
%TO.N,+3.3V*%
X138525000Y-98438673D02*
X141843673Y-95120000D01*
X141843673Y-95120000D02*
X147656327Y-95120000D01*
X138525000Y-99708673D02*
X138525000Y-98438673D01*
X147656327Y-95120000D02*
X147800000Y-95263673D01*
%TO.N,CSN*%
X146354999Y-100343673D02*
X147800000Y-100343673D01*
X144449999Y-98438673D02*
X146354999Y-100343673D01*
X143475000Y-98438673D02*
X144449999Y-98438673D01*
%TO.N,DO*%
X144378673Y-100978673D02*
X145000000Y-101600000D01*
X145000000Y-104800000D02*
X145623673Y-105423673D01*
X145623673Y-105423673D02*
X147800000Y-105423673D01*
X145000000Y-101600000D02*
X145000000Y-104800000D01*
X143475000Y-100978673D02*
X144378673Y-100978673D01*
%TO.N,CLK*%
X143475000Y-99708673D02*
X144449999Y-99708673D01*
X147800000Y-102000000D02*
X147800000Y-102883673D01*
X144449999Y-99708673D02*
X145000000Y-100258674D01*
X145000000Y-100568672D02*
X146031328Y-101600000D01*
X146031328Y-101600000D02*
X147400000Y-101600000D01*
X145000000Y-100258674D02*
X145000000Y-100568672D01*
X147400000Y-101600000D02*
X147800000Y-102000000D01*
%TD*%
%TA.AperFunction,Conductor*%
%TO.N,GND*%
G36*
X141781900Y-84863986D02*
G01*
X141788156Y-84864303D01*
X142564933Y-84923458D01*
X142571183Y-84924094D01*
X143343936Y-85022510D01*
X143350136Y-85023460D01*
X144116966Y-85160900D01*
X144123066Y-85162154D01*
X144881930Y-85338252D01*
X144887980Y-85339818D01*
X145636974Y-85554132D01*
X145642948Y-85556007D01*
X146380096Y-85807971D01*
X146385959Y-85810143D01*
X147109424Y-86099129D01*
X147115171Y-86101596D01*
X147365170Y-86216464D01*
X147823016Y-86426832D01*
X147828657Y-86429598D01*
X148519154Y-86790284D01*
X148524647Y-86793333D01*
X148776942Y-86941850D01*
X149195995Y-87188531D01*
X149201317Y-87191850D01*
X149851729Y-87620508D01*
X149856884Y-87624094D01*
X150484819Y-88085195D01*
X150489768Y-88089026D01*
X150680532Y-88244574D01*
X151093508Y-88581312D01*
X151098275Y-88585404D01*
X151676322Y-89107650D01*
X151680875Y-89111979D01*
X152231693Y-89662797D01*
X152236022Y-89667350D01*
X152758268Y-90245397D01*
X152762360Y-90250164D01*
X153254638Y-90853894D01*
X153258484Y-90858862D01*
X153719576Y-91486786D01*
X153723164Y-91491943D01*
X154151822Y-92142355D01*
X154155146Y-92147686D01*
X154550339Y-92819025D01*
X154553388Y-92824518D01*
X154914074Y-93515015D01*
X154916840Y-93520656D01*
X155242070Y-94228488D01*
X155244548Y-94234261D01*
X155533524Y-94957699D01*
X155535706Y-94963591D01*
X155787662Y-95700714D01*
X155789543Y-95706708D01*
X156003850Y-96455676D01*
X156005424Y-96461758D01*
X156181512Y-97220579D01*
X156182777Y-97226733D01*
X156320211Y-97993531D01*
X156321162Y-97999741D01*
X156419578Y-98772489D01*
X156420214Y-98778739D01*
X156479368Y-99555507D01*
X156479686Y-99561782D01*
X156499420Y-100340532D01*
X156499420Y-100346814D01*
X156479686Y-101125563D01*
X156479368Y-101131838D01*
X156420214Y-101908606D01*
X156419578Y-101914856D01*
X156321162Y-102687604D01*
X156320211Y-102693814D01*
X156182777Y-103460612D01*
X156181512Y-103466766D01*
X156005424Y-104225587D01*
X156003850Y-104231669D01*
X155789543Y-104980637D01*
X155787662Y-104986631D01*
X155535706Y-105723754D01*
X155533524Y-105729646D01*
X155244548Y-106453084D01*
X155242070Y-106458857D01*
X154916840Y-107166689D01*
X154914074Y-107172330D01*
X154553388Y-107862827D01*
X154550339Y-107868320D01*
X154155146Y-108539659D01*
X154151822Y-108544990D01*
X153723164Y-109195402D01*
X153719576Y-109200559D01*
X153258484Y-109828483D01*
X153254638Y-109833451D01*
X152762360Y-110437181D01*
X152758268Y-110441948D01*
X152236022Y-111019995D01*
X152231693Y-111024548D01*
X151680875Y-111575366D01*
X151676322Y-111579695D01*
X151098275Y-112101941D01*
X151093508Y-112106033D01*
X150489778Y-112598311D01*
X150484810Y-112602157D01*
X149856886Y-113063249D01*
X149851729Y-113066837D01*
X149201317Y-113495495D01*
X149195986Y-113498819D01*
X148524647Y-113894012D01*
X148519154Y-113897061D01*
X147828657Y-114257747D01*
X147823016Y-114260513D01*
X147115184Y-114585743D01*
X147109411Y-114588221D01*
X146385973Y-114877197D01*
X146380081Y-114879379D01*
X145642958Y-115131335D01*
X145636964Y-115133216D01*
X144887996Y-115347523D01*
X144881914Y-115349097D01*
X144123093Y-115525185D01*
X144116939Y-115526450D01*
X143350141Y-115663884D01*
X143343931Y-115664835D01*
X142571183Y-115763251D01*
X142564933Y-115763887D01*
X141788165Y-115823041D01*
X141781890Y-115823359D01*
X141003141Y-115843093D01*
X140996859Y-115843093D01*
X140218109Y-115823359D01*
X140211834Y-115823041D01*
X139435066Y-115763887D01*
X139428816Y-115763251D01*
X138656068Y-115664835D01*
X138649858Y-115663884D01*
X137883060Y-115526450D01*
X137876906Y-115525185D01*
X137118085Y-115349097D01*
X137112003Y-115347523D01*
X136363035Y-115133216D01*
X136357041Y-115131335D01*
X135619918Y-114879379D01*
X135614026Y-114877197D01*
X134890588Y-114588221D01*
X134884815Y-114585743D01*
X134176983Y-114260513D01*
X134171342Y-114257747D01*
X133480845Y-113897061D01*
X133475352Y-113894012D01*
X132804013Y-113498819D01*
X132798682Y-113495495D01*
X132148270Y-113066837D01*
X132143113Y-113063249D01*
X131515189Y-112602157D01*
X131510221Y-112598311D01*
X131509020Y-112597332D01*
X131387725Y-112498429D01*
X131076398Y-112244574D01*
X134748539Y-112244574D01*
X134748539Y-113424821D01*
X135281358Y-113669638D01*
X135963674Y-113942188D01*
X136408435Y-114094212D01*
X136598177Y-114094212D01*
X136750539Y-113941850D01*
X136750539Y-112244574D01*
X137748539Y-112244574D01*
X137748539Y-113941850D01*
X137900901Y-114094212D01*
X139598177Y-114094212D01*
X139750539Y-113941850D01*
X139750539Y-112244574D01*
X140748539Y-112244574D01*
X140748539Y-113941850D01*
X140900901Y-114094212D01*
X142598177Y-114094212D01*
X142750539Y-113941850D01*
X142750539Y-112244574D01*
X143748539Y-112244574D01*
X143748539Y-113941850D01*
X143900901Y-114094212D01*
X145591563Y-114094212D01*
X145601610Y-114090777D01*
X145750539Y-113941849D01*
X145750539Y-112244574D01*
X146748539Y-112244574D01*
X146748539Y-113655900D01*
X147386202Y-113362910D01*
X148037450Y-113022727D01*
X148670626Y-112649999D01*
X148750539Y-112597332D01*
X148750539Y-112244574D01*
X148598177Y-112092212D01*
X146900901Y-112092212D01*
X146748539Y-112244574D01*
X145750539Y-112244574D01*
X145598177Y-112092212D01*
X143900901Y-112092212D01*
X143748539Y-112244574D01*
X142750539Y-112244574D01*
X142598177Y-112092212D01*
X140900901Y-112092212D01*
X140748539Y-112244574D01*
X139750539Y-112244574D01*
X139598177Y-112092212D01*
X137900901Y-112092212D01*
X137748539Y-112244574D01*
X136750539Y-112244574D01*
X136598177Y-112092212D01*
X134900901Y-112092212D01*
X134748539Y-112244574D01*
X131076398Y-112244574D01*
X130906491Y-112106033D01*
X130901724Y-112101941D01*
X130323677Y-111579695D01*
X130319124Y-111575366D01*
X129768306Y-111024548D01*
X129763977Y-111019995D01*
X129241731Y-110441948D01*
X129237639Y-110437181D01*
X128745361Y-109833451D01*
X128741515Y-109828483D01*
X128695759Y-109766172D01*
X128280421Y-109200557D01*
X128276835Y-109195402D01*
X128208827Y-109092212D01*
X129439033Y-109092212D01*
X129532832Y-109219950D01*
X129997108Y-109789337D01*
X130489662Y-110334520D01*
X130750539Y-110595397D01*
X130750539Y-109244574D01*
X131748539Y-109244574D01*
X131748539Y-110941850D01*
X131900901Y-111094212D01*
X133598177Y-111094212D01*
X133750539Y-110941850D01*
X133750539Y-109244574D01*
X134748539Y-109244574D01*
X134748539Y-110941850D01*
X134900901Y-111094212D01*
X136598177Y-111094212D01*
X136750539Y-110941850D01*
X136750539Y-109244574D01*
X137748539Y-109244574D01*
X137748539Y-110941850D01*
X137900901Y-111094212D01*
X139598177Y-111094212D01*
X139750539Y-110941850D01*
X139750539Y-109244574D01*
X140748539Y-109244574D01*
X140748539Y-110941850D01*
X140900901Y-111094212D01*
X142598177Y-111094212D01*
X147502973Y-111094212D01*
X148598177Y-111094212D01*
X148750539Y-110941850D01*
X148750539Y-109244574D01*
X149748539Y-109244574D01*
X149748539Y-110941850D01*
X149900901Y-111094212D01*
X150724979Y-111094212D01*
X150990847Y-110854008D01*
X151510335Y-110334520D01*
X151750539Y-110068651D01*
X151750539Y-109244574D01*
X151598177Y-109092212D01*
X149900901Y-109092212D01*
X149748539Y-109244574D01*
X148750539Y-109244574D01*
X148598177Y-109092212D01*
X148345233Y-109092212D01*
X148357895Y-109236935D01*
X148358249Y-109242332D01*
X148359677Y-109275032D01*
X148359795Y-109280442D01*
X148359795Y-109324000D01*
X148359677Y-109329410D01*
X148358249Y-109362110D01*
X148357895Y-109367507D01*
X148334266Y-109637588D01*
X148333677Y-109642965D01*
X148329406Y-109675409D01*
X148328583Y-109680756D01*
X148321020Y-109723651D01*
X148319965Y-109728958D01*
X148312880Y-109760917D01*
X148311594Y-109766172D01*
X148241422Y-110028062D01*
X148239907Y-110033259D01*
X148230058Y-110064494D01*
X148228317Y-110069622D01*
X148213416Y-110110554D01*
X148211457Y-110115592D01*
X148198938Y-110145813D01*
X148196760Y-110150762D01*
X148082184Y-110396470D01*
X148079790Y-110401324D01*
X148064674Y-110430360D01*
X148062073Y-110435101D01*
X148040295Y-110472822D01*
X148037487Y-110477449D01*
X148019905Y-110505046D01*
X148016901Y-110509542D01*
X147861401Y-110731622D01*
X147858204Y-110735982D01*
X147838284Y-110761944D01*
X147834897Y-110766165D01*
X147806898Y-110799534D01*
X147803330Y-110803602D01*
X147781212Y-110827740D01*
X147777470Y-110831649D01*
X147585755Y-111023364D01*
X147581846Y-111027106D01*
X147557708Y-111049224D01*
X147553640Y-111052792D01*
X147520271Y-111080791D01*
X147516050Y-111084178D01*
X147502973Y-111094212D01*
X142598177Y-111094212D01*
X142750539Y-110941850D01*
X142750539Y-109302219D01*
X144750859Y-109302219D01*
X144750859Y-109302222D01*
X144770691Y-109528907D01*
X144770693Y-109528918D01*
X144829585Y-109748709D01*
X144829588Y-109748718D01*
X144925758Y-109954953D01*
X144925759Y-109954955D01*
X145056281Y-110141362D01*
X145217185Y-110302266D01*
X145217188Y-110302268D01*
X145403593Y-110432789D01*
X145609831Y-110528960D01*
X145829635Y-110587856D01*
X145991557Y-110602022D01*
X146056325Y-110607689D01*
X146056327Y-110607689D01*
X146056329Y-110607689D01*
X146113000Y-110602730D01*
X146283019Y-110587856D01*
X146502823Y-110528960D01*
X146709061Y-110432789D01*
X146895466Y-110302268D01*
X147056374Y-110141360D01*
X147186895Y-109954955D01*
X147283066Y-109748717D01*
X147341962Y-109528913D01*
X147361795Y-109302221D01*
X147341962Y-109075529D01*
X147283066Y-108855725D01*
X147186895Y-108649487D01*
X147056374Y-108463082D01*
X147056372Y-108463079D01*
X146895468Y-108302175D01*
X146709061Y-108171653D01*
X146709059Y-108171652D01*
X146502824Y-108075482D01*
X146502815Y-108075479D01*
X146283024Y-108016587D01*
X146283020Y-108016586D01*
X146283019Y-108016586D01*
X146283018Y-108016585D01*
X146283013Y-108016585D01*
X146056329Y-107996753D01*
X146056325Y-107996753D01*
X145829640Y-108016585D01*
X145829629Y-108016587D01*
X145609838Y-108075479D01*
X145609829Y-108075482D01*
X145403594Y-108171652D01*
X145403592Y-108171653D01*
X145217185Y-108302175D01*
X145056281Y-108463079D01*
X144925759Y-108649486D01*
X144925758Y-108649488D01*
X144829588Y-108855723D01*
X144829585Y-108855732D01*
X144770693Y-109075523D01*
X144770691Y-109075534D01*
X144750859Y-109302219D01*
X142750539Y-109302219D01*
X142750539Y-109244574D01*
X142598177Y-109092212D01*
X140900901Y-109092212D01*
X140748539Y-109244574D01*
X139750539Y-109244574D01*
X139598177Y-109092212D01*
X137900901Y-109092212D01*
X137748539Y-109244574D01*
X136750539Y-109244574D01*
X136598177Y-109092212D01*
X134900901Y-109092212D01*
X134748539Y-109244574D01*
X133750539Y-109244574D01*
X133598177Y-109092212D01*
X131900901Y-109092212D01*
X131748539Y-109244574D01*
X130750539Y-109244574D01*
X130598177Y-109092212D01*
X129439033Y-109092212D01*
X128208827Y-109092212D01*
X128152846Y-109007271D01*
X127848172Y-108544983D01*
X127844853Y-108539659D01*
X127449660Y-107868320D01*
X127446611Y-107862827D01*
X127085925Y-107172330D01*
X127083159Y-107166689D01*
X126980658Y-106943606D01*
X126757923Y-106458844D01*
X126755451Y-106453084D01*
X126730862Y-106391527D01*
X126672162Y-106244574D01*
X128748539Y-106244574D01*
X128748539Y-107941850D01*
X128900901Y-108094212D01*
X130598177Y-108094212D01*
X130750539Y-107941850D01*
X130750539Y-106244574D01*
X131748539Y-106244574D01*
X131748539Y-107941850D01*
X131900901Y-108094212D01*
X133598177Y-108094212D01*
X133750539Y-107941850D01*
X133750539Y-106244574D01*
X134748539Y-106244574D01*
X134748539Y-107941850D01*
X134900901Y-108094212D01*
X136598177Y-108094212D01*
X136750539Y-107941850D01*
X136750539Y-106244574D01*
X137748539Y-106244574D01*
X137748539Y-107941850D01*
X137900901Y-108094212D01*
X139598177Y-108094212D01*
X139750539Y-107941850D01*
X139750539Y-106244574D01*
X140748539Y-106244574D01*
X140748539Y-107941850D01*
X140900901Y-108094212D01*
X142598177Y-108094212D01*
X142750539Y-107941850D01*
X142750539Y-106244574D01*
X143748539Y-106244574D01*
X143748539Y-107941850D01*
X143900901Y-108094212D01*
X144096235Y-108094212D01*
X144251253Y-107872820D01*
X144254450Y-107868460D01*
X144274370Y-107842498D01*
X144277757Y-107838277D01*
X144305756Y-107804908D01*
X144309324Y-107800840D01*
X144331442Y-107776702D01*
X144335184Y-107772793D01*
X144526899Y-107581078D01*
X144530808Y-107577336D01*
X144554946Y-107555218D01*
X144559014Y-107551650D01*
X144592383Y-107523651D01*
X144596604Y-107520264D01*
X144622566Y-107500344D01*
X144626926Y-107497147D01*
X144849006Y-107341647D01*
X144853502Y-107338643D01*
X144881099Y-107321061D01*
X144885726Y-107318253D01*
X144923447Y-107296475D01*
X144928188Y-107293874D01*
X144957224Y-107278758D01*
X144962078Y-107276364D01*
X145003233Y-107257173D01*
X147109421Y-107257173D01*
X147150576Y-107276364D01*
X147155430Y-107278758D01*
X147184466Y-107293874D01*
X147189207Y-107296475D01*
X147226928Y-107318253D01*
X147231555Y-107321061D01*
X147259152Y-107338643D01*
X147263648Y-107341647D01*
X147485728Y-107497147D01*
X147490088Y-107500344D01*
X147516050Y-107520264D01*
X147520271Y-107523651D01*
X147553640Y-107551650D01*
X147557708Y-107555218D01*
X147581846Y-107577336D01*
X147585755Y-107581078D01*
X147777470Y-107772793D01*
X147781212Y-107776702D01*
X147803330Y-107800840D01*
X147806898Y-107804908D01*
X147834897Y-107838277D01*
X147838284Y-107842498D01*
X147858204Y-107868460D01*
X147861401Y-107872820D01*
X148016419Y-108094212D01*
X148598177Y-108094212D01*
X148750539Y-107941850D01*
X148750539Y-107257173D01*
X147109421Y-107257173D01*
X145003233Y-107257173D01*
X145112879Y-107206044D01*
X149748539Y-107206044D01*
X149748539Y-107941850D01*
X149900901Y-108094212D01*
X151598177Y-108094212D01*
X151750539Y-107941850D01*
X151750539Y-106244574D01*
X152748539Y-106244574D01*
X152748539Y-107941850D01*
X152900901Y-108094212D01*
X153253660Y-108094212D01*
X153306326Y-108014299D01*
X153679054Y-107381123D01*
X154019237Y-106729875D01*
X154312228Y-106092212D01*
X152900901Y-106092212D01*
X152748539Y-106244574D01*
X151750539Y-106244574D01*
X151598177Y-106092212D01*
X150588500Y-106092212D01*
X150588500Y-106102921D01*
X150588351Y-106109004D01*
X150586545Y-106145776D01*
X150586097Y-106151846D01*
X150581294Y-106200617D01*
X150580549Y-106206656D01*
X150575146Y-106243086D01*
X150574105Y-106249086D01*
X150548119Y-106379724D01*
X150545163Y-106391527D01*
X150523770Y-106462050D01*
X150519669Y-106473510D01*
X150482119Y-106564158D01*
X150476917Y-106575157D01*
X150442181Y-106640142D01*
X150435925Y-106650579D01*
X150337101Y-106798478D01*
X150329852Y-106808252D01*
X150283105Y-106865213D01*
X150274933Y-106874229D01*
X150205556Y-106943606D01*
X150196540Y-106951778D01*
X150139579Y-106998525D01*
X150129805Y-107005774D01*
X149981906Y-107104598D01*
X149971469Y-107110854D01*
X149906484Y-107145590D01*
X149895485Y-107150792D01*
X149804837Y-107188342D01*
X149793377Y-107192443D01*
X149748539Y-107206044D01*
X145112879Y-107206044D01*
X145207786Y-107161788D01*
X145212735Y-107159610D01*
X145242956Y-107147091D01*
X145247994Y-107145132D01*
X145288926Y-107130231D01*
X145294054Y-107128490D01*
X145325289Y-107118641D01*
X145330486Y-107117126D01*
X145549155Y-107058534D01*
X145470195Y-107005774D01*
X145460421Y-106998525D01*
X145403460Y-106951778D01*
X145394444Y-106943606D01*
X145325067Y-106874229D01*
X145316895Y-106865213D01*
X145270148Y-106808252D01*
X145262899Y-106798478D01*
X145243657Y-106769681D01*
X145179227Y-106752418D01*
X145171464Y-106750063D01*
X145124977Y-106734284D01*
X145117384Y-106731427D01*
X145056996Y-106706416D01*
X145049604Y-106703067D01*
X145005547Y-106681342D01*
X144998387Y-106677514D01*
X144850451Y-106592101D01*
X144843561Y-106587817D01*
X144802729Y-106560534D01*
X144796132Y-106555807D01*
X144744281Y-106516019D01*
X144738008Y-106510871D01*
X144701094Y-106478497D01*
X144695174Y-106472951D01*
X144314435Y-106092212D01*
X143900901Y-106092212D01*
X143748539Y-106244574D01*
X142750539Y-106244574D01*
X142598177Y-106092212D01*
X140900901Y-106092212D01*
X140748539Y-106244574D01*
X139750539Y-106244574D01*
X139598177Y-106092212D01*
X137900901Y-106092212D01*
X137748539Y-106244574D01*
X136750539Y-106244574D01*
X136598177Y-106092212D01*
X134900901Y-106092212D01*
X134748539Y-106244574D01*
X133750539Y-106244574D01*
X133598177Y-106092212D01*
X131900901Y-106092212D01*
X131748539Y-106244574D01*
X130750539Y-106244574D01*
X130598177Y-106092212D01*
X128900901Y-106092212D01*
X128748539Y-106244574D01*
X126672162Y-106244574D01*
X126466470Y-105729632D01*
X126464293Y-105723754D01*
X126249109Y-105094212D01*
X126212334Y-104986621D01*
X126210456Y-104980637D01*
X125996145Y-104231653D01*
X125994575Y-104225587D01*
X125818481Y-103466739D01*
X125817227Y-103460639D01*
X125751193Y-103092212D01*
X126765095Y-103092212D01*
X126795660Y-103262748D01*
X126961729Y-103978391D01*
X127163862Y-104684814D01*
X127303798Y-105094212D01*
X127598177Y-105094212D01*
X127750539Y-104941850D01*
X127750539Y-103244574D01*
X128748539Y-103244574D01*
X128748539Y-104941850D01*
X128900901Y-105094212D01*
X130598177Y-105094212D01*
X130750539Y-104941850D01*
X130750539Y-103244574D01*
X131748539Y-103244574D01*
X131748539Y-104941850D01*
X131900901Y-105094212D01*
X133598177Y-105094212D01*
X133750539Y-104941850D01*
X133750539Y-103244574D01*
X134748539Y-103244574D01*
X134748539Y-104941850D01*
X134900901Y-105094212D01*
X136598177Y-105094212D01*
X136750539Y-104941850D01*
X136750539Y-104046673D01*
X137748539Y-104046673D01*
X137748539Y-104941850D01*
X137900901Y-105094212D01*
X139598177Y-105094212D01*
X139750539Y-104941850D01*
X139750539Y-103998446D01*
X139706456Y-104011254D01*
X139700339Y-104012864D01*
X139663075Y-104021657D01*
X139656877Y-104022953D01*
X139606737Y-104032111D01*
X139600483Y-104033089D01*
X139562497Y-104038040D01*
X139556199Y-104038698D01*
X139476816Y-104044945D01*
X139471951Y-104045232D01*
X139437654Y-104046578D01*
X139432791Y-104046673D01*
X138574454Y-104046673D01*
X138527000Y-104037234D01*
X138525000Y-104036405D01*
X138523000Y-104037234D01*
X138475546Y-104046673D01*
X137748539Y-104046673D01*
X136750539Y-104046673D01*
X136750539Y-103750951D01*
X136717861Y-103728743D01*
X136711562Y-103724166D01*
X136661985Y-103685712D01*
X136655981Y-103680745D01*
X136620616Y-103649567D01*
X136614937Y-103644234D01*
X136454439Y-103483736D01*
X136449106Y-103478057D01*
X136417928Y-103442692D01*
X136412961Y-103436688D01*
X136374507Y-103387111D01*
X136369930Y-103380812D01*
X136343437Y-103341829D01*
X136339263Y-103335251D01*
X136301459Y-103271328D01*
X140748539Y-103271328D01*
X140748539Y-104941850D01*
X140900901Y-105094212D01*
X142598177Y-105094212D01*
X142750539Y-104941850D01*
X142750539Y-103747173D01*
X142598680Y-103747173D01*
X142594194Y-103747092D01*
X142567067Y-103746110D01*
X142562586Y-103745866D01*
X142526576Y-103743255D01*
X142522112Y-103742850D01*
X142495156Y-103739913D01*
X142490709Y-103739347D01*
X142366417Y-103721238D01*
X142356971Y-103719486D01*
X142300245Y-103706671D01*
X142290962Y-103704192D01*
X142216994Y-103681337D01*
X142207930Y-103678147D01*
X142153857Y-103656725D01*
X142145068Y-103652843D01*
X141968104Y-103566331D01*
X141959092Y-103561454D01*
X141905800Y-103529700D01*
X141897219Y-103524094D01*
X141830002Y-103476103D01*
X141821915Y-103469808D01*
X141774568Y-103429708D01*
X141767027Y-103422766D01*
X141625907Y-103281646D01*
X141618965Y-103274105D01*
X141578865Y-103226758D01*
X141572570Y-103218671D01*
X141524579Y-103151454D01*
X141518973Y-103142873D01*
X141488787Y-103092212D01*
X140900902Y-103092212D01*
X140787261Y-103205851D01*
X140748539Y-103271328D01*
X136301459Y-103271328D01*
X136223732Y-103139897D01*
X136219981Y-103133074D01*
X136199159Y-103092212D01*
X134900901Y-103092212D01*
X134748539Y-103244574D01*
X133750539Y-103244574D01*
X133598177Y-103092212D01*
X131900901Y-103092212D01*
X131748539Y-103244574D01*
X130750539Y-103244574D01*
X130598177Y-103092212D01*
X128900901Y-103092212D01*
X128748539Y-103244574D01*
X127750539Y-103244574D01*
X127598177Y-103092212D01*
X126765095Y-103092212D01*
X125751193Y-103092212D01*
X125679787Y-102693809D01*
X125678837Y-102687604D01*
X125654952Y-102500066D01*
X125654775Y-102498674D01*
X137052704Y-102498674D01*
X137052899Y-102501159D01*
X137098718Y-102658871D01*
X137182314Y-102800225D01*
X137182321Y-102800234D01*
X137298438Y-102916351D01*
X137298447Y-102916358D01*
X137439803Y-102999955D01*
X137439806Y-102999956D01*
X137597504Y-103045772D01*
X137597510Y-103045773D01*
X137634350Y-103048672D01*
X137634366Y-103048673D01*
X138275000Y-103048673D01*
X138775000Y-103048673D01*
X139415634Y-103048673D01*
X139415649Y-103048672D01*
X139452489Y-103045773D01*
X139452495Y-103045772D01*
X139610193Y-102999956D01*
X139610196Y-102999955D01*
X139751552Y-102916358D01*
X139751561Y-102916351D01*
X139867678Y-102800234D01*
X139867685Y-102800225D01*
X139951281Y-102658871D01*
X139997100Y-102501159D01*
X139997295Y-102498674D01*
X139997295Y-102498673D01*
X138775000Y-102498673D01*
X138775000Y-103048673D01*
X138275000Y-103048673D01*
X138275000Y-102498673D01*
X137052705Y-102498673D01*
X137052704Y-102498674D01*
X125654775Y-102498674D01*
X125580421Y-101914856D01*
X125579785Y-101908606D01*
X125564596Y-101709158D01*
X125520630Y-101131829D01*
X125520313Y-101125563D01*
X125517514Y-101015095D01*
X125500579Y-100346790D01*
X125500579Y-100343672D01*
X126498818Y-100343672D01*
X126517430Y-101078120D01*
X126573224Y-101810765D01*
X126609324Y-102094212D01*
X127598177Y-102094212D01*
X132264566Y-102094212D01*
X133598177Y-102094212D01*
X133750539Y-101941850D01*
X133750539Y-100244574D01*
X134748539Y-100244574D01*
X134748539Y-101941850D01*
X134900901Y-102094212D01*
X136044103Y-102094212D01*
X136051620Y-101998671D01*
X137052704Y-101998671D01*
X137052705Y-101998673D01*
X139997295Y-101998673D01*
X139997295Y-101998671D01*
X139997100Y-101996186D01*
X139951281Y-101838474D01*
X139867685Y-101697120D01*
X139867678Y-101697111D01*
X139751561Y-101580994D01*
X139751552Y-101580987D01*
X139664074Y-101529253D01*
X139616390Y-101478184D01*
X139603887Y-101409442D01*
X139630532Y-101344853D01*
X139639074Y-101335329D01*
X139639195Y-101335159D01*
X139639198Y-101335156D01*
X139690573Y-101230066D01*
X139700500Y-101161933D01*
X139700500Y-100795413D01*
X139690573Y-100727280D01*
X139639198Y-100622190D01*
X139639196Y-100622188D01*
X139639196Y-100622187D01*
X139556485Y-100539476D01*
X139548646Y-100535644D01*
X139451393Y-100488100D01*
X139451391Y-100488099D01*
X139383261Y-100478173D01*
X139383260Y-100478173D01*
X137666740Y-100478173D01*
X137666739Y-100478173D01*
X137598608Y-100488099D01*
X137493514Y-100539476D01*
X137410803Y-100622187D01*
X137359426Y-100727281D01*
X137349500Y-100795412D01*
X137349500Y-101161933D01*
X137359426Y-101230064D01*
X137359427Y-101230066D01*
X137410802Y-101335156D01*
X137410803Y-101335157D01*
X137410804Y-101335159D01*
X137416773Y-101343520D01*
X137415658Y-101344315D01*
X137443970Y-101396163D01*
X137438986Y-101465855D01*
X137397114Y-101521788D01*
X137385926Y-101529253D01*
X137298444Y-101580990D01*
X137298438Y-101580994D01*
X137182321Y-101697111D01*
X137182314Y-101697120D01*
X137098718Y-101838474D01*
X137052899Y-101996186D01*
X137052704Y-101998671D01*
X136051620Y-101998671D01*
X136059974Y-101892489D01*
X136060632Y-101886192D01*
X136065583Y-101848198D01*
X136066561Y-101841941D01*
X136075720Y-101791797D01*
X136077016Y-101785602D01*
X136085808Y-101748339D01*
X136087418Y-101742219D01*
X136149099Y-101529911D01*
X136151506Y-101522502D01*
X136167479Y-101478136D01*
X136170348Y-101470890D01*
X136195268Y-101413309D01*
X136198585Y-101406261D01*
X136219981Y-101364272D01*
X136223732Y-101357449D01*
X136339263Y-101162095D01*
X136343437Y-101155517D01*
X136351500Y-101143652D01*
X136351500Y-100777353D01*
X136351581Y-100772867D01*
X136352563Y-100745740D01*
X136352807Y-100741259D01*
X136355418Y-100705249D01*
X136355823Y-100700785D01*
X136358760Y-100673829D01*
X136359326Y-100669382D01*
X136377435Y-100545090D01*
X136379187Y-100535644D01*
X136392002Y-100478918D01*
X136394481Y-100469635D01*
X136417336Y-100395667D01*
X136420526Y-100386603D01*
X136437533Y-100343673D01*
X136420526Y-100300743D01*
X136417336Y-100291679D01*
X136402781Y-100244574D01*
X140748539Y-100244574D01*
X140748539Y-101226014D01*
X140826268Y-101357449D01*
X140830019Y-101364272D01*
X140851415Y-101406261D01*
X140854732Y-101413309D01*
X140879652Y-101470890D01*
X140882521Y-101478136D01*
X140898494Y-101522502D01*
X140900901Y-101529911D01*
X140962582Y-101742219D01*
X140964192Y-101748339D01*
X140972984Y-101785602D01*
X140974280Y-101791797D01*
X140983439Y-101841941D01*
X140984417Y-101848198D01*
X140989368Y-101886192D01*
X140990026Y-101892489D01*
X141005897Y-102094212D01*
X141301500Y-102094212D01*
X141301500Y-102047353D01*
X141301581Y-102042867D01*
X141302563Y-102015740D01*
X141302807Y-102011259D01*
X141305418Y-101975249D01*
X141305823Y-101970785D01*
X141308760Y-101943829D01*
X141309326Y-101939382D01*
X141327435Y-101815090D01*
X141329187Y-101805644D01*
X141342002Y-101748918D01*
X141344481Y-101739635D01*
X141367336Y-101665667D01*
X141370526Y-101656603D01*
X141387533Y-101613673D01*
X141370526Y-101570743D01*
X141367336Y-101561679D01*
X141344481Y-101487711D01*
X141342002Y-101478428D01*
X141329187Y-101421702D01*
X141327435Y-101412256D01*
X141309326Y-101287964D01*
X141308760Y-101283517D01*
X141305823Y-101256561D01*
X141305418Y-101252097D01*
X141302807Y-101216087D01*
X141302563Y-101211606D01*
X141301581Y-101184479D01*
X141301500Y-101179993D01*
X141301500Y-100777353D01*
X141301581Y-100772867D01*
X141302563Y-100745740D01*
X141302807Y-100741259D01*
X141305418Y-100705249D01*
X141305823Y-100700785D01*
X141308760Y-100673829D01*
X141309326Y-100669382D01*
X141327435Y-100545090D01*
X141329187Y-100535644D01*
X141342002Y-100478918D01*
X141344481Y-100469635D01*
X141367336Y-100395667D01*
X141370526Y-100386603D01*
X141387533Y-100343673D01*
X141370526Y-100300743D01*
X141367336Y-100291679D01*
X141344481Y-100217711D01*
X141342002Y-100208428D01*
X141329187Y-100151702D01*
X141327435Y-100142256D01*
X141320144Y-100092212D01*
X140900901Y-100092212D01*
X140748539Y-100244574D01*
X136402781Y-100244574D01*
X136394481Y-100217711D01*
X136392002Y-100208428D01*
X136379187Y-100151702D01*
X136377435Y-100142256D01*
X136370144Y-100092212D01*
X134900901Y-100092212D01*
X134748539Y-100244574D01*
X133750539Y-100244574D01*
X133598177Y-100092212D01*
X132962976Y-100092212D01*
X132986250Y-100358239D01*
X132986604Y-100363636D01*
X132988032Y-100396336D01*
X132988150Y-100401746D01*
X132988150Y-100445304D01*
X132988032Y-100450714D01*
X132986604Y-100483414D01*
X132986250Y-100488811D01*
X132962621Y-100758892D01*
X132962032Y-100764269D01*
X132957761Y-100796713D01*
X132956938Y-100802060D01*
X132949375Y-100844955D01*
X132948320Y-100850262D01*
X132941235Y-100882221D01*
X132939949Y-100887476D01*
X132869777Y-101149366D01*
X132868262Y-101154563D01*
X132858413Y-101185798D01*
X132856672Y-101190926D01*
X132841771Y-101231858D01*
X132839812Y-101236896D01*
X132827293Y-101267117D01*
X132825115Y-101272066D01*
X132710539Y-101517774D01*
X132708145Y-101522628D01*
X132693029Y-101551664D01*
X132690428Y-101556405D01*
X132668650Y-101594126D01*
X132665842Y-101598753D01*
X132648260Y-101626350D01*
X132645256Y-101630846D01*
X132489756Y-101852926D01*
X132486559Y-101857286D01*
X132466639Y-101883248D01*
X132463252Y-101887469D01*
X132435253Y-101920838D01*
X132431685Y-101924906D01*
X132409567Y-101949044D01*
X132405825Y-101952953D01*
X132264566Y-102094212D01*
X127598177Y-102094212D01*
X127750539Y-101941850D01*
X127750539Y-100423523D01*
X129379214Y-100423523D01*
X129379214Y-100423526D01*
X129399046Y-100650211D01*
X129399048Y-100650222D01*
X129457940Y-100870013D01*
X129457943Y-100870022D01*
X129554113Y-101076257D01*
X129554114Y-101076259D01*
X129684636Y-101262666D01*
X129845540Y-101423570D01*
X129845543Y-101423572D01*
X130031948Y-101554093D01*
X130238186Y-101650264D01*
X130238191Y-101650265D01*
X130238193Y-101650266D01*
X130291097Y-101664441D01*
X130457990Y-101709160D01*
X130606272Y-101722133D01*
X130684680Y-101728993D01*
X130684682Y-101728993D01*
X130684684Y-101728993D01*
X130748153Y-101723440D01*
X130911374Y-101709160D01*
X131131178Y-101650264D01*
X131337416Y-101554093D01*
X131523821Y-101423572D01*
X131684729Y-101262664D01*
X131815250Y-101076259D01*
X131911421Y-100870021D01*
X131970317Y-100650217D01*
X131990150Y-100423525D01*
X131970317Y-100196833D01*
X131911421Y-99977029D01*
X131815250Y-99770791D01*
X131684729Y-99584386D01*
X131684727Y-99584383D01*
X131523823Y-99423479D01*
X131337416Y-99292957D01*
X131337414Y-99292956D01*
X131131179Y-99196786D01*
X131131170Y-99196783D01*
X130911379Y-99137891D01*
X130911375Y-99137890D01*
X130911374Y-99137890D01*
X130911373Y-99137889D01*
X130911368Y-99137889D01*
X130684684Y-99118057D01*
X130684680Y-99118057D01*
X130457995Y-99137889D01*
X130457984Y-99137891D01*
X130238193Y-99196783D01*
X130238184Y-99196786D01*
X130031949Y-99292956D01*
X130031947Y-99292957D01*
X129845540Y-99423479D01*
X129684636Y-99584383D01*
X129554114Y-99770790D01*
X129554113Y-99770792D01*
X129457943Y-99977027D01*
X129457940Y-99977036D01*
X129399048Y-100196827D01*
X129399046Y-100196838D01*
X129379214Y-100423523D01*
X127750539Y-100423523D01*
X127750539Y-100244574D01*
X127598177Y-100092212D01*
X126505191Y-100092212D01*
X126498818Y-100343672D01*
X125500579Y-100343672D01*
X125500579Y-100340555D01*
X125520313Y-99561770D01*
X125520631Y-99555507D01*
X125522306Y-99533522D01*
X125555761Y-99094212D01*
X126556650Y-99094212D01*
X127598177Y-99094212D01*
X127750539Y-98941850D01*
X127750539Y-97244574D01*
X128748539Y-97244574D01*
X128748539Y-98941850D01*
X128847157Y-99040468D01*
X128879608Y-98994124D01*
X128882805Y-98989764D01*
X128902725Y-98963802D01*
X128906112Y-98959581D01*
X128934111Y-98926212D01*
X128937679Y-98922144D01*
X128959797Y-98898006D01*
X128963539Y-98894097D01*
X129155254Y-98702382D01*
X129159163Y-98698640D01*
X129183301Y-98676522D01*
X129187369Y-98672954D01*
X129220738Y-98644955D01*
X129224959Y-98641568D01*
X129250921Y-98621648D01*
X129255281Y-98618451D01*
X129477361Y-98462951D01*
X129481857Y-98459947D01*
X129509454Y-98442365D01*
X129514081Y-98439557D01*
X129551802Y-98417779D01*
X129556543Y-98415178D01*
X129585579Y-98400062D01*
X129590433Y-98397668D01*
X129836141Y-98283092D01*
X129841090Y-98280914D01*
X129871311Y-98268395D01*
X129876349Y-98266436D01*
X129917281Y-98251535D01*
X129922409Y-98249794D01*
X129953644Y-98239945D01*
X129958841Y-98238430D01*
X130220731Y-98168258D01*
X130225986Y-98166972D01*
X130257945Y-98159887D01*
X130263252Y-98158832D01*
X130306147Y-98151269D01*
X130311494Y-98150446D01*
X130343938Y-98146175D01*
X130349315Y-98145586D01*
X130619396Y-98121957D01*
X130624793Y-98121603D01*
X130657493Y-98120175D01*
X130662903Y-98120057D01*
X130706461Y-98120057D01*
X130711871Y-98120175D01*
X130744571Y-98121603D01*
X130749968Y-98121957D01*
X130750539Y-98122006D01*
X130750539Y-97244574D01*
X131748539Y-97244574D01*
X131748539Y-98383495D01*
X131778931Y-98397668D01*
X131783785Y-98400062D01*
X131812821Y-98415178D01*
X131817562Y-98417779D01*
X131855283Y-98439557D01*
X131859910Y-98442365D01*
X131887507Y-98459947D01*
X131892003Y-98462951D01*
X132114083Y-98618451D01*
X132118443Y-98621648D01*
X132144405Y-98641568D01*
X132148626Y-98644955D01*
X132181995Y-98672954D01*
X132186063Y-98676522D01*
X132210201Y-98698640D01*
X132214110Y-98702382D01*
X132405825Y-98894097D01*
X132409567Y-98898006D01*
X132431685Y-98922144D01*
X132435253Y-98926212D01*
X132463252Y-98959581D01*
X132466639Y-98963802D01*
X132486559Y-98989764D01*
X132489756Y-98994124D01*
X132559838Y-99094212D01*
X133598177Y-99094212D01*
X133750539Y-98941850D01*
X133750539Y-97244574D01*
X134748539Y-97244574D01*
X134748539Y-98941850D01*
X134900901Y-99094212D01*
X136429397Y-99094212D01*
X136437533Y-99073673D01*
X136420526Y-99030743D01*
X136417336Y-99021679D01*
X136394481Y-98947711D01*
X136392002Y-98938428D01*
X136379187Y-98881702D01*
X136377435Y-98872256D01*
X136359326Y-98747964D01*
X136358760Y-98743517D01*
X136355823Y-98716561D01*
X136355418Y-98712097D01*
X136352807Y-98676087D01*
X136352563Y-98671606D01*
X136351581Y-98644479D01*
X136351500Y-98639993D01*
X136351500Y-98255412D01*
X137349500Y-98255412D01*
X137349500Y-98621933D01*
X137359426Y-98690064D01*
X137410803Y-98795158D01*
X137493514Y-98877869D01*
X137493515Y-98877869D01*
X137493517Y-98877871D01*
X137598607Y-98929246D01*
X137632673Y-98934209D01*
X137666739Y-98939173D01*
X137666740Y-98939173D01*
X138000500Y-98939173D01*
X138067539Y-98958858D01*
X138113294Y-99011662D01*
X138124500Y-99063173D01*
X138124500Y-99084173D01*
X138104815Y-99151212D01*
X138052011Y-99196967D01*
X138000500Y-99208173D01*
X137666739Y-99208173D01*
X137598608Y-99218099D01*
X137493514Y-99269476D01*
X137410803Y-99352187D01*
X137359426Y-99457281D01*
X137349500Y-99525412D01*
X137349500Y-99891933D01*
X137359426Y-99960064D01*
X137410803Y-100065158D01*
X137493514Y-100147869D01*
X137493515Y-100147869D01*
X137493517Y-100147871D01*
X137598607Y-100199246D01*
X137632673Y-100204209D01*
X137666739Y-100209173D01*
X137666740Y-100209173D01*
X139383261Y-100209173D01*
X139405971Y-100205864D01*
X139451393Y-100199246D01*
X139556483Y-100147871D01*
X139639198Y-100065156D01*
X139690573Y-99960066D01*
X139700500Y-99891933D01*
X139700500Y-99525413D01*
X139690573Y-99457280D01*
X139639198Y-99352190D01*
X139639196Y-99352188D01*
X139639196Y-99352187D01*
X139556485Y-99269476D01*
X139451391Y-99218099D01*
X139383261Y-99208173D01*
X139383260Y-99208173D01*
X139049500Y-99208173D01*
X138982461Y-99188488D01*
X138936706Y-99135684D01*
X138925500Y-99084173D01*
X138925500Y-99063173D01*
X138945185Y-98996134D01*
X138997989Y-98950379D01*
X139049500Y-98939173D01*
X139383261Y-98939173D01*
X139405971Y-98935864D01*
X139451393Y-98929246D01*
X139556483Y-98877871D01*
X139639198Y-98795156D01*
X139690573Y-98690066D01*
X139700500Y-98621933D01*
X139700500Y-98255413D01*
X139691393Y-98192909D01*
X140748539Y-98192909D01*
X140748539Y-98941850D01*
X140900901Y-99094212D01*
X141379397Y-99094212D01*
X141387533Y-99073673D01*
X141370526Y-99030743D01*
X141367336Y-99021679D01*
X141344481Y-98947711D01*
X141342002Y-98938428D01*
X141329187Y-98881702D01*
X141327435Y-98872256D01*
X141309326Y-98747964D01*
X141308760Y-98743517D01*
X141305823Y-98716561D01*
X141305418Y-98712097D01*
X141302807Y-98676087D01*
X141302563Y-98671606D01*
X141301581Y-98644479D01*
X141301500Y-98639993D01*
X141301500Y-98255412D01*
X142299500Y-98255412D01*
X142299500Y-98621933D01*
X142309426Y-98690064D01*
X142360803Y-98795158D01*
X142443514Y-98877869D01*
X142443515Y-98877869D01*
X142443517Y-98877871D01*
X142548607Y-98929246D01*
X142582673Y-98934209D01*
X142616739Y-98939173D01*
X144332744Y-98939173D01*
X144399783Y-98958858D01*
X144420425Y-98975492D01*
X144443386Y-98998453D01*
X144476871Y-99059776D01*
X144471887Y-99129468D01*
X144430015Y-99185401D01*
X144364551Y-99209818D01*
X144337831Y-99208839D01*
X144333260Y-99208173D01*
X142616740Y-99208173D01*
X142616739Y-99208173D01*
X142548608Y-99218099D01*
X142443514Y-99269476D01*
X142360803Y-99352187D01*
X142309426Y-99457281D01*
X142299500Y-99525412D01*
X142299500Y-99891933D01*
X142309426Y-99960064D01*
X142360803Y-100065158D01*
X142443514Y-100147869D01*
X142443515Y-100147869D01*
X142443517Y-100147871D01*
X142548607Y-100199246D01*
X142582673Y-100204209D01*
X142616739Y-100209173D01*
X144332744Y-100209173D01*
X144399783Y-100228858D01*
X144420425Y-100245492D01*
X144443386Y-100268453D01*
X144476871Y-100329776D01*
X144471887Y-100399468D01*
X144430015Y-100455401D01*
X144364551Y-100479818D01*
X144337831Y-100478839D01*
X144333260Y-100478173D01*
X142616740Y-100478173D01*
X142616739Y-100478173D01*
X142548608Y-100488099D01*
X142443514Y-100539476D01*
X142360803Y-100622187D01*
X142309426Y-100727281D01*
X142299500Y-100795412D01*
X142299500Y-101161933D01*
X142309426Y-101230064D01*
X142360803Y-101335158D01*
X142443514Y-101417869D01*
X142443515Y-101417869D01*
X142443517Y-101417871D01*
X142548607Y-101469246D01*
X142582673Y-101474209D01*
X142616739Y-101479173D01*
X142616740Y-101479173D01*
X144261418Y-101479173D01*
X144328457Y-101498858D01*
X144349099Y-101515492D01*
X144370099Y-101536492D01*
X144403584Y-101597815D01*
X144398600Y-101667507D01*
X144356728Y-101723440D01*
X144291264Y-101747857D01*
X144282418Y-101748173D01*
X142616739Y-101748173D01*
X142548608Y-101758099D01*
X142443514Y-101809476D01*
X142360803Y-101892187D01*
X142309426Y-101997281D01*
X142299500Y-102065412D01*
X142299500Y-102431933D01*
X142309426Y-102500064D01*
X142360803Y-102605158D01*
X142443514Y-102687869D01*
X142443515Y-102687869D01*
X142443517Y-102687871D01*
X142548607Y-102739246D01*
X142582673Y-102744209D01*
X142616739Y-102749173D01*
X142616740Y-102749173D01*
X144333261Y-102749173D01*
X144360350Y-102745226D01*
X144401393Y-102739246D01*
X144421040Y-102729640D01*
X144489913Y-102717882D01*
X144554210Y-102745226D01*
X144593517Y-102802990D01*
X144599500Y-102841042D01*
X144599500Y-104852726D01*
X144626793Y-104954589D01*
X144643573Y-104983652D01*
X144679520Y-105045913D01*
X145377760Y-105744153D01*
X145469085Y-105796880D01*
X145570946Y-105824173D01*
X145885500Y-105824173D01*
X145952539Y-105843858D01*
X145998294Y-105896662D01*
X146009500Y-105948173D01*
X146009500Y-106078425D01*
X146021131Y-106136902D01*
X146021132Y-106136903D01*
X146065447Y-106203225D01*
X146131769Y-106247540D01*
X146131770Y-106247541D01*
X146190247Y-106259172D01*
X146190250Y-106259173D01*
X146190252Y-106259173D01*
X149409750Y-106259173D01*
X149409751Y-106259172D01*
X149424568Y-106256225D01*
X149468229Y-106247541D01*
X149468229Y-106247540D01*
X149468231Y-106247540D01*
X149534552Y-106203225D01*
X149578867Y-106136904D01*
X149578867Y-106136902D01*
X149578868Y-106136902D01*
X149590499Y-106078425D01*
X149590500Y-106078423D01*
X149590500Y-104768922D01*
X149590499Y-104768920D01*
X149578868Y-104710443D01*
X149578867Y-104710442D01*
X149534552Y-104644120D01*
X149468230Y-104599805D01*
X149468229Y-104599804D01*
X149409752Y-104588173D01*
X149409748Y-104588173D01*
X146190252Y-104588173D01*
X146190247Y-104588173D01*
X146131770Y-104599804D01*
X146131769Y-104599805D01*
X146065447Y-104644120D01*
X146021132Y-104710442D01*
X146021131Y-104710443D01*
X146009500Y-104768920D01*
X146009500Y-104899173D01*
X145989815Y-104966212D01*
X145937011Y-105011967D01*
X145885500Y-105023173D01*
X145840928Y-105023173D01*
X145773889Y-105003488D01*
X145753247Y-104986854D01*
X145436819Y-104670426D01*
X145403334Y-104609103D01*
X145400500Y-104582745D01*
X145400500Y-104153673D01*
X150407130Y-104153673D01*
X150435925Y-104196767D01*
X150442181Y-104207204D01*
X150476917Y-104272189D01*
X150482119Y-104283188D01*
X150519669Y-104373836D01*
X150523770Y-104385296D01*
X150545163Y-104455819D01*
X150548119Y-104467622D01*
X150574105Y-104598260D01*
X150575146Y-104604260D01*
X150580549Y-104640690D01*
X150581294Y-104646729D01*
X150586097Y-104695500D01*
X150586545Y-104701570D01*
X150588351Y-104738342D01*
X150588500Y-104744425D01*
X150588500Y-105094212D01*
X151598177Y-105094212D01*
X151750539Y-104941850D01*
X151750539Y-103244574D01*
X152748539Y-103244574D01*
X152748539Y-104941850D01*
X152900901Y-105094212D01*
X154598177Y-105094212D01*
X154747103Y-104945284D01*
X154750539Y-104935233D01*
X154750539Y-103244574D01*
X154598177Y-103092212D01*
X152900901Y-103092212D01*
X152748539Y-103244574D01*
X151750539Y-103244574D01*
X151598177Y-103092212D01*
X150588500Y-103092212D01*
X150588500Y-103562921D01*
X150588351Y-103569004D01*
X150586545Y-103605776D01*
X150586097Y-103611846D01*
X150581294Y-103660617D01*
X150580549Y-103666656D01*
X150575146Y-103703086D01*
X150574105Y-103709086D01*
X150548119Y-103839724D01*
X150545163Y-103851527D01*
X150523770Y-103922050D01*
X150519669Y-103933510D01*
X150482119Y-104024158D01*
X150476917Y-104035157D01*
X150442181Y-104100142D01*
X150435925Y-104110579D01*
X150407130Y-104153673D01*
X145400500Y-104153673D01*
X145400500Y-101834927D01*
X145420185Y-101767888D01*
X145472989Y-101722133D01*
X145542147Y-101712189D01*
X145605703Y-101741214D01*
X145612181Y-101747246D01*
X145785415Y-101920480D01*
X145876740Y-101973207D01*
X145943836Y-101991185D01*
X146003496Y-102027548D01*
X146034026Y-102090395D01*
X146025804Y-102159159D01*
X146025806Y-102159160D01*
X146025804Y-102159163D01*
X146025732Y-102159770D01*
X146024970Y-102161176D01*
X146021131Y-102170443D01*
X146009500Y-102228920D01*
X146009500Y-103538425D01*
X146021131Y-103596902D01*
X146021132Y-103596903D01*
X146065447Y-103663225D01*
X146131769Y-103707540D01*
X146131770Y-103707541D01*
X146190247Y-103719172D01*
X146190250Y-103719173D01*
X146190252Y-103719173D01*
X149409750Y-103719173D01*
X149409751Y-103719172D01*
X149424568Y-103716225D01*
X149468229Y-103707541D01*
X149468229Y-103707540D01*
X149468231Y-103707540D01*
X149534552Y-103663225D01*
X149578867Y-103596904D01*
X149578867Y-103596902D01*
X149578868Y-103596902D01*
X149590499Y-103538425D01*
X149590500Y-103538423D01*
X149590500Y-102228922D01*
X149590499Y-102228920D01*
X149578868Y-102170443D01*
X149578867Y-102170442D01*
X149534552Y-102104120D01*
X149468230Y-102059805D01*
X149468229Y-102059804D01*
X149409752Y-102048173D01*
X149409748Y-102048173D01*
X148322528Y-102048173D01*
X148255489Y-102028488D01*
X148209734Y-101975684D01*
X148203745Y-101954816D01*
X148202603Y-101955123D01*
X148199577Y-101943829D01*
X148173207Y-101845413D01*
X148120480Y-101754087D01*
X148045913Y-101679520D01*
X147980066Y-101613673D01*
X150407130Y-101613673D01*
X150435925Y-101656767D01*
X150442181Y-101667204D01*
X150476917Y-101732189D01*
X150482119Y-101743188D01*
X150519669Y-101833836D01*
X150523770Y-101845296D01*
X150545163Y-101915819D01*
X150548119Y-101927622D01*
X150574105Y-102058260D01*
X150575146Y-102064260D01*
X150579588Y-102094212D01*
X151598177Y-102094212D01*
X151750539Y-101941850D01*
X151750539Y-100244574D01*
X152748539Y-100244574D01*
X152748539Y-101941850D01*
X152900901Y-102094212D01*
X154598177Y-102094212D01*
X154750539Y-101941850D01*
X154750539Y-100244574D01*
X154598177Y-100092212D01*
X152900901Y-100092212D01*
X152748539Y-100244574D01*
X151750539Y-100244574D01*
X151598177Y-100092212D01*
X150588500Y-100092212D01*
X150588500Y-101022921D01*
X150588351Y-101029004D01*
X150586545Y-101065776D01*
X150586097Y-101071846D01*
X150581294Y-101120617D01*
X150580549Y-101126656D01*
X150575146Y-101163086D01*
X150574105Y-101169086D01*
X150548119Y-101299724D01*
X150545163Y-101311527D01*
X150523770Y-101382050D01*
X150519669Y-101393510D01*
X150482119Y-101484158D01*
X150476917Y-101495157D01*
X150442181Y-101560142D01*
X150435925Y-101570579D01*
X150407130Y-101613673D01*
X147980066Y-101613673D01*
X147757247Y-101390854D01*
X147723762Y-101329531D01*
X147728746Y-101259839D01*
X147770618Y-101203906D01*
X147836082Y-101179489D01*
X147844928Y-101179173D01*
X149409750Y-101179173D01*
X149409751Y-101179172D01*
X149426424Y-101175856D01*
X149468229Y-101167541D01*
X149468229Y-101167540D01*
X149468231Y-101167540D01*
X149534552Y-101123225D01*
X149578867Y-101056904D01*
X149578867Y-101056902D01*
X149578868Y-101056902D01*
X149590499Y-100998425D01*
X149590500Y-100998423D01*
X149590500Y-99688922D01*
X149590499Y-99688920D01*
X149578868Y-99630443D01*
X149578867Y-99630442D01*
X149534552Y-99564120D01*
X149468230Y-99519805D01*
X149468229Y-99519804D01*
X149409752Y-99508173D01*
X149409748Y-99508173D01*
X146190252Y-99508173D01*
X146190251Y-99508173D01*
X146168209Y-99512557D01*
X146098618Y-99506328D01*
X146056339Y-99478620D01*
X145671931Y-99094212D01*
X150742032Y-99094212D01*
X151598177Y-99094212D01*
X151750539Y-98941850D01*
X151750539Y-97244574D01*
X152748539Y-97244574D01*
X152748539Y-98941850D01*
X152900901Y-99094212D01*
X154598177Y-99094212D01*
X154750539Y-98941850D01*
X154750539Y-97244574D01*
X154598177Y-97092212D01*
X152900901Y-97092212D01*
X152748539Y-97244574D01*
X151750539Y-97244574D01*
X151598177Y-97092212D01*
X150887636Y-97092212D01*
X150887956Y-97104182D01*
X150888000Y-97107496D01*
X150888000Y-97754219D01*
X150878561Y-97801673D01*
X150877732Y-97803673D01*
X150878561Y-97805673D01*
X150888000Y-97853127D01*
X150888000Y-98499850D01*
X150887956Y-98503164D01*
X150887420Y-98523212D01*
X150887287Y-98526528D01*
X150885858Y-98553215D01*
X150885636Y-98556529D01*
X150884023Y-98576578D01*
X150883711Y-98579890D01*
X150872545Y-98683742D01*
X150871478Y-98691411D01*
X150863572Y-98737589D01*
X150862028Y-98745174D01*
X150847685Y-98805885D01*
X150845668Y-98813368D01*
X150832058Y-98858237D01*
X150829579Y-98865577D01*
X150755970Y-99062934D01*
X150752581Y-99071114D01*
X150742032Y-99094212D01*
X145671931Y-99094212D01*
X145064236Y-98486517D01*
X145710000Y-98486517D01*
X145716401Y-98546045D01*
X145716403Y-98546052D01*
X145766645Y-98680759D01*
X145766649Y-98680766D01*
X145852809Y-98795860D01*
X145852812Y-98795863D01*
X145967906Y-98882023D01*
X145967913Y-98882027D01*
X146102620Y-98932269D01*
X146102627Y-98932271D01*
X146162155Y-98938672D01*
X146162172Y-98938673D01*
X147550000Y-98938673D01*
X148050000Y-98938673D01*
X149437828Y-98938673D01*
X149437844Y-98938672D01*
X149497372Y-98932271D01*
X149497379Y-98932269D01*
X149632086Y-98882027D01*
X149632093Y-98882023D01*
X149747187Y-98795863D01*
X149747190Y-98795860D01*
X149833350Y-98680766D01*
X149833354Y-98680759D01*
X149883596Y-98546052D01*
X149883598Y-98546045D01*
X149889999Y-98486517D01*
X149890000Y-98486500D01*
X149890000Y-98053673D01*
X148050000Y-98053673D01*
X148050000Y-98938673D01*
X147550000Y-98938673D01*
X147550000Y-98053673D01*
X145710000Y-98053673D01*
X145710000Y-98486517D01*
X145064236Y-98486517D01*
X144695914Y-98118195D01*
X144695912Y-98118193D01*
X144633554Y-98082190D01*
X144604588Y-98065466D01*
X144592809Y-98062310D01*
X144537226Y-98030217D01*
X144506485Y-97999476D01*
X144498646Y-97995644D01*
X144401393Y-97948100D01*
X144401391Y-97948099D01*
X144333261Y-97938173D01*
X144333260Y-97938173D01*
X142616740Y-97938173D01*
X142616739Y-97938173D01*
X142548608Y-97948099D01*
X142443514Y-97999476D01*
X142360803Y-98082187D01*
X142309426Y-98187281D01*
X142299500Y-98255412D01*
X141301500Y-98255412D01*
X141301500Y-98237353D01*
X141301581Y-98232867D01*
X141302563Y-98205740D01*
X141302807Y-98201259D01*
X141305418Y-98165249D01*
X141305823Y-98160785D01*
X141308760Y-98133829D01*
X141309326Y-98129382D01*
X141327435Y-98005090D01*
X141329187Y-97995644D01*
X141342002Y-97938918D01*
X141344481Y-97929635D01*
X141367336Y-97855667D01*
X141370526Y-97846603D01*
X141391948Y-97792530D01*
X141395830Y-97783741D01*
X141482342Y-97606777D01*
X141487219Y-97597765D01*
X141518973Y-97544473D01*
X141524579Y-97535892D01*
X141572570Y-97468675D01*
X141578865Y-97460588D01*
X141618965Y-97413241D01*
X141625907Y-97405700D01*
X141767027Y-97264580D01*
X141774568Y-97257638D01*
X141821915Y-97217538D01*
X141830002Y-97211243D01*
X141897219Y-97163252D01*
X141905800Y-97157646D01*
X141959092Y-97125892D01*
X141968104Y-97121015D01*
X141968487Y-97120828D01*
X145710000Y-97120828D01*
X145710000Y-97553673D01*
X147550000Y-97553673D01*
X148050000Y-97553673D01*
X149890000Y-97553673D01*
X149890000Y-97120845D01*
X149889999Y-97120828D01*
X149883598Y-97061300D01*
X149883596Y-97061293D01*
X149833354Y-96926586D01*
X149833350Y-96926579D01*
X149747190Y-96811485D01*
X149747187Y-96811482D01*
X149632093Y-96725322D01*
X149632086Y-96725318D01*
X149497379Y-96675076D01*
X149497372Y-96675074D01*
X149437844Y-96668673D01*
X148050000Y-96668673D01*
X148050000Y-97553673D01*
X147550000Y-97553673D01*
X147550000Y-96668673D01*
X146162155Y-96668673D01*
X146102627Y-96675074D01*
X146102620Y-96675076D01*
X145967913Y-96725318D01*
X145967906Y-96725322D01*
X145852812Y-96811482D01*
X145852809Y-96811485D01*
X145766649Y-96926579D01*
X145766645Y-96926586D01*
X145716403Y-97061293D01*
X145716401Y-97061300D01*
X145710000Y-97120828D01*
X141968487Y-97120828D01*
X142027022Y-97092212D01*
X141849237Y-97092212D01*
X140748539Y-98192909D01*
X139691393Y-98192909D01*
X139690573Y-98187280D01*
X139639198Y-98082190D01*
X139639196Y-98082188D01*
X139639196Y-98082187D01*
X139631218Y-98074209D01*
X139597733Y-98012886D01*
X139602717Y-97943194D01*
X139631218Y-97898847D01*
X141500065Y-96030001D01*
X143034039Y-96030001D01*
X143045442Y-96116627D01*
X143045444Y-96116633D01*
X143105899Y-96262585D01*
X143202075Y-96387924D01*
X143327414Y-96484100D01*
X143473366Y-96544555D01*
X143473372Y-96544557D01*
X143529998Y-96552011D01*
X143530000Y-96552010D01*
X143930000Y-96552010D01*
X143930001Y-96552011D01*
X143986627Y-96544557D01*
X143986633Y-96544555D01*
X144132585Y-96484100D01*
X144257924Y-96387924D01*
X144354100Y-96262586D01*
X144414554Y-96116634D01*
X144414555Y-96116630D01*
X144425961Y-96030000D01*
X143930000Y-96030000D01*
X143930000Y-96552010D01*
X143530000Y-96552010D01*
X143530000Y-96030000D01*
X143034041Y-96030000D01*
X143034039Y-96030001D01*
X141500065Y-96030001D01*
X141973247Y-95556819D01*
X142034570Y-95523334D01*
X142060928Y-95520500D01*
X142907060Y-95520500D01*
X142974099Y-95540185D01*
X143019854Y-95592989D01*
X143023620Y-95618120D01*
X143034039Y-95630000D01*
X144425959Y-95630000D01*
X144436693Y-95617759D01*
X144440767Y-95591646D01*
X144487149Y-95539392D01*
X144552939Y-95520500D01*
X145885500Y-95520500D01*
X145952539Y-95540185D01*
X145998294Y-95592989D01*
X146009500Y-95644500D01*
X146009500Y-95918425D01*
X146021131Y-95976902D01*
X146021132Y-95976903D01*
X146065447Y-96043225D01*
X146131769Y-96087540D01*
X146131770Y-96087541D01*
X146190247Y-96099172D01*
X146190250Y-96099173D01*
X146190252Y-96099173D01*
X149409750Y-96099173D01*
X149409751Y-96099172D01*
X149434689Y-96094212D01*
X149468229Y-96087541D01*
X149468229Y-96087540D01*
X149468231Y-96087540D01*
X149534552Y-96043225D01*
X149578867Y-95976904D01*
X149578867Y-95976902D01*
X149578868Y-95976902D01*
X149590499Y-95918425D01*
X149590500Y-95918423D01*
X149590500Y-94608922D01*
X149590499Y-94608920D01*
X149578868Y-94550443D01*
X149578867Y-94550442D01*
X149534552Y-94484120D01*
X149468230Y-94439805D01*
X149468229Y-94439804D01*
X149409752Y-94428173D01*
X149409748Y-94428173D01*
X146190252Y-94428173D01*
X146190247Y-94428173D01*
X146131770Y-94439804D01*
X146131769Y-94439805D01*
X146065447Y-94484120D01*
X146021132Y-94550442D01*
X146021131Y-94550443D01*
X146008311Y-94614899D01*
X146006819Y-94614602D01*
X145983464Y-94672442D01*
X145926429Y-94712800D01*
X145886222Y-94719500D01*
X143987491Y-94719500D01*
X143937405Y-94708935D01*
X143899991Y-94692415D01*
X143874865Y-94689500D01*
X143585143Y-94689500D01*
X143585117Y-94689502D01*
X143560012Y-94692413D01*
X143560010Y-94692414D01*
X143522594Y-94708935D01*
X143472509Y-94719500D01*
X141790946Y-94719500D01*
X141689086Y-94746793D01*
X141689083Y-94746794D01*
X141626119Y-94783147D01*
X141617693Y-94788011D01*
X141597760Y-94799519D01*
X141597758Y-94799521D01*
X138495426Y-97901854D01*
X138434103Y-97935339D01*
X138407745Y-97938173D01*
X137666739Y-97938173D01*
X137598608Y-97948099D01*
X137493514Y-97999476D01*
X137410803Y-98082187D01*
X137359426Y-98187281D01*
X137349500Y-98255412D01*
X136351500Y-98255412D01*
X136351500Y-98237353D01*
X136351581Y-98232867D01*
X136352563Y-98205740D01*
X136352807Y-98201259D01*
X136355418Y-98165249D01*
X136355823Y-98160785D01*
X136358760Y-98133829D01*
X136359326Y-98129382D01*
X136377435Y-98005090D01*
X136379187Y-97995644D01*
X136392002Y-97938918D01*
X136394481Y-97929635D01*
X136417336Y-97855667D01*
X136420526Y-97846603D01*
X136441948Y-97792530D01*
X136445830Y-97783741D01*
X136532342Y-97606777D01*
X136537219Y-97597765D01*
X136568973Y-97544473D01*
X136574579Y-97535892D01*
X136622570Y-97468675D01*
X136628865Y-97460588D01*
X136668965Y-97413241D01*
X136675907Y-97405700D01*
X136750539Y-97331068D01*
X136750539Y-97244574D01*
X136598177Y-97092212D01*
X134900901Y-97092212D01*
X134748539Y-97244574D01*
X133750539Y-97244574D01*
X133598177Y-97092212D01*
X131900901Y-97092212D01*
X131748539Y-97244574D01*
X130750539Y-97244574D01*
X130598177Y-97092212D01*
X128900901Y-97092212D01*
X128748539Y-97244574D01*
X127750539Y-97244574D01*
X127598177Y-97092212D01*
X126872793Y-97092212D01*
X126795660Y-97424596D01*
X126666039Y-98147808D01*
X126573224Y-98876578D01*
X126556650Y-99094212D01*
X125555761Y-99094212D01*
X125579785Y-98778735D01*
X125580421Y-98772489D01*
X125678838Y-97999730D01*
X125679788Y-97993531D01*
X125817228Y-97226699D01*
X125818479Y-97220614D01*
X125994581Y-96461733D01*
X125996142Y-96455701D01*
X126210462Y-95706686D01*
X126212330Y-95700735D01*
X126464303Y-94963563D01*
X126466464Y-94957726D01*
X126751332Y-94244574D01*
X128748539Y-94244574D01*
X128748539Y-95941850D01*
X128900901Y-96094212D01*
X130598177Y-96094212D01*
X130750539Y-95941850D01*
X130750539Y-94244574D01*
X131748539Y-94244574D01*
X131748539Y-95941850D01*
X131900901Y-96094212D01*
X133598177Y-96094212D01*
X133750539Y-95941850D01*
X133750539Y-94244574D01*
X134748539Y-94244574D01*
X134748539Y-95941850D01*
X134900901Y-96094212D01*
X136598177Y-96094212D01*
X136750539Y-95941850D01*
X136750539Y-94244574D01*
X137748539Y-94244574D01*
X137748539Y-95941850D01*
X137900901Y-96094212D01*
X138891684Y-96094212D01*
X139750539Y-95235357D01*
X139750539Y-94244574D01*
X139598177Y-94092212D01*
X150466239Y-94092212D01*
X150476917Y-94112189D01*
X150482119Y-94123188D01*
X150519669Y-94213836D01*
X150523770Y-94225296D01*
X150545163Y-94295819D01*
X150548119Y-94307622D01*
X150574105Y-94438260D01*
X150575146Y-94444260D01*
X150580549Y-94480690D01*
X150581294Y-94486729D01*
X150586097Y-94535500D01*
X150586545Y-94541570D01*
X150588351Y-94578342D01*
X150588500Y-94584425D01*
X150588500Y-95942921D01*
X150588351Y-95949004D01*
X150586545Y-95985776D01*
X150586097Y-95991846D01*
X150581294Y-96040617D01*
X150580549Y-96046656D01*
X150575146Y-96083086D01*
X150574105Y-96089086D01*
X150573085Y-96094212D01*
X151598177Y-96094212D01*
X151750539Y-95941850D01*
X151750539Y-94244574D01*
X152748539Y-94244574D01*
X152748539Y-95941850D01*
X152900901Y-96094212D01*
X154598177Y-96094212D01*
X154750539Y-95941850D01*
X154750539Y-95752107D01*
X154598515Y-95307347D01*
X154325962Y-94625023D01*
X154081149Y-94092212D01*
X152900901Y-94092212D01*
X152748539Y-94244574D01*
X151750539Y-94244574D01*
X151598177Y-94092212D01*
X150466239Y-94092212D01*
X139598177Y-94092212D01*
X137900901Y-94092212D01*
X137748539Y-94244574D01*
X136750539Y-94244574D01*
X136598177Y-94092212D01*
X134900901Y-94092212D01*
X134748539Y-94244574D01*
X133750539Y-94244574D01*
X133598177Y-94092212D01*
X131900901Y-94092212D01*
X131748539Y-94244574D01*
X130750539Y-94244574D01*
X130598177Y-94092212D01*
X128900901Y-94092212D01*
X128748539Y-94244574D01*
X126751332Y-94244574D01*
X126755462Y-94234234D01*
X126757916Y-94228516D01*
X127083165Y-93520643D01*
X127085925Y-93515015D01*
X127305735Y-93094212D01*
X127446615Y-92824509D01*
X127449660Y-92819025D01*
X127584601Y-92589792D01*
X128748539Y-92589792D01*
X128748539Y-92941850D01*
X128900901Y-93094212D01*
X130598177Y-93094212D01*
X130750539Y-92941850D01*
X130750539Y-91244574D01*
X131748539Y-91244574D01*
X131748539Y-92941850D01*
X131900901Y-93094212D01*
X133598177Y-93094212D01*
X133750539Y-92941850D01*
X133750539Y-91244574D01*
X134748539Y-91244574D01*
X134748539Y-92941850D01*
X134900901Y-93094212D01*
X136598177Y-93094212D01*
X136750539Y-92941850D01*
X136750539Y-91244574D01*
X137748539Y-91244574D01*
X137748539Y-92941850D01*
X137900901Y-93094212D01*
X139598177Y-93094212D01*
X139750539Y-92941850D01*
X139750539Y-91244574D01*
X140748539Y-91244574D01*
X140748539Y-92941850D01*
X140900901Y-93094212D01*
X142598177Y-93094212D01*
X147765461Y-93094212D01*
X148598177Y-93094212D01*
X148750539Y-92941850D01*
X148750539Y-91244574D01*
X149748539Y-91244574D01*
X149748539Y-92941850D01*
X149900901Y-93094212D01*
X151598177Y-93094212D01*
X151750539Y-92941850D01*
X151750539Y-91244574D01*
X151598177Y-91092212D01*
X149900901Y-91092212D01*
X149748539Y-91244574D01*
X148750539Y-91244574D01*
X148598177Y-91092212D01*
X148318621Y-91092212D01*
X148325003Y-91121000D01*
X148326058Y-91126307D01*
X148333621Y-91169202D01*
X148334444Y-91174549D01*
X148338715Y-91206993D01*
X148339304Y-91212370D01*
X148362933Y-91482451D01*
X148363287Y-91487848D01*
X148364715Y-91520548D01*
X148364833Y-91525958D01*
X148364833Y-91569516D01*
X148364715Y-91574926D01*
X148363287Y-91607626D01*
X148362933Y-91613023D01*
X148339304Y-91883104D01*
X148338715Y-91888481D01*
X148334444Y-91920925D01*
X148333621Y-91926272D01*
X148326058Y-91969167D01*
X148325003Y-91974474D01*
X148317918Y-92006433D01*
X148316632Y-92011688D01*
X148246460Y-92273578D01*
X148244945Y-92278775D01*
X148235096Y-92310010D01*
X148233355Y-92315138D01*
X148218454Y-92356070D01*
X148216495Y-92361108D01*
X148203976Y-92391329D01*
X148201798Y-92396278D01*
X148087222Y-92641986D01*
X148084828Y-92646840D01*
X148069712Y-92675876D01*
X148067111Y-92680617D01*
X148045333Y-92718338D01*
X148042525Y-92722965D01*
X148024943Y-92750562D01*
X148021939Y-92755058D01*
X147866439Y-92977138D01*
X147863242Y-92981498D01*
X147843322Y-93007460D01*
X147839935Y-93011681D01*
X147811936Y-93045050D01*
X147808368Y-93049118D01*
X147786250Y-93073256D01*
X147782508Y-93077165D01*
X147765461Y-93094212D01*
X142598177Y-93094212D01*
X142750539Y-92941850D01*
X142750539Y-91547735D01*
X144755897Y-91547735D01*
X144755897Y-91547738D01*
X144775729Y-91774423D01*
X144775731Y-91774434D01*
X144834623Y-91994225D01*
X144834626Y-91994234D01*
X144930796Y-92200469D01*
X144930797Y-92200471D01*
X145061319Y-92386878D01*
X145222223Y-92547782D01*
X145222226Y-92547784D01*
X145408631Y-92678305D01*
X145614869Y-92774476D01*
X145834673Y-92833372D01*
X145996595Y-92847538D01*
X146061363Y-92853205D01*
X146061365Y-92853205D01*
X146061367Y-92853205D01*
X146118038Y-92848246D01*
X146288057Y-92833372D01*
X146507861Y-92774476D01*
X146714099Y-92678305D01*
X146900504Y-92547784D01*
X147061412Y-92386876D01*
X147191933Y-92200471D01*
X147288104Y-91994233D01*
X147347000Y-91774429D01*
X147366833Y-91547737D01*
X147347000Y-91321045D01*
X147288104Y-91101241D01*
X147191933Y-90895003D01*
X147061412Y-90708598D01*
X147061410Y-90708595D01*
X146900506Y-90547691D01*
X146714099Y-90417169D01*
X146714097Y-90417168D01*
X146507862Y-90320998D01*
X146507853Y-90320995D01*
X146288062Y-90262103D01*
X146288058Y-90262102D01*
X146288057Y-90262102D01*
X146288056Y-90262101D01*
X146288051Y-90262101D01*
X146061367Y-90242269D01*
X146061363Y-90242269D01*
X145834678Y-90262101D01*
X145834667Y-90262103D01*
X145614876Y-90320995D01*
X145614867Y-90320998D01*
X145408632Y-90417168D01*
X145408630Y-90417169D01*
X145222223Y-90547691D01*
X145061319Y-90708595D01*
X144930797Y-90895002D01*
X144930796Y-90895004D01*
X144834626Y-91101239D01*
X144834623Y-91101248D01*
X144775731Y-91321039D01*
X144775729Y-91321050D01*
X144755897Y-91547735D01*
X142750539Y-91547735D01*
X142750539Y-91244574D01*
X142598177Y-91092212D01*
X140900901Y-91092212D01*
X140748539Y-91244574D01*
X139750539Y-91244574D01*
X139598177Y-91092212D01*
X137900901Y-91092212D01*
X137748539Y-91244574D01*
X136750539Y-91244574D01*
X136598177Y-91092212D01*
X134900901Y-91092212D01*
X134748539Y-91244574D01*
X133750539Y-91244574D01*
X133598177Y-91092212D01*
X131900901Y-91092212D01*
X131748539Y-91244574D01*
X130750539Y-91244574D01*
X130598177Y-91092212D01*
X129838754Y-91092212D01*
X129532832Y-91467393D01*
X129097937Y-92059642D01*
X128748539Y-92589792D01*
X127584601Y-92589792D01*
X127844869Y-92147660D01*
X127848161Y-92142380D01*
X128276849Y-91491921D01*
X128280408Y-91486806D01*
X128741536Y-90858833D01*
X128745338Y-90853922D01*
X129237644Y-90250158D01*
X129241731Y-90245397D01*
X129378322Y-90094212D01*
X129763996Y-89667329D01*
X129768286Y-89662817D01*
X130248677Y-89182426D01*
X131748539Y-89182426D01*
X131748539Y-89941850D01*
X131900901Y-90094212D01*
X133598177Y-90094212D01*
X133750539Y-89941850D01*
X133750539Y-88244574D01*
X134748539Y-88244574D01*
X134748539Y-89941850D01*
X134900901Y-90094212D01*
X136598177Y-90094212D01*
X136750539Y-89941850D01*
X136750539Y-88244574D01*
X137748539Y-88244574D01*
X137748539Y-89941850D01*
X137900901Y-90094212D01*
X139598177Y-90094212D01*
X139750539Y-89941850D01*
X139750539Y-88244574D01*
X140748539Y-88244574D01*
X140748539Y-89941850D01*
X140900901Y-90094212D01*
X142598177Y-90094212D01*
X142750539Y-89941850D01*
X142750539Y-88244574D01*
X143748539Y-88244574D01*
X143748539Y-89941850D01*
X143900901Y-90094212D01*
X144274652Y-90094212D01*
X144279408Y-90088014D01*
X144282795Y-90083793D01*
X144310794Y-90050424D01*
X144314362Y-90046356D01*
X144336480Y-90022218D01*
X144340222Y-90018309D01*
X144531937Y-89826594D01*
X144535846Y-89822852D01*
X144559984Y-89800734D01*
X144564052Y-89797166D01*
X144597421Y-89769167D01*
X144601642Y-89765780D01*
X144627604Y-89745860D01*
X144631964Y-89742663D01*
X144854044Y-89587163D01*
X144858540Y-89584159D01*
X144886137Y-89566577D01*
X144890764Y-89563769D01*
X144928485Y-89541991D01*
X144933226Y-89539390D01*
X144962262Y-89524274D01*
X144967116Y-89521880D01*
X145212824Y-89407304D01*
X145217773Y-89405126D01*
X145247994Y-89392607D01*
X145253032Y-89390648D01*
X145293964Y-89375747D01*
X145299092Y-89374006D01*
X145330327Y-89364157D01*
X145335524Y-89362642D01*
X145597414Y-89292470D01*
X145602669Y-89291184D01*
X145634628Y-89284099D01*
X145639935Y-89283044D01*
X145682830Y-89275481D01*
X145688177Y-89274658D01*
X145720621Y-89270387D01*
X145725997Y-89269798D01*
X145750539Y-89267650D01*
X145750539Y-88244574D01*
X146748539Y-88244574D01*
X146748539Y-89352281D01*
X146787206Y-89362642D01*
X146792403Y-89364157D01*
X146823638Y-89374006D01*
X146828766Y-89375747D01*
X146869698Y-89390648D01*
X146874736Y-89392607D01*
X146904957Y-89405126D01*
X146909906Y-89407304D01*
X147155614Y-89521880D01*
X147160468Y-89524274D01*
X147189504Y-89539390D01*
X147194245Y-89541991D01*
X147231966Y-89563769D01*
X147236593Y-89566577D01*
X147264190Y-89584159D01*
X147268686Y-89587163D01*
X147490766Y-89742663D01*
X147495126Y-89745860D01*
X147521088Y-89765780D01*
X147525309Y-89769167D01*
X147558678Y-89797166D01*
X147562746Y-89800734D01*
X147586884Y-89822852D01*
X147590793Y-89826594D01*
X147782508Y-90018309D01*
X147786250Y-90022218D01*
X147808368Y-90046356D01*
X147811936Y-90050424D01*
X147839935Y-90083793D01*
X147843322Y-90088014D01*
X147848078Y-90094212D01*
X148598177Y-90094212D01*
X148750539Y-89941850D01*
X149748539Y-89941850D01*
X149900901Y-90094212D01*
X151251724Y-90094212D01*
X150990847Y-89833335D01*
X150445664Y-89340781D01*
X149876264Y-88876495D01*
X149748539Y-88782704D01*
X149748539Y-89941850D01*
X148750539Y-89941850D01*
X148750539Y-88244574D01*
X148598177Y-88092212D01*
X146900901Y-88092212D01*
X146748539Y-88244574D01*
X145750539Y-88244574D01*
X145598177Y-88092212D01*
X143900901Y-88092212D01*
X143748539Y-88244574D01*
X142750539Y-88244574D01*
X142598177Y-88092212D01*
X140900901Y-88092212D01*
X140748539Y-88244574D01*
X139750539Y-88244574D01*
X139598177Y-88092212D01*
X137900901Y-88092212D01*
X137748539Y-88244574D01*
X136750539Y-88244574D01*
X136598177Y-88092212D01*
X134900901Y-88092212D01*
X134748539Y-88244574D01*
X133750539Y-88244574D01*
X133598177Y-88092212D01*
X133246120Y-88092212D01*
X132715969Y-88441610D01*
X132123720Y-88876505D01*
X131748539Y-89182426D01*
X130248677Y-89182426D01*
X130319144Y-89111959D01*
X130323656Y-89107669D01*
X130901730Y-88585398D01*
X130906491Y-88581312D01*
X131077822Y-88441610D01*
X131510249Y-88089011D01*
X131515160Y-88085209D01*
X132143133Y-87624081D01*
X132148248Y-87620522D01*
X132798707Y-87191834D01*
X132803987Y-87188542D01*
X133475360Y-86793328D01*
X133480836Y-86790288D01*
X134171354Y-86429591D01*
X134176970Y-86426838D01*
X134634829Y-86216464D01*
X137748539Y-86216464D01*
X137748539Y-86941850D01*
X137900901Y-87094212D01*
X139598177Y-87094212D01*
X139750539Y-86941850D01*
X139750539Y-85900323D01*
X139532905Y-85916897D01*
X138804135Y-86009712D01*
X138080922Y-86139333D01*
X137748539Y-86216464D01*
X134634829Y-86216464D01*
X134884843Y-86101589D01*
X134890561Y-86099135D01*
X135517104Y-85848863D01*
X140748539Y-85848863D01*
X140748539Y-86941850D01*
X140900901Y-87094212D01*
X142598177Y-87094212D01*
X142750539Y-86941850D01*
X143748539Y-86941850D01*
X143900901Y-87094212D01*
X145598177Y-87094212D01*
X145750539Y-86941850D01*
X145750539Y-86647471D01*
X145341141Y-86507535D01*
X144634718Y-86305402D01*
X143919075Y-86139333D01*
X143748539Y-86108768D01*
X143748539Y-86941850D01*
X142750539Y-86941850D01*
X142750539Y-85952995D01*
X142467092Y-85916897D01*
X141734447Y-85861103D01*
X140999998Y-85842491D01*
X140748539Y-85848863D01*
X135517104Y-85848863D01*
X135614053Y-85810137D01*
X135619890Y-85807976D01*
X136357062Y-85556003D01*
X136363013Y-85554135D01*
X137112028Y-85339815D01*
X137118060Y-85338254D01*
X137876941Y-85162152D01*
X137883026Y-85160901D01*
X138649869Y-85023459D01*
X138656057Y-85022511D01*
X139428820Y-84924093D01*
X139435062Y-84923458D01*
X140211845Y-84864303D01*
X140218097Y-84863986D01*
X140996882Y-84844252D01*
X141003118Y-84844252D01*
X141781900Y-84863986D01*
G37*
%TD.AperFunction*%
%TD*%
M02*
