%TF.GenerationSoftware,KiCad,Pcbnew,8.0.4*%
%TF.CreationDate,2024-09-16T16:17:47+01:00*%
%TF.ProjectId,algoritmi_motor,616c676f-7269-4746-9d69-5f6d6f746f72,rev?*%
%TF.SameCoordinates,Original*%
%TF.FileFunction,Legend,Top*%
%TF.FilePolarity,Positive*%
%FSLAX46Y46*%
G04 Gerber Fmt 4.6, Leading zero omitted, Abs format (unit mm)*
G04 Created by KiCad (PCBNEW 8.0.4) date 2024-09-16 16:17:47*
%MOMM*%
%LPD*%
G01*
G04 APERTURE LIST*
%ADD10C,0.100000*%
%ADD11C,0.175000*%
%ADD12C,0.150000*%
%ADD13C,0.200000*%
%ADD14C,0.120000*%
G04 APERTURE END LIST*
D10*
G36*
X154759588Y-96789087D02*
G01*
X154748157Y-96816051D01*
X154720753Y-96827042D01*
X154693642Y-96816051D01*
X154682651Y-96789087D01*
X154682651Y-96750252D01*
X154693642Y-96723288D01*
X154764570Y-96654704D01*
X154791535Y-96643127D01*
X154949511Y-96643127D01*
X154976475Y-96654997D01*
X155047404Y-96725046D01*
X155058394Y-96752011D01*
X155058394Y-96867635D01*
X155047404Y-96894600D01*
X155030551Y-96911599D01*
X155019560Y-96938563D01*
X155030551Y-96966407D01*
X155047404Y-96983260D01*
X155058394Y-97010371D01*
X155058394Y-97125116D01*
X155047404Y-97152080D01*
X154976475Y-97222129D01*
X154949511Y-97234000D01*
X154791535Y-97234000D01*
X154764570Y-97222422D01*
X154693642Y-97153839D01*
X154682651Y-97126875D01*
X154682651Y-97088040D01*
X154693642Y-97061515D01*
X154720753Y-97050964D01*
X154748157Y-97061515D01*
X154759588Y-97088040D01*
X154759588Y-97098152D01*
X154768087Y-97119254D01*
X154799302Y-97150468D01*
X154820404Y-97158968D01*
X154920788Y-97158968D01*
X154941891Y-97150615D01*
X154973105Y-97119694D01*
X154981605Y-97098738D01*
X154981605Y-97041878D01*
X154973105Y-97020922D01*
X154941891Y-96989122D01*
X154920788Y-96980769D01*
X154824508Y-96980769D01*
X154796664Y-96969631D01*
X154785673Y-96942813D01*
X154796664Y-96916435D01*
X154824508Y-96905737D01*
X154920788Y-96905737D01*
X154941891Y-96896944D01*
X154973105Y-96863678D01*
X154981605Y-96841697D01*
X154981605Y-96781320D01*
X154973105Y-96759338D01*
X154941891Y-96726951D01*
X154920788Y-96718159D01*
X154820404Y-96718159D01*
X154799302Y-96726658D01*
X154768087Y-96757872D01*
X154759588Y-96778975D01*
X154759588Y-96789087D01*
G37*
G36*
X155519134Y-96681083D02*
G01*
X155530418Y-96654118D01*
X155557969Y-96643127D01*
X155584933Y-96654118D01*
X155595924Y-96681083D01*
X155595924Y-97061808D01*
X155584054Y-97089652D01*
X155450697Y-97223009D01*
X155423733Y-97234000D01*
X155392372Y-97234000D01*
X155365408Y-97223009D01*
X155232051Y-97089652D01*
X155220193Y-97062803D01*
X155220181Y-97061808D01*
X155220181Y-96681083D01*
X155231172Y-96654118D01*
X155258283Y-96643127D01*
X155285687Y-96654118D01*
X155297117Y-96681083D01*
X155297117Y-97032353D01*
X155305617Y-97053455D01*
X155380648Y-97129219D01*
X155408492Y-97140210D01*
X155435603Y-97129219D01*
X155510635Y-97053455D01*
X155519134Y-97032353D01*
X155519134Y-96681083D01*
G37*
G36*
X155834647Y-96789087D02*
G01*
X155823217Y-96816051D01*
X155795812Y-96827042D01*
X155768702Y-96816051D01*
X155757711Y-96789087D01*
X155757711Y-96750252D01*
X155768702Y-96723288D01*
X155839630Y-96654704D01*
X155866594Y-96643127D01*
X156024570Y-96643127D01*
X156051535Y-96654997D01*
X156122463Y-96725046D01*
X156133454Y-96752011D01*
X156133454Y-96867635D01*
X156122463Y-96894600D01*
X156105610Y-96911599D01*
X156094619Y-96938563D01*
X156105610Y-96966407D01*
X156122463Y-96983260D01*
X156133454Y-97010371D01*
X156133454Y-97125116D01*
X156122463Y-97152080D01*
X156051535Y-97222129D01*
X156024570Y-97234000D01*
X155866594Y-97234000D01*
X155839630Y-97222422D01*
X155768702Y-97153839D01*
X155757711Y-97126875D01*
X155757711Y-97088040D01*
X155768702Y-97061515D01*
X155795812Y-97050964D01*
X155823217Y-97061515D01*
X155834647Y-97088040D01*
X155834647Y-97098152D01*
X155843147Y-97119254D01*
X155874361Y-97150468D01*
X155895464Y-97158968D01*
X155995847Y-97158968D01*
X156016950Y-97150615D01*
X156048164Y-97119694D01*
X156056664Y-97098738D01*
X156056664Y-97041878D01*
X156048164Y-97020922D01*
X156016950Y-96989122D01*
X155995847Y-96980769D01*
X155899567Y-96980769D01*
X155871723Y-96969631D01*
X155860732Y-96942813D01*
X155871723Y-96916435D01*
X155899567Y-96905737D01*
X155995847Y-96905737D01*
X156016950Y-96896944D01*
X156048164Y-96863678D01*
X156056664Y-96841697D01*
X156056664Y-96781320D01*
X156048164Y-96759338D01*
X156016950Y-96726951D01*
X155995847Y-96718159D01*
X155895464Y-96718159D01*
X155874361Y-96726658D01*
X155843147Y-96757872D01*
X155834647Y-96778975D01*
X155834647Y-96789087D01*
G37*
G36*
X154981605Y-98794975D02*
G01*
X154973105Y-98773872D01*
X154941891Y-98742658D01*
X154920788Y-98734159D01*
X154820404Y-98734159D01*
X154799302Y-98742658D01*
X154768087Y-98774166D01*
X154759588Y-98795415D01*
X154759588Y-99113712D01*
X154768087Y-99134961D01*
X154799302Y-99166468D01*
X154820404Y-99174968D01*
X154920788Y-99174968D01*
X154941891Y-99166615D01*
X154973105Y-99135694D01*
X154981605Y-99114738D01*
X154981605Y-99034431D01*
X154970614Y-99007613D01*
X154943503Y-98996769D01*
X154892944Y-98996769D01*
X154865394Y-98985631D01*
X154854110Y-98958813D01*
X154865394Y-98932435D01*
X154892944Y-98921737D01*
X155020439Y-98921737D01*
X155047404Y-98932581D01*
X155058394Y-98959106D01*
X155058394Y-99141995D01*
X155047404Y-99169399D01*
X154976475Y-99238422D01*
X154948632Y-99250000D01*
X154791535Y-99250000D01*
X154764570Y-99238129D01*
X154693642Y-99168080D01*
X154682651Y-99140237D01*
X154682651Y-98768011D01*
X154693642Y-98741046D01*
X154764570Y-98670997D01*
X154791535Y-98659127D01*
X154948632Y-98659127D01*
X154976475Y-98670704D01*
X155047404Y-98739288D01*
X155058394Y-98766252D01*
X155058394Y-98805087D01*
X155047404Y-98832051D01*
X155020439Y-98843042D01*
X154992889Y-98832051D01*
X154981605Y-98805087D01*
X154981605Y-98794975D01*
G37*
G36*
X155513126Y-99058318D02*
G01*
X155517376Y-99062568D01*
X155519134Y-99056706D01*
X155519134Y-98697083D01*
X155530418Y-98670118D01*
X155557969Y-98659127D01*
X155584933Y-98670118D01*
X155595924Y-98697083D01*
X155595924Y-99212044D01*
X155584933Y-99239009D01*
X155557969Y-99250000D01*
X155530684Y-99239118D01*
X155524117Y-99230655D01*
X155302979Y-98849930D01*
X155298729Y-98845680D01*
X155297117Y-98851542D01*
X155297117Y-99212044D01*
X155285687Y-99239009D01*
X155258283Y-99250000D01*
X155231172Y-99239009D01*
X155220181Y-99212044D01*
X155220181Y-98697083D01*
X155231172Y-98670118D01*
X155258136Y-98659127D01*
X155285421Y-98670008D01*
X155291988Y-98678471D01*
X155513126Y-99058318D01*
G37*
G36*
X156033803Y-98670118D02*
G01*
X156121584Y-98758778D01*
X156133454Y-98785743D01*
X156133454Y-99123384D01*
X156121584Y-99150348D01*
X156033803Y-99239009D01*
X156006838Y-99250000D01*
X155795666Y-99250000D01*
X155768702Y-99239009D01*
X155757711Y-99212044D01*
X155757711Y-98772407D01*
X155834647Y-98772407D01*
X155834647Y-99136720D01*
X155845638Y-99163977D01*
X155872602Y-99174968D01*
X155978115Y-99174968D01*
X155999218Y-99166468D01*
X156048164Y-99117083D01*
X156056664Y-99095833D01*
X156056664Y-98813293D01*
X156048164Y-98792044D01*
X155999218Y-98742658D01*
X155978115Y-98734159D01*
X155872602Y-98734159D01*
X155845638Y-98745296D01*
X155834647Y-98772407D01*
X155757711Y-98772407D01*
X155757711Y-98697083D01*
X155768702Y-98670118D01*
X155795666Y-98659127D01*
X156006838Y-98659127D01*
X156033803Y-98670118D01*
G37*
G36*
X154759588Y-101111833D02*
G01*
X154768087Y-101133083D01*
X154817034Y-101182468D01*
X154838136Y-101190968D01*
X154903056Y-101190968D01*
X154924159Y-101182468D01*
X154973105Y-101133522D01*
X154981605Y-101112420D01*
X154981605Y-101087067D01*
X154992889Y-101059663D01*
X155020439Y-101048233D01*
X155047404Y-101059663D01*
X155058394Y-101087067D01*
X155058394Y-101141143D01*
X155046524Y-101168107D01*
X154958743Y-101255302D01*
X154931779Y-101266000D01*
X154809267Y-101266000D01*
X154781423Y-101254129D01*
X154693642Y-101166348D01*
X154682651Y-101139384D01*
X154682651Y-100801743D01*
X154693642Y-100774778D01*
X154781423Y-100686997D01*
X154808272Y-100675139D01*
X154809267Y-100675127D01*
X154931779Y-100675127D01*
X154958743Y-100685825D01*
X155046524Y-100773020D01*
X155058394Y-100799984D01*
X155058394Y-100854060D01*
X155047404Y-100881464D01*
X155020439Y-100892894D01*
X154992889Y-100881464D01*
X154981605Y-100854060D01*
X154981605Y-100828707D01*
X154973105Y-100807605D01*
X154924159Y-100758658D01*
X154903056Y-100750159D01*
X154838136Y-100750159D01*
X154817034Y-100758658D01*
X154768087Y-100808044D01*
X154759588Y-100829293D01*
X154759588Y-101111833D01*
G37*
G36*
X155519134Y-100810975D02*
G01*
X155510635Y-100789872D01*
X155479420Y-100758658D01*
X155458318Y-100750159D01*
X155357934Y-100750159D01*
X155336831Y-100758951D01*
X155305617Y-100791338D01*
X155297117Y-100813320D01*
X155297117Y-100873697D01*
X155305617Y-100895678D01*
X155336831Y-100928944D01*
X155357934Y-100937737D01*
X155487041Y-100937737D01*
X155514005Y-100948581D01*
X155584933Y-101019217D01*
X155595924Y-101045741D01*
X155595924Y-101158728D01*
X155584933Y-101185399D01*
X155514005Y-101254422D01*
X155487041Y-101266000D01*
X155329064Y-101266000D01*
X155302100Y-101254422D01*
X155231172Y-101185839D01*
X155220181Y-101158875D01*
X155220181Y-101120040D01*
X155231172Y-101093515D01*
X155258283Y-101082964D01*
X155285687Y-101093515D01*
X155297117Y-101120040D01*
X155297117Y-101130152D01*
X155305617Y-101151254D01*
X155336831Y-101182468D01*
X155357934Y-101190968D01*
X155458318Y-101190968D01*
X155479420Y-101182615D01*
X155510635Y-101151694D01*
X155519134Y-101130738D01*
X155519134Y-101073878D01*
X155510635Y-101052922D01*
X155479420Y-101021122D01*
X155458318Y-101012769D01*
X155329064Y-101012769D01*
X155302100Y-101001631D01*
X155231172Y-100929237D01*
X155220181Y-100901980D01*
X155220181Y-100785183D01*
X155231172Y-100757779D01*
X155302100Y-100686997D01*
X155329064Y-100675127D01*
X155487041Y-100675127D01*
X155514005Y-100686704D01*
X155584933Y-100755288D01*
X155595924Y-100782252D01*
X155595924Y-100821087D01*
X155584933Y-100848051D01*
X155557969Y-100859042D01*
X155530418Y-100848051D01*
X155519134Y-100821087D01*
X155519134Y-100810975D01*
G37*
G36*
X156050655Y-101074318D02*
G01*
X156054905Y-101078568D01*
X156056664Y-101072706D01*
X156056664Y-100713083D01*
X156067948Y-100686118D01*
X156095498Y-100675127D01*
X156122463Y-100686118D01*
X156133454Y-100713083D01*
X156133454Y-101228044D01*
X156122463Y-101255009D01*
X156095498Y-101266000D01*
X156068213Y-101255118D01*
X156061646Y-101246655D01*
X155840509Y-100865930D01*
X155836259Y-100861680D01*
X155834647Y-100867542D01*
X155834647Y-101228044D01*
X155823217Y-101255009D01*
X155795812Y-101266000D01*
X155768702Y-101255009D01*
X155757711Y-101228044D01*
X155757711Y-100713083D01*
X155768702Y-100686118D01*
X155795666Y-100675127D01*
X155822951Y-100686008D01*
X155829518Y-100694471D01*
X156050655Y-101074318D01*
G37*
G36*
X154759588Y-103127833D02*
G01*
X154768087Y-103149083D01*
X154817034Y-103198468D01*
X154838136Y-103206968D01*
X154903056Y-103206968D01*
X154924159Y-103198468D01*
X154973105Y-103149522D01*
X154981605Y-103128420D01*
X154981605Y-103103067D01*
X154992889Y-103075663D01*
X155020439Y-103064233D01*
X155047404Y-103075663D01*
X155058394Y-103103067D01*
X155058394Y-103157143D01*
X155046524Y-103184107D01*
X154958743Y-103271302D01*
X154931779Y-103282000D01*
X154809267Y-103282000D01*
X154781423Y-103270129D01*
X154693642Y-103182348D01*
X154682651Y-103155384D01*
X154682651Y-102817743D01*
X154693642Y-102790778D01*
X154781423Y-102702997D01*
X154808272Y-102691139D01*
X154809267Y-102691127D01*
X154931779Y-102691127D01*
X154958743Y-102701825D01*
X155046524Y-102789020D01*
X155058394Y-102815984D01*
X155058394Y-102870060D01*
X155047404Y-102897464D01*
X155020439Y-102908894D01*
X154992889Y-102897464D01*
X154981605Y-102870060D01*
X154981605Y-102844707D01*
X154973105Y-102823605D01*
X154924159Y-102774658D01*
X154903056Y-102766159D01*
X154838136Y-102766159D01*
X154817034Y-102774658D01*
X154768087Y-102824044D01*
X154759588Y-102845293D01*
X154759588Y-103127833D01*
G37*
G36*
X155297117Y-103168866D02*
G01*
X155307962Y-103195977D01*
X155335073Y-103206968D01*
X155557822Y-103206968D01*
X155584933Y-103218106D01*
X155595924Y-103244923D01*
X155584933Y-103271302D01*
X155557822Y-103282000D01*
X155258283Y-103282000D01*
X155231172Y-103271009D01*
X155220181Y-103244044D01*
X155220181Y-102729083D01*
X155231172Y-102702118D01*
X155258283Y-102691127D01*
X155285687Y-102702118D01*
X155297117Y-102729229D01*
X155297117Y-103168866D01*
G37*
G36*
X155872602Y-103028769D02*
G01*
X155845638Y-103040199D01*
X155834647Y-103067603D01*
X155834647Y-103248294D01*
X155823217Y-103275258D01*
X155795812Y-103286249D01*
X155768702Y-103275258D01*
X155757711Y-103248294D01*
X155757711Y-102729522D01*
X155768702Y-102702265D01*
X155795812Y-102691127D01*
X155823217Y-102702411D01*
X155834647Y-102729815D01*
X155834647Y-102914170D01*
X155845638Y-102942160D01*
X155872602Y-102953737D01*
X155912316Y-102953737D01*
X155933419Y-102945091D01*
X156048164Y-102828001D01*
X156056664Y-102806459D01*
X156056664Y-102729815D01*
X156067948Y-102702411D01*
X156095498Y-102691127D01*
X156122463Y-102702265D01*
X156133454Y-102729522D01*
X156133454Y-102834742D01*
X156122463Y-102862146D01*
X156021933Y-102962969D01*
X156010942Y-102990374D01*
X156021933Y-103017631D01*
X156122463Y-103117429D01*
X156133454Y-103144393D01*
X156133454Y-103248294D01*
X156122463Y-103275258D01*
X156095498Y-103286249D01*
X156067948Y-103275258D01*
X156056664Y-103248294D01*
X156056664Y-103173116D01*
X156048164Y-103152013D01*
X155933419Y-103037268D01*
X155912316Y-103028769D01*
X155872602Y-103028769D01*
G37*
G36*
X154958743Y-104718118D02*
G01*
X155046524Y-104806778D01*
X155058394Y-104833743D01*
X155058394Y-105171384D01*
X155046524Y-105198348D01*
X154958743Y-105287009D01*
X154931779Y-105298000D01*
X154720607Y-105298000D01*
X154693642Y-105287009D01*
X154682651Y-105260044D01*
X154682651Y-104820407D01*
X154759588Y-104820407D01*
X154759588Y-105184720D01*
X154770579Y-105211977D01*
X154797543Y-105222968D01*
X154903056Y-105222968D01*
X154924159Y-105214468D01*
X154973105Y-105165083D01*
X154981605Y-105143833D01*
X154981605Y-104861293D01*
X154973105Y-104840044D01*
X154924159Y-104790658D01*
X154903056Y-104782159D01*
X154797543Y-104782159D01*
X154770579Y-104793296D01*
X154759588Y-104820407D01*
X154682651Y-104820407D01*
X154682651Y-104745083D01*
X154693642Y-104718118D01*
X154720607Y-104707127D01*
X154931779Y-104707127D01*
X154958743Y-104718118D01*
G37*
G36*
X155513366Y-104718267D02*
G01*
X155514005Y-104718997D01*
X155584933Y-104789046D01*
X155595924Y-104816011D01*
X155595924Y-105189116D01*
X155584933Y-105216080D01*
X155514005Y-105286129D01*
X155486161Y-105298000D01*
X155329064Y-105298000D01*
X155302100Y-105286129D01*
X155231172Y-105216080D01*
X155220181Y-105189116D01*
X155220181Y-104843415D01*
X155297117Y-104843415D01*
X155297117Y-105161712D01*
X155305617Y-105182961D01*
X155336831Y-105214468D01*
X155357934Y-105222968D01*
X155458318Y-105222968D01*
X155479420Y-105214468D01*
X155510635Y-105182961D01*
X155519134Y-105161712D01*
X155519134Y-104843415D01*
X155510635Y-104822166D01*
X155479420Y-104790658D01*
X155458318Y-104782159D01*
X155357934Y-104782159D01*
X155336831Y-104790658D01*
X155305617Y-104822166D01*
X155297117Y-104843415D01*
X155220181Y-104843415D01*
X155220181Y-104816011D01*
X155231172Y-104789046D01*
X155302100Y-104718997D01*
X155329064Y-104707127D01*
X155486161Y-104707127D01*
X155513366Y-104718267D01*
G37*
D11*
G36*
X153018088Y-92933308D02*
G01*
X153005266Y-92901679D01*
X152973636Y-92888685D01*
X152887980Y-92888685D01*
X152856522Y-92875691D01*
X152843699Y-92844404D01*
X152856522Y-92813629D01*
X152887980Y-92801148D01*
X153063395Y-92801148D01*
X153094854Y-92813971D01*
X153107677Y-92845430D01*
X153107677Y-93362443D01*
X153094854Y-93394927D01*
X153012104Y-93476651D01*
X152980646Y-93490500D01*
X152796340Y-93490500D01*
X152764882Y-93476993D01*
X152682132Y-93396979D01*
X152669310Y-93364495D01*
X152669310Y-93281745D01*
X152682132Y-93249774D01*
X152713762Y-93236438D01*
X152745733Y-93249774D01*
X152759069Y-93281745D01*
X152759069Y-93332010D01*
X152768985Y-93356630D01*
X152805402Y-93393047D01*
X152830021Y-93402963D01*
X152947136Y-93402963D01*
X152971755Y-93393047D01*
X153008172Y-93356288D01*
X153018088Y-93331497D01*
X153018088Y-92933308D01*
G37*
G36*
X153470817Y-92969212D02*
G01*
X153466885Y-92961176D01*
X153460901Y-92964254D01*
X153417645Y-93008706D01*
X153385161Y-93021529D01*
X153353531Y-93008706D01*
X153340880Y-92977077D01*
X153353702Y-92944421D01*
X153483640Y-92813971D01*
X153516124Y-92801148D01*
X153547582Y-92813971D01*
X153560405Y-92845601D01*
X153560405Y-93358511D01*
X153573228Y-93390140D01*
X153604686Y-93402963D01*
X153646061Y-93402963D01*
X153677520Y-93415957D01*
X153690342Y-93447244D01*
X153677520Y-93478019D01*
X153646061Y-93490500D01*
X153385161Y-93490500D01*
X153353531Y-93478019D01*
X153340880Y-93447244D01*
X153353531Y-93415957D01*
X153385161Y-93402963D01*
X153426536Y-93402963D01*
X153457994Y-93390140D01*
X153470817Y-93358511D01*
X153470817Y-92969212D01*
G37*
D12*
G36*
X140559069Y-97331839D02*
G01*
X140568985Y-97356459D01*
X140605402Y-97393047D01*
X140630021Y-97402963D01*
X140747136Y-97402963D01*
X140771755Y-97393047D01*
X140808172Y-97356459D01*
X140818088Y-97331839D01*
X140818088Y-96845601D01*
X140831253Y-96813971D01*
X140863395Y-96801148D01*
X140894854Y-96813971D01*
X140907677Y-96845430D01*
X140907677Y-97363469D01*
X140894854Y-97394927D01*
X140812104Y-97476651D01*
X140779620Y-97490500D01*
X140596340Y-97490500D01*
X140564882Y-97476651D01*
X140482132Y-97394927D01*
X140469310Y-97363469D01*
X140469310Y-96845430D01*
X140482132Y-96813971D01*
X140513762Y-96801148D01*
X140545733Y-96813971D01*
X140559069Y-96845601D01*
X140559069Y-97331839D01*
G37*
G36*
X141270817Y-96969212D02*
G01*
X141266885Y-96961176D01*
X141260901Y-96964254D01*
X141217645Y-97008706D01*
X141185161Y-97021529D01*
X141153531Y-97008706D01*
X141140880Y-96977077D01*
X141153702Y-96944421D01*
X141283640Y-96813971D01*
X141316124Y-96801148D01*
X141347582Y-96813971D01*
X141360405Y-96845601D01*
X141360405Y-97358511D01*
X141373228Y-97390140D01*
X141404686Y-97402963D01*
X141446061Y-97402963D01*
X141477520Y-97415957D01*
X141490342Y-97447244D01*
X141477520Y-97478019D01*
X141446061Y-97490500D01*
X141185161Y-97490500D01*
X141153531Y-97478019D01*
X141140880Y-97447244D01*
X141153531Y-97415957D01*
X141185161Y-97402963D01*
X141226536Y-97402963D01*
X141257994Y-97390140D01*
X141270817Y-97358511D01*
X141270817Y-96969212D01*
G37*
G36*
X143110639Y-95910930D02*
G01*
X143135430Y-95901014D01*
X143193047Y-95843910D01*
X143202963Y-95819290D01*
X143202963Y-95743551D01*
X143193047Y-95718931D01*
X143135943Y-95661827D01*
X143111323Y-95651911D01*
X143081745Y-95651911D01*
X143049774Y-95638746D01*
X143036438Y-95606604D01*
X143049774Y-95575145D01*
X143081745Y-95562322D01*
X143144833Y-95562322D01*
X143176292Y-95576171D01*
X143278019Y-95678582D01*
X143290500Y-95710040D01*
X143290500Y-95852971D01*
X143276651Y-95885456D01*
X143174240Y-95987867D01*
X143142781Y-96000689D01*
X142748867Y-96000689D01*
X142717408Y-95987867D01*
X142614997Y-95885456D01*
X142601162Y-95854131D01*
X142601148Y-95852971D01*
X142601148Y-95710040D01*
X142613629Y-95678582D01*
X142715356Y-95576171D01*
X142746815Y-95562322D01*
X142809903Y-95562322D01*
X142841874Y-95575145D01*
X142855210Y-95606604D01*
X142841874Y-95638746D01*
X142809903Y-95651911D01*
X142780325Y-95651911D01*
X142755705Y-95661827D01*
X142698601Y-95718931D01*
X142688685Y-95743551D01*
X142688685Y-95819290D01*
X142698601Y-95843910D01*
X142756218Y-95901014D01*
X142781009Y-95910930D01*
X143110639Y-95910930D01*
G37*
G36*
X142769212Y-95199182D02*
G01*
X142761176Y-95203114D01*
X142764254Y-95209098D01*
X142808706Y-95252354D01*
X142821529Y-95284838D01*
X142808706Y-95316468D01*
X142777077Y-95329119D01*
X142744421Y-95316297D01*
X142613971Y-95186359D01*
X142601148Y-95153875D01*
X142613971Y-95122417D01*
X142645601Y-95109594D01*
X143158511Y-95109594D01*
X143190140Y-95096771D01*
X143202963Y-95065313D01*
X143202963Y-95023938D01*
X143215957Y-94992479D01*
X143247244Y-94979657D01*
X143278019Y-94992479D01*
X143290500Y-95023938D01*
X143290500Y-95284838D01*
X143278019Y-95316468D01*
X143247244Y-95329119D01*
X143215957Y-95316468D01*
X143202963Y-95284838D01*
X143202963Y-95243463D01*
X143190140Y-95212005D01*
X143158511Y-95199182D01*
X142769212Y-95199182D01*
G37*
D10*
%TO.C,J1*%
X151810000Y-93993673D02*
X154350000Y-93993673D01*
X151810000Y-106693673D02*
X151810000Y-93993673D01*
X154350000Y-93993673D02*
X154350000Y-106693673D01*
X154350000Y-106693673D02*
X151810000Y-106693673D01*
D13*
X145850000Y-95263673D02*
G75*
G02*
X145750000Y-95263673I-50000J0D01*
G01*
X145750000Y-95263673D02*
G75*
G02*
X145850000Y-95263673I50000J0D01*
G01*
D14*
%TO.C,U1*%
X141000000Y-97783673D02*
X139050000Y-97783673D01*
X141000000Y-97783673D02*
X142950000Y-97783673D01*
X141000000Y-102903673D02*
X139050000Y-102903673D01*
X141000000Y-102903673D02*
X142950000Y-102903673D01*
X138300000Y-97878673D02*
X138060000Y-97548673D01*
X138540000Y-97548673D01*
X138300000Y-97878673D01*
G36*
X138300000Y-97878673D02*
G01*
X138060000Y-97548673D01*
X138540000Y-97548673D01*
X138300000Y-97878673D01*
G37*
%TD*%
M02*
