%TF.GenerationSoftware,KiCad,Pcbnew,8.0.4*%
%TF.CreationDate,2024-09-16T16:09:39+01:00*%
%TF.ProjectId,algoritmi_motor_buttons_kicad,616c676f-7269-4746-9d69-5f6d6f746f72,rev?*%
%TF.SameCoordinates,Original*%
%TF.FileFunction,Drillmap*%
%TF.FilePolarity,Positive*%
%FSLAX45Y45*%
G04 Gerber Fmt 4.5, Leading zero omitted, Abs format (unit mm)*
G04 Created by KiCad (PCBNEW 8.0.4) date 2024-09-16 16:09:39*
%MOMM*%
%LPD*%
G01*
G04 APERTURE LIST*
%ADD10C,0.180000*%
%ADD11C,0.090000*%
%ADD12C,0.200000*%
%ADD13C,0.108000*%
G04 APERTURE END LIST*
D10*
X16787622Y-9073077D02*
G75*
G02*
X11787622Y-9073077I-2500000J0D01*
G01*
X11787622Y-9073077D02*
G75*
G02*
X16787622Y-9073077I2500000J0D01*
G01*
D11*
X13100000Y-10540000D02*
G75*
G02*
X12860000Y-10540000I-120000J0D01*
G01*
X12860000Y-10540000D02*
G75*
G02*
X13100000Y-10540000I120000J0D01*
G01*
X14890699Y-8185455D02*
G75*
G02*
X14710699Y-8185455I-90000J0D01*
G01*
X14710699Y-8185455D02*
G75*
G02*
X14890699Y-8185455I90000J0D01*
G01*
X15885000Y-10545000D02*
G75*
G02*
X15645000Y-10545000I-120000J0D01*
G01*
X15645000Y-10545000D02*
G75*
G02*
X15885000Y-10545000I120000J0D01*
G01*
X15895000Y-7615000D02*
G75*
G02*
X15655000Y-7615000I-120000J0D01*
G01*
X15655000Y-7615000D02*
G75*
G02*
X15895000Y-7615000I120000J0D01*
G01*
X13352622Y-9073077D02*
G75*
G02*
X13172622Y-9073077I-90000J0D01*
G01*
X13172622Y-9073077D02*
G75*
G02*
X13352622Y-9073077I90000J0D01*
G01*
X14890008Y-9960927D02*
G75*
G02*
X14710008Y-9960927I-90000J0D01*
G01*
X14710008Y-9960927D02*
G75*
G02*
X14890008Y-9960927I90000J0D01*
G01*
D12*
D13*
X12126000Y-8762000D02*
X12234000Y-8870000D01*
X12234000Y-8762000D02*
X12126000Y-8870000D01*
X12126000Y-9016000D02*
X12234000Y-9124000D01*
X12234000Y-9016000D02*
X12126000Y-9124000D01*
X12126000Y-9270000D02*
X12234000Y-9378000D01*
X12234000Y-9270000D02*
X12126000Y-9378000D01*
X13977000Y-11126000D02*
X14085000Y-11234000D01*
X14085000Y-11126000D02*
X13977000Y-11234000D01*
X13982000Y-6911000D02*
X14090000Y-7019000D01*
X14090000Y-6911000D02*
X13982000Y-7019000D01*
X14231000Y-11126000D02*
X14339000Y-11234000D01*
X14339000Y-11126000D02*
X14231000Y-11234000D01*
X14236000Y-6911000D02*
X14344000Y-7019000D01*
X14344000Y-6911000D02*
X14236000Y-7019000D01*
X14485000Y-11126000D02*
X14593000Y-11234000D01*
X14593000Y-11126000D02*
X14485000Y-11234000D01*
X14490000Y-6911000D02*
X14598000Y-7019000D01*
X14598000Y-6911000D02*
X14490000Y-7019000D01*
X16341000Y-8762000D02*
X16449000Y-8870000D01*
X16449000Y-8762000D02*
X16341000Y-8870000D01*
X16341000Y-9016000D02*
X16449000Y-9124000D01*
X16449000Y-9016000D02*
X16341000Y-9124000D01*
X16341000Y-9270000D02*
X16449000Y-9378000D01*
X16449000Y-9270000D02*
X16341000Y-9378000D01*
D12*
X12039398Y-11893561D02*
X12039398Y-11693561D01*
X12039398Y-11693561D02*
X12087017Y-11693561D01*
X12087017Y-11693561D02*
X12115589Y-11703085D01*
X12115589Y-11703085D02*
X12134637Y-11722132D01*
X12134637Y-11722132D02*
X12144160Y-11741180D01*
X12144160Y-11741180D02*
X12153684Y-11779275D01*
X12153684Y-11779275D02*
X12153684Y-11807847D01*
X12153684Y-11807847D02*
X12144160Y-11845942D01*
X12144160Y-11845942D02*
X12134637Y-11864989D01*
X12134637Y-11864989D02*
X12115589Y-11884037D01*
X12115589Y-11884037D02*
X12087017Y-11893561D01*
X12087017Y-11893561D02*
X12039398Y-11893561D01*
X12239398Y-11893561D02*
X12239398Y-11760228D01*
X12239398Y-11798323D02*
X12248922Y-11779275D01*
X12248922Y-11779275D02*
X12258446Y-11769751D01*
X12258446Y-11769751D02*
X12277494Y-11760228D01*
X12277494Y-11760228D02*
X12296541Y-11760228D01*
X12363208Y-11893561D02*
X12363208Y-11760228D01*
X12363208Y-11693561D02*
X12353684Y-11703085D01*
X12353684Y-11703085D02*
X12363208Y-11712609D01*
X12363208Y-11712609D02*
X12372732Y-11703085D01*
X12372732Y-11703085D02*
X12363208Y-11693561D01*
X12363208Y-11693561D02*
X12363208Y-11712609D01*
X12487017Y-11893561D02*
X12467970Y-11884037D01*
X12467970Y-11884037D02*
X12458446Y-11864989D01*
X12458446Y-11864989D02*
X12458446Y-11693561D01*
X12591779Y-11893561D02*
X12572732Y-11884037D01*
X12572732Y-11884037D02*
X12563208Y-11864989D01*
X12563208Y-11864989D02*
X12563208Y-11693561D01*
X12820351Y-11893561D02*
X12820351Y-11693561D01*
X12820351Y-11693561D02*
X12887018Y-11836418D01*
X12887018Y-11836418D02*
X12953684Y-11693561D01*
X12953684Y-11693561D02*
X12953684Y-11893561D01*
X13134637Y-11893561D02*
X13134637Y-11788799D01*
X13134637Y-11788799D02*
X13125113Y-11769751D01*
X13125113Y-11769751D02*
X13106065Y-11760228D01*
X13106065Y-11760228D02*
X13067970Y-11760228D01*
X13067970Y-11760228D02*
X13048922Y-11769751D01*
X13134637Y-11884037D02*
X13115589Y-11893561D01*
X13115589Y-11893561D02*
X13067970Y-11893561D01*
X13067970Y-11893561D02*
X13048922Y-11884037D01*
X13048922Y-11884037D02*
X13039398Y-11864989D01*
X13039398Y-11864989D02*
X13039398Y-11845942D01*
X13039398Y-11845942D02*
X13048922Y-11826894D01*
X13048922Y-11826894D02*
X13067970Y-11817370D01*
X13067970Y-11817370D02*
X13115589Y-11817370D01*
X13115589Y-11817370D02*
X13134637Y-11807847D01*
X13229875Y-11760228D02*
X13229875Y-11960228D01*
X13229875Y-11769751D02*
X13248922Y-11760228D01*
X13248922Y-11760228D02*
X13287018Y-11760228D01*
X13287018Y-11760228D02*
X13306065Y-11769751D01*
X13306065Y-11769751D02*
X13315589Y-11779275D01*
X13315589Y-11779275D02*
X13325113Y-11798323D01*
X13325113Y-11798323D02*
X13325113Y-11855466D01*
X13325113Y-11855466D02*
X13315589Y-11874513D01*
X13315589Y-11874513D02*
X13306065Y-11884037D01*
X13306065Y-11884037D02*
X13287018Y-11893561D01*
X13287018Y-11893561D02*
X13248922Y-11893561D01*
X13248922Y-11893561D02*
X13229875Y-11884037D01*
X13410827Y-11874513D02*
X13420351Y-11884037D01*
X13420351Y-11884037D02*
X13410827Y-11893561D01*
X13410827Y-11893561D02*
X13401303Y-11884037D01*
X13401303Y-11884037D02*
X13410827Y-11874513D01*
X13410827Y-11874513D02*
X13410827Y-11893561D01*
X13410827Y-11769751D02*
X13420351Y-11779275D01*
X13420351Y-11779275D02*
X13410827Y-11788799D01*
X13410827Y-11788799D02*
X13401303Y-11779275D01*
X13401303Y-11779275D02*
X13410827Y-11769751D01*
X13410827Y-11769751D02*
X13410827Y-11788799D01*
D13*
X11670622Y-12168077D02*
X11778622Y-12276077D01*
X11778622Y-12168077D02*
X11670622Y-12276077D01*
D12*
X12144160Y-12313561D02*
X12029875Y-12313561D01*
X12087017Y-12313561D02*
X12087017Y-12113561D01*
X12087017Y-12113561D02*
X12067970Y-12142132D01*
X12067970Y-12142132D02*
X12048922Y-12161180D01*
X12048922Y-12161180D02*
X12029875Y-12170704D01*
X12229875Y-12294513D02*
X12239398Y-12304037D01*
X12239398Y-12304037D02*
X12229875Y-12313561D01*
X12229875Y-12313561D02*
X12220351Y-12304037D01*
X12220351Y-12304037D02*
X12229875Y-12294513D01*
X12229875Y-12294513D02*
X12229875Y-12313561D01*
X12363208Y-12113561D02*
X12382256Y-12113561D01*
X12382256Y-12113561D02*
X12401303Y-12123085D01*
X12401303Y-12123085D02*
X12410827Y-12132609D01*
X12410827Y-12132609D02*
X12420351Y-12151656D01*
X12420351Y-12151656D02*
X12429875Y-12189751D01*
X12429875Y-12189751D02*
X12429875Y-12237370D01*
X12429875Y-12237370D02*
X12420351Y-12275466D01*
X12420351Y-12275466D02*
X12410827Y-12294513D01*
X12410827Y-12294513D02*
X12401303Y-12304037D01*
X12401303Y-12304037D02*
X12382256Y-12313561D01*
X12382256Y-12313561D02*
X12363208Y-12313561D01*
X12363208Y-12313561D02*
X12344160Y-12304037D01*
X12344160Y-12304037D02*
X12334637Y-12294513D01*
X12334637Y-12294513D02*
X12325113Y-12275466D01*
X12325113Y-12275466D02*
X12315589Y-12237370D01*
X12315589Y-12237370D02*
X12315589Y-12189751D01*
X12315589Y-12189751D02*
X12325113Y-12151656D01*
X12325113Y-12151656D02*
X12334637Y-12132609D01*
X12334637Y-12132609D02*
X12344160Y-12123085D01*
X12344160Y-12123085D02*
X12363208Y-12113561D01*
X12544160Y-12199275D02*
X12525113Y-12189751D01*
X12525113Y-12189751D02*
X12515589Y-12180228D01*
X12515589Y-12180228D02*
X12506065Y-12161180D01*
X12506065Y-12161180D02*
X12506065Y-12151656D01*
X12506065Y-12151656D02*
X12515589Y-12132609D01*
X12515589Y-12132609D02*
X12525113Y-12123085D01*
X12525113Y-12123085D02*
X12544160Y-12113561D01*
X12544160Y-12113561D02*
X12582256Y-12113561D01*
X12582256Y-12113561D02*
X12601303Y-12123085D01*
X12601303Y-12123085D02*
X12610827Y-12132609D01*
X12610827Y-12132609D02*
X12620351Y-12151656D01*
X12620351Y-12151656D02*
X12620351Y-12161180D01*
X12620351Y-12161180D02*
X12610827Y-12180228D01*
X12610827Y-12180228D02*
X12601303Y-12189751D01*
X12601303Y-12189751D02*
X12582256Y-12199275D01*
X12582256Y-12199275D02*
X12544160Y-12199275D01*
X12544160Y-12199275D02*
X12525113Y-12208799D01*
X12525113Y-12208799D02*
X12515589Y-12218323D01*
X12515589Y-12218323D02*
X12506065Y-12237370D01*
X12506065Y-12237370D02*
X12506065Y-12275466D01*
X12506065Y-12275466D02*
X12515589Y-12294513D01*
X12515589Y-12294513D02*
X12525113Y-12304037D01*
X12525113Y-12304037D02*
X12544160Y-12313561D01*
X12544160Y-12313561D02*
X12582256Y-12313561D01*
X12582256Y-12313561D02*
X12601303Y-12304037D01*
X12601303Y-12304037D02*
X12610827Y-12294513D01*
X12610827Y-12294513D02*
X12620351Y-12275466D01*
X12620351Y-12275466D02*
X12620351Y-12237370D01*
X12620351Y-12237370D02*
X12610827Y-12218323D01*
X12610827Y-12218323D02*
X12601303Y-12208799D01*
X12601303Y-12208799D02*
X12582256Y-12199275D01*
X12744160Y-12113561D02*
X12763208Y-12113561D01*
X12763208Y-12113561D02*
X12782256Y-12123085D01*
X12782256Y-12123085D02*
X12791779Y-12132609D01*
X12791779Y-12132609D02*
X12801303Y-12151656D01*
X12801303Y-12151656D02*
X12810827Y-12189751D01*
X12810827Y-12189751D02*
X12810827Y-12237370D01*
X12810827Y-12237370D02*
X12801303Y-12275466D01*
X12801303Y-12275466D02*
X12791779Y-12294513D01*
X12791779Y-12294513D02*
X12782256Y-12304037D01*
X12782256Y-12304037D02*
X12763208Y-12313561D01*
X12763208Y-12313561D02*
X12744160Y-12313561D01*
X12744160Y-12313561D02*
X12725113Y-12304037D01*
X12725113Y-12304037D02*
X12715589Y-12294513D01*
X12715589Y-12294513D02*
X12706065Y-12275466D01*
X12706065Y-12275466D02*
X12696541Y-12237370D01*
X12696541Y-12237370D02*
X12696541Y-12189751D01*
X12696541Y-12189751D02*
X12706065Y-12151656D01*
X12706065Y-12151656D02*
X12715589Y-12132609D01*
X12715589Y-12132609D02*
X12725113Y-12123085D01*
X12725113Y-12123085D02*
X12744160Y-12113561D01*
X12896541Y-12313561D02*
X12896541Y-12180228D01*
X12896541Y-12199275D02*
X12906065Y-12189751D01*
X12906065Y-12189751D02*
X12925113Y-12180228D01*
X12925113Y-12180228D02*
X12953684Y-12180228D01*
X12953684Y-12180228D02*
X12972732Y-12189751D01*
X12972732Y-12189751D02*
X12982256Y-12208799D01*
X12982256Y-12208799D02*
X12982256Y-12313561D01*
X12982256Y-12208799D02*
X12991779Y-12189751D01*
X12991779Y-12189751D02*
X13010827Y-12180228D01*
X13010827Y-12180228D02*
X13039398Y-12180228D01*
X13039398Y-12180228D02*
X13058446Y-12189751D01*
X13058446Y-12189751D02*
X13067970Y-12208799D01*
X13067970Y-12208799D02*
X13067970Y-12313561D01*
X13163208Y-12313561D02*
X13163208Y-12180228D01*
X13163208Y-12199275D02*
X13172732Y-12189751D01*
X13172732Y-12189751D02*
X13191779Y-12180228D01*
X13191779Y-12180228D02*
X13220351Y-12180228D01*
X13220351Y-12180228D02*
X13239399Y-12189751D01*
X13239399Y-12189751D02*
X13248922Y-12208799D01*
X13248922Y-12208799D02*
X13248922Y-12313561D01*
X13248922Y-12208799D02*
X13258446Y-12189751D01*
X13258446Y-12189751D02*
X13277494Y-12180228D01*
X13277494Y-12180228D02*
X13306065Y-12180228D01*
X13306065Y-12180228D02*
X13325113Y-12189751D01*
X13325113Y-12189751D02*
X13334637Y-12208799D01*
X13334637Y-12208799D02*
X13334637Y-12313561D01*
X13725113Y-12104037D02*
X13553684Y-12361180D01*
X13982256Y-12113561D02*
X14001303Y-12113561D01*
X14001303Y-12113561D02*
X14020351Y-12123085D01*
X14020351Y-12123085D02*
X14029875Y-12132609D01*
X14029875Y-12132609D02*
X14039399Y-12151656D01*
X14039399Y-12151656D02*
X14048922Y-12189751D01*
X14048922Y-12189751D02*
X14048922Y-12237370D01*
X14048922Y-12237370D02*
X14039399Y-12275466D01*
X14039399Y-12275466D02*
X14029875Y-12294513D01*
X14029875Y-12294513D02*
X14020351Y-12304037D01*
X14020351Y-12304037D02*
X14001303Y-12313561D01*
X14001303Y-12313561D02*
X13982256Y-12313561D01*
X13982256Y-12313561D02*
X13963208Y-12304037D01*
X13963208Y-12304037D02*
X13953684Y-12294513D01*
X13953684Y-12294513D02*
X13944161Y-12275466D01*
X13944161Y-12275466D02*
X13934637Y-12237370D01*
X13934637Y-12237370D02*
X13934637Y-12189751D01*
X13934637Y-12189751D02*
X13944161Y-12151656D01*
X13944161Y-12151656D02*
X13953684Y-12132609D01*
X13953684Y-12132609D02*
X13963208Y-12123085D01*
X13963208Y-12123085D02*
X13982256Y-12113561D01*
X14134637Y-12294513D02*
X14144161Y-12304037D01*
X14144161Y-12304037D02*
X14134637Y-12313561D01*
X14134637Y-12313561D02*
X14125113Y-12304037D01*
X14125113Y-12304037D02*
X14134637Y-12294513D01*
X14134637Y-12294513D02*
X14134637Y-12313561D01*
X14267970Y-12113561D02*
X14287018Y-12113561D01*
X14287018Y-12113561D02*
X14306065Y-12123085D01*
X14306065Y-12123085D02*
X14315589Y-12132609D01*
X14315589Y-12132609D02*
X14325113Y-12151656D01*
X14325113Y-12151656D02*
X14334637Y-12189751D01*
X14334637Y-12189751D02*
X14334637Y-12237370D01*
X14334637Y-12237370D02*
X14325113Y-12275466D01*
X14325113Y-12275466D02*
X14315589Y-12294513D01*
X14315589Y-12294513D02*
X14306065Y-12304037D01*
X14306065Y-12304037D02*
X14287018Y-12313561D01*
X14287018Y-12313561D02*
X14267970Y-12313561D01*
X14267970Y-12313561D02*
X14248922Y-12304037D01*
X14248922Y-12304037D02*
X14239399Y-12294513D01*
X14239399Y-12294513D02*
X14229875Y-12275466D01*
X14229875Y-12275466D02*
X14220351Y-12237370D01*
X14220351Y-12237370D02*
X14220351Y-12189751D01*
X14220351Y-12189751D02*
X14229875Y-12151656D01*
X14229875Y-12151656D02*
X14239399Y-12132609D01*
X14239399Y-12132609D02*
X14248922Y-12123085D01*
X14248922Y-12123085D02*
X14267970Y-12113561D01*
X14506065Y-12180228D02*
X14506065Y-12313561D01*
X14458446Y-12104037D02*
X14410827Y-12246894D01*
X14410827Y-12246894D02*
X14534637Y-12246894D01*
X14601303Y-12132609D02*
X14610827Y-12123085D01*
X14610827Y-12123085D02*
X14629875Y-12113561D01*
X14629875Y-12113561D02*
X14677494Y-12113561D01*
X14677494Y-12113561D02*
X14696542Y-12123085D01*
X14696542Y-12123085D02*
X14706065Y-12132609D01*
X14706065Y-12132609D02*
X14715589Y-12151656D01*
X14715589Y-12151656D02*
X14715589Y-12170704D01*
X14715589Y-12170704D02*
X14706065Y-12199275D01*
X14706065Y-12199275D02*
X14591780Y-12313561D01*
X14591780Y-12313561D02*
X14715589Y-12313561D01*
X14896542Y-12113561D02*
X14801303Y-12113561D01*
X14801303Y-12113561D02*
X14791780Y-12208799D01*
X14791780Y-12208799D02*
X14801303Y-12199275D01*
X14801303Y-12199275D02*
X14820351Y-12189751D01*
X14820351Y-12189751D02*
X14867970Y-12189751D01*
X14867970Y-12189751D02*
X14887018Y-12199275D01*
X14887018Y-12199275D02*
X14896542Y-12208799D01*
X14896542Y-12208799D02*
X14906065Y-12227847D01*
X14906065Y-12227847D02*
X14906065Y-12275466D01*
X14906065Y-12275466D02*
X14896542Y-12294513D01*
X14896542Y-12294513D02*
X14887018Y-12304037D01*
X14887018Y-12304037D02*
X14867970Y-12313561D01*
X14867970Y-12313561D02*
X14820351Y-12313561D01*
X14820351Y-12313561D02*
X14801303Y-12304037D01*
X14801303Y-12304037D02*
X14791780Y-12294513D01*
X14982256Y-12113561D02*
X14982256Y-12151656D01*
X15058446Y-12113561D02*
X15058446Y-12151656D01*
X15353685Y-12389751D02*
X15344161Y-12380228D01*
X15344161Y-12380228D02*
X15325113Y-12351656D01*
X15325113Y-12351656D02*
X15315589Y-12332609D01*
X15315589Y-12332609D02*
X15306065Y-12304037D01*
X15306065Y-12304037D02*
X15296542Y-12256418D01*
X15296542Y-12256418D02*
X15296542Y-12218323D01*
X15296542Y-12218323D02*
X15306065Y-12170704D01*
X15306065Y-12170704D02*
X15315589Y-12142132D01*
X15315589Y-12142132D02*
X15325113Y-12123085D01*
X15325113Y-12123085D02*
X15344161Y-12094513D01*
X15344161Y-12094513D02*
X15353685Y-12084989D01*
X15534637Y-12313561D02*
X15420351Y-12313561D01*
X15477494Y-12313561D02*
X15477494Y-12113561D01*
X15477494Y-12113561D02*
X15458446Y-12142132D01*
X15458446Y-12142132D02*
X15439399Y-12161180D01*
X15439399Y-12161180D02*
X15420351Y-12170704D01*
X15610827Y-12132609D02*
X15620351Y-12123085D01*
X15620351Y-12123085D02*
X15639399Y-12113561D01*
X15639399Y-12113561D02*
X15687018Y-12113561D01*
X15687018Y-12113561D02*
X15706065Y-12123085D01*
X15706065Y-12123085D02*
X15715589Y-12132609D01*
X15715589Y-12132609D02*
X15725113Y-12151656D01*
X15725113Y-12151656D02*
X15725113Y-12170704D01*
X15725113Y-12170704D02*
X15715589Y-12199275D01*
X15715589Y-12199275D02*
X15601304Y-12313561D01*
X15601304Y-12313561D02*
X15725113Y-12313561D01*
X15963208Y-12313561D02*
X15963208Y-12113561D01*
X16048923Y-12313561D02*
X16048923Y-12208799D01*
X16048923Y-12208799D02*
X16039399Y-12189751D01*
X16039399Y-12189751D02*
X16020351Y-12180228D01*
X16020351Y-12180228D02*
X15991780Y-12180228D01*
X15991780Y-12180228D02*
X15972732Y-12189751D01*
X15972732Y-12189751D02*
X15963208Y-12199275D01*
X16172732Y-12313561D02*
X16153685Y-12304037D01*
X16153685Y-12304037D02*
X16144161Y-12294513D01*
X16144161Y-12294513D02*
X16134637Y-12275466D01*
X16134637Y-12275466D02*
X16134637Y-12218323D01*
X16134637Y-12218323D02*
X16144161Y-12199275D01*
X16144161Y-12199275D02*
X16153685Y-12189751D01*
X16153685Y-12189751D02*
X16172732Y-12180228D01*
X16172732Y-12180228D02*
X16201304Y-12180228D01*
X16201304Y-12180228D02*
X16220351Y-12189751D01*
X16220351Y-12189751D02*
X16229875Y-12199275D01*
X16229875Y-12199275D02*
X16239399Y-12218323D01*
X16239399Y-12218323D02*
X16239399Y-12275466D01*
X16239399Y-12275466D02*
X16229875Y-12294513D01*
X16229875Y-12294513D02*
X16220351Y-12304037D01*
X16220351Y-12304037D02*
X16201304Y-12313561D01*
X16201304Y-12313561D02*
X16172732Y-12313561D01*
X16353685Y-12313561D02*
X16334637Y-12304037D01*
X16334637Y-12304037D02*
X16325113Y-12284989D01*
X16325113Y-12284989D02*
X16325113Y-12113561D01*
X16506066Y-12304037D02*
X16487018Y-12313561D01*
X16487018Y-12313561D02*
X16448923Y-12313561D01*
X16448923Y-12313561D02*
X16429875Y-12304037D01*
X16429875Y-12304037D02*
X16420351Y-12284989D01*
X16420351Y-12284989D02*
X16420351Y-12208799D01*
X16420351Y-12208799D02*
X16429875Y-12189751D01*
X16429875Y-12189751D02*
X16448923Y-12180228D01*
X16448923Y-12180228D02*
X16487018Y-12180228D01*
X16487018Y-12180228D02*
X16506066Y-12189751D01*
X16506066Y-12189751D02*
X16515589Y-12208799D01*
X16515589Y-12208799D02*
X16515589Y-12227847D01*
X16515589Y-12227847D02*
X16420351Y-12246894D01*
X16591780Y-12304037D02*
X16610827Y-12313561D01*
X16610827Y-12313561D02*
X16648923Y-12313561D01*
X16648923Y-12313561D02*
X16667970Y-12304037D01*
X16667970Y-12304037D02*
X16677494Y-12284989D01*
X16677494Y-12284989D02*
X16677494Y-12275466D01*
X16677494Y-12275466D02*
X16667970Y-12256418D01*
X16667970Y-12256418D02*
X16648923Y-12246894D01*
X16648923Y-12246894D02*
X16620351Y-12246894D01*
X16620351Y-12246894D02*
X16601304Y-12237370D01*
X16601304Y-12237370D02*
X16591780Y-12218323D01*
X16591780Y-12218323D02*
X16591780Y-12208799D01*
X16591780Y-12208799D02*
X16601304Y-12189751D01*
X16601304Y-12189751D02*
X16620351Y-12180228D01*
X16620351Y-12180228D02*
X16648923Y-12180228D01*
X16648923Y-12180228D02*
X16667970Y-12189751D01*
X16744161Y-12389751D02*
X16753685Y-12380228D01*
X16753685Y-12380228D02*
X16772732Y-12351656D01*
X16772732Y-12351656D02*
X16782256Y-12332609D01*
X16782256Y-12332609D02*
X16791780Y-12304037D01*
X16791780Y-12304037D02*
X16801304Y-12256418D01*
X16801304Y-12256418D02*
X16801304Y-12218323D01*
X16801304Y-12218323D02*
X16791780Y-12170704D01*
X16791780Y-12170704D02*
X16782256Y-12142132D01*
X16782256Y-12142132D02*
X16772732Y-12123085D01*
X16772732Y-12123085D02*
X16753685Y-12094513D01*
X16753685Y-12094513D02*
X16744161Y-12084989D01*
M02*
