%TF.GenerationSoftware,KiCad,Pcbnew,8.0.4*%
%TF.CreationDate,2024-09-16T16:11:01+01:00*%
%TF.ProjectId,algoritmi_motor,616c676f-7269-4746-9d69-5f6d6f746f72,rev?*%
%TF.SameCoordinates,Original*%
%TF.FileFunction,Drillmap*%
%TF.FilePolarity,Positive*%
%FSLAX45Y45*%
G04 Gerber Fmt 4.5, Leading zero omitted, Abs format (unit mm)*
G04 Created by KiCad (PCBNEW 8.0.4) date 2024-09-16 16:11:01*
%MOMM*%
%LPD*%
G01*
G04 APERTURE LIST*
%ADD10C,0.180000*%
%ADD11C,0.090000*%
%ADD12C,0.200000*%
G04 APERTURE END LIST*
D10*
X15700000Y-10034367D02*
G75*
G02*
X12500000Y-10034367I-1600000J0D01*
G01*
X12500000Y-10034367D02*
G75*
G02*
X15700000Y-10034367I1600000J0D01*
G01*
D11*
X13148468Y-10042353D02*
G75*
G02*
X12988468Y-10042353I-80000J0D01*
G01*
X12988468Y-10042353D02*
G75*
G02*
X13148468Y-10042353I80000J0D01*
G01*
X14686136Y-9154774D02*
G75*
G02*
X14526136Y-9154774I-80000J0D01*
G01*
X14526136Y-9154774D02*
G75*
G02*
X14686136Y-9154774I80000J0D01*
G01*
X14685633Y-10930222D02*
G75*
G02*
X14525633Y-10930222I-80000J0D01*
G01*
X14525633Y-10930222D02*
G75*
G02*
X14685633Y-10930222I80000J0D01*
G01*
D12*
X12751777Y-11954851D02*
X12751777Y-11754851D01*
X12751777Y-11754851D02*
X12799396Y-11754851D01*
X12799396Y-11754851D02*
X12827967Y-11764375D01*
X12827967Y-11764375D02*
X12847015Y-11783422D01*
X12847015Y-11783422D02*
X12856539Y-11802470D01*
X12856539Y-11802470D02*
X12866062Y-11840565D01*
X12866062Y-11840565D02*
X12866062Y-11869137D01*
X12866062Y-11869137D02*
X12856539Y-11907232D01*
X12856539Y-11907232D02*
X12847015Y-11926280D01*
X12847015Y-11926280D02*
X12827967Y-11945327D01*
X12827967Y-11945327D02*
X12799396Y-11954851D01*
X12799396Y-11954851D02*
X12751777Y-11954851D01*
X12951777Y-11954851D02*
X12951777Y-11821518D01*
X12951777Y-11859613D02*
X12961301Y-11840565D01*
X12961301Y-11840565D02*
X12970824Y-11831041D01*
X12970824Y-11831041D02*
X12989872Y-11821518D01*
X12989872Y-11821518D02*
X13008920Y-11821518D01*
X13075586Y-11954851D02*
X13075586Y-11821518D01*
X13075586Y-11754851D02*
X13066062Y-11764375D01*
X13066062Y-11764375D02*
X13075586Y-11773899D01*
X13075586Y-11773899D02*
X13085110Y-11764375D01*
X13085110Y-11764375D02*
X13075586Y-11754851D01*
X13075586Y-11754851D02*
X13075586Y-11773899D01*
X13199396Y-11954851D02*
X13180348Y-11945327D01*
X13180348Y-11945327D02*
X13170824Y-11926280D01*
X13170824Y-11926280D02*
X13170824Y-11754851D01*
X13304158Y-11954851D02*
X13285110Y-11945327D01*
X13285110Y-11945327D02*
X13275586Y-11926280D01*
X13275586Y-11926280D02*
X13275586Y-11754851D01*
X13532729Y-11954851D02*
X13532729Y-11754851D01*
X13532729Y-11754851D02*
X13599396Y-11897708D01*
X13599396Y-11897708D02*
X13666062Y-11754851D01*
X13666062Y-11754851D02*
X13666062Y-11954851D01*
X13847015Y-11954851D02*
X13847015Y-11850089D01*
X13847015Y-11850089D02*
X13837491Y-11831041D01*
X13837491Y-11831041D02*
X13818443Y-11821518D01*
X13818443Y-11821518D02*
X13780348Y-11821518D01*
X13780348Y-11821518D02*
X13761301Y-11831041D01*
X13847015Y-11945327D02*
X13827967Y-11954851D01*
X13827967Y-11954851D02*
X13780348Y-11954851D01*
X13780348Y-11954851D02*
X13761301Y-11945327D01*
X13761301Y-11945327D02*
X13751777Y-11926280D01*
X13751777Y-11926280D02*
X13751777Y-11907232D01*
X13751777Y-11907232D02*
X13761301Y-11888184D01*
X13761301Y-11888184D02*
X13780348Y-11878661D01*
X13780348Y-11878661D02*
X13827967Y-11878661D01*
X13827967Y-11878661D02*
X13847015Y-11869137D01*
X13942253Y-11821518D02*
X13942253Y-12021518D01*
X13942253Y-11831041D02*
X13961301Y-11821518D01*
X13961301Y-11821518D02*
X13999396Y-11821518D01*
X13999396Y-11821518D02*
X14018443Y-11831041D01*
X14018443Y-11831041D02*
X14027967Y-11840565D01*
X14027967Y-11840565D02*
X14037491Y-11859613D01*
X14037491Y-11859613D02*
X14037491Y-11916756D01*
X14037491Y-11916756D02*
X14027967Y-11935803D01*
X14027967Y-11935803D02*
X14018443Y-11945327D01*
X14018443Y-11945327D02*
X13999396Y-11954851D01*
X13999396Y-11954851D02*
X13961301Y-11954851D01*
X13961301Y-11954851D02*
X13942253Y-11945327D01*
X14123205Y-11935803D02*
X14132729Y-11945327D01*
X14132729Y-11945327D02*
X14123205Y-11954851D01*
X14123205Y-11954851D02*
X14113682Y-11945327D01*
X14113682Y-11945327D02*
X14123205Y-11935803D01*
X14123205Y-11935803D02*
X14123205Y-11954851D01*
X14123205Y-11831041D02*
X14132729Y-11840565D01*
X14132729Y-11840565D02*
X14123205Y-11850089D01*
X14123205Y-11850089D02*
X14113682Y-11840565D01*
X14113682Y-11840565D02*
X14123205Y-11831041D01*
X14123205Y-11831041D02*
X14123205Y-11850089D01*
M02*
