M48
; DRILL file {KiCad 8.0.4} date 2024-09-02T15:53:15+0100
; FORMAT={-:-/ absolute / inch / decimal}
; #@! TF.CreationDate,2024-09-02T15:53:15+01:00
; #@! TF.GenerationSoftware,Kicad,Pcbnew,8.0.4
; #@! TF.FileFunction,Plated,1,2,PTH
FMAT,2
INCH
; #@! TA.AperFunction,Plated,PTH,ViaDrill
T1C0.0157
; #@! TA.AperFunction,Plated,PTH,ComponentDrill
T2C0.0394
; #@! TA.AperFunction,Plated,PTH,ComponentDrill
T3C0.0669
; #@! TA.AperFunction,Plated,PTH,ComponentDrill
T4C0.0866
%
G90
G05
T1
X2.2913Y-1.5354
X2.2967Y-0.8214
X2.2975Y-1.0103
X2.3019Y-0.941
X2.3019Y-1.1851
X2.3251Y-0.8627
X2.3298Y-0.7863
X2.4227Y-1.7634
X2.4267Y-1.6371
X2.4312Y-2.9443
X2.4999Y-2.8584
X2.5192Y-2.2434
X2.5314Y-3.0922
X2.6054Y-1.1084
X2.6054Y-1.4619
X2.607Y-1.8985
X2.7719Y-2.1619
X2.7782Y-2.4678
X2.8168Y-2.3068
X2.8451Y-2.943
X2.855Y-3.0662
X2.9011Y-2.467
X2.9066Y-1.7891
X2.9318Y-0.9907
X2.9463Y-2.2155
X2.9711Y-1.1253
X2.9771Y-2.3009
X3.066Y-2.6777
X3.4243Y-1.5312
X3.4751Y-1.3198
X3.4857Y-2.1946
X3.6936Y-2.3918
X3.7007Y-1.754
X3.7058Y-3.6194
X3.8582Y-2.4414
X4.503Y-3.5635
X4.5318Y-3.4123
X4.5369Y-3.3387
X4.5562Y-3.5092
X4.557Y-1.8588
X4.6231Y-3.2414
X4.6247Y-3.5316
X4.6416Y-3.7501
X4.6853Y-3.7363
X4.729Y-3.7497
X4.7649Y-3.7277
X4.7924Y-3.7867
X4.8479Y-3.2832
X4.8908Y-3.5777
X4.903Y-3.7934
X4.9286Y-3.3831
X4.9304Y-3.3442
X4.9534Y-3.1068
X4.966Y-3.3462
X4.968Y-3.3793
X5.0605Y-3.2989
X5.1542Y-3.1383
X5.2093Y-3.0737
X5.2247Y-3.291
X5.2373Y-3.1635
T3
X3.4196Y-2.2714
X4.025Y-1.9219
X4.025Y-2.6209
T4
X2.65Y-2.2714
X3.8232Y-1.0982
X3.8232Y-3.4447
X4.9964Y-2.2714
T2
G00X3.105Y-2.7935
M15
G01X3.1969Y-2.7017
M16
G05
G00X3.1118Y-1.7338
M15
G01X3.2036Y-1.8256
M16
G05
G00X3.2036Y-1.6419
M15
G01X3.2955Y-1.7338
M16
G05
G00X3.2038Y-2.8924
M15
G01X3.2957Y-2.8005
M16
G05
G00X3.2957Y-2.9842
M15
G01X3.3876Y-2.8924
M16
G05
G00X3.3025Y-1.5431
M15
G01X3.3943Y-1.6349
M16
G05
G00X4.3305Y-2.9912
M15
G01X4.2386Y-2.8993
M16
G05
G00X4.3374Y-1.5465
M15
G01X4.2455Y-1.6384
M16
G05
G00X4.4293Y-1.6384
M15
G01X4.3374Y-1.7303
M16
G05
G00X4.4293Y-2.8924
M15
G01X4.3374Y-2.8005
M16
G05
G00X4.5211Y-2.8005
M15
G01X4.4293Y-2.7086
M16
G05
G00X4.5281Y-1.7372
M15
G01X4.4362Y-1.8291
M16
G05
M30
