%TF.GenerationSoftware,KiCad,Pcbnew,8.0.4*%
%TF.CreationDate,2024-09-02T15:53:17+01:00*%
%TF.ProjectId,algoritmi_foc,616c676f-7269-4746-9d69-5f666f632e6b,Andr_s Motta*%
%TF.SameCoordinates,Original*%
%TF.FileFunction,Drillmap*%
%TF.FilePolarity,Positive*%
%FSLAX45Y45*%
G04 Gerber Fmt 4.5, Leading zero omitted, Abs format (unit mm)*
G04 Created by KiCad (PCBNEW 8.0.4) date 2024-09-02 15:53:17*
%MOMM*%
%LPD*%
G01*
G04 APERTURE LIST*
%ADD10C,0.200000*%
%ADD11C,0.100000*%
%ADD12C,0.170000*%
%ADD13C,0.220000*%
G04 APERTURE END LIST*
D10*
X11311659Y-5419413D02*
G75*
G02*
X11263149Y-5381535I1J50003D01*
G01*
X10060878Y-8098433D02*
G75*
G02*
X9960878Y-8098433I-50000J0D01*
G01*
X9960878Y-3440393D02*
X9960878Y-4248723D01*
X10098756Y-4217141D02*
G75*
G02*
X10060875Y-4168632I12134J48521D01*
G01*
X6050878Y-1709413D02*
X13370878Y-1709413D01*
X12039897Y-6019413D02*
G75*
G02*
X12039897Y-6119407I3J-49997D01*
G01*
X9460878Y-4248723D02*
X9460878Y-3440393D01*
X8239242Y-5479091D02*
G75*
G02*
X9420555Y-4297778I1471635J-290322D01*
G01*
X10060878Y-7370194D02*
G75*
G02*
X10098755Y-7321682I50013J-6D01*
G01*
X8190187Y-6019413D02*
X7381858Y-6019413D01*
X9153771Y-6476520D02*
G75*
G02*
X8853771Y-6476520I-150000J0D01*
G01*
X8853771Y-6476520D02*
G75*
G02*
X9153771Y-6476520I150000J0D01*
G01*
X7381858Y-6119413D02*
G75*
G02*
X7381858Y-6019407I2J50003D01*
G01*
X8190187Y-6019413D02*
G75*
G02*
X8239234Y-6059737I3J-49987D01*
G01*
X9360878Y-3440393D02*
G75*
G02*
X9460878Y-3440393I50000J0D01*
G01*
X9420555Y-7241049D02*
G75*
G02*
X9460884Y-7290104I-9665J-49051D01*
G01*
X11182514Y-6059736D02*
G75*
G02*
X10001200Y-7241050I-1471637J290323D01*
G01*
X10760878Y-6044413D02*
G75*
G02*
X10685878Y-6119417I-74998J-7D01*
G01*
X10760878Y-6044413D02*
X10760878Y-5494413D01*
X8158605Y-5381535D02*
G75*
G02*
X9322999Y-4217141I1552272J-387878D01*
G01*
X10098756Y-4217141D02*
G75*
G02*
X11263149Y-5381535I-387876J-1552269D01*
G01*
X11263150Y-6157292D02*
G75*
G02*
X10098756Y-7321686I-1552272J387878D01*
G01*
X8239241Y-5479091D02*
G75*
G02*
X8190187Y-5519408I-49051J9681D01*
G01*
X9420555Y-7241049D02*
G75*
G02*
X8239241Y-6059736I290321J1471635D01*
G01*
X11231568Y-5519414D02*
G75*
G02*
X11182513Y-5479091I2J50004D01*
G01*
X9248878Y-9829413D02*
X6050878Y-9829413D01*
X9460878Y-4248723D02*
G75*
G02*
X9420556Y-4297783I-49998J-7D01*
G01*
X11263150Y-6157292D02*
G75*
G02*
X11311659Y-6119417I48510J-12128D01*
G01*
X10060878Y-4168632D02*
X10060878Y-3440393D01*
X5650878Y-2109413D02*
G75*
G02*
X6050878Y-1709414I399999J0D01*
G01*
X11182514Y-6059736D02*
G75*
G02*
X11231568Y-6019417I49056J-9684D01*
G01*
X11311659Y-6119413D02*
X12039897Y-6119413D01*
X9460878Y-8098433D02*
X9460878Y-7290104D01*
X9322999Y-7321686D02*
G75*
G02*
X9360883Y-7370194I-12109J-48504D01*
G01*
X12039897Y-6019413D02*
X11231568Y-6019413D01*
X8158605Y-5381535D02*
G75*
G02*
X8110097Y-5419407I-48505J12125D01*
G01*
X9460878Y-8098433D02*
G75*
G02*
X9360878Y-8098433I-50000J0D01*
G01*
X10485878Y-6119413D02*
G75*
G02*
X10410877Y-6044413I3J75003D01*
G01*
X10060878Y-8098433D02*
X10060878Y-7370194D01*
X13770878Y-2109413D02*
X13770878Y-9429413D01*
X9960878Y-3440393D02*
G75*
G02*
X10060878Y-3440393I50000J0D01*
G01*
X8110097Y-5419413D02*
X7381858Y-5419413D01*
X10001200Y-4297777D02*
G75*
G02*
X11182513Y-5479091I-290324J-1471637D01*
G01*
X11231568Y-5519413D02*
X12039897Y-5519413D01*
X9360878Y-3440393D02*
X9360878Y-4168632D01*
X13770878Y-9429413D02*
G75*
G02*
X13370878Y-9829418I-399998J-7D01*
G01*
X9322999Y-7321686D02*
G75*
G02*
X8158604Y-6157292I387881J1552276D01*
G01*
X9360878Y-4168632D02*
G75*
G02*
X9323000Y-4217146I-49998J-8D01*
G01*
X7381858Y-6119413D02*
X8110097Y-6119413D01*
X10685878Y-5419413D02*
X10485878Y-5419413D01*
X9960877Y-7290104D02*
G75*
G02*
X10001201Y-7241053I50003J-6D01*
G01*
X12039897Y-5419413D02*
G75*
G02*
X12039897Y-5519407I3J-49997D01*
G01*
X13370878Y-9829413D02*
X9248878Y-9829413D01*
X8110097Y-6119413D02*
G75*
G02*
X8158606Y-6157292I3J-49997D01*
G01*
X7381858Y-5519413D02*
X8190187Y-5519413D01*
X5650878Y-9429413D02*
X5650878Y-2109413D01*
X10685878Y-5419413D02*
G75*
G02*
X10760877Y-5494413I3J-74997D01*
G01*
X10485878Y-6119413D02*
X10685878Y-6119413D01*
X10001200Y-4297777D02*
G75*
G02*
X9960885Y-4248723I9690J49057D01*
G01*
X6050878Y-9829413D02*
G75*
G02*
X5650877Y-9429413I2J400003D01*
G01*
X9960878Y-7290104D02*
X9960878Y-8098433D01*
X9360878Y-7370194D02*
X9360878Y-8098433D01*
X10410878Y-5494413D02*
G75*
G02*
X10485878Y-5419418I75003J-7D01*
G01*
X13370878Y-1709413D02*
G75*
G02*
X13770877Y-2109413I2J-399997D01*
G01*
X10410878Y-5494413D02*
X10410878Y-6044413D01*
X12039897Y-5419413D02*
X11311659Y-5419413D01*
X7381858Y-5519413D02*
G75*
G02*
X7381858Y-5419407I2J50003D01*
G01*
D11*
X5800000Y-3880000D02*
X5840000Y-3920000D01*
X5840000Y-3880000D02*
X5800000Y-3920000D01*
X5813720Y-2066256D02*
X5853720Y-2106256D01*
X5853720Y-2066256D02*
X5813720Y-2106256D01*
X5815720Y-2546256D02*
X5855720Y-2586256D01*
X5855720Y-2546256D02*
X5815720Y-2586256D01*
X5826720Y-2370256D02*
X5866720Y-2410256D01*
X5866720Y-2370256D02*
X5826720Y-2410256D01*
X5826720Y-2990256D02*
X5866720Y-3030256D01*
X5866720Y-2990256D02*
X5826720Y-3030256D01*
X5885720Y-2171256D02*
X5925720Y-2211256D01*
X5925720Y-2171256D02*
X5885720Y-2211256D01*
X5897720Y-1977256D02*
X5937720Y-2017256D01*
X5937720Y-1977256D02*
X5897720Y-2017256D01*
X6133720Y-4458944D02*
X6173720Y-4498944D01*
X6173720Y-4458944D02*
X6133720Y-4498944D01*
X6143720Y-4138256D02*
X6183720Y-4178256D01*
X6183720Y-4138256D02*
X6143720Y-4178256D01*
X6155352Y-7458624D02*
X6195352Y-7498624D01*
X6195352Y-7458624D02*
X6155352Y-7498624D01*
X6329720Y-7240256D02*
X6369720Y-7280256D01*
X6369720Y-7240256D02*
X6329720Y-7280256D01*
X6378720Y-5678256D02*
X6418720Y-5718256D01*
X6418720Y-5678256D02*
X6378720Y-5718256D01*
X6409720Y-7834256D02*
X6449720Y-7874256D01*
X6449720Y-7834256D02*
X6409720Y-7874256D01*
X6597720Y-2795256D02*
X6637720Y-2835256D01*
X6637720Y-2795256D02*
X6597720Y-2835256D01*
X6597720Y-3693256D02*
X6637720Y-3733256D01*
X6637720Y-3693256D02*
X6597720Y-3733256D01*
X6601720Y-4802256D02*
X6641720Y-4842256D01*
X6641720Y-4802256D02*
X6601720Y-4842256D01*
X7020720Y-5471256D02*
X7060720Y-5511256D01*
X7060720Y-5471256D02*
X7020720Y-5511256D01*
X7036720Y-6248256D02*
X7076720Y-6288256D01*
X7076720Y-6248256D02*
X7036720Y-6288256D01*
X7134720Y-5839256D02*
X7174720Y-5879256D01*
X7174720Y-5839256D02*
X7134720Y-5879256D01*
X7206652Y-7455187D02*
X7246652Y-7495187D01*
X7246652Y-7455187D02*
X7206652Y-7495187D01*
X7231720Y-7768256D02*
X7271720Y-7808256D01*
X7271720Y-7768256D02*
X7231720Y-7808256D01*
X7348720Y-6246256D02*
X7388720Y-6286256D01*
X7388720Y-6246256D02*
X7348720Y-6286256D01*
X7362720Y-4524256D02*
X7402720Y-4564256D01*
X7402720Y-4524256D02*
X7362720Y-4564256D01*
X7426720Y-2496256D02*
X7466720Y-2536256D01*
X7466720Y-2496256D02*
X7426720Y-2536256D01*
X7463720Y-5607256D02*
X7503720Y-5647256D01*
X7503720Y-5607256D02*
X7463720Y-5647256D01*
X7526720Y-2838256D02*
X7566720Y-2878256D01*
X7566720Y-2838256D02*
X7526720Y-2878256D01*
X7541720Y-5824256D02*
X7581720Y-5864256D01*
X7581720Y-5824256D02*
X7541720Y-5864256D01*
X7767720Y-6781256D02*
X7807720Y-6821256D01*
X7807720Y-6781256D02*
X7767720Y-6821256D01*
X8677720Y-3869256D02*
X8717720Y-3909256D01*
X8717720Y-3869256D02*
X8677720Y-3909256D01*
X8806720Y-3332256D02*
X8846720Y-3372256D01*
X8846720Y-3332256D02*
X8806720Y-3372256D01*
X8833720Y-5554256D02*
X8873720Y-5594256D01*
X8873720Y-5554256D02*
X8833720Y-5594256D01*
X9361720Y-6055256D02*
X9401720Y-6095256D01*
X9401720Y-6055256D02*
X9361720Y-6095256D01*
X9379720Y-4435256D02*
X9419720Y-4475256D01*
X9419720Y-4435256D02*
X9379720Y-4475256D01*
X9392720Y-9173256D02*
X9432720Y-9213256D01*
X9432720Y-9173256D02*
X9392720Y-9213256D01*
X9779720Y-6181256D02*
X9819720Y-6221256D01*
X9819720Y-6181256D02*
X9779720Y-6221256D01*
X11417720Y-9031256D02*
X11457720Y-9071256D01*
X11457720Y-9031256D02*
X11417720Y-9071256D01*
X11490720Y-8647256D02*
X11530720Y-8687256D01*
X11530720Y-8647256D02*
X11490720Y-8687256D01*
X11503720Y-8460256D02*
X11543720Y-8500256D01*
X11543720Y-8460256D02*
X11503720Y-8500256D01*
X11552720Y-8893256D02*
X11592720Y-8933256D01*
X11592720Y-8893256D02*
X11552720Y-8933256D01*
X11554720Y-4701256D02*
X11594720Y-4741256D01*
X11594720Y-4701256D02*
X11554720Y-4741256D01*
X11722720Y-8213256D02*
X11762720Y-8253256D01*
X11762720Y-8213256D02*
X11722720Y-8253256D01*
X11726720Y-8950256D02*
X11766720Y-8990256D01*
X11766720Y-8950256D02*
X11726720Y-8990256D01*
X11769720Y-9505256D02*
X11809720Y-9545256D01*
X11809720Y-9505256D02*
X11769720Y-9545256D01*
X11880720Y-9470256D02*
X11920720Y-9510256D01*
X11920720Y-9470256D02*
X11880720Y-9510256D01*
X11991720Y-9504256D02*
X12031720Y-9544256D01*
X12031720Y-9504256D02*
X11991720Y-9544256D01*
X12082720Y-9448256D02*
X12122720Y-9488256D01*
X12122720Y-9448256D02*
X12082720Y-9488256D01*
X12152720Y-9598256D02*
X12192720Y-9638256D01*
X12192720Y-9598256D02*
X12152720Y-9638256D01*
X12293720Y-8319256D02*
X12333720Y-8359256D01*
X12333720Y-8319256D02*
X12293720Y-8359256D01*
X12402720Y-9067256D02*
X12442720Y-9107256D01*
X12442720Y-9067256D02*
X12402720Y-9107256D01*
X12433720Y-9615256D02*
X12473720Y-9655256D01*
X12473720Y-9615256D02*
X12433720Y-9655256D01*
X12498720Y-8573113D02*
X12538720Y-8613113D01*
X12538720Y-8573113D02*
X12498720Y-8613113D01*
X12503151Y-8474256D02*
X12543151Y-8514256D01*
X12543151Y-8474256D02*
X12503151Y-8514256D01*
X12561720Y-7871256D02*
X12601720Y-7911256D01*
X12601720Y-7871256D02*
X12561720Y-7911256D01*
X12593720Y-8479256D02*
X12633720Y-8519256D01*
X12633720Y-8479256D02*
X12593720Y-8519256D01*
X12598720Y-8563395D02*
X12638720Y-8603395D01*
X12638720Y-8563395D02*
X12598720Y-8603395D01*
X12833720Y-8359256D02*
X12873720Y-8399256D01*
X12873720Y-8359256D02*
X12833720Y-8399256D01*
X13071720Y-7951256D02*
X13111720Y-7991256D01*
X13111720Y-7951256D02*
X13071720Y-7991256D01*
X13211720Y-7787256D02*
X13251720Y-7827256D01*
X13251720Y-7787256D02*
X13211720Y-7827256D01*
X13250720Y-8339256D02*
X13290720Y-8379256D01*
X13290720Y-8339256D02*
X13250720Y-8379256D01*
X13282720Y-8015256D02*
X13322720Y-8055256D01*
X13322720Y-8015256D02*
X13282720Y-8055256D01*
X8053352Y-6978888D02*
G75*
G02*
X7953352Y-6978888I-50000J0D01*
G01*
X7953352Y-6978888D02*
G75*
G02*
X8053352Y-6978888I50000J0D01*
G01*
X7922035Y-7130916D02*
X8155380Y-6897570D01*
X8084669Y-6826860D02*
G75*
G02*
X8155380Y-6897570I35355J-35355D01*
G01*
X8084669Y-6826860D02*
X7851324Y-7060205D01*
X7851324Y-7060205D02*
G75*
G03*
X7922035Y-7130916I35355J-35355D01*
G01*
X8070536Y-4520440D02*
G75*
G02*
X7970536Y-4520440I-50000J0D01*
G01*
X7970536Y-4520440D02*
G75*
G02*
X8070536Y-4520440I50000J0D01*
G01*
X7868508Y-4439123D02*
X8101853Y-4672468D01*
X8172564Y-4601757D02*
G75*
G02*
X8101853Y-4672468I-35355J-35355D01*
G01*
X8172564Y-4601757D02*
X7939219Y-4368412D01*
X7939219Y-4368412D02*
G75*
G03*
X7868508Y-4439123I-35355J-35355D01*
G01*
X8303881Y-4287095D02*
G75*
G02*
X8203881Y-4287095I-50000J0D01*
G01*
X8203881Y-4287095D02*
G75*
G02*
X8303881Y-4287095I50000J0D01*
G01*
X8101853Y-4205777D02*
X8335199Y-4439123D01*
X8405909Y-4368412D02*
G75*
G02*
X8335199Y-4439123I-35355J-35355D01*
G01*
X8405910Y-4368412D02*
X8172564Y-4135067D01*
X8172564Y-4135067D02*
G75*
G03*
X8101854Y-4205777I-35355J-35355D01*
G01*
X8304375Y-7229911D02*
G75*
G02*
X8204375Y-7229911I-50000J0D01*
G01*
X8204375Y-7229911D02*
G75*
G02*
X8304375Y-7229911I50000J0D01*
G01*
X8173058Y-7381939D02*
X8406403Y-7148593D01*
X8335692Y-7077883D02*
G75*
G02*
X8406403Y-7148593I35355J-35355D01*
G01*
X8335692Y-7077883D02*
X8102347Y-7311228D01*
X8102347Y-7311228D02*
G75*
G03*
X8173058Y-7381938I35355J-35355D01*
G01*
X8537720Y-7463256D02*
G75*
G02*
X8437720Y-7463256I-50000J0D01*
G01*
X8437720Y-7463256D02*
G75*
G02*
X8537720Y-7463256I50000J0D01*
G01*
X8406403Y-7615284D02*
X8639748Y-7381939D01*
X8569038Y-7311228D02*
G75*
G02*
X8639748Y-7381939I35355J-35355D01*
G01*
X8569038Y-7311228D02*
X8335692Y-7544573D01*
X8335692Y-7544573D02*
G75*
G03*
X8406403Y-7615284I35355J-35355D01*
G01*
X8554904Y-4036072D02*
G75*
G02*
X8454904Y-4036072I-50000J0D01*
G01*
X8454904Y-4036072D02*
G75*
G02*
X8554904Y-4036072I50000J0D01*
G01*
X8352876Y-3954754D02*
X8586222Y-4188100D01*
X8656932Y-4117389D02*
G75*
G02*
X8586222Y-4188100I-35355J-35355D01*
G01*
X8656932Y-4117389D02*
X8423587Y-3884044D01*
X8423587Y-3884044D02*
G75*
G03*
X8352876Y-3954754I-35355J-35355D01*
G01*
X10932675Y-7480933D02*
G75*
G02*
X10832675Y-7480933I-50000J0D01*
G01*
X10832675Y-7480933D02*
G75*
G02*
X10932675Y-7480933I50000J0D01*
G01*
X11034703Y-7562251D02*
X10801357Y-7328905D01*
X10730647Y-7399616D02*
G75*
G02*
X10801357Y-7328906I35355J35355D01*
G01*
X10730647Y-7399616D02*
X10963992Y-7632961D01*
X10963992Y-7632961D02*
G75*
G03*
X11034702Y-7562251I35355J35355D01*
G01*
X10950352Y-4044888D02*
G75*
G02*
X10850352Y-4044888I-50000J0D01*
G01*
X10850352Y-4044888D02*
G75*
G02*
X10950352Y-4044888I50000J0D01*
G01*
X10981669Y-3892860D02*
X10748324Y-4126205D01*
X10819035Y-4196916D02*
G75*
G02*
X10748324Y-4126205I-35355J35355D01*
G01*
X10819035Y-4196916D02*
X11052380Y-3963570D01*
X11052380Y-3963570D02*
G75*
G03*
X10981669Y-3892860I-35355J35355D01*
G01*
X11183697Y-4278233D02*
G75*
G02*
X11083697Y-4278233I-50000J0D01*
G01*
X11083697Y-4278233D02*
G75*
G02*
X11183697Y-4278233I50000J0D01*
G01*
X11215015Y-4126205D02*
X10981669Y-4359550D01*
X11052380Y-4430261D02*
G75*
G02*
X10981670Y-4359550I-35355J35355D01*
G01*
X11052380Y-4430261D02*
X11285725Y-4196916D01*
X11285725Y-4196916D02*
G75*
G03*
X11215015Y-4126205I-35355J35355D01*
G01*
X11183697Y-7229911D02*
G75*
G02*
X11083697Y-7229911I-50000J0D01*
G01*
X11083697Y-7229911D02*
G75*
G02*
X11183697Y-7229911I50000J0D01*
G01*
X11285725Y-7311228D02*
X11052380Y-7077883D01*
X10981670Y-7148593D02*
G75*
G02*
X11052380Y-7077883I35355J35355D01*
G01*
X10981669Y-7148593D02*
X11215015Y-7381939D01*
X11215015Y-7381938D02*
G75*
G03*
X11285725Y-7311228I35355J35355D01*
G01*
X11417043Y-6996565D02*
G75*
G02*
X11317043Y-6996565I-50000J0D01*
G01*
X11317043Y-6996565D02*
G75*
G02*
X11417043Y-6996565I50000J0D01*
G01*
X11519071Y-7077883D02*
X11285725Y-6844537D01*
X11215015Y-6915248D02*
G75*
G02*
X11285725Y-6844537I35355J35355D01*
G01*
X11215015Y-6915248D02*
X11448360Y-7148593D01*
X11448360Y-7148593D02*
G75*
G03*
X11519071Y-7077883I35355J35355D01*
G01*
X11434720Y-4529256D02*
G75*
G02*
X11334720Y-4529256I-50000J0D01*
G01*
X11334720Y-4529256D02*
G75*
G02*
X11434720Y-4529256I50000J0D01*
G01*
X11466038Y-4377228D02*
X11232692Y-4610573D01*
X11303403Y-4681284D02*
G75*
G02*
X11232692Y-4610573I-35355J35355D01*
G01*
X11303403Y-4681284D02*
X11536748Y-4447939D01*
X11536748Y-4447939D02*
G75*
G03*
X11466038Y-4377228I-35355J35355D01*
G01*
D12*
X8685792Y-5684413D02*
X8685792Y-5854413D01*
X8600792Y-5769413D02*
X8770792Y-5769413D01*
X10223420Y-4796663D02*
X10223420Y-4966663D01*
X10138420Y-4881663D02*
X10308420Y-4881663D01*
X10223420Y-6572163D02*
X10223420Y-6742163D01*
X10138420Y-6657163D02*
X10308420Y-6657163D01*
D13*
X6808660Y-5847196D02*
X6808660Y-5691631D01*
X6653095Y-5691631D01*
X6653095Y-5847196D01*
X6808660Y-5847196D01*
X9788660Y-2867196D02*
X9788660Y-2711631D01*
X9633095Y-2711631D01*
X9633095Y-2867196D01*
X9788660Y-2867196D01*
X9788660Y-8827196D02*
X9788660Y-8671631D01*
X9633095Y-8671631D01*
X9633095Y-8827196D01*
X9788660Y-8827196D01*
X12768660Y-5847196D02*
X12768660Y-5691631D01*
X12613095Y-5691631D01*
X12613095Y-5847196D01*
X12768660Y-5847196D01*
D10*
X5901654Y-10150901D02*
X5901654Y-9950901D01*
X5901654Y-9950901D02*
X5949273Y-9950901D01*
X5949273Y-9950901D02*
X5977845Y-9960425D01*
X5977845Y-9960425D02*
X5996893Y-9979473D01*
X5996893Y-9979473D02*
X6006416Y-9998520D01*
X6006416Y-9998520D02*
X6015940Y-10036616D01*
X6015940Y-10036616D02*
X6015940Y-10065187D01*
X6015940Y-10065187D02*
X6006416Y-10103282D01*
X6006416Y-10103282D02*
X5996893Y-10122330D01*
X5996893Y-10122330D02*
X5977845Y-10141378D01*
X5977845Y-10141378D02*
X5949273Y-10150901D01*
X5949273Y-10150901D02*
X5901654Y-10150901D01*
X6101654Y-10150901D02*
X6101654Y-10017568D01*
X6101654Y-10055663D02*
X6111178Y-10036616D01*
X6111178Y-10036616D02*
X6120702Y-10027092D01*
X6120702Y-10027092D02*
X6139750Y-10017568D01*
X6139750Y-10017568D02*
X6158797Y-10017568D01*
X6225464Y-10150901D02*
X6225464Y-10017568D01*
X6225464Y-9950901D02*
X6215940Y-9960425D01*
X6215940Y-9960425D02*
X6225464Y-9969949D01*
X6225464Y-9969949D02*
X6234988Y-9960425D01*
X6234988Y-9960425D02*
X6225464Y-9950901D01*
X6225464Y-9950901D02*
X6225464Y-9969949D01*
X6349273Y-10150901D02*
X6330226Y-10141378D01*
X6330226Y-10141378D02*
X6320702Y-10122330D01*
X6320702Y-10122330D02*
X6320702Y-9950901D01*
X6454035Y-10150901D02*
X6434988Y-10141378D01*
X6434988Y-10141378D02*
X6425464Y-10122330D01*
X6425464Y-10122330D02*
X6425464Y-9950901D01*
X6682607Y-10150901D02*
X6682607Y-9950901D01*
X6682607Y-9950901D02*
X6749274Y-10093759D01*
X6749274Y-10093759D02*
X6815940Y-9950901D01*
X6815940Y-9950901D02*
X6815940Y-10150901D01*
X6996893Y-10150901D02*
X6996893Y-10046140D01*
X6996893Y-10046140D02*
X6987369Y-10027092D01*
X6987369Y-10027092D02*
X6968321Y-10017568D01*
X6968321Y-10017568D02*
X6930226Y-10017568D01*
X6930226Y-10017568D02*
X6911178Y-10027092D01*
X6996893Y-10141378D02*
X6977845Y-10150901D01*
X6977845Y-10150901D02*
X6930226Y-10150901D01*
X6930226Y-10150901D02*
X6911178Y-10141378D01*
X6911178Y-10141378D02*
X6901654Y-10122330D01*
X6901654Y-10122330D02*
X6901654Y-10103282D01*
X6901654Y-10103282D02*
X6911178Y-10084235D01*
X6911178Y-10084235D02*
X6930226Y-10074711D01*
X6930226Y-10074711D02*
X6977845Y-10074711D01*
X6977845Y-10074711D02*
X6996893Y-10065187D01*
X7092131Y-10017568D02*
X7092131Y-10217568D01*
X7092131Y-10027092D02*
X7111178Y-10017568D01*
X7111178Y-10017568D02*
X7149274Y-10017568D01*
X7149274Y-10017568D02*
X7168321Y-10027092D01*
X7168321Y-10027092D02*
X7177845Y-10036616D01*
X7177845Y-10036616D02*
X7187369Y-10055663D01*
X7187369Y-10055663D02*
X7187369Y-10112806D01*
X7187369Y-10112806D02*
X7177845Y-10131854D01*
X7177845Y-10131854D02*
X7168321Y-10141378D01*
X7168321Y-10141378D02*
X7149274Y-10150901D01*
X7149274Y-10150901D02*
X7111178Y-10150901D01*
X7111178Y-10150901D02*
X7092131Y-10141378D01*
X7273083Y-10131854D02*
X7282607Y-10141378D01*
X7282607Y-10141378D02*
X7273083Y-10150901D01*
X7273083Y-10150901D02*
X7263559Y-10141378D01*
X7263559Y-10141378D02*
X7273083Y-10131854D01*
X7273083Y-10131854D02*
X7273083Y-10150901D01*
X7273083Y-10027092D02*
X7282607Y-10036616D01*
X7282607Y-10036616D02*
X7273083Y-10046140D01*
X7273083Y-10046140D02*
X7263559Y-10036616D01*
X7263559Y-10036616D02*
X7273083Y-10027092D01*
X7273083Y-10027092D02*
X7273083Y-10046140D01*
D11*
X5600878Y-10459418D02*
X5640878Y-10499418D01*
X5640878Y-10459418D02*
X5600878Y-10499418D01*
D10*
X5939750Y-10370901D02*
X5958797Y-10370901D01*
X5958797Y-10370901D02*
X5977845Y-10380425D01*
X5977845Y-10380425D02*
X5987369Y-10389949D01*
X5987369Y-10389949D02*
X5996893Y-10408997D01*
X5996893Y-10408997D02*
X6006416Y-10447092D01*
X6006416Y-10447092D02*
X6006416Y-10494711D01*
X6006416Y-10494711D02*
X5996893Y-10532806D01*
X5996893Y-10532806D02*
X5987369Y-10551854D01*
X5987369Y-10551854D02*
X5977845Y-10561378D01*
X5977845Y-10561378D02*
X5958797Y-10570901D01*
X5958797Y-10570901D02*
X5939750Y-10570901D01*
X5939750Y-10570901D02*
X5920702Y-10561378D01*
X5920702Y-10561378D02*
X5911178Y-10551854D01*
X5911178Y-10551854D02*
X5901654Y-10532806D01*
X5901654Y-10532806D02*
X5892131Y-10494711D01*
X5892131Y-10494711D02*
X5892131Y-10447092D01*
X5892131Y-10447092D02*
X5901654Y-10408997D01*
X5901654Y-10408997D02*
X5911178Y-10389949D01*
X5911178Y-10389949D02*
X5920702Y-10380425D01*
X5920702Y-10380425D02*
X5939750Y-10370901D01*
X6092131Y-10551854D02*
X6101654Y-10561378D01*
X6101654Y-10561378D02*
X6092131Y-10570901D01*
X6092131Y-10570901D02*
X6082607Y-10561378D01*
X6082607Y-10561378D02*
X6092131Y-10551854D01*
X6092131Y-10551854D02*
X6092131Y-10570901D01*
X6273083Y-10437568D02*
X6273083Y-10570901D01*
X6225464Y-10361378D02*
X6177845Y-10504235D01*
X6177845Y-10504235D02*
X6301654Y-10504235D01*
X6415940Y-10370901D02*
X6434988Y-10370901D01*
X6434988Y-10370901D02*
X6454035Y-10380425D01*
X6454035Y-10380425D02*
X6463559Y-10389949D01*
X6463559Y-10389949D02*
X6473083Y-10408997D01*
X6473083Y-10408997D02*
X6482607Y-10447092D01*
X6482607Y-10447092D02*
X6482607Y-10494711D01*
X6482607Y-10494711D02*
X6473083Y-10532806D01*
X6473083Y-10532806D02*
X6463559Y-10551854D01*
X6463559Y-10551854D02*
X6454035Y-10561378D01*
X6454035Y-10561378D02*
X6434988Y-10570901D01*
X6434988Y-10570901D02*
X6415940Y-10570901D01*
X6415940Y-10570901D02*
X6396893Y-10561378D01*
X6396893Y-10561378D02*
X6387369Y-10551854D01*
X6387369Y-10551854D02*
X6377845Y-10532806D01*
X6377845Y-10532806D02*
X6368321Y-10494711D01*
X6368321Y-10494711D02*
X6368321Y-10447092D01*
X6368321Y-10447092D02*
X6377845Y-10408997D01*
X6377845Y-10408997D02*
X6387369Y-10389949D01*
X6387369Y-10389949D02*
X6396893Y-10380425D01*
X6396893Y-10380425D02*
X6415940Y-10370901D01*
X6606416Y-10370901D02*
X6625464Y-10370901D01*
X6625464Y-10370901D02*
X6644512Y-10380425D01*
X6644512Y-10380425D02*
X6654035Y-10389949D01*
X6654035Y-10389949D02*
X6663559Y-10408997D01*
X6663559Y-10408997D02*
X6673083Y-10447092D01*
X6673083Y-10447092D02*
X6673083Y-10494711D01*
X6673083Y-10494711D02*
X6663559Y-10532806D01*
X6663559Y-10532806D02*
X6654035Y-10551854D01*
X6654035Y-10551854D02*
X6644512Y-10561378D01*
X6644512Y-10561378D02*
X6625464Y-10570901D01*
X6625464Y-10570901D02*
X6606416Y-10570901D01*
X6606416Y-10570901D02*
X6587369Y-10561378D01*
X6587369Y-10561378D02*
X6577845Y-10551854D01*
X6577845Y-10551854D02*
X6568321Y-10532806D01*
X6568321Y-10532806D02*
X6558797Y-10494711D01*
X6558797Y-10494711D02*
X6558797Y-10447092D01*
X6558797Y-10447092D02*
X6568321Y-10408997D01*
X6568321Y-10408997D02*
X6577845Y-10389949D01*
X6577845Y-10389949D02*
X6587369Y-10380425D01*
X6587369Y-10380425D02*
X6606416Y-10370901D01*
X6758797Y-10570901D02*
X6758797Y-10437568D01*
X6758797Y-10456616D02*
X6768321Y-10447092D01*
X6768321Y-10447092D02*
X6787369Y-10437568D01*
X6787369Y-10437568D02*
X6815940Y-10437568D01*
X6815940Y-10437568D02*
X6834988Y-10447092D01*
X6834988Y-10447092D02*
X6844512Y-10466140D01*
X6844512Y-10466140D02*
X6844512Y-10570901D01*
X6844512Y-10466140D02*
X6854035Y-10447092D01*
X6854035Y-10447092D02*
X6873083Y-10437568D01*
X6873083Y-10437568D02*
X6901654Y-10437568D01*
X6901654Y-10437568D02*
X6920702Y-10447092D01*
X6920702Y-10447092D02*
X6930226Y-10466140D01*
X6930226Y-10466140D02*
X6930226Y-10570901D01*
X7025464Y-10570901D02*
X7025464Y-10437568D01*
X7025464Y-10456616D02*
X7034988Y-10447092D01*
X7034988Y-10447092D02*
X7054035Y-10437568D01*
X7054035Y-10437568D02*
X7082607Y-10437568D01*
X7082607Y-10437568D02*
X7101655Y-10447092D01*
X7101655Y-10447092D02*
X7111178Y-10466140D01*
X7111178Y-10466140D02*
X7111178Y-10570901D01*
X7111178Y-10466140D02*
X7120702Y-10447092D01*
X7120702Y-10447092D02*
X7139750Y-10437568D01*
X7139750Y-10437568D02*
X7168321Y-10437568D01*
X7168321Y-10437568D02*
X7187369Y-10447092D01*
X7187369Y-10447092D02*
X7196893Y-10466140D01*
X7196893Y-10466140D02*
X7196893Y-10570901D01*
X7587369Y-10361378D02*
X7415940Y-10618520D01*
X7844512Y-10370901D02*
X7863559Y-10370901D01*
X7863559Y-10370901D02*
X7882607Y-10380425D01*
X7882607Y-10380425D02*
X7892131Y-10389949D01*
X7892131Y-10389949D02*
X7901655Y-10408997D01*
X7901655Y-10408997D02*
X7911178Y-10447092D01*
X7911178Y-10447092D02*
X7911178Y-10494711D01*
X7911178Y-10494711D02*
X7901655Y-10532806D01*
X7901655Y-10532806D02*
X7892131Y-10551854D01*
X7892131Y-10551854D02*
X7882607Y-10561378D01*
X7882607Y-10561378D02*
X7863559Y-10570901D01*
X7863559Y-10570901D02*
X7844512Y-10570901D01*
X7844512Y-10570901D02*
X7825464Y-10561378D01*
X7825464Y-10561378D02*
X7815940Y-10551854D01*
X7815940Y-10551854D02*
X7806417Y-10532806D01*
X7806417Y-10532806D02*
X7796893Y-10494711D01*
X7796893Y-10494711D02*
X7796893Y-10447092D01*
X7796893Y-10447092D02*
X7806417Y-10408997D01*
X7806417Y-10408997D02*
X7815940Y-10389949D01*
X7815940Y-10389949D02*
X7825464Y-10380425D01*
X7825464Y-10380425D02*
X7844512Y-10370901D01*
X7996893Y-10551854D02*
X8006417Y-10561378D01*
X8006417Y-10561378D02*
X7996893Y-10570901D01*
X7996893Y-10570901D02*
X7987369Y-10561378D01*
X7987369Y-10561378D02*
X7996893Y-10551854D01*
X7996893Y-10551854D02*
X7996893Y-10570901D01*
X8130226Y-10370901D02*
X8149274Y-10370901D01*
X8149274Y-10370901D02*
X8168321Y-10380425D01*
X8168321Y-10380425D02*
X8177845Y-10389949D01*
X8177845Y-10389949D02*
X8187369Y-10408997D01*
X8187369Y-10408997D02*
X8196893Y-10447092D01*
X8196893Y-10447092D02*
X8196893Y-10494711D01*
X8196893Y-10494711D02*
X8187369Y-10532806D01*
X8187369Y-10532806D02*
X8177845Y-10551854D01*
X8177845Y-10551854D02*
X8168321Y-10561378D01*
X8168321Y-10561378D02*
X8149274Y-10570901D01*
X8149274Y-10570901D02*
X8130226Y-10570901D01*
X8130226Y-10570901D02*
X8111178Y-10561378D01*
X8111178Y-10561378D02*
X8101655Y-10551854D01*
X8101655Y-10551854D02*
X8092131Y-10532806D01*
X8092131Y-10532806D02*
X8082607Y-10494711D01*
X8082607Y-10494711D02*
X8082607Y-10447092D01*
X8082607Y-10447092D02*
X8092131Y-10408997D01*
X8092131Y-10408997D02*
X8101655Y-10389949D01*
X8101655Y-10389949D02*
X8111178Y-10380425D01*
X8111178Y-10380425D02*
X8130226Y-10370901D01*
X8387369Y-10570901D02*
X8273083Y-10570901D01*
X8330226Y-10570901D02*
X8330226Y-10370901D01*
X8330226Y-10370901D02*
X8311178Y-10399473D01*
X8311178Y-10399473D02*
X8292131Y-10418520D01*
X8292131Y-10418520D02*
X8273083Y-10428044D01*
X8568321Y-10370901D02*
X8473083Y-10370901D01*
X8473083Y-10370901D02*
X8463560Y-10466140D01*
X8463560Y-10466140D02*
X8473083Y-10456616D01*
X8473083Y-10456616D02*
X8492131Y-10447092D01*
X8492131Y-10447092D02*
X8539750Y-10447092D01*
X8539750Y-10447092D02*
X8558798Y-10456616D01*
X8558798Y-10456616D02*
X8568321Y-10466140D01*
X8568321Y-10466140D02*
X8577845Y-10485187D01*
X8577845Y-10485187D02*
X8577845Y-10532806D01*
X8577845Y-10532806D02*
X8568321Y-10551854D01*
X8568321Y-10551854D02*
X8558798Y-10561378D01*
X8558798Y-10561378D02*
X8539750Y-10570901D01*
X8539750Y-10570901D02*
X8492131Y-10570901D01*
X8492131Y-10570901D02*
X8473083Y-10561378D01*
X8473083Y-10561378D02*
X8463560Y-10551854D01*
X8644512Y-10370901D02*
X8777845Y-10370901D01*
X8777845Y-10370901D02*
X8692131Y-10570901D01*
X8844512Y-10370901D02*
X8844512Y-10408997D01*
X8920702Y-10370901D02*
X8920702Y-10408997D01*
X9215941Y-10647092D02*
X9206417Y-10637568D01*
X9206417Y-10637568D02*
X9187369Y-10608997D01*
X9187369Y-10608997D02*
X9177845Y-10589949D01*
X9177845Y-10589949D02*
X9168322Y-10561378D01*
X9168322Y-10561378D02*
X9158798Y-10513759D01*
X9158798Y-10513759D02*
X9158798Y-10475663D01*
X9158798Y-10475663D02*
X9168322Y-10428044D01*
X9168322Y-10428044D02*
X9177845Y-10399473D01*
X9177845Y-10399473D02*
X9187369Y-10380425D01*
X9187369Y-10380425D02*
X9206417Y-10351854D01*
X9206417Y-10351854D02*
X9215941Y-10342330D01*
X9377845Y-10370901D02*
X9339750Y-10370901D01*
X9339750Y-10370901D02*
X9320702Y-10380425D01*
X9320702Y-10380425D02*
X9311179Y-10389949D01*
X9311179Y-10389949D02*
X9292131Y-10418520D01*
X9292131Y-10418520D02*
X9282607Y-10456616D01*
X9282607Y-10456616D02*
X9282607Y-10532806D01*
X9282607Y-10532806D02*
X9292131Y-10551854D01*
X9292131Y-10551854D02*
X9301655Y-10561378D01*
X9301655Y-10561378D02*
X9320702Y-10570901D01*
X9320702Y-10570901D02*
X9358798Y-10570901D01*
X9358798Y-10570901D02*
X9377845Y-10561378D01*
X9377845Y-10561378D02*
X9387369Y-10551854D01*
X9387369Y-10551854D02*
X9396893Y-10532806D01*
X9396893Y-10532806D02*
X9396893Y-10485187D01*
X9396893Y-10485187D02*
X9387369Y-10466140D01*
X9387369Y-10466140D02*
X9377845Y-10456616D01*
X9377845Y-10456616D02*
X9358798Y-10447092D01*
X9358798Y-10447092D02*
X9320702Y-10447092D01*
X9320702Y-10447092D02*
X9301655Y-10456616D01*
X9301655Y-10456616D02*
X9292131Y-10466140D01*
X9292131Y-10466140D02*
X9282607Y-10485187D01*
X9520702Y-10370901D02*
X9539750Y-10370901D01*
X9539750Y-10370901D02*
X9558798Y-10380425D01*
X9558798Y-10380425D02*
X9568322Y-10389949D01*
X9568322Y-10389949D02*
X9577845Y-10408997D01*
X9577845Y-10408997D02*
X9587369Y-10447092D01*
X9587369Y-10447092D02*
X9587369Y-10494711D01*
X9587369Y-10494711D02*
X9577845Y-10532806D01*
X9577845Y-10532806D02*
X9568322Y-10551854D01*
X9568322Y-10551854D02*
X9558798Y-10561378D01*
X9558798Y-10561378D02*
X9539750Y-10570901D01*
X9539750Y-10570901D02*
X9520702Y-10570901D01*
X9520702Y-10570901D02*
X9501655Y-10561378D01*
X9501655Y-10561378D02*
X9492131Y-10551854D01*
X9492131Y-10551854D02*
X9482607Y-10532806D01*
X9482607Y-10532806D02*
X9473083Y-10494711D01*
X9473083Y-10494711D02*
X9473083Y-10447092D01*
X9473083Y-10447092D02*
X9482607Y-10408997D01*
X9482607Y-10408997D02*
X9492131Y-10389949D01*
X9492131Y-10389949D02*
X9501655Y-10380425D01*
X9501655Y-10380425D02*
X9520702Y-10370901D01*
X9825464Y-10570901D02*
X9825464Y-10370901D01*
X9911179Y-10570901D02*
X9911179Y-10466140D01*
X9911179Y-10466140D02*
X9901655Y-10447092D01*
X9901655Y-10447092D02*
X9882607Y-10437568D01*
X9882607Y-10437568D02*
X9854036Y-10437568D01*
X9854036Y-10437568D02*
X9834988Y-10447092D01*
X9834988Y-10447092D02*
X9825464Y-10456616D01*
X10034988Y-10570901D02*
X10015941Y-10561378D01*
X10015941Y-10561378D02*
X10006417Y-10551854D01*
X10006417Y-10551854D02*
X9996893Y-10532806D01*
X9996893Y-10532806D02*
X9996893Y-10475663D01*
X9996893Y-10475663D02*
X10006417Y-10456616D01*
X10006417Y-10456616D02*
X10015941Y-10447092D01*
X10015941Y-10447092D02*
X10034988Y-10437568D01*
X10034988Y-10437568D02*
X10063560Y-10437568D01*
X10063560Y-10437568D02*
X10082607Y-10447092D01*
X10082607Y-10447092D02*
X10092131Y-10456616D01*
X10092131Y-10456616D02*
X10101655Y-10475663D01*
X10101655Y-10475663D02*
X10101655Y-10532806D01*
X10101655Y-10532806D02*
X10092131Y-10551854D01*
X10092131Y-10551854D02*
X10082607Y-10561378D01*
X10082607Y-10561378D02*
X10063560Y-10570901D01*
X10063560Y-10570901D02*
X10034988Y-10570901D01*
X10215941Y-10570901D02*
X10196893Y-10561378D01*
X10196893Y-10561378D02*
X10187369Y-10542330D01*
X10187369Y-10542330D02*
X10187369Y-10370901D01*
X10368322Y-10561378D02*
X10349274Y-10570901D01*
X10349274Y-10570901D02*
X10311179Y-10570901D01*
X10311179Y-10570901D02*
X10292131Y-10561378D01*
X10292131Y-10561378D02*
X10282607Y-10542330D01*
X10282607Y-10542330D02*
X10282607Y-10466140D01*
X10282607Y-10466140D02*
X10292131Y-10447092D01*
X10292131Y-10447092D02*
X10311179Y-10437568D01*
X10311179Y-10437568D02*
X10349274Y-10437568D01*
X10349274Y-10437568D02*
X10368322Y-10447092D01*
X10368322Y-10447092D02*
X10377845Y-10466140D01*
X10377845Y-10466140D02*
X10377845Y-10485187D01*
X10377845Y-10485187D02*
X10282607Y-10504235D01*
X10454036Y-10561378D02*
X10473084Y-10570901D01*
X10473084Y-10570901D02*
X10511179Y-10570901D01*
X10511179Y-10570901D02*
X10530226Y-10561378D01*
X10530226Y-10561378D02*
X10539750Y-10542330D01*
X10539750Y-10542330D02*
X10539750Y-10532806D01*
X10539750Y-10532806D02*
X10530226Y-10513759D01*
X10530226Y-10513759D02*
X10511179Y-10504235D01*
X10511179Y-10504235D02*
X10482607Y-10504235D01*
X10482607Y-10504235D02*
X10463560Y-10494711D01*
X10463560Y-10494711D02*
X10454036Y-10475663D01*
X10454036Y-10475663D02*
X10454036Y-10466140D01*
X10454036Y-10466140D02*
X10463560Y-10447092D01*
X10463560Y-10447092D02*
X10482607Y-10437568D01*
X10482607Y-10437568D02*
X10511179Y-10437568D01*
X10511179Y-10437568D02*
X10530226Y-10447092D01*
X10606417Y-10647092D02*
X10615941Y-10637568D01*
X10615941Y-10637568D02*
X10634988Y-10608997D01*
X10634988Y-10608997D02*
X10644512Y-10589949D01*
X10644512Y-10589949D02*
X10654036Y-10561378D01*
X10654036Y-10561378D02*
X10663560Y-10513759D01*
X10663560Y-10513759D02*
X10663560Y-10475663D01*
X10663560Y-10475663D02*
X10654036Y-10428044D01*
X10654036Y-10428044D02*
X10644512Y-10399473D01*
X10644512Y-10399473D02*
X10634988Y-10380425D01*
X10634988Y-10380425D02*
X10615941Y-10351854D01*
X10615941Y-10351854D02*
X10606417Y-10342330D01*
D11*
X5640878Y-10743418D02*
G75*
G02*
X5540878Y-10743418I-50000J0D01*
G01*
X5540878Y-10743418D02*
G75*
G02*
X5640878Y-10743418I50000J0D01*
G01*
D10*
X6006416Y-10834901D02*
X5892131Y-10834901D01*
X5949273Y-10834901D02*
X5949273Y-10634901D01*
X5949273Y-10634901D02*
X5930226Y-10663473D01*
X5930226Y-10663473D02*
X5911178Y-10682520D01*
X5911178Y-10682520D02*
X5892131Y-10692044D01*
X6092131Y-10815854D02*
X6101654Y-10825378D01*
X6101654Y-10825378D02*
X6092131Y-10834901D01*
X6092131Y-10834901D02*
X6082607Y-10825378D01*
X6082607Y-10825378D02*
X6092131Y-10815854D01*
X6092131Y-10815854D02*
X6092131Y-10834901D01*
X6225464Y-10634901D02*
X6244512Y-10634901D01*
X6244512Y-10634901D02*
X6263559Y-10644425D01*
X6263559Y-10644425D02*
X6273083Y-10653949D01*
X6273083Y-10653949D02*
X6282607Y-10672997D01*
X6282607Y-10672997D02*
X6292131Y-10711092D01*
X6292131Y-10711092D02*
X6292131Y-10758711D01*
X6292131Y-10758711D02*
X6282607Y-10796806D01*
X6282607Y-10796806D02*
X6273083Y-10815854D01*
X6273083Y-10815854D02*
X6263559Y-10825378D01*
X6263559Y-10825378D02*
X6244512Y-10834901D01*
X6244512Y-10834901D02*
X6225464Y-10834901D01*
X6225464Y-10834901D02*
X6206416Y-10825378D01*
X6206416Y-10825378D02*
X6196893Y-10815854D01*
X6196893Y-10815854D02*
X6187369Y-10796806D01*
X6187369Y-10796806D02*
X6177845Y-10758711D01*
X6177845Y-10758711D02*
X6177845Y-10711092D01*
X6177845Y-10711092D02*
X6187369Y-10672997D01*
X6187369Y-10672997D02*
X6196893Y-10653949D01*
X6196893Y-10653949D02*
X6206416Y-10644425D01*
X6206416Y-10644425D02*
X6225464Y-10634901D01*
X6415940Y-10634901D02*
X6434988Y-10634901D01*
X6434988Y-10634901D02*
X6454035Y-10644425D01*
X6454035Y-10644425D02*
X6463559Y-10653949D01*
X6463559Y-10653949D02*
X6473083Y-10672997D01*
X6473083Y-10672997D02*
X6482607Y-10711092D01*
X6482607Y-10711092D02*
X6482607Y-10758711D01*
X6482607Y-10758711D02*
X6473083Y-10796806D01*
X6473083Y-10796806D02*
X6463559Y-10815854D01*
X6463559Y-10815854D02*
X6454035Y-10825378D01*
X6454035Y-10825378D02*
X6434988Y-10834901D01*
X6434988Y-10834901D02*
X6415940Y-10834901D01*
X6415940Y-10834901D02*
X6396893Y-10825378D01*
X6396893Y-10825378D02*
X6387369Y-10815854D01*
X6387369Y-10815854D02*
X6377845Y-10796806D01*
X6377845Y-10796806D02*
X6368321Y-10758711D01*
X6368321Y-10758711D02*
X6368321Y-10711092D01*
X6368321Y-10711092D02*
X6377845Y-10672997D01*
X6377845Y-10672997D02*
X6387369Y-10653949D01*
X6387369Y-10653949D02*
X6396893Y-10644425D01*
X6396893Y-10644425D02*
X6415940Y-10634901D01*
X6606416Y-10634901D02*
X6625464Y-10634901D01*
X6625464Y-10634901D02*
X6644512Y-10644425D01*
X6644512Y-10644425D02*
X6654035Y-10653949D01*
X6654035Y-10653949D02*
X6663559Y-10672997D01*
X6663559Y-10672997D02*
X6673083Y-10711092D01*
X6673083Y-10711092D02*
X6673083Y-10758711D01*
X6673083Y-10758711D02*
X6663559Y-10796806D01*
X6663559Y-10796806D02*
X6654035Y-10815854D01*
X6654035Y-10815854D02*
X6644512Y-10825378D01*
X6644512Y-10825378D02*
X6625464Y-10834901D01*
X6625464Y-10834901D02*
X6606416Y-10834901D01*
X6606416Y-10834901D02*
X6587369Y-10825378D01*
X6587369Y-10825378D02*
X6577845Y-10815854D01*
X6577845Y-10815854D02*
X6568321Y-10796806D01*
X6568321Y-10796806D02*
X6558797Y-10758711D01*
X6558797Y-10758711D02*
X6558797Y-10711092D01*
X6558797Y-10711092D02*
X6568321Y-10672997D01*
X6568321Y-10672997D02*
X6577845Y-10653949D01*
X6577845Y-10653949D02*
X6587369Y-10644425D01*
X6587369Y-10644425D02*
X6606416Y-10634901D01*
X6758797Y-10834901D02*
X6758797Y-10701568D01*
X6758797Y-10720616D02*
X6768321Y-10711092D01*
X6768321Y-10711092D02*
X6787369Y-10701568D01*
X6787369Y-10701568D02*
X6815940Y-10701568D01*
X6815940Y-10701568D02*
X6834988Y-10711092D01*
X6834988Y-10711092D02*
X6844512Y-10730140D01*
X6844512Y-10730140D02*
X6844512Y-10834901D01*
X6844512Y-10730140D02*
X6854035Y-10711092D01*
X6854035Y-10711092D02*
X6873083Y-10701568D01*
X6873083Y-10701568D02*
X6901654Y-10701568D01*
X6901654Y-10701568D02*
X6920702Y-10711092D01*
X6920702Y-10711092D02*
X6930226Y-10730140D01*
X6930226Y-10730140D02*
X6930226Y-10834901D01*
X7025464Y-10834901D02*
X7025464Y-10701568D01*
X7025464Y-10720616D02*
X7034988Y-10711092D01*
X7034988Y-10711092D02*
X7054035Y-10701568D01*
X7054035Y-10701568D02*
X7082607Y-10701568D01*
X7082607Y-10701568D02*
X7101655Y-10711092D01*
X7101655Y-10711092D02*
X7111178Y-10730140D01*
X7111178Y-10730140D02*
X7111178Y-10834901D01*
X7111178Y-10730140D02*
X7120702Y-10711092D01*
X7120702Y-10711092D02*
X7139750Y-10701568D01*
X7139750Y-10701568D02*
X7168321Y-10701568D01*
X7168321Y-10701568D02*
X7187369Y-10711092D01*
X7187369Y-10711092D02*
X7196893Y-10730140D01*
X7196893Y-10730140D02*
X7196893Y-10834901D01*
X7587369Y-10625378D02*
X7415940Y-10882520D01*
X7844512Y-10634901D02*
X7863559Y-10634901D01*
X7863559Y-10634901D02*
X7882607Y-10644425D01*
X7882607Y-10644425D02*
X7892131Y-10653949D01*
X7892131Y-10653949D02*
X7901655Y-10672997D01*
X7901655Y-10672997D02*
X7911178Y-10711092D01*
X7911178Y-10711092D02*
X7911178Y-10758711D01*
X7911178Y-10758711D02*
X7901655Y-10796806D01*
X7901655Y-10796806D02*
X7892131Y-10815854D01*
X7892131Y-10815854D02*
X7882607Y-10825378D01*
X7882607Y-10825378D02*
X7863559Y-10834901D01*
X7863559Y-10834901D02*
X7844512Y-10834901D01*
X7844512Y-10834901D02*
X7825464Y-10825378D01*
X7825464Y-10825378D02*
X7815940Y-10815854D01*
X7815940Y-10815854D02*
X7806417Y-10796806D01*
X7806417Y-10796806D02*
X7796893Y-10758711D01*
X7796893Y-10758711D02*
X7796893Y-10711092D01*
X7796893Y-10711092D02*
X7806417Y-10672997D01*
X7806417Y-10672997D02*
X7815940Y-10653949D01*
X7815940Y-10653949D02*
X7825464Y-10644425D01*
X7825464Y-10644425D02*
X7844512Y-10634901D01*
X7996893Y-10815854D02*
X8006417Y-10825378D01*
X8006417Y-10825378D02*
X7996893Y-10834901D01*
X7996893Y-10834901D02*
X7987369Y-10825378D01*
X7987369Y-10825378D02*
X7996893Y-10815854D01*
X7996893Y-10815854D02*
X7996893Y-10834901D01*
X8130226Y-10634901D02*
X8149274Y-10634901D01*
X8149274Y-10634901D02*
X8168321Y-10644425D01*
X8168321Y-10644425D02*
X8177845Y-10653949D01*
X8177845Y-10653949D02*
X8187369Y-10672997D01*
X8187369Y-10672997D02*
X8196893Y-10711092D01*
X8196893Y-10711092D02*
X8196893Y-10758711D01*
X8196893Y-10758711D02*
X8187369Y-10796806D01*
X8187369Y-10796806D02*
X8177845Y-10815854D01*
X8177845Y-10815854D02*
X8168321Y-10825378D01*
X8168321Y-10825378D02*
X8149274Y-10834901D01*
X8149274Y-10834901D02*
X8130226Y-10834901D01*
X8130226Y-10834901D02*
X8111178Y-10825378D01*
X8111178Y-10825378D02*
X8101655Y-10815854D01*
X8101655Y-10815854D02*
X8092131Y-10796806D01*
X8092131Y-10796806D02*
X8082607Y-10758711D01*
X8082607Y-10758711D02*
X8082607Y-10711092D01*
X8082607Y-10711092D02*
X8092131Y-10672997D01*
X8092131Y-10672997D02*
X8101655Y-10653949D01*
X8101655Y-10653949D02*
X8111178Y-10644425D01*
X8111178Y-10644425D02*
X8130226Y-10634901D01*
X8263559Y-10634901D02*
X8387369Y-10634901D01*
X8387369Y-10634901D02*
X8320702Y-10711092D01*
X8320702Y-10711092D02*
X8349274Y-10711092D01*
X8349274Y-10711092D02*
X8368321Y-10720616D01*
X8368321Y-10720616D02*
X8377845Y-10730140D01*
X8377845Y-10730140D02*
X8387369Y-10749187D01*
X8387369Y-10749187D02*
X8387369Y-10796806D01*
X8387369Y-10796806D02*
X8377845Y-10815854D01*
X8377845Y-10815854D02*
X8368321Y-10825378D01*
X8368321Y-10825378D02*
X8349274Y-10834901D01*
X8349274Y-10834901D02*
X8292131Y-10834901D01*
X8292131Y-10834901D02*
X8273083Y-10825378D01*
X8273083Y-10825378D02*
X8263559Y-10815854D01*
X8482607Y-10834901D02*
X8520702Y-10834901D01*
X8520702Y-10834901D02*
X8539750Y-10825378D01*
X8539750Y-10825378D02*
X8549274Y-10815854D01*
X8549274Y-10815854D02*
X8568321Y-10787282D01*
X8568321Y-10787282D02*
X8577845Y-10749187D01*
X8577845Y-10749187D02*
X8577845Y-10672997D01*
X8577845Y-10672997D02*
X8568321Y-10653949D01*
X8568321Y-10653949D02*
X8558798Y-10644425D01*
X8558798Y-10644425D02*
X8539750Y-10634901D01*
X8539750Y-10634901D02*
X8501655Y-10634901D01*
X8501655Y-10634901D02*
X8482607Y-10644425D01*
X8482607Y-10644425D02*
X8473083Y-10653949D01*
X8473083Y-10653949D02*
X8463560Y-10672997D01*
X8463560Y-10672997D02*
X8463560Y-10720616D01*
X8463560Y-10720616D02*
X8473083Y-10739663D01*
X8473083Y-10739663D02*
X8482607Y-10749187D01*
X8482607Y-10749187D02*
X8501655Y-10758711D01*
X8501655Y-10758711D02*
X8539750Y-10758711D01*
X8539750Y-10758711D02*
X8558798Y-10749187D01*
X8558798Y-10749187D02*
X8568321Y-10739663D01*
X8568321Y-10739663D02*
X8577845Y-10720616D01*
X8749274Y-10701568D02*
X8749274Y-10834901D01*
X8701655Y-10625378D02*
X8654036Y-10768235D01*
X8654036Y-10768235D02*
X8777845Y-10768235D01*
X8844512Y-10634901D02*
X8844512Y-10672997D01*
X8920702Y-10634901D02*
X8920702Y-10672997D01*
X9215941Y-10911092D02*
X9206417Y-10901568D01*
X9206417Y-10901568D02*
X9187369Y-10872997D01*
X9187369Y-10872997D02*
X9177845Y-10853949D01*
X9177845Y-10853949D02*
X9168322Y-10825378D01*
X9168322Y-10825378D02*
X9158798Y-10777759D01*
X9158798Y-10777759D02*
X9158798Y-10739663D01*
X9158798Y-10739663D02*
X9168322Y-10692044D01*
X9168322Y-10692044D02*
X9177845Y-10663473D01*
X9177845Y-10663473D02*
X9187369Y-10644425D01*
X9187369Y-10644425D02*
X9206417Y-10615854D01*
X9206417Y-10615854D02*
X9215941Y-10606330D01*
X9330226Y-10634901D02*
X9349274Y-10634901D01*
X9349274Y-10634901D02*
X9368322Y-10644425D01*
X9368322Y-10644425D02*
X9377845Y-10653949D01*
X9377845Y-10653949D02*
X9387369Y-10672997D01*
X9387369Y-10672997D02*
X9396893Y-10711092D01*
X9396893Y-10711092D02*
X9396893Y-10758711D01*
X9396893Y-10758711D02*
X9387369Y-10796806D01*
X9387369Y-10796806D02*
X9377845Y-10815854D01*
X9377845Y-10815854D02*
X9368322Y-10825378D01*
X9368322Y-10825378D02*
X9349274Y-10834901D01*
X9349274Y-10834901D02*
X9330226Y-10834901D01*
X9330226Y-10834901D02*
X9311179Y-10825378D01*
X9311179Y-10825378D02*
X9301655Y-10815854D01*
X9301655Y-10815854D02*
X9292131Y-10796806D01*
X9292131Y-10796806D02*
X9282607Y-10758711D01*
X9282607Y-10758711D02*
X9282607Y-10711092D01*
X9282607Y-10711092D02*
X9292131Y-10672997D01*
X9292131Y-10672997D02*
X9301655Y-10653949D01*
X9301655Y-10653949D02*
X9311179Y-10644425D01*
X9311179Y-10644425D02*
X9330226Y-10634901D01*
X9634988Y-10834901D02*
X9634988Y-10634901D01*
X9720703Y-10834901D02*
X9720703Y-10730140D01*
X9720703Y-10730140D02*
X9711179Y-10711092D01*
X9711179Y-10711092D02*
X9692131Y-10701568D01*
X9692131Y-10701568D02*
X9663560Y-10701568D01*
X9663560Y-10701568D02*
X9644512Y-10711092D01*
X9644512Y-10711092D02*
X9634988Y-10720616D01*
X9844512Y-10834901D02*
X9825464Y-10825378D01*
X9825464Y-10825378D02*
X9815941Y-10815854D01*
X9815941Y-10815854D02*
X9806417Y-10796806D01*
X9806417Y-10796806D02*
X9806417Y-10739663D01*
X9806417Y-10739663D02*
X9815941Y-10720616D01*
X9815941Y-10720616D02*
X9825464Y-10711092D01*
X9825464Y-10711092D02*
X9844512Y-10701568D01*
X9844512Y-10701568D02*
X9873084Y-10701568D01*
X9873084Y-10701568D02*
X9892131Y-10711092D01*
X9892131Y-10711092D02*
X9901655Y-10720616D01*
X9901655Y-10720616D02*
X9911179Y-10739663D01*
X9911179Y-10739663D02*
X9911179Y-10796806D01*
X9911179Y-10796806D02*
X9901655Y-10815854D01*
X9901655Y-10815854D02*
X9892131Y-10825378D01*
X9892131Y-10825378D02*
X9873084Y-10834901D01*
X9873084Y-10834901D02*
X9844512Y-10834901D01*
X10025464Y-10834901D02*
X10006417Y-10825378D01*
X10006417Y-10825378D02*
X9996893Y-10806330D01*
X9996893Y-10806330D02*
X9996893Y-10634901D01*
X10177845Y-10825378D02*
X10158798Y-10834901D01*
X10158798Y-10834901D02*
X10120703Y-10834901D01*
X10120703Y-10834901D02*
X10101655Y-10825378D01*
X10101655Y-10825378D02*
X10092131Y-10806330D01*
X10092131Y-10806330D02*
X10092131Y-10730140D01*
X10092131Y-10730140D02*
X10101655Y-10711092D01*
X10101655Y-10711092D02*
X10120703Y-10701568D01*
X10120703Y-10701568D02*
X10158798Y-10701568D01*
X10158798Y-10701568D02*
X10177845Y-10711092D01*
X10177845Y-10711092D02*
X10187369Y-10730140D01*
X10187369Y-10730140D02*
X10187369Y-10749187D01*
X10187369Y-10749187D02*
X10092131Y-10768235D01*
X10263560Y-10825378D02*
X10282607Y-10834901D01*
X10282607Y-10834901D02*
X10320703Y-10834901D01*
X10320703Y-10834901D02*
X10339750Y-10825378D01*
X10339750Y-10825378D02*
X10349274Y-10806330D01*
X10349274Y-10806330D02*
X10349274Y-10796806D01*
X10349274Y-10796806D02*
X10339750Y-10777759D01*
X10339750Y-10777759D02*
X10320703Y-10768235D01*
X10320703Y-10768235D02*
X10292131Y-10768235D01*
X10292131Y-10768235D02*
X10273084Y-10758711D01*
X10273084Y-10758711D02*
X10263560Y-10739663D01*
X10263560Y-10739663D02*
X10263560Y-10730140D01*
X10263560Y-10730140D02*
X10273084Y-10711092D01*
X10273084Y-10711092D02*
X10292131Y-10701568D01*
X10292131Y-10701568D02*
X10320703Y-10701568D01*
X10320703Y-10701568D02*
X10339750Y-10711092D01*
X10587369Y-10758711D02*
X10739750Y-10758711D01*
X10663560Y-10834901D02*
X10663560Y-10682520D01*
X11092131Y-10834901D02*
X10977846Y-10834901D01*
X11034988Y-10834901D02*
X11034988Y-10634901D01*
X11034988Y-10634901D02*
X11015941Y-10663473D01*
X11015941Y-10663473D02*
X10996893Y-10682520D01*
X10996893Y-10682520D02*
X10977846Y-10692044D01*
X11168322Y-10653949D02*
X11177846Y-10644425D01*
X11177846Y-10644425D02*
X11196893Y-10634901D01*
X11196893Y-10634901D02*
X11244512Y-10634901D01*
X11244512Y-10634901D02*
X11263560Y-10644425D01*
X11263560Y-10644425D02*
X11273084Y-10653949D01*
X11273084Y-10653949D02*
X11282607Y-10672997D01*
X11282607Y-10672997D02*
X11282607Y-10692044D01*
X11282607Y-10692044D02*
X11273084Y-10720616D01*
X11273084Y-10720616D02*
X11158798Y-10834901D01*
X11158798Y-10834901D02*
X11282607Y-10834901D01*
X11511179Y-10825378D02*
X11530226Y-10834901D01*
X11530226Y-10834901D02*
X11568322Y-10834901D01*
X11568322Y-10834901D02*
X11587369Y-10825378D01*
X11587369Y-10825378D02*
X11596893Y-10806330D01*
X11596893Y-10806330D02*
X11596893Y-10796806D01*
X11596893Y-10796806D02*
X11587369Y-10777759D01*
X11587369Y-10777759D02*
X11568322Y-10768235D01*
X11568322Y-10768235D02*
X11539750Y-10768235D01*
X11539750Y-10768235D02*
X11520703Y-10758711D01*
X11520703Y-10758711D02*
X11511179Y-10739663D01*
X11511179Y-10739663D02*
X11511179Y-10730140D01*
X11511179Y-10730140D02*
X11520703Y-10711092D01*
X11520703Y-10711092D02*
X11539750Y-10701568D01*
X11539750Y-10701568D02*
X11568322Y-10701568D01*
X11568322Y-10701568D02*
X11587369Y-10711092D01*
X11711179Y-10834901D02*
X11692131Y-10825378D01*
X11692131Y-10825378D02*
X11682607Y-10806330D01*
X11682607Y-10806330D02*
X11682607Y-10634901D01*
X11815941Y-10834901D02*
X11796893Y-10825378D01*
X11796893Y-10825378D02*
X11787369Y-10815854D01*
X11787369Y-10815854D02*
X11777846Y-10796806D01*
X11777846Y-10796806D02*
X11777846Y-10739663D01*
X11777846Y-10739663D02*
X11787369Y-10720616D01*
X11787369Y-10720616D02*
X11796893Y-10711092D01*
X11796893Y-10711092D02*
X11815941Y-10701568D01*
X11815941Y-10701568D02*
X11844512Y-10701568D01*
X11844512Y-10701568D02*
X11863560Y-10711092D01*
X11863560Y-10711092D02*
X11873084Y-10720616D01*
X11873084Y-10720616D02*
X11882607Y-10739663D01*
X11882607Y-10739663D02*
X11882607Y-10796806D01*
X11882607Y-10796806D02*
X11873084Y-10815854D01*
X11873084Y-10815854D02*
X11863560Y-10825378D01*
X11863560Y-10825378D02*
X11844512Y-10834901D01*
X11844512Y-10834901D02*
X11815941Y-10834901D01*
X11939750Y-10701568D02*
X12015941Y-10701568D01*
X11968322Y-10634901D02*
X11968322Y-10806330D01*
X11968322Y-10806330D02*
X11977846Y-10825378D01*
X11977846Y-10825378D02*
X11996893Y-10834901D01*
X11996893Y-10834901D02*
X12015941Y-10834901D01*
X12073084Y-10825378D02*
X12092131Y-10834901D01*
X12092131Y-10834901D02*
X12130226Y-10834901D01*
X12130226Y-10834901D02*
X12149274Y-10825378D01*
X12149274Y-10825378D02*
X12158798Y-10806330D01*
X12158798Y-10806330D02*
X12158798Y-10796806D01*
X12158798Y-10796806D02*
X12149274Y-10777759D01*
X12149274Y-10777759D02*
X12130226Y-10768235D01*
X12130226Y-10768235D02*
X12101655Y-10768235D01*
X12101655Y-10768235D02*
X12082607Y-10758711D01*
X12082607Y-10758711D02*
X12073084Y-10739663D01*
X12073084Y-10739663D02*
X12073084Y-10730140D01*
X12073084Y-10730140D02*
X12082607Y-10711092D01*
X12082607Y-10711092D02*
X12101655Y-10701568D01*
X12101655Y-10701568D02*
X12130226Y-10701568D01*
X12130226Y-10701568D02*
X12149274Y-10711092D01*
X12225465Y-10911092D02*
X12234988Y-10901568D01*
X12234988Y-10901568D02*
X12254036Y-10872997D01*
X12254036Y-10872997D02*
X12263560Y-10853949D01*
X12263560Y-10853949D02*
X12273084Y-10825378D01*
X12273084Y-10825378D02*
X12282607Y-10777759D01*
X12282607Y-10777759D02*
X12282607Y-10739663D01*
X12282607Y-10739663D02*
X12273084Y-10692044D01*
X12273084Y-10692044D02*
X12263560Y-10663473D01*
X12263560Y-10663473D02*
X12254036Y-10644425D01*
X12254036Y-10644425D02*
X12234988Y-10615854D01*
X12234988Y-10615854D02*
X12225465Y-10606330D01*
D12*
X5555878Y-10922418D02*
X5555878Y-11092418D01*
X5470878Y-11007418D02*
X5640878Y-11007418D01*
D10*
X6006416Y-11098901D02*
X5892131Y-11098901D01*
X5949273Y-11098901D02*
X5949273Y-10898901D01*
X5949273Y-10898901D02*
X5930226Y-10927473D01*
X5930226Y-10927473D02*
X5911178Y-10946520D01*
X5911178Y-10946520D02*
X5892131Y-10956044D01*
X6092131Y-11079854D02*
X6101654Y-11089378D01*
X6101654Y-11089378D02*
X6092131Y-11098901D01*
X6092131Y-11098901D02*
X6082607Y-11089378D01*
X6082607Y-11089378D02*
X6092131Y-11079854D01*
X6092131Y-11079854D02*
X6092131Y-11098901D01*
X6168321Y-10898901D02*
X6301654Y-10898901D01*
X6301654Y-10898901D02*
X6215940Y-11098901D01*
X6415940Y-10898901D02*
X6434988Y-10898901D01*
X6434988Y-10898901D02*
X6454035Y-10908425D01*
X6454035Y-10908425D02*
X6463559Y-10917949D01*
X6463559Y-10917949D02*
X6473083Y-10936997D01*
X6473083Y-10936997D02*
X6482607Y-10975092D01*
X6482607Y-10975092D02*
X6482607Y-11022711D01*
X6482607Y-11022711D02*
X6473083Y-11060806D01*
X6473083Y-11060806D02*
X6463559Y-11079854D01*
X6463559Y-11079854D02*
X6454035Y-11089378D01*
X6454035Y-11089378D02*
X6434988Y-11098901D01*
X6434988Y-11098901D02*
X6415940Y-11098901D01*
X6415940Y-11098901D02*
X6396893Y-11089378D01*
X6396893Y-11089378D02*
X6387369Y-11079854D01*
X6387369Y-11079854D02*
X6377845Y-11060806D01*
X6377845Y-11060806D02*
X6368321Y-11022711D01*
X6368321Y-11022711D02*
X6368321Y-10975092D01*
X6368321Y-10975092D02*
X6377845Y-10936997D01*
X6377845Y-10936997D02*
X6387369Y-10917949D01*
X6387369Y-10917949D02*
X6396893Y-10908425D01*
X6396893Y-10908425D02*
X6415940Y-10898901D01*
X6606416Y-10898901D02*
X6625464Y-10898901D01*
X6625464Y-10898901D02*
X6644512Y-10908425D01*
X6644512Y-10908425D02*
X6654035Y-10917949D01*
X6654035Y-10917949D02*
X6663559Y-10936997D01*
X6663559Y-10936997D02*
X6673083Y-10975092D01*
X6673083Y-10975092D02*
X6673083Y-11022711D01*
X6673083Y-11022711D02*
X6663559Y-11060806D01*
X6663559Y-11060806D02*
X6654035Y-11079854D01*
X6654035Y-11079854D02*
X6644512Y-11089378D01*
X6644512Y-11089378D02*
X6625464Y-11098901D01*
X6625464Y-11098901D02*
X6606416Y-11098901D01*
X6606416Y-11098901D02*
X6587369Y-11089378D01*
X6587369Y-11089378D02*
X6577845Y-11079854D01*
X6577845Y-11079854D02*
X6568321Y-11060806D01*
X6568321Y-11060806D02*
X6558797Y-11022711D01*
X6558797Y-11022711D02*
X6558797Y-10975092D01*
X6558797Y-10975092D02*
X6568321Y-10936997D01*
X6568321Y-10936997D02*
X6577845Y-10917949D01*
X6577845Y-10917949D02*
X6587369Y-10908425D01*
X6587369Y-10908425D02*
X6606416Y-10898901D01*
X6758797Y-11098901D02*
X6758797Y-10965568D01*
X6758797Y-10984616D02*
X6768321Y-10975092D01*
X6768321Y-10975092D02*
X6787369Y-10965568D01*
X6787369Y-10965568D02*
X6815940Y-10965568D01*
X6815940Y-10965568D02*
X6834988Y-10975092D01*
X6834988Y-10975092D02*
X6844512Y-10994140D01*
X6844512Y-10994140D02*
X6844512Y-11098901D01*
X6844512Y-10994140D02*
X6854035Y-10975092D01*
X6854035Y-10975092D02*
X6873083Y-10965568D01*
X6873083Y-10965568D02*
X6901654Y-10965568D01*
X6901654Y-10965568D02*
X6920702Y-10975092D01*
X6920702Y-10975092D02*
X6930226Y-10994140D01*
X6930226Y-10994140D02*
X6930226Y-11098901D01*
X7025464Y-11098901D02*
X7025464Y-10965568D01*
X7025464Y-10984616D02*
X7034988Y-10975092D01*
X7034988Y-10975092D02*
X7054035Y-10965568D01*
X7054035Y-10965568D02*
X7082607Y-10965568D01*
X7082607Y-10965568D02*
X7101655Y-10975092D01*
X7101655Y-10975092D02*
X7111178Y-10994140D01*
X7111178Y-10994140D02*
X7111178Y-11098901D01*
X7111178Y-10994140D02*
X7120702Y-10975092D01*
X7120702Y-10975092D02*
X7139750Y-10965568D01*
X7139750Y-10965568D02*
X7168321Y-10965568D01*
X7168321Y-10965568D02*
X7187369Y-10975092D01*
X7187369Y-10975092D02*
X7196893Y-10994140D01*
X7196893Y-10994140D02*
X7196893Y-11098901D01*
X7587369Y-10889378D02*
X7415940Y-11146520D01*
X7844512Y-10898901D02*
X7863559Y-10898901D01*
X7863559Y-10898901D02*
X7882607Y-10908425D01*
X7882607Y-10908425D02*
X7892131Y-10917949D01*
X7892131Y-10917949D02*
X7901655Y-10936997D01*
X7901655Y-10936997D02*
X7911178Y-10975092D01*
X7911178Y-10975092D02*
X7911178Y-11022711D01*
X7911178Y-11022711D02*
X7901655Y-11060806D01*
X7901655Y-11060806D02*
X7892131Y-11079854D01*
X7892131Y-11079854D02*
X7882607Y-11089378D01*
X7882607Y-11089378D02*
X7863559Y-11098901D01*
X7863559Y-11098901D02*
X7844512Y-11098901D01*
X7844512Y-11098901D02*
X7825464Y-11089378D01*
X7825464Y-11089378D02*
X7815940Y-11079854D01*
X7815940Y-11079854D02*
X7806417Y-11060806D01*
X7806417Y-11060806D02*
X7796893Y-11022711D01*
X7796893Y-11022711D02*
X7796893Y-10975092D01*
X7796893Y-10975092D02*
X7806417Y-10936997D01*
X7806417Y-10936997D02*
X7815940Y-10917949D01*
X7815940Y-10917949D02*
X7825464Y-10908425D01*
X7825464Y-10908425D02*
X7844512Y-10898901D01*
X7996893Y-11079854D02*
X8006417Y-11089378D01*
X8006417Y-11089378D02*
X7996893Y-11098901D01*
X7996893Y-11098901D02*
X7987369Y-11089378D01*
X7987369Y-11089378D02*
X7996893Y-11079854D01*
X7996893Y-11079854D02*
X7996893Y-11098901D01*
X8130226Y-10898901D02*
X8149274Y-10898901D01*
X8149274Y-10898901D02*
X8168321Y-10908425D01*
X8168321Y-10908425D02*
X8177845Y-10917949D01*
X8177845Y-10917949D02*
X8187369Y-10936997D01*
X8187369Y-10936997D02*
X8196893Y-10975092D01*
X8196893Y-10975092D02*
X8196893Y-11022711D01*
X8196893Y-11022711D02*
X8187369Y-11060806D01*
X8187369Y-11060806D02*
X8177845Y-11079854D01*
X8177845Y-11079854D02*
X8168321Y-11089378D01*
X8168321Y-11089378D02*
X8149274Y-11098901D01*
X8149274Y-11098901D02*
X8130226Y-11098901D01*
X8130226Y-11098901D02*
X8111178Y-11089378D01*
X8111178Y-11089378D02*
X8101655Y-11079854D01*
X8101655Y-11079854D02*
X8092131Y-11060806D01*
X8092131Y-11060806D02*
X8082607Y-11022711D01*
X8082607Y-11022711D02*
X8082607Y-10975092D01*
X8082607Y-10975092D02*
X8092131Y-10936997D01*
X8092131Y-10936997D02*
X8101655Y-10917949D01*
X8101655Y-10917949D02*
X8111178Y-10908425D01*
X8111178Y-10908425D02*
X8130226Y-10898901D01*
X8368321Y-10898901D02*
X8330226Y-10898901D01*
X8330226Y-10898901D02*
X8311178Y-10908425D01*
X8311178Y-10908425D02*
X8301655Y-10917949D01*
X8301655Y-10917949D02*
X8282607Y-10946520D01*
X8282607Y-10946520D02*
X8273083Y-10984616D01*
X8273083Y-10984616D02*
X8273083Y-11060806D01*
X8273083Y-11060806D02*
X8282607Y-11079854D01*
X8282607Y-11079854D02*
X8292131Y-11089378D01*
X8292131Y-11089378D02*
X8311178Y-11098901D01*
X8311178Y-11098901D02*
X8349274Y-11098901D01*
X8349274Y-11098901D02*
X8368321Y-11089378D01*
X8368321Y-11089378D02*
X8377845Y-11079854D01*
X8377845Y-11079854D02*
X8387369Y-11060806D01*
X8387369Y-11060806D02*
X8387369Y-11013187D01*
X8387369Y-11013187D02*
X8377845Y-10994140D01*
X8377845Y-10994140D02*
X8368321Y-10984616D01*
X8368321Y-10984616D02*
X8349274Y-10975092D01*
X8349274Y-10975092D02*
X8311178Y-10975092D01*
X8311178Y-10975092D02*
X8292131Y-10984616D01*
X8292131Y-10984616D02*
X8282607Y-10994140D01*
X8282607Y-10994140D02*
X8273083Y-11013187D01*
X8558798Y-10898901D02*
X8520702Y-10898901D01*
X8520702Y-10898901D02*
X8501655Y-10908425D01*
X8501655Y-10908425D02*
X8492131Y-10917949D01*
X8492131Y-10917949D02*
X8473083Y-10946520D01*
X8473083Y-10946520D02*
X8463560Y-10984616D01*
X8463560Y-10984616D02*
X8463560Y-11060806D01*
X8463560Y-11060806D02*
X8473083Y-11079854D01*
X8473083Y-11079854D02*
X8482607Y-11089378D01*
X8482607Y-11089378D02*
X8501655Y-11098901D01*
X8501655Y-11098901D02*
X8539750Y-11098901D01*
X8539750Y-11098901D02*
X8558798Y-11089378D01*
X8558798Y-11089378D02*
X8568321Y-11079854D01*
X8568321Y-11079854D02*
X8577845Y-11060806D01*
X8577845Y-11060806D02*
X8577845Y-11013187D01*
X8577845Y-11013187D02*
X8568321Y-10994140D01*
X8568321Y-10994140D02*
X8558798Y-10984616D01*
X8558798Y-10984616D02*
X8539750Y-10975092D01*
X8539750Y-10975092D02*
X8501655Y-10975092D01*
X8501655Y-10975092D02*
X8482607Y-10984616D01*
X8482607Y-10984616D02*
X8473083Y-10994140D01*
X8473083Y-10994140D02*
X8463560Y-11013187D01*
X8673083Y-11098901D02*
X8711179Y-11098901D01*
X8711179Y-11098901D02*
X8730226Y-11089378D01*
X8730226Y-11089378D02*
X8739750Y-11079854D01*
X8739750Y-11079854D02*
X8758798Y-11051282D01*
X8758798Y-11051282D02*
X8768321Y-11013187D01*
X8768321Y-11013187D02*
X8768321Y-10936997D01*
X8768321Y-10936997D02*
X8758798Y-10917949D01*
X8758798Y-10917949D02*
X8749274Y-10908425D01*
X8749274Y-10908425D02*
X8730226Y-10898901D01*
X8730226Y-10898901D02*
X8692131Y-10898901D01*
X8692131Y-10898901D02*
X8673083Y-10908425D01*
X8673083Y-10908425D02*
X8663560Y-10917949D01*
X8663560Y-10917949D02*
X8654036Y-10936997D01*
X8654036Y-10936997D02*
X8654036Y-10984616D01*
X8654036Y-10984616D02*
X8663560Y-11003663D01*
X8663560Y-11003663D02*
X8673083Y-11013187D01*
X8673083Y-11013187D02*
X8692131Y-11022711D01*
X8692131Y-11022711D02*
X8730226Y-11022711D01*
X8730226Y-11022711D02*
X8749274Y-11013187D01*
X8749274Y-11013187D02*
X8758798Y-11003663D01*
X8758798Y-11003663D02*
X8768321Y-10984616D01*
X8844512Y-10898901D02*
X8844512Y-10936997D01*
X8920702Y-10898901D02*
X8920702Y-10936997D01*
X9215941Y-11175092D02*
X9206417Y-11165568D01*
X9206417Y-11165568D02*
X9187369Y-11136997D01*
X9187369Y-11136997D02*
X9177845Y-11117949D01*
X9177845Y-11117949D02*
X9168322Y-11089378D01*
X9168322Y-11089378D02*
X9158798Y-11041759D01*
X9158798Y-11041759D02*
X9158798Y-11003663D01*
X9158798Y-11003663D02*
X9168322Y-10956044D01*
X9168322Y-10956044D02*
X9177845Y-10927473D01*
X9177845Y-10927473D02*
X9187369Y-10908425D01*
X9187369Y-10908425D02*
X9206417Y-10879854D01*
X9206417Y-10879854D02*
X9215941Y-10870330D01*
X9273083Y-10898901D02*
X9396893Y-10898901D01*
X9396893Y-10898901D02*
X9330226Y-10975092D01*
X9330226Y-10975092D02*
X9358798Y-10975092D01*
X9358798Y-10975092D02*
X9377845Y-10984616D01*
X9377845Y-10984616D02*
X9387369Y-10994140D01*
X9387369Y-10994140D02*
X9396893Y-11013187D01*
X9396893Y-11013187D02*
X9396893Y-11060806D01*
X9396893Y-11060806D02*
X9387369Y-11079854D01*
X9387369Y-11079854D02*
X9377845Y-11089378D01*
X9377845Y-11089378D02*
X9358798Y-11098901D01*
X9358798Y-11098901D02*
X9301655Y-11098901D01*
X9301655Y-11098901D02*
X9282607Y-11089378D01*
X9282607Y-11089378D02*
X9273083Y-11079854D01*
X9634988Y-11098901D02*
X9634988Y-10898901D01*
X9720703Y-11098901D02*
X9720703Y-10994140D01*
X9720703Y-10994140D02*
X9711179Y-10975092D01*
X9711179Y-10975092D02*
X9692131Y-10965568D01*
X9692131Y-10965568D02*
X9663560Y-10965568D01*
X9663560Y-10965568D02*
X9644512Y-10975092D01*
X9644512Y-10975092D02*
X9634988Y-10984616D01*
X9844512Y-11098901D02*
X9825464Y-11089378D01*
X9825464Y-11089378D02*
X9815941Y-11079854D01*
X9815941Y-11079854D02*
X9806417Y-11060806D01*
X9806417Y-11060806D02*
X9806417Y-11003663D01*
X9806417Y-11003663D02*
X9815941Y-10984616D01*
X9815941Y-10984616D02*
X9825464Y-10975092D01*
X9825464Y-10975092D02*
X9844512Y-10965568D01*
X9844512Y-10965568D02*
X9873084Y-10965568D01*
X9873084Y-10965568D02*
X9892131Y-10975092D01*
X9892131Y-10975092D02*
X9901655Y-10984616D01*
X9901655Y-10984616D02*
X9911179Y-11003663D01*
X9911179Y-11003663D02*
X9911179Y-11060806D01*
X9911179Y-11060806D02*
X9901655Y-11079854D01*
X9901655Y-11079854D02*
X9892131Y-11089378D01*
X9892131Y-11089378D02*
X9873084Y-11098901D01*
X9873084Y-11098901D02*
X9844512Y-11098901D01*
X10025464Y-11098901D02*
X10006417Y-11089378D01*
X10006417Y-11089378D02*
X9996893Y-11070330D01*
X9996893Y-11070330D02*
X9996893Y-10898901D01*
X10177845Y-11089378D02*
X10158798Y-11098901D01*
X10158798Y-11098901D02*
X10120703Y-11098901D01*
X10120703Y-11098901D02*
X10101655Y-11089378D01*
X10101655Y-11089378D02*
X10092131Y-11070330D01*
X10092131Y-11070330D02*
X10092131Y-10994140D01*
X10092131Y-10994140D02*
X10101655Y-10975092D01*
X10101655Y-10975092D02*
X10120703Y-10965568D01*
X10120703Y-10965568D02*
X10158798Y-10965568D01*
X10158798Y-10965568D02*
X10177845Y-10975092D01*
X10177845Y-10975092D02*
X10187369Y-10994140D01*
X10187369Y-10994140D02*
X10187369Y-11013187D01*
X10187369Y-11013187D02*
X10092131Y-11032235D01*
X10263560Y-11089378D02*
X10282607Y-11098901D01*
X10282607Y-11098901D02*
X10320703Y-11098901D01*
X10320703Y-11098901D02*
X10339750Y-11089378D01*
X10339750Y-11089378D02*
X10349274Y-11070330D01*
X10349274Y-11070330D02*
X10349274Y-11060806D01*
X10349274Y-11060806D02*
X10339750Y-11041759D01*
X10339750Y-11041759D02*
X10320703Y-11032235D01*
X10320703Y-11032235D02*
X10292131Y-11032235D01*
X10292131Y-11032235D02*
X10273084Y-11022711D01*
X10273084Y-11022711D02*
X10263560Y-11003663D01*
X10263560Y-11003663D02*
X10263560Y-10994140D01*
X10263560Y-10994140D02*
X10273084Y-10975092D01*
X10273084Y-10975092D02*
X10292131Y-10965568D01*
X10292131Y-10965568D02*
X10320703Y-10965568D01*
X10320703Y-10965568D02*
X10339750Y-10975092D01*
X10415941Y-11175092D02*
X10425465Y-11165568D01*
X10425465Y-11165568D02*
X10444512Y-11136997D01*
X10444512Y-11136997D02*
X10454036Y-11117949D01*
X10454036Y-11117949D02*
X10463560Y-11089378D01*
X10463560Y-11089378D02*
X10473084Y-11041759D01*
X10473084Y-11041759D02*
X10473084Y-11003663D01*
X10473084Y-11003663D02*
X10463560Y-10956044D01*
X10463560Y-10956044D02*
X10454036Y-10927473D01*
X10454036Y-10927473D02*
X10444512Y-10908425D01*
X10444512Y-10908425D02*
X10425465Y-10879854D01*
X10425465Y-10879854D02*
X10415941Y-10870330D01*
X5611589Y-11368129D02*
X5611589Y-11226706D01*
X5470166Y-11226706D01*
X5470166Y-11368129D01*
X5611589Y-11368129D01*
X5892131Y-11207949D02*
X5901654Y-11198425D01*
X5901654Y-11198425D02*
X5920702Y-11188901D01*
X5920702Y-11188901D02*
X5968321Y-11188901D01*
X5968321Y-11188901D02*
X5987369Y-11198425D01*
X5987369Y-11198425D02*
X5996893Y-11207949D01*
X5996893Y-11207949D02*
X6006416Y-11226997D01*
X6006416Y-11226997D02*
X6006416Y-11246044D01*
X6006416Y-11246044D02*
X5996893Y-11274616D01*
X5996893Y-11274616D02*
X5882607Y-11388901D01*
X5882607Y-11388901D02*
X6006416Y-11388901D01*
X6092131Y-11369854D02*
X6101654Y-11379378D01*
X6101654Y-11379378D02*
X6092131Y-11388901D01*
X6092131Y-11388901D02*
X6082607Y-11379378D01*
X6082607Y-11379378D02*
X6092131Y-11369854D01*
X6092131Y-11369854D02*
X6092131Y-11388901D01*
X6177845Y-11207949D02*
X6187369Y-11198425D01*
X6187369Y-11198425D02*
X6206416Y-11188901D01*
X6206416Y-11188901D02*
X6254035Y-11188901D01*
X6254035Y-11188901D02*
X6273083Y-11198425D01*
X6273083Y-11198425D02*
X6282607Y-11207949D01*
X6282607Y-11207949D02*
X6292131Y-11226997D01*
X6292131Y-11226997D02*
X6292131Y-11246044D01*
X6292131Y-11246044D02*
X6282607Y-11274616D01*
X6282607Y-11274616D02*
X6168321Y-11388901D01*
X6168321Y-11388901D02*
X6292131Y-11388901D01*
X6415940Y-11188901D02*
X6434988Y-11188901D01*
X6434988Y-11188901D02*
X6454035Y-11198425D01*
X6454035Y-11198425D02*
X6463559Y-11207949D01*
X6463559Y-11207949D02*
X6473083Y-11226997D01*
X6473083Y-11226997D02*
X6482607Y-11265092D01*
X6482607Y-11265092D02*
X6482607Y-11312711D01*
X6482607Y-11312711D02*
X6473083Y-11350806D01*
X6473083Y-11350806D02*
X6463559Y-11369854D01*
X6463559Y-11369854D02*
X6454035Y-11379378D01*
X6454035Y-11379378D02*
X6434988Y-11388901D01*
X6434988Y-11388901D02*
X6415940Y-11388901D01*
X6415940Y-11388901D02*
X6396893Y-11379378D01*
X6396893Y-11379378D02*
X6387369Y-11369854D01*
X6387369Y-11369854D02*
X6377845Y-11350806D01*
X6377845Y-11350806D02*
X6368321Y-11312711D01*
X6368321Y-11312711D02*
X6368321Y-11265092D01*
X6368321Y-11265092D02*
X6377845Y-11226997D01*
X6377845Y-11226997D02*
X6387369Y-11207949D01*
X6387369Y-11207949D02*
X6396893Y-11198425D01*
X6396893Y-11198425D02*
X6415940Y-11188901D01*
X6606416Y-11188901D02*
X6625464Y-11188901D01*
X6625464Y-11188901D02*
X6644512Y-11198425D01*
X6644512Y-11198425D02*
X6654035Y-11207949D01*
X6654035Y-11207949D02*
X6663559Y-11226997D01*
X6663559Y-11226997D02*
X6673083Y-11265092D01*
X6673083Y-11265092D02*
X6673083Y-11312711D01*
X6673083Y-11312711D02*
X6663559Y-11350806D01*
X6663559Y-11350806D02*
X6654035Y-11369854D01*
X6654035Y-11369854D02*
X6644512Y-11379378D01*
X6644512Y-11379378D02*
X6625464Y-11388901D01*
X6625464Y-11388901D02*
X6606416Y-11388901D01*
X6606416Y-11388901D02*
X6587369Y-11379378D01*
X6587369Y-11379378D02*
X6577845Y-11369854D01*
X6577845Y-11369854D02*
X6568321Y-11350806D01*
X6568321Y-11350806D02*
X6558797Y-11312711D01*
X6558797Y-11312711D02*
X6558797Y-11265092D01*
X6558797Y-11265092D02*
X6568321Y-11226997D01*
X6568321Y-11226997D02*
X6577845Y-11207949D01*
X6577845Y-11207949D02*
X6587369Y-11198425D01*
X6587369Y-11198425D02*
X6606416Y-11188901D01*
X6758797Y-11388901D02*
X6758797Y-11255568D01*
X6758797Y-11274616D02*
X6768321Y-11265092D01*
X6768321Y-11265092D02*
X6787369Y-11255568D01*
X6787369Y-11255568D02*
X6815940Y-11255568D01*
X6815940Y-11255568D02*
X6834988Y-11265092D01*
X6834988Y-11265092D02*
X6844512Y-11284139D01*
X6844512Y-11284139D02*
X6844512Y-11388901D01*
X6844512Y-11284139D02*
X6854035Y-11265092D01*
X6854035Y-11265092D02*
X6873083Y-11255568D01*
X6873083Y-11255568D02*
X6901654Y-11255568D01*
X6901654Y-11255568D02*
X6920702Y-11265092D01*
X6920702Y-11265092D02*
X6930226Y-11284139D01*
X6930226Y-11284139D02*
X6930226Y-11388901D01*
X7025464Y-11388901D02*
X7025464Y-11255568D01*
X7025464Y-11274616D02*
X7034988Y-11265092D01*
X7034988Y-11265092D02*
X7054035Y-11255568D01*
X7054035Y-11255568D02*
X7082607Y-11255568D01*
X7082607Y-11255568D02*
X7101655Y-11265092D01*
X7101655Y-11265092D02*
X7111178Y-11284139D01*
X7111178Y-11284139D02*
X7111178Y-11388901D01*
X7111178Y-11284139D02*
X7120702Y-11265092D01*
X7120702Y-11265092D02*
X7139750Y-11255568D01*
X7139750Y-11255568D02*
X7168321Y-11255568D01*
X7168321Y-11255568D02*
X7187369Y-11265092D01*
X7187369Y-11265092D02*
X7196893Y-11284139D01*
X7196893Y-11284139D02*
X7196893Y-11388901D01*
X7587369Y-11179378D02*
X7415940Y-11436520D01*
X7844512Y-11188901D02*
X7863559Y-11188901D01*
X7863559Y-11188901D02*
X7882607Y-11198425D01*
X7882607Y-11198425D02*
X7892131Y-11207949D01*
X7892131Y-11207949D02*
X7901655Y-11226997D01*
X7901655Y-11226997D02*
X7911178Y-11265092D01*
X7911178Y-11265092D02*
X7911178Y-11312711D01*
X7911178Y-11312711D02*
X7901655Y-11350806D01*
X7901655Y-11350806D02*
X7892131Y-11369854D01*
X7892131Y-11369854D02*
X7882607Y-11379378D01*
X7882607Y-11379378D02*
X7863559Y-11388901D01*
X7863559Y-11388901D02*
X7844512Y-11388901D01*
X7844512Y-11388901D02*
X7825464Y-11379378D01*
X7825464Y-11379378D02*
X7815940Y-11369854D01*
X7815940Y-11369854D02*
X7806417Y-11350806D01*
X7806417Y-11350806D02*
X7796893Y-11312711D01*
X7796893Y-11312711D02*
X7796893Y-11265092D01*
X7796893Y-11265092D02*
X7806417Y-11226997D01*
X7806417Y-11226997D02*
X7815940Y-11207949D01*
X7815940Y-11207949D02*
X7825464Y-11198425D01*
X7825464Y-11198425D02*
X7844512Y-11188901D01*
X7996893Y-11369854D02*
X8006417Y-11379378D01*
X8006417Y-11379378D02*
X7996893Y-11388901D01*
X7996893Y-11388901D02*
X7987369Y-11379378D01*
X7987369Y-11379378D02*
X7996893Y-11369854D01*
X7996893Y-11369854D02*
X7996893Y-11388901D01*
X8130226Y-11188901D02*
X8149274Y-11188901D01*
X8149274Y-11188901D02*
X8168321Y-11198425D01*
X8168321Y-11198425D02*
X8177845Y-11207949D01*
X8177845Y-11207949D02*
X8187369Y-11226997D01*
X8187369Y-11226997D02*
X8196893Y-11265092D01*
X8196893Y-11265092D02*
X8196893Y-11312711D01*
X8196893Y-11312711D02*
X8187369Y-11350806D01*
X8187369Y-11350806D02*
X8177845Y-11369854D01*
X8177845Y-11369854D02*
X8168321Y-11379378D01*
X8168321Y-11379378D02*
X8149274Y-11388901D01*
X8149274Y-11388901D02*
X8130226Y-11388901D01*
X8130226Y-11388901D02*
X8111178Y-11379378D01*
X8111178Y-11379378D02*
X8101655Y-11369854D01*
X8101655Y-11369854D02*
X8092131Y-11350806D01*
X8092131Y-11350806D02*
X8082607Y-11312711D01*
X8082607Y-11312711D02*
X8082607Y-11265092D01*
X8082607Y-11265092D02*
X8092131Y-11226997D01*
X8092131Y-11226997D02*
X8101655Y-11207949D01*
X8101655Y-11207949D02*
X8111178Y-11198425D01*
X8111178Y-11198425D02*
X8130226Y-11188901D01*
X8311178Y-11274616D02*
X8292131Y-11265092D01*
X8292131Y-11265092D02*
X8282607Y-11255568D01*
X8282607Y-11255568D02*
X8273083Y-11236520D01*
X8273083Y-11236520D02*
X8273083Y-11226997D01*
X8273083Y-11226997D02*
X8282607Y-11207949D01*
X8282607Y-11207949D02*
X8292131Y-11198425D01*
X8292131Y-11198425D02*
X8311178Y-11188901D01*
X8311178Y-11188901D02*
X8349274Y-11188901D01*
X8349274Y-11188901D02*
X8368321Y-11198425D01*
X8368321Y-11198425D02*
X8377845Y-11207949D01*
X8377845Y-11207949D02*
X8387369Y-11226997D01*
X8387369Y-11226997D02*
X8387369Y-11236520D01*
X8387369Y-11236520D02*
X8377845Y-11255568D01*
X8377845Y-11255568D02*
X8368321Y-11265092D01*
X8368321Y-11265092D02*
X8349274Y-11274616D01*
X8349274Y-11274616D02*
X8311178Y-11274616D01*
X8311178Y-11274616D02*
X8292131Y-11284139D01*
X8292131Y-11284139D02*
X8282607Y-11293663D01*
X8282607Y-11293663D02*
X8273083Y-11312711D01*
X8273083Y-11312711D02*
X8273083Y-11350806D01*
X8273083Y-11350806D02*
X8282607Y-11369854D01*
X8282607Y-11369854D02*
X8292131Y-11379378D01*
X8292131Y-11379378D02*
X8311178Y-11388901D01*
X8311178Y-11388901D02*
X8349274Y-11388901D01*
X8349274Y-11388901D02*
X8368321Y-11379378D01*
X8368321Y-11379378D02*
X8377845Y-11369854D01*
X8377845Y-11369854D02*
X8387369Y-11350806D01*
X8387369Y-11350806D02*
X8387369Y-11312711D01*
X8387369Y-11312711D02*
X8377845Y-11293663D01*
X8377845Y-11293663D02*
X8368321Y-11284139D01*
X8368321Y-11284139D02*
X8349274Y-11274616D01*
X8558798Y-11188901D02*
X8520702Y-11188901D01*
X8520702Y-11188901D02*
X8501655Y-11198425D01*
X8501655Y-11198425D02*
X8492131Y-11207949D01*
X8492131Y-11207949D02*
X8473083Y-11236520D01*
X8473083Y-11236520D02*
X8463560Y-11274616D01*
X8463560Y-11274616D02*
X8463560Y-11350806D01*
X8463560Y-11350806D02*
X8473083Y-11369854D01*
X8473083Y-11369854D02*
X8482607Y-11379378D01*
X8482607Y-11379378D02*
X8501655Y-11388901D01*
X8501655Y-11388901D02*
X8539750Y-11388901D01*
X8539750Y-11388901D02*
X8558798Y-11379378D01*
X8558798Y-11379378D02*
X8568321Y-11369854D01*
X8568321Y-11369854D02*
X8577845Y-11350806D01*
X8577845Y-11350806D02*
X8577845Y-11303187D01*
X8577845Y-11303187D02*
X8568321Y-11284139D01*
X8568321Y-11284139D02*
X8558798Y-11274616D01*
X8558798Y-11274616D02*
X8539750Y-11265092D01*
X8539750Y-11265092D02*
X8501655Y-11265092D01*
X8501655Y-11265092D02*
X8482607Y-11274616D01*
X8482607Y-11274616D02*
X8473083Y-11284139D01*
X8473083Y-11284139D02*
X8463560Y-11303187D01*
X8749274Y-11188901D02*
X8711179Y-11188901D01*
X8711179Y-11188901D02*
X8692131Y-11198425D01*
X8692131Y-11198425D02*
X8682607Y-11207949D01*
X8682607Y-11207949D02*
X8663560Y-11236520D01*
X8663560Y-11236520D02*
X8654036Y-11274616D01*
X8654036Y-11274616D02*
X8654036Y-11350806D01*
X8654036Y-11350806D02*
X8663560Y-11369854D01*
X8663560Y-11369854D02*
X8673083Y-11379378D01*
X8673083Y-11379378D02*
X8692131Y-11388901D01*
X8692131Y-11388901D02*
X8730226Y-11388901D01*
X8730226Y-11388901D02*
X8749274Y-11379378D01*
X8749274Y-11379378D02*
X8758798Y-11369854D01*
X8758798Y-11369854D02*
X8768321Y-11350806D01*
X8768321Y-11350806D02*
X8768321Y-11303187D01*
X8768321Y-11303187D02*
X8758798Y-11284139D01*
X8758798Y-11284139D02*
X8749274Y-11274616D01*
X8749274Y-11274616D02*
X8730226Y-11265092D01*
X8730226Y-11265092D02*
X8692131Y-11265092D01*
X8692131Y-11265092D02*
X8673083Y-11274616D01*
X8673083Y-11274616D02*
X8663560Y-11284139D01*
X8663560Y-11284139D02*
X8654036Y-11303187D01*
X8844512Y-11188901D02*
X8844512Y-11226997D01*
X8920702Y-11188901D02*
X8920702Y-11226997D01*
X9215941Y-11465092D02*
X9206417Y-11455568D01*
X9206417Y-11455568D02*
X9187369Y-11426997D01*
X9187369Y-11426997D02*
X9177845Y-11407949D01*
X9177845Y-11407949D02*
X9168322Y-11379378D01*
X9168322Y-11379378D02*
X9158798Y-11331758D01*
X9158798Y-11331758D02*
X9158798Y-11293663D01*
X9158798Y-11293663D02*
X9168322Y-11246044D01*
X9168322Y-11246044D02*
X9177845Y-11217473D01*
X9177845Y-11217473D02*
X9187369Y-11198425D01*
X9187369Y-11198425D02*
X9206417Y-11169854D01*
X9206417Y-11169854D02*
X9215941Y-11160330D01*
X9377845Y-11255568D02*
X9377845Y-11388901D01*
X9330226Y-11179378D02*
X9282607Y-11322235D01*
X9282607Y-11322235D02*
X9406417Y-11322235D01*
X9634988Y-11388901D02*
X9634988Y-11188901D01*
X9720703Y-11388901D02*
X9720703Y-11284139D01*
X9720703Y-11284139D02*
X9711179Y-11265092D01*
X9711179Y-11265092D02*
X9692131Y-11255568D01*
X9692131Y-11255568D02*
X9663560Y-11255568D01*
X9663560Y-11255568D02*
X9644512Y-11265092D01*
X9644512Y-11265092D02*
X9634988Y-11274616D01*
X9844512Y-11388901D02*
X9825464Y-11379378D01*
X9825464Y-11379378D02*
X9815941Y-11369854D01*
X9815941Y-11369854D02*
X9806417Y-11350806D01*
X9806417Y-11350806D02*
X9806417Y-11293663D01*
X9806417Y-11293663D02*
X9815941Y-11274616D01*
X9815941Y-11274616D02*
X9825464Y-11265092D01*
X9825464Y-11265092D02*
X9844512Y-11255568D01*
X9844512Y-11255568D02*
X9873084Y-11255568D01*
X9873084Y-11255568D02*
X9892131Y-11265092D01*
X9892131Y-11265092D02*
X9901655Y-11274616D01*
X9901655Y-11274616D02*
X9911179Y-11293663D01*
X9911179Y-11293663D02*
X9911179Y-11350806D01*
X9911179Y-11350806D02*
X9901655Y-11369854D01*
X9901655Y-11369854D02*
X9892131Y-11379378D01*
X9892131Y-11379378D02*
X9873084Y-11388901D01*
X9873084Y-11388901D02*
X9844512Y-11388901D01*
X10025464Y-11388901D02*
X10006417Y-11379378D01*
X10006417Y-11379378D02*
X9996893Y-11360330D01*
X9996893Y-11360330D02*
X9996893Y-11188901D01*
X10177845Y-11379378D02*
X10158798Y-11388901D01*
X10158798Y-11388901D02*
X10120703Y-11388901D01*
X10120703Y-11388901D02*
X10101655Y-11379378D01*
X10101655Y-11379378D02*
X10092131Y-11360330D01*
X10092131Y-11360330D02*
X10092131Y-11284139D01*
X10092131Y-11284139D02*
X10101655Y-11265092D01*
X10101655Y-11265092D02*
X10120703Y-11255568D01*
X10120703Y-11255568D02*
X10158798Y-11255568D01*
X10158798Y-11255568D02*
X10177845Y-11265092D01*
X10177845Y-11265092D02*
X10187369Y-11284139D01*
X10187369Y-11284139D02*
X10187369Y-11303187D01*
X10187369Y-11303187D02*
X10092131Y-11322235D01*
X10263560Y-11379378D02*
X10282607Y-11388901D01*
X10282607Y-11388901D02*
X10320703Y-11388901D01*
X10320703Y-11388901D02*
X10339750Y-11379378D01*
X10339750Y-11379378D02*
X10349274Y-11360330D01*
X10349274Y-11360330D02*
X10349274Y-11350806D01*
X10349274Y-11350806D02*
X10339750Y-11331758D01*
X10339750Y-11331758D02*
X10320703Y-11322235D01*
X10320703Y-11322235D02*
X10292131Y-11322235D01*
X10292131Y-11322235D02*
X10273084Y-11312711D01*
X10273084Y-11312711D02*
X10263560Y-11293663D01*
X10263560Y-11293663D02*
X10263560Y-11284139D01*
X10263560Y-11284139D02*
X10273084Y-11265092D01*
X10273084Y-11265092D02*
X10292131Y-11255568D01*
X10292131Y-11255568D02*
X10320703Y-11255568D01*
X10320703Y-11255568D02*
X10339750Y-11265092D01*
X10415941Y-11465092D02*
X10425465Y-11455568D01*
X10425465Y-11455568D02*
X10444512Y-11426997D01*
X10444512Y-11426997D02*
X10454036Y-11407949D01*
X10454036Y-11407949D02*
X10463560Y-11379378D01*
X10463560Y-11379378D02*
X10473084Y-11331758D01*
X10473084Y-11331758D02*
X10473084Y-11293663D01*
X10473084Y-11293663D02*
X10463560Y-11246044D01*
X10463560Y-11246044D02*
X10454036Y-11217473D01*
X10454036Y-11217473D02*
X10444512Y-11198425D01*
X10444512Y-11198425D02*
X10425465Y-11169854D01*
X10425465Y-11169854D02*
X10415941Y-11160330D01*
M02*
