%TF.GenerationSoftware,KiCad,Pcbnew,8.0.4*%
%TF.CreationDate,2024-09-23T11:02:56+01:00*%
%TF.ProjectId,algoritmi_foc,616c676f-7269-4746-9d69-5f666f632e6b,Andr_s Motta*%
%TF.SameCoordinates,Original*%
%TF.FileFunction,Legend,Bot*%
%TF.FilePolarity,Positive*%
%FSLAX46Y46*%
G04 Gerber Fmt 4.6, Leading zero omitted, Abs format (unit mm)*
G04 Created by KiCad (PCBNEW 8.0.4) date 2024-09-23 11:02:56*
%MOMM*%
%LPD*%
G01*
G04 APERTURE LIST*
%ADD10C,0.150000*%
G04 APERTURE END LIST*
D10*
G36*
X120986706Y-68717299D02*
G01*
X120984508Y-68713879D01*
X120987438Y-68717055D01*
X121050697Y-68781779D01*
X121058269Y-68801807D01*
X121058269Y-68929790D01*
X121073027Y-68978054D01*
X121082449Y-68988897D01*
X121127004Y-69010990D01*
X121142044Y-69012100D01*
X121190633Y-68999048D01*
X121203838Y-68988897D01*
X121227326Y-68944807D01*
X121228506Y-68929790D01*
X121228506Y-68801807D01*
X121234856Y-68781779D01*
X121296894Y-68715345D01*
X121299581Y-68712414D01*
X121297383Y-68715833D01*
X121297383Y-69346224D01*
X121311396Y-69393256D01*
X121322295Y-69406064D01*
X121367548Y-69428854D01*
X121382623Y-69430000D01*
X121430068Y-69416536D01*
X121443196Y-69406064D01*
X121466684Y-69361276D01*
X121467864Y-69346224D01*
X121467864Y-68513356D01*
X121453988Y-68466461D01*
X121443196Y-68453761D01*
X121399781Y-68431092D01*
X121382623Y-68429581D01*
X121334034Y-68443594D01*
X121320830Y-68454494D01*
X121172086Y-68607390D01*
X121158164Y-68615938D01*
X121142044Y-68619602D01*
X121126657Y-68615938D01*
X121113224Y-68608611D01*
X120962037Y-68454249D01*
X120917707Y-68431123D01*
X120900000Y-68429581D01*
X120851521Y-68444339D01*
X120840404Y-68453761D01*
X120817381Y-68498400D01*
X120816224Y-68513356D01*
X120816224Y-69346224D01*
X120830983Y-69394703D01*
X120840404Y-69405819D01*
X120885043Y-69428842D01*
X120900000Y-69430000D01*
X120947856Y-69416536D01*
X120961304Y-69406064D01*
X120985118Y-69363336D01*
X120986706Y-69346224D01*
X120986706Y-68717299D01*
G37*
G36*
X120404187Y-68693607D02*
G01*
X120418945Y-68741872D01*
X120428367Y-68752714D01*
X120473005Y-68774807D01*
X120487962Y-68775917D01*
X120536673Y-68761755D01*
X120547801Y-68752714D01*
X120570824Y-68708624D01*
X120571981Y-68693607D01*
X120571981Y-68631570D01*
X120565875Y-68601284D01*
X120547313Y-68572707D01*
X120432030Y-68456448D01*
X120388375Y-68430866D01*
X120372679Y-68429581D01*
X120118178Y-68429581D01*
X120071467Y-68444419D01*
X120059071Y-68455959D01*
X119943300Y-68570997D01*
X119921440Y-68616441D01*
X119920341Y-68629860D01*
X119920341Y-68714124D01*
X119925715Y-68743433D01*
X119943545Y-68771521D01*
X120396615Y-69219462D01*
X120401500Y-69230697D01*
X120389532Y-69250237D01*
X120364375Y-69258053D01*
X120002651Y-69258053D01*
X119954536Y-69273407D01*
X119943789Y-69283210D01*
X119921463Y-69328844D01*
X119920341Y-69344026D01*
X119933531Y-69391837D01*
X119943789Y-69405087D01*
X119987646Y-69428807D01*
X120002651Y-69430000D01*
X120488206Y-69430000D01*
X120535238Y-69416123D01*
X120548046Y-69405331D01*
X120570836Y-69359995D01*
X120571981Y-69345003D01*
X120571981Y-69193328D01*
X120555535Y-69146197D01*
X120547069Y-69137152D01*
X120091556Y-68685547D01*
X120087892Y-68673824D01*
X120091556Y-68662344D01*
X120144801Y-68609099D01*
X120164584Y-68601528D01*
X120326273Y-68601528D01*
X120346301Y-68609099D01*
X120396615Y-68659413D01*
X120404187Y-68677976D01*
X120404187Y-68693607D01*
G37*
G36*
X120986706Y-94117299D02*
G01*
X120984508Y-94113879D01*
X120987438Y-94117055D01*
X121050697Y-94181779D01*
X121058269Y-94201807D01*
X121058269Y-94329790D01*
X121073027Y-94378054D01*
X121082449Y-94388897D01*
X121127004Y-94410990D01*
X121142044Y-94412100D01*
X121190633Y-94399048D01*
X121203838Y-94388897D01*
X121227326Y-94344807D01*
X121228506Y-94329790D01*
X121228506Y-94201807D01*
X121234856Y-94181779D01*
X121296894Y-94115345D01*
X121299581Y-94112414D01*
X121297383Y-94115833D01*
X121297383Y-94746224D01*
X121311396Y-94793256D01*
X121322295Y-94806064D01*
X121367548Y-94828854D01*
X121382623Y-94830000D01*
X121430068Y-94816536D01*
X121443196Y-94806064D01*
X121466684Y-94761276D01*
X121467864Y-94746224D01*
X121467864Y-93913356D01*
X121453988Y-93866461D01*
X121443196Y-93853761D01*
X121399781Y-93831092D01*
X121382623Y-93829581D01*
X121334034Y-93843594D01*
X121320830Y-93854494D01*
X121172086Y-94007390D01*
X121158164Y-94015938D01*
X121142044Y-94019602D01*
X121126657Y-94015938D01*
X121113224Y-94008611D01*
X120962037Y-93854249D01*
X120917707Y-93831123D01*
X120900000Y-93829581D01*
X120851521Y-93844339D01*
X120840404Y-93853761D01*
X120817381Y-93898400D01*
X120816224Y-93913356D01*
X120816224Y-94746224D01*
X120830983Y-94794703D01*
X120840404Y-94805819D01*
X120885043Y-94828842D01*
X120900000Y-94830000D01*
X120947856Y-94816536D01*
X120961304Y-94806064D01*
X120985118Y-94763336D01*
X120986706Y-94746224D01*
X120986706Y-94117299D01*
G37*
G36*
X120404187Y-94093607D02*
G01*
X120418945Y-94141872D01*
X120428367Y-94152714D01*
X120473005Y-94174807D01*
X120487962Y-94175917D01*
X120536673Y-94161755D01*
X120547801Y-94152714D01*
X120570824Y-94108624D01*
X120571981Y-94093607D01*
X120571981Y-94031570D01*
X120565875Y-94001284D01*
X120547313Y-93972707D01*
X120432030Y-93856448D01*
X120388375Y-93830866D01*
X120372679Y-93829581D01*
X120118178Y-93829581D01*
X120071467Y-93844419D01*
X120059071Y-93855959D01*
X119943300Y-93970997D01*
X119921440Y-94016441D01*
X119920341Y-94029860D01*
X119920341Y-94114124D01*
X119925715Y-94143433D01*
X119943545Y-94171521D01*
X120396615Y-94619462D01*
X120401500Y-94630697D01*
X120389532Y-94650237D01*
X120364375Y-94658053D01*
X120002651Y-94658053D01*
X119954536Y-94673407D01*
X119943789Y-94683210D01*
X119921463Y-94728844D01*
X119920341Y-94744026D01*
X119933531Y-94791837D01*
X119943789Y-94805087D01*
X119987646Y-94828807D01*
X120002651Y-94830000D01*
X120488206Y-94830000D01*
X120535238Y-94816123D01*
X120548046Y-94805331D01*
X120570836Y-94759995D01*
X120571981Y-94745003D01*
X120571981Y-94593328D01*
X120555535Y-94546197D01*
X120547069Y-94537152D01*
X120091556Y-94085547D01*
X120087892Y-94073824D01*
X120091556Y-94062344D01*
X120144801Y-94009099D01*
X120164584Y-94001528D01*
X120326273Y-94001528D01*
X120346301Y-94009099D01*
X120396615Y-94059413D01*
X120404187Y-94077976D01*
X120404187Y-94093607D01*
G37*
G36*
X85186706Y-68717299D02*
G01*
X85184508Y-68713879D01*
X85187438Y-68717055D01*
X85250697Y-68781779D01*
X85258269Y-68801807D01*
X85258269Y-68929790D01*
X85273027Y-68978054D01*
X85282449Y-68988897D01*
X85327004Y-69010990D01*
X85342044Y-69012100D01*
X85390633Y-68999048D01*
X85403838Y-68988897D01*
X85427326Y-68944807D01*
X85428506Y-68929790D01*
X85428506Y-68801807D01*
X85434856Y-68781779D01*
X85496894Y-68715345D01*
X85499581Y-68712414D01*
X85497383Y-68715833D01*
X85497383Y-69346224D01*
X85511396Y-69393256D01*
X85522295Y-69406064D01*
X85567548Y-69428854D01*
X85582623Y-69430000D01*
X85630068Y-69416536D01*
X85643196Y-69406064D01*
X85666684Y-69361276D01*
X85667864Y-69346224D01*
X85667864Y-68513356D01*
X85653988Y-68466461D01*
X85643196Y-68453761D01*
X85599781Y-68431092D01*
X85582623Y-68429581D01*
X85534034Y-68443594D01*
X85520830Y-68454494D01*
X85372086Y-68607390D01*
X85358164Y-68615938D01*
X85342044Y-68619602D01*
X85326657Y-68615938D01*
X85313224Y-68608611D01*
X85162037Y-68454249D01*
X85117707Y-68431123D01*
X85100000Y-68429581D01*
X85051521Y-68444339D01*
X85040404Y-68453761D01*
X85017381Y-68498400D01*
X85016224Y-68513356D01*
X85016224Y-69346224D01*
X85030983Y-69394703D01*
X85040404Y-69405819D01*
X85085043Y-69428842D01*
X85100000Y-69430000D01*
X85147856Y-69416536D01*
X85161304Y-69406064D01*
X85185118Y-69363336D01*
X85186706Y-69346224D01*
X85186706Y-68717299D01*
G37*
G36*
X84604187Y-68693607D02*
G01*
X84618945Y-68741872D01*
X84628367Y-68752714D01*
X84673005Y-68774807D01*
X84687962Y-68775917D01*
X84736673Y-68761755D01*
X84747801Y-68752714D01*
X84770824Y-68708624D01*
X84771981Y-68693607D01*
X84771981Y-68631570D01*
X84765875Y-68601284D01*
X84747313Y-68572707D01*
X84632030Y-68456448D01*
X84588375Y-68430866D01*
X84572679Y-68429581D01*
X84318178Y-68429581D01*
X84271467Y-68444419D01*
X84259071Y-68455959D01*
X84143300Y-68570997D01*
X84121440Y-68616441D01*
X84120341Y-68629860D01*
X84120341Y-68714124D01*
X84125715Y-68743433D01*
X84143545Y-68771521D01*
X84596615Y-69219462D01*
X84601500Y-69230697D01*
X84589532Y-69250237D01*
X84564375Y-69258053D01*
X84202651Y-69258053D01*
X84154536Y-69273407D01*
X84143789Y-69283210D01*
X84121463Y-69328844D01*
X84120341Y-69344026D01*
X84133531Y-69391837D01*
X84143789Y-69405087D01*
X84187646Y-69428807D01*
X84202651Y-69430000D01*
X84688206Y-69430000D01*
X84735238Y-69416123D01*
X84748046Y-69405331D01*
X84770836Y-69359995D01*
X84771981Y-69345003D01*
X84771981Y-69193328D01*
X84755535Y-69146197D01*
X84747069Y-69137152D01*
X84291556Y-68685547D01*
X84287892Y-68673824D01*
X84291556Y-68662344D01*
X84344801Y-68609099D01*
X84364584Y-68601528D01*
X84526273Y-68601528D01*
X84546301Y-68609099D01*
X84596615Y-68659413D01*
X84604187Y-68677976D01*
X84604187Y-68693607D01*
G37*
G36*
X85186706Y-93917299D02*
G01*
X85184508Y-93913879D01*
X85187438Y-93917055D01*
X85250697Y-93981779D01*
X85258269Y-94001807D01*
X85258269Y-94129790D01*
X85273027Y-94178054D01*
X85282449Y-94188897D01*
X85327004Y-94210990D01*
X85342044Y-94212100D01*
X85390633Y-94199048D01*
X85403838Y-94188897D01*
X85427326Y-94144807D01*
X85428506Y-94129790D01*
X85428506Y-94001807D01*
X85434856Y-93981779D01*
X85496894Y-93915345D01*
X85499581Y-93912414D01*
X85497383Y-93915833D01*
X85497383Y-94546224D01*
X85511396Y-94593256D01*
X85522295Y-94606064D01*
X85567548Y-94628854D01*
X85582623Y-94630000D01*
X85630068Y-94616536D01*
X85643196Y-94606064D01*
X85666684Y-94561276D01*
X85667864Y-94546224D01*
X85667864Y-93713356D01*
X85653988Y-93666461D01*
X85643196Y-93653761D01*
X85599781Y-93631092D01*
X85582623Y-93629581D01*
X85534034Y-93643594D01*
X85520830Y-93654494D01*
X85372086Y-93807390D01*
X85358164Y-93815938D01*
X85342044Y-93819602D01*
X85326657Y-93815938D01*
X85313224Y-93808611D01*
X85162037Y-93654249D01*
X85117707Y-93631123D01*
X85100000Y-93629581D01*
X85051521Y-93644339D01*
X85040404Y-93653761D01*
X85017381Y-93698400D01*
X85016224Y-93713356D01*
X85016224Y-94546224D01*
X85030983Y-94594703D01*
X85040404Y-94605819D01*
X85085043Y-94628842D01*
X85100000Y-94630000D01*
X85147856Y-94616536D01*
X85161304Y-94606064D01*
X85185118Y-94563336D01*
X85186706Y-94546224D01*
X85186706Y-93917299D01*
G37*
G36*
X84604187Y-93893607D02*
G01*
X84618945Y-93941872D01*
X84628367Y-93952714D01*
X84673005Y-93974807D01*
X84687962Y-93975917D01*
X84736673Y-93961755D01*
X84747801Y-93952714D01*
X84770824Y-93908624D01*
X84771981Y-93893607D01*
X84771981Y-93831570D01*
X84765875Y-93801284D01*
X84747313Y-93772707D01*
X84632030Y-93656448D01*
X84588375Y-93630866D01*
X84572679Y-93629581D01*
X84318178Y-93629581D01*
X84271467Y-93644419D01*
X84259071Y-93655959D01*
X84143300Y-93770997D01*
X84121440Y-93816441D01*
X84120341Y-93829860D01*
X84120341Y-93914124D01*
X84125715Y-93943433D01*
X84143545Y-93971521D01*
X84596615Y-94419462D01*
X84601500Y-94430697D01*
X84589532Y-94450237D01*
X84564375Y-94458053D01*
X84202651Y-94458053D01*
X84154536Y-94473407D01*
X84143789Y-94483210D01*
X84121463Y-94528844D01*
X84120341Y-94544026D01*
X84133531Y-94591837D01*
X84143789Y-94605087D01*
X84187646Y-94628807D01*
X84202651Y-94630000D01*
X84688206Y-94630000D01*
X84735238Y-94616123D01*
X84748046Y-94605331D01*
X84770836Y-94559995D01*
X84771981Y-94545003D01*
X84771981Y-94393328D01*
X84755535Y-94346197D01*
X84747069Y-94337152D01*
X84291556Y-93885547D01*
X84287892Y-93873824D01*
X84291556Y-93862344D01*
X84344801Y-93809099D01*
X84364584Y-93801528D01*
X84526273Y-93801528D01*
X84546301Y-93809099D01*
X84596615Y-93859413D01*
X84604187Y-93877976D01*
X84604187Y-93893607D01*
G37*
M02*
