%TF.GenerationSoftware,KiCad,Pcbnew,8.0.4*%
%TF.CreationDate,2024-09-02T15:52:59+01:00*%
%TF.ProjectId,algoritmi_foc,616c676f-7269-4746-9d69-5f666f632e6b,Andr_s Motta*%
%TF.SameCoordinates,Original*%
%TF.FileFunction,Legend,Bot*%
%TF.FilePolarity,Positive*%
%FSLAX46Y46*%
G04 Gerber Fmt 4.6, Leading zero omitted, Abs format (unit mm)*
G04 Created by KiCad (PCBNEW 8.0.4) date 2024-09-02 15:52:59*
%MOMM*%
%LPD*%
G01*
G04 APERTURE LIST*
%ADD10C,0.800000*%
%ADD11C,1.000000*%
%ADD12C,0.150000*%
%ADD13C,0.254000*%
%ADD14C,0.100000*%
%ADD15C,0.200000*%
G04 APERTURE END LIST*
D10*
X109317203Y-60642559D02*
X119800000Y-66800000D01*
D11*
X86997203Y-64772559D02*
X74917203Y-64792559D01*
X74917203Y-64792559D02*
X68857203Y-69222559D01*
D12*
X122069819Y-64936779D02*
X121069819Y-64936779D01*
X121069819Y-64936779D02*
X121784104Y-65270112D01*
X121784104Y-65270112D02*
X121069819Y-65603445D01*
X121069819Y-65603445D02*
X122069819Y-65603445D01*
X121069819Y-66270112D02*
X121069819Y-66460588D01*
X121069819Y-66460588D02*
X121117438Y-66555826D01*
X121117438Y-66555826D02*
X121212676Y-66651064D01*
X121212676Y-66651064D02*
X121403152Y-66698683D01*
X121403152Y-66698683D02*
X121736485Y-66698683D01*
X121736485Y-66698683D02*
X121926961Y-66651064D01*
X121926961Y-66651064D02*
X122022200Y-66555826D01*
X122022200Y-66555826D02*
X122069819Y-66460588D01*
X122069819Y-66460588D02*
X122069819Y-66270112D01*
X122069819Y-66270112D02*
X122022200Y-66174874D01*
X122022200Y-66174874D02*
X121926961Y-66079636D01*
X121926961Y-66079636D02*
X121736485Y-66032017D01*
X121736485Y-66032017D02*
X121403152Y-66032017D01*
X121403152Y-66032017D02*
X121212676Y-66079636D01*
X121212676Y-66079636D02*
X121117438Y-66174874D01*
X121117438Y-66174874D02*
X121069819Y-66270112D01*
X121069819Y-66984398D02*
X121069819Y-67555826D01*
X122069819Y-67270112D02*
X121069819Y-67270112D01*
X121069819Y-68079636D02*
X121069819Y-68270112D01*
X121069819Y-68270112D02*
X121117438Y-68365350D01*
X121117438Y-68365350D02*
X121212676Y-68460588D01*
X121212676Y-68460588D02*
X121403152Y-68508207D01*
X121403152Y-68508207D02*
X121736485Y-68508207D01*
X121736485Y-68508207D02*
X121926961Y-68460588D01*
X121926961Y-68460588D02*
X122022200Y-68365350D01*
X122022200Y-68365350D02*
X122069819Y-68270112D01*
X122069819Y-68270112D02*
X122069819Y-68079636D01*
X122069819Y-68079636D02*
X122022200Y-67984398D01*
X122022200Y-67984398D02*
X121926961Y-67889160D01*
X121926961Y-67889160D02*
X121736485Y-67841541D01*
X121736485Y-67841541D02*
X121403152Y-67841541D01*
X121403152Y-67841541D02*
X121212676Y-67889160D01*
X121212676Y-67889160D02*
X121117438Y-67984398D01*
X121117438Y-67984398D02*
X121069819Y-68079636D01*
X122069819Y-69508207D02*
X121593628Y-69174874D01*
X122069819Y-68936779D02*
X121069819Y-68936779D01*
X121069819Y-68936779D02*
X121069819Y-69317731D01*
X121069819Y-69317731D02*
X121117438Y-69412969D01*
X121117438Y-69412969D02*
X121165057Y-69460588D01*
X121165057Y-69460588D02*
X121260295Y-69508207D01*
X121260295Y-69508207D02*
X121403152Y-69508207D01*
X121403152Y-69508207D02*
X121498390Y-69460588D01*
X121498390Y-69460588D02*
X121546009Y-69412969D01*
X121546009Y-69412969D02*
X121593628Y-69317731D01*
X121593628Y-69317731D02*
X121593628Y-68936779D01*
X67334233Y-71082378D02*
X67810423Y-71082378D01*
X67810423Y-71082378D02*
X67810423Y-70082378D01*
X66429471Y-70987139D02*
X66477090Y-71034759D01*
X66477090Y-71034759D02*
X66619947Y-71082378D01*
X66619947Y-71082378D02*
X66715185Y-71082378D01*
X66715185Y-71082378D02*
X66858042Y-71034759D01*
X66858042Y-71034759D02*
X66953280Y-70939520D01*
X66953280Y-70939520D02*
X67000899Y-70844282D01*
X67000899Y-70844282D02*
X67048518Y-70653806D01*
X67048518Y-70653806D02*
X67048518Y-70510949D01*
X67048518Y-70510949D02*
X67000899Y-70320473D01*
X67000899Y-70320473D02*
X66953280Y-70225235D01*
X66953280Y-70225235D02*
X66858042Y-70129997D01*
X66858042Y-70129997D02*
X66715185Y-70082378D01*
X66715185Y-70082378D02*
X66619947Y-70082378D01*
X66619947Y-70082378D02*
X66477090Y-70129997D01*
X66477090Y-70129997D02*
X66429471Y-70177616D01*
X66000899Y-71082378D02*
X66000899Y-70082378D01*
X66000899Y-70082378D02*
X65762804Y-70082378D01*
X65762804Y-70082378D02*
X65619947Y-70129997D01*
X65619947Y-70129997D02*
X65524709Y-70225235D01*
X65524709Y-70225235D02*
X65477090Y-70320473D01*
X65477090Y-70320473D02*
X65429471Y-70510949D01*
X65429471Y-70510949D02*
X65429471Y-70653806D01*
X65429471Y-70653806D02*
X65477090Y-70844282D01*
X65477090Y-70844282D02*
X65524709Y-70939520D01*
X65524709Y-70939520D02*
X65619947Y-71034759D01*
X65619947Y-71034759D02*
X65762804Y-71082378D01*
X65762804Y-71082378D02*
X66000899Y-71082378D01*
D13*
X126554318Y-66776667D02*
X127461461Y-66776667D01*
X127461461Y-66776667D02*
X127642889Y-66716190D01*
X127642889Y-66716190D02*
X127763842Y-66595238D01*
X127763842Y-66595238D02*
X127824318Y-66413809D01*
X127824318Y-66413809D02*
X127824318Y-66292857D01*
X126675270Y-67320952D02*
X126614794Y-67381428D01*
X126614794Y-67381428D02*
X126554318Y-67502381D01*
X126554318Y-67502381D02*
X126554318Y-67804762D01*
X126554318Y-67804762D02*
X126614794Y-67925714D01*
X126614794Y-67925714D02*
X126675270Y-67986190D01*
X126675270Y-67986190D02*
X126796222Y-68046667D01*
X126796222Y-68046667D02*
X126917175Y-68046667D01*
X126917175Y-68046667D02*
X127098603Y-67986190D01*
X127098603Y-67986190D02*
X127824318Y-67260476D01*
X127824318Y-67260476D02*
X127824318Y-68046667D01*
X70411666Y-72453365D02*
X70472142Y-72513842D01*
X70472142Y-72513842D02*
X70653571Y-72574318D01*
X70653571Y-72574318D02*
X70774523Y-72574318D01*
X70774523Y-72574318D02*
X70955952Y-72513842D01*
X70955952Y-72513842D02*
X71076904Y-72392889D01*
X71076904Y-72392889D02*
X71137381Y-72271937D01*
X71137381Y-72271937D02*
X71197857Y-72030032D01*
X71197857Y-72030032D02*
X71197857Y-71848603D01*
X71197857Y-71848603D02*
X71137381Y-71606699D01*
X71137381Y-71606699D02*
X71076904Y-71485746D01*
X71076904Y-71485746D02*
X70955952Y-71364794D01*
X70955952Y-71364794D02*
X70774523Y-71304318D01*
X70774523Y-71304318D02*
X70653571Y-71304318D01*
X70653571Y-71304318D02*
X70472142Y-71364794D01*
X70472142Y-71364794D02*
X70411666Y-71425270D01*
X69806904Y-72574318D02*
X69565000Y-72574318D01*
X69565000Y-72574318D02*
X69444047Y-72513842D01*
X69444047Y-72513842D02*
X69383571Y-72453365D01*
X69383571Y-72453365D02*
X69262619Y-72271937D01*
X69262619Y-72271937D02*
X69202142Y-72030032D01*
X69202142Y-72030032D02*
X69202142Y-71546222D01*
X69202142Y-71546222D02*
X69262619Y-71425270D01*
X69262619Y-71425270D02*
X69323095Y-71364794D01*
X69323095Y-71364794D02*
X69444047Y-71304318D01*
X69444047Y-71304318D02*
X69685952Y-71304318D01*
X69685952Y-71304318D02*
X69806904Y-71364794D01*
X69806904Y-71364794D02*
X69867381Y-71425270D01*
X69867381Y-71425270D02*
X69927857Y-71546222D01*
X69927857Y-71546222D02*
X69927857Y-71848603D01*
X69927857Y-71848603D02*
X69867381Y-71969556D01*
X69867381Y-71969556D02*
X69806904Y-72030032D01*
X69806904Y-72030032D02*
X69685952Y-72090508D01*
X69685952Y-72090508D02*
X69444047Y-72090508D01*
X69444047Y-72090508D02*
X69323095Y-72030032D01*
X69323095Y-72030032D02*
X69262619Y-71969556D01*
X69262619Y-71969556D02*
X69202142Y-71848603D01*
D14*
X68534622Y-82105225D02*
X69248907Y-82105225D01*
X69248907Y-82105225D02*
X69391764Y-82057606D01*
X69391764Y-82057606D02*
X69487003Y-81962368D01*
X69487003Y-81962368D02*
X69534622Y-81819511D01*
X69534622Y-81819511D02*
X69534622Y-81724273D01*
X69534622Y-83105225D02*
X69534622Y-82533797D01*
X69534622Y-82819511D02*
X68534622Y-82819511D01*
X68534622Y-82819511D02*
X68677479Y-82724273D01*
X68677479Y-82724273D02*
X68772717Y-82629035D01*
X68772717Y-82629035D02*
X68820336Y-82533797D01*
%TO.C,J2*%
X123900000Y-62950000D02*
X123900000Y-71450000D01*
D15*
X130400000Y-68450000D02*
X130400000Y-68450000D01*
X130600000Y-68450000D02*
X130600000Y-68450000D01*
X130400000Y-68450000D02*
G75*
G02*
X130600000Y-68450000I100000J0D01*
G01*
X130600000Y-68450000D02*
G75*
G02*
X130400000Y-68450000I-100000J0D01*
G01*
%TO.C,J1*%
D14*
X65157203Y-71388559D02*
X68317203Y-71388559D01*
X68317203Y-94298559D01*
X65157203Y-94298559D01*
X65157203Y-71388559D01*
%TD*%
M02*
