%TF.GenerationSoftware,KiCad,Pcbnew,7.0.10*%
%TF.CreationDate,2024-07-31T11:10:04+01:00*%
%TF.ProjectId,algoritmi_foc,616c676f-7269-4746-9d69-5f666f632e6b,Andr_s Motta*%
%TF.SameCoordinates,Original*%
%TF.FileFunction,Legend,Bot*%
%TF.FilePolarity,Positive*%
%FSLAX46Y46*%
G04 Gerber Fmt 4.6, Leading zero omitted, Abs format (unit mm)*
G04 Created by KiCad (PCBNEW 7.0.10) date 2024-07-31 11:10:04*
%MOMM*%
%LPD*%
G01*
G04 APERTURE LIST*
%ADD10C,0.800000*%
%ADD11C,1.000000*%
%ADD12C,0.150000*%
%ADD13C,0.187500*%
%ADD14C,0.100000*%
%ADD15C,0.254000*%
%ADD16C,0.200000*%
G04 APERTURE END LIST*
D10*
X109317203Y-60642559D02*
X118477203Y-65002559D01*
D11*
X86997203Y-64772559D02*
X74917203Y-64792559D01*
X74917203Y-64792559D02*
X68857203Y-69222559D01*
D12*
X121450423Y-66922378D02*
X121450423Y-65922378D01*
X121450423Y-65922378D02*
X121117090Y-66636663D01*
X121117090Y-66636663D02*
X120783757Y-65922378D01*
X120783757Y-65922378D02*
X120783757Y-66922378D01*
X120117090Y-65922378D02*
X119926614Y-65922378D01*
X119926614Y-65922378D02*
X119831376Y-65969997D01*
X119831376Y-65969997D02*
X119736138Y-66065235D01*
X119736138Y-66065235D02*
X119688519Y-66255711D01*
X119688519Y-66255711D02*
X119688519Y-66589044D01*
X119688519Y-66589044D02*
X119736138Y-66779520D01*
X119736138Y-66779520D02*
X119831376Y-66874759D01*
X119831376Y-66874759D02*
X119926614Y-66922378D01*
X119926614Y-66922378D02*
X120117090Y-66922378D01*
X120117090Y-66922378D02*
X120212328Y-66874759D01*
X120212328Y-66874759D02*
X120307566Y-66779520D01*
X120307566Y-66779520D02*
X120355185Y-66589044D01*
X120355185Y-66589044D02*
X120355185Y-66255711D01*
X120355185Y-66255711D02*
X120307566Y-66065235D01*
X120307566Y-66065235D02*
X120212328Y-65969997D01*
X120212328Y-65969997D02*
X120117090Y-65922378D01*
X119402804Y-65922378D02*
X118831376Y-65922378D01*
X119117090Y-66922378D02*
X119117090Y-65922378D01*
X118307566Y-65922378D02*
X118117090Y-65922378D01*
X118117090Y-65922378D02*
X118021852Y-65969997D01*
X118021852Y-65969997D02*
X117926614Y-66065235D01*
X117926614Y-66065235D02*
X117878995Y-66255711D01*
X117878995Y-66255711D02*
X117878995Y-66589044D01*
X117878995Y-66589044D02*
X117926614Y-66779520D01*
X117926614Y-66779520D02*
X118021852Y-66874759D01*
X118021852Y-66874759D02*
X118117090Y-66922378D01*
X118117090Y-66922378D02*
X118307566Y-66922378D01*
X118307566Y-66922378D02*
X118402804Y-66874759D01*
X118402804Y-66874759D02*
X118498042Y-66779520D01*
X118498042Y-66779520D02*
X118545661Y-66589044D01*
X118545661Y-66589044D02*
X118545661Y-66255711D01*
X118545661Y-66255711D02*
X118498042Y-66065235D01*
X118498042Y-66065235D02*
X118402804Y-65969997D01*
X118402804Y-65969997D02*
X118307566Y-65922378D01*
X116878995Y-66922378D02*
X117212328Y-66446187D01*
X117450423Y-66922378D02*
X117450423Y-65922378D01*
X117450423Y-65922378D02*
X117069471Y-65922378D01*
X117069471Y-65922378D02*
X116974233Y-65969997D01*
X116974233Y-65969997D02*
X116926614Y-66017616D01*
X116926614Y-66017616D02*
X116878995Y-66112854D01*
X116878995Y-66112854D02*
X116878995Y-66255711D01*
X116878995Y-66255711D02*
X116926614Y-66350949D01*
X116926614Y-66350949D02*
X116974233Y-66398568D01*
X116974233Y-66398568D02*
X117069471Y-66446187D01*
X117069471Y-66446187D02*
X117450423Y-66446187D01*
X67334233Y-71082378D02*
X67810423Y-71082378D01*
X67810423Y-71082378D02*
X67810423Y-70082378D01*
X66429471Y-70987139D02*
X66477090Y-71034759D01*
X66477090Y-71034759D02*
X66619947Y-71082378D01*
X66619947Y-71082378D02*
X66715185Y-71082378D01*
X66715185Y-71082378D02*
X66858042Y-71034759D01*
X66858042Y-71034759D02*
X66953280Y-70939520D01*
X66953280Y-70939520D02*
X67000899Y-70844282D01*
X67000899Y-70844282D02*
X67048518Y-70653806D01*
X67048518Y-70653806D02*
X67048518Y-70510949D01*
X67048518Y-70510949D02*
X67000899Y-70320473D01*
X67000899Y-70320473D02*
X66953280Y-70225235D01*
X66953280Y-70225235D02*
X66858042Y-70129997D01*
X66858042Y-70129997D02*
X66715185Y-70082378D01*
X66715185Y-70082378D02*
X66619947Y-70082378D01*
X66619947Y-70082378D02*
X66477090Y-70129997D01*
X66477090Y-70129997D02*
X66429471Y-70177616D01*
X66000899Y-71082378D02*
X66000899Y-70082378D01*
X66000899Y-70082378D02*
X65762804Y-70082378D01*
X65762804Y-70082378D02*
X65619947Y-70129997D01*
X65619947Y-70129997D02*
X65524709Y-70225235D01*
X65524709Y-70225235D02*
X65477090Y-70320473D01*
X65477090Y-70320473D02*
X65429471Y-70510949D01*
X65429471Y-70510949D02*
X65429471Y-70653806D01*
X65429471Y-70653806D02*
X65477090Y-70844282D01*
X65477090Y-70844282D02*
X65524709Y-70939520D01*
X65524709Y-70939520D02*
X65619947Y-71034759D01*
X65619947Y-71034759D02*
X65762804Y-71082378D01*
X65762804Y-71082378D02*
X66000899Y-71082378D01*
D13*
X82319562Y-21262666D02*
X82319562Y-20362666D01*
X82319562Y-20362666D02*
X82019562Y-21005523D01*
X82019562Y-21005523D02*
X81719562Y-20362666D01*
X81719562Y-20362666D02*
X81719562Y-21262666D01*
X80819562Y-20405523D02*
X80905277Y-20362666D01*
X80905277Y-20362666D02*
X81033848Y-20362666D01*
X81033848Y-20362666D02*
X81162419Y-20405523D01*
X81162419Y-20405523D02*
X81248134Y-20491237D01*
X81248134Y-20491237D02*
X81290991Y-20576951D01*
X81290991Y-20576951D02*
X81333848Y-20748380D01*
X81333848Y-20748380D02*
X81333848Y-20876951D01*
X81333848Y-20876951D02*
X81290991Y-21048380D01*
X81290991Y-21048380D02*
X81248134Y-21134094D01*
X81248134Y-21134094D02*
X81162419Y-21219809D01*
X81162419Y-21219809D02*
X81033848Y-21262666D01*
X81033848Y-21262666D02*
X80948134Y-21262666D01*
X80948134Y-21262666D02*
X80819562Y-21219809D01*
X80819562Y-21219809D02*
X80776705Y-21176951D01*
X80776705Y-21176951D02*
X80776705Y-20876951D01*
X80776705Y-20876951D02*
X80948134Y-20876951D01*
X79962419Y-21262666D02*
X80390991Y-21262666D01*
X80390991Y-21262666D02*
X80390991Y-20362666D01*
X78699562Y-21272666D02*
X78699562Y-20372666D01*
X78699562Y-20372666D02*
X78399562Y-21015523D01*
X78399562Y-21015523D02*
X78099562Y-20372666D01*
X78099562Y-20372666D02*
X78099562Y-21272666D01*
X77199562Y-20415523D02*
X77285277Y-20372666D01*
X77285277Y-20372666D02*
X77413848Y-20372666D01*
X77413848Y-20372666D02*
X77542419Y-20415523D01*
X77542419Y-20415523D02*
X77628134Y-20501237D01*
X77628134Y-20501237D02*
X77670991Y-20586951D01*
X77670991Y-20586951D02*
X77713848Y-20758380D01*
X77713848Y-20758380D02*
X77713848Y-20886951D01*
X77713848Y-20886951D02*
X77670991Y-21058380D01*
X77670991Y-21058380D02*
X77628134Y-21144094D01*
X77628134Y-21144094D02*
X77542419Y-21229809D01*
X77542419Y-21229809D02*
X77413848Y-21272666D01*
X77413848Y-21272666D02*
X77328134Y-21272666D01*
X77328134Y-21272666D02*
X77199562Y-21229809D01*
X77199562Y-21229809D02*
X77156705Y-21186951D01*
X77156705Y-21186951D02*
X77156705Y-20886951D01*
X77156705Y-20886951D02*
X77328134Y-20886951D01*
X76770991Y-21272666D02*
X76770991Y-20372666D01*
X76770991Y-20801237D02*
X76256705Y-20801237D01*
X76256705Y-21272666D02*
X76256705Y-20372666D01*
D14*
X68534622Y-82105225D02*
X69248907Y-82105225D01*
X69248907Y-82105225D02*
X69391764Y-82057606D01*
X69391764Y-82057606D02*
X69487003Y-81962368D01*
X69487003Y-81962368D02*
X69534622Y-81819511D01*
X69534622Y-81819511D02*
X69534622Y-81724273D01*
X69534622Y-83105225D02*
X69534622Y-82533797D01*
X69534622Y-82819511D02*
X68534622Y-82819511D01*
X68534622Y-82819511D02*
X68677479Y-82724273D01*
X68677479Y-82724273D02*
X68772717Y-82629035D01*
X68772717Y-82629035D02*
X68820336Y-82533797D01*
D15*
X112512613Y-75237490D02*
X113154060Y-75878936D01*
X113154060Y-75878936D02*
X113325112Y-75964463D01*
X113325112Y-75964463D02*
X113496165Y-75964463D01*
X113496165Y-75964463D02*
X113667217Y-75878936D01*
X113667217Y-75878936D02*
X113752743Y-75793410D01*
X112213271Y-75707884D02*
X112127745Y-75707884D01*
X112127745Y-75707884D02*
X111999455Y-75750647D01*
X111999455Y-75750647D02*
X111785640Y-75964463D01*
X111785640Y-75964463D02*
X111742877Y-76092752D01*
X111742877Y-76092752D02*
X111742877Y-76178278D01*
X111742877Y-76178278D02*
X111785640Y-76306568D01*
X111785640Y-76306568D02*
X111871166Y-76392094D01*
X111871166Y-76392094D02*
X112042218Y-76477620D01*
X112042218Y-76477620D02*
X113068533Y-76477620D01*
X113068533Y-76477620D02*
X112512613Y-77033541D01*
X70358869Y-72465924D02*
X70419345Y-72526401D01*
X70419345Y-72526401D02*
X70600774Y-72586877D01*
X70600774Y-72586877D02*
X70721726Y-72586877D01*
X70721726Y-72586877D02*
X70903155Y-72526401D01*
X70903155Y-72526401D02*
X71024107Y-72405448D01*
X71024107Y-72405448D02*
X71084584Y-72284496D01*
X71084584Y-72284496D02*
X71145060Y-72042591D01*
X71145060Y-72042591D02*
X71145060Y-71861162D01*
X71145060Y-71861162D02*
X71084584Y-71619258D01*
X71084584Y-71619258D02*
X71024107Y-71498305D01*
X71024107Y-71498305D02*
X70903155Y-71377353D01*
X70903155Y-71377353D02*
X70721726Y-71316877D01*
X70721726Y-71316877D02*
X70600774Y-71316877D01*
X70600774Y-71316877D02*
X70419345Y-71377353D01*
X70419345Y-71377353D02*
X70358869Y-71437829D01*
X69754107Y-72586877D02*
X69512203Y-72586877D01*
X69512203Y-72586877D02*
X69391250Y-72526401D01*
X69391250Y-72526401D02*
X69330774Y-72465924D01*
X69330774Y-72465924D02*
X69209822Y-72284496D01*
X69209822Y-72284496D02*
X69149345Y-72042591D01*
X69149345Y-72042591D02*
X69149345Y-71558781D01*
X69149345Y-71558781D02*
X69209822Y-71437829D01*
X69209822Y-71437829D02*
X69270298Y-71377353D01*
X69270298Y-71377353D02*
X69391250Y-71316877D01*
X69391250Y-71316877D02*
X69633155Y-71316877D01*
X69633155Y-71316877D02*
X69754107Y-71377353D01*
X69754107Y-71377353D02*
X69814584Y-71437829D01*
X69814584Y-71437829D02*
X69875060Y-71558781D01*
X69875060Y-71558781D02*
X69875060Y-71861162D01*
X69875060Y-71861162D02*
X69814584Y-71982115D01*
X69814584Y-71982115D02*
X69754107Y-72042591D01*
X69754107Y-72042591D02*
X69633155Y-72103067D01*
X69633155Y-72103067D02*
X69391250Y-72103067D01*
X69391250Y-72103067D02*
X69270298Y-72042591D01*
X69270298Y-72042591D02*
X69209822Y-71982115D01*
X69209822Y-71982115D02*
X69149345Y-71861162D01*
D14*
%TO.C,J1*%
X65157203Y-71388559D02*
X68317203Y-71388559D01*
X68317203Y-71388559D02*
X68317203Y-94298559D01*
X68317203Y-94298559D02*
X65157203Y-94298559D01*
X65157203Y-94298559D02*
X65157203Y-71388559D01*
%TO.C,J2*%
X108017075Y-72952839D02*
X114027483Y-66942431D01*
D16*
X114734589Y-75427712D02*
X114734589Y-75427712D01*
X114876011Y-75569134D02*
X114876011Y-75569134D01*
X114876011Y-75569134D02*
G75*
G03*
X114734589Y-75427712I-70711J70711D01*
G01*
X114734589Y-75427712D02*
G75*
G03*
X114876011Y-75569134I70711J-70711D01*
G01*
%TD*%
M02*
