%TF.GenerationSoftware,KiCad,Pcbnew,8.0.4*%
%TF.CreationDate,2024-09-02T15:52:59+01:00*%
%TF.ProjectId,algoritmi_foc,616c676f-7269-4746-9d69-5f666f632e6b,Andr_s Motta*%
%TF.SameCoordinates,Original*%
%TF.FileFunction,Soldermask,Top*%
%TF.FilePolarity,Negative*%
%FSLAX46Y46*%
G04 Gerber Fmt 4.6, Leading zero omitted, Abs format (unit mm)*
G04 Created by KiCad (PCBNEW 8.0.4) date 2024-09-02 15:53:00*
%MOMM*%
%LPD*%
G01*
G04 APERTURE LIST*
G04 Aperture macros list*
%AMRoundRect*
0 Rectangle with rounded corners*
0 $1 Rounding radius*
0 $2 $3 $4 $5 $6 $7 $8 $9 X,Y pos of 4 corners*
0 Add a 4 corners polygon primitive as box body*
4,1,4,$2,$3,$4,$5,$6,$7,$8,$9,$2,$3,0*
0 Add four circle primitives for the rounded corners*
1,1,$1+$1,$2,$3*
1,1,$1+$1,$4,$5*
1,1,$1+$1,$6,$7*
1,1,$1+$1,$8,$9*
0 Add four rect primitives between the rounded corners*
20,1,$1+$1,$2,$3,$4,$5,0*
20,1,$1+$1,$4,$5,$6,$7,0*
20,1,$1+$1,$6,$7,$8,$9,0*
20,1,$1+$1,$8,$9,$2,$3,0*%
%AMHorizOval*
0 Thick line with rounded ends*
0 $1 width*
0 $2 $3 position (X,Y) of the first rounded end (center of the circle)*
0 $4 $5 position (X,Y) of the second rounded end (center of the circle)*
0 Add line between two ends*
20,1,$1,$2,$3,$4,$5,0*
0 Add two circle primitives to create the rounded ends*
1,1,$1,$2,$3*
1,1,$1,$4,$5*%
G04 Aperture macros list end*
%ADD10R,0.940000X0.730000*%
%ADD11R,1.800000X1.050000*%
%ADD12R,1.050000X1.800000*%
%ADD13R,0.650000X0.900000*%
%ADD14R,1.430000X0.940000*%
%ADD15R,0.940000X1.430000*%
%ADD16R,0.730000X0.940000*%
%ADD17R,1.150000X0.550000*%
%ADD18R,0.900000X0.950000*%
%ADD19R,1.900000X0.900000*%
%ADD20R,1.900000X3.200000*%
%ADD21R,0.950000X0.900000*%
%ADD22R,2.770000X1.020000*%
%ADD23C,1.190000*%
%ADD24R,0.970000X1.470000*%
%ADD25HorizOval,2.000000X-1.414214X1.414214X1.414214X-1.414214X0*%
%ADD26RoundRect,0.150000X0.825000X0.150000X-0.825000X0.150000X-0.825000X-0.150000X0.825000X-0.150000X0*%
%ADD27HorizOval,2.000000X1.414214X-1.414214X-1.414214X1.414214X0*%
%ADD28R,0.800000X0.200000*%
%ADD29R,0.200000X0.800000*%
%ADD30R,1.800000X1.800000*%
%ADD31HorizOval,2.000000X-1.414214X-1.414214X1.414214X1.414214X0*%
%ADD32C,3.500000*%
%ADD33HorizOval,2.000000X1.414214X1.414214X-1.414214X-1.414214X0*%
%ADD34C,2.400000*%
G04 APERTURE END LIST*
D10*
%TO.C,C4*%
X121937203Y-80992559D03*
X121937203Y-82412559D03*
%TD*%
D11*
%TO.C,R3*%
X124137203Y-82192559D03*
X124137203Y-79092559D03*
%TD*%
D12*
%TO.C,R4*%
X127547203Y-81812559D03*
X130647203Y-81812559D03*
%TD*%
D10*
%TO.C,C2*%
X129937203Y-83992559D03*
X129937203Y-85412559D03*
%TD*%
%TO.C,C3*%
X127137203Y-90812559D03*
X127137203Y-89392559D03*
%TD*%
D13*
%TO.C,R1*%
X129337203Y-93192559D03*
X130487203Y-93192559D03*
%TD*%
%TO.C,R2*%
X126737203Y-93192559D03*
X125587203Y-93192559D03*
%TD*%
D14*
%TO.C,C7*%
X101357203Y-92102559D03*
X101357203Y-93742559D03*
%TD*%
D15*
%TO.C,C8*%
X133977203Y-75242559D03*
X132337203Y-75242559D03*
%TD*%
D13*
%TO.C,R12*%
X104977203Y-38102559D03*
X103827203Y-38102559D03*
%TD*%
%TO.C,R14*%
X77367203Y-49802559D03*
X78517203Y-49802559D03*
%TD*%
%TO.C,R13*%
X89697203Y-77712559D03*
X90847203Y-77712559D03*
%TD*%
%TO.C,R11*%
X106225000Y-79800000D03*
X107375000Y-79800000D03*
%TD*%
D16*
%TO.C,C1*%
X133867203Y-73122559D03*
X132447203Y-73122559D03*
%TD*%
D17*
%TO.C,D1*%
X130537203Y-90292559D03*
X128937203Y-90292559D03*
%TD*%
%TO.C,D2*%
X130537203Y-87492559D03*
X128937203Y-87492559D03*
%TD*%
D18*
%TO.C,R5*%
X118937203Y-83992559D03*
X120537203Y-83992559D03*
%TD*%
D16*
%TO.C,C10*%
X74310000Y-66200000D03*
X72890000Y-66200000D03*
%TD*%
D19*
%TO.C,IC2*%
X104287203Y-90602559D03*
X104287203Y-92902559D03*
X104287203Y-95202559D03*
D20*
X110387203Y-92902559D03*
%TD*%
D21*
%TO.C,R10*%
X122737203Y-91392559D03*
X122737203Y-89792559D03*
%TD*%
%TO.C,R9*%
X120897203Y-91392559D03*
X120897203Y-89792559D03*
%TD*%
%TO.C,R8*%
X119057203Y-91392559D03*
X119057203Y-89792559D03*
%TD*%
D18*
%TO.C,R7*%
X118937203Y-87672559D03*
X120537203Y-87672559D03*
%TD*%
%TO.C,R6*%
X118937203Y-85832559D03*
X120537203Y-85832559D03*
%TD*%
D22*
%TO.C,J3*%
X63957203Y-51112559D03*
X68507203Y-51112559D03*
X63957203Y-49112559D03*
X68507203Y-49112559D03*
X63957203Y-47112559D03*
X68507203Y-47112559D03*
X63957203Y-45112559D03*
X68507203Y-45112559D03*
X63957203Y-43112559D03*
X68507203Y-43112559D03*
X63957203Y-41112559D03*
X68507203Y-41112559D03*
X63957203Y-39112559D03*
X68507203Y-39112559D03*
X63957203Y-37112559D03*
X68507203Y-37112559D03*
X63957203Y-35112559D03*
X68507203Y-35112559D03*
X63957203Y-33112559D03*
X68507203Y-33112559D03*
X63957203Y-31112559D03*
X68507203Y-31112559D03*
X63957203Y-29112559D03*
X68507203Y-29112559D03*
X63957203Y-27112559D03*
X68507203Y-27112559D03*
X63957203Y-25112559D03*
X68507203Y-25112559D03*
X63957203Y-23112559D03*
X68507203Y-23112559D03*
D23*
X66232203Y-50112559D03*
X66232203Y-24112559D03*
%TD*%
D24*
%TO.C,C5*%
X128987203Y-78902559D03*
X127327203Y-78902559D03*
%TD*%
D25*
%TO.C,MSW1*%
X108826745Y-74809335D03*
X111336974Y-72299106D03*
X113670427Y-69965653D03*
%TD*%
D26*
%TO.C,U2*%
X94632203Y-59492559D03*
X94632203Y-58222559D03*
X94632203Y-56952559D03*
X94632203Y-55682559D03*
X99582203Y-55682559D03*
X99582203Y-56952559D03*
X99582203Y-58222559D03*
X99582203Y-59492559D03*
%TD*%
D27*
%TO.C,MSW4*%
X85049044Y-40360718D03*
X82538815Y-42870947D03*
X80205362Y-45204400D03*
%TD*%
D28*
%TO.C,U1*%
X124187203Y-84642559D03*
X124187203Y-85042559D03*
X124187203Y-85442559D03*
X124187203Y-85842559D03*
X124187203Y-86242559D03*
D29*
X124887203Y-86942559D03*
X125287203Y-86942559D03*
X125687203Y-86942559D03*
X126087203Y-86942559D03*
X126487203Y-86942559D03*
D28*
X127187203Y-86242559D03*
X127187203Y-85842559D03*
X127187203Y-85442559D03*
X127187203Y-85042559D03*
X127187203Y-84642559D03*
D29*
X126487203Y-83942559D03*
X126087203Y-83942559D03*
X125687203Y-83942559D03*
X125287203Y-83942559D03*
X124887203Y-83942559D03*
D30*
X125687203Y-85442559D03*
%TD*%
D31*
%TO.C,MSW2*%
X113847203Y-45292559D03*
X111336974Y-42782330D03*
X109003521Y-40448877D03*
%TD*%
D32*
%TO.C,H5*%
X67308776Y-57694133D03*
%TD*%
D10*
%TO.C,C6*%
X98017203Y-92142559D03*
X98017203Y-93562559D03*
%TD*%
D32*
%TO.C,H7*%
X126908776Y-57694133D03*
%TD*%
%TO.C,H6*%
X97108776Y-27894133D03*
%TD*%
D33*
%TO.C,MSW3*%
X84877203Y-74632559D03*
X82543750Y-72299106D03*
X80033521Y-69788877D03*
%TD*%
D34*
%TO.C,H3*%
X102234203Y-48816633D03*
%TD*%
%TO.C,H1*%
X102234203Y-66571632D03*
%TD*%
D32*
%TO.C,H4*%
X97108776Y-87494133D03*
%TD*%
D34*
%TO.C,H2*%
X86857922Y-57694133D03*
%TD*%
M02*
