M48
; DRILL file {KiCad 8.0.4} date 2024-09-16T16:07:26+0100
; FORMAT={-:-/ absolute / inch / decimal}
; #@! TF.CreationDate,2024-09-16T16:07:26+01:00
; #@! TF.GenerationSoftware,Kicad,Pcbnew,8.0.4
; #@! TF.FileFunction,Plated,1,2,PTH
FMAT,2
INCH
; #@! TA.AperFunction,Plated,PTH,ViaDrill
T1C0.0157
%
G90
G05
T1
X3.3716Y-3.3736
X3.3775Y-3.1217
X3.3775Y-3.224
X3.3775Y-3.3185
X3.3794Y-2.9248
X3.3794Y-3.0272
X3.4503Y-3.3264
X3.6157Y-3.1846
X3.6157Y-3.2791
X3.6314Y-3.3736
X3.7087Y-3.2949
X3.7244Y-3.5039
X3.7638Y-3.4567
X3.7874Y-3.1453
X3.811Y-3.063
X3.907Y-3.0272
X3.9685Y-2.9606
X3.97Y-3.0272
X3.9739Y-3.2791
X4.0881Y-3.2083
X4.0881Y-3.35
X4.1983Y-3.035
X4.219Y-3.3136
X4.2283Y-3.1811
X4.2452Y-3.487
X4.2456Y-3.0346
X4.2464Y-3.5299
X4.2468Y-3.5839
X4.2483Y-2.9803
M30
