%TF.GenerationSoftware,KiCad,Pcbnew,8.0.4*%
%TF.CreationDate,2024-09-23T11:02:56+01:00*%
%TF.ProjectId,algoritmi_foc,616c676f-7269-4746-9d69-5f666f632e6b,Andr_s Motta*%
%TF.SameCoordinates,Original*%
%TF.FileFunction,Profile,NP*%
%FSLAX46Y46*%
G04 Gerber Fmt 4.6, Leading zero omitted, Abs format (unit mm)*
G04 Created by KiCad (PCBNEW 8.0.4) date 2024-09-23 11:02:56*
%MOMM*%
%LPD*%
G01*
G04 APERTURE LIST*
%TA.AperFunction,Profile*%
%ADD10C,0.100000*%
%TD*%
G04 APERTURE END LIST*
D10*
X81400000Y-96200000D02*
X124200000Y-96200000D01*
X122275000Y-70600000D02*
X125400000Y-70600000D01*
X124600000Y-69000000D02*
G75*
G02*
X122200000Y-69000000I-1200000J0D01*
G01*
X122200000Y-69000000D02*
G75*
G02*
X124600000Y-69000000I1200000J0D01*
G01*
X122275000Y-82200000D02*
X122275000Y-70600000D01*
X80200000Y-68200000D02*
G75*
G02*
X81400000Y-67000000I1200000J0D01*
G01*
X83400000Y-69000000D02*
G75*
G02*
X81000000Y-69000000I-1200000J0D01*
G01*
X81000000Y-69000000D02*
G75*
G02*
X83400000Y-69000000I1200000J0D01*
G01*
X125400000Y-95000000D02*
X125400000Y-82200000D01*
X80200000Y-68200000D02*
X80200000Y-95000000D01*
X125400000Y-70600000D02*
X125400000Y-68200000D01*
X81400000Y-96200000D02*
G75*
G02*
X80200000Y-95000000I0J1200000D01*
G01*
X124600000Y-94200000D02*
G75*
G02*
X122200000Y-94200000I-1200000J0D01*
G01*
X122200000Y-94200000D02*
G75*
G02*
X124600000Y-94200000I1200000J0D01*
G01*
X125400000Y-82200000D02*
X122275000Y-82200000D01*
X83400000Y-94200000D02*
G75*
G02*
X81000000Y-94200000I-1200000J0D01*
G01*
X81000000Y-94200000D02*
G75*
G02*
X83400000Y-94200000I1200000J0D01*
G01*
X124200000Y-67000000D02*
X81400000Y-67000000D01*
X125400000Y-95000000D02*
G75*
G02*
X124200000Y-96200000I-1200000J0D01*
G01*
X124200000Y-67000000D02*
G75*
G02*
X125400000Y-68200000I0J-1200000D01*
G01*
M02*
