%TF.GenerationSoftware,KiCad,Pcbnew,8.0.4*%
%TF.CreationDate,2024-09-16T16:07:13+01:00*%
%TF.ProjectId,algoritmi_foc,616c676f-7269-4746-9d69-5f666f632e6b,Andr_s Motta*%
%TF.SameCoordinates,Original*%
%TF.FileFunction,Copper,L1,Top*%
%TF.FilePolarity,Positive*%
%FSLAX46Y46*%
G04 Gerber Fmt 4.6, Leading zero omitted, Abs format (unit mm)*
G04 Created by KiCad (PCBNEW 8.0.4) date 2024-09-16 16:07:13*
%MOMM*%
%LPD*%
G01*
G04 APERTURE LIST*
G04 Aperture macros list*
%AMRoundRect*
0 Rectangle with rounded corners*
0 $1 Rounding radius*
0 $2 $3 $4 $5 $6 $7 $8 $9 X,Y pos of 4 corners*
0 Add a 4 corners polygon primitive as box body*
4,1,4,$2,$3,$4,$5,$6,$7,$8,$9,$2,$3,0*
0 Add four circle primitives for the rounded corners*
1,1,$1+$1,$2,$3*
1,1,$1+$1,$4,$5*
1,1,$1+$1,$6,$7*
1,1,$1+$1,$8,$9*
0 Add four rect primitives between the rounded corners*
20,1,$1+$1,$2,$3,$4,$5,0*
20,1,$1+$1,$4,$5,$6,$7,0*
20,1,$1+$1,$6,$7,$8,$9,0*
20,1,$1+$1,$8,$9,$2,$3,0*%
G04 Aperture macros list end*
%TA.AperFunction,SMDPad,CuDef*%
%ADD10RoundRect,0.218750X0.256250X-0.218750X0.256250X0.218750X-0.256250X0.218750X-0.256250X-0.218750X0*%
%TD*%
%TA.AperFunction,SMDPad,CuDef*%
%ADD11RoundRect,0.100000X0.100000X-0.130000X0.100000X0.130000X-0.100000X0.130000X-0.100000X-0.130000X0*%
%TD*%
%TA.AperFunction,SMDPad,CuDef*%
%ADD12RoundRect,0.100000X-0.100000X0.130000X-0.100000X-0.130000X0.100000X-0.130000X0.100000X0.130000X0*%
%TD*%
%TA.AperFunction,SMDPad,CuDef*%
%ADD13RoundRect,0.250000X0.475000X-0.250000X0.475000X0.250000X-0.475000X0.250000X-0.475000X-0.250000X0*%
%TD*%
%TA.AperFunction,SMDPad,CuDef*%
%ADD14R,1.905000X1.020000*%
%TD*%
%TA.AperFunction,SMDPad,CuDef*%
%ADD15RoundRect,0.100000X-0.130000X-0.100000X0.130000X-0.100000X0.130000X0.100000X-0.130000X0.100000X0*%
%TD*%
%TA.AperFunction,SMDPad,CuDef*%
%ADD16RoundRect,0.250000X0.625000X-0.312500X0.625000X0.312500X-0.625000X0.312500X-0.625000X-0.312500X0*%
%TD*%
%TA.AperFunction,SMDPad,CuDef*%
%ADD17RoundRect,0.250000X-0.625000X0.312500X-0.625000X-0.312500X0.625000X-0.312500X0.625000X0.312500X0*%
%TD*%
%TA.AperFunction,SMDPad,CuDef*%
%ADD18R,2.220000X1.020000*%
%TD*%
%TA.AperFunction,SMDPad,CuDef*%
%ADD19R,1.600000X0.800000*%
%TD*%
%TA.AperFunction,SMDPad,CuDef*%
%ADD20R,3.000000X2.100000*%
%TD*%
%TA.AperFunction,SMDPad,CuDef*%
%ADD21R,0.200000X0.800000*%
%TD*%
%TA.AperFunction,SMDPad,CuDef*%
%ADD22R,0.800000X0.200000*%
%TD*%
%TA.AperFunction,SMDPad,CuDef*%
%ADD23R,1.800000X1.800000*%
%TD*%
%TA.AperFunction,ViaPad*%
%ADD24C,0.800000*%
%TD*%
%TA.AperFunction,Conductor*%
%ADD25C,0.200000*%
%TD*%
%TA.AperFunction,Conductor*%
%ADD26C,0.400000*%
%TD*%
%TA.AperFunction,Conductor*%
%ADD27C,0.500000*%
%TD*%
%TA.AperFunction,Conductor*%
%ADD28C,0.250000*%
%TD*%
G04 APERTURE END LIST*
D10*
%TO.P,ERROR,1,K*%
%TO.N,Net-(D2-K)*%
X100238000Y-89677500D03*
%TO.P,ERROR,2,A*%
%TO.N,Net-(D2-A)*%
X100238000Y-88102500D03*
%TD*%
D11*
%TO.P,C1,1*%
%TO.N,GND*%
X98118000Y-75310000D03*
%TO.P,C1,2*%
%TO.N,+5V*%
X98118000Y-74630000D03*
%TD*%
D12*
%TO.P,R6,1*%
%TO.N,GND*%
X100038000Y-79145000D03*
%TO.P,R6,2*%
%TO.N,VH*%
X100038000Y-79825000D03*
%TD*%
D13*
%TO.P,C5,1*%
%TO.N,GND*%
X96638000Y-75700000D03*
%TO.P,C5,2*%
%TO.N,+5V*%
X96638000Y-73800000D03*
%TD*%
D14*
%TO.P,J3,A1,A1*%
%TO.N,+3.3V*%
X111226000Y-71220000D03*
%TO.P,J3,A2,A2*%
%TO.N,GND*%
X111226000Y-73760000D03*
%TO.P,J3,A3,A3*%
%TO.N,E_CSN*%
X111226000Y-76300000D03*
%TO.P,J3,A4,A4*%
%TO.N,E_CLK*%
X111226000Y-78840000D03*
%TO.P,J3,A5,A5*%
%TO.N,E_DO*%
X111226000Y-81380000D03*
%TO.P,J3,B1,B1*%
%TO.N,unconnected-(J3-PadB1)*%
X121050000Y-71220000D03*
%TO.P,J3,B2,B2*%
%TO.N,unconnected-(J3-PadB2)*%
X121050000Y-73760000D03*
%TO.P,J3,B3,B3*%
%TO.N,unconnected-(J3-PadB3)*%
X121050000Y-76300000D03*
%TO.P,J3,B4,B4*%
%TO.N,unconnected-(J3-PadB4)*%
X121050000Y-78840000D03*
%TO.P,J3,B5,B5*%
%TO.N,unconnected-(J3-PadB5)*%
X121050000Y-81380000D03*
%TD*%
D12*
%TO.P,R7,1*%
%TO.N,GND*%
X98438000Y-79140000D03*
%TO.P,R7,2*%
%TO.N,WH*%
X98438000Y-79820000D03*
%TD*%
D11*
%TO.P,C2,1*%
%TO.N,GND*%
X102638000Y-89630000D03*
%TO.P,C2,2*%
%TO.N,Net-(U1-1.8VOUT)*%
X102638000Y-88950000D03*
%TD*%
D15*
%TO.P,R10,1*%
%TO.N,GND*%
X96758000Y-85000000D03*
%TO.P,R10,2*%
%TO.N,VL*%
X97438000Y-85000000D03*
%TD*%
D10*
%TO.P,STDBY,1,K*%
%TO.N,Net-(D1-K)*%
X98438000Y-89677500D03*
%TO.P,STDBY,2,A*%
%TO.N,Net-(D1-A)*%
X98438000Y-88102500D03*
%TD*%
D12*
%TO.P,R1,1*%
%TO.N,GND*%
X97038000Y-88950000D03*
%TO.P,R1,2*%
%TO.N,Net-(D1-K)*%
X97038000Y-89630000D03*
%TD*%
%TO.P,C3,1*%
%TO.N,GND*%
X98428000Y-86300000D03*
%TO.P,C3,2*%
%TO.N,Net-(D1-A)*%
X98428000Y-86980000D03*
%TD*%
D15*
%TO.P,R9,1*%
%TO.N,GND*%
X96758000Y-82890000D03*
%TO.P,R9,2*%
%TO.N,WL*%
X97438000Y-82890000D03*
%TD*%
D16*
%TO.P,R3,1*%
%TO.N,BRW*%
X105438000Y-82352500D03*
%TO.P,R3,2*%
%TO.N,GND*%
X105438000Y-79427500D03*
%TD*%
D13*
%TO.P,C6,1*%
%TO.N,GND*%
X94238000Y-75690000D03*
%TO.P,C6,2*%
%TO.N,+5V*%
X94238000Y-73790000D03*
%TD*%
D12*
%TO.P,R2,1*%
%TO.N,GND*%
X101638000Y-88950000D03*
%TO.P,R2,2*%
%TO.N,Net-(D2-K)*%
X101638000Y-89630000D03*
%TD*%
D17*
%TO.P,R4,1*%
%TO.N,BRUV*%
X105438000Y-84627500D03*
%TO.P,R4,2*%
%TO.N,GND*%
X105438000Y-87552500D03*
%TD*%
D12*
%TO.P,C4,1*%
%TO.N,+5V*%
X103600000Y-79150000D03*
%TO.P,C4,2*%
%TO.N,VCP*%
X103600000Y-79830000D03*
%TD*%
D18*
%TO.P,J1,1,1*%
%TO.N,+3.3V*%
X83813000Y-89510000D03*
%TO.P,J1,2,2*%
%TO.N,GND*%
X89463000Y-89510000D03*
%TO.P,J1,3,3*%
%TO.N,WL*%
X83813000Y-86970000D03*
%TO.P,J1,4,4*%
%TO.N,E_DO*%
X89463000Y-86970000D03*
%TO.P,J1,5,5*%
%TO.N,VL*%
X83813000Y-84430000D03*
%TO.P,J1,6,6*%
%TO.N,E_CLK*%
X89463000Y-84430000D03*
%TO.P,J1,7,7*%
%TO.N,UL*%
X83813000Y-81890000D03*
%TO.P,J1,8,8*%
%TO.N,E_CSN*%
X89463000Y-81890000D03*
%TO.P,J1,9,9*%
%TO.N,WH*%
X83813000Y-79350000D03*
%TO.P,J1,10,10*%
%TO.N,GND*%
X89463000Y-79350000D03*
%TO.P,J1,11,11*%
%TO.N,VH*%
X83813000Y-76810000D03*
%TO.P,J1,12,12*%
%TO.N,+3.3V*%
X89463000Y-76810000D03*
%TO.P,J1,13,13*%
%TO.N,UH*%
X83813000Y-74270000D03*
%TO.P,J1,14,14*%
%TO.N,+5V*%
X89463000Y-74270000D03*
%TD*%
D19*
%TO.P,J2,1,1*%
%TO.N,W_OUT*%
X114198000Y-91040000D03*
%TO.P,J2,2,2*%
%TO.N,V_OUT*%
X114198000Y-89790000D03*
%TO.P,J2,3,3*%
%TO.N,U_OUT*%
X114198000Y-88540000D03*
D20*
%TO.P,J2,MP1,MP1*%
%TO.N,unconnected-(J2-PadMP1)*%
X117098000Y-93590000D03*
%TO.P,J2,MP2,MP2*%
%TO.N,unconnected-(J2-PadMP2)*%
X117098000Y-85990000D03*
%TD*%
D15*
%TO.P,R8,1*%
%TO.N,GND*%
X96758000Y-81090000D03*
%TO.P,R8,2*%
%TO.N,UL*%
X97438000Y-81090000D03*
%TD*%
D12*
%TO.P,R5,1*%
%TO.N,GND*%
X102000000Y-79150000D03*
%TO.P,R5,2*%
%TO.N,UH*%
X102000000Y-79830000D03*
%TD*%
D13*
%TO.P,C7,1*%
%TO.N,GND*%
X94238000Y-79440000D03*
%TO.P,C7,2*%
%TO.N,+3.3V*%
X94238000Y-77540000D03*
%TD*%
D21*
%TO.P,U1,1,W*%
%TO.N,W_OUT*%
X101738000Y-81790000D03*
%TO.P,U1,2,VCP*%
%TO.N,VCP*%
X101338000Y-81790000D03*
%TO.P,U1,3,UH*%
%TO.N,UH*%
X100938000Y-81790000D03*
%TO.P,U1,4,VH*%
%TO.N,VH*%
X100538000Y-81790000D03*
%TO.P,U1,5,WH*%
%TO.N,WH*%
X100138000Y-81790000D03*
D22*
%TO.P,U1,6,UL*%
%TO.N,UL*%
X99438000Y-82490000D03*
%TO.P,U1,7,WL*%
%TO.N,WL*%
X99438000Y-82890000D03*
%TO.P,U1,8,GND*%
%TO.N,GND*%
X99438000Y-83290000D03*
%TO.P,U1,9,GND*%
X99438000Y-83690000D03*
%TO.P,U1,10,VL*%
%TO.N,VL*%
X99438000Y-84090000D03*
D21*
%TO.P,U1,11,VIO/NSTDBY*%
%TO.N,Net-(D1-A)*%
X100138000Y-84790000D03*
%TO.P,U1,12,DIAG*%
%TO.N,Net-(D2-A)*%
X100538000Y-84790000D03*
%TO.P,U1,13,1.8VOUT*%
%TO.N,Net-(U1-1.8VOUT)*%
X100938000Y-84790000D03*
%TO.P,U1,14,GND*%
%TO.N,GND*%
X101338000Y-84790000D03*
%TO.P,U1,15,U*%
%TO.N,U_OUT*%
X101738000Y-84790000D03*
D22*
%TO.P,U1,16,BRUV*%
%TO.N,BRUV*%
X102438000Y-84090000D03*
%TO.P,U1,17,V*%
%TO.N,V_OUT*%
X102438000Y-83690000D03*
%TO.P,U1,18,VS*%
%TO.N,+5V*%
X102438000Y-83290000D03*
%TO.P,U1,19,NC*%
%TO.N,unconnected-(U1-NC-Pad19)*%
X102438000Y-82890000D03*
%TO.P,U1,20,BRW*%
%TO.N,BRW*%
X102438000Y-82490000D03*
D23*
%TO.P,U1,21,GND*%
%TO.N,GND*%
X100938000Y-83290000D03*
%TD*%
D24*
%TO.N,GND*%
X107400000Y-80800000D03*
X100800000Y-75200000D03*
X94600000Y-89000000D03*
X87638000Y-84490000D03*
X100938000Y-83290000D03*
%TO.N,+3.3V*%
X106638000Y-77090000D03*
X95600000Y-87800000D03*
%TO.N,U_OUT*%
X103838000Y-85090000D03*
X107828000Y-88570000D03*
%TO.N,V_OUT*%
X107858000Y-89660000D03*
X107163000Y-84165000D03*
%TO.N,W_OUT*%
X107868000Y-91030000D03*
X103838000Y-81490000D03*
%TO.N,VL*%
X92238000Y-85690000D03*
X85788000Y-84290000D03*
%TO.N,UL*%
X96200000Y-79890000D03*
X85788000Y-81890000D03*
%TO.N,WL*%
X94200000Y-83690000D03*
X85638000Y-85690000D03*
%TO.N,VH*%
X99238000Y-76890000D03*
X85838000Y-76890000D03*
%TO.N,E_CLK*%
X91838000Y-83290000D03*
X107838000Y-77080000D03*
%TO.N,E_CSN*%
X91838000Y-80890000D03*
X107908000Y-75700000D03*
%TO.N,WH*%
X85788000Y-79290000D03*
X96800000Y-77800000D03*
%TO.N,UH*%
X85838000Y-74290000D03*
X100838000Y-76890000D03*
%TD*%
D25*
%TO.N,GND*%
X100538000Y-83690000D02*
X100938000Y-83290000D01*
X101338000Y-84790000D02*
X101338000Y-83690000D01*
X99438000Y-83290000D02*
X100938000Y-83290000D01*
X101338000Y-83690000D02*
X100938000Y-83290000D01*
X99438000Y-83690000D02*
X100538000Y-83690000D01*
%TO.N,Net-(U1-1.8VOUT)*%
X102638000Y-88490000D02*
X102638000Y-88950000D01*
X100938000Y-84790000D02*
X100938000Y-86790000D01*
X100938000Y-86790000D02*
X102638000Y-88490000D01*
%TO.N,Net-(D1-A)*%
X99463000Y-85465000D02*
X100138000Y-84790000D01*
X99463000Y-87737000D02*
X99463000Y-85465000D01*
X99097500Y-88102500D02*
X99463000Y-87737000D01*
X98438000Y-88102500D02*
X99097500Y-88102500D01*
D26*
X98428000Y-86980000D02*
X98428000Y-88092500D01*
X98428000Y-88092500D02*
X98438000Y-88102500D01*
D25*
%TO.N,VCP*%
X101338000Y-81190000D02*
X102168000Y-80360000D01*
X101338000Y-81790000D02*
X101338000Y-81190000D01*
X103070000Y-80360000D02*
X103600000Y-79830000D01*
X102168000Y-80360000D02*
X103070000Y-80360000D01*
D26*
%TO.N,+3.3V*%
X92113000Y-87200000D02*
X90973000Y-86060000D01*
X106638000Y-73570000D02*
X108988000Y-71220000D01*
D27*
X92088000Y-77540000D02*
X94238000Y-77540000D01*
D26*
X95000000Y-87200000D02*
X92113000Y-87200000D01*
D27*
X91358000Y-76810000D02*
X92088000Y-77540000D01*
X89463000Y-76810000D02*
X91358000Y-76810000D01*
D26*
X87263000Y-86060000D02*
X83813000Y-89510000D01*
X95600000Y-87800000D02*
X95000000Y-87200000D01*
D27*
X89463000Y-76810000D02*
X88118000Y-76810000D01*
X86638000Y-78290000D02*
X86638000Y-86685000D01*
D26*
X106638000Y-77090000D02*
X106638000Y-73570000D01*
D27*
X88118000Y-76810000D02*
X86638000Y-78290000D01*
D26*
X90973000Y-86060000D02*
X87263000Y-86060000D01*
X108988000Y-71220000D02*
X111226000Y-71220000D01*
D27*
X86638000Y-86685000D02*
X83813000Y-89510000D01*
D28*
%TO.N,Net-(D1-K)*%
X98390500Y-89630000D02*
X98438000Y-89677500D01*
X97038000Y-89630000D02*
X98390500Y-89630000D01*
D25*
%TO.N,Net-(D2-A)*%
X100538000Y-84790000D02*
X100538000Y-86624314D01*
X100238000Y-86924314D02*
X100238000Y-88102500D01*
X100538000Y-86624314D02*
X100238000Y-86924314D01*
D28*
%TO.N,Net-(D2-K)*%
X100285500Y-89630000D02*
X100238000Y-89677500D01*
X101638000Y-89630000D02*
X100285500Y-89630000D01*
D25*
%TO.N,U_OUT*%
X103238000Y-85890000D02*
X102238000Y-85890000D01*
X103838000Y-85090000D02*
X103838000Y-85290000D01*
D26*
X107858000Y-88540000D02*
X114198000Y-88540000D01*
D25*
X102238000Y-85890000D02*
X101738000Y-85390000D01*
X101738000Y-85390000D02*
X101738000Y-84790000D01*
D26*
X107828000Y-88570000D02*
X107858000Y-88540000D01*
D25*
X103838000Y-85290000D02*
X103238000Y-85890000D01*
D26*
%TO.N,V_OUT*%
X107858000Y-89660000D02*
X107988000Y-89790000D01*
X107988000Y-89790000D02*
X114198000Y-89790000D01*
D25*
X107163000Y-84165000D02*
X106688000Y-83690000D01*
X106688000Y-83690000D02*
X102438000Y-83690000D01*
%TO.N,W_OUT*%
X103838000Y-81490000D02*
X103238000Y-80890000D01*
X101738000Y-81355686D02*
X101738000Y-81790000D01*
D26*
X107868000Y-91030000D02*
X107878000Y-91040000D01*
D25*
X102203686Y-80890000D02*
X101738000Y-81355686D01*
D26*
X107878000Y-91040000D02*
X114198000Y-91040000D01*
D25*
X103238000Y-80890000D02*
X102203686Y-80890000D01*
D28*
%TO.N,VL*%
X92948000Y-86400000D02*
X92238000Y-85690000D01*
X96400000Y-86400000D02*
X92948000Y-86400000D01*
X97438000Y-85362000D02*
X96400000Y-86400000D01*
X85648000Y-84430000D02*
X85788000Y-84290000D01*
X97438000Y-85000000D02*
X97438000Y-85362000D01*
D25*
X97600000Y-85000000D02*
X98510000Y-84090000D01*
X97438000Y-85000000D02*
X97600000Y-85000000D01*
X98510000Y-84090000D02*
X99438000Y-84090000D01*
D28*
X83813000Y-84430000D02*
X85648000Y-84430000D01*
D25*
%TO.N,UL*%
X97438000Y-81090000D02*
X97438000Y-81290000D01*
D28*
X97438000Y-80936188D02*
X97438000Y-81090000D01*
X96391812Y-79890000D02*
X97438000Y-80936188D01*
D25*
X98638000Y-82490000D02*
X99438000Y-82490000D01*
D28*
X83813000Y-81890000D02*
X85788000Y-81890000D01*
D25*
X97438000Y-81290000D02*
X98638000Y-82490000D01*
D28*
X96200000Y-79890000D02*
X96391812Y-79890000D01*
D25*
%TO.N,WL*%
X97438000Y-82890000D02*
X99438000Y-82890000D01*
D28*
X94200000Y-83690000D02*
X94490000Y-83400000D01*
X97438000Y-83089999D02*
X97438000Y-82890000D01*
X83813000Y-86970000D02*
X84358000Y-86970000D01*
X97112999Y-83415000D02*
X97438000Y-83089999D01*
X96434188Y-83400000D02*
X96449188Y-83415000D01*
X94490000Y-83400000D02*
X96434188Y-83400000D01*
X84358000Y-86970000D02*
X85638000Y-85690000D01*
X96449188Y-83415000D02*
X97112999Y-83415000D01*
%TO.N,VH*%
X85758000Y-76810000D02*
X85838000Y-76890000D01*
X99238000Y-76890000D02*
X99238000Y-79224999D01*
D25*
X100038000Y-79825000D02*
X100538000Y-80325000D01*
X100538000Y-80325000D02*
X100538000Y-81790000D01*
D28*
X83813000Y-76810000D02*
X85758000Y-76810000D01*
X99838001Y-79825000D02*
X100038000Y-79825000D01*
X99238000Y-79224999D02*
X99838001Y-79825000D01*
D26*
%TO.N,E_CLK*%
X107838000Y-77080000D02*
X109598000Y-78840000D01*
X109598000Y-78840000D02*
X111226000Y-78840000D01*
X90698000Y-84430000D02*
X91838000Y-83290000D01*
X89463000Y-84430000D02*
X90698000Y-84430000D01*
%TO.N,E_DO*%
X107998000Y-86856166D02*
X107998000Y-82410000D01*
X89463000Y-86970000D02*
X90858000Y-86970000D01*
X103654166Y-91200000D02*
X107998000Y-86856166D01*
X107998000Y-82410000D02*
X109028000Y-81380000D01*
X90858000Y-86970000D02*
X95088000Y-91200000D01*
X95088000Y-91200000D02*
X103654166Y-91200000D01*
X109028000Y-81380000D02*
X111226000Y-81380000D01*
%TO.N,E_CSN*%
X89463000Y-81890000D02*
X90838000Y-81890000D01*
X109700000Y-76300000D02*
X111226000Y-76300000D01*
X107908000Y-75700000D02*
X109100000Y-75700000D01*
X90838000Y-81890000D02*
X91838000Y-80890000D01*
X109100000Y-75700000D02*
X109700000Y-76300000D01*
D28*
%TO.N,WH*%
X85728000Y-79350000D02*
X85788000Y-79290000D01*
X96800000Y-79400000D02*
X97220000Y-79820000D01*
D25*
X100138000Y-80990000D02*
X100138000Y-81790000D01*
D28*
X97220000Y-79820000D02*
X98438000Y-79820000D01*
D25*
X98968000Y-79820000D02*
X100138000Y-80990000D01*
X98438000Y-79820000D02*
X98968000Y-79820000D01*
D28*
X83813000Y-79350000D02*
X85728000Y-79350000D01*
X96800000Y-77800000D02*
X96800000Y-79400000D01*
%TO.N,UH*%
X83813000Y-74270000D02*
X85818000Y-74270000D01*
X101400000Y-77452000D02*
X100838000Y-76890000D01*
X101830000Y-79830000D02*
X101400000Y-79400000D01*
X85818000Y-74270000D02*
X85838000Y-74290000D01*
D25*
X102000000Y-79830000D02*
X100938000Y-80892000D01*
X100938000Y-80892000D02*
X100938000Y-81790000D01*
D28*
X102000000Y-79830000D02*
X101830000Y-79830000D01*
X101400000Y-79400000D02*
X101400000Y-77452000D01*
D25*
%TO.N,BRW*%
X105300500Y-82490000D02*
X105438000Y-82352500D01*
X102438000Y-82490000D02*
X105300500Y-82490000D01*
%TO.N,BRUV*%
X103548050Y-84390000D02*
X104127950Y-84390000D01*
X105210500Y-84400000D02*
X105438000Y-84627500D01*
X104127950Y-84390000D02*
X104137950Y-84400000D01*
X103538050Y-84400000D02*
X103548050Y-84390000D01*
X102438000Y-84090000D02*
X102748000Y-84400000D01*
X102748000Y-84400000D02*
X103538050Y-84400000D01*
X104137950Y-84400000D02*
X105210500Y-84400000D01*
D27*
%TO.N,+5V*%
X94238000Y-73790000D02*
X96628000Y-73790000D01*
D26*
X96638000Y-73800000D02*
X98879371Y-73800000D01*
D27*
X96628000Y-73790000D02*
X96638000Y-73800000D01*
D25*
X108400000Y-80400000D02*
X108400000Y-81112744D01*
D26*
X103238000Y-75860000D02*
X103238000Y-78788000D01*
X98118000Y-74650000D02*
X97488000Y-74650000D01*
D27*
X89463000Y-74270000D02*
X93758000Y-74270000D01*
D26*
X97488000Y-74650000D02*
X96638000Y-73800000D01*
X98879371Y-73800000D02*
X101178000Y-73800000D01*
X103238000Y-78788000D02*
X103600000Y-79150000D01*
X101178000Y-73800000D02*
X103238000Y-75860000D01*
X101674166Y-73800000D02*
X98879371Y-73800000D01*
D25*
X108400000Y-81112744D02*
X106222744Y-83290000D01*
X106222744Y-83290000D02*
X102438000Y-83290000D01*
D27*
X93758000Y-74270000D02*
X94238000Y-73790000D01*
D28*
X108400000Y-80400000D02*
X107163834Y-79163834D01*
X107163834Y-79163834D02*
X107038000Y-79163834D01*
D26*
X107038000Y-79163834D02*
X101674166Y-73800000D01*
%TD*%
%TA.AperFunction,Conductor*%
%TO.N,GND*%
G36*
X99568483Y-84410185D02*
G01*
X99600710Y-84440189D01*
X99680809Y-84547186D01*
X99723537Y-84579173D01*
X99765408Y-84635107D01*
X99770392Y-84704799D01*
X99736907Y-84766121D01*
X99278489Y-85224540D01*
X99222541Y-85280487D01*
X99222535Y-85280495D01*
X99182982Y-85349004D01*
X99182979Y-85349009D01*
X99162500Y-85425439D01*
X99162500Y-85649288D01*
X99142815Y-85716327D01*
X99090011Y-85762082D01*
X99020853Y-85772026D01*
X98963340Y-85745760D01*
X98962372Y-85747023D01*
X98830586Y-85645899D01*
X98684631Y-85585444D01*
X98628000Y-85577987D01*
X98628000Y-86376000D01*
X98608315Y-86443039D01*
X98555511Y-86488794D01*
X98504000Y-86500000D01*
X97732041Y-86500000D01*
X97732039Y-86500001D01*
X97743442Y-86586627D01*
X97743444Y-86586633D01*
X97803899Y-86732585D01*
X97900077Y-86857926D01*
X97978987Y-86918477D01*
X98020189Y-86974905D01*
X98027500Y-87016852D01*
X98027500Y-87415821D01*
X98007815Y-87482860D01*
X97959797Y-87526305D01*
X97932246Y-87540343D01*
X97838346Y-87634243D01*
X97838343Y-87634248D01*
X97838342Y-87634249D01*
X97820703Y-87668867D01*
X97778047Y-87752582D01*
X97762500Y-87850748D01*
X97762500Y-88291465D01*
X97742815Y-88358504D01*
X97690011Y-88404259D01*
X97620853Y-88414203D01*
X97563014Y-88389841D01*
X97440589Y-88295901D01*
X97440587Y-88295900D01*
X97294631Y-88235444D01*
X97238000Y-88227987D01*
X97238000Y-88750000D01*
X97733959Y-88750000D01*
X97745319Y-88737045D01*
X97749001Y-88713441D01*
X97795381Y-88661185D01*
X97862650Y-88642300D01*
X97923225Y-88660872D01*
X97923554Y-88660227D01*
X97927231Y-88662100D01*
X97929450Y-88662781D01*
X97931909Y-88664484D01*
X97932247Y-88664656D01*
X97932249Y-88664658D01*
X98050580Y-88724951D01*
X98050581Y-88724951D01*
X98050583Y-88724952D01*
X98050582Y-88724952D01*
X98148749Y-88740500D01*
X98148754Y-88740500D01*
X98727251Y-88740500D01*
X98825417Y-88724952D01*
X98825418Y-88724951D01*
X98825420Y-88724951D01*
X98943751Y-88664658D01*
X99037658Y-88570751D01*
X99095866Y-88456511D01*
X99143838Y-88405717D01*
X99174251Y-88393034D01*
X99213489Y-88382521D01*
X99282011Y-88342960D01*
X99337960Y-88287011D01*
X99351016Y-88273954D01*
X99412334Y-88240470D01*
X99482026Y-88245452D01*
X99537961Y-88287321D01*
X99561405Y-88349486D01*
X99561737Y-88349434D01*
X99561991Y-88351040D01*
X99562314Y-88351896D01*
X99562499Y-88354245D01*
X99578047Y-88452417D01*
X99578049Y-88452420D01*
X99638342Y-88570751D01*
X99638344Y-88570753D01*
X99638346Y-88570756D01*
X99732243Y-88664653D01*
X99732245Y-88664654D01*
X99732249Y-88664658D01*
X99850580Y-88724951D01*
X99850581Y-88724951D01*
X99850583Y-88724952D01*
X99850582Y-88724952D01*
X99948749Y-88740500D01*
X99948754Y-88740500D01*
X100527251Y-88740500D01*
X100625417Y-88724952D01*
X100625418Y-88724951D01*
X100625420Y-88724951D01*
X100743751Y-88664658D01*
X100743752Y-88664656D01*
X100752446Y-88660227D01*
X100753308Y-88661919D01*
X100807728Y-88642495D01*
X100875784Y-88658312D01*
X100924485Y-88708411D01*
X100930174Y-88736471D01*
X100942039Y-88750000D01*
X101438000Y-88750000D01*
X101438000Y-88227987D01*
X101381368Y-88235444D01*
X101235412Y-88295900D01*
X101235410Y-88295901D01*
X101112986Y-88389841D01*
X101047817Y-88415035D01*
X100979372Y-88400997D01*
X100929383Y-88352183D01*
X100913500Y-88291465D01*
X100913500Y-87850748D01*
X100897952Y-87752582D01*
X100883893Y-87724990D01*
X100837658Y-87634249D01*
X100837654Y-87634245D01*
X100837653Y-87634243D01*
X100743756Y-87540346D01*
X100743753Y-87540344D01*
X100743751Y-87540342D01*
X100625420Y-87480049D01*
X100625419Y-87480048D01*
X100625414Y-87480046D01*
X100624173Y-87479643D01*
X100622859Y-87478744D01*
X100616725Y-87475619D01*
X100617129Y-87474825D01*
X100566501Y-87440202D01*
X100539307Y-87375841D01*
X100538500Y-87361715D01*
X100538500Y-87114833D01*
X100558185Y-87047794D01*
X100610989Y-87002039D01*
X100680147Y-86992095D01*
X100743703Y-87021120D01*
X100750181Y-87027152D01*
X101804595Y-88081566D01*
X101838080Y-88142889D01*
X101836012Y-88171804D01*
X101838000Y-88171804D01*
X101838000Y-89026000D01*
X101818315Y-89093039D01*
X101765511Y-89138794D01*
X101714000Y-89150000D01*
X100933393Y-89150000D01*
X100893876Y-89175063D01*
X100824008Y-89174647D01*
X100771971Y-89143561D01*
X100743756Y-89115346D01*
X100743753Y-89115344D01*
X100743751Y-89115342D01*
X100625420Y-89055049D01*
X100625419Y-89055048D01*
X100625416Y-89055047D01*
X100625417Y-89055047D01*
X100527251Y-89039500D01*
X100527246Y-89039500D01*
X99948754Y-89039500D01*
X99948749Y-89039500D01*
X99850582Y-89055047D01*
X99776021Y-89093039D01*
X99732249Y-89115342D01*
X99732248Y-89115343D01*
X99732243Y-89115346D01*
X99638346Y-89209243D01*
X99638343Y-89209248D01*
X99638342Y-89209249D01*
X99625750Y-89233963D01*
X99578047Y-89327582D01*
X99562500Y-89425748D01*
X99562500Y-89929251D01*
X99578047Y-90027417D01*
X99590090Y-90051052D01*
X99638342Y-90145751D01*
X99638344Y-90145753D01*
X99638346Y-90145756D01*
X99732243Y-90239653D01*
X99732245Y-90239654D01*
X99732249Y-90239658D01*
X99850580Y-90299951D01*
X99850581Y-90299951D01*
X99850583Y-90299952D01*
X99850582Y-90299952D01*
X99948749Y-90315500D01*
X99948754Y-90315500D01*
X100527251Y-90315500D01*
X100625417Y-90299952D01*
X100625418Y-90299951D01*
X100625420Y-90299951D01*
X100743751Y-90239658D01*
X100837658Y-90145751D01*
X100897951Y-90027420D01*
X100897951Y-90027417D01*
X100900098Y-90023205D01*
X100948073Y-89972409D01*
X101010583Y-89955500D01*
X101257167Y-89955500D01*
X101324206Y-89975185D01*
X101344848Y-89991819D01*
X101365235Y-90012206D01*
X101468009Y-90057585D01*
X101493135Y-90060500D01*
X101782864Y-90060499D01*
X101782879Y-90060497D01*
X101782882Y-90060497D01*
X101807987Y-90057586D01*
X101807987Y-90057585D01*
X101807991Y-90057585D01*
X101869784Y-90030300D01*
X101939059Y-90021229D01*
X102002244Y-90051052D01*
X102018244Y-90068248D01*
X102110075Y-90187924D01*
X102235414Y-90284100D01*
X102381366Y-90344555D01*
X102381372Y-90344557D01*
X102437998Y-90352011D01*
X102438000Y-90352010D01*
X102838000Y-90352010D01*
X102838001Y-90352011D01*
X102894627Y-90344557D01*
X102894633Y-90344555D01*
X103040585Y-90284100D01*
X103165924Y-90187924D01*
X103262100Y-90062586D01*
X103322554Y-89916634D01*
X103322555Y-89916630D01*
X103333961Y-89830000D01*
X102838000Y-89830000D01*
X102838000Y-90352010D01*
X102438000Y-90352010D01*
X102438000Y-89554000D01*
X102457685Y-89486961D01*
X102510489Y-89441206D01*
X102562000Y-89430000D01*
X103333959Y-89430000D01*
X103333960Y-89429998D01*
X103322557Y-89343372D01*
X103322555Y-89343366D01*
X103262100Y-89197414D01*
X103165922Y-89072073D01*
X103087012Y-89011522D01*
X103045810Y-88955094D01*
X103038499Y-88913147D01*
X103038499Y-88775143D01*
X103038499Y-88775136D01*
X103036501Y-88757906D01*
X103035586Y-88750012D01*
X103035585Y-88750010D01*
X103035585Y-88750009D01*
X102990206Y-88647235D01*
X102974819Y-88631848D01*
X102941334Y-88570525D01*
X102938500Y-88544167D01*
X102938500Y-88450439D01*
X102938500Y-88450438D01*
X102918021Y-88374011D01*
X102889457Y-88324536D01*
X102878464Y-88305495D01*
X102878458Y-88305487D01*
X102487957Y-87914986D01*
X104063001Y-87914986D01*
X104073494Y-88017697D01*
X104128641Y-88184119D01*
X104128643Y-88184124D01*
X104220684Y-88333345D01*
X104344654Y-88457315D01*
X104493875Y-88549356D01*
X104493880Y-88549358D01*
X104660302Y-88604505D01*
X104660309Y-88604506D01*
X104763019Y-88614999D01*
X105187999Y-88614999D01*
X105188000Y-88614998D01*
X105188000Y-87802500D01*
X104063001Y-87802500D01*
X104063001Y-87914986D01*
X102487957Y-87914986D01*
X101762984Y-87190013D01*
X104063000Y-87190013D01*
X104063000Y-87302500D01*
X105188000Y-87302500D01*
X105188000Y-86490000D01*
X104763028Y-86490000D01*
X104763012Y-86490001D01*
X104660302Y-86500494D01*
X104493880Y-86555641D01*
X104493875Y-86555643D01*
X104344654Y-86647684D01*
X104220684Y-86771654D01*
X104128643Y-86920875D01*
X104128641Y-86920880D01*
X104073494Y-87087302D01*
X104073493Y-87087309D01*
X104063000Y-87190013D01*
X101762984Y-87190013D01*
X101274819Y-86701848D01*
X101241334Y-86640525D01*
X101238500Y-86614167D01*
X101238500Y-85814000D01*
X101258185Y-85746961D01*
X101310989Y-85701206D01*
X101362500Y-85690000D01*
X101485828Y-85690000D01*
X101485844Y-85689999D01*
X101541694Y-85683994D01*
X101610453Y-85696398D01*
X101642631Y-85719602D01*
X102053489Y-86130460D01*
X102112829Y-86164720D01*
X102122008Y-86170020D01*
X102122012Y-86170022D01*
X102198438Y-86190500D01*
X102198440Y-86190500D01*
X103277560Y-86190500D01*
X103277562Y-86190500D01*
X103353989Y-86170021D01*
X103422511Y-86130460D01*
X103478460Y-86074511D01*
X103830449Y-85722520D01*
X103891772Y-85689036D01*
X103901942Y-85687263D01*
X103994762Y-85675044D01*
X104140841Y-85614536D01*
X104266282Y-85518282D01*
X104362536Y-85392841D01*
X104373379Y-85366664D01*
X104417219Y-85312260D01*
X104483514Y-85290195D01*
X104551213Y-85307474D01*
X104561568Y-85314342D01*
X104600118Y-85342793D01*
X104642845Y-85357744D01*
X104728299Y-85387646D01*
X104758730Y-85390500D01*
X104758734Y-85390500D01*
X106117270Y-85390500D01*
X106147699Y-85387646D01*
X106147701Y-85387646D01*
X106211790Y-85365219D01*
X106275882Y-85342793D01*
X106385150Y-85262150D01*
X106465793Y-85152882D01*
X106489703Y-85084552D01*
X106510646Y-85024701D01*
X106510646Y-85024699D01*
X106513500Y-84994269D01*
X106513500Y-84670276D01*
X106533185Y-84603237D01*
X106585989Y-84557482D01*
X106655147Y-84547538D01*
X106718703Y-84576563D01*
X106730166Y-84588730D01*
X106734713Y-84593277D01*
X106734715Y-84593279D01*
X106734718Y-84593282D01*
X106860159Y-84689536D01*
X107006238Y-84750044D01*
X107084619Y-84760363D01*
X107162999Y-84770682D01*
X107163000Y-84770682D01*
X107163001Y-84770682D01*
X107215254Y-84763802D01*
X107319762Y-84750044D01*
X107426047Y-84706018D01*
X107495517Y-84698550D01*
X107557996Y-84729825D01*
X107593648Y-84789914D01*
X107597500Y-84820580D01*
X107597500Y-86638910D01*
X107577815Y-86705949D01*
X107561181Y-86726591D01*
X107023911Y-87263860D01*
X106962588Y-87297345D01*
X106892896Y-87292361D01*
X106836963Y-87250489D01*
X106812872Y-87188780D01*
X106802506Y-87087303D01*
X106747358Y-86920880D01*
X106747356Y-86920875D01*
X106655315Y-86771654D01*
X106531345Y-86647684D01*
X106382124Y-86555643D01*
X106382119Y-86555641D01*
X106215697Y-86500494D01*
X106215690Y-86500493D01*
X106112986Y-86490000D01*
X105688000Y-86490000D01*
X105688000Y-88548411D01*
X105668315Y-88615450D01*
X105651681Y-88636092D01*
X103524592Y-90763181D01*
X103463269Y-90796666D01*
X103436911Y-90799500D01*
X95305255Y-90799500D01*
X95238216Y-90779815D01*
X95217574Y-90763181D01*
X93604394Y-89150001D01*
X96342039Y-89150001D01*
X96353442Y-89236627D01*
X96353444Y-89236633D01*
X96413899Y-89382585D01*
X96510077Y-89507926D01*
X96588987Y-89568477D01*
X96630189Y-89624905D01*
X96637500Y-89666851D01*
X96637500Y-89804856D01*
X96637502Y-89804881D01*
X96640414Y-89829988D01*
X96640415Y-89829991D01*
X96685793Y-89932764D01*
X96685794Y-89932765D01*
X96765235Y-90012206D01*
X96868009Y-90057585D01*
X96893135Y-90060500D01*
X97182864Y-90060499D01*
X97182879Y-90060497D01*
X97182882Y-90060497D01*
X97207987Y-90057586D01*
X97207988Y-90057585D01*
X97207991Y-90057585D01*
X97310765Y-90012206D01*
X97331152Y-89991819D01*
X97392475Y-89958334D01*
X97418833Y-89955500D01*
X97665417Y-89955500D01*
X97732456Y-89975185D01*
X97775902Y-90023205D01*
X97778048Y-90027418D01*
X97778049Y-90027420D01*
X97838342Y-90145751D01*
X97838344Y-90145753D01*
X97838346Y-90145756D01*
X97932243Y-90239653D01*
X97932245Y-90239654D01*
X97932249Y-90239658D01*
X98050580Y-90299951D01*
X98050581Y-90299951D01*
X98050583Y-90299952D01*
X98050582Y-90299952D01*
X98148749Y-90315500D01*
X98148754Y-90315500D01*
X98727251Y-90315500D01*
X98825417Y-90299952D01*
X98825418Y-90299951D01*
X98825420Y-90299951D01*
X98943751Y-90239658D01*
X99037658Y-90145751D01*
X99097951Y-90027420D01*
X99097951Y-90027418D01*
X99097952Y-90027417D01*
X99113500Y-89929251D01*
X99113500Y-89425748D01*
X99097952Y-89327582D01*
X99086191Y-89304500D01*
X99037658Y-89209249D01*
X99037654Y-89209245D01*
X99037653Y-89209243D01*
X98943756Y-89115346D01*
X98943753Y-89115344D01*
X98943751Y-89115342D01*
X98825420Y-89055049D01*
X98825419Y-89055048D01*
X98825416Y-89055047D01*
X98825417Y-89055047D01*
X98727251Y-89039500D01*
X98727246Y-89039500D01*
X98148754Y-89039500D01*
X98148749Y-89039500D01*
X98050582Y-89055047D01*
X97976021Y-89093039D01*
X97932249Y-89115342D01*
X97932248Y-89115343D01*
X97932242Y-89115346D01*
X97904028Y-89143561D01*
X97842704Y-89177046D01*
X97773013Y-89172060D01*
X97741038Y-89150000D01*
X96342041Y-89150000D01*
X96342039Y-89150001D01*
X93604394Y-89150001D01*
X93204393Y-88750000D01*
X96342038Y-88750000D01*
X96838000Y-88750000D01*
X96838000Y-88227987D01*
X96781368Y-88235444D01*
X96635413Y-88295899D01*
X96510075Y-88392075D01*
X96413899Y-88517413D01*
X96353445Y-88663365D01*
X96353444Y-88663369D01*
X96342038Y-88750000D01*
X93204393Y-88750000D01*
X92266574Y-87812181D01*
X92233089Y-87750858D01*
X92238073Y-87681166D01*
X92279945Y-87625233D01*
X92345409Y-87600816D01*
X92354255Y-87600500D01*
X94782745Y-87600500D01*
X94849784Y-87620185D01*
X94870426Y-87636819D01*
X94958597Y-87724990D01*
X94992082Y-87786313D01*
X94993855Y-87796485D01*
X94997234Y-87822147D01*
X95012683Y-87939500D01*
X95014956Y-87956761D01*
X95014956Y-87956762D01*
X95066651Y-88081566D01*
X95075464Y-88102841D01*
X95171718Y-88228282D01*
X95297159Y-88324536D01*
X95443238Y-88385044D01*
X95496644Y-88392075D01*
X95599999Y-88405682D01*
X95600000Y-88405682D01*
X95600001Y-88405682D01*
X95652254Y-88398802D01*
X95756762Y-88385044D01*
X95902841Y-88324536D01*
X96028282Y-88228282D01*
X96124536Y-88102841D01*
X96185044Y-87956762D01*
X96205682Y-87800000D01*
X96200729Y-87762381D01*
X96185044Y-87643239D01*
X96185044Y-87643238D01*
X96124536Y-87497159D01*
X96028282Y-87371718D01*
X95902841Y-87275464D01*
X95894188Y-87271880D01*
X95842546Y-87250489D01*
X95756762Y-87214956D01*
X95700577Y-87207559D01*
X95596485Y-87193855D01*
X95532589Y-87165588D01*
X95524990Y-87158597D01*
X95303574Y-86937181D01*
X95270089Y-86875858D01*
X95275073Y-86806166D01*
X95316945Y-86750233D01*
X95382409Y-86725816D01*
X95391255Y-86725500D01*
X96442851Y-86725500D01*
X96442853Y-86725500D01*
X96525639Y-86703318D01*
X96599862Y-86660465D01*
X97160325Y-86100000D01*
X97732038Y-86100000D01*
X98228000Y-86100000D01*
X98228000Y-85577987D01*
X98171368Y-85585444D01*
X98025413Y-85645899D01*
X97900075Y-85742075D01*
X97803899Y-85867413D01*
X97743445Y-86013365D01*
X97743444Y-86013369D01*
X97732038Y-86100000D01*
X97160325Y-86100000D01*
X97627652Y-85632672D01*
X97627657Y-85632669D01*
X97637860Y-85622465D01*
X97637862Y-85622465D01*
X97698465Y-85561862D01*
X97731869Y-85504004D01*
X97741318Y-85487639D01*
X97763501Y-85404853D01*
X97763501Y-85380832D01*
X97783186Y-85313793D01*
X97799820Y-85293151D01*
X97802776Y-85290195D01*
X97820206Y-85272765D01*
X97864609Y-85172202D01*
X97890359Y-85134610D01*
X98598152Y-84426819D01*
X98659475Y-84393334D01*
X98685833Y-84390500D01*
X99018252Y-84390500D01*
X99501444Y-84390500D01*
X99568483Y-84410185D01*
G37*
%TD.AperFunction*%
%TA.AperFunction,Conductor*%
G36*
X103843703Y-76536375D02*
G01*
X103850181Y-76542407D01*
X105651681Y-78343907D01*
X105685166Y-78405230D01*
X105688000Y-78431588D01*
X105688000Y-80489999D01*
X106112972Y-80489999D01*
X106112986Y-80489998D01*
X106215697Y-80479505D01*
X106382119Y-80424358D01*
X106382124Y-80424356D01*
X106531345Y-80332315D01*
X106655315Y-80208345D01*
X106747356Y-80059124D01*
X106747358Y-80059119D01*
X106802505Y-79892697D01*
X106802506Y-79892690D01*
X106812999Y-79789986D01*
X106812999Y-79679774D01*
X106832683Y-79612734D01*
X106885487Y-79566979D01*
X106954645Y-79557035D01*
X106969085Y-79559996D01*
X106985273Y-79564334D01*
X106985275Y-79564334D01*
X107052645Y-79564334D01*
X107119684Y-79584019D01*
X107140326Y-79600653D01*
X108063181Y-80523507D01*
X108096666Y-80584830D01*
X108099500Y-80611188D01*
X108099500Y-80936911D01*
X108079815Y-81003950D01*
X108063181Y-81024592D01*
X106725181Y-82362592D01*
X106663858Y-82396077D01*
X106594166Y-82391093D01*
X106538233Y-82349221D01*
X106513816Y-82283757D01*
X106513500Y-82274911D01*
X106513500Y-81985730D01*
X106510646Y-81955300D01*
X106510646Y-81955298D01*
X106465793Y-81827119D01*
X106465792Y-81827117D01*
X106458192Y-81816819D01*
X106385150Y-81717850D01*
X106275882Y-81637207D01*
X106275880Y-81637206D01*
X106147700Y-81592353D01*
X106117270Y-81589500D01*
X106117266Y-81589500D01*
X104758734Y-81589500D01*
X104758730Y-81589500D01*
X104728303Y-81592353D01*
X104666355Y-81614029D01*
X104606005Y-81635147D01*
X104536227Y-81638708D01*
X104475599Y-81603979D01*
X104443372Y-81541986D01*
X104442113Y-81501915D01*
X104443682Y-81490001D01*
X104443682Y-81489998D01*
X104423044Y-81333239D01*
X104423044Y-81333238D01*
X104362536Y-81187159D01*
X104266282Y-81061718D01*
X104140841Y-80965464D01*
X104139740Y-80965008D01*
X103994762Y-80904956D01*
X103994760Y-80904955D01*
X103838001Y-80884318D01*
X103837999Y-80884318D01*
X103738938Y-80897359D01*
X103669902Y-80886593D01*
X103635072Y-80862101D01*
X103422513Y-80649542D01*
X103422511Y-80649540D01*
X103422508Y-80649538D01*
X103416063Y-80644593D01*
X103417299Y-80642981D01*
X103376616Y-80600306D01*
X103363398Y-80531698D01*
X103389372Y-80466835D01*
X103399133Y-80455836D01*
X103558154Y-80296815D01*
X103619475Y-80263333D01*
X103645833Y-80260499D01*
X103744856Y-80260499D01*
X103744864Y-80260499D01*
X103744879Y-80260497D01*
X103744882Y-80260497D01*
X103769987Y-80257586D01*
X103769988Y-80257585D01*
X103769991Y-80257585D01*
X103872765Y-80212206D01*
X103952206Y-80132765D01*
X103952207Y-80132760D01*
X103958699Y-80123286D01*
X103961196Y-80124997D01*
X103994614Y-80085421D01*
X104061396Y-80064881D01*
X104128682Y-80083707D01*
X104168520Y-80123774D01*
X104220684Y-80208345D01*
X104344654Y-80332315D01*
X104493875Y-80424356D01*
X104493880Y-80424358D01*
X104660302Y-80479505D01*
X104660309Y-80479506D01*
X104763019Y-80489999D01*
X105187999Y-80489999D01*
X105188000Y-80489998D01*
X105188000Y-78365000D01*
X104763028Y-78365000D01*
X104763012Y-78365001D01*
X104660302Y-78375494D01*
X104493880Y-78430641D01*
X104493875Y-78430643D01*
X104344654Y-78522684D01*
X104220684Y-78646654D01*
X104124851Y-78802025D01*
X104122429Y-78800531D01*
X104084801Y-78843213D01*
X104017595Y-78862321D01*
X103950727Y-78842062D01*
X103930978Y-78826007D01*
X103872765Y-78767794D01*
X103769993Y-78722415D01*
X103760993Y-78719967D01*
X103761896Y-78716646D01*
X103713242Y-78695999D01*
X103704196Y-78687803D01*
X103674819Y-78658426D01*
X103641334Y-78597103D01*
X103638500Y-78570745D01*
X103638500Y-76630088D01*
X103658185Y-76563049D01*
X103710989Y-76517294D01*
X103780147Y-76507350D01*
X103843703Y-76536375D01*
G37*
%TD.AperFunction*%
%TA.AperFunction,Conductor*%
G36*
X121743039Y-67019685D02*
G01*
X121788794Y-67072489D01*
X121800000Y-67124000D01*
X121800000Y-70385500D01*
X121780315Y-70452539D01*
X121727511Y-70498294D01*
X121676000Y-70509500D01*
X120077747Y-70509500D01*
X120019270Y-70521131D01*
X120019269Y-70521132D01*
X119952947Y-70565447D01*
X119908632Y-70631769D01*
X119908631Y-70631770D01*
X119897000Y-70690247D01*
X119897000Y-71749752D01*
X119908631Y-71808229D01*
X119908632Y-71808230D01*
X119952947Y-71874552D01*
X120019269Y-71918867D01*
X120019270Y-71918868D01*
X120077747Y-71930499D01*
X120077750Y-71930500D01*
X120077752Y-71930500D01*
X122022250Y-71930500D01*
X122022251Y-71930499D01*
X122041918Y-71926587D01*
X122080728Y-71918868D01*
X122080728Y-71918867D01*
X122080731Y-71918867D01*
X122082106Y-71917947D01*
X122085566Y-71916864D01*
X122092013Y-71914194D01*
X122092251Y-71914770D01*
X122148783Y-71897068D01*
X122216163Y-71915550D01*
X122262855Y-71967528D01*
X122275000Y-72021048D01*
X122275000Y-72958951D01*
X122255315Y-73025990D01*
X122202511Y-73071745D01*
X122133353Y-73081689D01*
X122082112Y-73062055D01*
X122080732Y-73061133D01*
X122080729Y-73061131D01*
X122022252Y-73049500D01*
X122022248Y-73049500D01*
X120077752Y-73049500D01*
X120077747Y-73049500D01*
X120019270Y-73061131D01*
X120019269Y-73061132D01*
X119952947Y-73105447D01*
X119908632Y-73171769D01*
X119908631Y-73171770D01*
X119897000Y-73230247D01*
X119897000Y-74289752D01*
X119908631Y-74348229D01*
X119908632Y-74348230D01*
X119952947Y-74414552D01*
X120019269Y-74458867D01*
X120019270Y-74458868D01*
X120077747Y-74470499D01*
X120077750Y-74470500D01*
X120077752Y-74470500D01*
X122022250Y-74470500D01*
X122022251Y-74470499D01*
X122049104Y-74465158D01*
X122080728Y-74458868D01*
X122080728Y-74458867D01*
X122080731Y-74458867D01*
X122082106Y-74457947D01*
X122085566Y-74456864D01*
X122092013Y-74454194D01*
X122092251Y-74454770D01*
X122148783Y-74437068D01*
X122216163Y-74455550D01*
X122262855Y-74507528D01*
X122275000Y-74561048D01*
X122275000Y-75498951D01*
X122255315Y-75565990D01*
X122202511Y-75611745D01*
X122133353Y-75621689D01*
X122082112Y-75602055D01*
X122080732Y-75601133D01*
X122080729Y-75601131D01*
X122022252Y-75589500D01*
X122022248Y-75589500D01*
X120077752Y-75589500D01*
X120077747Y-75589500D01*
X120019270Y-75601131D01*
X120019269Y-75601132D01*
X119952947Y-75645447D01*
X119908632Y-75711769D01*
X119908631Y-75711770D01*
X119897000Y-75770247D01*
X119897000Y-76829752D01*
X119908631Y-76888229D01*
X119908632Y-76888230D01*
X119952947Y-76954552D01*
X120019269Y-76998867D01*
X120019270Y-76998868D01*
X120077747Y-77010499D01*
X120077750Y-77010500D01*
X120077752Y-77010500D01*
X122022250Y-77010500D01*
X122022251Y-77010499D01*
X122041918Y-77006587D01*
X122080728Y-76998868D01*
X122080728Y-76998867D01*
X122080731Y-76998867D01*
X122082106Y-76997947D01*
X122085566Y-76996864D01*
X122092013Y-76994194D01*
X122092251Y-76994770D01*
X122148783Y-76977068D01*
X122216163Y-76995550D01*
X122262855Y-77047528D01*
X122275000Y-77101048D01*
X122275000Y-78038951D01*
X122255315Y-78105990D01*
X122202511Y-78151745D01*
X122133353Y-78161689D01*
X122082112Y-78142055D01*
X122080732Y-78141133D01*
X122080729Y-78141131D01*
X122022252Y-78129500D01*
X122022248Y-78129500D01*
X120077752Y-78129500D01*
X120077747Y-78129500D01*
X120019270Y-78141131D01*
X120019269Y-78141132D01*
X119952947Y-78185447D01*
X119908632Y-78251769D01*
X119908631Y-78251770D01*
X119897000Y-78310247D01*
X119897000Y-79369752D01*
X119908631Y-79428229D01*
X119908632Y-79428230D01*
X119952947Y-79494552D01*
X120019269Y-79538867D01*
X120019270Y-79538868D01*
X120077747Y-79550499D01*
X120077750Y-79550500D01*
X120077752Y-79550500D01*
X122022250Y-79550500D01*
X122022251Y-79550499D01*
X122041918Y-79546587D01*
X122080728Y-79538868D01*
X122080728Y-79538867D01*
X122080731Y-79538867D01*
X122082106Y-79537947D01*
X122085566Y-79536864D01*
X122092013Y-79534194D01*
X122092251Y-79534770D01*
X122148783Y-79517068D01*
X122216163Y-79535550D01*
X122262855Y-79587528D01*
X122275000Y-79641048D01*
X122275000Y-80578951D01*
X122255315Y-80645990D01*
X122202511Y-80691745D01*
X122133353Y-80701689D01*
X122082112Y-80682055D01*
X122080732Y-80681133D01*
X122080729Y-80681131D01*
X122022252Y-80669500D01*
X122022248Y-80669500D01*
X120077752Y-80669500D01*
X120077747Y-80669500D01*
X120019270Y-80681131D01*
X120019269Y-80681132D01*
X119952947Y-80725447D01*
X119908632Y-80791769D01*
X119908631Y-80791770D01*
X119897000Y-80850247D01*
X119897000Y-81909752D01*
X119908631Y-81968229D01*
X119908632Y-81968230D01*
X119952947Y-82034552D01*
X120019269Y-82078867D01*
X120019270Y-82078868D01*
X120077747Y-82090499D01*
X120077750Y-82090500D01*
X120077752Y-82090500D01*
X122022250Y-82090500D01*
X122022251Y-82090499D01*
X122041918Y-82086587D01*
X122080728Y-82078868D01*
X122080728Y-82078867D01*
X122080731Y-82078867D01*
X122082106Y-82077947D01*
X122085566Y-82076864D01*
X122092013Y-82074194D01*
X122092251Y-82074770D01*
X122148783Y-82057068D01*
X122216163Y-82075550D01*
X122262855Y-82127528D01*
X122275000Y-82181048D01*
X122275000Y-82200000D01*
X125276000Y-82200000D01*
X125343039Y-82219685D01*
X125388794Y-82272489D01*
X125400000Y-82324000D01*
X125400000Y-92476000D01*
X125380315Y-92543039D01*
X125327511Y-92588794D01*
X125276000Y-92600000D01*
X121800000Y-92600000D01*
X121800000Y-96076000D01*
X121780315Y-96143039D01*
X121727511Y-96188794D01*
X121676000Y-96200000D01*
X83924000Y-96200000D01*
X83856961Y-96180315D01*
X83811206Y-96127511D01*
X83800000Y-96076000D01*
X83800000Y-92600000D01*
X80324000Y-92600000D01*
X80256961Y-92580315D01*
X80211206Y-92527511D01*
X80209626Y-92520247D01*
X115397500Y-92520247D01*
X115397500Y-94659752D01*
X115409131Y-94718229D01*
X115409132Y-94718230D01*
X115453447Y-94784552D01*
X115519769Y-94828867D01*
X115519770Y-94828868D01*
X115578247Y-94840499D01*
X115578250Y-94840500D01*
X115578252Y-94840500D01*
X118617750Y-94840500D01*
X118617751Y-94840499D01*
X118632568Y-94837552D01*
X118676229Y-94828868D01*
X118676229Y-94828867D01*
X118676231Y-94828867D01*
X118742552Y-94784552D01*
X118786867Y-94718231D01*
X118786867Y-94718229D01*
X118786868Y-94718229D01*
X118798499Y-94659752D01*
X118798500Y-94659750D01*
X118798500Y-92520249D01*
X118798499Y-92520247D01*
X118786868Y-92461770D01*
X118786867Y-92461769D01*
X118742552Y-92395447D01*
X118676230Y-92351132D01*
X118676229Y-92351131D01*
X118617752Y-92339500D01*
X118617748Y-92339500D01*
X115578252Y-92339500D01*
X115578247Y-92339500D01*
X115519770Y-92351131D01*
X115519769Y-92351132D01*
X115453447Y-92395447D01*
X115409132Y-92461769D01*
X115409131Y-92461770D01*
X115397500Y-92520247D01*
X80209626Y-92520247D01*
X80200000Y-92476000D01*
X80200000Y-78820247D01*
X82502500Y-78820247D01*
X82502500Y-79879752D01*
X82514131Y-79938229D01*
X82514132Y-79938230D01*
X82558447Y-80004552D01*
X82624769Y-80048867D01*
X82624770Y-80048868D01*
X82683247Y-80060499D01*
X82683250Y-80060500D01*
X82683252Y-80060500D01*
X84942750Y-80060500D01*
X84942751Y-80060499D01*
X84962023Y-80056666D01*
X85001229Y-80048868D01*
X85001229Y-80048867D01*
X85001231Y-80048867D01*
X85067552Y-80004552D01*
X85111867Y-79938231D01*
X85111867Y-79938229D01*
X85111868Y-79938229D01*
X85123499Y-79879752D01*
X85123500Y-79879750D01*
X85123500Y-79799500D01*
X85143185Y-79732461D01*
X85195989Y-79686706D01*
X85247500Y-79675500D01*
X85265740Y-79675500D01*
X85332779Y-79695185D01*
X85352848Y-79713651D01*
X85353967Y-79712532D01*
X85359711Y-79718275D01*
X85359714Y-79718278D01*
X85359718Y-79718282D01*
X85485159Y-79814536D01*
X85631238Y-79875044D01*
X85709619Y-79885363D01*
X85787999Y-79895682D01*
X85788000Y-79895682D01*
X85788001Y-79895682D01*
X85840254Y-79888802D01*
X85944762Y-79875044D01*
X86016049Y-79845515D01*
X86085516Y-79838047D01*
X86147995Y-79869322D01*
X86183648Y-79929410D01*
X86187500Y-79960077D01*
X86187500Y-81219922D01*
X86167815Y-81286961D01*
X86115011Y-81332716D01*
X86045853Y-81342660D01*
X86016048Y-81334483D01*
X85944765Y-81304957D01*
X85944760Y-81304955D01*
X85788001Y-81284318D01*
X85787999Y-81284318D01*
X85631239Y-81304955D01*
X85631237Y-81304956D01*
X85485160Y-81365463D01*
X85359717Y-81461719D01*
X85354840Y-81468075D01*
X85349494Y-81475043D01*
X85345875Y-81479759D01*
X85289447Y-81520961D01*
X85219700Y-81525115D01*
X85158781Y-81490902D01*
X85126028Y-81429184D01*
X85123500Y-81404271D01*
X85123500Y-81360249D01*
X85123499Y-81360247D01*
X85111868Y-81301770D01*
X85111867Y-81301769D01*
X85067552Y-81235447D01*
X85001230Y-81191132D01*
X85001229Y-81191131D01*
X84942752Y-81179500D01*
X84942748Y-81179500D01*
X82683252Y-81179500D01*
X82683247Y-81179500D01*
X82624770Y-81191131D01*
X82624769Y-81191132D01*
X82558447Y-81235447D01*
X82514132Y-81301769D01*
X82514131Y-81301770D01*
X82502500Y-81360247D01*
X82502500Y-82419752D01*
X82514131Y-82478229D01*
X82514132Y-82478230D01*
X82558447Y-82544552D01*
X82624769Y-82588867D01*
X82624770Y-82588868D01*
X82683247Y-82600499D01*
X82683250Y-82600500D01*
X82683252Y-82600500D01*
X84942750Y-82600500D01*
X84942751Y-82600499D01*
X84957568Y-82597552D01*
X85001229Y-82588868D01*
X85001229Y-82588867D01*
X85001231Y-82588867D01*
X85067552Y-82544552D01*
X85111867Y-82478231D01*
X85111867Y-82478229D01*
X85111868Y-82478229D01*
X85123499Y-82419752D01*
X85123500Y-82419750D01*
X85123500Y-82375728D01*
X85143185Y-82308689D01*
X85195989Y-82262934D01*
X85265147Y-82252990D01*
X85328703Y-82282015D01*
X85345873Y-82300239D01*
X85359718Y-82318282D01*
X85485159Y-82414536D01*
X85631238Y-82475044D01*
X85655446Y-82478231D01*
X85787999Y-82495682D01*
X85788000Y-82495682D01*
X85788001Y-82495682D01*
X85840254Y-82488802D01*
X85944762Y-82475044D01*
X86016049Y-82445515D01*
X86085516Y-82438047D01*
X86147995Y-82469322D01*
X86183648Y-82529410D01*
X86187500Y-82560077D01*
X86187500Y-83619922D01*
X86167815Y-83686961D01*
X86115011Y-83732716D01*
X86045853Y-83742660D01*
X86016048Y-83734483D01*
X85944765Y-83704957D01*
X85944760Y-83704955D01*
X85788001Y-83684318D01*
X85787999Y-83684318D01*
X85631239Y-83704955D01*
X85631237Y-83704956D01*
X85485160Y-83765463D01*
X85359715Y-83861720D01*
X85332643Y-83897002D01*
X85276215Y-83938205D01*
X85206469Y-83942359D01*
X85145549Y-83908146D01*
X85112796Y-83846428D01*
X85112651Y-83845707D01*
X85111867Y-83841770D01*
X85111867Y-83841769D01*
X85067552Y-83775447D01*
X85001230Y-83731132D01*
X85001229Y-83731131D01*
X84942752Y-83719500D01*
X84942748Y-83719500D01*
X82683252Y-83719500D01*
X82683247Y-83719500D01*
X82624770Y-83731131D01*
X82624769Y-83731132D01*
X82558447Y-83775447D01*
X82514132Y-83841769D01*
X82514131Y-83841770D01*
X82502500Y-83900247D01*
X82502500Y-84959752D01*
X82514131Y-85018229D01*
X82514132Y-85018230D01*
X82558447Y-85084552D01*
X82624769Y-85128867D01*
X82624770Y-85128868D01*
X82683247Y-85140499D01*
X82683250Y-85140500D01*
X82683252Y-85140500D01*
X84276000Y-85140500D01*
X84343039Y-85160185D01*
X84388794Y-85212989D01*
X84400000Y-85264500D01*
X84400000Y-86135500D01*
X84380315Y-86202539D01*
X84327511Y-86248294D01*
X84276000Y-86259500D01*
X82683247Y-86259500D01*
X82624770Y-86271131D01*
X82624769Y-86271132D01*
X82558447Y-86315447D01*
X82514132Y-86381769D01*
X82514131Y-86381770D01*
X82502500Y-86440247D01*
X82502500Y-87499752D01*
X82514131Y-87558229D01*
X82514132Y-87558230D01*
X82558447Y-87624552D01*
X82624769Y-87668867D01*
X82624770Y-87668868D01*
X82683247Y-87680499D01*
X82683250Y-87680500D01*
X84706034Y-87680500D01*
X84773073Y-87700185D01*
X84818828Y-87752989D01*
X84828772Y-87822147D01*
X84799747Y-87885703D01*
X84793715Y-87892181D01*
X83922716Y-88763181D01*
X83861393Y-88796666D01*
X83835035Y-88799500D01*
X82683247Y-88799500D01*
X82624770Y-88811131D01*
X82624769Y-88811132D01*
X82558447Y-88855447D01*
X82514132Y-88921769D01*
X82514131Y-88921770D01*
X82502500Y-88980247D01*
X82502500Y-90039752D01*
X82514131Y-90098229D01*
X82514132Y-90098230D01*
X82558447Y-90164552D01*
X82624769Y-90208867D01*
X82624770Y-90208868D01*
X82683247Y-90220499D01*
X82683250Y-90220500D01*
X82683252Y-90220500D01*
X84942750Y-90220500D01*
X84942751Y-90220499D01*
X84957568Y-90217552D01*
X85001229Y-90208868D01*
X85001229Y-90208867D01*
X85001231Y-90208867D01*
X85067552Y-90164552D01*
X85111867Y-90098231D01*
X85111867Y-90098229D01*
X85111868Y-90098229D01*
X85117912Y-90067844D01*
X87853000Y-90067844D01*
X87859401Y-90127372D01*
X87859403Y-90127379D01*
X87909645Y-90262086D01*
X87909649Y-90262093D01*
X87995809Y-90377187D01*
X87995812Y-90377190D01*
X88110906Y-90463350D01*
X88110913Y-90463354D01*
X88245620Y-90513596D01*
X88245627Y-90513598D01*
X88305155Y-90519999D01*
X88305172Y-90520000D01*
X89213000Y-90520000D01*
X89713000Y-90520000D01*
X90620828Y-90520000D01*
X90620844Y-90519999D01*
X90680372Y-90513598D01*
X90680379Y-90513596D01*
X90815086Y-90463354D01*
X90815093Y-90463350D01*
X90930187Y-90377190D01*
X90930190Y-90377187D01*
X91016350Y-90262093D01*
X91016354Y-90262086D01*
X91066596Y-90127379D01*
X91066598Y-90127372D01*
X91072999Y-90067844D01*
X91073000Y-90067827D01*
X91073000Y-89760000D01*
X89713000Y-89760000D01*
X89713000Y-90520000D01*
X89213000Y-90520000D01*
X89213000Y-89760000D01*
X87853000Y-89760000D01*
X87853000Y-90067844D01*
X85117912Y-90067844D01*
X85123499Y-90039752D01*
X85123500Y-90039750D01*
X85123500Y-88980250D01*
X85118496Y-88955094D01*
X85117911Y-88952155D01*
X87853000Y-88952155D01*
X87853000Y-89260000D01*
X89213000Y-89260000D01*
X89713000Y-89260000D01*
X91073000Y-89260000D01*
X91073000Y-88952172D01*
X91072999Y-88952155D01*
X91066598Y-88892627D01*
X91066596Y-88892620D01*
X91016354Y-88757913D01*
X91016350Y-88757906D01*
X90930190Y-88642812D01*
X90930187Y-88642809D01*
X90815093Y-88556649D01*
X90815086Y-88556645D01*
X90680379Y-88506403D01*
X90680372Y-88506401D01*
X90620844Y-88500000D01*
X89713000Y-88500000D01*
X89713000Y-89260000D01*
X89213000Y-89260000D01*
X89213000Y-88500000D01*
X88305155Y-88500000D01*
X88245627Y-88506401D01*
X88245620Y-88506403D01*
X88110913Y-88556645D01*
X88110906Y-88556649D01*
X87995812Y-88642809D01*
X87995809Y-88642812D01*
X87909649Y-88757906D01*
X87909645Y-88757913D01*
X87859403Y-88892620D01*
X87859401Y-88892627D01*
X87853000Y-88952155D01*
X85117911Y-88952155D01*
X85112597Y-88925439D01*
X85118824Y-88855850D01*
X85146531Y-88813570D01*
X86998489Y-86961614D01*
X87045886Y-86879520D01*
X87057799Y-86858886D01*
X87059187Y-86853702D01*
X87091280Y-86798110D01*
X87392574Y-86496816D01*
X87453896Y-86463334D01*
X87480254Y-86460500D01*
X88028500Y-86460500D01*
X88095539Y-86480185D01*
X88141294Y-86532989D01*
X88152500Y-86584500D01*
X88152500Y-87499752D01*
X88164131Y-87558229D01*
X88164132Y-87558230D01*
X88208447Y-87624552D01*
X88274769Y-87668867D01*
X88274770Y-87668868D01*
X88333247Y-87680499D01*
X88333250Y-87680500D01*
X88333252Y-87680500D01*
X90592750Y-87680500D01*
X90592751Y-87680499D01*
X90607568Y-87677552D01*
X90651229Y-87668868D01*
X90651229Y-87668867D01*
X90651231Y-87668867D01*
X90717552Y-87624552D01*
X90725175Y-87613142D01*
X90778787Y-87568338D01*
X90848112Y-87559630D01*
X90911140Y-87589784D01*
X90915959Y-87594352D01*
X94767519Y-91445912D01*
X94767520Y-91445913D01*
X94842087Y-91520480D01*
X94933413Y-91573207D01*
X95035273Y-91600500D01*
X95035275Y-91600500D01*
X103706891Y-91600500D01*
X103706893Y-91600500D01*
X103808754Y-91573207D01*
X103900079Y-91520480D01*
X107020383Y-88400175D01*
X107081704Y-88366692D01*
X107151396Y-88371676D01*
X107207329Y-88413548D01*
X107231746Y-88479012D01*
X107231001Y-88504043D01*
X107222318Y-88569998D01*
X107222318Y-88570001D01*
X107242955Y-88726760D01*
X107242956Y-88726762D01*
X107296259Y-88855448D01*
X107303464Y-88872841D01*
X107399718Y-88998282D01*
X107438623Y-89028134D01*
X107479825Y-89084560D01*
X107483980Y-89154306D01*
X107449769Y-89215226D01*
X107438626Y-89224882D01*
X107429720Y-89231715D01*
X107333463Y-89357160D01*
X107272956Y-89503237D01*
X107272955Y-89503239D01*
X107252318Y-89659998D01*
X107252318Y-89660001D01*
X107272955Y-89816760D01*
X107272956Y-89816762D01*
X107319550Y-89929251D01*
X107333464Y-89962841D01*
X107429718Y-90088282D01*
X107555159Y-90184536D01*
X107670979Y-90232510D01*
X107725382Y-90276351D01*
X107747447Y-90342645D01*
X107730168Y-90410344D01*
X107679031Y-90457955D01*
X107670982Y-90461630D01*
X107649468Y-90470541D01*
X107565160Y-90505463D01*
X107439718Y-90601718D01*
X107343463Y-90727160D01*
X107282956Y-90873237D01*
X107282955Y-90873239D01*
X107262318Y-91029998D01*
X107262318Y-91030001D01*
X107282955Y-91186760D01*
X107282956Y-91186762D01*
X107343464Y-91332841D01*
X107439718Y-91458282D01*
X107565159Y-91554536D01*
X107711238Y-91615044D01*
X107789619Y-91625363D01*
X107867999Y-91635682D01*
X107868000Y-91635682D01*
X107868001Y-91635682D01*
X107920254Y-91628802D01*
X108024762Y-91615044D01*
X108170841Y-91554536D01*
X108215225Y-91520479D01*
X108286063Y-91466124D01*
X108351232Y-91440930D01*
X108361549Y-91440500D01*
X113094081Y-91440500D01*
X113161120Y-91460185D01*
X113206875Y-91512989D01*
X113208640Y-91517043D01*
X113209131Y-91518228D01*
X113253447Y-91584552D01*
X113319769Y-91628867D01*
X113319770Y-91628868D01*
X113378247Y-91640499D01*
X113378250Y-91640500D01*
X113378252Y-91640500D01*
X115017750Y-91640500D01*
X115017751Y-91640499D01*
X115041970Y-91635682D01*
X115076229Y-91628868D01*
X115076229Y-91628867D01*
X115076231Y-91628867D01*
X115142552Y-91584552D01*
X115186867Y-91518231D01*
X115186867Y-91518229D01*
X115186868Y-91518229D01*
X115198499Y-91459752D01*
X115198500Y-91459750D01*
X115198500Y-90620249D01*
X115198499Y-90620247D01*
X115186868Y-90561770D01*
X115186867Y-90561769D01*
X115135767Y-90485293D01*
X115139081Y-90483078D01*
X115116301Y-90441358D01*
X115121285Y-90371666D01*
X115137756Y-90346036D01*
X115135767Y-90344707D01*
X115181441Y-90276351D01*
X115186867Y-90268231D01*
X115186867Y-90268229D01*
X115186868Y-90268229D01*
X115198499Y-90209752D01*
X115198500Y-90209750D01*
X115198500Y-89370249D01*
X115198499Y-89370247D01*
X115186868Y-89311770D01*
X115186867Y-89311769D01*
X115135767Y-89235293D01*
X115139081Y-89233078D01*
X115116301Y-89191358D01*
X115121285Y-89121666D01*
X115137756Y-89096036D01*
X115135767Y-89094707D01*
X115156735Y-89063324D01*
X115186867Y-89018231D01*
X115186867Y-89018229D01*
X115186868Y-89018229D01*
X115198499Y-88959752D01*
X115198500Y-88959750D01*
X115198500Y-88120249D01*
X115198499Y-88120247D01*
X115186868Y-88061770D01*
X115186867Y-88061769D01*
X115142552Y-87995447D01*
X115076230Y-87951132D01*
X115076229Y-87951131D01*
X115017752Y-87939500D01*
X115017748Y-87939500D01*
X113378252Y-87939500D01*
X113378247Y-87939500D01*
X113319770Y-87951131D01*
X113319769Y-87951132D01*
X113253447Y-87995447D01*
X113209131Y-88061771D01*
X113208640Y-88062957D01*
X113206878Y-88065142D01*
X113202348Y-88071923D01*
X113201741Y-88071517D01*
X113164797Y-88117359D01*
X113098502Y-88139421D01*
X113094081Y-88139500D01*
X108295483Y-88139500D01*
X108228444Y-88119815D01*
X108220010Y-88113885D01*
X108130841Y-88045464D01*
X108130838Y-88045463D01*
X108130836Y-88045461D01*
X107984765Y-87984957D01*
X107984760Y-87984955D01*
X107828001Y-87964318D01*
X107827999Y-87964318D01*
X107762043Y-87973001D01*
X107693008Y-87962235D01*
X107640752Y-87915855D01*
X107621867Y-87848586D01*
X107642348Y-87781786D01*
X107658172Y-87762386D01*
X108318480Y-87102079D01*
X108371207Y-87010754D01*
X108398500Y-86908893D01*
X108398500Y-86803439D01*
X108398500Y-84920247D01*
X115397500Y-84920247D01*
X115397500Y-87059752D01*
X115409131Y-87118229D01*
X115409132Y-87118230D01*
X115453447Y-87184552D01*
X115519769Y-87228867D01*
X115519770Y-87228868D01*
X115578247Y-87240499D01*
X115578250Y-87240500D01*
X115578252Y-87240500D01*
X118617750Y-87240500D01*
X118617751Y-87240499D01*
X118632568Y-87237552D01*
X118676229Y-87228868D01*
X118676229Y-87228867D01*
X118676231Y-87228867D01*
X118742552Y-87184552D01*
X118786867Y-87118231D01*
X118786867Y-87118229D01*
X118786868Y-87118229D01*
X118798499Y-87059752D01*
X118798500Y-87059750D01*
X118798500Y-84920249D01*
X118798499Y-84920247D01*
X118786868Y-84861770D01*
X118786867Y-84861769D01*
X118742552Y-84795447D01*
X118676230Y-84751132D01*
X118676229Y-84751131D01*
X118617752Y-84739500D01*
X118617748Y-84739500D01*
X115578252Y-84739500D01*
X115578247Y-84739500D01*
X115519770Y-84751131D01*
X115519769Y-84751132D01*
X115453447Y-84795447D01*
X115409132Y-84861769D01*
X115409131Y-84861770D01*
X115397500Y-84920247D01*
X108398500Y-84920247D01*
X108398500Y-82627255D01*
X108418185Y-82560216D01*
X108434819Y-82539574D01*
X109157574Y-81816819D01*
X109218897Y-81783334D01*
X109245255Y-81780500D01*
X109949000Y-81780500D01*
X110016039Y-81800185D01*
X110061794Y-81852989D01*
X110073000Y-81904500D01*
X110073000Y-81909752D01*
X110084631Y-81968229D01*
X110084632Y-81968230D01*
X110128947Y-82034552D01*
X110195269Y-82078867D01*
X110195270Y-82078868D01*
X110253747Y-82090499D01*
X110253750Y-82090500D01*
X110253752Y-82090500D01*
X112198250Y-82090500D01*
X112198251Y-82090499D01*
X112213068Y-82087552D01*
X112256729Y-82078868D01*
X112256729Y-82078867D01*
X112256731Y-82078867D01*
X112323052Y-82034552D01*
X112367367Y-81968231D01*
X112367367Y-81968229D01*
X112367368Y-81968229D01*
X112378999Y-81909752D01*
X112379000Y-81909750D01*
X112379000Y-80850249D01*
X112378999Y-80850247D01*
X112367368Y-80791770D01*
X112367367Y-80791769D01*
X112323052Y-80725447D01*
X112256730Y-80681132D01*
X112256729Y-80681131D01*
X112198252Y-80669500D01*
X112198248Y-80669500D01*
X110253752Y-80669500D01*
X110253747Y-80669500D01*
X110195270Y-80681131D01*
X110195269Y-80681132D01*
X110128947Y-80725447D01*
X110084632Y-80791769D01*
X110084631Y-80791770D01*
X110073000Y-80850247D01*
X110073000Y-80855500D01*
X110053315Y-80922539D01*
X110000511Y-80968294D01*
X109949000Y-80979500D01*
X109080727Y-80979500D01*
X108975273Y-80979500D01*
X108884023Y-81003950D01*
X108873405Y-81006795D01*
X108871945Y-81007400D01*
X108870614Y-81007542D01*
X108865561Y-81008897D01*
X108865349Y-81008108D01*
X108802476Y-81014864D01*
X108739998Y-80983586D01*
X108704350Y-80923494D01*
X108700500Y-80892836D01*
X108700500Y-80552479D01*
X108704726Y-80520384D01*
X108712868Y-80489998D01*
X108725501Y-80442853D01*
X108725501Y-80357147D01*
X108703318Y-80274361D01*
X108660465Y-80200139D01*
X107363696Y-78903369D01*
X107344048Y-78892025D01*
X107331055Y-78884523D01*
X107305376Y-78864818D01*
X106297861Y-77857302D01*
X106264376Y-77795979D01*
X106269360Y-77726287D01*
X106311232Y-77670354D01*
X106376696Y-77645937D01*
X106432990Y-77655059D01*
X106481238Y-77675044D01*
X106527322Y-77681111D01*
X106637999Y-77695682D01*
X106638000Y-77695682D01*
X106638001Y-77695682D01*
X106690254Y-77688802D01*
X106794762Y-77675044D01*
X106940841Y-77614536D01*
X107066282Y-77518282D01*
X107143462Y-77417698D01*
X107199887Y-77376497D01*
X107269633Y-77372342D01*
X107330554Y-77406554D01*
X107340206Y-77417693D01*
X107409718Y-77508282D01*
X107535159Y-77604536D01*
X107681238Y-77665044D01*
X107838000Y-77685682D01*
X107838001Y-77685681D01*
X107841513Y-77686144D01*
X107905410Y-77714410D01*
X107913009Y-77721402D01*
X109352087Y-79160480D01*
X109443412Y-79213207D01*
X109545273Y-79240500D01*
X109949000Y-79240500D01*
X110016039Y-79260185D01*
X110061794Y-79312989D01*
X110073000Y-79364500D01*
X110073000Y-79369752D01*
X110084631Y-79428229D01*
X110084632Y-79428230D01*
X110128947Y-79494552D01*
X110195269Y-79538867D01*
X110195270Y-79538868D01*
X110253747Y-79550499D01*
X110253750Y-79550500D01*
X110253752Y-79550500D01*
X112198250Y-79550500D01*
X112198251Y-79550499D01*
X112213068Y-79547552D01*
X112256729Y-79538868D01*
X112256729Y-79538867D01*
X112256731Y-79538867D01*
X112323052Y-79494552D01*
X112367367Y-79428231D01*
X112367367Y-79428229D01*
X112367368Y-79428229D01*
X112378999Y-79369752D01*
X112379000Y-79369750D01*
X112379000Y-78310249D01*
X112378999Y-78310247D01*
X112367368Y-78251770D01*
X112367367Y-78251769D01*
X112323052Y-78185447D01*
X112256730Y-78141132D01*
X112256729Y-78141131D01*
X112198252Y-78129500D01*
X112198248Y-78129500D01*
X110253752Y-78129500D01*
X110253747Y-78129500D01*
X110195270Y-78141131D01*
X110195269Y-78141132D01*
X110128947Y-78185447D01*
X110084632Y-78251769D01*
X110084631Y-78251770D01*
X110073000Y-78310247D01*
X110073000Y-78315500D01*
X110053315Y-78382539D01*
X110000511Y-78428294D01*
X109949000Y-78439500D01*
X109815255Y-78439500D01*
X109748216Y-78419815D01*
X109727574Y-78403181D01*
X108479402Y-77155009D01*
X108445917Y-77093686D01*
X108444144Y-77083513D01*
X108443302Y-77077119D01*
X108423044Y-76923238D01*
X108362536Y-76777159D01*
X108266282Y-76651718D01*
X108140841Y-76555464D01*
X108084954Y-76532315D01*
X108052027Y-76518676D01*
X107997624Y-76474835D01*
X107975559Y-76408541D01*
X107992838Y-76340841D01*
X108043976Y-76293231D01*
X108057265Y-76288184D01*
X108057253Y-76288154D01*
X108064760Y-76285044D01*
X108064762Y-76285044D01*
X108210841Y-76224536D01*
X108336282Y-76128282D01*
X108336283Y-76128279D01*
X108339093Y-76126124D01*
X108404263Y-76100930D01*
X108414580Y-76100500D01*
X108882745Y-76100500D01*
X108949784Y-76120185D01*
X108970426Y-76136819D01*
X109454087Y-76620480D01*
X109545412Y-76673207D01*
X109647273Y-76700500D01*
X109752727Y-76700500D01*
X109949000Y-76700500D01*
X110016039Y-76720185D01*
X110061794Y-76772989D01*
X110073000Y-76824500D01*
X110073000Y-76829752D01*
X110084631Y-76888229D01*
X110084632Y-76888230D01*
X110128947Y-76954552D01*
X110195269Y-76998867D01*
X110195270Y-76998868D01*
X110253747Y-77010499D01*
X110253750Y-77010500D01*
X110253752Y-77010500D01*
X112198250Y-77010500D01*
X112198251Y-77010499D01*
X112213068Y-77007552D01*
X112256729Y-76998868D01*
X112256729Y-76998867D01*
X112256731Y-76998867D01*
X112323052Y-76954552D01*
X112367367Y-76888231D01*
X112367367Y-76888229D01*
X112367368Y-76888229D01*
X112376052Y-76844568D01*
X112379000Y-76829748D01*
X112379000Y-75770252D01*
X112379000Y-75770249D01*
X112378999Y-75770247D01*
X112367368Y-75711770D01*
X112367367Y-75711769D01*
X112323052Y-75645447D01*
X112256730Y-75601132D01*
X112256729Y-75601131D01*
X112198252Y-75589500D01*
X112198248Y-75589500D01*
X110253752Y-75589500D01*
X110253747Y-75589500D01*
X110195270Y-75601131D01*
X110195269Y-75601132D01*
X110128947Y-75645447D01*
X110084632Y-75711769D01*
X110084631Y-75711770D01*
X110073000Y-75770247D01*
X110073000Y-75775500D01*
X110053315Y-75842539D01*
X110000511Y-75888294D01*
X109949000Y-75899500D01*
X109917255Y-75899500D01*
X109850216Y-75879815D01*
X109829574Y-75863181D01*
X109345915Y-75379522D01*
X109345913Y-75379520D01*
X109300250Y-75353156D01*
X109254589Y-75326793D01*
X109203657Y-75313146D01*
X109152727Y-75299500D01*
X109152726Y-75299500D01*
X108414580Y-75299500D01*
X108347541Y-75279815D01*
X108339093Y-75273876D01*
X108336283Y-75271720D01*
X108336282Y-75271718D01*
X108210841Y-75175464D01*
X108064762Y-75114956D01*
X108064760Y-75114955D01*
X107908001Y-75094318D01*
X107907999Y-75094318D01*
X107751239Y-75114955D01*
X107751237Y-75114956D01*
X107605160Y-75175463D01*
X107479718Y-75271718D01*
X107383463Y-75397160D01*
X107322956Y-75543237D01*
X107322955Y-75543239D01*
X107302318Y-75699998D01*
X107302318Y-75700001D01*
X107322955Y-75856760D01*
X107322956Y-75856762D01*
X107377968Y-75989574D01*
X107383464Y-76002841D01*
X107479718Y-76128282D01*
X107605159Y-76224536D01*
X107605160Y-76224536D01*
X107605161Y-76224537D01*
X107693971Y-76261323D01*
X107748375Y-76305164D01*
X107770440Y-76371458D01*
X107753161Y-76439157D01*
X107702024Y-76486768D01*
X107688734Y-76491815D01*
X107688747Y-76491846D01*
X107681239Y-76494955D01*
X107681238Y-76494956D01*
X107632908Y-76514974D01*
X107535160Y-76555463D01*
X107535159Y-76555464D01*
X107409718Y-76651718D01*
X107409717Y-76651719D01*
X107409716Y-76651720D01*
X107332538Y-76752300D01*
X107276110Y-76793502D01*
X107206364Y-76797657D01*
X107145444Y-76763444D01*
X107135787Y-76752299D01*
X107064124Y-76658905D01*
X107038930Y-76593736D01*
X107038500Y-76583419D01*
X107038500Y-74317844D01*
X109773500Y-74317844D01*
X109779901Y-74377372D01*
X109779903Y-74377379D01*
X109830145Y-74512086D01*
X109830149Y-74512093D01*
X109916309Y-74627187D01*
X109916312Y-74627190D01*
X110031406Y-74713350D01*
X110031413Y-74713354D01*
X110166120Y-74763596D01*
X110166127Y-74763598D01*
X110225655Y-74769999D01*
X110225672Y-74770000D01*
X110976000Y-74770000D01*
X111476000Y-74770000D01*
X112226328Y-74770000D01*
X112226344Y-74769999D01*
X112285872Y-74763598D01*
X112285879Y-74763596D01*
X112420586Y-74713354D01*
X112420593Y-74713350D01*
X112535687Y-74627190D01*
X112535690Y-74627187D01*
X112621850Y-74512093D01*
X112621854Y-74512086D01*
X112672096Y-74377379D01*
X112672098Y-74377372D01*
X112678499Y-74317844D01*
X112678500Y-74317827D01*
X112678500Y-74010000D01*
X111476000Y-74010000D01*
X111476000Y-74770000D01*
X110976000Y-74770000D01*
X110976000Y-74010000D01*
X109773500Y-74010000D01*
X109773500Y-74317844D01*
X107038500Y-74317844D01*
X107038500Y-73787255D01*
X107058185Y-73720216D01*
X107074819Y-73699574D01*
X107572238Y-73202155D01*
X109773500Y-73202155D01*
X109773500Y-73510000D01*
X110976000Y-73510000D01*
X111476000Y-73510000D01*
X112678500Y-73510000D01*
X112678500Y-73202172D01*
X112678499Y-73202155D01*
X112672098Y-73142627D01*
X112672096Y-73142620D01*
X112621854Y-73007913D01*
X112621850Y-73007906D01*
X112535690Y-72892812D01*
X112535687Y-72892809D01*
X112420593Y-72806649D01*
X112420586Y-72806645D01*
X112285879Y-72756403D01*
X112285872Y-72756401D01*
X112226344Y-72750000D01*
X111476000Y-72750000D01*
X111476000Y-73510000D01*
X110976000Y-73510000D01*
X110976000Y-72750000D01*
X110225655Y-72750000D01*
X110166127Y-72756401D01*
X110166120Y-72756403D01*
X110031413Y-72806645D01*
X110031406Y-72806649D01*
X109916312Y-72892809D01*
X109916309Y-72892812D01*
X109830149Y-73007906D01*
X109830145Y-73007913D01*
X109779903Y-73142620D01*
X109779901Y-73142627D01*
X109773500Y-73202155D01*
X107572238Y-73202155D01*
X109117574Y-71656819D01*
X109178897Y-71623334D01*
X109205255Y-71620500D01*
X109949000Y-71620500D01*
X110016039Y-71640185D01*
X110061794Y-71692989D01*
X110073000Y-71744500D01*
X110073000Y-71749752D01*
X110084631Y-71808229D01*
X110084632Y-71808230D01*
X110128947Y-71874552D01*
X110195269Y-71918867D01*
X110195270Y-71918868D01*
X110253747Y-71930499D01*
X110253750Y-71930500D01*
X110253752Y-71930500D01*
X112198250Y-71930500D01*
X112198251Y-71930499D01*
X112213068Y-71927552D01*
X112256729Y-71918868D01*
X112256729Y-71918867D01*
X112256731Y-71918867D01*
X112323052Y-71874552D01*
X112367367Y-71808231D01*
X112367367Y-71808229D01*
X112367368Y-71808229D01*
X112378999Y-71749752D01*
X112379000Y-71749750D01*
X112379000Y-70690249D01*
X112378999Y-70690247D01*
X112367368Y-70631770D01*
X112367367Y-70631769D01*
X112323052Y-70565447D01*
X112256730Y-70521132D01*
X112256729Y-70521131D01*
X112198252Y-70509500D01*
X112198248Y-70509500D01*
X110253752Y-70509500D01*
X110253747Y-70509500D01*
X110195270Y-70521131D01*
X110195269Y-70521132D01*
X110128947Y-70565447D01*
X110084632Y-70631769D01*
X110084631Y-70631770D01*
X110073000Y-70690247D01*
X110073000Y-70695500D01*
X110053315Y-70762539D01*
X110000511Y-70808294D01*
X109949000Y-70819500D01*
X108935273Y-70819500D01*
X108833410Y-70846793D01*
X108742087Y-70899520D01*
X108742084Y-70899522D01*
X106317522Y-73324084D01*
X106317520Y-73324087D01*
X106264794Y-73415410D01*
X106238540Y-73513391D01*
X106237500Y-73517272D01*
X106237500Y-76583419D01*
X106217815Y-76650458D01*
X106211876Y-76658905D01*
X106113464Y-76787157D01*
X106052956Y-76933237D01*
X106052955Y-76933239D01*
X106032318Y-77089998D01*
X106032318Y-77090001D01*
X106052955Y-77246760D01*
X106052956Y-77246762D01*
X106066800Y-77280185D01*
X106072939Y-77295004D01*
X106080408Y-77364473D01*
X106049133Y-77426953D01*
X105989044Y-77462605D01*
X105919219Y-77460112D01*
X105870697Y-77430138D01*
X101920081Y-73479522D01*
X101920080Y-73479521D01*
X101920079Y-73479520D01*
X101874416Y-73453156D01*
X101828755Y-73426793D01*
X101777823Y-73413146D01*
X101726893Y-73399500D01*
X101726892Y-73399500D01*
X97623480Y-73399500D01*
X97556441Y-73379815D01*
X97522968Y-73343371D01*
X97521311Y-73344595D01*
X97508413Y-73327119D01*
X97435150Y-73227850D01*
X97325882Y-73147207D01*
X97325880Y-73147206D01*
X97197700Y-73102353D01*
X97167270Y-73099500D01*
X97167266Y-73099500D01*
X96108734Y-73099500D01*
X96108730Y-73099500D01*
X96078300Y-73102353D01*
X96078298Y-73102353D01*
X95950119Y-73147206D01*
X95950117Y-73147207D01*
X95854398Y-73217851D01*
X95840850Y-73227850D01*
X95795622Y-73289133D01*
X95795621Y-73289134D01*
X95739974Y-73331384D01*
X95695851Y-73339500D01*
X95187529Y-73339500D01*
X95120490Y-73319815D01*
X95087759Y-73289133D01*
X95035151Y-73217851D01*
X94925882Y-73137207D01*
X94925880Y-73137206D01*
X94797700Y-73092353D01*
X94767270Y-73089500D01*
X94767266Y-73089500D01*
X93708734Y-73089500D01*
X93708730Y-73089500D01*
X93678300Y-73092353D01*
X93678298Y-73092353D01*
X93550119Y-73137206D01*
X93550117Y-73137207D01*
X93440850Y-73217850D01*
X93360207Y-73327117D01*
X93360206Y-73327119D01*
X93315353Y-73455298D01*
X93315353Y-73455300D01*
X93312500Y-73485730D01*
X93312500Y-73695500D01*
X93292815Y-73762539D01*
X93240011Y-73808294D01*
X93188500Y-73819500D01*
X90891028Y-73819500D01*
X90823989Y-73799815D01*
X90778234Y-73747011D01*
X90769411Y-73719691D01*
X90761868Y-73681770D01*
X90761867Y-73681769D01*
X90717552Y-73615447D01*
X90651230Y-73571132D01*
X90651229Y-73571131D01*
X90592752Y-73559500D01*
X90592748Y-73559500D01*
X88333252Y-73559500D01*
X88333247Y-73559500D01*
X88274770Y-73571131D01*
X88274769Y-73571132D01*
X88208447Y-73615447D01*
X88164132Y-73681769D01*
X88164131Y-73681770D01*
X88152500Y-73740247D01*
X88152500Y-74799752D01*
X88164131Y-74858229D01*
X88164132Y-74858230D01*
X88208447Y-74924552D01*
X88274769Y-74968867D01*
X88274770Y-74968868D01*
X88333247Y-74980499D01*
X88333250Y-74980500D01*
X88333252Y-74980500D01*
X90592750Y-74980500D01*
X90592751Y-74980499D01*
X90607568Y-74977552D01*
X90651229Y-74968868D01*
X90651229Y-74968867D01*
X90651231Y-74968867D01*
X90717552Y-74924552D01*
X90761867Y-74858231D01*
X90761867Y-74858229D01*
X90761868Y-74858229D01*
X90769411Y-74820309D01*
X90801796Y-74758398D01*
X90862512Y-74723824D01*
X90891028Y-74720500D01*
X93122477Y-74720500D01*
X93189516Y-74740185D01*
X93235271Y-74792989D01*
X93245215Y-74862147D01*
X93216190Y-74925703D01*
X93210158Y-74932181D01*
X93170684Y-74971654D01*
X93078643Y-75120875D01*
X93078641Y-75120880D01*
X93023494Y-75287302D01*
X93023493Y-75287309D01*
X93013000Y-75390013D01*
X93013000Y-75440000D01*
X95444638Y-75440000D01*
X95478694Y-75450000D01*
X96764000Y-75450000D01*
X96831039Y-75469685D01*
X96876794Y-75522489D01*
X96888000Y-75574000D01*
X96888000Y-76699999D01*
X97162972Y-76699999D01*
X97162986Y-76699998D01*
X97265697Y-76689505D01*
X97432119Y-76634358D01*
X97432124Y-76634356D01*
X97581345Y-76542315D01*
X97705315Y-76418345D01*
X97797356Y-76269124D01*
X97797358Y-76269119D01*
X97848091Y-76116018D01*
X97884038Y-76061794D01*
X97918000Y-76032010D01*
X98318000Y-76032010D01*
X98318001Y-76032011D01*
X98374627Y-76024557D01*
X98374633Y-76024555D01*
X98520585Y-75964100D01*
X98645924Y-75867924D01*
X98742100Y-75742586D01*
X98802554Y-75596634D01*
X98802555Y-75596630D01*
X98813961Y-75510000D01*
X98318000Y-75510000D01*
X98318000Y-76032010D01*
X97918000Y-76032010D01*
X97918000Y-75234000D01*
X97937685Y-75166961D01*
X97990489Y-75121206D01*
X98042000Y-75110000D01*
X98813959Y-75110000D01*
X98813960Y-75109998D01*
X98802557Y-75023372D01*
X98802555Y-75023366D01*
X98742100Y-74877414D01*
X98645922Y-74752073D01*
X98567013Y-74691523D01*
X98525811Y-74635095D01*
X98520513Y-74604703D01*
X98519746Y-74604813D01*
X98519745Y-74604806D01*
X98519203Y-74597183D01*
X98518500Y-74593148D01*
X98518500Y-74587284D01*
X98518499Y-74587270D01*
X98518499Y-74455143D01*
X98518499Y-74455136D01*
X98518390Y-74454194D01*
X98515586Y-74430013D01*
X98515585Y-74430011D01*
X98515585Y-74430009D01*
X98491112Y-74374584D01*
X98482042Y-74305307D01*
X98511866Y-74242123D01*
X98571116Y-74205092D01*
X98604548Y-74200500D01*
X98826644Y-74200500D01*
X100960745Y-74200500D01*
X101027784Y-74220185D01*
X101048426Y-74236819D01*
X102801181Y-75989574D01*
X102834666Y-76050897D01*
X102837500Y-76077255D01*
X102837500Y-78630228D01*
X102817815Y-78697267D01*
X102765011Y-78743022D01*
X102695853Y-78752966D01*
X102632297Y-78723941D01*
X102615125Y-78705715D01*
X102527926Y-78592077D01*
X102402586Y-78495899D01*
X102256631Y-78435444D01*
X102200000Y-78427987D01*
X102200000Y-78950000D01*
X102703701Y-78950000D01*
X102745254Y-78923643D01*
X102815123Y-78924057D01*
X102873675Y-78962180D01*
X102886867Y-78980822D01*
X102917520Y-79033913D01*
X102917522Y-79033915D01*
X103167802Y-79284195D01*
X103198961Y-79341259D01*
X103199965Y-79340987D01*
X103201109Y-79345192D01*
X103201287Y-79345518D01*
X103201427Y-79346363D01*
X103202415Y-79349991D01*
X103242119Y-79439913D01*
X103251191Y-79509191D01*
X103242120Y-79540085D01*
X103202415Y-79630009D01*
X103199500Y-79655131D01*
X103199500Y-79754166D01*
X103179815Y-79821205D01*
X103163181Y-79841847D01*
X102981848Y-80023181D01*
X102920525Y-80056666D01*
X102894167Y-80059500D01*
X102524500Y-80059500D01*
X102457461Y-80039815D01*
X102411706Y-79987011D01*
X102400500Y-79935502D01*
X102400500Y-79906319D01*
X102400499Y-79866851D01*
X102420183Y-79799814D01*
X102449013Y-79768476D01*
X102527923Y-79707926D01*
X102624100Y-79582586D01*
X102684554Y-79436634D01*
X102684555Y-79436630D01*
X102695961Y-79350000D01*
X101924000Y-79350000D01*
X101856961Y-79330315D01*
X101811206Y-79277511D01*
X101800000Y-79226000D01*
X101800000Y-78427987D01*
X101767741Y-78399697D01*
X101730317Y-78340695D01*
X101725500Y-78306469D01*
X101725500Y-77409149D01*
X101725499Y-77409145D01*
X101723014Y-77399872D01*
X101715471Y-77371718D01*
X101703318Y-77326361D01*
X101660465Y-77252138D01*
X101470011Y-77061684D01*
X101436526Y-77000361D01*
X101434753Y-76957816D01*
X101443682Y-76889999D01*
X101443682Y-76889998D01*
X101426582Y-76760112D01*
X101423044Y-76733238D01*
X101362536Y-76587159D01*
X101266282Y-76461718D01*
X101140841Y-76365464D01*
X100994762Y-76304956D01*
X100994760Y-76304955D01*
X100838001Y-76284318D01*
X100837999Y-76284318D01*
X100681239Y-76304955D01*
X100681237Y-76304956D01*
X100535160Y-76365463D01*
X100409718Y-76461718D01*
X100313463Y-76587160D01*
X100252956Y-76733237D01*
X100252955Y-76733239D01*
X100232318Y-76889998D01*
X100232318Y-76890001D01*
X100252955Y-77046760D01*
X100252956Y-77046762D01*
X100289712Y-77135500D01*
X100313464Y-77192841D01*
X100409718Y-77318282D01*
X100535159Y-77414536D01*
X100681238Y-77475044D01*
X100709548Y-77478771D01*
X100837999Y-77495682D01*
X100837999Y-77495681D01*
X100838000Y-77495682D01*
X100905817Y-77486753D01*
X100974852Y-77497518D01*
X101009684Y-77522011D01*
X101038181Y-77550508D01*
X101071666Y-77611831D01*
X101074500Y-77638189D01*
X101074500Y-79442852D01*
X101096682Y-79525640D01*
X101111794Y-79551814D01*
X101139535Y-79599862D01*
X101139536Y-79599863D01*
X101139537Y-79599864D01*
X101384669Y-79844996D01*
X101418154Y-79906319D01*
X101413170Y-79976011D01*
X101384669Y-80020358D01*
X101049000Y-80356027D01*
X100987677Y-80389512D01*
X100917985Y-80384528D01*
X100862052Y-80342656D01*
X100841815Y-80292962D01*
X100840603Y-80293287D01*
X100835532Y-80274363D01*
X100831818Y-80260500D01*
X100818022Y-80209012D01*
X100778460Y-80140489D01*
X100538578Y-79900607D01*
X100505093Y-79839284D01*
X100510077Y-79769592D01*
X100550776Y-79714547D01*
X100565925Y-79702923D01*
X100662100Y-79577586D01*
X100722554Y-79431634D01*
X100722555Y-79431630D01*
X100733961Y-79345000D01*
X99962000Y-79345000D01*
X99894961Y-79325315D01*
X99849206Y-79272511D01*
X99838000Y-79221000D01*
X99838000Y-78945000D01*
X100238000Y-78945000D01*
X100733959Y-78945000D01*
X100733960Y-78944998D01*
X100722557Y-78858372D01*
X100722555Y-78858366D01*
X100662100Y-78712414D01*
X100565924Y-78587075D01*
X100440586Y-78490899D01*
X100294631Y-78430444D01*
X100238000Y-78422987D01*
X100238000Y-78945000D01*
X99838000Y-78945000D01*
X99838000Y-78422987D01*
X99781368Y-78430444D01*
X99734952Y-78449670D01*
X99665483Y-78457139D01*
X99603004Y-78425863D01*
X99567352Y-78365774D01*
X99563500Y-78335109D01*
X99563500Y-77458298D01*
X99583185Y-77391259D01*
X99612010Y-77359925D01*
X99666282Y-77318282D01*
X99762536Y-77192841D01*
X99823044Y-77046762D01*
X99843682Y-76890000D01*
X99843314Y-76887207D01*
X99826582Y-76760112D01*
X99823044Y-76733238D01*
X99762536Y-76587159D01*
X99666282Y-76461718D01*
X99540841Y-76365464D01*
X99394762Y-76304956D01*
X99394760Y-76304955D01*
X99238001Y-76284318D01*
X99237999Y-76284318D01*
X99081239Y-76304955D01*
X99081237Y-76304956D01*
X98935160Y-76365463D01*
X98809718Y-76461718D01*
X98713463Y-76587160D01*
X98652956Y-76733237D01*
X98652955Y-76733239D01*
X98632318Y-76889998D01*
X98632318Y-76890001D01*
X98652955Y-77046760D01*
X98652956Y-77046762D01*
X98689712Y-77135500D01*
X98713464Y-77192841D01*
X98809718Y-77318282D01*
X98863987Y-77359924D01*
X98905189Y-77416349D01*
X98912500Y-77458298D01*
X98912500Y-78330109D01*
X98892815Y-78397148D01*
X98840011Y-78442903D01*
X98770853Y-78452847D01*
X98741048Y-78444670D01*
X98694631Y-78425444D01*
X98638000Y-78417987D01*
X98638000Y-79216000D01*
X98618315Y-79283039D01*
X98565511Y-79328794D01*
X98514000Y-79340000D01*
X97742041Y-79340000D01*
X97742039Y-79340001D01*
X97743924Y-79354317D01*
X97733158Y-79423352D01*
X97686777Y-79475607D01*
X97620985Y-79494500D01*
X97406188Y-79494500D01*
X97339149Y-79474815D01*
X97318511Y-79458185D01*
X97161816Y-79301490D01*
X97128334Y-79240169D01*
X97125500Y-79213811D01*
X97125500Y-78940000D01*
X97742038Y-78940000D01*
X98238000Y-78940000D01*
X98238000Y-78417987D01*
X98181368Y-78425444D01*
X98035413Y-78485899D01*
X97910075Y-78582075D01*
X97813899Y-78707413D01*
X97753445Y-78853365D01*
X97753444Y-78853369D01*
X97742038Y-78940000D01*
X97125500Y-78940000D01*
X97125500Y-78368298D01*
X97145185Y-78301259D01*
X97174010Y-78269925D01*
X97228282Y-78228282D01*
X97324536Y-78102841D01*
X97385044Y-77956762D01*
X97405682Y-77800000D01*
X97385044Y-77643238D01*
X97324536Y-77497159D01*
X97228282Y-77371718D01*
X97102841Y-77275464D01*
X97033548Y-77246762D01*
X96956762Y-77214956D01*
X96956760Y-77214955D01*
X96800001Y-77194318D01*
X96799999Y-77194318D01*
X96643239Y-77214955D01*
X96643237Y-77214956D01*
X96497160Y-77275463D01*
X96371718Y-77371718D01*
X96275463Y-77497160D01*
X96214956Y-77643237D01*
X96214955Y-77643239D01*
X96194318Y-77799998D01*
X96194318Y-77800001D01*
X96214955Y-77956760D01*
X96214956Y-77956762D01*
X96275464Y-78102841D01*
X96371718Y-78228282D01*
X96425987Y-78269924D01*
X96467189Y-78326349D01*
X96474500Y-78368298D01*
X96474500Y-79179061D01*
X96454815Y-79246100D01*
X96402011Y-79291855D01*
X96334315Y-79302000D01*
X96200001Y-79284318D01*
X96199999Y-79284318D01*
X96043239Y-79304955D01*
X96043237Y-79304956D01*
X95897160Y-79365463D01*
X95771718Y-79461718D01*
X95675463Y-79587160D01*
X95654131Y-79638661D01*
X95610290Y-79693064D01*
X95543995Y-79715129D01*
X95476296Y-79697850D01*
X95466191Y-79690000D01*
X94488000Y-79690000D01*
X94488000Y-80439999D01*
X94762972Y-80439999D01*
X94762986Y-80439998D01*
X94865697Y-80429505D01*
X95032119Y-80374358D01*
X95032124Y-80374356D01*
X95181345Y-80282315D01*
X95305317Y-80158343D01*
X95391112Y-80019247D01*
X95443060Y-79972522D01*
X95512022Y-79961299D01*
X95576105Y-79989142D01*
X95610115Y-80039969D01*
X95611846Y-80039253D01*
X95614955Y-80046760D01*
X95614956Y-80046762D01*
X95647362Y-80124997D01*
X95671243Y-80182652D01*
X95675464Y-80192841D01*
X95771718Y-80318282D01*
X95897159Y-80414536D01*
X96043238Y-80475044D01*
X96043250Y-80475045D01*
X96049457Y-80476709D01*
X96109120Y-80513071D01*
X96139653Y-80575916D01*
X96131362Y-80645292D01*
X96115748Y-80671970D01*
X96103903Y-80687406D01*
X96103900Y-80687412D01*
X96043444Y-80833368D01*
X96035987Y-80890000D01*
X96834000Y-80890000D01*
X96901039Y-80909685D01*
X96946794Y-80962489D01*
X96958000Y-81014000D01*
X96958000Y-81785959D01*
X96958001Y-81785960D01*
X97044627Y-81774557D01*
X97044633Y-81774555D01*
X97190586Y-81714100D01*
X97243812Y-81673258D01*
X97308981Y-81648063D01*
X97377426Y-81662101D01*
X97406981Y-81683952D01*
X98100848Y-82377819D01*
X98134333Y-82439142D01*
X98129349Y-82508834D01*
X98087477Y-82564767D01*
X98022013Y-82589184D01*
X98013167Y-82589500D01*
X97843833Y-82589500D01*
X97776794Y-82569815D01*
X97756152Y-82553181D01*
X97740765Y-82537794D01*
X97637992Y-82492415D01*
X97612868Y-82489500D01*
X97474852Y-82489500D01*
X97407813Y-82469815D01*
X97376477Y-82440987D01*
X97315926Y-82362077D01*
X97190586Y-82265899D01*
X97044631Y-82205444D01*
X96958000Y-82194038D01*
X96958000Y-82965500D01*
X96938315Y-83032539D01*
X96885511Y-83078294D01*
X96834000Y-83089500D01*
X96549347Y-83089500D01*
X96517255Y-83085275D01*
X96477041Y-83074500D01*
X94532853Y-83074500D01*
X94447147Y-83074500D01*
X94447145Y-83074500D01*
X94364974Y-83096517D01*
X94316697Y-83099681D01*
X94200001Y-83084318D01*
X94199999Y-83084318D01*
X94043239Y-83104955D01*
X94043237Y-83104956D01*
X93897160Y-83165463D01*
X93771718Y-83261718D01*
X93675463Y-83387160D01*
X93614956Y-83533237D01*
X93614955Y-83533239D01*
X93594318Y-83689998D01*
X93594318Y-83690001D01*
X93614955Y-83846760D01*
X93614956Y-83846762D01*
X93675464Y-83992841D01*
X93771718Y-84118282D01*
X93897159Y-84214536D01*
X94043238Y-84275044D01*
X94121619Y-84285363D01*
X94199999Y-84295682D01*
X94200000Y-84295682D01*
X94200001Y-84295682D01*
X94252254Y-84288802D01*
X94356762Y-84275044D01*
X94502841Y-84214536D01*
X94628282Y-84118282D01*
X94724536Y-83992841D01*
X94785044Y-83846762D01*
X94786814Y-83833315D01*
X94815080Y-83769419D01*
X94873404Y-83730947D01*
X94909753Y-83725500D01*
X96334029Y-83725500D01*
X96366120Y-83729724D01*
X96406335Y-83740500D01*
X96406337Y-83740500D01*
X97155850Y-83740500D01*
X97155852Y-83740500D01*
X97238638Y-83718318D01*
X97312861Y-83675465D01*
X97637860Y-83350465D01*
X97637862Y-83350464D01*
X97698465Y-83289861D01*
X97702224Y-83283349D01*
X97732719Y-83250411D01*
X97732640Y-83250332D01*
X97734694Y-83248277D01*
X97739537Y-83243047D01*
X97740761Y-83242207D01*
X97740765Y-83242206D01*
X97744375Y-83238596D01*
X97756153Y-83226819D01*
X97817476Y-83193334D01*
X97843834Y-83190500D01*
X98414000Y-83190500D01*
X98481039Y-83210185D01*
X98526794Y-83262989D01*
X98538000Y-83314500D01*
X98538000Y-83437835D01*
X98542183Y-83476748D01*
X98542183Y-83503252D01*
X98538000Y-83542164D01*
X98538000Y-83676248D01*
X98518315Y-83743287D01*
X98465511Y-83789042D01*
X98446095Y-83796022D01*
X98394012Y-83809978D01*
X98394011Y-83809978D01*
X98361595Y-83828694D01*
X98342879Y-83839500D01*
X98342877Y-83839500D01*
X98342877Y-83839501D01*
X98325492Y-83849537D01*
X98325487Y-83849541D01*
X97611847Y-84563181D01*
X97550524Y-84596666D01*
X97524166Y-84599500D01*
X97474852Y-84599500D01*
X97407813Y-84579815D01*
X97376477Y-84550987D01*
X97315926Y-84472077D01*
X97190586Y-84375899D01*
X97044631Y-84315444D01*
X96958000Y-84304038D01*
X96958000Y-85076000D01*
X96938315Y-85143039D01*
X96885511Y-85188794D01*
X96834000Y-85200000D01*
X96035990Y-85200000D01*
X96035988Y-85200001D01*
X96043442Y-85256627D01*
X96043444Y-85256632D01*
X96103899Y-85402585D01*
X96200075Y-85527924D01*
X96325413Y-85624100D01*
X96429844Y-85667356D01*
X96484248Y-85711196D01*
X96506313Y-85777490D01*
X96489034Y-85845190D01*
X96470074Y-85869598D01*
X96423642Y-85916031D01*
X96301490Y-86038182D01*
X96240170Y-86071666D01*
X96213811Y-86074500D01*
X93134188Y-86074500D01*
X93067149Y-86054815D01*
X93046507Y-86038181D01*
X92870011Y-85861685D01*
X92836526Y-85800362D01*
X92834753Y-85757818D01*
X92836183Y-85746961D01*
X92843682Y-85690000D01*
X92842891Y-85683994D01*
X92827859Y-85569815D01*
X92823044Y-85533238D01*
X92762536Y-85387159D01*
X92666282Y-85261718D01*
X92540841Y-85165464D01*
X92528096Y-85160185D01*
X92394762Y-85104956D01*
X92394760Y-85104955D01*
X92238001Y-85084318D01*
X92237999Y-85084318D01*
X92081239Y-85104955D01*
X92081237Y-85104956D01*
X91935160Y-85165463D01*
X91809718Y-85261718D01*
X91713463Y-85387160D01*
X91652956Y-85533237D01*
X91652955Y-85533239D01*
X91632740Y-85686793D01*
X91632318Y-85690000D01*
X91635108Y-85711196D01*
X91654017Y-85854820D01*
X91652589Y-85855007D01*
X91651134Y-85916031D01*
X91611969Y-85973892D01*
X91547739Y-86001393D01*
X91478837Y-85989803D01*
X91445343Y-85965950D01*
X91218915Y-85739522D01*
X91218913Y-85739520D01*
X91152552Y-85701206D01*
X91127589Y-85686793D01*
X91076657Y-85673146D01*
X91025727Y-85659500D01*
X87315727Y-85659500D01*
X87212500Y-85659500D01*
X87145461Y-85639815D01*
X87099706Y-85587011D01*
X87088500Y-85535500D01*
X87088500Y-83900247D01*
X88152500Y-83900247D01*
X88152500Y-84959752D01*
X88164131Y-85018229D01*
X88164132Y-85018230D01*
X88208447Y-85084552D01*
X88274769Y-85128867D01*
X88274770Y-85128868D01*
X88333247Y-85140499D01*
X88333250Y-85140500D01*
X88333252Y-85140500D01*
X90592750Y-85140500D01*
X90592751Y-85140499D01*
X90607568Y-85137552D01*
X90651229Y-85128868D01*
X90651229Y-85128867D01*
X90651231Y-85128867D01*
X90717552Y-85084552D01*
X90761867Y-85018231D01*
X90761867Y-85018229D01*
X90761868Y-85018229D01*
X90773499Y-84959752D01*
X90773500Y-84959750D01*
X90773500Y-84918820D01*
X90793185Y-84851781D01*
X90845989Y-84806026D01*
X90850055Y-84804256D01*
X90852585Y-84803207D01*
X90852588Y-84803207D01*
X90858143Y-84800000D01*
X96035987Y-84800000D01*
X96558000Y-84800000D01*
X96558000Y-84304038D01*
X96471369Y-84315444D01*
X96471365Y-84315445D01*
X96325413Y-84375899D01*
X96200075Y-84472075D01*
X96103899Y-84597413D01*
X96043444Y-84743368D01*
X96035987Y-84800000D01*
X90858143Y-84800000D01*
X90943913Y-84750480D01*
X91762991Y-83931400D01*
X91824312Y-83897917D01*
X91834485Y-83896144D01*
X91837997Y-83895681D01*
X91838000Y-83895682D01*
X91994762Y-83875044D01*
X92140841Y-83814536D01*
X92266282Y-83718282D01*
X92362536Y-83592841D01*
X92423044Y-83446762D01*
X92443682Y-83290000D01*
X92438543Y-83250968D01*
X92423044Y-83133239D01*
X92423044Y-83133238D01*
X92362536Y-82987159D01*
X92266282Y-82861718D01*
X92140841Y-82765464D01*
X91994762Y-82704956D01*
X91994760Y-82704955D01*
X91881162Y-82690000D01*
X96035987Y-82690000D01*
X96558000Y-82690000D01*
X96558000Y-82194038D01*
X96471369Y-82205444D01*
X96471365Y-82205445D01*
X96325413Y-82265899D01*
X96200075Y-82362075D01*
X96103899Y-82487413D01*
X96043444Y-82633368D01*
X96035987Y-82690000D01*
X91881162Y-82690000D01*
X91838001Y-82684318D01*
X91837999Y-82684318D01*
X91681239Y-82704955D01*
X91681237Y-82704956D01*
X91535160Y-82765463D01*
X91409718Y-82861718D01*
X91313463Y-82987160D01*
X91252956Y-83133237D01*
X91252956Y-83133238D01*
X91231855Y-83293513D01*
X91203588Y-83357409D01*
X91196597Y-83365008D01*
X90830636Y-83730969D01*
X90769313Y-83764454D01*
X90699621Y-83759470D01*
X90674063Y-83746389D01*
X90651231Y-83731132D01*
X90651229Y-83731131D01*
X90592752Y-83719500D01*
X90592748Y-83719500D01*
X88333252Y-83719500D01*
X88333247Y-83719500D01*
X88274770Y-83731131D01*
X88274769Y-83731132D01*
X88208447Y-83775447D01*
X88164132Y-83841769D01*
X88164131Y-83841770D01*
X88152500Y-83900247D01*
X87088500Y-83900247D01*
X87088500Y-81360247D01*
X88152500Y-81360247D01*
X88152500Y-82419752D01*
X88164131Y-82478229D01*
X88164132Y-82478230D01*
X88208447Y-82544552D01*
X88274769Y-82588867D01*
X88274770Y-82588868D01*
X88333247Y-82600499D01*
X88333250Y-82600500D01*
X88333252Y-82600500D01*
X90592750Y-82600500D01*
X90592751Y-82600499D01*
X90607568Y-82597552D01*
X90651229Y-82588868D01*
X90651229Y-82588867D01*
X90651231Y-82588867D01*
X90717552Y-82544552D01*
X90761867Y-82478231D01*
X90761867Y-82478229D01*
X90761868Y-82478229D01*
X90773499Y-82419752D01*
X90773500Y-82419750D01*
X90773500Y-82414500D01*
X90793185Y-82347461D01*
X90845989Y-82301706D01*
X90882944Y-82293666D01*
X90882667Y-82291561D01*
X90890718Y-82290500D01*
X90890727Y-82290500D01*
X90992588Y-82263207D01*
X91083913Y-82210480D01*
X91762991Y-81531400D01*
X91824312Y-81497917D01*
X91834485Y-81496144D01*
X91837997Y-81495681D01*
X91838000Y-81495682D01*
X91994762Y-81475044D01*
X92140841Y-81414536D01*
X92266282Y-81318282D01*
X92287983Y-81290001D01*
X96035988Y-81290001D01*
X96043442Y-81346627D01*
X96043444Y-81346633D01*
X96103899Y-81492585D01*
X96200075Y-81617924D01*
X96325413Y-81714100D01*
X96471365Y-81774554D01*
X96471369Y-81774555D01*
X96558000Y-81785961D01*
X96558000Y-81290000D01*
X96035990Y-81290000D01*
X96035988Y-81290001D01*
X92287983Y-81290001D01*
X92362536Y-81192841D01*
X92423044Y-81046762D01*
X92443682Y-80890000D01*
X92443233Y-80886593D01*
X92423044Y-80733239D01*
X92423044Y-80733238D01*
X92362536Y-80587159D01*
X92266282Y-80461718D01*
X92140841Y-80365464D01*
X92127647Y-80359999D01*
X91994762Y-80304956D01*
X91994760Y-80304955D01*
X91838001Y-80284318D01*
X91837999Y-80284318D01*
X91681239Y-80304955D01*
X91681237Y-80304956D01*
X91535160Y-80365463D01*
X91409718Y-80461718D01*
X91313463Y-80587160D01*
X91252956Y-80733237D01*
X91252956Y-80733238D01*
X91231855Y-80893513D01*
X91203588Y-80957409D01*
X91196597Y-80965008D01*
X90907948Y-81253658D01*
X90846625Y-81287143D01*
X90776934Y-81282159D01*
X90721000Y-81240288D01*
X90717630Y-81235525D01*
X90717553Y-81235448D01*
X90651230Y-81191132D01*
X90651229Y-81191131D01*
X90592752Y-81179500D01*
X90592748Y-81179500D01*
X88333252Y-81179500D01*
X88333247Y-81179500D01*
X88274770Y-81191131D01*
X88274769Y-81191132D01*
X88208447Y-81235447D01*
X88164132Y-81301769D01*
X88164131Y-81301770D01*
X88152500Y-81360247D01*
X87088500Y-81360247D01*
X87088500Y-79907844D01*
X87853000Y-79907844D01*
X87859401Y-79967372D01*
X87859403Y-79967379D01*
X87909645Y-80102086D01*
X87909649Y-80102093D01*
X87995809Y-80217187D01*
X87995812Y-80217190D01*
X88110906Y-80303350D01*
X88110913Y-80303354D01*
X88245620Y-80353596D01*
X88245627Y-80353598D01*
X88305155Y-80359999D01*
X88305172Y-80360000D01*
X89213000Y-80360000D01*
X89713000Y-80360000D01*
X90620828Y-80360000D01*
X90620844Y-80359999D01*
X90680372Y-80353598D01*
X90680379Y-80353596D01*
X90815086Y-80303354D01*
X90815093Y-80303350D01*
X90930187Y-80217190D01*
X90930190Y-80217187D01*
X91016350Y-80102093D01*
X91016354Y-80102086D01*
X91066596Y-79967379D01*
X91066598Y-79967372D01*
X91072999Y-79907844D01*
X91073000Y-79907827D01*
X91073000Y-79739986D01*
X93013001Y-79739986D01*
X93023494Y-79842697D01*
X93078641Y-80009119D01*
X93078643Y-80009124D01*
X93170684Y-80158345D01*
X93294654Y-80282315D01*
X93443875Y-80374356D01*
X93443880Y-80374358D01*
X93610302Y-80429505D01*
X93610309Y-80429506D01*
X93713019Y-80439999D01*
X93987999Y-80439999D01*
X93988000Y-80439998D01*
X93988000Y-79690000D01*
X93013001Y-79690000D01*
X93013001Y-79739986D01*
X91073000Y-79739986D01*
X91073000Y-79600000D01*
X89713000Y-79600000D01*
X89713000Y-80360000D01*
X89213000Y-80360000D01*
X89213000Y-79600000D01*
X87853000Y-79600000D01*
X87853000Y-79907844D01*
X87088500Y-79907844D01*
X87088500Y-78792155D01*
X87853000Y-78792155D01*
X87853000Y-79100000D01*
X89213000Y-79100000D01*
X89713000Y-79100000D01*
X91073000Y-79100000D01*
X91073000Y-78792172D01*
X91072999Y-78792155D01*
X91066598Y-78732627D01*
X91066596Y-78732620D01*
X91016354Y-78597913D01*
X91016350Y-78597906D01*
X90930190Y-78482812D01*
X90930187Y-78482809D01*
X90815093Y-78396649D01*
X90815086Y-78396645D01*
X90680379Y-78346403D01*
X90680372Y-78346401D01*
X90620844Y-78340000D01*
X89713000Y-78340000D01*
X89713000Y-79100000D01*
X89213000Y-79100000D01*
X89213000Y-78340000D01*
X88305155Y-78340000D01*
X88245627Y-78346401D01*
X88245620Y-78346403D01*
X88110913Y-78396645D01*
X88110906Y-78396649D01*
X87995812Y-78482809D01*
X87995809Y-78482812D01*
X87909649Y-78597906D01*
X87909645Y-78597913D01*
X87859403Y-78732620D01*
X87859401Y-78732627D01*
X87853000Y-78792155D01*
X87088500Y-78792155D01*
X87088500Y-78527964D01*
X87108185Y-78460925D01*
X87124814Y-78440287D01*
X88071811Y-77493290D01*
X88133132Y-77459807D01*
X88202823Y-77464791D01*
X88228377Y-77477868D01*
X88274769Y-77508867D01*
X88274771Y-77508867D01*
X88274772Y-77508868D01*
X88274770Y-77508868D01*
X88333247Y-77520499D01*
X88333250Y-77520500D01*
X88333252Y-77520500D01*
X90592750Y-77520500D01*
X90592751Y-77520499D01*
X90607568Y-77517552D01*
X90651229Y-77508868D01*
X90651229Y-77508867D01*
X90651231Y-77508867D01*
X90717552Y-77464552D01*
X90761867Y-77398231D01*
X90761867Y-77398229D01*
X90761868Y-77398229D01*
X90769411Y-77360309D01*
X90801796Y-77298398D01*
X90862512Y-77263824D01*
X90891028Y-77260500D01*
X91120035Y-77260500D01*
X91187074Y-77280185D01*
X91207716Y-77296819D01*
X91811386Y-77900489D01*
X91914113Y-77959799D01*
X91938321Y-77966284D01*
X91938324Y-77966286D01*
X91938325Y-77966286D01*
X91968447Y-77974357D01*
X92028691Y-77990500D01*
X93288471Y-77990500D01*
X93355510Y-78010185D01*
X93388241Y-78040867D01*
X93440848Y-78112148D01*
X93440849Y-78112148D01*
X93440850Y-78112150D01*
X93550118Y-78192793D01*
X93614033Y-78215158D01*
X93670807Y-78255878D01*
X93696555Y-78320830D01*
X93683099Y-78389392D01*
X93634712Y-78439795D01*
X93612082Y-78449904D01*
X93443878Y-78505642D01*
X93443875Y-78505643D01*
X93294654Y-78597684D01*
X93170684Y-78721654D01*
X93078643Y-78870875D01*
X93078641Y-78870880D01*
X93023494Y-79037302D01*
X93023493Y-79037309D01*
X93013000Y-79140013D01*
X93013000Y-79190000D01*
X95462999Y-79190000D01*
X95462999Y-79140028D01*
X95462998Y-79140013D01*
X95452505Y-79037302D01*
X95397358Y-78870880D01*
X95397356Y-78870875D01*
X95305315Y-78721654D01*
X95181345Y-78597684D01*
X95032124Y-78505643D01*
X95032119Y-78505641D01*
X94863917Y-78449905D01*
X94806472Y-78410133D01*
X94779649Y-78345617D01*
X94791964Y-78276841D01*
X94839507Y-78225641D01*
X94861966Y-78215158D01*
X94861972Y-78215156D01*
X94925882Y-78192793D01*
X95035150Y-78112150D01*
X95115793Y-78002882D01*
X95138219Y-77938790D01*
X95160646Y-77874701D01*
X95160646Y-77874699D01*
X95163500Y-77844269D01*
X95163500Y-77235730D01*
X95160646Y-77205300D01*
X95160646Y-77205298D01*
X95120301Y-77090001D01*
X95115793Y-77077118D01*
X95035150Y-76967850D01*
X94925882Y-76887207D01*
X94925876Y-76887205D01*
X94918225Y-76883161D01*
X94868152Y-76834432D01*
X94852373Y-76766368D01*
X94875897Y-76700577D01*
X94931256Y-76657949D01*
X94937162Y-76655824D01*
X95032119Y-76624358D01*
X95032124Y-76624356D01*
X95181345Y-76532315D01*
X95305316Y-76408344D01*
X95305317Y-76408342D01*
X95329375Y-76369338D01*
X95381322Y-76322612D01*
X95450284Y-76311388D01*
X95514367Y-76339230D01*
X95540453Y-76369335D01*
X95570680Y-76418340D01*
X95570683Y-76418344D01*
X95694654Y-76542315D01*
X95843875Y-76634356D01*
X95843880Y-76634358D01*
X96010302Y-76689505D01*
X96010309Y-76689506D01*
X96113019Y-76699999D01*
X96387999Y-76699999D01*
X96388000Y-76699998D01*
X96388000Y-75950000D01*
X95431362Y-75950000D01*
X95397306Y-75940000D01*
X93013001Y-75940000D01*
X93013001Y-75989986D01*
X93023494Y-76092697D01*
X93078641Y-76259119D01*
X93078643Y-76259124D01*
X93170684Y-76408345D01*
X93294654Y-76532315D01*
X93443875Y-76624356D01*
X93443880Y-76624358D01*
X93538838Y-76655824D01*
X93596283Y-76695596D01*
X93623106Y-76760112D01*
X93610791Y-76828888D01*
X93563248Y-76880088D01*
X93557775Y-76883161D01*
X93550120Y-76887206D01*
X93550118Y-76887207D01*
X93550116Y-76887208D01*
X93550115Y-76887209D01*
X93440848Y-76967851D01*
X93388241Y-77039133D01*
X93332594Y-77081384D01*
X93288471Y-77089500D01*
X92325965Y-77089500D01*
X92258926Y-77069815D01*
X92238284Y-77053181D01*
X91634616Y-76449513D01*
X91634614Y-76449511D01*
X91563313Y-76408345D01*
X91531888Y-76390201D01*
X91519780Y-76386957D01*
X91507673Y-76383713D01*
X91507670Y-76383712D01*
X91454025Y-76369338D01*
X91417309Y-76359500D01*
X91417308Y-76359500D01*
X90891028Y-76359500D01*
X90823989Y-76339815D01*
X90778234Y-76287011D01*
X90769411Y-76259691D01*
X90761868Y-76221770D01*
X90761867Y-76221769D01*
X90717552Y-76155447D01*
X90651230Y-76111132D01*
X90651229Y-76111131D01*
X90592752Y-76099500D01*
X90592748Y-76099500D01*
X88333252Y-76099500D01*
X88333247Y-76099500D01*
X88274770Y-76111131D01*
X88274769Y-76111132D01*
X88208447Y-76155447D01*
X88164132Y-76221769D01*
X88156169Y-76261801D01*
X88123783Y-76323712D01*
X88066287Y-76356451D01*
X88066541Y-76357397D01*
X88058692Y-76359500D01*
X88058691Y-76359500D01*
X88021986Y-76369335D01*
X87968325Y-76383713D01*
X87968324Y-76383712D01*
X87944116Y-76390199D01*
X87944113Y-76390200D01*
X87841386Y-76449511D01*
X87841383Y-76449513D01*
X86277513Y-78013383D01*
X86277509Y-78013389D01*
X86218201Y-78116112D01*
X86218200Y-78116117D01*
X86187500Y-78230691D01*
X86187500Y-78619922D01*
X86167815Y-78686961D01*
X86115011Y-78732716D01*
X86045853Y-78742660D01*
X86016048Y-78734483D01*
X85944765Y-78704957D01*
X85944760Y-78704955D01*
X85788001Y-78684318D01*
X85787999Y-78684318D01*
X85631239Y-78704955D01*
X85631237Y-78704956D01*
X85485160Y-78765463D01*
X85359716Y-78861719D01*
X85345010Y-78880885D01*
X85288580Y-78922086D01*
X85218834Y-78926239D01*
X85157915Y-78892025D01*
X85125164Y-78830307D01*
X85124095Y-78823242D01*
X85111868Y-78761770D01*
X85111867Y-78761769D01*
X85067552Y-78695447D01*
X85001230Y-78651132D01*
X85001229Y-78651131D01*
X84942752Y-78639500D01*
X84942748Y-78639500D01*
X82683252Y-78639500D01*
X82683247Y-78639500D01*
X82624770Y-78651131D01*
X82624769Y-78651132D01*
X82558447Y-78695447D01*
X82514132Y-78761769D01*
X82514131Y-78761770D01*
X82502500Y-78820247D01*
X80200000Y-78820247D01*
X80200000Y-76280247D01*
X82502500Y-76280247D01*
X82502500Y-77339752D01*
X82514131Y-77398229D01*
X82514132Y-77398230D01*
X82558447Y-77464552D01*
X82624769Y-77508867D01*
X82624770Y-77508868D01*
X82683247Y-77520499D01*
X82683250Y-77520500D01*
X82683252Y-77520500D01*
X84942750Y-77520500D01*
X84942751Y-77520499D01*
X84957568Y-77517552D01*
X85001229Y-77508868D01*
X85001229Y-77508867D01*
X85001231Y-77508867D01*
X85067552Y-77464552D01*
X85111867Y-77398231D01*
X85111867Y-77398229D01*
X85111868Y-77398229D01*
X85123499Y-77339752D01*
X85123500Y-77339750D01*
X85123500Y-77310567D01*
X85143185Y-77243528D01*
X85195989Y-77197773D01*
X85265147Y-77187829D01*
X85328703Y-77216854D01*
X85345874Y-77235079D01*
X85354837Y-77246760D01*
X85394460Y-77298398D01*
X85409718Y-77318282D01*
X85535159Y-77414536D01*
X85681238Y-77475044D01*
X85709548Y-77478771D01*
X85837999Y-77495682D01*
X85838000Y-77495682D01*
X85838001Y-77495682D01*
X85905823Y-77486753D01*
X85994762Y-77475044D01*
X86140841Y-77414536D01*
X86266282Y-77318282D01*
X86362536Y-77192841D01*
X86423044Y-77046762D01*
X86443682Y-76890000D01*
X86443314Y-76887207D01*
X86426582Y-76760112D01*
X86423044Y-76733238D01*
X86362536Y-76587159D01*
X86266282Y-76461718D01*
X86140841Y-76365464D01*
X85994762Y-76304956D01*
X85994760Y-76304955D01*
X85838001Y-76284318D01*
X85837999Y-76284318D01*
X85681239Y-76304955D01*
X85681237Y-76304956D01*
X85535160Y-76365463D01*
X85535159Y-76365464D01*
X85413420Y-76458876D01*
X85348253Y-76484070D01*
X85337936Y-76484500D01*
X85247500Y-76484500D01*
X85180461Y-76464815D01*
X85134706Y-76412011D01*
X85123500Y-76360500D01*
X85123500Y-76280249D01*
X85123499Y-76280247D01*
X85111868Y-76221770D01*
X85111867Y-76221769D01*
X85067552Y-76155447D01*
X85001230Y-76111132D01*
X85001229Y-76111131D01*
X84942752Y-76099500D01*
X84942748Y-76099500D01*
X82683252Y-76099500D01*
X82683247Y-76099500D01*
X82624770Y-76111131D01*
X82624769Y-76111132D01*
X82558447Y-76155447D01*
X82514132Y-76221769D01*
X82514131Y-76221770D01*
X82502500Y-76280247D01*
X80200000Y-76280247D01*
X80200000Y-73740247D01*
X82502500Y-73740247D01*
X82502500Y-74799752D01*
X82514131Y-74858229D01*
X82514132Y-74858230D01*
X82558447Y-74924552D01*
X82624769Y-74968867D01*
X82624770Y-74968868D01*
X82683247Y-74980499D01*
X82683250Y-74980500D01*
X82683252Y-74980500D01*
X84942750Y-74980500D01*
X84942751Y-74980499D01*
X84957568Y-74977552D01*
X85001229Y-74968868D01*
X85001229Y-74968867D01*
X85001231Y-74968867D01*
X85067552Y-74924552D01*
X85111867Y-74858231D01*
X85111867Y-74858229D01*
X85111868Y-74858229D01*
X85123499Y-74799752D01*
X85123500Y-74799750D01*
X85123500Y-74719500D01*
X85143185Y-74652461D01*
X85195989Y-74606706D01*
X85247500Y-74595500D01*
X85254354Y-74595500D01*
X85321393Y-74615185D01*
X85352727Y-74644010D01*
X85409718Y-74718282D01*
X85535159Y-74814536D01*
X85681238Y-74875044D01*
X85759619Y-74885363D01*
X85837999Y-74895682D01*
X85838000Y-74895682D01*
X85838001Y-74895682D01*
X85890254Y-74888802D01*
X85994762Y-74875044D01*
X86140841Y-74814536D01*
X86266282Y-74718282D01*
X86362536Y-74592841D01*
X86423044Y-74446762D01*
X86443682Y-74290000D01*
X86443649Y-74289752D01*
X86423044Y-74133239D01*
X86423044Y-74133238D01*
X86362536Y-73987159D01*
X86266282Y-73861718D01*
X86140841Y-73765464D01*
X86133779Y-73762539D01*
X85994762Y-73704956D01*
X85994760Y-73704955D01*
X85838001Y-73684318D01*
X85837999Y-73684318D01*
X85681239Y-73704955D01*
X85681237Y-73704956D01*
X85535160Y-73765463D01*
X85409715Y-73861720D01*
X85383422Y-73895987D01*
X85326994Y-73937190D01*
X85285047Y-73944500D01*
X85247500Y-73944500D01*
X85180461Y-73924815D01*
X85134706Y-73872011D01*
X85123500Y-73820500D01*
X85123500Y-73740249D01*
X85123499Y-73740247D01*
X85111868Y-73681770D01*
X85111867Y-73681769D01*
X85067552Y-73615447D01*
X85001230Y-73571132D01*
X85001229Y-73571131D01*
X84942752Y-73559500D01*
X84942748Y-73559500D01*
X82683252Y-73559500D01*
X82683247Y-73559500D01*
X82624770Y-73571131D01*
X82624769Y-73571132D01*
X82558447Y-73615447D01*
X82514132Y-73681769D01*
X82514131Y-73681770D01*
X82502500Y-73740247D01*
X80200000Y-73740247D01*
X80200000Y-70724000D01*
X80219685Y-70656961D01*
X80272489Y-70611206D01*
X80324000Y-70600000D01*
X83800000Y-70600000D01*
X83800000Y-67124000D01*
X83819685Y-67056961D01*
X83872489Y-67011206D01*
X83924000Y-67000000D01*
X121676000Y-67000000D01*
X121743039Y-67019685D01*
G37*
%TD.AperFunction*%
%TD*%
M02*
