%TF.GenerationSoftware,KiCad,Pcbnew,8.0.4*%
%TF.CreationDate,2024-09-23T11:02:56+01:00*%
%TF.ProjectId,algoritmi_foc,616c676f-7269-4746-9d69-5f666f632e6b,Andr_s Motta*%
%TF.SameCoordinates,Original*%
%TF.FileFunction,Soldermask,Top*%
%TF.FilePolarity,Negative*%
%FSLAX46Y46*%
G04 Gerber Fmt 4.6, Leading zero omitted, Abs format (unit mm)*
G04 Created by KiCad (PCBNEW 8.0.4) date 2024-09-23 11:02:56*
%MOMM*%
%LPD*%
G01*
G04 APERTURE LIST*
G04 Aperture macros list*
%AMRoundRect*
0 Rectangle with rounded corners*
0 $1 Rounding radius*
0 $2 $3 $4 $5 $6 $7 $8 $9 X,Y pos of 4 corners*
0 Add a 4 corners polygon primitive as box body*
4,1,4,$2,$3,$4,$5,$6,$7,$8,$9,$2,$3,0*
0 Add four circle primitives for the rounded corners*
1,1,$1+$1,$2,$3*
1,1,$1+$1,$4,$5*
1,1,$1+$1,$6,$7*
1,1,$1+$1,$8,$9*
0 Add four rect primitives between the rounded corners*
20,1,$1+$1,$2,$3,$4,$5,0*
20,1,$1+$1,$4,$5,$6,$7,0*
20,1,$1+$1,$6,$7,$8,$9,0*
20,1,$1+$1,$8,$9,$2,$3,0*%
G04 Aperture macros list end*
%ADD10RoundRect,0.218750X0.256250X-0.218750X0.256250X0.218750X-0.256250X0.218750X-0.256250X-0.218750X0*%
%ADD11RoundRect,0.100000X0.100000X-0.130000X0.100000X0.130000X-0.100000X0.130000X-0.100000X-0.130000X0*%
%ADD12RoundRect,0.100000X-0.100000X0.130000X-0.100000X-0.130000X0.100000X-0.130000X0.100000X0.130000X0*%
%ADD13RoundRect,0.250000X0.475000X-0.250000X0.475000X0.250000X-0.475000X0.250000X-0.475000X-0.250000X0*%
%ADD14R,1.905000X1.020000*%
%ADD15RoundRect,0.100000X-0.130000X-0.100000X0.130000X-0.100000X0.130000X0.100000X-0.130000X0.100000X0*%
%ADD16RoundRect,0.250000X0.625000X-0.312500X0.625000X0.312500X-0.625000X0.312500X-0.625000X-0.312500X0*%
%ADD17RoundRect,0.250000X-0.625000X0.312500X-0.625000X-0.312500X0.625000X-0.312500X0.625000X0.312500X0*%
%ADD18R,2.220000X1.020000*%
%ADD19R,1.600000X0.800000*%
%ADD20R,3.000000X2.100000*%
%ADD21R,0.200000X0.800000*%
%ADD22R,0.800000X0.200000*%
%ADD23R,1.800000X1.800000*%
G04 APERTURE END LIST*
D10*
%TO.C,ERROR*%
X100238000Y-89677500D03*
X100238000Y-88102500D03*
%TD*%
D11*
%TO.C,C1*%
X98118000Y-75310000D03*
X98118000Y-74630000D03*
%TD*%
D12*
%TO.C,R6*%
X100038000Y-79145000D03*
X100038000Y-79825000D03*
%TD*%
D13*
%TO.C,C5*%
X96638000Y-75700000D03*
X96638000Y-73800000D03*
%TD*%
D14*
%TO.C,J3*%
X111226000Y-71220000D03*
X111226000Y-73760000D03*
X111226000Y-76300000D03*
X111226000Y-78840000D03*
X111226000Y-81380000D03*
X121050000Y-71220000D03*
X121050000Y-73760000D03*
X121050000Y-76300000D03*
X121050000Y-78840000D03*
X121050000Y-81380000D03*
%TD*%
D12*
%TO.C,R7*%
X98438000Y-79140000D03*
X98438000Y-79820000D03*
%TD*%
D11*
%TO.C,C2*%
X102638000Y-89630000D03*
X102638000Y-88950000D03*
%TD*%
D15*
%TO.C,R10*%
X96758000Y-85000000D03*
X97438000Y-85000000D03*
%TD*%
D10*
%TO.C,STDBY*%
X98438000Y-89677500D03*
X98438000Y-88102500D03*
%TD*%
D12*
%TO.C,R1*%
X97038000Y-88950000D03*
X97038000Y-89630000D03*
%TD*%
%TO.C,C3*%
X98428000Y-86300000D03*
X98428000Y-86980000D03*
%TD*%
D15*
%TO.C,R9*%
X96758000Y-82890000D03*
X97438000Y-82890000D03*
%TD*%
D16*
%TO.C,R3*%
X105438000Y-82352500D03*
X105438000Y-79427500D03*
%TD*%
D13*
%TO.C,C6*%
X94238000Y-75690000D03*
X94238000Y-73790000D03*
%TD*%
D12*
%TO.C,R2*%
X101638000Y-88950000D03*
X101638000Y-89630000D03*
%TD*%
D17*
%TO.C,R4*%
X105438000Y-84627500D03*
X105438000Y-87552500D03*
%TD*%
D12*
%TO.C,C4*%
X103600000Y-79150000D03*
X103600000Y-79830000D03*
%TD*%
D18*
%TO.C,J1*%
X83813000Y-89510000D03*
X89463000Y-89510000D03*
X83813000Y-86970000D03*
X89463000Y-86970000D03*
X83813000Y-84430000D03*
X89463000Y-84430000D03*
X83813000Y-81890000D03*
X89463000Y-81890000D03*
X83813000Y-79350000D03*
X89463000Y-79350000D03*
X83813000Y-76810000D03*
X89463000Y-76810000D03*
X83813000Y-74270000D03*
X89463000Y-74270000D03*
%TD*%
D19*
%TO.C,J2*%
X114198000Y-91040000D03*
X114198000Y-89790000D03*
X114198000Y-88540000D03*
D20*
X117098000Y-93590000D03*
X117098000Y-85990000D03*
%TD*%
D15*
%TO.C,R8*%
X96758000Y-81090000D03*
X97438000Y-81090000D03*
%TD*%
D12*
%TO.C,R5*%
X102000000Y-79150000D03*
X102000000Y-79830000D03*
%TD*%
D13*
%TO.C,C7*%
X94238000Y-79440000D03*
X94238000Y-77540000D03*
%TD*%
D21*
%TO.C,U1*%
X101738000Y-81790000D03*
X101338000Y-81790000D03*
X100938000Y-81790000D03*
X100538000Y-81790000D03*
X100138000Y-81790000D03*
D22*
X99438000Y-82490000D03*
X99438000Y-82890000D03*
X99438000Y-83290000D03*
X99438000Y-83690000D03*
X99438000Y-84090000D03*
D21*
X100138000Y-84790000D03*
X100538000Y-84790000D03*
X100938000Y-84790000D03*
X101338000Y-84790000D03*
X101738000Y-84790000D03*
D22*
X102438000Y-84090000D03*
X102438000Y-83690000D03*
X102438000Y-83290000D03*
X102438000Y-82890000D03*
X102438000Y-82490000D03*
D23*
X100938000Y-83290000D03*
%TD*%
M02*
