%TF.GenerationSoftware,KiCad,Pcbnew,8.0.4*%
%TF.CreationDate,2024-09-16T16:07:33+01:00*%
%TF.ProjectId,algoritmi_foc,616c676f-7269-4746-9d69-5f666f632e6b,Andr_s Motta*%
%TF.SameCoordinates,Original*%
%TF.FileFunction,Drillmap*%
%TF.FilePolarity,Positive*%
%FSLAX45Y45*%
G04 Gerber Fmt 4.5, Leading zero omitted, Abs format (unit mm)*
G04 Created by KiCad (PCBNEW 8.0.4) date 2024-09-16 16:07:33*
%MOMM*%
%LPD*%
G01*
G04 APERTURE LIST*
%ADD10C,0.100000*%
%ADD11C,0.200000*%
G04 APERTURE END LIST*
D10*
X8140000Y-9620000D02*
X12420000Y-9620000D01*
X12227500Y-7060000D02*
X12540000Y-7060000D01*
X12460000Y-6900000D02*
G75*
G02*
X12220000Y-6900000I-120000J0D01*
G01*
X12220000Y-6900000D02*
G75*
G02*
X12460000Y-6900000I120000J0D01*
G01*
X12227500Y-8220000D02*
X12227500Y-7060000D01*
X8020000Y-6820000D02*
G75*
G02*
X8140000Y-6700000I120000J0D01*
G01*
X8340000Y-6900000D02*
G75*
G02*
X8100000Y-6900000I-120000J0D01*
G01*
X8100000Y-6900000D02*
G75*
G02*
X8340000Y-6900000I120000J0D01*
G01*
X12540000Y-9500000D02*
X12540000Y-8220000D01*
X8020000Y-6820000D02*
X8020000Y-9500000D01*
X12540000Y-7060000D02*
X12540000Y-6820000D01*
X8140000Y-9620000D02*
G75*
G02*
X8020000Y-9500000I0J120000D01*
G01*
X12460000Y-9420000D02*
G75*
G02*
X12220000Y-9420000I-120000J0D01*
G01*
X12220000Y-9420000D02*
G75*
G02*
X12460000Y-9420000I120000J0D01*
G01*
X12540000Y-8220000D02*
X12227500Y-8220000D01*
X8340000Y-9420000D02*
G75*
G02*
X8100000Y-9420000I-120000J0D01*
G01*
X8100000Y-9420000D02*
G75*
G02*
X8340000Y-9420000I120000J0D01*
G01*
X12420000Y-6700000D02*
X8140000Y-6700000D01*
X12540000Y-9500000D02*
G75*
G02*
X12420000Y-9620000I-120000J0D01*
G01*
X12420000Y-6700000D02*
G75*
G02*
X12540000Y-6820000I0J-120000D01*
G01*
D11*
X8275777Y-9936484D02*
X8275777Y-9736484D01*
X8275777Y-9736484D02*
X8323396Y-9736484D01*
X8323396Y-9736484D02*
X8351967Y-9746008D01*
X8351967Y-9746008D02*
X8371015Y-9765055D01*
X8371015Y-9765055D02*
X8380539Y-9784103D01*
X8380539Y-9784103D02*
X8390063Y-9822198D01*
X8390063Y-9822198D02*
X8390063Y-9850770D01*
X8390063Y-9850770D02*
X8380539Y-9888865D01*
X8380539Y-9888865D02*
X8371015Y-9907912D01*
X8371015Y-9907912D02*
X8351967Y-9926960D01*
X8351967Y-9926960D02*
X8323396Y-9936484D01*
X8323396Y-9936484D02*
X8275777Y-9936484D01*
X8475777Y-9936484D02*
X8475777Y-9803150D01*
X8475777Y-9841246D02*
X8485301Y-9822198D01*
X8485301Y-9822198D02*
X8494824Y-9812674D01*
X8494824Y-9812674D02*
X8513872Y-9803150D01*
X8513872Y-9803150D02*
X8532920Y-9803150D01*
X8599586Y-9936484D02*
X8599586Y-9803150D01*
X8599586Y-9736484D02*
X8590063Y-9746008D01*
X8590063Y-9746008D02*
X8599586Y-9755531D01*
X8599586Y-9755531D02*
X8609110Y-9746008D01*
X8609110Y-9746008D02*
X8599586Y-9736484D01*
X8599586Y-9736484D02*
X8599586Y-9755531D01*
X8723396Y-9936484D02*
X8704348Y-9926960D01*
X8704348Y-9926960D02*
X8694824Y-9907912D01*
X8694824Y-9907912D02*
X8694824Y-9736484D01*
X8828158Y-9936484D02*
X8809110Y-9926960D01*
X8809110Y-9926960D02*
X8799586Y-9907912D01*
X8799586Y-9907912D02*
X8799586Y-9736484D01*
X9056729Y-9936484D02*
X9056729Y-9736484D01*
X9056729Y-9736484D02*
X9123396Y-9879341D01*
X9123396Y-9879341D02*
X9190063Y-9736484D01*
X9190063Y-9736484D02*
X9190063Y-9936484D01*
X9371015Y-9936484D02*
X9371015Y-9831722D01*
X9371015Y-9831722D02*
X9361491Y-9812674D01*
X9361491Y-9812674D02*
X9342444Y-9803150D01*
X9342444Y-9803150D02*
X9304348Y-9803150D01*
X9304348Y-9803150D02*
X9285301Y-9812674D01*
X9371015Y-9926960D02*
X9351967Y-9936484D01*
X9351967Y-9936484D02*
X9304348Y-9936484D01*
X9304348Y-9936484D02*
X9285301Y-9926960D01*
X9285301Y-9926960D02*
X9275777Y-9907912D01*
X9275777Y-9907912D02*
X9275777Y-9888865D01*
X9275777Y-9888865D02*
X9285301Y-9869817D01*
X9285301Y-9869817D02*
X9304348Y-9860293D01*
X9304348Y-9860293D02*
X9351967Y-9860293D01*
X9351967Y-9860293D02*
X9371015Y-9850770D01*
X9466253Y-9803150D02*
X9466253Y-10003150D01*
X9466253Y-9812674D02*
X9485301Y-9803150D01*
X9485301Y-9803150D02*
X9523396Y-9803150D01*
X9523396Y-9803150D02*
X9542444Y-9812674D01*
X9542444Y-9812674D02*
X9551967Y-9822198D01*
X9551967Y-9822198D02*
X9561491Y-9841246D01*
X9561491Y-9841246D02*
X9561491Y-9898389D01*
X9561491Y-9898389D02*
X9551967Y-9917436D01*
X9551967Y-9917436D02*
X9542444Y-9926960D01*
X9542444Y-9926960D02*
X9523396Y-9936484D01*
X9523396Y-9936484D02*
X9485301Y-9936484D01*
X9485301Y-9936484D02*
X9466253Y-9926960D01*
X9647205Y-9917436D02*
X9656729Y-9926960D01*
X9656729Y-9926960D02*
X9647205Y-9936484D01*
X9647205Y-9936484D02*
X9637682Y-9926960D01*
X9637682Y-9926960D02*
X9647205Y-9917436D01*
X9647205Y-9917436D02*
X9647205Y-9936484D01*
X9647205Y-9812674D02*
X9656729Y-9822198D01*
X9656729Y-9822198D02*
X9647205Y-9831722D01*
X9647205Y-9831722D02*
X9637682Y-9822198D01*
X9637682Y-9822198D02*
X9647205Y-9812674D01*
X9647205Y-9812674D02*
X9647205Y-9831722D01*
M02*
