%TF.GenerationSoftware,KiCad,Pcbnew,8.0.4*%
%TF.CreationDate,2024-09-02T15:52:59+01:00*%
%TF.ProjectId,algoritmi_foc,616c676f-7269-4746-9d69-5f666f632e6b,Andr_s Motta*%
%TF.SameCoordinates,Original*%
%TF.FileFunction,Copper,L2,Bot*%
%TF.FilePolarity,Positive*%
%FSLAX46Y46*%
G04 Gerber Fmt 4.6, Leading zero omitted, Abs format (unit mm)*
G04 Created by KiCad (PCBNEW 8.0.4) date 2024-09-02 15:52:59*
%MOMM*%
%LPD*%
G01*
G04 APERTURE LIST*
G04 Aperture macros list*
%AMRoundRect*
0 Rectangle with rounded corners*
0 $1 Rounding radius*
0 $2 $3 $4 $5 $6 $7 $8 $9 X,Y pos of 4 corners*
0 Add a 4 corners polygon primitive as box body*
4,1,4,$2,$3,$4,$5,$6,$7,$8,$9,$2,$3,0*
0 Add four circle primitives for the rounded corners*
1,1,$1+$1,$2,$3*
1,1,$1+$1,$4,$5*
1,1,$1+$1,$6,$7*
1,1,$1+$1,$8,$9*
0 Add four rect primitives between the rounded corners*
20,1,$1+$1,$2,$3,$4,$5,0*
20,1,$1+$1,$4,$5,$6,$7,0*
20,1,$1+$1,$6,$7,$8,$9,0*
20,1,$1+$1,$8,$9,$2,$3,0*%
%AMHorizOval*
0 Thick line with rounded ends*
0 $1 width*
0 $2 $3 position (X,Y) of the first rounded end (center of the circle)*
0 $4 $5 position (X,Y) of the second rounded end (center of the circle)*
0 Add line between two ends*
20,1,$1,$2,$3,$4,$5,0*
0 Add two circle primitives to create the rounded ends*
1,1,$1,$2,$3*
1,1,$1,$4,$5*%
G04 Aperture macros list end*
%TA.AperFunction,SMDPad,CuDef*%
%ADD10R,1.600000X0.800000*%
%TD*%
%TA.AperFunction,SMDPad,CuDef*%
%ADD11R,3.000000X2.100000*%
%TD*%
%TA.AperFunction,SMDPad,CuDef*%
%ADD12R,1.470000X0.970000*%
%TD*%
%TA.AperFunction,ComponentPad*%
%ADD13HorizOval,2.000000X-1.414214X1.414214X1.414214X-1.414214X0*%
%TD*%
%TA.AperFunction,ComponentPad*%
%ADD14HorizOval,2.000000X1.414214X-1.414214X-1.414214X1.414214X0*%
%TD*%
%TA.AperFunction,ComponentPad*%
%ADD15HorizOval,2.000000X-1.414214X-1.414214X1.414214X1.414214X0*%
%TD*%
%TA.AperFunction,ComponentPad*%
%ADD16C,3.500000*%
%TD*%
%TA.AperFunction,ComponentPad*%
%ADD17HorizOval,2.000000X1.414214X1.414214X-1.414214X-1.414214X0*%
%TD*%
%TA.AperFunction,ComponentPad*%
%ADD18C,2.400000*%
%TD*%
%TA.AperFunction,SMDPad,CuDef*%
%ADD19RoundRect,0.500000X-0.500000X0.500000X-0.500000X-0.500000X0.500000X-0.500000X0.500000X0.500000X0*%
%TD*%
%TA.AperFunction,ViaPad*%
%ADD20C,0.800000*%
%TD*%
%TA.AperFunction,Conductor*%
%ADD21C,0.400000*%
%TD*%
%TA.AperFunction,Conductor*%
%ADD22C,0.500000*%
%TD*%
%TA.AperFunction,Conductor*%
%ADD23C,0.300000*%
%TD*%
%TA.AperFunction,Conductor*%
%ADD24C,0.250000*%
%TD*%
G04 APERTURE END LIST*
D10*
%TO.P,J2,1,1*%
%TO.N,W_OUT*%
X128900000Y-68450000D03*
%TO.P,J2,2,2*%
%TO.N,V_OUT*%
X128900000Y-67200000D03*
%TO.P,J2,3,3*%
%TO.N,U_OUT*%
X128900000Y-65950000D03*
D11*
%TO.P,J2,MP1,MP1*%
%TO.N,unconnected-(J2-PadMP1)*%
X126000000Y-71000000D03*
%TO.P,J2,MP2,MP2*%
%TO.N,unconnected-(J2-PadMP2)*%
X126000000Y-63400000D03*
%TD*%
D12*
%TO.P,C9,1*%
%TO.N,GND*%
X70247203Y-75262559D03*
%TO.P,C9,2*%
%TO.N,+3.3V*%
X70247203Y-73602559D03*
%TD*%
D13*
%TO.P,MSW1,1,COM*%
%TO.N,GND*%
X108826745Y-74809335D03*
%TO.P,MSW1,2,NC*%
%TO.N,unconnected-(MSW1-NC-Pad2)*%
X111336974Y-72299106D03*
%TO.P,MSW1,4,NO*%
%TO.N,SW1_OUT*%
X113670427Y-69965653D03*
%TD*%
D14*
%TO.P,MSW4,1,COM*%
%TO.N,GND*%
X85049044Y-40360718D03*
%TO.P,MSW4,2,NC*%
%TO.N,unconnected-(MSW4-NC-Pad2)*%
X82538815Y-42870947D03*
%TO.P,MSW4,4,NO*%
%TO.N,SW4_OUT*%
X80205362Y-45204400D03*
%TD*%
D15*
%TO.P,MSW2,1,COM*%
%TO.N,GND*%
X113847203Y-45292559D03*
%TO.P,MSW2,2,NC*%
%TO.N,unconnected-(MSW2-NC-Pad2)*%
X111336974Y-42782330D03*
%TO.P,MSW2,4,NO*%
%TO.N,SW2_OUT*%
X109003521Y-40448877D03*
%TD*%
D16*
%TO.P,H5,1,1*%
%TO.N,N/C*%
X67308776Y-57694133D03*
%TD*%
%TO.P,H7,1,1*%
%TO.N,N/C*%
X126908776Y-57694133D03*
%TD*%
%TO.P,H6,1,1*%
%TO.N,N/C*%
X97108776Y-27894133D03*
%TD*%
D17*
%TO.P,MSW3,4,NO*%
%TO.N,SW3_OUT*%
X84877203Y-74632559D03*
%TO.P,MSW3,2,NC*%
%TO.N,unconnected-(MSW3-NC-Pad2)*%
X82543750Y-72299106D03*
%TO.P,MSW3,1,COM*%
%TO.N,GND*%
X80033521Y-69788877D03*
%TD*%
D18*
%TO.P,H3,1,1*%
%TO.N,N/C*%
X102234203Y-48816633D03*
%TD*%
%TO.P,H1,1,1*%
%TO.N,N/C*%
X102234203Y-66571632D03*
%TD*%
D16*
%TO.P,H4,1,1*%
%TO.N,N/C*%
X97108776Y-87494133D03*
%TD*%
D18*
%TO.P,H2,1,1*%
%TO.N,N/C*%
X86857922Y-57694133D03*
%TD*%
D19*
%TO.P,J1,1*%
%TO.N,+3.3V*%
X66727203Y-73040559D03*
%TO.P,J1,2*%
%TO.N,GND*%
X66727203Y-75834559D03*
%TO.P,J1,3*%
%TO.N,LCD_DATA_IN*%
X66727203Y-78628559D03*
%TO.P,J1,4*%
%TO.N,LCD_CLOCK*%
X66727203Y-81422559D03*
%TO.P,J1,5*%
%TO.N,LCD_CS*%
X66727203Y-84216559D03*
%TO.P,J1,6*%
%TO.N,LCD_DC*%
X66727203Y-87010559D03*
%TO.P,J1,7*%
%TO.N,LCD_RESET*%
X66727203Y-89804559D03*
%TO.P,J1,8*%
%TO.N,LCD_BL*%
X66727203Y-92598559D03*
%TD*%
D20*
%TO.N,SW1_OUT*%
X58200000Y-39000000D03*
%TO.N,GND*%
X63497203Y-72602559D03*
X133027203Y-80352559D03*
X126187201Y-85833945D03*
X86977203Y-38892559D03*
X119007203Y-94902559D03*
X125187205Y-85931129D03*
X117427203Y-82332559D03*
X94127203Y-91932559D03*
X132707203Y-83592559D03*
X126137203Y-84992559D03*
X114377203Y-90512559D03*
X125817203Y-78912559D03*
X66177203Y-28152559D03*
X132317203Y-78072559D03*
X124227203Y-90872559D03*
X77877203Y-68012559D03*
X121027203Y-94682559D03*
X115747203Y-47212559D03*
X115727203Y-89132559D03*
X124537203Y-96352559D03*
X125231509Y-84942561D03*
%TO.N,VS*%
X93997203Y-44552559D03*
X93817203Y-60752559D03*
X88267203Y-33522559D03*
X74467203Y-25162559D03*
%TO.N,+3.3V*%
X72266517Y-74751873D03*
%TO.N,A_OUT*%
X74837203Y-56272559D03*
X88537203Y-55742559D03*
%TO.N,Z_OUT*%
X75617203Y-58442559D03*
X70407203Y-54912559D03*
%TO.N,B_OUT*%
X97997203Y-62012559D03*
X71547203Y-58592559D03*
%TO.N,LCD_DATA_IN*%
X61637203Y-41582559D03*
%TO.N,LCD_CLOCK*%
X61537203Y-44789443D03*
%TO.N,LCD_CS*%
X64297203Y-78542559D03*
%TO.N,LCD_DC*%
X61753517Y-74786245D03*
%TO.N,LCD_RESET*%
X72517203Y-77882559D03*
%TO.N,LCD_BL*%
X63987203Y-56982559D03*
%TO.N,UH*%
X59177203Y-19972559D03*
X115237203Y-84802559D03*
%TO.N,VH*%
X59057203Y-21912559D03*
X115107203Y-86672559D03*
%TO.N,WH*%
X58337203Y-20862559D03*
X117467203Y-89702559D03*
%TO.N,UL*%
X117897203Y-95252559D03*
X58467203Y-23902559D03*
%TO.N,WL*%
X58357203Y-25662559D03*
X120117203Y-95242559D03*
%TO.N,VL*%
X58467203Y-30102559D03*
X121727203Y-96182559D03*
%TO.N,W_OUT*%
X123137203Y-83392559D03*
%TO.N,U_OUT*%
X128537203Y-83792559D03*
%TO.N,V_OUT*%
X130917203Y-79712559D03*
%TO.N,SW2_OUT*%
X66177203Y-37132559D03*
X75467203Y-28582559D03*
%TO.N,SW3_OUT*%
X70567203Y-62682559D03*
X73687203Y-62662559D03*
%TO.N,SW4_OUT*%
X73827203Y-45442559D03*
X66217203Y-48222559D03*
%TD*%
D21*
%TO.N,U_OUT*%
X134800000Y-71100000D02*
X129650000Y-65950000D01*
X129650000Y-65950000D02*
X128900000Y-65950000D01*
X134800000Y-80400000D02*
X134800000Y-71100000D01*
X133000000Y-82200000D02*
X134800000Y-80400000D01*
X130048391Y-82200000D02*
X133000000Y-82200000D01*
X128537203Y-83792559D02*
X128537203Y-83711188D01*
X128537203Y-83711188D02*
X130048391Y-82200000D01*
%TO.N,W_OUT*%
X123137203Y-83392559D02*
X128900000Y-77629762D01*
X128900000Y-77629762D02*
X128900000Y-68450000D01*
%TO.N,SW1_OUT*%
X117000000Y-73295226D02*
X113670427Y-69965653D01*
X125600000Y-93800000D02*
X125600000Y-88800000D01*
X125600000Y-88800000D02*
X117000000Y-80200000D01*
X117000000Y-80200000D02*
X117000000Y-73295226D01*
X122207441Y-97192559D02*
X125600000Y-93800000D01*
X60120961Y-97192559D02*
X122207441Y-97192559D01*
X57637203Y-39562797D02*
X57637203Y-94708801D01*
X58200000Y-39000000D02*
X57637203Y-39562797D01*
X57637203Y-94708801D02*
X60120961Y-97192559D01*
%TO.N,GND*%
X109903979Y-74809335D02*
X108826745Y-74809335D01*
X117427203Y-82332559D02*
X109903979Y-74809335D01*
%TO.N,V_OUT*%
X129650000Y-67200000D02*
X128900000Y-67200000D01*
X130917203Y-79712559D02*
X130917203Y-68467203D01*
X130917203Y-68467203D02*
X129650000Y-67200000D01*
%TO.N,GND*%
X66727203Y-75832559D02*
X63497203Y-72602559D01*
X70247203Y-75262559D02*
X67299203Y-75262559D01*
X67299203Y-75262559D02*
X66727203Y-75834559D01*
X66727203Y-75834559D02*
X66727203Y-75832559D01*
D22*
%TO.N,VS*%
X93817203Y-44732559D02*
X93997203Y-44552559D01*
X83887203Y-25162559D02*
X74467203Y-25162559D01*
X86877203Y-32132559D02*
X86877203Y-28152559D01*
X88267203Y-33522559D02*
X86877203Y-32132559D01*
X93817203Y-60752559D02*
X93817203Y-44732559D01*
X86877203Y-28152559D02*
X83887203Y-25162559D01*
D21*
%TO.N,+3.3V*%
X66727203Y-73040559D02*
X69685203Y-73040559D01*
X71117203Y-73602559D02*
X70247203Y-73602559D01*
X72266517Y-74751873D02*
X71117203Y-73602559D01*
X69685203Y-73040559D02*
X70247203Y-73602559D01*
D23*
%TO.N,A_OUT*%
X75367203Y-55742559D02*
X74837203Y-56272559D01*
X88537203Y-55742559D02*
X75367203Y-55742559D01*
%TO.N,Z_OUT*%
X72887203Y-58442559D02*
X70407203Y-55962559D01*
X75617203Y-58442559D02*
X72887203Y-58442559D01*
X70407203Y-55962559D02*
X70407203Y-54912559D01*
%TO.N,B_OUT*%
X97997203Y-62012559D02*
X97647203Y-62362559D01*
X97647203Y-62362559D02*
X85637203Y-62362559D01*
X85637203Y-62362559D02*
X82637203Y-59362559D01*
X82637203Y-59362559D02*
X72317203Y-59362559D01*
X72317203Y-59362559D02*
X71547203Y-58592559D01*
D21*
%TO.N,LCD_DATA_IN*%
X60737203Y-72638559D02*
X66727203Y-78628559D01*
X60737203Y-42482559D02*
X60737203Y-72638559D01*
X61637203Y-41582559D02*
X60737203Y-42482559D01*
%TO.N,LCD_CLOCK*%
X73277203Y-69772559D02*
X73277203Y-74872559D01*
X61537203Y-58032559D02*
X73277203Y-69772559D01*
X61537203Y-44789443D02*
X61537203Y-58032559D01*
X73277203Y-74872559D02*
X66727203Y-81422559D01*
%TO.N,LCD_CS*%
X64297203Y-81786559D02*
X64297203Y-78542559D01*
X66727203Y-84216559D02*
X64297203Y-81786559D01*
%TO.N,LCD_DC*%
X61767203Y-74799931D02*
X61767203Y-82050559D01*
X61767203Y-82050559D02*
X66727203Y-87010559D01*
X61753517Y-74786245D02*
X61767203Y-74799931D01*
%TO.N,LCD_RESET*%
X66727203Y-89804559D02*
X72517203Y-84014559D01*
X72517203Y-84014559D02*
X72517203Y-77882559D01*
%TO.N,LCD_BL*%
X63987203Y-56982559D02*
X63987203Y-59602559D01*
X73877203Y-69492559D02*
X73877203Y-85448559D01*
X73877203Y-85448559D02*
X66727203Y-92598559D01*
X63987203Y-59602559D02*
X73877203Y-69492559D01*
D23*
%TO.N,UH*%
X96525021Y-91362559D02*
X64737203Y-59574741D01*
X64737203Y-25532559D02*
X59177203Y-19972559D01*
X115237203Y-84802559D02*
X108677203Y-91362559D01*
X108677203Y-91362559D02*
X96525021Y-91362559D01*
X64737203Y-59574741D02*
X64737203Y-25532559D01*
%TO.N,VH*%
X61047203Y-41111898D02*
X60187203Y-41971898D01*
X60187203Y-41971898D02*
X60187203Y-93652559D01*
X59057203Y-21912559D02*
X61047203Y-23902559D01*
X61047203Y-23902559D02*
X61047203Y-41111898D01*
X61177203Y-94642559D02*
X107137203Y-94642559D01*
X107137203Y-94642559D02*
X115107203Y-86672559D01*
X60187203Y-93652559D02*
X61177203Y-94642559D01*
%TO.N,WH*%
X58337203Y-20862559D02*
X58307203Y-20892559D01*
X60507203Y-24423220D02*
X60507203Y-40944792D01*
X58307203Y-20892559D02*
X58307203Y-22223220D01*
X58307203Y-22223220D02*
X60507203Y-24423220D01*
X59687203Y-41764792D02*
X59687203Y-93859665D01*
X60507203Y-40944792D02*
X59687203Y-41764792D01*
X60970097Y-95142559D02*
X112027203Y-95142559D01*
X59687203Y-93859665D02*
X60970097Y-95142559D01*
X112027203Y-95142559D02*
X117467203Y-89702559D01*
%TO.N,UL*%
X60762991Y-95642559D02*
X59187203Y-94066771D01*
X117507203Y-95642559D02*
X60762991Y-95642559D01*
X59187203Y-41557686D02*
X60007203Y-40737686D01*
X60007203Y-40737686D02*
X60007203Y-25442559D01*
X59187203Y-94066771D02*
X59187203Y-41557686D01*
X117897203Y-95252559D02*
X117507203Y-95642559D01*
X60007203Y-25442559D02*
X58467203Y-23902559D01*
%TO.N,WL*%
X59507203Y-40530580D02*
X59507203Y-26812559D01*
X60555885Y-96142559D02*
X58687203Y-94273877D01*
X119217203Y-96142559D02*
X60555885Y-96142559D01*
X58687203Y-41350580D02*
X59507203Y-40530580D01*
X59507203Y-26812559D02*
X58357203Y-25662559D01*
X120117203Y-95242559D02*
X119217203Y-96142559D01*
X58687203Y-94273877D02*
X58687203Y-41350580D01*
%TO.N,VL*%
X60348779Y-96642559D02*
X58187203Y-94480983D01*
X121267203Y-96642559D02*
X60348779Y-96642559D01*
X58187203Y-94480983D02*
X58187203Y-41143474D01*
X59007203Y-30642559D02*
X58467203Y-30102559D01*
X59007203Y-40323474D02*
X59007203Y-30642559D01*
X121727203Y-96182559D02*
X121267203Y-96642559D01*
X58187203Y-41143474D02*
X59007203Y-40323474D01*
D24*
%TO.N,SW2_OUT*%
X75467203Y-28582559D02*
X66917203Y-37132559D01*
X66917203Y-37132559D02*
X66177203Y-37132559D01*
%TO.N,SW3_OUT*%
X70587203Y-62662559D02*
X70567203Y-62682559D01*
X73687203Y-62662559D02*
X70587203Y-62662559D01*
%TO.N,SW4_OUT*%
X73827203Y-45442559D02*
X71047203Y-48222559D01*
X71047203Y-48222559D02*
X66217203Y-48222559D01*
%TD*%
%TA.AperFunction,Conductor*%
%TO.N,GND*%
G36*
X61342906Y-58405101D02*
G01*
X61349384Y-58411133D01*
X72840384Y-69902133D01*
X72873869Y-69963456D01*
X72876703Y-69989814D01*
X72876703Y-74211724D01*
X72857018Y-74278763D01*
X72804214Y-74324518D01*
X72735056Y-74334462D01*
X72677218Y-74310101D01*
X72569358Y-74227337D01*
X72550744Y-74219627D01*
X72503303Y-74199976D01*
X72423279Y-74166829D01*
X72367094Y-74159432D01*
X72263002Y-74145728D01*
X72199106Y-74117461D01*
X72191507Y-74110470D01*
X71363118Y-73282081D01*
X71363116Y-73282079D01*
X71293854Y-73242090D01*
X71271790Y-73229351D01*
X71264287Y-73226244D01*
X71265088Y-73224307D01*
X71214939Y-73193730D01*
X71184417Y-73130880D01*
X71182703Y-73110332D01*
X71182703Y-73097808D01*
X71182702Y-73097806D01*
X71171071Y-73039329D01*
X71171070Y-73039328D01*
X71126755Y-72973006D01*
X71060433Y-72928691D01*
X71060432Y-72928690D01*
X71001955Y-72917059D01*
X71001951Y-72917059D01*
X70179458Y-72917059D01*
X70112419Y-72897374D01*
X70091777Y-72880740D01*
X69931118Y-72720081D01*
X69931116Y-72720079D01*
X69885453Y-72693715D01*
X69839792Y-72667352D01*
X69788860Y-72653705D01*
X69737930Y-72640059D01*
X69737929Y-72640059D01*
X68051703Y-72640059D01*
X67984664Y-72620374D01*
X67938909Y-72567570D01*
X67927703Y-72516059D01*
X67927703Y-72483945D01*
X67926678Y-72472666D01*
X67921289Y-72413363D01*
X67870681Y-72250953D01*
X67782675Y-72105374D01*
X67782673Y-72105372D01*
X67782672Y-72105370D01*
X67662391Y-71985089D01*
X67556218Y-71920905D01*
X67516809Y-71897081D01*
X67354399Y-71846473D01*
X67354397Y-71846472D01*
X67354395Y-71846472D01*
X67304981Y-71841982D01*
X67283819Y-71840059D01*
X66170587Y-71840059D01*
X66151348Y-71841807D01*
X66100010Y-71846472D01*
X65937596Y-71897081D01*
X65792014Y-71985089D01*
X65671733Y-72105370D01*
X65583725Y-72250952D01*
X65533116Y-72413366D01*
X65526703Y-72483945D01*
X65526703Y-73597172D01*
X65533116Y-73667751D01*
X65583725Y-73830165D01*
X65671733Y-73975747D01*
X65792014Y-74096028D01*
X65792016Y-74096029D01*
X65792018Y-74096031D01*
X65911235Y-74168101D01*
X65958421Y-74219627D01*
X65970260Y-74288486D01*
X65942991Y-74352815D01*
X65885273Y-74392189D01*
X65881198Y-74393431D01*
X65854344Y-74401115D01*
X65718349Y-74472152D01*
X66727203Y-75481006D01*
X66727204Y-75481006D01*
X67736056Y-74472153D01*
X67736055Y-74472152D01*
X67600061Y-74401115D01*
X67600059Y-74401114D01*
X67573208Y-74393431D01*
X67514171Y-74356064D01*
X67484708Y-74292710D01*
X67494174Y-74223484D01*
X67539563Y-74170366D01*
X67543106Y-74168139D01*
X67662388Y-74096031D01*
X67782675Y-73975744D01*
X67870681Y-73830165D01*
X67921289Y-73667755D01*
X67927703Y-73597175D01*
X67927703Y-73565059D01*
X67947388Y-73498020D01*
X68000192Y-73452265D01*
X68051703Y-73441059D01*
X69187703Y-73441059D01*
X69254742Y-73460744D01*
X69300497Y-73513548D01*
X69311703Y-73565059D01*
X69311703Y-74107311D01*
X69323334Y-74165788D01*
X69327786Y-74176534D01*
X69335255Y-74246003D01*
X69303980Y-74308482D01*
X69272658Y-74332816D01*
X69270112Y-74334205D01*
X69155015Y-74420368D01*
X69155012Y-74420371D01*
X69068852Y-74535465D01*
X69068848Y-74535472D01*
X69018606Y-74670179D01*
X69018604Y-74670186D01*
X69012203Y-74729714D01*
X69012203Y-75012559D01*
X71482203Y-75012559D01*
X71498159Y-74996602D01*
X71501888Y-74983905D01*
X71554692Y-74938150D01*
X71623850Y-74928206D01*
X71687406Y-74957231D01*
X71720764Y-75003492D01*
X71741979Y-75054711D01*
X71741980Y-75054713D01*
X71741981Y-75054714D01*
X71838235Y-75180155D01*
X71963676Y-75276409D01*
X72034961Y-75305936D01*
X72089364Y-75349777D01*
X72111429Y-75416071D01*
X72094150Y-75483770D01*
X72075189Y-75508178D01*
X71693708Y-75889659D01*
X71632385Y-75923144D01*
X71562693Y-75918160D01*
X71506760Y-75876288D01*
X71482343Y-75810824D01*
X71482236Y-75798708D01*
X71482203Y-75798708D01*
X71482203Y-75512559D01*
X70497203Y-75512559D01*
X70497203Y-76247559D01*
X71033352Y-76247559D01*
X71033352Y-76248363D01*
X71097958Y-76263615D01*
X71146485Y-76313884D01*
X71160131Y-76382408D01*
X71134564Y-76447432D01*
X71124303Y-76459064D01*
X68093095Y-79490272D01*
X68031772Y-79523757D01*
X67962080Y-79518773D01*
X67906147Y-79476901D01*
X67881730Y-79411437D01*
X67887027Y-79365706D01*
X67921289Y-79255755D01*
X67927703Y-79185175D01*
X67927703Y-78071943D01*
X67921289Y-78001363D01*
X67870681Y-77838953D01*
X67782675Y-77693374D01*
X67782673Y-77693372D01*
X67782672Y-77693370D01*
X67662391Y-77573089D01*
X67656325Y-77569422D01*
X67543169Y-77501016D01*
X67495983Y-77449490D01*
X67484145Y-77380630D01*
X67511414Y-77316302D01*
X67569133Y-77276928D01*
X67573212Y-77275685D01*
X67600060Y-77268003D01*
X67736056Y-77196964D01*
X66727203Y-76188112D01*
X66373649Y-75834558D01*
X67080756Y-75834558D01*
X67080756Y-75834559D01*
X68089608Y-76843412D01*
X68160646Y-76707418D01*
X68216593Y-76511887D01*
X68216594Y-76511884D01*
X68227202Y-76392559D01*
X68227203Y-76392557D01*
X68227203Y-75795403D01*
X69012203Y-75795403D01*
X69018604Y-75854931D01*
X69018606Y-75854938D01*
X69068848Y-75989645D01*
X69068852Y-75989652D01*
X69155012Y-76104746D01*
X69155015Y-76104749D01*
X69270109Y-76190909D01*
X69270116Y-76190913D01*
X69404823Y-76241155D01*
X69404830Y-76241157D01*
X69464358Y-76247558D01*
X69464375Y-76247559D01*
X69997203Y-76247559D01*
X69997203Y-75512559D01*
X69012203Y-75512559D01*
X69012203Y-75795403D01*
X68227203Y-75795403D01*
X68227203Y-75276561D01*
X68227202Y-75276558D01*
X68216594Y-75157233D01*
X68216593Y-75157230D01*
X68160645Y-74961697D01*
X68089608Y-74825704D01*
X67080756Y-75834558D01*
X66373649Y-75834558D01*
X65364796Y-74825705D01*
X65293759Y-74961699D01*
X65237812Y-75157230D01*
X65237811Y-75157233D01*
X65227203Y-75276558D01*
X65227203Y-76262804D01*
X65207518Y-76329843D01*
X65154714Y-76375598D01*
X65085556Y-76385542D01*
X65022000Y-76356517D01*
X65015522Y-76350485D01*
X61174022Y-72508985D01*
X61140537Y-72447662D01*
X61137703Y-72421304D01*
X61137703Y-58498814D01*
X61157388Y-58431775D01*
X61210192Y-58386020D01*
X61279350Y-58376076D01*
X61342906Y-58405101D01*
G37*
%TD.AperFunction*%
%TA.AperFunction,Conductor*%
G36*
X78400870Y-71148595D02*
G01*
X78466696Y-71262610D01*
X78559788Y-71355702D01*
X78673803Y-71421528D01*
X78737385Y-71438564D01*
X78004728Y-72171222D01*
X77943405Y-72204707D01*
X77873713Y-72199723D01*
X77829366Y-72171222D01*
X77757879Y-72099735D01*
X77651173Y-71993029D01*
X77617689Y-71931708D01*
X77622673Y-71862017D01*
X77651174Y-71817669D01*
X78383832Y-71085010D01*
X78400870Y-71148595D01*
G37*
%TD.AperFunction*%
%TA.AperFunction,Conductor*%
G36*
X133709537Y-17094142D02*
G01*
X133899820Y-17096391D01*
X133910482Y-17096978D01*
X134290017Y-17134357D01*
X134302035Y-17136140D01*
X134675325Y-17210390D01*
X134687125Y-17213345D01*
X135051360Y-17323834D01*
X135062807Y-17327930D01*
X135414444Y-17473582D01*
X135425432Y-17478779D01*
X135761114Y-17658204D01*
X135771522Y-17664442D01*
X136088009Y-17875911D01*
X136097770Y-17883150D01*
X136391986Y-18124608D01*
X136401002Y-18132780D01*
X136670125Y-18401903D01*
X136678297Y-18410919D01*
X136919754Y-18705136D01*
X136926996Y-18714900D01*
X137138458Y-19031378D01*
X137144695Y-19041782D01*
X137324128Y-19377482D01*
X137329324Y-19388469D01*
X137474970Y-19740094D01*
X137479070Y-19751551D01*
X137589553Y-20115773D01*
X137592510Y-20127578D01*
X137666760Y-20500873D01*
X137668545Y-20512910D01*
X137705920Y-20892414D01*
X137706508Y-20903095D01*
X137708767Y-21093374D01*
X137708776Y-21094846D01*
X137708776Y-94293378D01*
X137708767Y-94294876D01*
X137706467Y-94485186D01*
X137705879Y-94495840D01*
X137668507Y-94875350D01*
X137666722Y-94887388D01*
X137592473Y-95260686D01*
X137589516Y-95272490D01*
X137479040Y-95636698D01*
X137474941Y-95648155D01*
X137329295Y-95999789D01*
X137324092Y-96010790D01*
X137144682Y-96346450D01*
X137138426Y-96356888D01*
X136926976Y-96673351D01*
X136919727Y-96683125D01*
X136678281Y-96977331D01*
X136670109Y-96986348D01*
X136400980Y-97255480D01*
X136391963Y-97263652D01*
X136097759Y-97505102D01*
X136087985Y-97512351D01*
X135771524Y-97723804D01*
X135761086Y-97730060D01*
X135425432Y-97909471D01*
X135414432Y-97914674D01*
X135062801Y-98060324D01*
X135051343Y-98064424D01*
X134687122Y-98174909D01*
X134675318Y-98177865D01*
X134302041Y-98252113D01*
X134290004Y-98253899D01*
X133910492Y-98291276D01*
X133899810Y-98291864D01*
X133709534Y-98294123D01*
X133708062Y-98294132D01*
X92488776Y-98294133D01*
X60509490Y-98294132D01*
X60508019Y-98294123D01*
X60505244Y-98294090D01*
X60317741Y-98291864D01*
X60307059Y-98291276D01*
X59927546Y-98253898D01*
X59915509Y-98252112D01*
X59542232Y-98177863D01*
X59530428Y-98174907D01*
X59166205Y-98064421D01*
X59154747Y-98060321D01*
X58803115Y-97914671D01*
X58792115Y-97909468D01*
X58456459Y-97730056D01*
X58446021Y-97723800D01*
X58129559Y-97512347D01*
X58119786Y-97505099D01*
X57825574Y-97263647D01*
X57816557Y-97255474D01*
X57547435Y-96986351D01*
X57539263Y-96977335D01*
X57297810Y-96683123D01*
X57290561Y-96673349D01*
X57079108Y-96356888D01*
X57072852Y-96346450D01*
X56893441Y-96010793D01*
X56888238Y-95999793D01*
X56742587Y-95648161D01*
X56738487Y-95636703D01*
X56738485Y-95636698D01*
X56628001Y-95272478D01*
X56625046Y-95260676D01*
X56590261Y-95085798D01*
X56550795Y-94887388D01*
X56549011Y-94875362D01*
X56540807Y-94792059D01*
X56511632Y-94495840D01*
X56511045Y-94485167D01*
X56508786Y-94294889D01*
X56508777Y-94293417D01*
X56508777Y-39510067D01*
X57236703Y-39510067D01*
X57236703Y-94761527D01*
X57263996Y-94863390D01*
X57277852Y-94887388D01*
X57316723Y-94954714D01*
X59875048Y-97513039D01*
X59966373Y-97565766D01*
X60068234Y-97593059D01*
X60068236Y-97593059D01*
X122260166Y-97593059D01*
X122260168Y-97593059D01*
X122362029Y-97565766D01*
X122453354Y-97513039D01*
X125920480Y-94045913D01*
X125973207Y-93954588D01*
X126000500Y-93852727D01*
X126000500Y-93747273D01*
X126000500Y-88862729D01*
X126000501Y-88862716D01*
X126000501Y-88747274D01*
X125973206Y-88645410D01*
X125973205Y-88645409D01*
X125949331Y-88604058D01*
X125949329Y-88604056D01*
X125920482Y-88554090D01*
X125920481Y-88554089D01*
X125920480Y-88554087D01*
X125845913Y-88479520D01*
X125845912Y-88479519D01*
X125841582Y-88475189D01*
X125841571Y-88475179D01*
X120758950Y-83392557D01*
X122531521Y-83392557D01*
X122531521Y-83392560D01*
X122552158Y-83549319D01*
X122552159Y-83549321D01*
X122587978Y-83635797D01*
X122612667Y-83695400D01*
X122708921Y-83820841D01*
X122834362Y-83917095D01*
X122980441Y-83977603D01*
X123058822Y-83987922D01*
X123137202Y-83998241D01*
X123137203Y-83998241D01*
X123137204Y-83998241D01*
X123189457Y-83991361D01*
X123293965Y-83977603D01*
X123440044Y-83917095D01*
X123565485Y-83820841D01*
X123661739Y-83695400D01*
X123722247Y-83549321D01*
X123742885Y-83392559D01*
X123742884Y-83392556D01*
X123743347Y-83389044D01*
X123771613Y-83325148D01*
X123778593Y-83317560D01*
X129135703Y-77960449D01*
X129135708Y-77960446D01*
X129145911Y-77950242D01*
X129145913Y-77950242D01*
X129220480Y-77875675D01*
X129273207Y-77784349D01*
X129281250Y-77754333D01*
X129300501Y-77682489D01*
X129300501Y-77577035D01*
X129300501Y-77569440D01*
X129300500Y-77569422D01*
X129300500Y-69174500D01*
X129320185Y-69107461D01*
X129372989Y-69061706D01*
X129424500Y-69050500D01*
X129719750Y-69050500D01*
X129719751Y-69050499D01*
X129734568Y-69047552D01*
X129778229Y-69038868D01*
X129778229Y-69038867D01*
X129778231Y-69038867D01*
X129844552Y-68994552D01*
X129888867Y-68928231D01*
X129888867Y-68928229D01*
X129888868Y-68928229D01*
X129900499Y-68869752D01*
X129900500Y-68869750D01*
X129900500Y-68316254D01*
X129920185Y-68249215D01*
X129972989Y-68203460D01*
X130042147Y-68193516D01*
X130105703Y-68222541D01*
X130112171Y-68228564D01*
X130244329Y-68360721D01*
X130480384Y-68596776D01*
X130513869Y-68658099D01*
X130516703Y-68684457D01*
X130516703Y-79205978D01*
X130497018Y-79273017D01*
X130491079Y-79281464D01*
X130392667Y-79409716D01*
X130332159Y-79555796D01*
X130332158Y-79555798D01*
X130311521Y-79712557D01*
X130311521Y-79712560D01*
X130332158Y-79869319D01*
X130332159Y-79869321D01*
X130383989Y-79994451D01*
X130392667Y-80015400D01*
X130488921Y-80140841D01*
X130614362Y-80237095D01*
X130760441Y-80297603D01*
X130838822Y-80307922D01*
X130917202Y-80318241D01*
X130917203Y-80318241D01*
X130917204Y-80318241D01*
X130969457Y-80311361D01*
X131073965Y-80297603D01*
X131220044Y-80237095D01*
X131345485Y-80140841D01*
X131441739Y-80015400D01*
X131502247Y-79869321D01*
X131522885Y-79712559D01*
X131502247Y-79555797D01*
X131441739Y-79409718D01*
X131441738Y-79409717D01*
X131441738Y-79409716D01*
X131343327Y-79281464D01*
X131318133Y-79216295D01*
X131317703Y-79205978D01*
X131317703Y-68529932D01*
X131317704Y-68529919D01*
X131317704Y-68483459D01*
X131337389Y-68416420D01*
X131390193Y-68370665D01*
X131459351Y-68360721D01*
X131522907Y-68389746D01*
X131529385Y-68395778D01*
X134363181Y-71229574D01*
X134396666Y-71290897D01*
X134399500Y-71317255D01*
X134399500Y-80182745D01*
X134379815Y-80249784D01*
X134363181Y-80270426D01*
X132870426Y-81763181D01*
X132809103Y-81796666D01*
X132782745Y-81799500D01*
X130108730Y-81799500D01*
X130108714Y-81799499D01*
X130101118Y-81799499D01*
X129995664Y-81799499D01*
X129927757Y-81817695D01*
X129893803Y-81826793D01*
X129802475Y-81879522D01*
X129727909Y-81954089D01*
X128518504Y-83163493D01*
X128457181Y-83196978D01*
X128447009Y-83198751D01*
X128413267Y-83203193D01*
X128380441Y-83207515D01*
X128380440Y-83207515D01*
X128234363Y-83268022D01*
X128108921Y-83364277D01*
X128012666Y-83489719D01*
X127952159Y-83635796D01*
X127952158Y-83635798D01*
X127931521Y-83792557D01*
X127931521Y-83792560D01*
X127952158Y-83949319D01*
X127952159Y-83949321D01*
X128012667Y-84095400D01*
X128108921Y-84220841D01*
X128234362Y-84317095D01*
X128380441Y-84377603D01*
X128458822Y-84387922D01*
X128537202Y-84398241D01*
X128537203Y-84398241D01*
X128537204Y-84398241D01*
X128589457Y-84391361D01*
X128693965Y-84377603D01*
X128840044Y-84317095D01*
X128965485Y-84220841D01*
X129061739Y-84095400D01*
X129122247Y-83949321D01*
X129142885Y-83792559D01*
X129136829Y-83746561D01*
X129147594Y-83677526D01*
X129172084Y-83642697D01*
X130177964Y-82636819D01*
X130239287Y-82603334D01*
X130265645Y-82600500D01*
X133052725Y-82600500D01*
X133052727Y-82600500D01*
X133154588Y-82573207D01*
X133245913Y-82520480D01*
X135120480Y-80645913D01*
X135146699Y-80600500D01*
X135173207Y-80554587D01*
X135200500Y-80452727D01*
X135200500Y-71047273D01*
X135182307Y-70979374D01*
X135173207Y-70945412D01*
X135120480Y-70854087D01*
X129936819Y-65670426D01*
X129903334Y-65609103D01*
X129900500Y-65582745D01*
X129900500Y-65530249D01*
X129900499Y-65530247D01*
X129888868Y-65471770D01*
X129888867Y-65471769D01*
X129844552Y-65405447D01*
X129778230Y-65361132D01*
X129778229Y-65361131D01*
X129719752Y-65349500D01*
X129719748Y-65349500D01*
X128080252Y-65349500D01*
X128080247Y-65349500D01*
X128021770Y-65361131D01*
X128021769Y-65361132D01*
X127955447Y-65405447D01*
X127911132Y-65471769D01*
X127911131Y-65471770D01*
X127899500Y-65530247D01*
X127899500Y-66369752D01*
X127911131Y-66428229D01*
X127911132Y-66428230D01*
X127962233Y-66504707D01*
X127958918Y-66506921D01*
X127981699Y-66548642D01*
X127976715Y-66618334D01*
X127960243Y-66643963D01*
X127962233Y-66645293D01*
X127911132Y-66721769D01*
X127911131Y-66721770D01*
X127899500Y-66780247D01*
X127899500Y-67619752D01*
X127911131Y-67678229D01*
X127911132Y-67678230D01*
X127962233Y-67754707D01*
X127958918Y-67756921D01*
X127981699Y-67798642D01*
X127976715Y-67868334D01*
X127960243Y-67893963D01*
X127962233Y-67895293D01*
X127911132Y-67971769D01*
X127911131Y-67971770D01*
X127899500Y-68030247D01*
X127899500Y-68869752D01*
X127911131Y-68928229D01*
X127911132Y-68928230D01*
X127955447Y-68994552D01*
X128021769Y-69038867D01*
X128021770Y-69038868D01*
X128080247Y-69050499D01*
X128080250Y-69050500D01*
X128080252Y-69050500D01*
X128375500Y-69050500D01*
X128442539Y-69070185D01*
X128488294Y-69122989D01*
X128499500Y-69174500D01*
X128499500Y-77412506D01*
X128479815Y-77479545D01*
X128463181Y-77500187D01*
X123212211Y-82751156D01*
X123150888Y-82784641D01*
X123140716Y-82786414D01*
X122980441Y-82807515D01*
X122980440Y-82807515D01*
X122834363Y-82868022D01*
X122708921Y-82964277D01*
X122612666Y-83089719D01*
X122552159Y-83235796D01*
X122552158Y-83235798D01*
X122531521Y-83392557D01*
X120758950Y-83392557D01*
X117436819Y-80070426D01*
X117403334Y-80009103D01*
X117400500Y-79982745D01*
X117400500Y-73242501D01*
X117400500Y-73242499D01*
X117373207Y-73140639D01*
X117373207Y-73140638D01*
X117320480Y-73049313D01*
X116229994Y-71958827D01*
X116196509Y-71897504D01*
X116199743Y-71832833D01*
X116255581Y-71660985D01*
X116264026Y-71607660D01*
X116285141Y-71474353D01*
X116285141Y-71285379D01*
X116255581Y-71098752D01*
X116255581Y-71098749D01*
X116197188Y-70919035D01*
X116111401Y-70750668D01*
X116000331Y-70597793D01*
X115332785Y-69930247D01*
X124299500Y-69930247D01*
X124299500Y-72069752D01*
X124311131Y-72128229D01*
X124311132Y-72128230D01*
X124355447Y-72194552D01*
X124421769Y-72238867D01*
X124421770Y-72238868D01*
X124480247Y-72250499D01*
X124480250Y-72250500D01*
X124480252Y-72250500D01*
X127519750Y-72250500D01*
X127519751Y-72250499D01*
X127534568Y-72247552D01*
X127578229Y-72238868D01*
X127578229Y-72238867D01*
X127578231Y-72238867D01*
X127644552Y-72194552D01*
X127688867Y-72128231D01*
X127688867Y-72128229D01*
X127688868Y-72128229D01*
X127700499Y-72069752D01*
X127700500Y-72069750D01*
X127700500Y-69930249D01*
X127700499Y-69930247D01*
X127688868Y-69871770D01*
X127688867Y-69871769D01*
X127644552Y-69805447D01*
X127578230Y-69761132D01*
X127578229Y-69761131D01*
X127519752Y-69749500D01*
X127519748Y-69749500D01*
X124480252Y-69749500D01*
X124480247Y-69749500D01*
X124421770Y-69761131D01*
X124421769Y-69761132D01*
X124355447Y-69805447D01*
X124311132Y-69871769D01*
X124311131Y-69871770D01*
X124299500Y-69930247D01*
X115332785Y-69930247D01*
X113038287Y-67635749D01*
X112885412Y-67524679D01*
X112847879Y-67505555D01*
X112717049Y-67438893D01*
X112537331Y-67380498D01*
X112350699Y-67350939D01*
X112350694Y-67350939D01*
X112161732Y-67350939D01*
X112161727Y-67350939D01*
X111975094Y-67380498D01*
X111795376Y-67438893D01*
X111627013Y-67524679D01*
X111474136Y-67635751D01*
X111340525Y-67769362D01*
X111229453Y-67922239D01*
X111143667Y-68090602D01*
X111085272Y-68270320D01*
X111055713Y-68456952D01*
X111055713Y-68645925D01*
X111085272Y-68832557D01*
X111143667Y-69012275D01*
X111200079Y-69122989D01*
X111229453Y-69180638D01*
X111340523Y-69333513D01*
X114302567Y-72295557D01*
X114455442Y-72406627D01*
X114623809Y-72492414D01*
X114803523Y-72550807D01*
X114873511Y-72561892D01*
X114990154Y-72580367D01*
X114990159Y-72580367D01*
X115179127Y-72580367D01*
X115312434Y-72559252D01*
X115365759Y-72550807D01*
X115537607Y-72494969D01*
X115607442Y-72492974D01*
X115663601Y-72525220D01*
X116563181Y-73424800D01*
X116596666Y-73486123D01*
X116599500Y-73512481D01*
X116599500Y-80147273D01*
X116599500Y-80252727D01*
X116611524Y-80297602D01*
X116626793Y-80354589D01*
X116653156Y-80400250D01*
X116679520Y-80445913D01*
X116679521Y-80445914D01*
X116679522Y-80445915D01*
X125163181Y-88929573D01*
X125196666Y-88990896D01*
X125199500Y-89017254D01*
X125199500Y-93582745D01*
X125179815Y-93649784D01*
X125163181Y-93670426D01*
X122542947Y-96290659D01*
X122481624Y-96324144D01*
X122411932Y-96319160D01*
X122355999Y-96277288D01*
X122331582Y-96211824D01*
X122332327Y-96186790D01*
X122332885Y-96182559D01*
X122312247Y-96025797D01*
X122251739Y-95879718D01*
X122155485Y-95754277D01*
X122030044Y-95658023D01*
X122011669Y-95650412D01*
X121883965Y-95597515D01*
X121883963Y-95597514D01*
X121727204Y-95576877D01*
X121727202Y-95576877D01*
X121570442Y-95597514D01*
X121570440Y-95597515D01*
X121424363Y-95658022D01*
X121298921Y-95754277D01*
X121202666Y-95879719D01*
X121142159Y-96025796D01*
X121142158Y-96025798D01*
X121121299Y-96184244D01*
X121093033Y-96248141D01*
X121034708Y-96286612D01*
X120998360Y-96292059D01*
X119862747Y-96292059D01*
X119795708Y-96272374D01*
X119749953Y-96219570D01*
X119740009Y-96150412D01*
X119769034Y-96086856D01*
X119775057Y-96080385D01*
X119976762Y-95878680D01*
X120038081Y-95845198D01*
X120080622Y-95843425D01*
X120117203Y-95848241D01*
X120273965Y-95827603D01*
X120420044Y-95767095D01*
X120545485Y-95670841D01*
X120641739Y-95545400D01*
X120702247Y-95399321D01*
X120721568Y-95252560D01*
X120722885Y-95242560D01*
X120722885Y-95242557D01*
X120703564Y-95095798D01*
X120702247Y-95085797D01*
X120641739Y-94939718D01*
X120545485Y-94814277D01*
X120420044Y-94718023D01*
X120273965Y-94657515D01*
X120273963Y-94657514D01*
X120117204Y-94636877D01*
X120117202Y-94636877D01*
X119960442Y-94657514D01*
X119960440Y-94657515D01*
X119814363Y-94718022D01*
X119688921Y-94814277D01*
X119592666Y-94939719D01*
X119532159Y-95085796D01*
X119532158Y-95085798D01*
X119511521Y-95242556D01*
X119511521Y-95242559D01*
X119512838Y-95252560D01*
X119516336Y-95279138D01*
X119505568Y-95348173D01*
X119481077Y-95383001D01*
X119108340Y-95755740D01*
X119047017Y-95789225D01*
X119020659Y-95792059D01*
X118491591Y-95792059D01*
X118424552Y-95772374D01*
X118378797Y-95719570D01*
X118368853Y-95650412D01*
X118393216Y-95592572D01*
X118421738Y-95555401D01*
X118421737Y-95555401D01*
X118421739Y-95555400D01*
X118482247Y-95409321D01*
X118502885Y-95252559D01*
X118502303Y-95248141D01*
X118482247Y-95095798D01*
X118482247Y-95095797D01*
X118421739Y-94949718D01*
X118325485Y-94824277D01*
X118200044Y-94728023D01*
X118175899Y-94718022D01*
X118053965Y-94667515D01*
X118053963Y-94667514D01*
X117897204Y-94646877D01*
X117897202Y-94646877D01*
X117740442Y-94667514D01*
X117740440Y-94667515D01*
X117594363Y-94728022D01*
X117468921Y-94824277D01*
X117372666Y-94949719D01*
X117312159Y-95095796D01*
X117312158Y-95095798D01*
X117300515Y-95184244D01*
X117272249Y-95248141D01*
X117213924Y-95286612D01*
X117177576Y-95292059D01*
X112672747Y-95292059D01*
X112605708Y-95272374D01*
X112559953Y-95219570D01*
X112550009Y-95150412D01*
X112579034Y-95086856D01*
X112585066Y-95080378D01*
X113710856Y-93954588D01*
X117326761Y-90338681D01*
X117388082Y-90305198D01*
X117430622Y-90303425D01*
X117467203Y-90308241D01*
X117623965Y-90287603D01*
X117770044Y-90227095D01*
X117895485Y-90130841D01*
X117991739Y-90005400D01*
X118052247Y-89859321D01*
X118072885Y-89702559D01*
X118052247Y-89545797D01*
X117991739Y-89399718D01*
X117895485Y-89274277D01*
X117770044Y-89178023D01*
X117767533Y-89176983D01*
X117623965Y-89117515D01*
X117623963Y-89117514D01*
X117467204Y-89096877D01*
X117467202Y-89096877D01*
X117310442Y-89117514D01*
X117310440Y-89117515D01*
X117164363Y-89178022D01*
X117038921Y-89274277D01*
X116942666Y-89399719D01*
X116882159Y-89545796D01*
X116882158Y-89545798D01*
X116861521Y-89702556D01*
X116861521Y-89702559D01*
X116864130Y-89722383D01*
X116866336Y-89739138D01*
X116855568Y-89808173D01*
X116831077Y-89843001D01*
X111918340Y-94755740D01*
X111857017Y-94789225D01*
X111830659Y-94792059D01*
X107782747Y-94792059D01*
X107715708Y-94772374D01*
X107669953Y-94719570D01*
X107660009Y-94650412D01*
X107689034Y-94586856D01*
X107695066Y-94580378D01*
X109120272Y-93155172D01*
X114966761Y-87308681D01*
X115028082Y-87275198D01*
X115070622Y-87273425D01*
X115107203Y-87278241D01*
X115263965Y-87257603D01*
X115410044Y-87197095D01*
X115535485Y-87100841D01*
X115631739Y-86975400D01*
X115692247Y-86829321D01*
X115712885Y-86672559D01*
X115692247Y-86515797D01*
X115631739Y-86369718D01*
X115535485Y-86244277D01*
X115410044Y-86148023D01*
X115263965Y-86087515D01*
X115263963Y-86087514D01*
X115107204Y-86066877D01*
X115107202Y-86066877D01*
X114950442Y-86087514D01*
X114950440Y-86087515D01*
X114804363Y-86148022D01*
X114678921Y-86244277D01*
X114582666Y-86369719D01*
X114522159Y-86515796D01*
X114522158Y-86515798D01*
X114501521Y-86672556D01*
X114501521Y-86672559D01*
X114502736Y-86681790D01*
X114506336Y-86709138D01*
X114495568Y-86778173D01*
X114471077Y-86813001D01*
X107028340Y-94255740D01*
X106967017Y-94289225D01*
X106940659Y-94292059D01*
X61373746Y-94292059D01*
X61306707Y-94272374D01*
X61286065Y-94255740D01*
X60574022Y-93543696D01*
X60540537Y-93482373D01*
X60537703Y-93456015D01*
X60537703Y-73304814D01*
X60557388Y-73237775D01*
X60610192Y-73192020D01*
X60679350Y-73182076D01*
X60742906Y-73211101D01*
X60749384Y-73217133D01*
X61562190Y-74029939D01*
X61595675Y-74091262D01*
X61590691Y-74160954D01*
X61548819Y-74216887D01*
X61521962Y-74232181D01*
X61450677Y-74261708D01*
X61325235Y-74357963D01*
X61228980Y-74483405D01*
X61168473Y-74629482D01*
X61168472Y-74629484D01*
X61147835Y-74786243D01*
X61147835Y-74786246D01*
X61168472Y-74943005D01*
X61168473Y-74943007D01*
X61214743Y-75054714D01*
X61228981Y-75089086D01*
X61325235Y-75214527D01*
X61325237Y-75214528D01*
X61325239Y-75214531D01*
X61330384Y-75219676D01*
X61363869Y-75280999D01*
X61366703Y-75307357D01*
X61366703Y-82103285D01*
X61393996Y-82205148D01*
X61408093Y-82229564D01*
X61446723Y-82296472D01*
X61446725Y-82296474D01*
X65492092Y-86341841D01*
X65525577Y-86403164D01*
X65527902Y-86440738D01*
X65526703Y-86453943D01*
X65526703Y-86453945D01*
X65526703Y-86453950D01*
X65526703Y-87567172D01*
X65533116Y-87637751D01*
X65533116Y-87637753D01*
X65533117Y-87637755D01*
X65567378Y-87747703D01*
X65583725Y-87800165D01*
X65671733Y-87945747D01*
X65792014Y-88066028D01*
X65792016Y-88066029D01*
X65792018Y-88066031D01*
X65937597Y-88154037D01*
X66100007Y-88204645D01*
X66170587Y-88211059D01*
X66170590Y-88211059D01*
X67283816Y-88211059D01*
X67283819Y-88211059D01*
X67354399Y-88204645D01*
X67464348Y-88170383D01*
X67534207Y-88169232D01*
X67593599Y-88206033D01*
X67623667Y-88269102D01*
X67614865Y-88338415D01*
X67588918Y-88376450D01*
X67395920Y-88569448D01*
X67334597Y-88602933D01*
X67297023Y-88605258D01*
X67283819Y-88604059D01*
X66170587Y-88604059D01*
X66151348Y-88605807D01*
X66100010Y-88610472D01*
X65937596Y-88661081D01*
X65792014Y-88749089D01*
X65671733Y-88869370D01*
X65583725Y-89014952D01*
X65533116Y-89177366D01*
X65526703Y-89247945D01*
X65526703Y-90361172D01*
X65533116Y-90431751D01*
X65583725Y-90594165D01*
X65671733Y-90739747D01*
X65792014Y-90860028D01*
X65792016Y-90860029D01*
X65792018Y-90860031D01*
X65937597Y-90948037D01*
X66100007Y-90998645D01*
X66170587Y-91005059D01*
X66170590Y-91005059D01*
X67283816Y-91005059D01*
X67283819Y-91005059D01*
X67354399Y-90998645D01*
X67464348Y-90964383D01*
X67534205Y-90963234D01*
X67593598Y-91000035D01*
X67623666Y-91063104D01*
X67614863Y-91132416D01*
X67588916Y-91170451D01*
X67395919Y-91363448D01*
X67334596Y-91396933D01*
X67297022Y-91399258D01*
X67283819Y-91398059D01*
X66170587Y-91398059D01*
X66151348Y-91399807D01*
X66100010Y-91404472D01*
X65937596Y-91455081D01*
X65792014Y-91543089D01*
X65671733Y-91663370D01*
X65583725Y-91808952D01*
X65533116Y-91971366D01*
X65526703Y-92041945D01*
X65526703Y-93155172D01*
X65533116Y-93225751D01*
X65583725Y-93388165D01*
X65671733Y-93533747D01*
X65792014Y-93654028D01*
X65792016Y-93654029D01*
X65792018Y-93654031D01*
X65937597Y-93742037D01*
X66100007Y-93792645D01*
X66170587Y-93799059D01*
X66170590Y-93799059D01*
X67283816Y-93799059D01*
X67283819Y-93799059D01*
X67354399Y-93792645D01*
X67516809Y-93742037D01*
X67662388Y-93654031D01*
X67782675Y-93533744D01*
X67870681Y-93388165D01*
X67921289Y-93225755D01*
X67927703Y-93155175D01*
X67927703Y-92041943D01*
X67926503Y-92028742D01*
X67940039Y-91960199D01*
X67962310Y-91929843D01*
X74197683Y-85694472D01*
X74250410Y-85603147D01*
X74277703Y-85501286D01*
X74277703Y-85395832D01*
X74277703Y-69910284D01*
X74297388Y-69843245D01*
X74350192Y-69797490D01*
X74419350Y-69787546D01*
X74482906Y-69816571D01*
X74489384Y-69822603D01*
X96244552Y-91577771D01*
X96309809Y-91643028D01*
X96309812Y-91643029D01*
X96309815Y-91643032D01*
X96389727Y-91689170D01*
X96389728Y-91689170D01*
X96389733Y-91689173D01*
X96478877Y-91713059D01*
X96478879Y-91713059D01*
X108723345Y-91713059D01*
X108723347Y-91713059D01*
X108812491Y-91689173D01*
X108892415Y-91643029D01*
X115096761Y-85438681D01*
X115158082Y-85405198D01*
X115200622Y-85403425D01*
X115237203Y-85408241D01*
X115393965Y-85387603D01*
X115540044Y-85327095D01*
X115665485Y-85230841D01*
X115761739Y-85105400D01*
X115822247Y-84959321D01*
X115836005Y-84854813D01*
X115842885Y-84802560D01*
X115842885Y-84802557D01*
X115822247Y-84645798D01*
X115822247Y-84645797D01*
X115761739Y-84499718D01*
X115665485Y-84374277D01*
X115540044Y-84278023D01*
X115393965Y-84217515D01*
X115393963Y-84217514D01*
X115237204Y-84196877D01*
X115237202Y-84196877D01*
X115080442Y-84217514D01*
X115080440Y-84217515D01*
X114934363Y-84278022D01*
X114808921Y-84374277D01*
X114712666Y-84499719D01*
X114652159Y-84645796D01*
X114652158Y-84645798D01*
X114635389Y-84773175D01*
X114631521Y-84802559D01*
X114634130Y-84822383D01*
X114636336Y-84839138D01*
X114625568Y-84908173D01*
X114601077Y-84943001D01*
X108568340Y-90975740D01*
X108507017Y-91009225D01*
X108480659Y-91012059D01*
X96721564Y-91012059D01*
X96654525Y-90992374D01*
X96633883Y-90975740D01*
X93152274Y-87494131D01*
X95153294Y-87494131D01*
X95153294Y-87494134D01*
X95173198Y-87772432D01*
X95232503Y-88045049D01*
X95232505Y-88045056D01*
X95273152Y-88154036D01*
X95330007Y-88306471D01*
X95330009Y-88306475D01*
X95463716Y-88551340D01*
X95463721Y-88551348D01*
X95630914Y-88774693D01*
X95630930Y-88774711D01*
X95828197Y-88971978D01*
X95828215Y-88971994D01*
X96051560Y-89139187D01*
X96051568Y-89139192D01*
X96296433Y-89272899D01*
X96296437Y-89272901D01*
X96296439Y-89272902D01*
X96557853Y-89370404D01*
X96692607Y-89399718D01*
X96830476Y-89429710D01*
X96830478Y-89429710D01*
X96830482Y-89429711D01*
X97077790Y-89447398D01*
X97108775Y-89449615D01*
X97108776Y-89449615D01*
X97108777Y-89449615D01*
X97136657Y-89447620D01*
X97387070Y-89429711D01*
X97659699Y-89370404D01*
X97921113Y-89272902D01*
X98165989Y-89139189D01*
X98389344Y-88971988D01*
X98586631Y-88774701D01*
X98753832Y-88551346D01*
X98887545Y-88306470D01*
X98985047Y-88045056D01*
X99044354Y-87772427D01*
X99064258Y-87494133D01*
X99044354Y-87215839D01*
X99040276Y-87197095D01*
X99014700Y-87079524D01*
X98985047Y-86943210D01*
X98887545Y-86681796D01*
X98796902Y-86515797D01*
X98753835Y-86436925D01*
X98753830Y-86436917D01*
X98586637Y-86213572D01*
X98586621Y-86213554D01*
X98389354Y-86016287D01*
X98389336Y-86016271D01*
X98165991Y-85849078D01*
X98165983Y-85849073D01*
X97921118Y-85715366D01*
X97921114Y-85715364D01*
X97822006Y-85678399D01*
X97659699Y-85617862D01*
X97659695Y-85617861D01*
X97659692Y-85617860D01*
X97387075Y-85558555D01*
X97108777Y-85538651D01*
X97108775Y-85538651D01*
X96830476Y-85558555D01*
X96557859Y-85617860D01*
X96557854Y-85617861D01*
X96557853Y-85617862D01*
X96494651Y-85641434D01*
X96296437Y-85715364D01*
X96296433Y-85715366D01*
X96051568Y-85849073D01*
X96051560Y-85849078D01*
X95828215Y-86016271D01*
X95828197Y-86016287D01*
X95630930Y-86213554D01*
X95630914Y-86213572D01*
X95463721Y-86436917D01*
X95463716Y-86436925D01*
X95330009Y-86681790D01*
X95330007Y-86681794D01*
X95232503Y-86943216D01*
X95173198Y-87215833D01*
X95153294Y-87494131D01*
X93152274Y-87494131D01*
X83088122Y-77429978D01*
X83054637Y-77368655D01*
X83059621Y-77298963D01*
X83101493Y-77243030D01*
X83166957Y-77218613D01*
X83195198Y-77219823D01*
X83235022Y-77226131D01*
X83368503Y-77247273D01*
X83368508Y-77247273D01*
X83557475Y-77247273D01*
X83744107Y-77217713D01*
X83807965Y-77196964D01*
X83923821Y-77159320D01*
X84092188Y-77073533D01*
X84245063Y-76962463D01*
X87207107Y-74000419D01*
X87318177Y-73847544D01*
X87403964Y-73679177D01*
X87462357Y-73499463D01*
X87488310Y-73335602D01*
X87491917Y-73312832D01*
X87491917Y-73123858D01*
X87462357Y-72937226D01*
X87435136Y-72853449D01*
X87403964Y-72757513D01*
X87403962Y-72757510D01*
X87403962Y-72757508D01*
X87344118Y-72640059D01*
X87318177Y-72589146D01*
X87207107Y-72436272D01*
X87073490Y-72302655D01*
X86920616Y-72191585D01*
X86883083Y-72172461D01*
X86752253Y-72105799D01*
X86572535Y-72047404D01*
X86385903Y-72017845D01*
X86385898Y-72017845D01*
X86196935Y-72017845D01*
X86196930Y-72017845D01*
X86010302Y-72047404D01*
X85830582Y-72105799D01*
X85662217Y-72191585D01*
X85509340Y-72302657D01*
X82547301Y-75264696D01*
X82436229Y-75417573D01*
X82350443Y-75585936D01*
X82292048Y-75765654D01*
X82262489Y-75952286D01*
X82262489Y-76141259D01*
X82289937Y-76314560D01*
X82280982Y-76383854D01*
X82235986Y-76437306D01*
X82169235Y-76457945D01*
X82101921Y-76439220D01*
X82079783Y-76421639D01*
X80754669Y-75096525D01*
X80721184Y-75035202D01*
X80726168Y-74965510D01*
X80768040Y-74909577D01*
X80833504Y-74885160D01*
X80861745Y-74886370D01*
X80901569Y-74892678D01*
X81035050Y-74913820D01*
X81035055Y-74913820D01*
X81224022Y-74913820D01*
X81410654Y-74884260D01*
X81590368Y-74825867D01*
X81758735Y-74740080D01*
X81911610Y-74629010D01*
X84873654Y-71666966D01*
X84984724Y-71514091D01*
X85070511Y-71345724D01*
X85128904Y-71166010D01*
X85145795Y-71059360D01*
X85158464Y-70979377D01*
X85158464Y-70790405D01*
X85128904Y-70603773D01*
X85070509Y-70424055D01*
X85012848Y-70310890D01*
X84984724Y-70255693D01*
X84873654Y-70102819D01*
X84740037Y-69969202D01*
X84587163Y-69858132D01*
X84557946Y-69843245D01*
X84418800Y-69772346D01*
X84239082Y-69713951D01*
X84052450Y-69684392D01*
X84052445Y-69684392D01*
X83863482Y-69684392D01*
X83863477Y-69684392D01*
X83676849Y-69713951D01*
X83497129Y-69772346D01*
X83328764Y-69858132D01*
X83175887Y-69969204D01*
X80213848Y-72931243D01*
X80102776Y-73084120D01*
X80016990Y-73252483D01*
X79958595Y-73432201D01*
X79929036Y-73618833D01*
X79929036Y-73807806D01*
X79956484Y-73981107D01*
X79947529Y-74050401D01*
X79902533Y-74103853D01*
X79835782Y-74124492D01*
X79768468Y-74105767D01*
X79746330Y-74088186D01*
X78572916Y-72914772D01*
X78539431Y-72853449D01*
X78544415Y-72783757D01*
X78586287Y-72727824D01*
X78651751Y-72703407D01*
X78660597Y-72703091D01*
X78737359Y-72703091D01*
X78970554Y-72666156D01*
X79195109Y-72593193D01*
X79405478Y-72486005D01*
X79596493Y-72347224D01*
X82591868Y-69351849D01*
X82730649Y-69160834D01*
X82837837Y-68950465D01*
X82910800Y-68725910D01*
X82947735Y-68492715D01*
X82947735Y-68256610D01*
X82910800Y-68023415D01*
X82837837Y-67798860D01*
X82730651Y-67588495D01*
X82670393Y-67505555D01*
X81683208Y-68492740D01*
X81666172Y-68429159D01*
X81600346Y-68315144D01*
X81507254Y-68222052D01*
X81393239Y-68156226D01*
X81329654Y-68139188D01*
X82316840Y-67152003D01*
X82316839Y-67152001D01*
X82233909Y-67091750D01*
X82023537Y-66984560D01*
X81798982Y-66911597D01*
X81798983Y-66911597D01*
X81565787Y-66874663D01*
X81329683Y-66874663D01*
X81096487Y-66911597D01*
X80871932Y-66984560D01*
X80661563Y-67091748D01*
X80470548Y-67230529D01*
X79149637Y-68551440D01*
X79856744Y-69258547D01*
X79503191Y-69612100D01*
X78796084Y-68904993D01*
X78796083Y-68904993D01*
X77475173Y-70225904D01*
X77336392Y-70416919D01*
X77229204Y-70627288D01*
X77156241Y-70851843D01*
X77119307Y-71085038D01*
X77119307Y-71161801D01*
X77099622Y-71228840D01*
X77046818Y-71274595D01*
X76977660Y-71284539D01*
X76914104Y-71255514D01*
X76907626Y-71249482D01*
X68340701Y-62682557D01*
X69961521Y-62682557D01*
X69961521Y-62682559D01*
X69982158Y-62839319D01*
X69982159Y-62839321D01*
X70042667Y-62985400D01*
X70138921Y-63110841D01*
X70264362Y-63207095D01*
X70410441Y-63267603D01*
X70488822Y-63277922D01*
X70567202Y-63288241D01*
X70567203Y-63288241D01*
X70567204Y-63288241D01*
X70619457Y-63281361D01*
X70723965Y-63267603D01*
X70870044Y-63207095D01*
X70995485Y-63110841D01*
X71052474Y-63036570D01*
X71108901Y-62995370D01*
X71150849Y-62988059D01*
X73118904Y-62988059D01*
X73185943Y-63007744D01*
X73217279Y-63036572D01*
X73258921Y-63090841D01*
X73384362Y-63187095D01*
X73530441Y-63247603D01*
X73608822Y-63257922D01*
X73687202Y-63268241D01*
X73687203Y-63268241D01*
X73687204Y-63268241D01*
X73739457Y-63261361D01*
X73843965Y-63247603D01*
X73990044Y-63187095D01*
X74115485Y-63090841D01*
X74211739Y-62965400D01*
X74272247Y-62819321D01*
X74289381Y-62689172D01*
X74292885Y-62662560D01*
X74292885Y-62662557D01*
X74272247Y-62505798D01*
X74272247Y-62505797D01*
X74211739Y-62359718D01*
X74115485Y-62234277D01*
X73990044Y-62138023D01*
X73843965Y-62077515D01*
X73843963Y-62077514D01*
X73687204Y-62056877D01*
X73687202Y-62056877D01*
X73530442Y-62077514D01*
X73530440Y-62077515D01*
X73384363Y-62138022D01*
X73258919Y-62234278D01*
X73217280Y-62288545D01*
X73160852Y-62329748D01*
X73118904Y-62337059D01*
X71120156Y-62337059D01*
X71053117Y-62317374D01*
X71021781Y-62288546D01*
X70995487Y-62254279D01*
X70995485Y-62254278D01*
X70995485Y-62254277D01*
X70870044Y-62158023D01*
X70821757Y-62138022D01*
X70723965Y-62097515D01*
X70723963Y-62097514D01*
X70567204Y-62076877D01*
X70567202Y-62076877D01*
X70410442Y-62097514D01*
X70410440Y-62097515D01*
X70264363Y-62158022D01*
X70138921Y-62254277D01*
X70042666Y-62379719D01*
X69982159Y-62525796D01*
X69982158Y-62525798D01*
X69961521Y-62682557D01*
X68340701Y-62682557D01*
X66352244Y-60694100D01*
X73315997Y-60694100D01*
X73336354Y-60835695D01*
X73395778Y-60965820D01*
X73395782Y-60965825D01*
X73473395Y-61055398D01*
X73489456Y-61073934D01*
X73609796Y-61151277D01*
X73678423Y-61171430D01*
X73747050Y-61191584D01*
X73818566Y-61194132D01*
X73818577Y-61194132D01*
X81099045Y-61194132D01*
X81102896Y-61194191D01*
X81152806Y-61195743D01*
X81181447Y-61200016D01*
X81219508Y-61210350D01*
X81279605Y-61226669D01*
X81309834Y-61239370D01*
X81395879Y-61289827D01*
X81421721Y-61310006D01*
X81491530Y-61381248D01*
X81511182Y-61407497D01*
X81560833Y-61496255D01*
X81571927Y-61523020D01*
X81585636Y-61571453D01*
X81586440Y-61574438D01*
X81683659Y-61953752D01*
X81911511Y-62706285D01*
X82048905Y-63090840D01*
X82176054Y-63446723D01*
X82476646Y-64173269D01*
X82476650Y-64173279D01*
X82476652Y-64173282D01*
X82582050Y-64396337D01*
X82812563Y-64884173D01*
X83182993Y-65577720D01*
X83182995Y-65577723D01*
X83587033Y-66252217D01*
X83587050Y-66252244D01*
X83737884Y-66478085D01*
X84023737Y-66906086D01*
X84023740Y-66906090D01*
X84023743Y-66906094D01*
X84023756Y-66906112D01*
X84212927Y-67161262D01*
X84492021Y-67537699D01*
X84492031Y-67537712D01*
X84492034Y-67537715D01*
X84990740Y-68145520D01*
X84990757Y-68145539D01*
X84990764Y-68145548D01*
X85518763Y-68728165D01*
X86074742Y-69284144D01*
X86657359Y-69812142D01*
X86657365Y-69812147D01*
X86657371Y-69812152D01*
X86873899Y-69989814D01*
X87265209Y-70310885D01*
X87408226Y-70416919D01*
X87896817Y-70779166D01*
X88298254Y-71047276D01*
X88550675Y-71215862D01*
X89225189Y-71619912D01*
X89918735Y-71990342D01*
X90629640Y-72326258D01*
X91356187Y-72626849D01*
X91998515Y-72856338D01*
X92096629Y-72891393D01*
X92600234Y-73043873D01*
X92849156Y-73119241D01*
X93228424Y-73216457D01*
X93231466Y-73217278D01*
X93279926Y-73231026D01*
X93306601Y-73242090D01*
X93395402Y-73291749D01*
X93421657Y-73311400D01*
X93492902Y-73381198D01*
X93513085Y-73407041D01*
X93563546Y-73493083D01*
X93576248Y-73523313D01*
X93602897Y-73621450D01*
X93607172Y-73650110D01*
X93608717Y-73700036D01*
X93608776Y-73703871D01*
X93608776Y-80984323D01*
X93611320Y-81055855D01*
X93611320Y-81055857D01*
X93651620Y-81193106D01*
X93651621Y-81193108D01*
X93728958Y-81313446D01*
X93837066Y-81407122D01*
X93902125Y-81436833D01*
X93967184Y-81466545D01*
X93984982Y-81469104D01*
X94108776Y-81486903D01*
X94250367Y-81466545D01*
X94380486Y-81407122D01*
X94488594Y-81313446D01*
X94565931Y-81193108D01*
X94606232Y-81055855D01*
X94608776Y-80984332D01*
X94608777Y-72939117D01*
X99607566Y-72939117D01*
X99608775Y-72951254D01*
X99608775Y-80984323D01*
X99611319Y-81055855D01*
X99611319Y-81055857D01*
X99651619Y-81193106D01*
X99651620Y-81193108D01*
X99728957Y-81313446D01*
X99837065Y-81407122D01*
X99902124Y-81436833D01*
X99967183Y-81466545D01*
X99984981Y-81469104D01*
X100108775Y-81486903D01*
X100250366Y-81466545D01*
X100380485Y-81407122D01*
X100488593Y-81313446D01*
X100565930Y-81193108D01*
X100606231Y-81055855D01*
X100608775Y-80984332D01*
X100608775Y-73703913D01*
X100608837Y-73699987D01*
X100610418Y-73650075D01*
X100614692Y-73621497D01*
X100615416Y-73618832D01*
X100641362Y-73523313D01*
X100654054Y-73493107D01*
X100704518Y-73407048D01*
X100724681Y-73381225D01*
X100795934Y-73311393D01*
X100822155Y-73291757D01*
X100848403Y-73277068D01*
X105912531Y-73277068D01*
X105912531Y-73513173D01*
X105949465Y-73746368D01*
X106022428Y-73970923D01*
X106129616Y-74181292D01*
X106268397Y-74372307D01*
X107589308Y-75693218D01*
X108296415Y-74986111D01*
X108649967Y-75339664D01*
X107942861Y-76046771D01*
X109263772Y-77367682D01*
X109454787Y-77506463D01*
X109665156Y-77613651D01*
X109889711Y-77686614D01*
X109889710Y-77686614D01*
X110122907Y-77723549D01*
X110359011Y-77723549D01*
X110592206Y-77686614D01*
X110816761Y-77613651D01*
X111027122Y-77506467D01*
X111027128Y-77506463D01*
X111110063Y-77446207D01*
X111110064Y-77446207D01*
X110122879Y-76459023D01*
X110186463Y-76441986D01*
X110300478Y-76376160D01*
X110393570Y-76283068D01*
X110459396Y-76169053D01*
X110476432Y-76105470D01*
X111463617Y-77092655D01*
X111463617Y-77092654D01*
X111523873Y-77009720D01*
X111631061Y-76799351D01*
X111704024Y-76574796D01*
X111740959Y-76341601D01*
X111740959Y-76105496D01*
X111704024Y-75872301D01*
X111631061Y-75647746D01*
X111523873Y-75437377D01*
X111385092Y-75246362D01*
X108389717Y-72250987D01*
X108198702Y-72112206D01*
X107988333Y-72005018D01*
X107763778Y-71932055D01*
X107763779Y-71932055D01*
X107530583Y-71895121D01*
X107294479Y-71895121D01*
X107061283Y-71932055D01*
X106836728Y-72005018D01*
X106626361Y-72112205D01*
X106543425Y-72172461D01*
X107530610Y-73159646D01*
X107467027Y-73176684D01*
X107353012Y-73242510D01*
X107259920Y-73335602D01*
X107194094Y-73449617D01*
X107177057Y-73513199D01*
X106189871Y-72526014D01*
X106189870Y-72526014D01*
X106129617Y-72608947D01*
X106022428Y-72819318D01*
X105949465Y-73043873D01*
X105912531Y-73277068D01*
X100848403Y-73277068D01*
X100910917Y-73242084D01*
X100937666Y-73230993D01*
X100986078Y-73217279D01*
X100989039Y-73216479D01*
X101368396Y-73119244D01*
X101963311Y-72939117D01*
X102120922Y-72891396D01*
X102120927Y-72891394D01*
X102120931Y-72891393D01*
X102861366Y-72626853D01*
X103587913Y-72326262D01*
X104298818Y-71990347D01*
X104992364Y-71619917D01*
X105666879Y-71215868D01*
X106020974Y-70979376D01*
X108722259Y-70979376D01*
X108751819Y-71166010D01*
X108810214Y-71345728D01*
X108896000Y-71514091D01*
X109007070Y-71666966D01*
X111969114Y-74629010D01*
X112121989Y-74740080D01*
X112290356Y-74825867D01*
X112470070Y-74884260D01*
X112540058Y-74895345D01*
X112656701Y-74913820D01*
X112656706Y-74913820D01*
X112845674Y-74913820D01*
X113032306Y-74884260D01*
X113212020Y-74825867D01*
X113380387Y-74740080D01*
X113533261Y-74629010D01*
X113666878Y-74495393D01*
X113777948Y-74342519D01*
X113863735Y-74174152D01*
X113922128Y-73994438D01*
X113929227Y-73949616D01*
X113951688Y-73807806D01*
X113951688Y-73618832D01*
X113926708Y-73461119D01*
X113922128Y-73432202D01*
X113863735Y-73252488D01*
X113777948Y-73084121D01*
X113666878Y-72931246D01*
X110704834Y-69969202D01*
X110551959Y-69858132D01*
X110522742Y-69843245D01*
X110383596Y-69772346D01*
X110203878Y-69713951D01*
X110017246Y-69684392D01*
X110017241Y-69684392D01*
X109828279Y-69684392D01*
X109828274Y-69684392D01*
X109641641Y-69713951D01*
X109461923Y-69772346D01*
X109293560Y-69858132D01*
X109140683Y-69969204D01*
X109007072Y-70102815D01*
X108896000Y-70255692D01*
X108810214Y-70424055D01*
X108751819Y-70603773D01*
X108722260Y-70790405D01*
X108722260Y-70979375D01*
X108722259Y-70979376D01*
X106020974Y-70979376D01*
X106320732Y-70779174D01*
X106952345Y-70310890D01*
X107560195Y-69812147D01*
X108142812Y-69284149D01*
X108698791Y-68728170D01*
X109226789Y-68145552D01*
X109725532Y-67537703D01*
X110193815Y-66906090D01*
X110630509Y-66252236D01*
X111034558Y-65577722D01*
X111404988Y-64884175D01*
X111740904Y-64173270D01*
X112041494Y-63446723D01*
X112306034Y-62706288D01*
X112419891Y-62330247D01*
X124299500Y-62330247D01*
X124299500Y-64469752D01*
X124311131Y-64528229D01*
X124311132Y-64528230D01*
X124355447Y-64594552D01*
X124421769Y-64638867D01*
X124421770Y-64638868D01*
X124480247Y-64650499D01*
X124480250Y-64650500D01*
X124480252Y-64650500D01*
X127519750Y-64650500D01*
X127519751Y-64650499D01*
X127534568Y-64647552D01*
X127578229Y-64638868D01*
X127578229Y-64638867D01*
X127578231Y-64638867D01*
X127644552Y-64594552D01*
X127688867Y-64528231D01*
X127688867Y-64528229D01*
X127688868Y-64528229D01*
X127700499Y-64469752D01*
X127700500Y-64469750D01*
X127700500Y-62330249D01*
X127700499Y-62330247D01*
X127688868Y-62271770D01*
X127688867Y-62271769D01*
X127644552Y-62205447D01*
X127578230Y-62161132D01*
X127578229Y-62161131D01*
X127519752Y-62149500D01*
X127519748Y-62149500D01*
X124480252Y-62149500D01*
X124480247Y-62149500D01*
X124421770Y-62161131D01*
X124421769Y-62161132D01*
X124355447Y-62205447D01*
X124311132Y-62271769D01*
X124311131Y-62271770D01*
X124299500Y-62330247D01*
X112419891Y-62330247D01*
X112533885Y-61953753D01*
X112631130Y-61574366D01*
X112631888Y-61571553D01*
X112645597Y-61523041D01*
X112656707Y-61496225D01*
X112706359Y-61407488D01*
X112726004Y-61381253D01*
X112795832Y-61310001D01*
X112821661Y-61289833D01*
X112907727Y-61239366D01*
X112937939Y-61226673D01*
X113036103Y-61200013D01*
X113064745Y-61195740D01*
X113110243Y-61194329D01*
X113114654Y-61194193D01*
X113118496Y-61194133D01*
X120398969Y-61194133D01*
X120398975Y-61194133D01*
X120452642Y-61192365D01*
X120470534Y-61191776D01*
X120470534Y-61191775D01*
X120607850Y-61151462D01*
X120728247Y-61074093D01*
X120821969Y-60965937D01*
X120881423Y-60835757D01*
X120901791Y-60694100D01*
X120882376Y-60559071D01*
X120881423Y-60552441D01*
X120881422Y-60552440D01*
X120821972Y-60422270D01*
X120821969Y-60422263D01*
X120728247Y-60314107D01*
X120607850Y-60236738D01*
X120607849Y-60236737D01*
X120607848Y-60236737D01*
X120607846Y-60236736D01*
X120470535Y-60196424D01*
X120470536Y-60196424D01*
X120454630Y-60195914D01*
X120398975Y-60194133D01*
X120398961Y-60194133D01*
X112315687Y-60194133D01*
X112315682Y-60194133D01*
X112266444Y-60195717D01*
X112246747Y-60196351D01*
X112142335Y-60225834D01*
X112114072Y-60233815D01*
X112114071Y-60233815D01*
X112114069Y-60233816D01*
X111996572Y-60305915D01*
X111996563Y-60305922D01*
X111903071Y-60407240D01*
X111840624Y-60530154D01*
X111834666Y-60556007D01*
X111832943Y-60559071D01*
X111748725Y-60972060D01*
X111747489Y-60977497D01*
X111561220Y-61718922D01*
X111559510Y-61725056D01*
X111335551Y-62455533D01*
X111333529Y-62461571D01*
X111072358Y-63179609D01*
X111070028Y-63185535D01*
X110772355Y-63889186D01*
X110769725Y-63894985D01*
X110436303Y-64582462D01*
X110433378Y-64588118D01*
X110065112Y-65257560D01*
X110061900Y-65263059D01*
X109659758Y-65912704D01*
X109656269Y-65918030D01*
X109221302Y-66546182D01*
X109217544Y-66551322D01*
X108750901Y-67156322D01*
X108746883Y-67161263D01*
X108249812Y-67741489D01*
X108245547Y-67746217D01*
X107719327Y-68300182D01*
X107714824Y-68304685D01*
X107160859Y-68830905D01*
X107156131Y-68835170D01*
X106575905Y-69332241D01*
X106570964Y-69336259D01*
X105965964Y-69802902D01*
X105960824Y-69806660D01*
X105332671Y-70241628D01*
X105327345Y-70245117D01*
X104677701Y-70647259D01*
X104672202Y-70650471D01*
X104002760Y-71018737D01*
X103997104Y-71021662D01*
X103309627Y-71355084D01*
X103303828Y-71357714D01*
X102600178Y-71655387D01*
X102594252Y-71657717D01*
X101876213Y-71918888D01*
X101870175Y-71920910D01*
X101139699Y-72144869D01*
X101133565Y-72146579D01*
X100392157Y-72332843D01*
X100386719Y-72334079D01*
X100012022Y-72410488D01*
X99944802Y-72426011D01*
X99944793Y-72426014D01*
X99821886Y-72488445D01*
X99821875Y-72488452D01*
X99720555Y-72581929D01*
X99720551Y-72581933D01*
X99648440Y-72699424D01*
X99648437Y-72699432D01*
X99610961Y-72832105D01*
X99607566Y-72939117D01*
X94608777Y-72939117D01*
X94608777Y-72901039D01*
X94606662Y-72832095D01*
X94603054Y-72819318D01*
X94593014Y-72783757D01*
X94569195Y-72699397D01*
X94497070Y-72581877D01*
X94395718Y-72488386D01*
X94395716Y-72488385D01*
X94395715Y-72488384D01*
X94272770Y-72425961D01*
X94224446Y-72414841D01*
X94205550Y-72410493D01*
X93830836Y-72334074D01*
X93825403Y-72332839D01*
X93083991Y-72146575D01*
X93077856Y-72144865D01*
X92347376Y-71920905D01*
X92341339Y-71918883D01*
X91623300Y-71657713D01*
X91617373Y-71655383D01*
X91533518Y-71619909D01*
X90913717Y-71357707D01*
X90907923Y-71355080D01*
X90888640Y-71345728D01*
X90220446Y-71021659D01*
X90214790Y-71018734D01*
X89545348Y-70650468D01*
X89539849Y-70647256D01*
X89167747Y-70416919D01*
X88890200Y-70245113D01*
X88884877Y-70241626D01*
X88256725Y-69806659D01*
X88251585Y-69802901D01*
X87666799Y-69351849D01*
X87646575Y-69336250D01*
X87641654Y-69332248D01*
X87268151Y-69012275D01*
X87061417Y-68835169D01*
X87056689Y-68830904D01*
X86502725Y-68304684D01*
X86498222Y-68300181D01*
X85972001Y-67746217D01*
X85967736Y-67741489D01*
X85793156Y-67537703D01*
X85470653Y-67161248D01*
X85466648Y-67156322D01*
X85131472Y-66721769D01*
X85015665Y-66571625D01*
X100828903Y-66571625D01*
X100828903Y-66571638D01*
X100848067Y-66802929D01*
X100848069Y-66802940D01*
X100905045Y-67027932D01*
X100998278Y-67240480D01*
X101125219Y-67434779D01*
X101125222Y-67434783D01*
X101125224Y-67434785D01*
X101282419Y-67605545D01*
X101282422Y-67605547D01*
X101282425Y-67605550D01*
X101465568Y-67748096D01*
X101465574Y-67748100D01*
X101465577Y-67748102D01*
X101669700Y-67858568D01*
X101772802Y-67893963D01*
X101889218Y-67933929D01*
X101889220Y-67933929D01*
X101889222Y-67933930D01*
X102118154Y-67972132D01*
X102118155Y-67972132D01*
X102350251Y-67972132D01*
X102350252Y-67972132D01*
X102579184Y-67933930D01*
X102798706Y-67858568D01*
X103002829Y-67748102D01*
X103011326Y-67741489D01*
X103147178Y-67635751D01*
X103185987Y-67605545D01*
X103343182Y-67434785D01*
X103470127Y-67240481D01*
X103563360Y-67027932D01*
X103620337Y-66802937D01*
X103632558Y-66655448D01*
X103639503Y-66571638D01*
X103639503Y-66571625D01*
X103620338Y-66340334D01*
X103620336Y-66340323D01*
X103563360Y-66115331D01*
X103470127Y-65902783D01*
X103343186Y-65708484D01*
X103343183Y-65708481D01*
X103343182Y-65708479D01*
X103185987Y-65537719D01*
X103185982Y-65537715D01*
X103185980Y-65537713D01*
X103002837Y-65395167D01*
X103002831Y-65395163D01*
X102798707Y-65284696D01*
X102798698Y-65284693D01*
X102579187Y-65209334D01*
X102407485Y-65180682D01*
X102350252Y-65171132D01*
X102118154Y-65171132D01*
X102072367Y-65178772D01*
X101889218Y-65209334D01*
X101669707Y-65284693D01*
X101669698Y-65284696D01*
X101465574Y-65395163D01*
X101465568Y-65395167D01*
X101282425Y-65537713D01*
X101282422Y-65537716D01*
X101125219Y-65708484D01*
X100998278Y-65902783D01*
X100905045Y-66115331D01*
X100848069Y-66340323D01*
X100848067Y-66340334D01*
X100828903Y-66571625D01*
X85015665Y-66571625D01*
X85000004Y-66551321D01*
X84996246Y-66546181D01*
X84561278Y-65918029D01*
X84557789Y-65912703D01*
X84356192Y-65587031D01*
X84155641Y-65263047D01*
X84152436Y-65257560D01*
X83813326Y-64641120D01*
X88540271Y-64641120D01*
X88540271Y-64889279D01*
X88581117Y-65134062D01*
X88661693Y-65368772D01*
X88661698Y-65368782D01*
X88779803Y-65587022D01*
X88779809Y-65587031D01*
X88932226Y-65782856D01*
X88932229Y-65782860D01*
X88932231Y-65782862D01*
X88932232Y-65782863D01*
X89114811Y-65950939D01*
X89322564Y-66086671D01*
X89549825Y-66186357D01*
X89790394Y-66247277D01*
X89872832Y-66254108D01*
X90037703Y-66267771D01*
X90037709Y-66267771D01*
X90037715Y-66267771D01*
X90186098Y-66255474D01*
X90285024Y-66247277D01*
X90525593Y-66186357D01*
X90752854Y-66086671D01*
X90960607Y-65950939D01*
X91143186Y-65782863D01*
X91295611Y-65587028D01*
X91413723Y-65368776D01*
X91494301Y-65134059D01*
X91535147Y-64889281D01*
X91537709Y-64765200D01*
X91535147Y-64641119D01*
X91494301Y-64396341D01*
X91413723Y-64161624D01*
X91295611Y-63943372D01*
X91255729Y-63892132D01*
X91143191Y-63747543D01*
X91143188Y-63747539D01*
X90960608Y-63579462D01*
X90960604Y-63579459D01*
X90752855Y-63443729D01*
X90525593Y-63344043D01*
X90285020Y-63283122D01*
X90037715Y-63262630D01*
X90037703Y-63262630D01*
X89790397Y-63283122D01*
X89549824Y-63344043D01*
X89322562Y-63443729D01*
X89114813Y-63579459D01*
X89114809Y-63579462D01*
X88932229Y-63747539D01*
X88932226Y-63747543D01*
X88779809Y-63943368D01*
X88779803Y-63943377D01*
X88661698Y-64161617D01*
X88661693Y-64161627D01*
X88581117Y-64396337D01*
X88540271Y-64641120D01*
X83813326Y-64641120D01*
X83784161Y-64588104D01*
X83781244Y-64582462D01*
X83754942Y-64528230D01*
X83447813Y-63894962D01*
X83445203Y-63889208D01*
X83147512Y-63185515D01*
X83145198Y-63179630D01*
X82884016Y-62461563D01*
X82881999Y-62455539D01*
X82658033Y-61725041D01*
X82656328Y-61718921D01*
X82470065Y-60977513D01*
X82468828Y-60972076D01*
X82467576Y-60965937D01*
X82392416Y-60597358D01*
X82376875Y-60530161D01*
X82333204Y-60444144D01*
X82314462Y-60407228D01*
X82220986Y-60305890D01*
X82103484Y-60233773D01*
X81970804Y-60196308D01*
X81970803Y-60196307D01*
X81970800Y-60196307D01*
X81863751Y-60192926D01*
X81851649Y-60194132D01*
X73818568Y-60194132D01*
X73747054Y-60196615D01*
X73747053Y-60196615D01*
X73609796Y-60236922D01*
X73489457Y-60314264D01*
X73395778Y-60422380D01*
X73395778Y-60422381D01*
X73336354Y-60552504D01*
X73315997Y-60694100D01*
X66352244Y-60694100D01*
X65124022Y-59465878D01*
X65090537Y-59404555D01*
X65087703Y-59378197D01*
X65087703Y-57694131D01*
X65353294Y-57694131D01*
X65353294Y-57694134D01*
X65373198Y-57972432D01*
X65432503Y-58245049D01*
X65432505Y-58245056D01*
X65491527Y-58403300D01*
X65530007Y-58506471D01*
X65530009Y-58506475D01*
X65663716Y-58751340D01*
X65663721Y-58751348D01*
X65830914Y-58974693D01*
X65830930Y-58974711D01*
X66028197Y-59171978D01*
X66028215Y-59171994D01*
X66251560Y-59339187D01*
X66251568Y-59339192D01*
X66496433Y-59472899D01*
X66496437Y-59472901D01*
X66496439Y-59472902D01*
X66757853Y-59570404D01*
X66894167Y-59600057D01*
X67030476Y-59629710D01*
X67030478Y-59629710D01*
X67030482Y-59629711D01*
X67277790Y-59647398D01*
X67308775Y-59649615D01*
X67308776Y-59649615D01*
X67308777Y-59649615D01*
X67336657Y-59647620D01*
X67587070Y-59629711D01*
X67859699Y-59570404D01*
X68121113Y-59472902D01*
X68365989Y-59339189D01*
X68589344Y-59171988D01*
X68786631Y-58974701D01*
X68953832Y-58751346D01*
X69087545Y-58506470D01*
X69185047Y-58245056D01*
X69244354Y-57972427D01*
X69264258Y-57694133D01*
X69264257Y-57694126D01*
X69260269Y-57638369D01*
X69244354Y-57415839D01*
X69243878Y-57413652D01*
X69185048Y-57143216D01*
X69185047Y-57143210D01*
X69087545Y-56881796D01*
X69059797Y-56830980D01*
X68953835Y-56636925D01*
X68953830Y-56636917D01*
X68786637Y-56413572D01*
X68786621Y-56413554D01*
X68589354Y-56216287D01*
X68589336Y-56216271D01*
X68365991Y-56049078D01*
X68365983Y-56049073D01*
X68121118Y-55915366D01*
X68121114Y-55915364D01*
X68022006Y-55878399D01*
X67859699Y-55817862D01*
X67859695Y-55817861D01*
X67859692Y-55817860D01*
X67587075Y-55758555D01*
X67308777Y-55738651D01*
X67308775Y-55738651D01*
X67030476Y-55758555D01*
X66757859Y-55817860D01*
X66757854Y-55817861D01*
X66757853Y-55817862D01*
X66694651Y-55841434D01*
X66496437Y-55915364D01*
X66496433Y-55915366D01*
X66251568Y-56049073D01*
X66251560Y-56049078D01*
X66028215Y-56216271D01*
X66028197Y-56216287D01*
X65830930Y-56413554D01*
X65830914Y-56413572D01*
X65663721Y-56636917D01*
X65663716Y-56636925D01*
X65530009Y-56881790D01*
X65530007Y-56881794D01*
X65432503Y-57143216D01*
X65373198Y-57415833D01*
X65353294Y-57694131D01*
X65087703Y-57694131D01*
X65087703Y-54912557D01*
X69801521Y-54912557D01*
X69801521Y-54912560D01*
X69822158Y-55069319D01*
X69822159Y-55069321D01*
X69856182Y-55151461D01*
X69882667Y-55215400D01*
X69978921Y-55340841D01*
X70008190Y-55363299D01*
X70049392Y-55419724D01*
X70056703Y-55461674D01*
X70056703Y-56008702D01*
X70072905Y-56069171D01*
X70080589Y-56097846D01*
X70080590Y-56097849D01*
X70126730Y-56177767D01*
X70126734Y-56177772D01*
X71736461Y-57787499D01*
X71769946Y-57848822D01*
X71764962Y-57918514D01*
X71723090Y-57974447D01*
X71657626Y-57998864D01*
X71632595Y-57998119D01*
X71547204Y-57986877D01*
X71547202Y-57986877D01*
X71390442Y-58007514D01*
X71390440Y-58007515D01*
X71244363Y-58068022D01*
X71118921Y-58164277D01*
X71022666Y-58289719D01*
X70962159Y-58435796D01*
X70962158Y-58435798D01*
X70941521Y-58592557D01*
X70941521Y-58592560D01*
X70962158Y-58749319D01*
X70962159Y-58749321D01*
X71012316Y-58870412D01*
X71022667Y-58895400D01*
X71118921Y-59020841D01*
X71244362Y-59117095D01*
X71390441Y-59177603D01*
X71547203Y-59198241D01*
X71583780Y-59193425D01*
X71652812Y-59204190D01*
X71687645Y-59228683D01*
X72101990Y-59643028D01*
X72181915Y-59689173D01*
X72271059Y-59713059D01*
X82440659Y-59713059D01*
X82507698Y-59732744D01*
X82528340Y-59749378D01*
X85421991Y-62643029D01*
X85490459Y-62682559D01*
X85501915Y-62689173D01*
X85591059Y-62713059D01*
X85591060Y-62713059D01*
X85591061Y-62713059D01*
X97693345Y-62713059D01*
X97693347Y-62713059D01*
X97782491Y-62689173D01*
X97793947Y-62682559D01*
X97862415Y-62643029D01*
X97862420Y-62643023D01*
X97868861Y-62638082D01*
X97871082Y-62640976D01*
X97917421Y-62615344D01*
X97960623Y-62613425D01*
X97997203Y-62618241D01*
X98153965Y-62597603D01*
X98300044Y-62537095D01*
X98425485Y-62440841D01*
X98521739Y-62315400D01*
X98582247Y-62169321D01*
X98602885Y-62012559D01*
X98582247Y-61855797D01*
X98521739Y-61709718D01*
X98425485Y-61584277D01*
X98300044Y-61488023D01*
X98153965Y-61427515D01*
X98153963Y-61427514D01*
X97997204Y-61406877D01*
X97997202Y-61406877D01*
X97840442Y-61427514D01*
X97840440Y-61427515D01*
X97694363Y-61488022D01*
X97568921Y-61584277D01*
X97472666Y-61709719D01*
X97412159Y-61855796D01*
X97412158Y-61855798D01*
X97405781Y-61904244D01*
X97377515Y-61968141D01*
X97319190Y-62006612D01*
X97282842Y-62012059D01*
X85833747Y-62012059D01*
X85766708Y-61992374D01*
X85746066Y-61975740D01*
X84522883Y-60752557D01*
X93211521Y-60752557D01*
X93211521Y-60752560D01*
X93232158Y-60909319D01*
X93232159Y-60909321D01*
X93292667Y-61055400D01*
X93388921Y-61180841D01*
X93514362Y-61277095D01*
X93660441Y-61337603D01*
X93738822Y-61347922D01*
X93817202Y-61358241D01*
X93817203Y-61358241D01*
X93817204Y-61358241D01*
X93869457Y-61351361D01*
X93973965Y-61337603D01*
X94120044Y-61277095D01*
X94245485Y-61180841D01*
X94341739Y-61055400D01*
X94402247Y-60909321D01*
X94422885Y-60752559D01*
X94415002Y-60692685D01*
X94409126Y-60648051D01*
X94402247Y-60595797D01*
X94341739Y-60449718D01*
X94341738Y-60449717D01*
X94341738Y-60449716D01*
X94293327Y-60386625D01*
X94268133Y-60321455D01*
X94267703Y-60311139D01*
X94267703Y-54944140D01*
X104108775Y-54944140D01*
X104108775Y-60444144D01*
X104111135Y-60528360D01*
X104111136Y-60528372D01*
X104116630Y-60552440D01*
X104148631Y-60692621D01*
X104148635Y-60692629D01*
X104221728Y-60844402D01*
X104221731Y-60844407D01*
X104221732Y-60844408D01*
X104221733Y-60844410D01*
X104263482Y-60896761D01*
X104326778Y-60976131D01*
X104449619Y-61074092D01*
X104458496Y-61081171D01*
X104610287Y-61154272D01*
X104610292Y-61154273D01*
X104610297Y-61154275D01*
X104774530Y-61191764D01*
X104774535Y-61191764D01*
X104774537Y-61191765D01*
X104816656Y-61192949D01*
X104858773Y-61194133D01*
X104858775Y-61194133D01*
X106858762Y-61194133D01*
X106858775Y-61194133D01*
X106943033Y-61191956D01*
X107107325Y-61154460D01*
X107259153Y-61081343D01*
X107390902Y-60976273D01*
X107495966Y-60844517D01*
X107569074Y-60692685D01*
X107606561Y-60528391D01*
X107608775Y-60444133D01*
X107608775Y-57694131D01*
X124953294Y-57694131D01*
X124953294Y-57694134D01*
X124973198Y-57972432D01*
X125032503Y-58245049D01*
X125032505Y-58245056D01*
X125091527Y-58403300D01*
X125130007Y-58506471D01*
X125130009Y-58506475D01*
X125263716Y-58751340D01*
X125263721Y-58751348D01*
X125430914Y-58974693D01*
X125430930Y-58974711D01*
X125628197Y-59171978D01*
X125628215Y-59171994D01*
X125851560Y-59339187D01*
X125851568Y-59339192D01*
X126096433Y-59472899D01*
X126096437Y-59472901D01*
X126096439Y-59472902D01*
X126357853Y-59570404D01*
X126494167Y-59600057D01*
X126630476Y-59629710D01*
X126630478Y-59629710D01*
X126630482Y-59629711D01*
X126877790Y-59647398D01*
X126908775Y-59649615D01*
X126908776Y-59649615D01*
X126908777Y-59649615D01*
X126936657Y-59647620D01*
X127187070Y-59629711D01*
X127459699Y-59570404D01*
X127721113Y-59472902D01*
X127965989Y-59339189D01*
X128189344Y-59171988D01*
X128386631Y-58974701D01*
X128553832Y-58751346D01*
X128687545Y-58506470D01*
X128785047Y-58245056D01*
X128844354Y-57972427D01*
X128864258Y-57694133D01*
X128864257Y-57694126D01*
X128860269Y-57638369D01*
X128844354Y-57415839D01*
X128843878Y-57413652D01*
X128785048Y-57143216D01*
X128785047Y-57143210D01*
X128687545Y-56881796D01*
X128659797Y-56830980D01*
X128553835Y-56636925D01*
X128553830Y-56636917D01*
X128386637Y-56413572D01*
X128386621Y-56413554D01*
X128189354Y-56216287D01*
X128189336Y-56216271D01*
X127965991Y-56049078D01*
X127965983Y-56049073D01*
X127721118Y-55915366D01*
X127721114Y-55915364D01*
X127622006Y-55878399D01*
X127459699Y-55817862D01*
X127459695Y-55817861D01*
X127459692Y-55817860D01*
X127187075Y-55758555D01*
X126908777Y-55738651D01*
X126908775Y-55738651D01*
X126630476Y-55758555D01*
X126357859Y-55817860D01*
X126357854Y-55817861D01*
X126357853Y-55817862D01*
X126294651Y-55841434D01*
X126096437Y-55915364D01*
X126096433Y-55915366D01*
X125851568Y-56049073D01*
X125851560Y-56049078D01*
X125628215Y-56216271D01*
X125628197Y-56216287D01*
X125430930Y-56413554D01*
X125430914Y-56413572D01*
X125263721Y-56636917D01*
X125263716Y-56636925D01*
X125130009Y-56881790D01*
X125130007Y-56881794D01*
X125032503Y-57143216D01*
X124973198Y-57415833D01*
X124953294Y-57694131D01*
X107608775Y-57694131D01*
X107608775Y-54944134D01*
X107606600Y-54859873D01*
X107569106Y-54695576D01*
X107527762Y-54609719D01*
X107495993Y-54543745D01*
X107495991Y-54543743D01*
X107495991Y-54543742D01*
X107390921Y-54411986D01*
X107390918Y-54411983D01*
X107390917Y-54411982D01*
X107259166Y-54306914D01*
X107259165Y-54306913D01*
X107107334Y-54233797D01*
X107005804Y-54210626D01*
X106943036Y-54196301D01*
X106943035Y-54196300D01*
X106943031Y-54196300D01*
X106858777Y-54194134D01*
X106858775Y-54194134D01*
X104858775Y-54194134D01*
X104858761Y-54194134D01*
X104774540Y-54196493D01*
X104774537Y-54196493D01*
X104610282Y-54233986D01*
X104610280Y-54233987D01*
X104604061Y-54236982D01*
X104458482Y-54307089D01*
X104326763Y-54412127D01*
X104326759Y-54412132D01*
X104291015Y-54456949D01*
X104221796Y-54543743D01*
X104221708Y-54543853D01*
X104221707Y-54543853D01*
X104148602Y-54695637D01*
X104148600Y-54695644D01*
X104111099Y-54859889D01*
X104108775Y-54944140D01*
X94267703Y-54944140D01*
X94267703Y-48816626D01*
X100828903Y-48816626D01*
X100828903Y-48816639D01*
X100848067Y-49047930D01*
X100848069Y-49047941D01*
X100905045Y-49272933D01*
X100998278Y-49485481D01*
X101125219Y-49679780D01*
X101125222Y-49679784D01*
X101125224Y-49679786D01*
X101282419Y-49850546D01*
X101282422Y-49850548D01*
X101282425Y-49850551D01*
X101465568Y-49993097D01*
X101465574Y-49993101D01*
X101465577Y-49993103D01*
X101669700Y-50103569D01*
X101748660Y-50130676D01*
X101889218Y-50178930D01*
X101889220Y-50178930D01*
X101889222Y-50178931D01*
X102118154Y-50217133D01*
X102118155Y-50217133D01*
X102350251Y-50217133D01*
X102350252Y-50217133D01*
X102579184Y-50178931D01*
X102798706Y-50103569D01*
X103002829Y-49993103D01*
X103185987Y-49850546D01*
X103343182Y-49679786D01*
X103470127Y-49485482D01*
X103563360Y-49272933D01*
X103620337Y-49047938D01*
X103620338Y-49047930D01*
X103639503Y-48816639D01*
X103639503Y-48816626D01*
X103620338Y-48585335D01*
X103620336Y-48585324D01*
X103563360Y-48360332D01*
X103470127Y-48147784D01*
X103343186Y-47953485D01*
X103343183Y-47953482D01*
X103343182Y-47953480D01*
X103185987Y-47782720D01*
X103185982Y-47782716D01*
X103185980Y-47782714D01*
X103002837Y-47640168D01*
X103002831Y-47640164D01*
X102798707Y-47529697D01*
X102798698Y-47529694D01*
X102579187Y-47454335D01*
X102407485Y-47425683D01*
X102350252Y-47416133D01*
X102118154Y-47416133D01*
X102072367Y-47423773D01*
X101889218Y-47454335D01*
X101669707Y-47529694D01*
X101669698Y-47529697D01*
X101465574Y-47640164D01*
X101465568Y-47640168D01*
X101282425Y-47782714D01*
X101282422Y-47782717D01*
X101125219Y-47953485D01*
X100998278Y-48147784D01*
X100905045Y-48360332D01*
X100848069Y-48585324D01*
X100848067Y-48585335D01*
X100828903Y-48816626D01*
X94267703Y-48816626D01*
X94267703Y-45163061D01*
X94287388Y-45096022D01*
X94316217Y-45064685D01*
X94381910Y-45014277D01*
X94425485Y-44980841D01*
X94521739Y-44855400D01*
X94582247Y-44709321D01*
X94602885Y-44552559D01*
X94582247Y-44395797D01*
X94521739Y-44249718D01*
X94425485Y-44124277D01*
X94300044Y-44028023D01*
X94242158Y-44004046D01*
X94153965Y-43967515D01*
X94153963Y-43967514D01*
X93997204Y-43946877D01*
X93997202Y-43946877D01*
X93840442Y-43967514D01*
X93840440Y-43967515D01*
X93694363Y-44028022D01*
X93568921Y-44124277D01*
X93472666Y-44249719D01*
X93412159Y-44395796D01*
X93412159Y-44395797D01*
X93391521Y-44552557D01*
X93391521Y-44560682D01*
X93389881Y-44560682D01*
X93387615Y-44595201D01*
X93366703Y-44673248D01*
X93366703Y-60311139D01*
X93347018Y-60378178D01*
X93341079Y-60386625D01*
X93292667Y-60449716D01*
X93232159Y-60595796D01*
X93232158Y-60595798D01*
X93211521Y-60752557D01*
X84522883Y-60752557D01*
X82852416Y-59082090D01*
X82852411Y-59082086D01*
X82772493Y-59035946D01*
X82772492Y-59035945D01*
X82772491Y-59035945D01*
X82683347Y-59012059D01*
X82683346Y-59012059D01*
X76188571Y-59012059D01*
X76121532Y-58992374D01*
X76075777Y-58939570D01*
X76065833Y-58870412D01*
X76090196Y-58812572D01*
X76121113Y-58772281D01*
X76141739Y-58745400D01*
X76202247Y-58599321D01*
X76222885Y-58442559D01*
X76221465Y-58431775D01*
X76202247Y-58285798D01*
X76202247Y-58285797D01*
X76141739Y-58139718D01*
X76045485Y-58014277D01*
X75920044Y-57918023D01*
X75773965Y-57857515D01*
X75773963Y-57857514D01*
X75617204Y-57836877D01*
X75617202Y-57836877D01*
X75460442Y-57857514D01*
X75460440Y-57857515D01*
X75314363Y-57918022D01*
X75224629Y-57986877D01*
X75188921Y-58014277D01*
X75166461Y-58043547D01*
X75110035Y-58084748D01*
X75068087Y-58092059D01*
X73083747Y-58092059D01*
X73016708Y-58072374D01*
X72996066Y-58055740D01*
X70794022Y-55853696D01*
X70760537Y-55792373D01*
X70757703Y-55766015D01*
X70757703Y-55461674D01*
X70777388Y-55394635D01*
X70806214Y-55363301D01*
X70835485Y-55340841D01*
X70931739Y-55215400D01*
X70992247Y-55069321D01*
X71012885Y-54912559D01*
X71005718Y-54858123D01*
X70992247Y-54755798D01*
X70992247Y-54755797D01*
X70966691Y-54694100D01*
X73316062Y-54694100D01*
X73336417Y-54835676D01*
X73347477Y-54859894D01*
X73395834Y-54965785D01*
X73489498Y-55073884D01*
X73502733Y-55082390D01*
X73609823Y-55151217D01*
X73747061Y-55191519D01*
X73818570Y-55194133D01*
X75153330Y-55194133D01*
X75220369Y-55213818D01*
X75266124Y-55266622D01*
X75276068Y-55335780D01*
X75247043Y-55399336D01*
X75215330Y-55425520D01*
X75151994Y-55462086D01*
X75151993Y-55462087D01*
X74977645Y-55636434D01*
X74916321Y-55669918D01*
X74873782Y-55671692D01*
X74857027Y-55669486D01*
X74837203Y-55666877D01*
X74837201Y-55666877D01*
X74837200Y-55666877D01*
X74680442Y-55687514D01*
X74680440Y-55687515D01*
X74534363Y-55748022D01*
X74408921Y-55844277D01*
X74312666Y-55969719D01*
X74252159Y-56115796D01*
X74252158Y-56115798D01*
X74231521Y-56272557D01*
X74231521Y-56272560D01*
X74252158Y-56429319D01*
X74252159Y-56429321D01*
X74303917Y-56554277D01*
X74312667Y-56575400D01*
X74408921Y-56700841D01*
X74534362Y-56797095D01*
X74680441Y-56857603D01*
X74758822Y-56867922D01*
X74837202Y-56878241D01*
X74837203Y-56878241D01*
X74837204Y-56878241D01*
X74889457Y-56871361D01*
X74993965Y-56857603D01*
X75140044Y-56797095D01*
X75265485Y-56700841D01*
X75361739Y-56575400D01*
X75422247Y-56429321D01*
X75442885Y-56272559D01*
X75438069Y-56235980D01*
X75448834Y-56166949D01*
X75473357Y-56132085D01*
X75474091Y-56131352D01*
X75476099Y-56129346D01*
X75537434Y-56095883D01*
X75563748Y-56093059D01*
X86465379Y-56093059D01*
X86532418Y-56112744D01*
X86578173Y-56165548D01*
X86588117Y-56234706D01*
X86559092Y-56298262D01*
X86505642Y-56334340D01*
X86293426Y-56407194D01*
X86293417Y-56407197D01*
X86089293Y-56517664D01*
X86089287Y-56517668D01*
X85906144Y-56660214D01*
X85906141Y-56660217D01*
X85748938Y-56830985D01*
X85621997Y-57025284D01*
X85528764Y-57237832D01*
X85471788Y-57462824D01*
X85471786Y-57462835D01*
X85452622Y-57694126D01*
X85452622Y-57694139D01*
X85471786Y-57925430D01*
X85471788Y-57925441D01*
X85528764Y-58150433D01*
X85621997Y-58362981D01*
X85748938Y-58557280D01*
X85748941Y-58557284D01*
X85748943Y-58557286D01*
X85906138Y-58728046D01*
X85906141Y-58728048D01*
X85906144Y-58728051D01*
X86089287Y-58870597D01*
X86089293Y-58870601D01*
X86089296Y-58870603D01*
X86293419Y-58981069D01*
X86383588Y-59012024D01*
X86512937Y-59056430D01*
X86512939Y-59056430D01*
X86512941Y-59056431D01*
X86741873Y-59094633D01*
X86741874Y-59094633D01*
X86973970Y-59094633D01*
X86973971Y-59094633D01*
X87202903Y-59056431D01*
X87422425Y-58981069D01*
X87626548Y-58870603D01*
X87626794Y-58870412D01*
X87688051Y-58822733D01*
X87809706Y-58728046D01*
X87966901Y-58557286D01*
X88093846Y-58362982D01*
X88187079Y-58150433D01*
X88244056Y-57925438D01*
X88244630Y-57918514D01*
X88263222Y-57694139D01*
X88263222Y-57694126D01*
X88244057Y-57462835D01*
X88244055Y-57462824D01*
X88187079Y-57237832D01*
X88093846Y-57025284D01*
X87966905Y-56830985D01*
X87966902Y-56830982D01*
X87966901Y-56830980D01*
X87809706Y-56660220D01*
X87809701Y-56660216D01*
X87809699Y-56660214D01*
X87626556Y-56517668D01*
X87626550Y-56517664D01*
X87422426Y-56407197D01*
X87422417Y-56407194D01*
X87210202Y-56334340D01*
X87153187Y-56293955D01*
X87127056Y-56229155D01*
X87140107Y-56160515D01*
X87188196Y-56109827D01*
X87250465Y-56093059D01*
X87988087Y-56093059D01*
X88055126Y-56112744D01*
X88086460Y-56141569D01*
X88108921Y-56170841D01*
X88234362Y-56267095D01*
X88380441Y-56327603D01*
X88431614Y-56334340D01*
X88537202Y-56348241D01*
X88537203Y-56348241D01*
X88537204Y-56348241D01*
X88589457Y-56341361D01*
X88693965Y-56327603D01*
X88840044Y-56267095D01*
X88965485Y-56170841D01*
X89061739Y-56045400D01*
X89122247Y-55899321D01*
X89142885Y-55742559D01*
X89122247Y-55585797D01*
X89061739Y-55439718D01*
X88965485Y-55314277D01*
X88840044Y-55218023D01*
X88829892Y-55213818D01*
X88693965Y-55157515D01*
X88693963Y-55157514D01*
X88537204Y-55136877D01*
X88537202Y-55136877D01*
X88380442Y-55157514D01*
X88380440Y-55157515D01*
X88234363Y-55218022D01*
X88234362Y-55218023D01*
X88108921Y-55314277D01*
X88086461Y-55343547D01*
X88030035Y-55384748D01*
X87988087Y-55392059D01*
X82153305Y-55392059D01*
X82086266Y-55372374D01*
X82040511Y-55319570D01*
X82030567Y-55250412D01*
X82059592Y-55186856D01*
X82096607Y-55159595D01*
X82096222Y-55158967D01*
X82132224Y-55136877D01*
X82221027Y-55082390D01*
X82314532Y-54981059D01*
X82349334Y-54912557D01*
X82376982Y-54858136D01*
X82376985Y-54858123D01*
X82386377Y-54817205D01*
X82387568Y-54814677D01*
X82392415Y-54790907D01*
X82392416Y-54790907D01*
X82468830Y-54416175D01*
X82470065Y-54410751D01*
X82494293Y-54314314D01*
X82656332Y-53669326D01*
X82658038Y-53663209D01*
X82882002Y-52932714D01*
X82884019Y-52926695D01*
X83145203Y-52208621D01*
X83147506Y-52202762D01*
X83445210Y-51499040D01*
X83447806Y-51493316D01*
X83781260Y-50805772D01*
X83784154Y-50800176D01*
X84152452Y-50130676D01*
X84155631Y-50125234D01*
X84557809Y-49475530D01*
X84561258Y-49470264D01*
X84996258Y-48842065D01*
X85000004Y-48836942D01*
X85466663Y-48231924D01*
X85470647Y-48227024D01*
X85967750Y-47646758D01*
X85971988Y-47642060D01*
X86498234Y-47088069D01*
X86502712Y-47083591D01*
X87056704Y-46557345D01*
X87061402Y-46553107D01*
X87641678Y-46055995D01*
X87646553Y-46052031D01*
X88251597Y-45585353D01*
X88256714Y-45581612D01*
X88884908Y-45146616D01*
X88890174Y-45143167D01*
X89539878Y-44740989D01*
X89545320Y-44737810D01*
X90214820Y-44369512D01*
X90220416Y-44366618D01*
X90907961Y-44033165D01*
X90913685Y-44030568D01*
X91617406Y-43732864D01*
X91623278Y-43730556D01*
X92341345Y-43469375D01*
X92347358Y-43467361D01*
X93077877Y-43243389D01*
X93083960Y-43241694D01*
X93825455Y-43055408D01*
X93830771Y-43054199D01*
X94205551Y-42977773D01*
X94272760Y-42962293D01*
X94395680Y-42899854D01*
X94497004Y-42806360D01*
X94569104Y-42688847D01*
X94606554Y-42556162D01*
X94608778Y-42487227D01*
X94608777Y-34403934D01*
X99608776Y-34403934D01*
X99608776Y-42487227D01*
X99608942Y-42492290D01*
X99611032Y-42556155D01*
X99611033Y-42556161D01*
X99648491Y-42688824D01*
X99703686Y-42778778D01*
X99720591Y-42806330D01*
X99794457Y-42874498D01*
X99821902Y-42899826D01*
X99859763Y-42919065D01*
X99944801Y-42962278D01*
X99970656Y-42968239D01*
X99973734Y-42969969D01*
X100011999Y-42977771D01*
X100012002Y-42977772D01*
X100012002Y-42977773D01*
X100386715Y-43054177D01*
X100392147Y-43055412D01*
X101133583Y-43241684D01*
X101139686Y-43243385D01*
X101870184Y-43467351D01*
X101876208Y-43469368D01*
X102594275Y-43730551D01*
X102600160Y-43732865D01*
X103303853Y-44030557D01*
X103309607Y-44033167D01*
X103997121Y-44366606D01*
X104002749Y-44369516D01*
X104438264Y-44609098D01*
X104672204Y-44737791D01*
X104677703Y-44741003D01*
X105327347Y-45143145D01*
X105332673Y-45146634D01*
X105960826Y-45581602D01*
X105965966Y-45585360D01*
X106003413Y-45614243D01*
X106570968Y-46052005D01*
X106575893Y-46056009D01*
X106632050Y-46104118D01*
X107156134Y-46553093D01*
X107160862Y-46557358D01*
X107714826Y-47083578D01*
X107719329Y-47088081D01*
X108245549Y-47642046D01*
X108249814Y-47646774D01*
X108376178Y-47794278D01*
X108743077Y-48222557D01*
X108746885Y-48227001D01*
X108750895Y-48231932D01*
X108864576Y-48379319D01*
X109217546Y-48836942D01*
X109221304Y-48842082D01*
X109656272Y-49470234D01*
X109659759Y-49475557D01*
X109980125Y-49993097D01*
X110061902Y-50125205D01*
X110065114Y-50130704D01*
X110433381Y-50800146D01*
X110436306Y-50805802D01*
X110769726Y-51493280D01*
X110772356Y-51499079D01*
X111070030Y-52202730D01*
X111072360Y-52208656D01*
X111333531Y-52926695D01*
X111335553Y-52932733D01*
X111559512Y-53663209D01*
X111561222Y-53669343D01*
X111747486Y-54410751D01*
X111748722Y-54416188D01*
X111825134Y-54790899D01*
X111840608Y-54858118D01*
X111840610Y-54858123D01*
X111903055Y-54981045D01*
X111984504Y-55069319D01*
X111996549Y-55082373D01*
X112114061Y-55154485D01*
X112246744Y-55191953D01*
X112250330Y-55192066D01*
X112315682Y-55194135D01*
X112315682Y-55194134D01*
X112353781Y-55195340D01*
X112365899Y-55194134D01*
X120398964Y-55194134D01*
X120398975Y-55194134D01*
X120470532Y-55191775D01*
X120607850Y-55151461D01*
X120728247Y-55074092D01*
X120821969Y-54965936D01*
X120881422Y-54835757D01*
X120901790Y-54694100D01*
X120881422Y-54552443D01*
X120881422Y-54552441D01*
X120881421Y-54552440D01*
X120821972Y-54422270D01*
X120821971Y-54422268D01*
X120821969Y-54422264D01*
X120728247Y-54314108D01*
X120607850Y-54236739D01*
X120607849Y-54236738D01*
X120607848Y-54236738D01*
X120607846Y-54236737D01*
X120470535Y-54196425D01*
X120470536Y-54196425D01*
X120454630Y-54195915D01*
X120398975Y-54194134D01*
X120398961Y-54194134D01*
X113118533Y-54194134D01*
X113114664Y-54194074D01*
X113112577Y-54194008D01*
X113064737Y-54192515D01*
X113036107Y-54188240D01*
X112937953Y-54161582D01*
X112907728Y-54148882D01*
X112821684Y-54098425D01*
X112795843Y-54078248D01*
X112726028Y-54007003D01*
X112706379Y-53980759D01*
X112656723Y-53892005D01*
X112645629Y-53865246D01*
X112631900Y-53816756D01*
X112631112Y-53813830D01*
X112594074Y-53669343D01*
X112533879Y-53434515D01*
X112380124Y-52926695D01*
X112306031Y-52681982D01*
X112041495Y-51941560D01*
X112041490Y-51941545D01*
X111740901Y-51214997D01*
X111404986Y-50504092D01*
X111034557Y-49810545D01*
X110630508Y-49136031D01*
X110411159Y-48807603D01*
X110193812Y-48482172D01*
X109725545Y-47850581D01*
X109725532Y-47850563D01*
X109462260Y-47529697D01*
X109226799Y-47242726D01*
X109226758Y-47242679D01*
X108698796Y-46660102D01*
X108698788Y-46660093D01*
X108627415Y-46588720D01*
X110932989Y-46588720D01*
X110932989Y-46824825D01*
X110969923Y-47058020D01*
X111042886Y-47282575D01*
X111150073Y-47492942D01*
X111210329Y-47575878D01*
X112197514Y-46588693D01*
X112214552Y-46652277D01*
X112280378Y-46766292D01*
X112373470Y-46859384D01*
X112487485Y-46925210D01*
X112551067Y-46942246D01*
X111563882Y-47929431D01*
X111646817Y-47989687D01*
X111857186Y-48096875D01*
X112081741Y-48169838D01*
X112081740Y-48169838D01*
X112314937Y-48206773D01*
X112551041Y-48206773D01*
X112784236Y-48169838D01*
X113008791Y-48096875D01*
X113219160Y-47989687D01*
X113410175Y-47850906D01*
X114731086Y-46529995D01*
X114023979Y-45822888D01*
X114377532Y-45469335D01*
X115084639Y-46176442D01*
X116405550Y-44855531D01*
X116544331Y-44664516D01*
X116651519Y-44454147D01*
X116724482Y-44229592D01*
X116761417Y-43996397D01*
X116761417Y-43760292D01*
X116724482Y-43527097D01*
X116651519Y-43302542D01*
X116544333Y-43092177D01*
X116484075Y-43009237D01*
X115496890Y-43996422D01*
X115479854Y-43932841D01*
X115414028Y-43818826D01*
X115320936Y-43725734D01*
X115206921Y-43659908D01*
X115143337Y-43642870D01*
X116130522Y-42655685D01*
X116130521Y-42655683D01*
X116047591Y-42595432D01*
X115837219Y-42488242D01*
X115612664Y-42415279D01*
X115612665Y-42415279D01*
X115379469Y-42378345D01*
X115143365Y-42378345D01*
X114910169Y-42415279D01*
X114685614Y-42488242D01*
X114475245Y-42595430D01*
X114284230Y-42734211D01*
X111288855Y-45729586D01*
X111150074Y-45920601D01*
X111042886Y-46130970D01*
X110969923Y-46355525D01*
X110932989Y-46588720D01*
X108627415Y-46588720D01*
X108142819Y-46104124D01*
X108142815Y-46104120D01*
X108142812Y-46104117D01*
X107560195Y-45576119D01*
X107480071Y-45510377D01*
X106952362Y-45077389D01*
X106952359Y-45077386D01*
X106952346Y-45077376D01*
X106732473Y-44914360D01*
X106320759Y-44609111D01*
X106320741Y-44609098D01*
X106320734Y-44609093D01*
X106320733Y-44609092D01*
X105805390Y-44264906D01*
X105666890Y-44172405D01*
X105666863Y-44172388D01*
X105549453Y-44102057D01*
X108722260Y-44102057D01*
X108722260Y-44291030D01*
X108751819Y-44477662D01*
X108810214Y-44657380D01*
X108877503Y-44789441D01*
X108896000Y-44825743D01*
X109007070Y-44978618D01*
X109140686Y-45112234D01*
X109293561Y-45223304D01*
X109304709Y-45228984D01*
X109461923Y-45309089D01*
X109461925Y-45309089D01*
X109461928Y-45309091D01*
X109558257Y-45340390D01*
X109641641Y-45367484D01*
X109828274Y-45397044D01*
X109828279Y-45397044D01*
X110017246Y-45397044D01*
X110203878Y-45367484D01*
X110383592Y-45309091D01*
X110551959Y-45223304D01*
X110704834Y-45112234D01*
X113666878Y-42150190D01*
X113777948Y-41997315D01*
X113863735Y-41828948D01*
X113922128Y-41649234D01*
X113937653Y-41551214D01*
X113951688Y-41462603D01*
X113951688Y-41273629D01*
X113922128Y-41086997D01*
X113890208Y-40988760D01*
X113863735Y-40907284D01*
X113863733Y-40907281D01*
X113863733Y-40907279D01*
X113777947Y-40738916D01*
X113666878Y-40586043D01*
X113533261Y-40452426D01*
X113380387Y-40341356D01*
X113212024Y-40255570D01*
X113032306Y-40197175D01*
X112845674Y-40167616D01*
X112845669Y-40167616D01*
X112656706Y-40167616D01*
X112656701Y-40167616D01*
X112470073Y-40197175D01*
X112290353Y-40255570D01*
X112121988Y-40341356D01*
X111969111Y-40452428D01*
X109007072Y-43414467D01*
X108896000Y-43567344D01*
X108810214Y-43735707D01*
X108751819Y-43915425D01*
X108722260Y-44102057D01*
X105549453Y-44102057D01*
X105085812Y-43824326D01*
X104992365Y-43768349D01*
X104298818Y-43397920D01*
X103587913Y-43062004D01*
X102861366Y-42761414D01*
X102861352Y-42761409D01*
X102861350Y-42761408D01*
X102120928Y-42496872D01*
X101368411Y-42269027D01*
X100989103Y-42171802D01*
X100986055Y-42170979D01*
X100937649Y-42157249D01*
X100910937Y-42146167D01*
X100875215Y-42126179D01*
X100822161Y-42096492D01*
X100795934Y-42076855D01*
X100724681Y-42007033D01*
X100704511Y-41981205D01*
X100690652Y-41957577D01*
X100654040Y-41895155D01*
X100641345Y-41864953D01*
X100615163Y-41768604D01*
X106388807Y-41768604D01*
X106388807Y-41957577D01*
X106418366Y-42144209D01*
X106476761Y-42323927D01*
X106504489Y-42378345D01*
X106562547Y-42492290D01*
X106673617Y-42645165D01*
X106807233Y-42778781D01*
X106960108Y-42889851D01*
X107017444Y-42919065D01*
X107128470Y-42975636D01*
X107128472Y-42975636D01*
X107128475Y-42975638D01*
X107196036Y-42997590D01*
X107308188Y-43034031D01*
X107494821Y-43063591D01*
X107494826Y-43063591D01*
X107683793Y-43063591D01*
X107870425Y-43034031D01*
X108050139Y-42975638D01*
X108218506Y-42889851D01*
X108371381Y-42778781D01*
X111333425Y-39816737D01*
X111444495Y-39663862D01*
X111530282Y-39495495D01*
X111588675Y-39315781D01*
X111601812Y-39232831D01*
X111618235Y-39129150D01*
X111618235Y-38940176D01*
X111588675Y-38753544D01*
X111530280Y-38573826D01*
X111452235Y-38420655D01*
X111444495Y-38405464D01*
X111333425Y-38252590D01*
X111199808Y-38118973D01*
X111046934Y-38007903D01*
X110878571Y-37922117D01*
X110698853Y-37863722D01*
X110512221Y-37834163D01*
X110512216Y-37834163D01*
X110323253Y-37834163D01*
X110323248Y-37834163D01*
X110136620Y-37863722D01*
X109956900Y-37922117D01*
X109788535Y-38007903D01*
X109635658Y-38118975D01*
X106673619Y-41081014D01*
X106562547Y-41233891D01*
X106476761Y-41402254D01*
X106418366Y-41581972D01*
X106388807Y-41768604D01*
X100615163Y-41768604D01*
X100614672Y-41766799D01*
X100610394Y-41738157D01*
X100610384Y-41737851D01*
X100608836Y-41688237D01*
X100608776Y-41684376D01*
X100608776Y-34403942D01*
X100608776Y-34403934D01*
X100606232Y-34332411D01*
X100565931Y-34195158D01*
X100488594Y-34074820D01*
X100380486Y-33981144D01*
X100380484Y-33981143D01*
X100250367Y-33921720D01*
X100108776Y-33901363D01*
X99967184Y-33921720D01*
X99837067Y-33981143D01*
X99837064Y-33981145D01*
X99728956Y-34074822D01*
X99651620Y-34195159D01*
X99611320Y-34332408D01*
X99611320Y-34332410D01*
X99611320Y-34332411D01*
X99608776Y-34403934D01*
X94608777Y-34403934D01*
X94606233Y-34332411D01*
X94565932Y-34195158D01*
X94488595Y-34074820D01*
X94380487Y-33981144D01*
X94380485Y-33981143D01*
X94250368Y-33921720D01*
X94108777Y-33901363D01*
X93967185Y-33921720D01*
X93837068Y-33981143D01*
X93837065Y-33981145D01*
X93728957Y-34074822D01*
X93651621Y-34195159D01*
X93611321Y-34332408D01*
X93611321Y-34332410D01*
X93608777Y-34403942D01*
X93608777Y-41684409D01*
X93608718Y-41688237D01*
X93607176Y-41738166D01*
X93602904Y-41766822D01*
X93576261Y-41864973D01*
X93563563Y-41895205D01*
X93513109Y-41981261D01*
X93492929Y-42007107D01*
X93421681Y-42076930D01*
X93395431Y-42096584D01*
X93306718Y-42146214D01*
X93279850Y-42157338D01*
X93231423Y-42171002D01*
X93228539Y-42171779D01*
X92849147Y-42269026D01*
X92096624Y-42496873D01*
X91356202Y-42761409D01*
X91356190Y-42761413D01*
X91356187Y-42761415D01*
X90629640Y-43062005D01*
X90629636Y-43062006D01*
X90629626Y-43062011D01*
X89918743Y-43397917D01*
X89918735Y-43397921D01*
X89456370Y-43644874D01*
X89225184Y-43768353D01*
X88550689Y-44172390D01*
X88550662Y-44172407D01*
X87896816Y-44609095D01*
X87265225Y-45077363D01*
X87265190Y-45077390D01*
X86657370Y-45576109D01*
X86657323Y-45576150D01*
X86074746Y-46104112D01*
X86074737Y-46104120D01*
X85518768Y-46660089D01*
X84990776Y-47242699D01*
X84990752Y-47242726D01*
X84492033Y-47850546D01*
X84492006Y-47850581D01*
X84023755Y-48482150D01*
X84023742Y-48482168D01*
X83587049Y-49136018D01*
X83587032Y-49136045D01*
X83182995Y-49810540D01*
X82812559Y-50504099D01*
X82476653Y-51214982D01*
X82176057Y-51941539D01*
X82176057Y-51941540D01*
X81911512Y-52681985D01*
X81683667Y-53434502D01*
X81586444Y-53813810D01*
X81585636Y-53816806D01*
X81571921Y-53865241D01*
X81560824Y-53892005D01*
X81511169Y-53980749D01*
X81491518Y-54006993D01*
X81421708Y-54078226D01*
X81395864Y-54098404D01*
X81309817Y-54148854D01*
X81279591Y-54161552D01*
X81181397Y-54188213D01*
X81152850Y-54192482D01*
X81111306Y-54193803D01*
X81102945Y-54194070D01*
X81099003Y-54194133D01*
X73818567Y-54194133D01*
X73747060Y-54196680D01*
X73609823Y-54236982D01*
X73489500Y-54314314D01*
X73489498Y-54314315D01*
X73489498Y-54314316D01*
X73395834Y-54422415D01*
X73395833Y-54422416D01*
X73395833Y-54422417D01*
X73336417Y-54552523D01*
X73316062Y-54694100D01*
X70966691Y-54694100D01*
X70931739Y-54609718D01*
X70835485Y-54484277D01*
X70710044Y-54388023D01*
X70563965Y-54327515D01*
X70563963Y-54327514D01*
X70407204Y-54306877D01*
X70407202Y-54306877D01*
X70250442Y-54327514D01*
X70250440Y-54327515D01*
X70104363Y-54388022D01*
X69978921Y-54484277D01*
X69882666Y-54609719D01*
X69822159Y-54755796D01*
X69822158Y-54755798D01*
X69801521Y-54912557D01*
X65087703Y-54912557D01*
X65087703Y-50029280D01*
X65386703Y-50029280D01*
X65386703Y-50195837D01*
X65419193Y-50359174D01*
X65419195Y-50359182D01*
X65482931Y-50513054D01*
X65482931Y-50513055D01*
X65575458Y-50651532D01*
X65575464Y-50651539D01*
X65693222Y-50769297D01*
X65693229Y-50769303D01*
X65831707Y-50861830D01*
X65831708Y-50861830D01*
X65831709Y-50861831D01*
X65985580Y-50925567D01*
X66148924Y-50958058D01*
X66148928Y-50958059D01*
X66148929Y-50958059D01*
X66315478Y-50958059D01*
X66315479Y-50958058D01*
X66478826Y-50925567D01*
X66632697Y-50861831D01*
X66632698Y-50861830D01*
X66632699Y-50861830D01*
X66725016Y-50800146D01*
X66771178Y-50769302D01*
X66888946Y-50651534D01*
X66981475Y-50513053D01*
X67045211Y-50359182D01*
X67077703Y-50195833D01*
X67077703Y-50029285D01*
X67045211Y-49865936D01*
X66981475Y-49712065D01*
X66981474Y-49712063D01*
X66981474Y-49712062D01*
X66888947Y-49573585D01*
X66888941Y-49573578D01*
X66771183Y-49455820D01*
X66771176Y-49455814D01*
X66632698Y-49363287D01*
X66478826Y-49299551D01*
X66478818Y-49299549D01*
X66315481Y-49267059D01*
X66315477Y-49267059D01*
X66148929Y-49267059D01*
X66148924Y-49267059D01*
X65985587Y-49299549D01*
X65985579Y-49299551D01*
X65831707Y-49363287D01*
X65831706Y-49363287D01*
X65693229Y-49455814D01*
X65693222Y-49455820D01*
X65575464Y-49573578D01*
X65575458Y-49573585D01*
X65482931Y-49712062D01*
X65482931Y-49712063D01*
X65419195Y-49865935D01*
X65419193Y-49865943D01*
X65386703Y-50029280D01*
X65087703Y-50029280D01*
X65087703Y-48222557D01*
X65611521Y-48222557D01*
X65611521Y-48222560D01*
X65632158Y-48379319D01*
X65632159Y-48379321D01*
X65692667Y-48525400D01*
X65788921Y-48650841D01*
X65914362Y-48747095D01*
X66060441Y-48807603D01*
X66128978Y-48816626D01*
X66217202Y-48828241D01*
X66217203Y-48828241D01*
X66217204Y-48828241D01*
X66305329Y-48816639D01*
X66373965Y-48807603D01*
X66520044Y-48747095D01*
X66645485Y-48650841D01*
X66687126Y-48596572D01*
X66743554Y-48555370D01*
X66785502Y-48548059D01*
X71090054Y-48548059D01*
X71090056Y-48548059D01*
X71172842Y-48525877D01*
X71247065Y-48483024D01*
X73655518Y-46074568D01*
X73716839Y-46041085D01*
X73759383Y-46039312D01*
X73827202Y-46048241D01*
X73827203Y-46048241D01*
X73827204Y-46048241D01*
X73879457Y-46041361D01*
X73983965Y-46027603D01*
X74130044Y-45967095D01*
X74255485Y-45870841D01*
X74351739Y-45745400D01*
X74412247Y-45599321D01*
X74432885Y-45442559D01*
X74412247Y-45285797D01*
X74351739Y-45139718D01*
X74255485Y-45014277D01*
X74130044Y-44918023D01*
X73983965Y-44857515D01*
X73983963Y-44857514D01*
X73827204Y-44836877D01*
X73827202Y-44836877D01*
X73670442Y-44857514D01*
X73670440Y-44857515D01*
X73524363Y-44918022D01*
X73398921Y-45014277D01*
X73302666Y-45139719D01*
X73242159Y-45285796D01*
X73242158Y-45285798D01*
X73221521Y-45442557D01*
X73221521Y-45442560D01*
X73230449Y-45510377D01*
X73219683Y-45579412D01*
X73195191Y-45614243D01*
X70948695Y-47860740D01*
X70887372Y-47894225D01*
X70861014Y-47897059D01*
X66785502Y-47897059D01*
X66718463Y-47877374D01*
X66687126Y-47848545D01*
X66645486Y-47794278D01*
X66639330Y-47789554D01*
X66520044Y-47698023D01*
X66373965Y-47637515D01*
X66373963Y-47637514D01*
X66217204Y-47616877D01*
X66217202Y-47616877D01*
X66060442Y-47637514D01*
X66060440Y-47637515D01*
X65914363Y-47698022D01*
X65788921Y-47794277D01*
X65692666Y-47919719D01*
X65632159Y-48065796D01*
X65632158Y-48065798D01*
X65611521Y-48222557D01*
X65087703Y-48222557D01*
X65087703Y-43695699D01*
X77590648Y-43695699D01*
X77590648Y-43884672D01*
X77620207Y-44071304D01*
X77678602Y-44251022D01*
X77752369Y-44395796D01*
X77764388Y-44419385D01*
X77875458Y-44572260D01*
X80837502Y-47534304D01*
X80990377Y-47645374D01*
X81158744Y-47731161D01*
X81338458Y-47789554D01*
X81408446Y-47800639D01*
X81525089Y-47819114D01*
X81525094Y-47819114D01*
X81714062Y-47819114D01*
X81900694Y-47789554D01*
X82080408Y-47731161D01*
X82248775Y-47645374D01*
X82401649Y-47534304D01*
X82535266Y-47400687D01*
X82646336Y-47247813D01*
X82732123Y-47079446D01*
X82790516Y-46899732D01*
X82820076Y-46713100D01*
X82820076Y-46524126D01*
X82790516Y-46337499D01*
X82790516Y-46337496D01*
X82732123Y-46157782D01*
X82646336Y-45989415D01*
X82535266Y-45836540D01*
X79573222Y-42874496D01*
X79420347Y-42763426D01*
X79416386Y-42761408D01*
X79251984Y-42677640D01*
X79072266Y-42619245D01*
X78885634Y-42589686D01*
X78885629Y-42589686D01*
X78696667Y-42589686D01*
X78696662Y-42589686D01*
X78510029Y-42619245D01*
X78330311Y-42677640D01*
X78161948Y-42763426D01*
X78009071Y-42874498D01*
X77875460Y-43008109D01*
X77764388Y-43160986D01*
X77678602Y-43329349D01*
X77620207Y-43509067D01*
X77590648Y-43695699D01*
X65087703Y-43695699D01*
X65087703Y-41362246D01*
X79924101Y-41362246D01*
X79924101Y-41551219D01*
X79953660Y-41737851D01*
X80012055Y-41917569D01*
X80059580Y-42010841D01*
X80097841Y-42085932D01*
X80208911Y-42238807D01*
X83170955Y-45200851D01*
X83323830Y-45311921D01*
X83492197Y-45397708D01*
X83671911Y-45456101D01*
X83741899Y-45467186D01*
X83858542Y-45485661D01*
X83858547Y-45485661D01*
X84047515Y-45485661D01*
X84234147Y-45456101D01*
X84413861Y-45397708D01*
X84582228Y-45311921D01*
X84735102Y-45200851D01*
X84868719Y-45067234D01*
X84979789Y-44914360D01*
X85065576Y-44745993D01*
X85123969Y-44566279D01*
X85126142Y-44552557D01*
X85153529Y-44379647D01*
X85153529Y-44190673D01*
X85132833Y-44060007D01*
X85123969Y-44004043D01*
X85065576Y-43824329D01*
X84979789Y-43655962D01*
X84868719Y-43503087D01*
X81906675Y-40541043D01*
X81753800Y-40429973D01*
X81585437Y-40344187D01*
X81405719Y-40285792D01*
X81219087Y-40256233D01*
X81219082Y-40256233D01*
X81030120Y-40256233D01*
X81030115Y-40256233D01*
X80843482Y-40285792D01*
X80663764Y-40344187D01*
X80495401Y-40429973D01*
X80342524Y-40541045D01*
X80208913Y-40674656D01*
X80097841Y-40827533D01*
X80012055Y-40995896D01*
X79953660Y-41175614D01*
X79924101Y-41362246D01*
X65087703Y-41362246D01*
X65087703Y-38828451D01*
X82134830Y-38828451D01*
X82134830Y-39064556D01*
X82171764Y-39297751D01*
X82244727Y-39522306D01*
X82351915Y-39732675D01*
X82490696Y-39923690D01*
X85486071Y-42919065D01*
X85677086Y-43057846D01*
X85887455Y-43165034D01*
X86112010Y-43237997D01*
X86112009Y-43237997D01*
X86345206Y-43274932D01*
X86581310Y-43274932D01*
X86814505Y-43237997D01*
X87039060Y-43165034D01*
X87249421Y-43057850D01*
X87249427Y-43057846D01*
X87332362Y-42997590D01*
X87332363Y-42997590D01*
X86345179Y-42010406D01*
X86408762Y-41993369D01*
X86522777Y-41927543D01*
X86615869Y-41834451D01*
X86681695Y-41720436D01*
X86698731Y-41656853D01*
X87685916Y-42644038D01*
X87685916Y-42644037D01*
X87746172Y-42561103D01*
X87853360Y-42350734D01*
X87926323Y-42126179D01*
X87963258Y-41892984D01*
X87963258Y-41656879D01*
X87926323Y-41423684D01*
X87853360Y-41199129D01*
X87746172Y-40988760D01*
X87607391Y-40797745D01*
X86286480Y-39476834D01*
X86286479Y-39476834D01*
X85579373Y-40183940D01*
X85225820Y-39830387D01*
X85932927Y-39123281D01*
X84612016Y-37802370D01*
X84421001Y-37663589D01*
X84210632Y-37556401D01*
X83986077Y-37483438D01*
X83986078Y-37483438D01*
X83752882Y-37446504D01*
X83516778Y-37446504D01*
X83283582Y-37483438D01*
X83059027Y-37556401D01*
X82848660Y-37663588D01*
X82765724Y-37723844D01*
X83752909Y-38711029D01*
X83689326Y-38728067D01*
X83575311Y-38793893D01*
X83482219Y-38886985D01*
X83416393Y-39001000D01*
X83399356Y-39064583D01*
X82412170Y-38077397D01*
X82412169Y-38077397D01*
X82351916Y-38160330D01*
X82244727Y-38370701D01*
X82171764Y-38595256D01*
X82134830Y-38828451D01*
X65087703Y-38828451D01*
X65087703Y-37132557D01*
X65571521Y-37132557D01*
X65571521Y-37132560D01*
X65592158Y-37289319D01*
X65592159Y-37289321D01*
X65652667Y-37435400D01*
X65748921Y-37560841D01*
X65874362Y-37657095D01*
X66020441Y-37717603D01*
X66098822Y-37727922D01*
X66177202Y-37738241D01*
X66177203Y-37738241D01*
X66177204Y-37738241D01*
X66229457Y-37731361D01*
X66333965Y-37717603D01*
X66480044Y-37657095D01*
X66605485Y-37560841D01*
X66647126Y-37506572D01*
X66703554Y-37465370D01*
X66745502Y-37458059D01*
X66960054Y-37458059D01*
X66960056Y-37458059D01*
X67042842Y-37435877D01*
X67117065Y-37393024D01*
X75295519Y-29214568D01*
X75356840Y-29181085D01*
X75399384Y-29179312D01*
X75467202Y-29188241D01*
X75467203Y-29188241D01*
X75467204Y-29188241D01*
X75519457Y-29181361D01*
X75623965Y-29167603D01*
X75770044Y-29107095D01*
X75895485Y-29010841D01*
X75991739Y-28885400D01*
X76052247Y-28739321D01*
X76072885Y-28582559D01*
X76052247Y-28425797D01*
X75991739Y-28279718D01*
X75895485Y-28154277D01*
X75770044Y-28058023D01*
X75623965Y-27997515D01*
X75623963Y-27997514D01*
X75467204Y-27976877D01*
X75467202Y-27976877D01*
X75310442Y-27997514D01*
X75310440Y-27997515D01*
X75164363Y-28058022D01*
X75038921Y-28154277D01*
X74942666Y-28279719D01*
X74882159Y-28425796D01*
X74882158Y-28425798D01*
X74861521Y-28582557D01*
X74861521Y-28582560D01*
X74870449Y-28650376D01*
X74859683Y-28719411D01*
X74835191Y-28754242D01*
X66826892Y-36762542D01*
X66765569Y-36796027D01*
X66695877Y-36791043D01*
X66640836Y-36750347D01*
X66605485Y-36704277D01*
X66480044Y-36608023D01*
X66333965Y-36547515D01*
X66333963Y-36547514D01*
X66177204Y-36526877D01*
X66177202Y-36526877D01*
X66020442Y-36547514D01*
X66020440Y-36547515D01*
X65874363Y-36608022D01*
X65748921Y-36704277D01*
X65652666Y-36829719D01*
X65592159Y-36975796D01*
X65592158Y-36975798D01*
X65571521Y-37132557D01*
X65087703Y-37132557D01*
X65087703Y-25486417D01*
X65087703Y-25486415D01*
X65063817Y-25397271D01*
X65042136Y-25359719D01*
X65017676Y-25317353D01*
X65017673Y-25317350D01*
X65017672Y-25317347D01*
X64952415Y-25252090D01*
X64862882Y-25162557D01*
X73861521Y-25162557D01*
X73861521Y-25162560D01*
X73882158Y-25319319D01*
X73882159Y-25319321D01*
X73914444Y-25397265D01*
X73942667Y-25465400D01*
X74038921Y-25590841D01*
X74164362Y-25687095D01*
X74310441Y-25747603D01*
X74388822Y-25757922D01*
X74467202Y-25768241D01*
X74467203Y-25768241D01*
X74467204Y-25768241D01*
X74531608Y-25759762D01*
X74623965Y-25747603D01*
X74770044Y-25687095D01*
X74833136Y-25638682D01*
X74898305Y-25613489D01*
X74908622Y-25613059D01*
X83649238Y-25613059D01*
X83716277Y-25632744D01*
X83736919Y-25649378D01*
X86390384Y-28302843D01*
X86423869Y-28364166D01*
X86426703Y-28390524D01*
X86426703Y-32191867D01*
X86450915Y-32282231D01*
X86457403Y-32306444D01*
X86457403Y-32306445D01*
X86457404Y-32306446D01*
X86516714Y-32409173D01*
X86516716Y-32409175D01*
X87636520Y-33528980D01*
X87670005Y-33590303D01*
X87671778Y-33600475D01*
X87682158Y-33679320D01*
X87742666Y-33825398D01*
X87742667Y-33825400D01*
X87838921Y-33950841D01*
X87964362Y-34047095D01*
X88110441Y-34107603D01*
X88188822Y-34117922D01*
X88267202Y-34128241D01*
X88267203Y-34128241D01*
X88267204Y-34128241D01*
X88319457Y-34121361D01*
X88423965Y-34107603D01*
X88570044Y-34047095D01*
X88695485Y-33950841D01*
X88791739Y-33825400D01*
X88852247Y-33679321D01*
X88872885Y-33522559D01*
X88852247Y-33365797D01*
X88791739Y-33219718D01*
X88695485Y-33094277D01*
X88570044Y-32998023D01*
X88570042Y-32998022D01*
X88423964Y-32937514D01*
X88345119Y-32927134D01*
X88281222Y-32898867D01*
X88273624Y-32891876D01*
X87364022Y-31982274D01*
X87330537Y-31920951D01*
X87327703Y-31894593D01*
X87327703Y-28093252D01*
X87327703Y-28093250D01*
X87297002Y-27978673D01*
X87295965Y-27976877D01*
X87248192Y-27894131D01*
X95153294Y-27894131D01*
X95153294Y-27894134D01*
X95173198Y-28172432D01*
X95232503Y-28445049D01*
X95232505Y-28445056D01*
X95283790Y-28582557D01*
X95330007Y-28706471D01*
X95330009Y-28706475D01*
X95463716Y-28951340D01*
X95463721Y-28951348D01*
X95630914Y-29174693D01*
X95630930Y-29174711D01*
X95828197Y-29371978D01*
X95828215Y-29371994D01*
X96051560Y-29539187D01*
X96051568Y-29539192D01*
X96296433Y-29672899D01*
X96296437Y-29672901D01*
X96296439Y-29672902D01*
X96557853Y-29770404D01*
X96692607Y-29799718D01*
X96830476Y-29829710D01*
X96830478Y-29829710D01*
X96830482Y-29829711D01*
X97077790Y-29847398D01*
X97108775Y-29849615D01*
X97108776Y-29849615D01*
X97108777Y-29849615D01*
X97136657Y-29847620D01*
X97387070Y-29829711D01*
X97659699Y-29770404D01*
X97921113Y-29672902D01*
X98165989Y-29539189D01*
X98389344Y-29371988D01*
X98586631Y-29174701D01*
X98753832Y-28951346D01*
X98887545Y-28706470D01*
X98985047Y-28445056D01*
X99044354Y-28172427D01*
X99064258Y-27894133D01*
X99062957Y-27875949D01*
X99060269Y-27838369D01*
X99044354Y-27615839D01*
X98985047Y-27343210D01*
X98887545Y-27081796D01*
X98847851Y-27009103D01*
X98753835Y-26836925D01*
X98753830Y-26836917D01*
X98586637Y-26613572D01*
X98586621Y-26613554D01*
X98389354Y-26416287D01*
X98389336Y-26416271D01*
X98165991Y-26249078D01*
X98165983Y-26249073D01*
X97921118Y-26115366D01*
X97921114Y-26115364D01*
X97822006Y-26078399D01*
X97659699Y-26017862D01*
X97659695Y-26017861D01*
X97659692Y-26017860D01*
X97387075Y-25958555D01*
X97108777Y-25938651D01*
X97108775Y-25938651D01*
X96830476Y-25958555D01*
X96557859Y-26017860D01*
X96557854Y-26017861D01*
X96557853Y-26017862D01*
X96494651Y-26041434D01*
X96296437Y-26115364D01*
X96296433Y-26115366D01*
X96051568Y-26249073D01*
X96051560Y-26249078D01*
X95828215Y-26416271D01*
X95828197Y-26416287D01*
X95630930Y-26613554D01*
X95630914Y-26613572D01*
X95463721Y-26836917D01*
X95463716Y-26836925D01*
X95330009Y-27081790D01*
X95330007Y-27081794D01*
X95232503Y-27343216D01*
X95173198Y-27615833D01*
X95153294Y-27894131D01*
X87248192Y-27894131D01*
X87237693Y-27875946D01*
X84163817Y-24802070D01*
X84122125Y-24777999D01*
X84061088Y-24742758D01*
X84029431Y-24734277D01*
X83987971Y-24723168D01*
X83946512Y-24712059D01*
X83946511Y-24712059D01*
X74908622Y-24712059D01*
X74841583Y-24692374D01*
X74833136Y-24686435D01*
X74770045Y-24638023D01*
X74623965Y-24577515D01*
X74623963Y-24577514D01*
X74467204Y-24556877D01*
X74467202Y-24556877D01*
X74310442Y-24577514D01*
X74310440Y-24577515D01*
X74164363Y-24638022D01*
X74038921Y-24734277D01*
X73942666Y-24859719D01*
X73882159Y-25005796D01*
X73882158Y-25005798D01*
X73861521Y-25162557D01*
X64862882Y-25162557D01*
X63729605Y-24029280D01*
X65386703Y-24029280D01*
X65386703Y-24195837D01*
X65419193Y-24359174D01*
X65419195Y-24359182D01*
X65482931Y-24513054D01*
X65482931Y-24513055D01*
X65575458Y-24651532D01*
X65575464Y-24651539D01*
X65693222Y-24769297D01*
X65693229Y-24769303D01*
X65831707Y-24861830D01*
X65831708Y-24861830D01*
X65831709Y-24861831D01*
X65985580Y-24925567D01*
X66148924Y-24958058D01*
X66148928Y-24958059D01*
X66148929Y-24958059D01*
X66315478Y-24958059D01*
X66315479Y-24958058D01*
X66478826Y-24925567D01*
X66632697Y-24861831D01*
X66632698Y-24861830D01*
X66632699Y-24861830D01*
X66729702Y-24797015D01*
X66771178Y-24769302D01*
X66888946Y-24651534D01*
X66968760Y-24532083D01*
X66981474Y-24513055D01*
X66981474Y-24513054D01*
X66981475Y-24513053D01*
X67045211Y-24359182D01*
X67077703Y-24195833D01*
X67077703Y-24029285D01*
X67045211Y-23865936D01*
X66981475Y-23712065D01*
X66981474Y-23712063D01*
X66981474Y-23712062D01*
X66888947Y-23573585D01*
X66888941Y-23573578D01*
X66771183Y-23455820D01*
X66771176Y-23455814D01*
X66632698Y-23363287D01*
X66478826Y-23299551D01*
X66478818Y-23299549D01*
X66315481Y-23267059D01*
X66315477Y-23267059D01*
X66148929Y-23267059D01*
X66148924Y-23267059D01*
X65985587Y-23299549D01*
X65985579Y-23299551D01*
X65831707Y-23363287D01*
X65831706Y-23363287D01*
X65693229Y-23455814D01*
X65693222Y-23455820D01*
X65575464Y-23573578D01*
X65575458Y-23573585D01*
X65482931Y-23712062D01*
X65482931Y-23712063D01*
X65419195Y-23865935D01*
X65419193Y-23865943D01*
X65386703Y-24029280D01*
X63729605Y-24029280D01*
X59813327Y-20113001D01*
X59779842Y-20051678D01*
X59778069Y-20009138D01*
X59782885Y-19972559D01*
X59762247Y-19815797D01*
X59701739Y-19669718D01*
X59605485Y-19544277D01*
X59480044Y-19448023D01*
X59333965Y-19387515D01*
X59333963Y-19387514D01*
X59177204Y-19366877D01*
X59177202Y-19366877D01*
X59020442Y-19387514D01*
X59020440Y-19387515D01*
X58874363Y-19448022D01*
X58748921Y-19544277D01*
X58652666Y-19669719D01*
X58592159Y-19815796D01*
X58592158Y-19815798D01*
X58571521Y-19972557D01*
X58571521Y-19972560D01*
X58592652Y-20133067D01*
X58581886Y-20202102D01*
X58535506Y-20254358D01*
X58468237Y-20273243D01*
X58453528Y-20272191D01*
X58337204Y-20256877D01*
X58337202Y-20256877D01*
X58180442Y-20277514D01*
X58180440Y-20277515D01*
X58034363Y-20338022D01*
X57908921Y-20434277D01*
X57812666Y-20559719D01*
X57752159Y-20705796D01*
X57752158Y-20705798D01*
X57731521Y-20862557D01*
X57731521Y-20862560D01*
X57752158Y-21019319D01*
X57752159Y-21019321D01*
X57783442Y-21094846D01*
X57812667Y-21165400D01*
X57908921Y-21290841D01*
X57908923Y-21290842D01*
X57908925Y-21290845D01*
X57914668Y-21296588D01*
X57913585Y-21297670D01*
X57949392Y-21346707D01*
X57956703Y-21388655D01*
X57956703Y-22269365D01*
X57975854Y-22340839D01*
X57980588Y-22358506D01*
X57980590Y-22358511D01*
X58026730Y-22438428D01*
X58026734Y-22438433D01*
X58690248Y-23101947D01*
X58723733Y-23163270D01*
X58718749Y-23232962D01*
X58676877Y-23288895D01*
X58611413Y-23313312D01*
X58586382Y-23312567D01*
X58467204Y-23296877D01*
X58467202Y-23296877D01*
X58310442Y-23317514D01*
X58310440Y-23317515D01*
X58164363Y-23378022D01*
X58038921Y-23474277D01*
X57942666Y-23599719D01*
X57882159Y-23745796D01*
X57882159Y-23745797D01*
X57861521Y-23902557D01*
X57861521Y-23902560D01*
X57882158Y-24059319D01*
X57882159Y-24059321D01*
X57938704Y-24195834D01*
X57942667Y-24205400D01*
X58038921Y-24330841D01*
X58164362Y-24427095D01*
X58310441Y-24487603D01*
X58467203Y-24508241D01*
X58503780Y-24503425D01*
X58572812Y-24514190D01*
X58607645Y-24538683D01*
X59620384Y-25551422D01*
X59653869Y-25612745D01*
X59656703Y-25639103D01*
X59656703Y-26167015D01*
X59637018Y-26234054D01*
X59584214Y-26279809D01*
X59515056Y-26289753D01*
X59451500Y-26260728D01*
X59445022Y-26254696D01*
X58993327Y-25803001D01*
X58959842Y-25741678D01*
X58958069Y-25699138D01*
X58962885Y-25662559D01*
X58942247Y-25505797D01*
X58881739Y-25359718D01*
X58785485Y-25234277D01*
X58660044Y-25138023D01*
X58513965Y-25077515D01*
X58513963Y-25077514D01*
X58357204Y-25056877D01*
X58357202Y-25056877D01*
X58200442Y-25077514D01*
X58200440Y-25077515D01*
X58054363Y-25138022D01*
X57928921Y-25234277D01*
X57832666Y-25359719D01*
X57772159Y-25505796D01*
X57772158Y-25505798D01*
X57751521Y-25662557D01*
X57751521Y-25662560D01*
X57772158Y-25819319D01*
X57772159Y-25819321D01*
X57832667Y-25965400D01*
X57928921Y-26090841D01*
X58054362Y-26187095D01*
X58200441Y-26247603D01*
X58357203Y-26268241D01*
X58393780Y-26263425D01*
X58462812Y-26274190D01*
X58497645Y-26298683D01*
X59120384Y-26921422D01*
X59153869Y-26982745D01*
X59156703Y-27009103D01*
X59156703Y-29649411D01*
X59137018Y-29716450D01*
X59084214Y-29762205D01*
X59015056Y-29772149D01*
X58951500Y-29743124D01*
X58934331Y-29724902D01*
X58895485Y-29674277D01*
X58770044Y-29578023D01*
X58623965Y-29517515D01*
X58623963Y-29517514D01*
X58467204Y-29496877D01*
X58467202Y-29496877D01*
X58310442Y-29517514D01*
X58310440Y-29517515D01*
X58164363Y-29578022D01*
X58038921Y-29674277D01*
X57942666Y-29799719D01*
X57882159Y-29945796D01*
X57882158Y-29945798D01*
X57861521Y-30102557D01*
X57861521Y-30102560D01*
X57882158Y-30259319D01*
X57882159Y-30259321D01*
X57942667Y-30405400D01*
X58038921Y-30530841D01*
X58164362Y-30627095D01*
X58310441Y-30687603D01*
X58467203Y-30708241D01*
X58503779Y-30703425D01*
X58572813Y-30714190D01*
X58607646Y-30738683D01*
X58620384Y-30751421D01*
X58653869Y-30812744D01*
X58656703Y-30839102D01*
X58656703Y-38353616D01*
X58637018Y-38420655D01*
X58584214Y-38466410D01*
X58515056Y-38476354D01*
X58485251Y-38468177D01*
X58356765Y-38414957D01*
X58356760Y-38414955D01*
X58200001Y-38394318D01*
X58199999Y-38394318D01*
X58043239Y-38414955D01*
X58043237Y-38414956D01*
X57897160Y-38475463D01*
X57771718Y-38571718D01*
X57675463Y-38697160D01*
X57614956Y-38843237D01*
X57614956Y-38843238D01*
X57593855Y-39003513D01*
X57565588Y-39067409D01*
X57558598Y-39075008D01*
X57316722Y-39316884D01*
X57263996Y-39408208D01*
X57252302Y-39451852D01*
X57240608Y-39495495D01*
X57239631Y-39499138D01*
X57236703Y-39510067D01*
X56508777Y-39510067D01*
X56508777Y-21094899D01*
X56508786Y-21093392D01*
X56511099Y-20903074D01*
X56511687Y-20892428D01*
X56549063Y-20512902D01*
X56550845Y-20500890D01*
X56625098Y-20127577D01*
X56628054Y-20115780D01*
X56719050Y-19815798D01*
X56738539Y-19751551D01*
X56742627Y-19740124D01*
X56888278Y-19388485D01*
X56893479Y-19377489D01*
X56899151Y-19366877D01*
X57072896Y-19041816D01*
X57079141Y-19031396D01*
X57290608Y-18714910D01*
X57297834Y-18705166D01*
X57539314Y-18410919D01*
X57547437Y-18401955D01*
X57816608Y-18132780D01*
X57825589Y-18124640D01*
X58119826Y-17883163D01*
X58129564Y-17875941D01*
X58446047Y-17664471D01*
X58456464Y-17658227D01*
X58792148Y-17478797D01*
X58803121Y-17473607D01*
X59154769Y-17327948D01*
X59166219Y-17323851D01*
X59530448Y-17213361D01*
X59542210Y-17210415D01*
X59915521Y-17136155D01*
X59927546Y-17134371D01*
X60307070Y-17096989D01*
X60317734Y-17096402D01*
X60508019Y-17094141D01*
X60509492Y-17094133D01*
X133708071Y-17094133D01*
X133709537Y-17094142D01*
G37*
%TD.AperFunction*%
%TD*%
M02*
