%TF.GenerationSoftware,KiCad,Pcbnew,8.0.4*%
%TF.CreationDate,2024-09-16T16:07:33+01:00*%
%TF.ProjectId,algoritmi_foc,616c676f-7269-4746-9d69-5f666f632e6b,Andr_s Motta*%
%TF.SameCoordinates,Original*%
%TF.FileFunction,Drillmap*%
%TF.FilePolarity,Positive*%
%FSLAX45Y45*%
G04 Gerber Fmt 4.5, Leading zero omitted, Abs format (unit mm)*
G04 Created by KiCad (PCBNEW 8.0.4) date 2024-09-16 16:07:33*
%MOMM*%
%LPD*%
G01*
G04 APERTURE LIST*
%ADD10C,0.100000*%
%ADD11C,0.200000*%
G04 APERTURE END LIST*
D10*
X8140000Y-9620000D02*
X12420000Y-9620000D01*
X12227500Y-7060000D02*
X12540000Y-7060000D01*
X12460000Y-6900000D02*
G75*
G02*
X12220000Y-6900000I-120000J0D01*
G01*
X12220000Y-6900000D02*
G75*
G02*
X12460000Y-6900000I120000J0D01*
G01*
X12227500Y-8220000D02*
X12227500Y-7060000D01*
X8020000Y-6820000D02*
G75*
G02*
X8140000Y-6700000I120000J0D01*
G01*
X8340000Y-6900000D02*
G75*
G02*
X8100000Y-6900000I-120000J0D01*
G01*
X8100000Y-6900000D02*
G75*
G02*
X8340000Y-6900000I120000J0D01*
G01*
X12540000Y-9500000D02*
X12540000Y-8220000D01*
X8020000Y-6820000D02*
X8020000Y-9500000D01*
X12540000Y-7060000D02*
X12540000Y-6820000D01*
X8140000Y-9620000D02*
G75*
G02*
X8020000Y-9500000I0J120000D01*
G01*
X12460000Y-9420000D02*
G75*
G02*
X12220000Y-9420000I-120000J0D01*
G01*
X12220000Y-9420000D02*
G75*
G02*
X12460000Y-9420000I120000J0D01*
G01*
X12540000Y-8220000D02*
X12227500Y-8220000D01*
X8340000Y-9420000D02*
G75*
G02*
X8100000Y-9420000I-120000J0D01*
G01*
X8100000Y-9420000D02*
G75*
G02*
X8340000Y-9420000I120000J0D01*
G01*
X12420000Y-6700000D02*
X8140000Y-6700000D01*
X12540000Y-9500000D02*
G75*
G02*
X12420000Y-9620000I-120000J0D01*
G01*
X12420000Y-6700000D02*
G75*
G02*
X12540000Y-6820000I0J-120000D01*
G01*
D11*
D10*
X8543800Y-8549000D02*
X8583800Y-8589000D01*
X8583800Y-8549000D02*
X8543800Y-8589000D01*
X8558800Y-7909000D02*
X8598800Y-7949000D01*
X8598800Y-7909000D02*
X8558800Y-7949000D01*
X8558800Y-8169000D02*
X8598800Y-8209000D01*
X8598800Y-8169000D02*
X8558800Y-8209000D01*
X8558800Y-8409000D02*
X8598800Y-8449000D01*
X8598800Y-8409000D02*
X8558800Y-8449000D01*
X8563800Y-7409000D02*
X8603800Y-7449000D01*
X8603800Y-7409000D02*
X8563800Y-7449000D01*
X8563800Y-7669000D02*
X8603800Y-7709000D01*
X8603800Y-7669000D02*
X8563800Y-7709000D01*
X8743800Y-8429000D02*
X8783800Y-8469000D01*
X8783800Y-8429000D02*
X8743800Y-8469000D01*
X9163800Y-8069000D02*
X9203800Y-8109000D01*
X9203800Y-8069000D02*
X9163800Y-8109000D01*
X9163800Y-8309000D02*
X9203800Y-8349000D01*
X9203800Y-8309000D02*
X9163800Y-8349000D01*
X9203800Y-8549000D02*
X9243800Y-8589000D01*
X9243800Y-8549000D02*
X9203800Y-8589000D01*
X9400000Y-8349000D02*
X9440000Y-8389000D01*
X9440000Y-8349000D02*
X9400000Y-8389000D01*
X9440000Y-8880000D02*
X9480000Y-8920000D01*
X9480000Y-8880000D02*
X9440000Y-8920000D01*
X9540000Y-8760000D02*
X9580000Y-8800000D01*
X9580000Y-8760000D02*
X9540000Y-8800000D01*
X9600000Y-7969000D02*
X9640000Y-8009000D01*
X9640000Y-7969000D02*
X9600000Y-8009000D01*
X9660000Y-7760000D02*
X9700000Y-7800000D01*
X9700000Y-7760000D02*
X9660000Y-7800000D01*
X9903800Y-7669000D02*
X9943800Y-7709000D01*
X9943800Y-7669000D02*
X9903800Y-7709000D01*
X10060000Y-7500000D02*
X10100000Y-7540000D01*
X10100000Y-7500000D02*
X10060000Y-7540000D01*
X10063800Y-7669000D02*
X10103800Y-7709000D01*
X10103800Y-7669000D02*
X10063800Y-7709000D01*
X10073800Y-8309000D02*
X10113800Y-8349000D01*
X10113800Y-8309000D02*
X10073800Y-8349000D01*
X10363800Y-8129000D02*
X10403800Y-8169000D01*
X10403800Y-8129000D02*
X10363800Y-8169000D01*
X10363800Y-8489000D02*
X10403800Y-8529000D01*
X10403800Y-8489000D02*
X10363800Y-8529000D01*
X10643800Y-7689000D02*
X10683800Y-7729000D01*
X10683800Y-7689000D02*
X10643800Y-7729000D01*
X10696300Y-8396500D02*
X10736300Y-8436500D01*
X10736300Y-8396500D02*
X10696300Y-8436500D01*
X10720000Y-8060000D02*
X10760000Y-8100000D01*
X10760000Y-8060000D02*
X10720000Y-8100000D01*
X10762800Y-8837000D02*
X10802800Y-8877000D01*
X10802800Y-8837000D02*
X10762800Y-8877000D01*
X10763800Y-7688000D02*
X10803800Y-7728000D01*
X10803800Y-7688000D02*
X10763800Y-7728000D01*
X10765800Y-8946000D02*
X10805800Y-8986000D01*
X10805800Y-8946000D02*
X10765800Y-8986000D01*
X10766800Y-9083000D02*
X10806800Y-9123000D01*
X10806800Y-9083000D02*
X10766800Y-9123000D01*
X10770800Y-7550000D02*
X10810800Y-7590000D01*
X10810800Y-7550000D02*
X10770800Y-7590000D01*
D11*
X8275777Y-9936484D02*
X8275777Y-9736484D01*
X8275777Y-9736484D02*
X8323396Y-9736484D01*
X8323396Y-9736484D02*
X8351967Y-9746008D01*
X8351967Y-9746008D02*
X8371015Y-9765055D01*
X8371015Y-9765055D02*
X8380539Y-9784103D01*
X8380539Y-9784103D02*
X8390063Y-9822198D01*
X8390063Y-9822198D02*
X8390063Y-9850770D01*
X8390063Y-9850770D02*
X8380539Y-9888865D01*
X8380539Y-9888865D02*
X8371015Y-9907912D01*
X8371015Y-9907912D02*
X8351967Y-9926960D01*
X8351967Y-9926960D02*
X8323396Y-9936484D01*
X8323396Y-9936484D02*
X8275777Y-9936484D01*
X8475777Y-9936484D02*
X8475777Y-9803150D01*
X8475777Y-9841246D02*
X8485301Y-9822198D01*
X8485301Y-9822198D02*
X8494824Y-9812674D01*
X8494824Y-9812674D02*
X8513872Y-9803150D01*
X8513872Y-9803150D02*
X8532920Y-9803150D01*
X8599586Y-9936484D02*
X8599586Y-9803150D01*
X8599586Y-9736484D02*
X8590063Y-9746008D01*
X8590063Y-9746008D02*
X8599586Y-9755531D01*
X8599586Y-9755531D02*
X8609110Y-9746008D01*
X8609110Y-9746008D02*
X8599586Y-9736484D01*
X8599586Y-9736484D02*
X8599586Y-9755531D01*
X8723396Y-9936484D02*
X8704348Y-9926960D01*
X8704348Y-9926960D02*
X8694824Y-9907912D01*
X8694824Y-9907912D02*
X8694824Y-9736484D01*
X8828158Y-9936484D02*
X8809110Y-9926960D01*
X8809110Y-9926960D02*
X8799586Y-9907912D01*
X8799586Y-9907912D02*
X8799586Y-9736484D01*
X9056729Y-9936484D02*
X9056729Y-9736484D01*
X9056729Y-9736484D02*
X9123396Y-9879341D01*
X9123396Y-9879341D02*
X9190063Y-9736484D01*
X9190063Y-9736484D02*
X9190063Y-9936484D01*
X9371015Y-9936484D02*
X9371015Y-9831722D01*
X9371015Y-9831722D02*
X9361491Y-9812674D01*
X9361491Y-9812674D02*
X9342444Y-9803150D01*
X9342444Y-9803150D02*
X9304348Y-9803150D01*
X9304348Y-9803150D02*
X9285301Y-9812674D01*
X9371015Y-9926960D02*
X9351967Y-9936484D01*
X9351967Y-9936484D02*
X9304348Y-9936484D01*
X9304348Y-9936484D02*
X9285301Y-9926960D01*
X9285301Y-9926960D02*
X9275777Y-9907912D01*
X9275777Y-9907912D02*
X9275777Y-9888865D01*
X9275777Y-9888865D02*
X9285301Y-9869817D01*
X9285301Y-9869817D02*
X9304348Y-9860293D01*
X9304348Y-9860293D02*
X9351967Y-9860293D01*
X9351967Y-9860293D02*
X9371015Y-9850770D01*
X9466253Y-9803150D02*
X9466253Y-10003150D01*
X9466253Y-9812674D02*
X9485301Y-9803150D01*
X9485301Y-9803150D02*
X9523396Y-9803150D01*
X9523396Y-9803150D02*
X9542444Y-9812674D01*
X9542444Y-9812674D02*
X9551967Y-9822198D01*
X9551967Y-9822198D02*
X9561491Y-9841246D01*
X9561491Y-9841246D02*
X9561491Y-9898389D01*
X9561491Y-9898389D02*
X9551967Y-9917436D01*
X9551967Y-9917436D02*
X9542444Y-9926960D01*
X9542444Y-9926960D02*
X9523396Y-9936484D01*
X9523396Y-9936484D02*
X9485301Y-9936484D01*
X9485301Y-9936484D02*
X9466253Y-9926960D01*
X9647205Y-9917436D02*
X9656729Y-9926960D01*
X9656729Y-9926960D02*
X9647205Y-9936484D01*
X9647205Y-9936484D02*
X9637682Y-9926960D01*
X9637682Y-9926960D02*
X9647205Y-9917436D01*
X9647205Y-9917436D02*
X9647205Y-9936484D01*
X9647205Y-9812674D02*
X9656729Y-9822198D01*
X9656729Y-9822198D02*
X9647205Y-9831722D01*
X9647205Y-9831722D02*
X9637682Y-9822198D01*
X9637682Y-9822198D02*
X9647205Y-9812674D01*
X9647205Y-9812674D02*
X9647205Y-9831722D01*
D10*
X7975000Y-10245000D02*
X8015000Y-10285000D01*
X8015000Y-10245000D02*
X7975000Y-10285000D01*
D11*
X8313872Y-10156484D02*
X8332920Y-10156484D01*
X8332920Y-10156484D02*
X8351967Y-10166008D01*
X8351967Y-10166008D02*
X8361491Y-10175531D01*
X8361491Y-10175531D02*
X8371015Y-10194579D01*
X8371015Y-10194579D02*
X8380539Y-10232674D01*
X8380539Y-10232674D02*
X8380539Y-10280293D01*
X8380539Y-10280293D02*
X8371015Y-10318389D01*
X8371015Y-10318389D02*
X8361491Y-10337436D01*
X8361491Y-10337436D02*
X8351967Y-10346960D01*
X8351967Y-10346960D02*
X8332920Y-10356484D01*
X8332920Y-10356484D02*
X8313872Y-10356484D01*
X8313872Y-10356484D02*
X8294824Y-10346960D01*
X8294824Y-10346960D02*
X8285301Y-10337436D01*
X8285301Y-10337436D02*
X8275777Y-10318389D01*
X8275777Y-10318389D02*
X8266253Y-10280293D01*
X8266253Y-10280293D02*
X8266253Y-10232674D01*
X8266253Y-10232674D02*
X8275777Y-10194579D01*
X8275777Y-10194579D02*
X8285301Y-10175531D01*
X8285301Y-10175531D02*
X8294824Y-10166008D01*
X8294824Y-10166008D02*
X8313872Y-10156484D01*
X8466253Y-10337436D02*
X8475777Y-10346960D01*
X8475777Y-10346960D02*
X8466253Y-10356484D01*
X8466253Y-10356484D02*
X8456729Y-10346960D01*
X8456729Y-10346960D02*
X8466253Y-10337436D01*
X8466253Y-10337436D02*
X8466253Y-10356484D01*
X8647205Y-10223150D02*
X8647205Y-10356484D01*
X8599586Y-10146960D02*
X8551967Y-10289817D01*
X8551967Y-10289817D02*
X8675777Y-10289817D01*
X8790063Y-10156484D02*
X8809110Y-10156484D01*
X8809110Y-10156484D02*
X8828158Y-10166008D01*
X8828158Y-10166008D02*
X8837682Y-10175531D01*
X8837682Y-10175531D02*
X8847205Y-10194579D01*
X8847205Y-10194579D02*
X8856729Y-10232674D01*
X8856729Y-10232674D02*
X8856729Y-10280293D01*
X8856729Y-10280293D02*
X8847205Y-10318389D01*
X8847205Y-10318389D02*
X8837682Y-10337436D01*
X8837682Y-10337436D02*
X8828158Y-10346960D01*
X8828158Y-10346960D02*
X8809110Y-10356484D01*
X8809110Y-10356484D02*
X8790063Y-10356484D01*
X8790063Y-10356484D02*
X8771015Y-10346960D01*
X8771015Y-10346960D02*
X8761491Y-10337436D01*
X8761491Y-10337436D02*
X8751967Y-10318389D01*
X8751967Y-10318389D02*
X8742444Y-10280293D01*
X8742444Y-10280293D02*
X8742444Y-10232674D01*
X8742444Y-10232674D02*
X8751967Y-10194579D01*
X8751967Y-10194579D02*
X8761491Y-10175531D01*
X8761491Y-10175531D02*
X8771015Y-10166008D01*
X8771015Y-10166008D02*
X8790063Y-10156484D01*
X8980539Y-10156484D02*
X8999586Y-10156484D01*
X8999586Y-10156484D02*
X9018634Y-10166008D01*
X9018634Y-10166008D02*
X9028158Y-10175531D01*
X9028158Y-10175531D02*
X9037682Y-10194579D01*
X9037682Y-10194579D02*
X9047205Y-10232674D01*
X9047205Y-10232674D02*
X9047205Y-10280293D01*
X9047205Y-10280293D02*
X9037682Y-10318389D01*
X9037682Y-10318389D02*
X9028158Y-10337436D01*
X9028158Y-10337436D02*
X9018634Y-10346960D01*
X9018634Y-10346960D02*
X8999586Y-10356484D01*
X8999586Y-10356484D02*
X8980539Y-10356484D01*
X8980539Y-10356484D02*
X8961491Y-10346960D01*
X8961491Y-10346960D02*
X8951967Y-10337436D01*
X8951967Y-10337436D02*
X8942444Y-10318389D01*
X8942444Y-10318389D02*
X8932920Y-10280293D01*
X8932920Y-10280293D02*
X8932920Y-10232674D01*
X8932920Y-10232674D02*
X8942444Y-10194579D01*
X8942444Y-10194579D02*
X8951967Y-10175531D01*
X8951967Y-10175531D02*
X8961491Y-10166008D01*
X8961491Y-10166008D02*
X8980539Y-10156484D01*
X9132920Y-10356484D02*
X9132920Y-10223150D01*
X9132920Y-10242198D02*
X9142444Y-10232674D01*
X9142444Y-10232674D02*
X9161491Y-10223150D01*
X9161491Y-10223150D02*
X9190063Y-10223150D01*
X9190063Y-10223150D02*
X9209110Y-10232674D01*
X9209110Y-10232674D02*
X9218634Y-10251722D01*
X9218634Y-10251722D02*
X9218634Y-10356484D01*
X9218634Y-10251722D02*
X9228158Y-10232674D01*
X9228158Y-10232674D02*
X9247205Y-10223150D01*
X9247205Y-10223150D02*
X9275777Y-10223150D01*
X9275777Y-10223150D02*
X9294825Y-10232674D01*
X9294825Y-10232674D02*
X9304348Y-10251722D01*
X9304348Y-10251722D02*
X9304348Y-10356484D01*
X9399586Y-10356484D02*
X9399586Y-10223150D01*
X9399586Y-10242198D02*
X9409110Y-10232674D01*
X9409110Y-10232674D02*
X9428158Y-10223150D01*
X9428158Y-10223150D02*
X9456729Y-10223150D01*
X9456729Y-10223150D02*
X9475777Y-10232674D01*
X9475777Y-10232674D02*
X9485301Y-10251722D01*
X9485301Y-10251722D02*
X9485301Y-10356484D01*
X9485301Y-10251722D02*
X9494825Y-10232674D01*
X9494825Y-10232674D02*
X9513872Y-10223150D01*
X9513872Y-10223150D02*
X9542444Y-10223150D01*
X9542444Y-10223150D02*
X9561491Y-10232674D01*
X9561491Y-10232674D02*
X9571015Y-10251722D01*
X9571015Y-10251722D02*
X9571015Y-10356484D01*
X9961491Y-10146960D02*
X9790063Y-10404103D01*
X10218634Y-10156484D02*
X10237682Y-10156484D01*
X10237682Y-10156484D02*
X10256729Y-10166008D01*
X10256729Y-10166008D02*
X10266253Y-10175531D01*
X10266253Y-10175531D02*
X10275777Y-10194579D01*
X10275777Y-10194579D02*
X10285301Y-10232674D01*
X10285301Y-10232674D02*
X10285301Y-10280293D01*
X10285301Y-10280293D02*
X10275777Y-10318389D01*
X10275777Y-10318389D02*
X10266253Y-10337436D01*
X10266253Y-10337436D02*
X10256729Y-10346960D01*
X10256729Y-10346960D02*
X10237682Y-10356484D01*
X10237682Y-10356484D02*
X10218634Y-10356484D01*
X10218634Y-10356484D02*
X10199587Y-10346960D01*
X10199587Y-10346960D02*
X10190063Y-10337436D01*
X10190063Y-10337436D02*
X10180539Y-10318389D01*
X10180539Y-10318389D02*
X10171015Y-10280293D01*
X10171015Y-10280293D02*
X10171015Y-10232674D01*
X10171015Y-10232674D02*
X10180539Y-10194579D01*
X10180539Y-10194579D02*
X10190063Y-10175531D01*
X10190063Y-10175531D02*
X10199587Y-10166008D01*
X10199587Y-10166008D02*
X10218634Y-10156484D01*
X10371015Y-10337436D02*
X10380539Y-10346960D01*
X10380539Y-10346960D02*
X10371015Y-10356484D01*
X10371015Y-10356484D02*
X10361491Y-10346960D01*
X10361491Y-10346960D02*
X10371015Y-10337436D01*
X10371015Y-10337436D02*
X10371015Y-10356484D01*
X10504348Y-10156484D02*
X10523396Y-10156484D01*
X10523396Y-10156484D02*
X10542444Y-10166008D01*
X10542444Y-10166008D02*
X10551968Y-10175531D01*
X10551968Y-10175531D02*
X10561491Y-10194579D01*
X10561491Y-10194579D02*
X10571015Y-10232674D01*
X10571015Y-10232674D02*
X10571015Y-10280293D01*
X10571015Y-10280293D02*
X10561491Y-10318389D01*
X10561491Y-10318389D02*
X10551968Y-10337436D01*
X10551968Y-10337436D02*
X10542444Y-10346960D01*
X10542444Y-10346960D02*
X10523396Y-10356484D01*
X10523396Y-10356484D02*
X10504348Y-10356484D01*
X10504348Y-10356484D02*
X10485301Y-10346960D01*
X10485301Y-10346960D02*
X10475777Y-10337436D01*
X10475777Y-10337436D02*
X10466253Y-10318389D01*
X10466253Y-10318389D02*
X10456729Y-10280293D01*
X10456729Y-10280293D02*
X10456729Y-10232674D01*
X10456729Y-10232674D02*
X10466253Y-10194579D01*
X10466253Y-10194579D02*
X10475777Y-10175531D01*
X10475777Y-10175531D02*
X10485301Y-10166008D01*
X10485301Y-10166008D02*
X10504348Y-10156484D01*
X10761491Y-10356484D02*
X10647206Y-10356484D01*
X10704348Y-10356484D02*
X10704348Y-10156484D01*
X10704348Y-10156484D02*
X10685301Y-10185055D01*
X10685301Y-10185055D02*
X10666253Y-10204103D01*
X10666253Y-10204103D02*
X10647206Y-10213627D01*
X10942444Y-10156484D02*
X10847206Y-10156484D01*
X10847206Y-10156484D02*
X10837682Y-10251722D01*
X10837682Y-10251722D02*
X10847206Y-10242198D01*
X10847206Y-10242198D02*
X10866253Y-10232674D01*
X10866253Y-10232674D02*
X10913872Y-10232674D01*
X10913872Y-10232674D02*
X10932920Y-10242198D01*
X10932920Y-10242198D02*
X10942444Y-10251722D01*
X10942444Y-10251722D02*
X10951968Y-10270770D01*
X10951968Y-10270770D02*
X10951968Y-10318389D01*
X10951968Y-10318389D02*
X10942444Y-10337436D01*
X10942444Y-10337436D02*
X10932920Y-10346960D01*
X10932920Y-10346960D02*
X10913872Y-10356484D01*
X10913872Y-10356484D02*
X10866253Y-10356484D01*
X10866253Y-10356484D02*
X10847206Y-10346960D01*
X10847206Y-10346960D02*
X10837682Y-10337436D01*
X11018634Y-10156484D02*
X11151968Y-10156484D01*
X11151968Y-10156484D02*
X11066253Y-10356484D01*
X11218634Y-10156484D02*
X11218634Y-10194579D01*
X11294825Y-10156484D02*
X11294825Y-10194579D01*
X11590063Y-10432674D02*
X11580539Y-10423150D01*
X11580539Y-10423150D02*
X11561491Y-10394579D01*
X11561491Y-10394579D02*
X11551968Y-10375531D01*
X11551968Y-10375531D02*
X11542444Y-10346960D01*
X11542444Y-10346960D02*
X11532920Y-10299341D01*
X11532920Y-10299341D02*
X11532920Y-10261246D01*
X11532920Y-10261246D02*
X11542444Y-10213627D01*
X11542444Y-10213627D02*
X11551968Y-10185055D01*
X11551968Y-10185055D02*
X11561491Y-10166008D01*
X11561491Y-10166008D02*
X11580539Y-10137436D01*
X11580539Y-10137436D02*
X11590063Y-10127912D01*
X11656729Y-10175531D02*
X11666253Y-10166008D01*
X11666253Y-10166008D02*
X11685301Y-10156484D01*
X11685301Y-10156484D02*
X11732920Y-10156484D01*
X11732920Y-10156484D02*
X11751968Y-10166008D01*
X11751968Y-10166008D02*
X11761491Y-10175531D01*
X11761491Y-10175531D02*
X11771015Y-10194579D01*
X11771015Y-10194579D02*
X11771015Y-10213627D01*
X11771015Y-10213627D02*
X11761491Y-10242198D01*
X11761491Y-10242198D02*
X11647206Y-10356484D01*
X11647206Y-10356484D02*
X11771015Y-10356484D01*
X11866253Y-10356484D02*
X11904348Y-10356484D01*
X11904348Y-10356484D02*
X11923396Y-10346960D01*
X11923396Y-10346960D02*
X11932920Y-10337436D01*
X11932920Y-10337436D02*
X11951968Y-10308865D01*
X11951968Y-10308865D02*
X11961491Y-10270770D01*
X11961491Y-10270770D02*
X11961491Y-10194579D01*
X11961491Y-10194579D02*
X11951968Y-10175531D01*
X11951968Y-10175531D02*
X11942444Y-10166008D01*
X11942444Y-10166008D02*
X11923396Y-10156484D01*
X11923396Y-10156484D02*
X11885301Y-10156484D01*
X11885301Y-10156484D02*
X11866253Y-10166008D01*
X11866253Y-10166008D02*
X11856729Y-10175531D01*
X11856729Y-10175531D02*
X11847206Y-10194579D01*
X11847206Y-10194579D02*
X11847206Y-10242198D01*
X11847206Y-10242198D02*
X11856729Y-10261246D01*
X11856729Y-10261246D02*
X11866253Y-10270770D01*
X11866253Y-10270770D02*
X11885301Y-10280293D01*
X11885301Y-10280293D02*
X11923396Y-10280293D01*
X11923396Y-10280293D02*
X11942444Y-10270770D01*
X11942444Y-10270770D02*
X11951968Y-10261246D01*
X11951968Y-10261246D02*
X11961491Y-10242198D01*
X12199587Y-10356484D02*
X12199587Y-10156484D01*
X12285301Y-10356484D02*
X12285301Y-10251722D01*
X12285301Y-10251722D02*
X12275777Y-10232674D01*
X12275777Y-10232674D02*
X12256730Y-10223150D01*
X12256730Y-10223150D02*
X12228158Y-10223150D01*
X12228158Y-10223150D02*
X12209110Y-10232674D01*
X12209110Y-10232674D02*
X12199587Y-10242198D01*
X12409110Y-10356484D02*
X12390063Y-10346960D01*
X12390063Y-10346960D02*
X12380539Y-10337436D01*
X12380539Y-10337436D02*
X12371015Y-10318389D01*
X12371015Y-10318389D02*
X12371015Y-10261246D01*
X12371015Y-10261246D02*
X12380539Y-10242198D01*
X12380539Y-10242198D02*
X12390063Y-10232674D01*
X12390063Y-10232674D02*
X12409110Y-10223150D01*
X12409110Y-10223150D02*
X12437682Y-10223150D01*
X12437682Y-10223150D02*
X12456730Y-10232674D01*
X12456730Y-10232674D02*
X12466253Y-10242198D01*
X12466253Y-10242198D02*
X12475777Y-10261246D01*
X12475777Y-10261246D02*
X12475777Y-10318389D01*
X12475777Y-10318389D02*
X12466253Y-10337436D01*
X12466253Y-10337436D02*
X12456730Y-10346960D01*
X12456730Y-10346960D02*
X12437682Y-10356484D01*
X12437682Y-10356484D02*
X12409110Y-10356484D01*
X12590063Y-10356484D02*
X12571015Y-10346960D01*
X12571015Y-10346960D02*
X12561491Y-10327912D01*
X12561491Y-10327912D02*
X12561491Y-10156484D01*
X12742444Y-10346960D02*
X12723396Y-10356484D01*
X12723396Y-10356484D02*
X12685301Y-10356484D01*
X12685301Y-10356484D02*
X12666253Y-10346960D01*
X12666253Y-10346960D02*
X12656730Y-10327912D01*
X12656730Y-10327912D02*
X12656730Y-10251722D01*
X12656730Y-10251722D02*
X12666253Y-10232674D01*
X12666253Y-10232674D02*
X12685301Y-10223150D01*
X12685301Y-10223150D02*
X12723396Y-10223150D01*
X12723396Y-10223150D02*
X12742444Y-10232674D01*
X12742444Y-10232674D02*
X12751968Y-10251722D01*
X12751968Y-10251722D02*
X12751968Y-10270770D01*
X12751968Y-10270770D02*
X12656730Y-10289817D01*
X12828158Y-10346960D02*
X12847206Y-10356484D01*
X12847206Y-10356484D02*
X12885301Y-10356484D01*
X12885301Y-10356484D02*
X12904349Y-10346960D01*
X12904349Y-10346960D02*
X12913872Y-10327912D01*
X12913872Y-10327912D02*
X12913872Y-10318389D01*
X12913872Y-10318389D02*
X12904349Y-10299341D01*
X12904349Y-10299341D02*
X12885301Y-10289817D01*
X12885301Y-10289817D02*
X12856730Y-10289817D01*
X12856730Y-10289817D02*
X12837682Y-10280293D01*
X12837682Y-10280293D02*
X12828158Y-10261246D01*
X12828158Y-10261246D02*
X12828158Y-10251722D01*
X12828158Y-10251722D02*
X12837682Y-10232674D01*
X12837682Y-10232674D02*
X12856730Y-10223150D01*
X12856730Y-10223150D02*
X12885301Y-10223150D01*
X12885301Y-10223150D02*
X12904349Y-10232674D01*
X12980539Y-10432674D02*
X12990063Y-10423150D01*
X12990063Y-10423150D02*
X13009111Y-10394579D01*
X13009111Y-10394579D02*
X13018634Y-10375531D01*
X13018634Y-10375531D02*
X13028158Y-10346960D01*
X13028158Y-10346960D02*
X13037682Y-10299341D01*
X13037682Y-10299341D02*
X13037682Y-10261246D01*
X13037682Y-10261246D02*
X13028158Y-10213627D01*
X13028158Y-10213627D02*
X13018634Y-10185055D01*
X13018634Y-10185055D02*
X13009111Y-10166008D01*
X13009111Y-10166008D02*
X12990063Y-10137436D01*
X12990063Y-10137436D02*
X12980539Y-10127912D01*
M02*
