%TF.GenerationSoftware,KiCad,Pcbnew,7.0.10*%
%TF.CreationDate,2024-07-31T11:10:04+01:00*%
%TF.ProjectId,algoritmi_foc,616c676f-7269-4746-9d69-5f666f632e6b,Andr_s Motta*%
%TF.SameCoordinates,Original*%
%TF.FileFunction,Copper,L2,Bot*%
%TF.FilePolarity,Positive*%
%FSLAX46Y46*%
G04 Gerber Fmt 4.6, Leading zero omitted, Abs format (unit mm)*
G04 Created by KiCad (PCBNEW 7.0.10) date 2024-07-31 11:10:04*
%MOMM*%
%LPD*%
G01*
G04 APERTURE LIST*
G04 Aperture macros list*
%AMRoundRect*
0 Rectangle with rounded corners*
0 $1 Rounding radius*
0 $2 $3 $4 $5 $6 $7 $8 $9 X,Y pos of 4 corners*
0 Add a 4 corners polygon primitive as box body*
4,1,4,$2,$3,$4,$5,$6,$7,$8,$9,$2,$3,0*
0 Add four circle primitives for the rounded corners*
1,1,$1+$1,$2,$3*
1,1,$1+$1,$4,$5*
1,1,$1+$1,$6,$7*
1,1,$1+$1,$8,$9*
0 Add four rect primitives between the rounded corners*
20,1,$1+$1,$2,$3,$4,$5,0*
20,1,$1+$1,$4,$5,$6,$7,0*
20,1,$1+$1,$6,$7,$8,$9,0*
20,1,$1+$1,$8,$9,$2,$3,0*%
%AMHorizOval*
0 Thick line with rounded ends*
0 $1 width*
0 $2 $3 position (X,Y) of the first rounded end (center of the circle)*
0 $4 $5 position (X,Y) of the second rounded end (center of the circle)*
0 Add line between two ends*
20,1,$1,$2,$3,$4,$5,0*
0 Add two circle primitives to create the rounded ends*
1,1,$1,$2,$3*
1,1,$1,$4,$5*%
%AMRotRect*
0 Rectangle, with rotation*
0 The origin of the aperture is its center*
0 $1 length*
0 $2 width*
0 $3 Rotation angle, in degrees counterclockwise*
0 Add horizontal line*
21,1,$1,$2,0,0,$3*%
G04 Aperture macros list end*
%TA.AperFunction,ComponentPad*%
%ADD10HorizOval,2.000000X1.414214X-1.414214X-1.414214X1.414214X0*%
%TD*%
%TA.AperFunction,ComponentPad*%
%ADD11HorizOval,2.000000X-1.414214X-1.414214X1.414214X1.414214X0*%
%TD*%
%TA.AperFunction,ComponentPad*%
%ADD12C,3.500000*%
%TD*%
%TA.AperFunction,ComponentPad*%
%ADD13HorizOval,2.000000X1.414214X1.414214X-1.414214X-1.414214X0*%
%TD*%
%TA.AperFunction,ComponentPad*%
%ADD14C,2.400000*%
%TD*%
%TA.AperFunction,SMDPad,CuDef*%
%ADD15RoundRect,0.500000X-0.500000X0.500000X-0.500000X-0.500000X0.500000X-0.500000X0.500000X0.500000X0*%
%TD*%
%TA.AperFunction,SMDPad,CuDef*%
%ADD16RotRect,0.800000X1.600000X45.000000*%
%TD*%
%TA.AperFunction,SMDPad,CuDef*%
%ADD17RotRect,2.100000X3.000000X45.000000*%
%TD*%
%TA.AperFunction,SMDPad,CuDef*%
%ADD18R,1.470000X0.970000*%
%TD*%
%TA.AperFunction,ViaPad*%
%ADD19C,0.800000*%
%TD*%
%TA.AperFunction,ViaPad*%
%ADD20C,2.200000*%
%TD*%
%TA.AperFunction,Conductor*%
%ADD21C,0.400000*%
%TD*%
%TA.AperFunction,Conductor*%
%ADD22C,0.500000*%
%TD*%
%TA.AperFunction,Conductor*%
%ADD23C,0.300000*%
%TD*%
%TA.AperFunction,Conductor*%
%ADD24C,0.250000*%
%TD*%
G04 APERTURE END LIST*
D10*
%TO.P,MSW4,1,COM*%
%TO.N,GND*%
X85049044Y-40360718D03*
%TO.P,MSW4,2,NC*%
%TO.N,unconnected-(MSW4-NC-Pad2)*%
X82538815Y-42870947D03*
%TO.P,MSW4,4,NO*%
%TO.N,SW4_OUT*%
X80205362Y-45204400D03*
%TD*%
D11*
%TO.P,MSW2,1,COM*%
%TO.N,GND*%
X113847203Y-45292559D03*
%TO.P,MSW2,2,NC*%
%TO.N,unconnected-(MSW2-NC-Pad2)*%
X111336974Y-42782330D03*
%TO.P,MSW2,4,NO*%
%TO.N,SW2_OUT*%
X109003521Y-40448877D03*
%TD*%
D12*
%TO.P,H5,1,1*%
%TO.N,N/C*%
X67308776Y-57694133D03*
%TD*%
%TO.P,H7,1,1*%
%TO.N,N/C*%
X126908776Y-57694133D03*
%TD*%
%TO.P,H6,1,1*%
%TO.N,N/C*%
X97108776Y-27894133D03*
%TD*%
D13*
%TO.P,MSW3,1,COM*%
%TO.N,GND*%
X80033521Y-69788877D03*
%TO.P,MSW3,2,NC*%
%TO.N,unconnected-(MSW3-NC-Pad2)*%
X82543750Y-72299106D03*
%TO.P,MSW3,4,NO*%
%TO.N,SW3_OUT*%
X84877203Y-74632559D03*
%TD*%
D14*
%TO.P,H3,1,1*%
%TO.N,N/C*%
X102234203Y-48816633D03*
%TD*%
%TO.P,H1,1,1*%
%TO.N,N/C*%
X102234203Y-66571632D03*
%TD*%
D12*
%TO.P,H4,1,1*%
%TO.N,N/C*%
X97108776Y-87494133D03*
%TD*%
D14*
%TO.P,H2,1,1*%
%TO.N,N/C*%
X86857922Y-57694133D03*
%TD*%
D15*
%TO.P,J1,1*%
%TO.N,+3.3V*%
X66727203Y-73040559D03*
%TO.P,J1,2*%
%TO.N,GND*%
X66727203Y-75834559D03*
%TO.P,J1,3*%
%TO.N,LCD_DATA_IN*%
X66727203Y-78628559D03*
%TO.P,J1,4*%
%TO.N,LCD_CLOCK*%
X66727203Y-81422559D03*
%TO.P,J1,5*%
%TO.N,LCD_CS*%
X66727203Y-84216559D03*
%TO.P,J1,6*%
%TO.N,LCD_DC*%
X66727203Y-87010559D03*
%TO.P,J1,7*%
%TO.N,LCD_RESET*%
X66727203Y-89804559D03*
%TO.P,J1,8*%
%TO.N,LCD_BL*%
X66727203Y-92598559D03*
%TD*%
D16*
%TO.P,J2,1,1*%
%TO.N,U_OUT*%
X113673929Y-74367052D03*
%TO.P,J2,2,2*%
%TO.N,V_OUT*%
X114557813Y-73483169D03*
%TO.P,J2,3,3*%
%TO.N,W_OUT*%
X115441696Y-72599285D03*
D17*
%TO.P,J2,MP1,MP1*%
%TO.N,unconnected-(J2-PadMP1)*%
X109820197Y-74119565D03*
%TO.P,J2,MP2,MP2*%
%TO.N,unconnected-(J2-PadMP2)*%
X115194209Y-68745553D03*
%TD*%
D18*
%TO.P,C9,1*%
%TO.N,GND*%
X70247203Y-75262559D03*
%TO.P,C9,2*%
%TO.N,+3.3V*%
X70247203Y-73602559D03*
%TD*%
D19*
%TO.N,GND*%
X63497203Y-72602559D03*
X133027203Y-80352559D03*
X126187201Y-85833945D03*
X86977203Y-38892559D03*
X119007203Y-94902559D03*
X97107203Y-57652559D03*
X125187205Y-85931129D03*
X117427203Y-82332559D03*
X94127203Y-91932559D03*
X132707203Y-83592559D03*
X126137203Y-84992559D03*
X114377203Y-90512559D03*
X125817203Y-78912559D03*
X66177203Y-28152559D03*
X132317203Y-78072559D03*
X124227203Y-90872559D03*
X77877203Y-68012559D03*
X121027203Y-94682559D03*
X115747203Y-47212559D03*
X115727203Y-89132559D03*
X124537203Y-96352559D03*
X125231509Y-84942561D03*
%TO.N,VS*%
X93997203Y-44552559D03*
X93817203Y-60752559D03*
X88267203Y-33522559D03*
X74467203Y-25162559D03*
%TO.N,+3.3V*%
X72266517Y-74751873D03*
%TO.N,A_OUT*%
X74837203Y-56272559D03*
X88537203Y-55742559D03*
%TO.N,Z_OUT*%
X75617203Y-58442559D03*
X70407203Y-54912559D03*
%TO.N,MOSI_MAG*%
X88627203Y-59382559D03*
X72607203Y-39632559D03*
%TO.N,B_OUT*%
X97997203Y-62012559D03*
X71547203Y-58592559D03*
%TO.N,MISO_MAG*%
X84787203Y-30062559D03*
X98817203Y-60412559D03*
X91327203Y-28072559D03*
X81657203Y-34522559D03*
%TO.N,PWM_OUT*%
X66297203Y-46082559D03*
X90237203Y-26972559D03*
X100647203Y-59832559D03*
X83397203Y-29972559D03*
D20*
%TO.N,MGL_MAG*%
X81107203Y-22662559D03*
D19*
X100627203Y-57392559D03*
D20*
%TO.N,MGH_MAG*%
X77547203Y-22652559D03*
D19*
X95187203Y-54992559D03*
%TO.N,LCD_DATA_IN*%
X61637203Y-41582559D03*
%TO.N,LCD_CLOCK*%
X61537203Y-44789443D03*
%TO.N,LCD_CS*%
X64297203Y-78542559D03*
%TO.N,LCD_DC*%
X61753517Y-74786245D03*
%TO.N,LCD_RESET*%
X72517203Y-77882559D03*
%TO.N,LCD_BL*%
X63987203Y-56982559D03*
%TO.N,UH*%
X59177203Y-19972559D03*
X115237203Y-84802559D03*
%TO.N,VH*%
X59057203Y-21912559D03*
X115107203Y-86672559D03*
%TO.N,WH*%
X58337203Y-20862559D03*
X117467203Y-89702559D03*
%TO.N,UL*%
X117897203Y-95252559D03*
X58467203Y-23902559D03*
%TO.N,WL*%
X58357203Y-25662559D03*
X120117203Y-95242559D03*
%TO.N,VL*%
X58467203Y-30102559D03*
X121727203Y-96182559D03*
%TO.N,W_OUT*%
X123137203Y-83392559D03*
%TO.N,U_OUT*%
X128537203Y-83792559D03*
%TO.N,V_OUT*%
X130917203Y-79712559D03*
%TO.N,SW2_OUT*%
X66177203Y-37132559D03*
X75467203Y-28582559D03*
%TO.N,SW3_OUT*%
X70567203Y-62682559D03*
X73687203Y-62662559D03*
%TO.N,SW4_OUT*%
X73827203Y-45442559D03*
X66217203Y-48222559D03*
%TD*%
D21*
%TO.N,GND*%
X66727203Y-75832559D02*
X63497203Y-72602559D01*
X70247203Y-75262559D02*
X67299203Y-75262559D01*
X67299203Y-75262559D02*
X66727203Y-75834559D01*
X66727203Y-75834559D02*
X66727203Y-75832559D01*
D22*
%TO.N,VS*%
X93817203Y-44732559D02*
X93997203Y-44552559D01*
X83887203Y-25162559D02*
X74467203Y-25162559D01*
X86877203Y-32132559D02*
X86877203Y-28152559D01*
X88267203Y-33522559D02*
X86877203Y-32132559D01*
X93817203Y-60752559D02*
X93817203Y-44732559D01*
X86877203Y-28152559D02*
X83887203Y-25162559D01*
D21*
%TO.N,+3.3V*%
X66727203Y-73040559D02*
X69685203Y-73040559D01*
X71117203Y-73602559D02*
X70247203Y-73602559D01*
X72266517Y-74751873D02*
X71117203Y-73602559D01*
X69685203Y-73040559D02*
X70247203Y-73602559D01*
D23*
%TO.N,A_OUT*%
X75367203Y-55742559D02*
X74837203Y-56272559D01*
X88537203Y-55742559D02*
X75367203Y-55742559D01*
%TO.N,Z_OUT*%
X72887203Y-58442559D02*
X70407203Y-55962559D01*
X75617203Y-58442559D02*
X72887203Y-58442559D01*
X70407203Y-55962559D02*
X70407203Y-54912559D01*
%TO.N,MOSI_MAG*%
X81004309Y-57022559D02*
X74407203Y-57022559D01*
X74807203Y-41832559D02*
X72607203Y-39632559D01*
X88627203Y-59382559D02*
X83364309Y-59382559D01*
X83364309Y-59382559D02*
X81004309Y-57022559D01*
X74407203Y-57022559D02*
X72707203Y-55322559D01*
X72707203Y-55322559D02*
X72707203Y-53082559D01*
X72707203Y-53082559D02*
X74807203Y-50982559D01*
X74807203Y-50982559D02*
X74807203Y-41832559D01*
%TO.N,B_OUT*%
X97997203Y-62012559D02*
X97647203Y-62362559D01*
X97647203Y-62362559D02*
X85637203Y-62362559D01*
X85637203Y-62362559D02*
X82637203Y-59362559D01*
X82637203Y-59362559D02*
X72317203Y-59362559D01*
X72317203Y-59362559D02*
X71547203Y-58592559D01*
%TO.N,MISO_MAG*%
X98817203Y-60412559D02*
X101747203Y-57482559D01*
X84787203Y-30062559D02*
X84787203Y-31392559D01*
X97267203Y-50732559D02*
X97267203Y-34012559D01*
X84787203Y-31392559D02*
X81657203Y-34522559D01*
X101747203Y-55212559D02*
X97267203Y-50732559D01*
X101747203Y-57482559D02*
X101747203Y-55212559D01*
X97267203Y-34012559D02*
X91327203Y-28072559D01*
%TO.N,PWM_OUT*%
X100647203Y-59832559D02*
X102247203Y-58232559D01*
X102247203Y-54912559D02*
X97767203Y-50432559D01*
X102247203Y-58232559D02*
X102247203Y-54912559D01*
X91307203Y-26972559D02*
X90237203Y-26972559D01*
X75007203Y-38362559D02*
X83397203Y-29972559D01*
X97767203Y-33432559D02*
X91307203Y-26972559D01*
X66297203Y-46082559D02*
X66297203Y-44881898D01*
X66297203Y-44881898D02*
X72816542Y-38362559D01*
X72816542Y-38362559D02*
X75007203Y-38362559D01*
X97767203Y-50432559D02*
X97767203Y-33432559D01*
%TO.N,MGL_MAG*%
X96767203Y-50982559D02*
X96767203Y-34845453D01*
X84584309Y-22662559D02*
X81107203Y-22662559D01*
X96767203Y-34845453D02*
X84584309Y-22662559D01*
X100627203Y-57392559D02*
X101247203Y-56772559D01*
X101247203Y-55462559D02*
X96767203Y-50982559D01*
X101247203Y-56772559D02*
X101247203Y-55462559D01*
%TO.N,MGH_MAG*%
X95187203Y-33972559D02*
X85637203Y-24422559D01*
X79317203Y-24422559D02*
X77547203Y-22652559D01*
X85637203Y-24422559D02*
X79317203Y-24422559D01*
X95187203Y-54992559D02*
X95187203Y-33972559D01*
D21*
%TO.N,LCD_DATA_IN*%
X60737203Y-72638559D02*
X66727203Y-78628559D01*
X60737203Y-42482559D02*
X60737203Y-72638559D01*
X61637203Y-41582559D02*
X60737203Y-42482559D01*
%TO.N,LCD_CLOCK*%
X73277203Y-69772559D02*
X73277203Y-74872559D01*
X61537203Y-58032559D02*
X73277203Y-69772559D01*
X61537203Y-44789443D02*
X61537203Y-58032559D01*
X73277203Y-74872559D02*
X66727203Y-81422559D01*
%TO.N,LCD_CS*%
X64297203Y-81786559D02*
X64297203Y-78542559D01*
X66727203Y-84216559D02*
X64297203Y-81786559D01*
%TO.N,LCD_DC*%
X61767203Y-74799931D02*
X61767203Y-82050559D01*
X61767203Y-82050559D02*
X66727203Y-87010559D01*
X61753517Y-74786245D02*
X61767203Y-74799931D01*
%TO.N,LCD_RESET*%
X66727203Y-89804559D02*
X72517203Y-84014559D01*
X72517203Y-84014559D02*
X72517203Y-77882559D01*
%TO.N,LCD_BL*%
X63987203Y-56982559D02*
X63987203Y-59602559D01*
X73877203Y-69492559D02*
X73877203Y-85448559D01*
X73877203Y-85448559D02*
X66727203Y-92598559D01*
X63987203Y-59602559D02*
X73877203Y-69492559D01*
D23*
%TO.N,UH*%
X96525021Y-91362559D02*
X64737203Y-59574741D01*
X64737203Y-25532559D02*
X59177203Y-19972559D01*
X115237203Y-84802559D02*
X108677203Y-91362559D01*
X108677203Y-91362559D02*
X96525021Y-91362559D01*
X64737203Y-59574741D02*
X64737203Y-25532559D01*
%TO.N,VH*%
X61047203Y-41111898D02*
X60187203Y-41971898D01*
X60187203Y-41971898D02*
X60187203Y-93652559D01*
X59057203Y-21912559D02*
X61047203Y-23902559D01*
X61047203Y-23902559D02*
X61047203Y-41111898D01*
X61177203Y-94642559D02*
X107137203Y-94642559D01*
X107137203Y-94642559D02*
X115107203Y-86672559D01*
X60187203Y-93652559D02*
X61177203Y-94642559D01*
%TO.N,WH*%
X58337203Y-20862559D02*
X58307203Y-20892559D01*
X60507203Y-24423220D02*
X60507203Y-40944792D01*
X58307203Y-20892559D02*
X58307203Y-22223220D01*
X58307203Y-22223220D02*
X60507203Y-24423220D01*
X59687203Y-41764792D02*
X59687203Y-93859665D01*
X60507203Y-40944792D02*
X59687203Y-41764792D01*
X60970097Y-95142559D02*
X112027203Y-95142559D01*
X59687203Y-93859665D02*
X60970097Y-95142559D01*
X112027203Y-95142559D02*
X117467203Y-89702559D01*
%TO.N,UL*%
X60762991Y-95642559D02*
X59187203Y-94066771D01*
X117507203Y-95642559D02*
X60762991Y-95642559D01*
X59187203Y-41557686D02*
X60007203Y-40737686D01*
X60007203Y-40737686D02*
X60007203Y-25442559D01*
X59187203Y-94066771D02*
X59187203Y-41557686D01*
X117897203Y-95252559D02*
X117507203Y-95642559D01*
X60007203Y-25442559D02*
X58467203Y-23902559D01*
%TO.N,WL*%
X59507203Y-40530580D02*
X59507203Y-26812559D01*
X60555885Y-96142559D02*
X58687203Y-94273877D01*
X119217203Y-96142559D02*
X60555885Y-96142559D01*
X58687203Y-41350580D02*
X59507203Y-40530580D01*
X59507203Y-26812559D02*
X58357203Y-25662559D01*
X120117203Y-95242559D02*
X119217203Y-96142559D01*
X58687203Y-94273877D02*
X58687203Y-41350580D01*
%TO.N,VL*%
X60348779Y-96642559D02*
X58187203Y-94480983D01*
X121267203Y-96642559D02*
X60348779Y-96642559D01*
X58187203Y-94480983D02*
X58187203Y-41143474D01*
X59007203Y-30642559D02*
X58467203Y-30102559D01*
X59007203Y-40323474D02*
X59007203Y-30642559D01*
X121727203Y-96182559D02*
X121267203Y-96642559D01*
X58187203Y-41143474D02*
X59007203Y-40323474D01*
D21*
%TO.N,W_OUT*%
X115441696Y-72599285D02*
X123137203Y-80294792D01*
X123137203Y-80294792D02*
X123137203Y-83392559D01*
%TO.N,U_OUT*%
X124017245Y-86731129D02*
X126438633Y-86731129D01*
X128537203Y-84632559D02*
X128537203Y-83792559D01*
X113673929Y-76387813D02*
X124017245Y-86731129D01*
X126438633Y-86731129D02*
X128537203Y-84632559D01*
X113673929Y-74367052D02*
X113673929Y-76387813D01*
%TO.N,V_OUT*%
X123147203Y-85012559D02*
X124007203Y-85012559D01*
X115123499Y-74048855D02*
X115123499Y-76988855D01*
X129307203Y-79712559D02*
X130917203Y-79712559D01*
X115123499Y-76988855D02*
X123147203Y-85012559D01*
X124007203Y-85012559D02*
X129307203Y-79712559D01*
X114557813Y-73483169D02*
X115123499Y-74048855D01*
D24*
%TO.N,SW2_OUT*%
X75467203Y-28582559D02*
X66917203Y-37132559D01*
X66917203Y-37132559D02*
X66177203Y-37132559D01*
%TO.N,SW3_OUT*%
X70587203Y-62662559D02*
X70567203Y-62682559D01*
X73687203Y-62662559D02*
X70587203Y-62662559D01*
%TO.N,SW4_OUT*%
X73827203Y-45442559D02*
X71047203Y-48222559D01*
X71047203Y-48222559D02*
X66217203Y-48222559D01*
%TD*%
%TA.AperFunction,Conductor*%
%TO.N,GND*%
G36*
X74532906Y-69937282D02*
G01*
X74539384Y-69943314D01*
X96196971Y-91600901D01*
X96286679Y-91690609D01*
X96306416Y-91700665D01*
X96323002Y-91710828D01*
X96340931Y-91723855D01*
X96340933Y-91723855D01*
X96340934Y-91723856D01*
X96361995Y-91730699D01*
X96379974Y-91738145D01*
X96399717Y-91748205D01*
X96421606Y-91751671D01*
X96440522Y-91756212D01*
X96461588Y-91763058D01*
X96488367Y-91763058D01*
X96488391Y-91763059D01*
X96493502Y-91763059D01*
X108740634Y-91763059D01*
X108740636Y-91763059D01*
X108761704Y-91756213D01*
X108780620Y-91751671D01*
X108802507Y-91748205D01*
X108822247Y-91738145D01*
X108840214Y-91730703D01*
X108861293Y-91723855D01*
X108879229Y-91710822D01*
X108895791Y-91700673D01*
X108915545Y-91690609D01*
X108931037Y-91675116D01*
X108931044Y-91675111D01*
X110254109Y-90352046D01*
X114295007Y-86311146D01*
X114356328Y-86277663D01*
X114426020Y-86282647D01*
X114481953Y-86324519D01*
X114506370Y-86389983D01*
X114498628Y-86442799D01*
X114470966Y-86515737D01*
X114470966Y-86515739D01*
X114451925Y-86672559D01*
X114451925Y-86672562D01*
X114454271Y-86691887D01*
X114442809Y-86760810D01*
X114418856Y-86794512D01*
X107007629Y-94205740D01*
X106946306Y-94239225D01*
X106919948Y-94242059D01*
X61394457Y-94242059D01*
X61327418Y-94222374D01*
X61306776Y-94205740D01*
X60624022Y-93522985D01*
X60590537Y-93461662D01*
X60587703Y-93435304D01*
X60587703Y-73425524D01*
X60607388Y-73358485D01*
X60660192Y-73312730D01*
X60729350Y-73302786D01*
X60792906Y-73331811D01*
X60799381Y-73337840D01*
X61140175Y-73678635D01*
X61476710Y-74015170D01*
X61510195Y-74076493D01*
X61505211Y-74146185D01*
X61463339Y-74202118D01*
X61446656Y-74212647D01*
X61381278Y-74246961D01*
X61263033Y-74351716D01*
X61173298Y-74481720D01*
X61173297Y-74481721D01*
X61117279Y-74629426D01*
X61098239Y-74786244D01*
X61098239Y-74786245D01*
X61117279Y-74943063D01*
X61173297Y-75090768D01*
X61173298Y-75090769D01*
X61263032Y-75220773D01*
X61263033Y-75220774D01*
X61263034Y-75220775D01*
X61274930Y-75231314D01*
X61312056Y-75290501D01*
X61316703Y-75324129D01*
X61316703Y-82018297D01*
X61315923Y-82032182D01*
X61311932Y-82067595D01*
X61322558Y-82123755D01*
X61323335Y-82128324D01*
X61331855Y-82184850D01*
X61334365Y-82192986D01*
X61337179Y-82201029D01*
X61337179Y-82201030D01*
X61337180Y-82201031D01*
X61358777Y-82241895D01*
X61363891Y-82251570D01*
X61365979Y-82255708D01*
X61390777Y-82307200D01*
X61395565Y-82314224D01*
X61400634Y-82321091D01*
X61400637Y-82321097D01*
X61400641Y-82321101D01*
X61441050Y-82361510D01*
X61444267Y-82364849D01*
X61483150Y-82406755D01*
X61490413Y-82412547D01*
X61489892Y-82413200D01*
X61502133Y-82422593D01*
X63474134Y-84394594D01*
X65440912Y-86361371D01*
X65474397Y-86422694D01*
X65476357Y-86457368D01*
X65476864Y-86457394D01*
X65476703Y-86460556D01*
X65476703Y-87560560D01*
X65476704Y-87560578D01*
X65487203Y-87663355D01*
X65487204Y-87663358D01*
X65525712Y-87779566D01*
X65542389Y-87829893D01*
X65634491Y-87979215D01*
X65758547Y-88103271D01*
X65907869Y-88195373D01*
X66074406Y-88250558D01*
X66177194Y-88261059D01*
X67277211Y-88261058D01*
X67327406Y-88255930D01*
X67396097Y-88268699D01*
X67446982Y-88316579D01*
X67463903Y-88384369D01*
X67441488Y-88450546D01*
X67427688Y-88466969D01*
X67376389Y-88518268D01*
X67315066Y-88551753D01*
X67280393Y-88553710D01*
X67280368Y-88554220D01*
X67277218Y-88554059D01*
X67277212Y-88554059D01*
X67277205Y-88554059D01*
X66177201Y-88554059D01*
X66177183Y-88554060D01*
X66074406Y-88564559D01*
X66074403Y-88564560D01*
X65907871Y-88619744D01*
X65907866Y-88619746D01*
X65758545Y-88711848D01*
X65634492Y-88835901D01*
X65542390Y-88985222D01*
X65542389Y-88985225D01*
X65487204Y-89151762D01*
X65487204Y-89151763D01*
X65487203Y-89151763D01*
X65476703Y-89254542D01*
X65476703Y-90354560D01*
X65476704Y-90354578D01*
X65487203Y-90457355D01*
X65487204Y-90457358D01*
X65542388Y-90623890D01*
X65542389Y-90623893D01*
X65634491Y-90773215D01*
X65758547Y-90897271D01*
X65907869Y-90989373D01*
X66074406Y-91044558D01*
X66177194Y-91055059D01*
X67277211Y-91055058D01*
X67327406Y-91049930D01*
X67396097Y-91062699D01*
X67446982Y-91110579D01*
X67463903Y-91178369D01*
X67441488Y-91244546D01*
X67427688Y-91260969D01*
X67376389Y-91312268D01*
X67315066Y-91345753D01*
X67280393Y-91347710D01*
X67280368Y-91348220D01*
X67277218Y-91348059D01*
X67277212Y-91348059D01*
X67277205Y-91348059D01*
X66177201Y-91348059D01*
X66177183Y-91348060D01*
X66074406Y-91358559D01*
X66074403Y-91358560D01*
X65907871Y-91413744D01*
X65907866Y-91413746D01*
X65758545Y-91505848D01*
X65634492Y-91629901D01*
X65542390Y-91779222D01*
X65542389Y-91779225D01*
X65487204Y-91945762D01*
X65487204Y-91945763D01*
X65487203Y-91945763D01*
X65476703Y-92048542D01*
X65476703Y-93148560D01*
X65476704Y-93148578D01*
X65487203Y-93251355D01*
X65487204Y-93251358D01*
X65542388Y-93417890D01*
X65542389Y-93417893D01*
X65634491Y-93567215D01*
X65758547Y-93691271D01*
X65907869Y-93783373D01*
X66074406Y-93838558D01*
X66177194Y-93849059D01*
X67277211Y-93849058D01*
X67277219Y-93849057D01*
X67277222Y-93849057D01*
X67333505Y-93843307D01*
X67380000Y-93838558D01*
X67546537Y-93783373D01*
X67695859Y-93691271D01*
X67819915Y-93567215D01*
X67912017Y-93417893D01*
X67967202Y-93251356D01*
X67977703Y-93148568D01*
X67977702Y-92048551D01*
X67977701Y-92048542D01*
X67977541Y-92045395D01*
X67978615Y-92045340D01*
X67990587Y-91980957D01*
X68013489Y-91949375D01*
X74172947Y-85789916D01*
X74183296Y-85780668D01*
X74211173Y-85758438D01*
X74243401Y-85711166D01*
X74246015Y-85707482D01*
X74279996Y-85661441D01*
X74279996Y-85661438D01*
X74279998Y-85661437D01*
X74283990Y-85653883D01*
X74287674Y-85646234D01*
X74304527Y-85591594D01*
X74305965Y-85587221D01*
X74324849Y-85533258D01*
X74324849Y-85533255D01*
X74326435Y-85524870D01*
X74327703Y-85516463D01*
X74327703Y-85459297D01*
X74327790Y-85454659D01*
X74329927Y-85397551D01*
X74328887Y-85388320D01*
X74329716Y-85388226D01*
X74327703Y-85372925D01*
X74327703Y-70030995D01*
X74347388Y-69963956D01*
X74400192Y-69918201D01*
X74469350Y-69908257D01*
X74532906Y-69937282D01*
G37*
%TD.AperFunction*%
%TA.AperFunction,Conductor*%
G36*
X61392906Y-58525811D02*
G01*
X61399369Y-58531829D01*
X67273192Y-64405651D01*
X72790384Y-69922843D01*
X72823869Y-69984166D01*
X72826703Y-70010524D01*
X72826703Y-74106110D01*
X72807018Y-74173149D01*
X72754214Y-74218904D01*
X72685056Y-74228848D01*
X72645077Y-74215906D01*
X72498882Y-74139176D01*
X72345503Y-74101373D01*
X72345502Y-74101373D01*
X72304482Y-74101373D01*
X72237443Y-74081688D01*
X72216801Y-74065054D01*
X71458571Y-73306824D01*
X71449305Y-73296456D01*
X71444017Y-73289825D01*
X71427082Y-73268589D01*
X71427081Y-73268588D01*
X71427080Y-73268587D01*
X71401553Y-73251183D01*
X71379836Y-73236377D01*
X71376072Y-73233706D01*
X71330089Y-73199768D01*
X71322500Y-73195757D01*
X71306506Y-73188056D01*
X71307586Y-73185812D01*
X71260712Y-73154773D01*
X71235918Y-73098455D01*
X71233892Y-73098859D01*
X71218170Y-73019823D01*
X71218169Y-73019819D01*
X71213318Y-73012559D01*
X71162804Y-72936958D01*
X71080744Y-72882128D01*
X71079942Y-72881592D01*
X71079938Y-72881591D01*
X71006880Y-72867059D01*
X71006877Y-72867059D01*
X70200168Y-72867059D01*
X70133129Y-72847374D01*
X70112487Y-72830740D01*
X70026571Y-72744824D01*
X70017305Y-72734456D01*
X70009532Y-72724709D01*
X69995082Y-72706589D01*
X69995081Y-72706588D01*
X69995080Y-72706587D01*
X69969553Y-72689183D01*
X69947836Y-72674377D01*
X69944072Y-72671706D01*
X69898089Y-72637768D01*
X69890500Y-72633757D01*
X69882878Y-72630087D01*
X69828252Y-72613238D01*
X69823847Y-72611789D01*
X69769898Y-72592911D01*
X69761529Y-72591327D01*
X69753107Y-72590059D01*
X69753105Y-72590059D01*
X69695941Y-72590059D01*
X69691304Y-72589972D01*
X69689288Y-72589896D01*
X69634192Y-72587834D01*
X69624959Y-72588875D01*
X69624865Y-72588045D01*
X69609567Y-72590059D01*
X68099846Y-72590059D01*
X68032807Y-72570374D01*
X67987052Y-72517570D01*
X67976488Y-72478661D01*
X67971205Y-72426952D01*
X67967202Y-72387762D01*
X67912017Y-72221225D01*
X67819915Y-72071903D01*
X67695859Y-71947847D01*
X67546537Y-71855745D01*
X67380000Y-71800560D01*
X67379998Y-71800559D01*
X67277213Y-71790059D01*
X66177201Y-71790059D01*
X66177183Y-71790060D01*
X66074406Y-71800559D01*
X66074403Y-71800560D01*
X65907871Y-71855744D01*
X65907866Y-71855746D01*
X65758545Y-71947848D01*
X65634492Y-72071901D01*
X65542390Y-72221222D01*
X65542389Y-72221225D01*
X65487204Y-72387762D01*
X65487204Y-72387763D01*
X65487203Y-72387763D01*
X65476703Y-72490542D01*
X65476703Y-73590560D01*
X65476704Y-73590578D01*
X65487203Y-73693355D01*
X65487204Y-73693358D01*
X65520852Y-73794899D01*
X65542389Y-73859893D01*
X65634491Y-74009215D01*
X65758547Y-74133271D01*
X65851994Y-74190909D01*
X65898718Y-74242857D01*
X65909941Y-74311820D01*
X65882097Y-74375902D01*
X65844308Y-74406357D01*
X65718349Y-74472152D01*
X66727203Y-75481006D01*
X66727204Y-75481006D01*
X67736056Y-74472153D01*
X67736055Y-74472152D01*
X67610097Y-74406357D01*
X67559789Y-74357870D01*
X67543682Y-74289882D01*
X67566888Y-74223979D01*
X67602412Y-74190909D01*
X67695859Y-74133271D01*
X67819915Y-74009215D01*
X67912017Y-73859893D01*
X67967202Y-73693356D01*
X67973791Y-73628860D01*
X67976489Y-73602456D01*
X68002886Y-73537764D01*
X68060067Y-73497613D01*
X68099847Y-73491059D01*
X69137703Y-73491059D01*
X69204742Y-73510744D01*
X69250497Y-73563548D01*
X69261703Y-73615059D01*
X69261703Y-74112237D01*
X69276235Y-74185294D01*
X69280910Y-74196580D01*
X69279422Y-74197196D01*
X69296099Y-74250453D01*
X69277616Y-74317834D01*
X69246430Y-74351935D01*
X69155015Y-74420368D01*
X69155012Y-74420371D01*
X69068852Y-74535465D01*
X69068848Y-74535472D01*
X69018606Y-74670179D01*
X69018604Y-74670186D01*
X69012203Y-74729714D01*
X69012203Y-75012559D01*
X71482202Y-75012559D01*
X71482508Y-75012253D01*
X71543830Y-74978767D01*
X71613522Y-74983751D01*
X71669456Y-75025621D01*
X71682742Y-75049793D01*
X71682813Y-75049757D01*
X71684716Y-75053384D01*
X71686128Y-75055952D01*
X71686294Y-75056390D01*
X71686296Y-75056393D01*
X71686297Y-75056396D01*
X71776034Y-75186403D01*
X71894277Y-75291156D01*
X71959656Y-75325470D01*
X72009867Y-75374052D01*
X72025842Y-75442071D01*
X72002507Y-75507929D01*
X71989710Y-75522946D01*
X71693884Y-75818773D01*
X71632561Y-75852258D01*
X71562870Y-75847274D01*
X71506936Y-75805403D01*
X71482519Y-75739938D01*
X71482203Y-75731092D01*
X71482203Y-75512559D01*
X70497203Y-75512559D01*
X70497203Y-76247559D01*
X70965736Y-76247559D01*
X71032775Y-76267244D01*
X71078530Y-76320048D01*
X71088474Y-76389206D01*
X71059449Y-76452762D01*
X71053417Y-76459240D01*
X68183614Y-79329043D01*
X68122291Y-79362528D01*
X68052599Y-79357544D01*
X67996666Y-79315672D01*
X67972249Y-79250208D01*
X67972574Y-79228763D01*
X67977703Y-79178568D01*
X67977702Y-78078551D01*
X67967202Y-77975762D01*
X67912017Y-77809225D01*
X67819915Y-77659903D01*
X67695859Y-77535847D01*
X67602411Y-77478208D01*
X67555686Y-77426260D01*
X67544465Y-77357297D01*
X67572308Y-77293215D01*
X67610097Y-77262760D01*
X67736056Y-77196964D01*
X66727203Y-76188112D01*
X66373650Y-75834559D01*
X67080756Y-75834559D01*
X68089608Y-76843412D01*
X68160646Y-76707418D01*
X68216593Y-76511887D01*
X68216594Y-76511884D01*
X68227202Y-76392559D01*
X68227203Y-76392557D01*
X68227203Y-75512559D01*
X69012203Y-75512559D01*
X69012203Y-75795403D01*
X69018604Y-75854931D01*
X69018606Y-75854938D01*
X69068848Y-75989645D01*
X69068852Y-75989652D01*
X69155012Y-76104746D01*
X69155015Y-76104749D01*
X69270109Y-76190909D01*
X69270116Y-76190913D01*
X69404823Y-76241155D01*
X69404830Y-76241157D01*
X69464358Y-76247558D01*
X69464375Y-76247559D01*
X69997203Y-76247559D01*
X69997203Y-75512559D01*
X69012203Y-75512559D01*
X68227203Y-75512559D01*
X68227203Y-75276561D01*
X68227202Y-75276558D01*
X68216594Y-75157233D01*
X68216593Y-75157230D01*
X68160645Y-74961697D01*
X68089608Y-74825704D01*
X67080756Y-75834558D01*
X67080756Y-75834559D01*
X66373650Y-75834559D01*
X65364796Y-74825705D01*
X65293759Y-74961699D01*
X65237812Y-75157230D01*
X65237811Y-75157233D01*
X65227203Y-75276558D01*
X65227203Y-76192094D01*
X65207518Y-76259133D01*
X65154714Y-76304888D01*
X65085556Y-76314832D01*
X65022000Y-76285807D01*
X65015522Y-76279775D01*
X61224022Y-72488275D01*
X61190537Y-72426952D01*
X61187703Y-72400594D01*
X61187703Y-58619524D01*
X61207388Y-58552485D01*
X61260192Y-58506730D01*
X61329350Y-58496786D01*
X61392906Y-58525811D01*
G37*
%TD.AperFunction*%
%TA.AperFunction,Conductor*%
G36*
X78393502Y-71132132D02*
G01*
X78462408Y-71258323D01*
X78564075Y-71359990D01*
X78690266Y-71428896D01*
X78736908Y-71439042D01*
X78040083Y-72135867D01*
X77978760Y-72169352D01*
X77909068Y-72164368D01*
X77864721Y-72135867D01*
X77686530Y-71957676D01*
X77653045Y-71896353D01*
X77658029Y-71826661D01*
X77686530Y-71782314D01*
X78383355Y-71085488D01*
X78393502Y-71132132D01*
G37*
%TD.AperFunction*%
%TA.AperFunction,Conductor*%
G36*
X133711630Y-17094764D02*
G01*
X133882992Y-17102686D01*
X134078474Y-17112284D01*
X134089471Y-17113319D01*
X134272742Y-17138883D01*
X134273484Y-17138990D01*
X134455926Y-17166052D01*
X134466094Y-17167998D01*
X134647876Y-17210753D01*
X134649565Y-17211163D01*
X134826537Y-17255491D01*
X134835745Y-17258182D01*
X135013585Y-17317788D01*
X135015913Y-17318595D01*
X135107624Y-17351409D01*
X135186875Y-17379765D01*
X135195170Y-17383074D01*
X135367182Y-17459025D01*
X135369970Y-17460300D01*
X135533763Y-17537768D01*
X135541074Y-17541528D01*
X135705484Y-17633104D01*
X135708837Y-17635042D01*
X135864029Y-17728060D01*
X135870304Y-17732084D01*
X136025723Y-17838548D01*
X136029395Y-17841166D01*
X136174661Y-17948902D01*
X136179980Y-17953079D01*
X136252292Y-18013126D01*
X136324875Y-18073398D01*
X136328931Y-18076917D01*
X136462845Y-18198290D01*
X136467247Y-18202482D01*
X136600440Y-18335675D01*
X136604610Y-18340055D01*
X136684465Y-18428161D01*
X136725979Y-18473965D01*
X136729484Y-18478004D01*
X136849833Y-18622936D01*
X136854008Y-18628253D01*
X136961696Y-18773455D01*
X136964385Y-18777226D01*
X137070763Y-18932520D01*
X137070800Y-18932573D01*
X137074859Y-18938902D01*
X137167860Y-19094067D01*
X137169830Y-19097477D01*
X137261369Y-19261823D01*
X137265135Y-19269145D01*
X137342585Y-19432901D01*
X137343924Y-19435831D01*
X137419816Y-19607710D01*
X137423134Y-19616023D01*
X137484298Y-19786970D01*
X137485118Y-19789337D01*
X137544708Y-19967131D01*
X137547420Y-19976408D01*
X137591708Y-20153220D01*
X137592131Y-20154960D01*
X137634902Y-20336819D01*
X137636853Y-20347014D01*
X137663883Y-20529239D01*
X137664036Y-20530303D01*
X137689577Y-20713412D01*
X137690617Y-20724458D01*
X137700138Y-20918290D01*
X137700155Y-20918648D01*
X137708144Y-21091469D01*
X137708276Y-21097195D01*
X137708276Y-94291262D01*
X137708144Y-94296987D01*
X137700597Y-94460269D01*
X137700579Y-94460640D01*
X137690550Y-94664382D01*
X137689511Y-94675416D01*
X137664907Y-94851815D01*
X137664754Y-94852877D01*
X137636721Y-95041884D01*
X137634770Y-95052081D01*
X137592998Y-95229692D01*
X137592575Y-95231431D01*
X137547217Y-95412519D01*
X137544506Y-95421795D01*
X137485974Y-95596440D01*
X137485153Y-95598809D01*
X137422861Y-95772911D01*
X137419544Y-95781223D01*
X137344749Y-95950622D01*
X137343409Y-95953553D01*
X137264770Y-96119824D01*
X137261005Y-96127145D01*
X137170657Y-96289356D01*
X137168686Y-96292767D01*
X137074377Y-96450116D01*
X137070318Y-96456444D01*
X136965226Y-96609862D01*
X136962524Y-96613652D01*
X136853423Y-96760760D01*
X136849223Y-96766111D01*
X136730279Y-96909351D01*
X136726759Y-96913407D01*
X136603898Y-97048965D01*
X136599702Y-97053373D01*
X136468005Y-97185071D01*
X136463597Y-97189267D01*
X136328028Y-97312141D01*
X136323972Y-97315661D01*
X136180751Y-97434592D01*
X136175400Y-97438793D01*
X136028303Y-97547888D01*
X136024513Y-97550589D01*
X135871073Y-97655699D01*
X135864745Y-97659758D01*
X135707406Y-97754063D01*
X135703996Y-97756034D01*
X135541801Y-97846377D01*
X135534479Y-97850143D01*
X135368141Y-97928815D01*
X135365210Y-97930154D01*
X135195871Y-98004925D01*
X135187558Y-98008243D01*
X135013470Y-98070531D01*
X135011103Y-98071351D01*
X134836438Y-98129893D01*
X134827161Y-98132605D01*
X134646012Y-98177980D01*
X134644273Y-98178402D01*
X134466728Y-98220160D01*
X134456532Y-98222112D01*
X134267578Y-98250140D01*
X134266515Y-98250293D01*
X134090086Y-98274903D01*
X134079039Y-98275943D01*
X133866526Y-98286382D01*
X133866169Y-98286399D01*
X133712574Y-98293500D01*
X133706847Y-98293632D01*
X60511650Y-98293632D01*
X60505922Y-98293500D01*
X60337371Y-98285706D01*
X60337371Y-98285696D01*
X60337010Y-98285688D01*
X60138921Y-98275950D01*
X60127877Y-98274911D01*
X59946968Y-98249675D01*
X59945905Y-98249522D01*
X59761443Y-98222159D01*
X59751248Y-98220207D01*
X59570881Y-98177785D01*
X59569141Y-98177363D01*
X59390836Y-98132699D01*
X59381559Y-98129987D01*
X59204792Y-98070740D01*
X59202424Y-98069919D01*
X59030450Y-98008385D01*
X59022139Y-98005068D01*
X58851121Y-97929556D01*
X58848190Y-97928216D01*
X58683562Y-97850352D01*
X58676240Y-97846587D01*
X58512598Y-97755439D01*
X58509188Y-97753468D01*
X58353312Y-97660039D01*
X58346984Y-97655981D01*
X58192277Y-97550004D01*
X58188488Y-97547302D01*
X58155928Y-97523154D01*
X58042642Y-97439136D01*
X58037359Y-97434988D01*
X57892988Y-97315104D01*
X57888937Y-97311589D01*
X57754468Y-97189714D01*
X57750060Y-97185517D01*
X57617386Y-97052843D01*
X57613190Y-97048436D01*
X57572782Y-97003854D01*
X57491296Y-96913948D01*
X57487823Y-96909945D01*
X57426331Y-96835893D01*
X57367946Y-96765582D01*
X57363746Y-96760233D01*
X57255589Y-96614400D01*
X57252888Y-96610610D01*
X57146926Y-96455926D01*
X57142867Y-96449598D01*
X57049402Y-96293662D01*
X57047482Y-96290340D01*
X56956307Y-96126651D01*
X56952566Y-96119377D01*
X56874679Y-95954701D01*
X56873343Y-95951777D01*
X56863453Y-95929378D01*
X56797826Y-95780749D01*
X56794527Y-95772483D01*
X56732958Y-95600412D01*
X56732150Y-95598080D01*
X56731600Y-95596440D01*
X56672915Y-95421349D01*
X56670204Y-95412076D01*
X56667023Y-95399377D01*
X56625497Y-95233601D01*
X56625140Y-95232128D01*
X56582694Y-95051664D01*
X56580743Y-95041475D01*
X56579097Y-95030378D01*
X56553323Y-94856632D01*
X56553265Y-94856228D01*
X56527986Y-94675020D01*
X56526951Y-94664023D01*
X56517111Y-94463748D01*
X56509409Y-94297181D01*
X56509277Y-94291454D01*
X56509277Y-21097003D01*
X56509409Y-21091277D01*
X56512733Y-21019377D01*
X56517298Y-20920626D01*
X56517396Y-20918648D01*
X56520151Y-20862559D01*
X57681925Y-20862559D01*
X57700965Y-21019377D01*
X57730478Y-21097195D01*
X57756983Y-21167082D01*
X57846720Y-21297089D01*
X57864930Y-21313221D01*
X57902056Y-21372407D01*
X57906703Y-21406036D01*
X57906703Y-22286649D01*
X57906704Y-22286659D01*
X57913549Y-22307727D01*
X57918090Y-22326638D01*
X57921557Y-22348524D01*
X57921558Y-22348527D01*
X57931615Y-22368265D01*
X57939060Y-22386238D01*
X57945907Y-22407310D01*
X57958929Y-22425234D01*
X57969093Y-22441820D01*
X57979152Y-22461560D01*
X57979153Y-22461562D01*
X57998593Y-22481002D01*
X57998622Y-22481033D01*
X58557967Y-23040378D01*
X58591452Y-23101701D01*
X58586468Y-23171393D01*
X58544596Y-23227326D01*
X58479132Y-23251743D01*
X58470286Y-23252059D01*
X58388217Y-23252059D01*
X58234837Y-23289862D01*
X58094965Y-23363274D01*
X57976719Y-23468030D01*
X57886984Y-23598034D01*
X57886983Y-23598035D01*
X57830965Y-23745740D01*
X57811925Y-23902558D01*
X57811925Y-23902559D01*
X57830965Y-24059377D01*
X57868596Y-24158599D01*
X57886983Y-24207082D01*
X57976720Y-24337089D01*
X58094963Y-24441842D01*
X58094965Y-24441843D01*
X58234837Y-24515255D01*
X58388217Y-24553059D01*
X58499948Y-24553059D01*
X58566987Y-24572744D01*
X58587629Y-24589378D01*
X59570384Y-25572133D01*
X59603869Y-25633456D01*
X59606703Y-25659814D01*
X59606703Y-26046304D01*
X59587018Y-26113343D01*
X59534214Y-26159098D01*
X59465056Y-26169042D01*
X59401500Y-26140017D01*
X59395022Y-26133985D01*
X59045549Y-25784512D01*
X59012064Y-25723189D01*
X59010134Y-25681886D01*
X59012481Y-25662559D01*
X58993440Y-25505741D01*
X58991654Y-25501033D01*
X58956089Y-25407255D01*
X58937423Y-25358036D01*
X58847686Y-25228029D01*
X58729443Y-25123276D01*
X58729441Y-25123275D01*
X58729440Y-25123274D01*
X58589568Y-25049862D01*
X58436189Y-25012059D01*
X58436188Y-25012059D01*
X58278218Y-25012059D01*
X58278217Y-25012059D01*
X58124837Y-25049862D01*
X57984965Y-25123274D01*
X57866719Y-25228030D01*
X57776984Y-25358034D01*
X57776983Y-25358035D01*
X57720965Y-25505740D01*
X57701925Y-25662558D01*
X57701925Y-25662559D01*
X57720965Y-25819377D01*
X57776983Y-25967082D01*
X57866720Y-26097089D01*
X57984963Y-26201842D01*
X57984965Y-26201843D01*
X58124837Y-26275255D01*
X58278217Y-26313059D01*
X58389948Y-26313059D01*
X58456987Y-26332744D01*
X58477629Y-26349378D01*
X59070384Y-26942133D01*
X59103869Y-27003456D01*
X59106703Y-27029814D01*
X59106703Y-29524530D01*
X59087018Y-29591569D01*
X59034214Y-29637324D01*
X58965056Y-29647268D01*
X58901500Y-29618243D01*
X58900477Y-29617346D01*
X58839443Y-29563276D01*
X58839441Y-29563274D01*
X58699568Y-29489862D01*
X58546189Y-29452059D01*
X58546188Y-29452059D01*
X58388218Y-29452059D01*
X58388217Y-29452059D01*
X58234837Y-29489862D01*
X58094965Y-29563274D01*
X57976719Y-29668030D01*
X57886984Y-29798034D01*
X57886983Y-29798035D01*
X57830965Y-29945740D01*
X57811925Y-30102558D01*
X57811925Y-30102559D01*
X57830965Y-30259377D01*
X57871812Y-30367080D01*
X57886983Y-30407082D01*
X57976720Y-30537089D01*
X58094963Y-30641842D01*
X58094965Y-30641843D01*
X58234837Y-30715255D01*
X58388217Y-30753059D01*
X58482703Y-30753059D01*
X58549742Y-30772744D01*
X58595497Y-30825548D01*
X58606703Y-30877059D01*
X58606703Y-40106219D01*
X58587018Y-40173258D01*
X58570384Y-40193900D01*
X57881716Y-40882567D01*
X57881716Y-40882568D01*
X57870434Y-40893850D01*
X57859151Y-40905133D01*
X57859151Y-40905134D01*
X57849094Y-40924871D01*
X57838934Y-40941451D01*
X57825909Y-40959379D01*
X57825906Y-40959384D01*
X57819057Y-40980462D01*
X57811616Y-40998426D01*
X57801557Y-41018169D01*
X57798090Y-41040056D01*
X57793550Y-41058965D01*
X57786703Y-41080041D01*
X57786703Y-94544412D01*
X57786704Y-94544422D01*
X57793549Y-94565490D01*
X57798090Y-94584401D01*
X57801557Y-94606287D01*
X57801558Y-94606290D01*
X57811615Y-94626028D01*
X57819060Y-94644001D01*
X57825907Y-94665073D01*
X57838929Y-94682997D01*
X57849093Y-94699583D01*
X57859152Y-94719323D01*
X57859153Y-94719325D01*
X57878593Y-94738765D01*
X57878622Y-94738796D01*
X59539421Y-96399593D01*
X60020729Y-96880901D01*
X60110437Y-96970609D01*
X60130174Y-96980665D01*
X60146760Y-96990828D01*
X60164689Y-97003855D01*
X60185760Y-97010701D01*
X60203737Y-97018147D01*
X60223475Y-97028205D01*
X60245357Y-97031670D01*
X60264270Y-97036211D01*
X60285346Y-97043059D01*
X60285347Y-97043059D01*
X121330634Y-97043059D01*
X121330636Y-97043059D01*
X121351704Y-97036213D01*
X121370620Y-97031671D01*
X121392507Y-97028205D01*
X121412247Y-97018145D01*
X121430214Y-97010703D01*
X121451293Y-97003855D01*
X121469229Y-96990822D01*
X121485791Y-96980673D01*
X121505545Y-96970609D01*
X121521037Y-96955116D01*
X121521044Y-96955111D01*
X121606777Y-96869378D01*
X121668100Y-96835893D01*
X121694458Y-96833059D01*
X121806188Y-96833059D01*
X121959568Y-96795255D01*
X122099443Y-96721842D01*
X122217686Y-96617089D01*
X122307423Y-96487082D01*
X122363440Y-96339377D01*
X122382481Y-96182559D01*
X122375696Y-96126674D01*
X122363440Y-96025740D01*
X122326894Y-95929378D01*
X122307423Y-95878036D01*
X122217686Y-95748029D01*
X122099443Y-95643276D01*
X122099441Y-95643275D01*
X122099440Y-95643274D01*
X121959568Y-95569862D01*
X121806189Y-95532059D01*
X121806188Y-95532059D01*
X121648218Y-95532059D01*
X121648217Y-95532059D01*
X121494837Y-95569862D01*
X121354965Y-95643274D01*
X121236719Y-95748030D01*
X121146984Y-95878034D01*
X121146983Y-95878035D01*
X121117908Y-95954701D01*
X121090966Y-96025741D01*
X121078654Y-96127145D01*
X121077942Y-96133005D01*
X121050320Y-96197183D01*
X120992386Y-96236240D01*
X120954846Y-96242059D01*
X119983457Y-96242059D01*
X119916418Y-96222374D01*
X119870663Y-96169570D01*
X119860719Y-96100412D01*
X119889744Y-96036856D01*
X119895776Y-96030378D01*
X119996776Y-95929378D01*
X120058099Y-95895893D01*
X120084457Y-95893059D01*
X120196188Y-95893059D01*
X120349568Y-95855255D01*
X120489443Y-95781842D01*
X120607686Y-95677089D01*
X120697423Y-95547082D01*
X120753440Y-95399377D01*
X120772481Y-95242559D01*
X120768654Y-95211036D01*
X120753440Y-95085740D01*
X120701215Y-94948035D01*
X120697423Y-94938036D01*
X120607686Y-94808029D01*
X120489443Y-94703276D01*
X120489441Y-94703275D01*
X120489440Y-94703274D01*
X120349568Y-94629862D01*
X120196189Y-94592059D01*
X120196188Y-94592059D01*
X120038218Y-94592059D01*
X120038217Y-94592059D01*
X119884837Y-94629862D01*
X119744965Y-94703274D01*
X119626719Y-94808030D01*
X119536984Y-94938034D01*
X119536983Y-94938035D01*
X119480965Y-95085740D01*
X119461925Y-95242558D01*
X119461925Y-95242562D01*
X119464271Y-95261887D01*
X119452809Y-95330810D01*
X119428856Y-95364512D01*
X119087629Y-95705740D01*
X119026306Y-95739225D01*
X118999948Y-95742059D01*
X118585461Y-95742059D01*
X118518422Y-95722374D01*
X118472667Y-95669570D01*
X118462723Y-95600412D01*
X118475661Y-95560440D01*
X118477421Y-95557085D01*
X118477421Y-95557084D01*
X118477423Y-95557082D01*
X118533440Y-95409377D01*
X118552481Y-95252559D01*
X118549705Y-95229692D01*
X118533440Y-95095740D01*
X118508146Y-95029046D01*
X118477423Y-94948036D01*
X118387686Y-94818029D01*
X118269443Y-94713276D01*
X118269441Y-94713275D01*
X118269440Y-94713274D01*
X118129568Y-94639862D01*
X117976189Y-94602059D01*
X117976188Y-94602059D01*
X117818218Y-94602059D01*
X117818217Y-94602059D01*
X117664837Y-94639862D01*
X117524965Y-94713274D01*
X117406719Y-94818030D01*
X117316984Y-94948034D01*
X117316983Y-94948035D01*
X117260966Y-95095739D01*
X117256441Y-95133006D01*
X117228819Y-95197184D01*
X117170884Y-95236240D01*
X117133345Y-95242059D01*
X112793458Y-95242059D01*
X112726419Y-95222374D01*
X112680664Y-95169570D01*
X112670720Y-95100412D01*
X112699745Y-95036856D01*
X112705777Y-95030378D01*
X117346776Y-90389378D01*
X117408099Y-90355893D01*
X117434457Y-90353059D01*
X117546188Y-90353059D01*
X117699568Y-90315255D01*
X117839443Y-90241842D01*
X117957686Y-90137089D01*
X118047423Y-90007082D01*
X118103440Y-89859377D01*
X118122481Y-89702559D01*
X118103440Y-89545741D01*
X118047423Y-89398036D01*
X117957686Y-89268029D01*
X117839443Y-89163276D01*
X117839441Y-89163275D01*
X117839440Y-89163274D01*
X117699568Y-89089862D01*
X117546189Y-89052059D01*
X117546188Y-89052059D01*
X117388218Y-89052059D01*
X117388217Y-89052059D01*
X117234837Y-89089862D01*
X117094965Y-89163274D01*
X116976719Y-89268030D01*
X116886984Y-89398034D01*
X116886983Y-89398035D01*
X116830965Y-89545740D01*
X116811925Y-89702558D01*
X116811925Y-89702561D01*
X116814271Y-89721887D01*
X116802809Y-89790810D01*
X116778856Y-89824511D01*
X111897629Y-94705740D01*
X111836306Y-94739225D01*
X111809948Y-94742059D01*
X107903458Y-94742059D01*
X107836419Y-94722374D01*
X107790664Y-94669570D01*
X107780720Y-94600412D01*
X107809745Y-94536856D01*
X107815777Y-94530378D01*
X114986776Y-87359378D01*
X115048099Y-87325893D01*
X115074457Y-87323059D01*
X115186188Y-87323059D01*
X115339568Y-87285255D01*
X115479443Y-87211842D01*
X115597686Y-87107089D01*
X115687423Y-86977082D01*
X115743440Y-86829377D01*
X115762481Y-86672559D01*
X115743440Y-86515741D01*
X115743439Y-86515739D01*
X115708152Y-86422694D01*
X115687423Y-86368036D01*
X115597686Y-86238029D01*
X115479443Y-86133276D01*
X115479441Y-86133275D01*
X115479440Y-86133274D01*
X115339568Y-86059862D01*
X115186189Y-86022059D01*
X115186188Y-86022059D01*
X115028218Y-86022059D01*
X115028217Y-86022059D01*
X114870705Y-86060881D01*
X114800903Y-86057812D01*
X114743841Y-86017491D01*
X114717636Y-85952722D01*
X114730609Y-85884067D01*
X114753347Y-85852806D01*
X115116776Y-85489377D01*
X115178099Y-85455893D01*
X115204457Y-85453059D01*
X115316188Y-85453059D01*
X115469568Y-85415255D01*
X115472384Y-85413777D01*
X115609443Y-85341842D01*
X115727686Y-85237089D01*
X115817423Y-85107082D01*
X115873440Y-84959377D01*
X115892481Y-84802559D01*
X115888672Y-84771184D01*
X115873440Y-84645740D01*
X115845559Y-84572226D01*
X115817423Y-84498036D01*
X115727686Y-84368029D01*
X115609443Y-84263276D01*
X115609441Y-84263275D01*
X115609440Y-84263274D01*
X115469568Y-84189862D01*
X115316189Y-84152059D01*
X115316188Y-84152059D01*
X115158218Y-84152059D01*
X115158217Y-84152059D01*
X115004837Y-84189862D01*
X114864965Y-84263274D01*
X114746719Y-84368030D01*
X114656984Y-84498034D01*
X114656983Y-84498035D01*
X114600965Y-84645740D01*
X114581925Y-84802558D01*
X114581925Y-84802561D01*
X114584271Y-84821887D01*
X114572809Y-84890810D01*
X114548856Y-84924511D01*
X108547629Y-90925740D01*
X108486306Y-90959225D01*
X108459948Y-90962059D01*
X96742275Y-90962059D01*
X96675236Y-90942374D01*
X96654594Y-90925740D01*
X93222988Y-87494134D01*
X95103166Y-87494134D01*
X95123580Y-87779566D01*
X95184404Y-88059170D01*
X95184406Y-88059176D01*
X95184407Y-88059179D01*
X95255788Y-88250558D01*
X95284411Y-88327299D01*
X95421546Y-88578442D01*
X95421551Y-88578450D01*
X95593030Y-88807520D01*
X95593046Y-88807538D01*
X95795370Y-89009862D01*
X95795388Y-89009878D01*
X96024458Y-89181357D01*
X96024466Y-89181362D01*
X96275609Y-89318497D01*
X96275608Y-89318497D01*
X96275612Y-89318498D01*
X96275615Y-89318500D01*
X96543730Y-89418502D01*
X96543736Y-89418503D01*
X96543738Y-89418504D01*
X96823342Y-89479328D01*
X96823344Y-89479328D01*
X96823348Y-89479329D01*
X97076996Y-89497470D01*
X97108775Y-89499743D01*
X97108776Y-89499743D01*
X97108777Y-89499743D01*
X97137371Y-89497697D01*
X97394204Y-89479329D01*
X97673822Y-89418502D01*
X97941937Y-89318500D01*
X98193091Y-89181359D01*
X98422171Y-89009872D01*
X98624515Y-88807528D01*
X98796002Y-88578448D01*
X98933143Y-88327294D01*
X99033145Y-88059179D01*
X99093972Y-87779561D01*
X99114386Y-87494133D01*
X99093972Y-87208705D01*
X99086807Y-87175769D01*
X99033147Y-86929095D01*
X99033146Y-86929093D01*
X99033145Y-86929087D01*
X98933143Y-86660972D01*
X98853839Y-86515739D01*
X98796005Y-86409823D01*
X98796000Y-86409815D01*
X98624521Y-86180745D01*
X98624505Y-86180727D01*
X98422181Y-85978403D01*
X98422163Y-85978387D01*
X98193093Y-85806908D01*
X98193085Y-85806903D01*
X97941942Y-85669768D01*
X97941943Y-85669768D01*
X97732350Y-85591594D01*
X97673822Y-85569764D01*
X97673819Y-85569763D01*
X97673813Y-85569761D01*
X97394209Y-85508937D01*
X97108777Y-85488523D01*
X97108775Y-85488523D01*
X96823342Y-85508937D01*
X96543738Y-85569761D01*
X96275609Y-85669768D01*
X96024466Y-85806903D01*
X96024458Y-85806908D01*
X95795388Y-85978387D01*
X95795370Y-85978403D01*
X95593046Y-86180727D01*
X95593030Y-86180745D01*
X95421551Y-86409815D01*
X95421546Y-86409823D01*
X95284411Y-86660966D01*
X95184404Y-86929095D01*
X95123580Y-87208699D01*
X95103166Y-87494131D01*
X95103166Y-87494134D01*
X93222988Y-87494134D01*
X83230151Y-77501296D01*
X83196666Y-77439973D01*
X83201650Y-77370281D01*
X83243522Y-77314348D01*
X83308986Y-77289931D01*
X83331715Y-77290395D01*
X83403376Y-77298468D01*
X83434816Y-77302011D01*
X83434818Y-77302010D01*
X83434820Y-77302011D01*
X83534631Y-77295281D01*
X83659401Y-77286869D01*
X83877672Y-77231869D01*
X84082615Y-77138780D01*
X84267643Y-77010593D01*
X87215361Y-74062875D01*
X87323485Y-73933364D01*
X87434570Y-73737590D01*
X87508915Y-73525128D01*
X87523925Y-73430358D01*
X87544127Y-73302808D01*
X87543738Y-73285472D01*
X87539076Y-73077767D01*
X87493925Y-72857249D01*
X87491151Y-72850334D01*
X87414665Y-72659656D01*
X87410124Y-72648336D01*
X87403482Y-72637766D01*
X87290364Y-72457740D01*
X87138504Y-72291598D01*
X87138498Y-72291593D01*
X86959411Y-72155236D01*
X86959407Y-72155234D01*
X86758851Y-72053046D01*
X86758847Y-72053044D01*
X86543268Y-71988309D01*
X86319595Y-71963108D01*
X86319584Y-71963107D01*
X86095006Y-71978248D01*
X86095003Y-71978248D01*
X85876737Y-72033247D01*
X85876734Y-72033248D01*
X85671794Y-72126336D01*
X85671784Y-72126342D01*
X85486762Y-72254525D01*
X82539048Y-75202239D01*
X82430921Y-75331753D01*
X82430917Y-75331759D01*
X82319836Y-75527527D01*
X82245491Y-75739986D01*
X82245490Y-75739989D01*
X82210278Y-75962309D01*
X82215260Y-76184293D01*
X82197084Y-76251757D01*
X82145320Y-76298685D01*
X82076402Y-76310178D01*
X82012211Y-76282586D01*
X82003610Y-76274756D01*
X80896696Y-75167842D01*
X80863211Y-75106519D01*
X80868195Y-75036827D01*
X80910067Y-74980894D01*
X80975531Y-74956477D01*
X80998256Y-74956940D01*
X81101363Y-74968558D01*
X81101365Y-74968557D01*
X81101367Y-74968558D01*
X81203125Y-74961697D01*
X81325948Y-74953416D01*
X81544219Y-74898416D01*
X81749162Y-74805327D01*
X81934190Y-74677140D01*
X84881908Y-71729422D01*
X84990032Y-71599911D01*
X85101117Y-71404137D01*
X85175462Y-71191675D01*
X85190088Y-71099330D01*
X85210674Y-70969355D01*
X85207955Y-70848227D01*
X85205623Y-70744314D01*
X85160472Y-70523796D01*
X85146716Y-70489504D01*
X85076670Y-70314881D01*
X84956911Y-70124287D01*
X84805051Y-69958145D01*
X84805045Y-69958140D01*
X84625958Y-69821783D01*
X84625954Y-69821781D01*
X84425398Y-69719593D01*
X84425394Y-69719591D01*
X84209815Y-69654856D01*
X83986142Y-69629655D01*
X83986131Y-69629654D01*
X83761553Y-69644795D01*
X83761550Y-69644795D01*
X83543284Y-69699794D01*
X83543281Y-69699795D01*
X83338341Y-69792883D01*
X83338331Y-69792889D01*
X83153309Y-69921072D01*
X80205595Y-72868786D01*
X80097468Y-72998300D01*
X80097464Y-72998306D01*
X79986383Y-73194074D01*
X79912038Y-73406533D01*
X79912037Y-73406536D01*
X79876825Y-73628856D01*
X79881807Y-73850840D01*
X79863631Y-73918304D01*
X79811867Y-73965232D01*
X79742949Y-73976725D01*
X79678758Y-73949133D01*
X79670157Y-73941303D01*
X78640511Y-72911657D01*
X78607026Y-72850334D01*
X78612010Y-72780642D01*
X78653882Y-72724709D01*
X78719346Y-72700292D01*
X78723069Y-72700082D01*
X78805478Y-72696674D01*
X79048779Y-72645659D01*
X79048789Y-72645656D01*
X79280356Y-72555297D01*
X79493915Y-72428044D01*
X79636095Y-72307623D01*
X79636101Y-72307618D01*
X82552262Y-69391457D01*
X82552267Y-69391451D01*
X82672686Y-69249273D01*
X82672695Y-69249261D01*
X82799939Y-69035715D01*
X82799939Y-69035714D01*
X82890300Y-68804142D01*
X82890302Y-68804136D01*
X82941317Y-68560840D01*
X82941318Y-68560831D01*
X82951590Y-68312463D01*
X82920841Y-68065784D01*
X82920840Y-68065780D01*
X82849911Y-67827533D01*
X82740733Y-67604207D01*
X82740732Y-67604204D01*
X82670337Y-67505611D01*
X81683685Y-68492263D01*
X81673539Y-68445623D01*
X81604633Y-68319431D01*
X81502967Y-68217765D01*
X81376775Y-68148859D01*
X81330130Y-68138711D01*
X82316785Y-67152058D01*
X82218193Y-67081665D01*
X82218190Y-67081664D01*
X81994864Y-66972486D01*
X81756617Y-66901557D01*
X81756613Y-66901556D01*
X81509932Y-66870808D01*
X81261566Y-66881079D01*
X81261557Y-66881080D01*
X81018261Y-66932095D01*
X81018255Y-66932097D01*
X80786683Y-67022458D01*
X80786682Y-67022458D01*
X80573136Y-67149702D01*
X80573124Y-67149711D01*
X80430946Y-67270130D01*
X79149637Y-68551439D01*
X79149637Y-68551440D01*
X79856743Y-69258547D01*
X79503191Y-69612100D01*
X78796084Y-68904993D01*
X78796083Y-68904993D01*
X77514774Y-70186302D01*
X77394353Y-70328482D01*
X77267100Y-70542041D01*
X77176741Y-70773608D01*
X77176738Y-70773618D01*
X77125723Y-71016918D01*
X77122315Y-71099330D01*
X77099877Y-71165499D01*
X77045227Y-71209032D01*
X76975716Y-71216109D01*
X76913414Y-71184482D01*
X76910740Y-71181886D01*
X72476708Y-66747854D01*
X68411414Y-62682559D01*
X69911925Y-62682559D01*
X69930965Y-62839377D01*
X69976158Y-62958538D01*
X69986983Y-62987082D01*
X70076720Y-63117089D01*
X70194963Y-63221842D01*
X70194965Y-63221843D01*
X70334837Y-63295255D01*
X70488217Y-63333059D01*
X70488218Y-63333059D01*
X70646188Y-63333059D01*
X70799568Y-63295255D01*
X70837674Y-63275255D01*
X70939443Y-63221842D01*
X71057686Y-63117089D01*
X71075266Y-63091618D01*
X71129547Y-63047629D01*
X71177316Y-63038059D01*
X73090895Y-63038059D01*
X73157934Y-63057744D01*
X73192945Y-63091620D01*
X73195366Y-63095128D01*
X73196718Y-63097087D01*
X73196720Y-63097089D01*
X73314963Y-63201842D01*
X73314965Y-63201843D01*
X73454837Y-63275255D01*
X73608217Y-63313059D01*
X73608218Y-63313059D01*
X73766188Y-63313059D01*
X73919568Y-63275255D01*
X74059443Y-63201842D01*
X74177686Y-63097089D01*
X74267423Y-62967082D01*
X74323440Y-62819377D01*
X74342481Y-62662559D01*
X74325869Y-62525741D01*
X74323440Y-62505740D01*
X74301196Y-62447087D01*
X74267423Y-62358036D01*
X74177686Y-62228029D01*
X74059443Y-62123276D01*
X74059441Y-62123275D01*
X74059440Y-62123274D01*
X73919568Y-62049862D01*
X73766189Y-62012059D01*
X73766188Y-62012059D01*
X73608218Y-62012059D01*
X73608217Y-62012059D01*
X73454837Y-62049862D01*
X73314965Y-62123274D01*
X73196719Y-62228029D01*
X73194292Y-62231546D01*
X73192945Y-62233497D01*
X73138666Y-62277488D01*
X73090895Y-62287059D01*
X71148071Y-62287059D01*
X71081032Y-62267374D01*
X71063715Y-62252534D01*
X71063300Y-62253003D01*
X71057686Y-62248030D01*
X71057686Y-62248029D01*
X70939443Y-62143276D01*
X70939441Y-62143275D01*
X70939440Y-62143274D01*
X70799568Y-62069862D01*
X70646189Y-62032059D01*
X70646188Y-62032059D01*
X70488218Y-62032059D01*
X70488217Y-62032059D01*
X70334837Y-62069862D01*
X70194965Y-62143274D01*
X70194963Y-62143276D01*
X70099295Y-62228030D01*
X70076719Y-62248030D01*
X69986984Y-62378034D01*
X69986983Y-62378035D01*
X69930965Y-62525740D01*
X69911925Y-62682558D01*
X69911925Y-62682559D01*
X68411414Y-62682559D01*
X65174022Y-59445167D01*
X65140537Y-59383844D01*
X65137703Y-59357486D01*
X65137703Y-58278469D01*
X65157388Y-58211430D01*
X65210192Y-58165675D01*
X65279350Y-58155731D01*
X65342906Y-58184756D01*
X65380680Y-58243534D01*
X65382869Y-58252111D01*
X65384404Y-58259170D01*
X65384406Y-58259176D01*
X65384407Y-58259179D01*
X65469152Y-58486388D01*
X65484411Y-58527299D01*
X65621546Y-58778442D01*
X65621551Y-58778450D01*
X65793030Y-59007520D01*
X65793046Y-59007538D01*
X65995370Y-59209862D01*
X65995388Y-59209878D01*
X66224458Y-59381357D01*
X66224466Y-59381362D01*
X66475609Y-59518497D01*
X66475608Y-59518497D01*
X66475612Y-59518498D01*
X66475615Y-59518500D01*
X66743730Y-59618502D01*
X66743736Y-59618503D01*
X66743738Y-59618504D01*
X67023342Y-59679328D01*
X67023344Y-59679328D01*
X67023348Y-59679329D01*
X67276996Y-59697470D01*
X67308775Y-59699743D01*
X67308776Y-59699743D01*
X67308777Y-59699743D01*
X67337371Y-59697697D01*
X67594204Y-59679329D01*
X67873822Y-59618502D01*
X68141937Y-59518500D01*
X68393091Y-59381359D01*
X68622171Y-59209872D01*
X68824515Y-59007528D01*
X68996002Y-58778448D01*
X69133143Y-58527294D01*
X69233145Y-58259179D01*
X69252735Y-58169126D01*
X69293971Y-57979566D01*
X69293971Y-57979565D01*
X69293972Y-57979561D01*
X69314386Y-57694133D01*
X69293972Y-57408705D01*
X69293863Y-57408205D01*
X69233147Y-57129095D01*
X69233146Y-57129093D01*
X69233145Y-57129087D01*
X69133143Y-56860972D01*
X69113905Y-56825741D01*
X68996005Y-56609823D01*
X68996000Y-56609815D01*
X68824521Y-56380745D01*
X68824505Y-56380727D01*
X68622181Y-56178403D01*
X68622163Y-56178387D01*
X68393093Y-56006908D01*
X68393085Y-56006903D01*
X68141942Y-55869768D01*
X68141943Y-55869768D01*
X68034691Y-55829765D01*
X67873822Y-55769764D01*
X67873819Y-55769763D01*
X67873813Y-55769761D01*
X67594209Y-55708937D01*
X67308777Y-55688523D01*
X67308775Y-55688523D01*
X67023342Y-55708937D01*
X66743738Y-55769761D01*
X66475609Y-55869768D01*
X66224466Y-56006903D01*
X66224458Y-56006908D01*
X65995388Y-56178387D01*
X65995370Y-56178403D01*
X65793046Y-56380727D01*
X65793030Y-56380745D01*
X65621551Y-56609815D01*
X65621546Y-56609823D01*
X65484411Y-56860966D01*
X65384405Y-57129093D01*
X65382869Y-57136156D01*
X65349383Y-57197478D01*
X65288059Y-57230963D01*
X65218368Y-57225977D01*
X65162435Y-57184105D01*
X65138019Y-57118640D01*
X65137703Y-57109796D01*
X65137703Y-50120387D01*
X65149535Y-50080091D01*
X65148405Y-50077481D01*
X65375557Y-50077481D01*
X65380680Y-50085452D01*
X65385521Y-50113673D01*
X65392920Y-50250150D01*
X65392922Y-50250157D01*
X65442119Y-50427353D01*
X65442122Y-50427359D01*
X65528265Y-50589842D01*
X65647323Y-50730007D01*
X65647324Y-50730008D01*
X65793732Y-50841304D01*
X65960642Y-50918525D01*
X65960643Y-50918525D01*
X65960645Y-50918526D01*
X66015134Y-50930519D01*
X66140249Y-50958059D01*
X66140252Y-50958059D01*
X66278042Y-50958059D01*
X66278048Y-50958059D01*
X66415032Y-50943161D01*
X66589313Y-50884439D01*
X66746895Y-50789625D01*
X66880411Y-50663152D01*
X66983618Y-50510934D01*
X67051689Y-50340088D01*
X67081442Y-50158603D01*
X67071485Y-49974966D01*
X67022285Y-49797762D01*
X66936141Y-49635277D01*
X66936140Y-49635275D01*
X66817082Y-49495110D01*
X66738658Y-49435494D01*
X66670674Y-49383814D01*
X66503764Y-49306593D01*
X66503760Y-49306591D01*
X66324157Y-49267059D01*
X66186358Y-49267059D01*
X66186356Y-49267059D01*
X66049373Y-49281957D01*
X65875092Y-49340679D01*
X65717509Y-49435494D01*
X65717508Y-49435495D01*
X65583997Y-49561963D01*
X65480786Y-49714186D01*
X65412718Y-49885024D01*
X65412717Y-49885028D01*
X65412717Y-49885030D01*
X65384068Y-50059775D01*
X65375557Y-50077481D01*
X65148405Y-50077481D01*
X65138641Y-50054938D01*
X65137703Y-50039712D01*
X65137703Y-48222559D01*
X65561925Y-48222559D01*
X65580965Y-48379377D01*
X65619421Y-48480775D01*
X65636983Y-48527082D01*
X65726720Y-48657089D01*
X65844963Y-48761842D01*
X65844965Y-48761843D01*
X65984837Y-48835255D01*
X66138217Y-48873059D01*
X66138218Y-48873059D01*
X66296188Y-48873059D01*
X66449568Y-48835255D01*
X66589443Y-48761842D01*
X66707686Y-48657089D01*
X66711460Y-48651620D01*
X66765740Y-48607630D01*
X66813511Y-48598059D01*
X70995399Y-48598059D01*
X71020844Y-48600698D01*
X71023927Y-48601344D01*
X71031471Y-48602926D01*
X71062879Y-48599010D01*
X71078217Y-48598059D01*
X71078315Y-48598059D01*
X71078317Y-48598059D01*
X71098846Y-48594632D01*
X71103876Y-48593900D01*
X71155829Y-48587425D01*
X71155831Y-48587423D01*
X71163344Y-48585187D01*
X71170809Y-48582625D01*
X71170809Y-48582624D01*
X71170813Y-48582624D01*
X71216839Y-48557716D01*
X71221396Y-48555371D01*
X71236305Y-48548081D01*
X71268414Y-48532385D01*
X71268416Y-48532382D01*
X71274797Y-48527827D01*
X71281023Y-48522980D01*
X71281029Y-48522978D01*
X71316496Y-48484449D01*
X71319998Y-48480799D01*
X73671420Y-46129378D01*
X73732743Y-46095893D01*
X73759101Y-46093059D01*
X73906188Y-46093059D01*
X74059568Y-46055255D01*
X74077729Y-46045723D01*
X74199443Y-45981842D01*
X74200474Y-45980929D01*
X74201389Y-45980498D01*
X74205615Y-45977582D01*
X74206099Y-45978284D01*
X74263706Y-45951206D01*
X74332970Y-45960387D01*
X74386274Y-46005558D01*
X74406695Y-46072377D01*
X74406703Y-46073742D01*
X74406703Y-50765304D01*
X74387018Y-50832343D01*
X74370384Y-50852985D01*
X72401716Y-52821652D01*
X72401716Y-52821653D01*
X72390434Y-52832935D01*
X72379151Y-52844218D01*
X72379151Y-52844219D01*
X72369094Y-52863956D01*
X72358934Y-52880536D01*
X72345909Y-52898464D01*
X72345906Y-52898469D01*
X72339057Y-52919547D01*
X72331616Y-52937511D01*
X72321557Y-52957254D01*
X72318090Y-52979141D01*
X72313550Y-52998050D01*
X72306703Y-53019126D01*
X72306703Y-55385988D01*
X72306704Y-55385998D01*
X72313549Y-55407066D01*
X72318090Y-55425977D01*
X72321557Y-55447863D01*
X72321558Y-55447866D01*
X72331615Y-55467604D01*
X72339060Y-55485577D01*
X72345907Y-55506649D01*
X72358929Y-55524573D01*
X72369093Y-55541159D01*
X72379152Y-55560899D01*
X72379153Y-55560901D01*
X72398593Y-55580341D01*
X72398622Y-55580372D01*
X74150616Y-57332366D01*
X74150636Y-57332384D01*
X74168859Y-57350608D01*
X74188597Y-57360665D01*
X74205185Y-57370830D01*
X74223113Y-57383855D01*
X74244182Y-57390700D01*
X74262161Y-57398147D01*
X74281899Y-57408205D01*
X74303781Y-57411670D01*
X74322694Y-57416211D01*
X74343770Y-57423059D01*
X74375684Y-57423059D01*
X80787054Y-57423059D01*
X80854093Y-57442744D01*
X80874735Y-57459378D01*
X81510884Y-58095527D01*
X81544369Y-58156850D01*
X81547203Y-58183208D01*
X81547203Y-58838059D01*
X81527518Y-58905098D01*
X81474714Y-58950853D01*
X81423203Y-58962059D01*
X76285297Y-58962059D01*
X76218258Y-58942374D01*
X76172503Y-58889570D01*
X76162559Y-58820412D01*
X76183248Y-58767618D01*
X76197423Y-58747082D01*
X76253440Y-58599377D01*
X76272481Y-58442559D01*
X76266470Y-58393049D01*
X76253440Y-58285740D01*
X76225768Y-58212777D01*
X76197423Y-58138036D01*
X76107686Y-58008029D01*
X75989443Y-57903276D01*
X75989441Y-57903275D01*
X75989440Y-57903274D01*
X75849568Y-57829862D01*
X75696189Y-57792059D01*
X75696188Y-57792059D01*
X75538218Y-57792059D01*
X75538217Y-57792059D01*
X75384837Y-57829862D01*
X75244965Y-57903274D01*
X75212718Y-57931842D01*
X75129852Y-58005255D01*
X75123508Y-58010875D01*
X75060274Y-58040596D01*
X75041281Y-58042059D01*
X73104458Y-58042059D01*
X73037419Y-58022374D01*
X73016777Y-58005740D01*
X70844022Y-55832985D01*
X70810537Y-55771662D01*
X70807703Y-55745304D01*
X70807703Y-55482614D01*
X70827388Y-55415575D01*
X70849477Y-55389798D01*
X70897685Y-55347090D01*
X70901158Y-55342059D01*
X70987423Y-55217082D01*
X71043440Y-55069377D01*
X71062481Y-54912559D01*
X71059412Y-54887279D01*
X71043440Y-54755740D01*
X71017763Y-54688036D01*
X70987423Y-54608036D01*
X70897686Y-54478029D01*
X70779443Y-54373276D01*
X70779441Y-54373275D01*
X70779440Y-54373274D01*
X70639568Y-54299862D01*
X70486189Y-54262059D01*
X70486188Y-54262059D01*
X70328218Y-54262059D01*
X70328217Y-54262059D01*
X70174837Y-54299862D01*
X70034965Y-54373274D01*
X69916719Y-54478030D01*
X69826984Y-54608034D01*
X69826983Y-54608035D01*
X69770965Y-54755740D01*
X69751925Y-54912558D01*
X69751925Y-54912559D01*
X69770965Y-55069377D01*
X69826983Y-55217082D01*
X69826984Y-55217083D01*
X69916720Y-55347090D01*
X69964929Y-55389798D01*
X70002056Y-55448987D01*
X70006703Y-55482614D01*
X70006703Y-56025988D01*
X70006704Y-56025998D01*
X70013549Y-56047066D01*
X70018090Y-56065977D01*
X70021557Y-56087863D01*
X70021558Y-56087866D01*
X70031615Y-56107604D01*
X70039060Y-56125577D01*
X70045907Y-56146649D01*
X70058929Y-56164573D01*
X70069093Y-56181159D01*
X70079152Y-56200899D01*
X70079153Y-56200901D01*
X70098593Y-56220341D01*
X70098622Y-56220372D01*
X71608629Y-57730378D01*
X71642114Y-57791701D01*
X71637130Y-57861393D01*
X71595258Y-57917326D01*
X71529794Y-57941743D01*
X71520948Y-57942059D01*
X71468217Y-57942059D01*
X71314837Y-57979862D01*
X71174965Y-58053274D01*
X71056719Y-58158030D01*
X70966984Y-58288034D01*
X70966983Y-58288035D01*
X70910965Y-58435740D01*
X70891925Y-58592558D01*
X70891925Y-58592559D01*
X70910965Y-58749377D01*
X70959401Y-58877089D01*
X70966983Y-58897082D01*
X71056720Y-59027089D01*
X71174963Y-59131842D01*
X71174965Y-59131843D01*
X71314837Y-59205255D01*
X71468217Y-59243059D01*
X71579948Y-59243059D01*
X71646987Y-59262744D01*
X71667629Y-59279378D01*
X71989153Y-59600901D01*
X72078861Y-59690609D01*
X72098598Y-59700665D01*
X72115184Y-59710828D01*
X72133113Y-59723855D01*
X72133115Y-59723855D01*
X72133116Y-59723856D01*
X72154177Y-59730699D01*
X72172156Y-59738145D01*
X72191899Y-59748205D01*
X72213788Y-59751671D01*
X72232704Y-59756212D01*
X72253770Y-59763058D01*
X72280549Y-59763058D01*
X72280573Y-59763059D01*
X72285684Y-59763059D01*
X81423203Y-59763059D01*
X81490242Y-59782744D01*
X81535997Y-59835548D01*
X81547203Y-59887059D01*
X81547203Y-60069632D01*
X81527518Y-60136671D01*
X81474714Y-60182426D01*
X81423203Y-60193632D01*
X73870001Y-60193632D01*
X73869776Y-60193566D01*
X73752687Y-60193570D01*
X73752686Y-60193570D01*
X73625385Y-60227685D01*
X73511253Y-60293584D01*
X73418069Y-60386773D01*
X73352174Y-60500911D01*
X73352174Y-60500912D01*
X73318068Y-60628200D01*
X73318068Y-60759999D01*
X73352174Y-60887287D01*
X73352174Y-60887288D01*
X73352175Y-60887290D01*
X73352176Y-60887293D01*
X73418069Y-61001426D01*
X73511255Y-61094617D01*
X73625386Y-61160515D01*
X73752683Y-61194629D01*
X73752686Y-61194629D01*
X73793812Y-61194630D01*
X73793821Y-61194632D01*
X73818478Y-61194632D01*
X73818577Y-61194632D01*
X73819077Y-61194632D01*
X81094113Y-61194632D01*
X81107773Y-61195386D01*
X81121957Y-61196959D01*
X81124514Y-61197271D01*
X81207485Y-61208332D01*
X81231421Y-61213987D01*
X81262221Y-61224587D01*
X81269852Y-61227500D01*
X81324561Y-61250485D01*
X81341582Y-61259241D01*
X81372545Y-61278328D01*
X81383776Y-61286140D01*
X81427960Y-61320641D01*
X81428225Y-61320848D01*
X81438537Y-61329860D01*
X81464548Y-61355257D01*
X81477180Y-61369660D01*
X81512735Y-61417152D01*
X81517428Y-61423874D01*
X81535157Y-61451152D01*
X81546463Y-61473038D01*
X81577394Y-61551080D01*
X81578372Y-61553627D01*
X81583142Y-61566481D01*
X81587187Y-61579554D01*
X81676753Y-61937904D01*
X81676766Y-61937950D01*
X81893201Y-62658324D01*
X82143249Y-63367748D01*
X82426353Y-64064633D01*
X82426360Y-64064648D01*
X82741899Y-64747475D01*
X82741905Y-64747487D01*
X82741909Y-64747495D01*
X83089158Y-65414696D01*
X83089180Y-65414735D01*
X83467413Y-66064913D01*
X83467423Y-66064930D01*
X83875789Y-66696621D01*
X84022370Y-66901557D01*
X84199856Y-67149702D01*
X84313401Y-67308449D01*
X84313403Y-67308451D01*
X84546701Y-67604204D01*
X84779258Y-67899018D01*
X85272359Y-68467058D01*
X85385948Y-68586115D01*
X85791604Y-69011302D01*
X86062986Y-69270217D01*
X86335850Y-69530547D01*
X86903890Y-70023648D01*
X87494471Y-70489514D01*
X87807648Y-70713514D01*
X88106286Y-70927115D01*
X88737978Y-71335481D01*
X88737988Y-71335487D01*
X88737993Y-71335490D01*
X88855996Y-71404137D01*
X89388172Y-71713724D01*
X89388211Y-71713746D01*
X89856898Y-71957676D01*
X90055434Y-72061005D01*
X90738261Y-72376544D01*
X90738269Y-72376547D01*
X90738275Y-72376550D01*
X91435161Y-72659653D01*
X92144579Y-72909699D01*
X92144583Y-72909700D01*
X92144591Y-72909703D01*
X92864987Y-73126144D01*
X93187995Y-73206877D01*
X93188053Y-73206911D01*
X93223202Y-73215680D01*
X93236303Y-73219730D01*
X93249623Y-73224671D01*
X93252153Y-73225641D01*
X93329884Y-73256442D01*
X93351762Y-73267742D01*
X93379049Y-73285472D01*
X93385774Y-73290165D01*
X93433275Y-73325719D01*
X93447680Y-73338350D01*
X93467343Y-73358485D01*
X93473079Y-73364358D01*
X93482092Y-73374670D01*
X93516801Y-73419112D01*
X93524618Y-73430350D01*
X93529103Y-73437623D01*
X93543699Y-73461296D01*
X93552467Y-73478339D01*
X93575446Y-73533026D01*
X93578379Y-73540711D01*
X93588949Y-73571426D01*
X93594617Y-73595436D01*
X93605891Y-73680245D01*
X93606216Y-73682913D01*
X93607207Y-73691851D01*
X93607520Y-73694668D01*
X93608276Y-73708340D01*
X93608276Y-81050223D01*
X93642384Y-81177519D01*
X93675041Y-81234082D01*
X93708276Y-81291646D01*
X93801462Y-81384832D01*
X93915590Y-81450724D01*
X94042884Y-81484832D01*
X94042886Y-81484832D01*
X94174666Y-81484832D01*
X94174668Y-81484832D01*
X94301962Y-81450724D01*
X94416090Y-81384832D01*
X94509276Y-81291646D01*
X94575168Y-81177518D01*
X94609276Y-81050224D01*
X94609276Y-80984332D01*
X94609276Y-80983832D01*
X94609276Y-77138775D01*
X94609277Y-73136559D01*
X94628962Y-73069520D01*
X94681766Y-73023765D01*
X94733277Y-73012559D01*
X99484275Y-73012559D01*
X99551314Y-73032244D01*
X99597069Y-73085048D01*
X99608275Y-73136559D01*
X99608275Y-81050223D01*
X99642383Y-81177519D01*
X99675040Y-81234082D01*
X99708275Y-81291646D01*
X99801461Y-81384832D01*
X99915589Y-81450724D01*
X100042883Y-81484832D01*
X100042885Y-81484832D01*
X100174665Y-81484832D01*
X100174667Y-81484832D01*
X100301961Y-81450724D01*
X100416089Y-81384832D01*
X100509275Y-81291646D01*
X100575167Y-81177518D01*
X100609275Y-81050224D01*
X100609275Y-80984332D01*
X100609275Y-80983832D01*
X100609275Y-73801367D01*
X107761666Y-73801367D01*
X107781109Y-73899107D01*
X107822497Y-73961050D01*
X109978712Y-76117265D01*
X110040655Y-76158653D01*
X110138395Y-76178096D01*
X110236136Y-76158653D01*
X110298078Y-76117265D01*
X111817897Y-74597446D01*
X111859285Y-74535504D01*
X111878728Y-74437763D01*
X111859285Y-74340023D01*
X111817897Y-74278080D01*
X111624026Y-74084209D01*
X112569992Y-74084209D01*
X112589435Y-74181950D01*
X112614127Y-74218904D01*
X112630824Y-74243894D01*
X112630825Y-74243895D01*
X113187110Y-74800179D01*
X113220595Y-74861502D01*
X113223429Y-74887860D01*
X113223429Y-76355551D01*
X113222649Y-76369436D01*
X113218658Y-76404849D01*
X113229284Y-76461009D01*
X113230061Y-76465578D01*
X113238581Y-76522104D01*
X113241091Y-76530240D01*
X113243905Y-76538283D01*
X113243905Y-76538284D01*
X113243906Y-76538285D01*
X113257080Y-76563212D01*
X113270617Y-76588824D01*
X113272705Y-76592962D01*
X113297503Y-76644454D01*
X113302291Y-76651478D01*
X113307360Y-76658345D01*
X113307363Y-76658351D01*
X113307367Y-76658355D01*
X113347776Y-76698764D01*
X113350993Y-76702103D01*
X113389876Y-76744009D01*
X113397139Y-76749801D01*
X113396618Y-76750454D01*
X113408859Y-76759847D01*
X123675875Y-87026862D01*
X123685140Y-87037229D01*
X123707366Y-87065099D01*
X123707368Y-87065101D01*
X123754608Y-87097309D01*
X123758390Y-87099992D01*
X123804363Y-87133922D01*
X123811899Y-87137905D01*
X123819564Y-87141596D01*
X123819572Y-87141601D01*
X123844433Y-87149269D01*
X123874225Y-87158459D01*
X123878616Y-87159903D01*
X123932546Y-87178775D01*
X123932550Y-87178775D01*
X123940943Y-87180363D01*
X123949340Y-87181629D01*
X123949343Y-87181629D01*
X124006490Y-87181629D01*
X124011128Y-87181716D01*
X124068254Y-87183854D01*
X124068254Y-87183853D01*
X124068255Y-87183854D01*
X124068255Y-87183853D01*
X124077487Y-87182814D01*
X124077580Y-87183642D01*
X124092884Y-87181629D01*
X126406371Y-87181629D01*
X126420253Y-87182408D01*
X126431198Y-87183642D01*
X126455666Y-87186399D01*
X126455666Y-87186398D01*
X126455668Y-87186399D01*
X126511869Y-87175764D01*
X126516359Y-87175001D01*
X126572920Y-87166477D01*
X126572924Y-87166474D01*
X126581080Y-87163959D01*
X126589102Y-87161153D01*
X126589103Y-87161152D01*
X126589105Y-87161152D01*
X126639721Y-87134399D01*
X126643726Y-87132377D01*
X126695275Y-87107554D01*
X126695276Y-87107552D01*
X126695278Y-87107552D01*
X126702328Y-87102745D01*
X126709167Y-87097696D01*
X126709171Y-87097695D01*
X126749607Y-87057257D01*
X126752893Y-87054091D01*
X126794827Y-87015184D01*
X126794829Y-87015179D01*
X126800620Y-87007919D01*
X126801276Y-87008442D01*
X126810665Y-86996199D01*
X128832947Y-84973916D01*
X128843296Y-84964668D01*
X128871173Y-84942438D01*
X128903401Y-84895166D01*
X128906015Y-84891482D01*
X128939996Y-84845441D01*
X128939996Y-84845438D01*
X128939998Y-84845437D01*
X128943990Y-84837883D01*
X128947674Y-84830234D01*
X128951829Y-84816764D01*
X128964533Y-84775573D01*
X128965965Y-84771221D01*
X128984849Y-84717258D01*
X128984849Y-84717255D01*
X128986435Y-84708870D01*
X128987703Y-84700463D01*
X128987703Y-84643297D01*
X128987790Y-84638659D01*
X128989927Y-84581551D01*
X128988887Y-84572320D01*
X128989716Y-84572226D01*
X128987703Y-84556925D01*
X128987703Y-84318318D01*
X129007388Y-84251279D01*
X129023049Y-84233003D01*
X129022712Y-84232704D01*
X129027684Y-84227091D01*
X129027684Y-84227090D01*
X129027686Y-84227089D01*
X129117423Y-84097082D01*
X129173440Y-83949377D01*
X129192481Y-83792559D01*
X129190543Y-83776593D01*
X129173440Y-83635740D01*
X129146141Y-83563759D01*
X129117423Y-83488036D01*
X129027686Y-83358029D01*
X128909443Y-83253276D01*
X128909441Y-83253275D01*
X128909440Y-83253274D01*
X128769568Y-83179862D01*
X128616189Y-83142059D01*
X128616188Y-83142059D01*
X128458218Y-83142059D01*
X128458217Y-83142059D01*
X128304837Y-83179862D01*
X128164965Y-83253274D01*
X128046719Y-83358030D01*
X127956984Y-83488034D01*
X127956983Y-83488035D01*
X127900965Y-83635740D01*
X127881925Y-83792558D01*
X127881925Y-83792559D01*
X127900965Y-83949377D01*
X127956983Y-84097082D01*
X127956984Y-84097083D01*
X128046721Y-84227091D01*
X128051694Y-84232704D01*
X128050247Y-84233985D01*
X128082053Y-84284679D01*
X128086703Y-84318318D01*
X128086703Y-84394594D01*
X128067018Y-84461633D01*
X128050384Y-84482275D01*
X126288349Y-86244310D01*
X126227026Y-86277795D01*
X126200668Y-86280629D01*
X124255210Y-86280629D01*
X124188171Y-86260944D01*
X124167529Y-86244310D01*
X123597959Y-85674740D01*
X123564474Y-85613417D01*
X123569458Y-85543725D01*
X123611330Y-85487792D01*
X123676794Y-85463375D01*
X123685640Y-85463059D01*
X123974941Y-85463059D01*
X123988823Y-85463838D01*
X124001624Y-85465281D01*
X124024236Y-85467829D01*
X124024236Y-85467828D01*
X124024238Y-85467829D01*
X124080439Y-85457194D01*
X124084929Y-85456431D01*
X124141490Y-85447907D01*
X124141494Y-85447904D01*
X124149650Y-85445389D01*
X124157672Y-85442583D01*
X124157673Y-85442582D01*
X124157675Y-85442582D01*
X124208291Y-85415829D01*
X124212296Y-85413807D01*
X124263845Y-85388984D01*
X124263846Y-85388982D01*
X124263848Y-85388982D01*
X124270898Y-85384175D01*
X124277737Y-85379126D01*
X124277741Y-85379125D01*
X124318178Y-85338686D01*
X124321464Y-85335520D01*
X124363397Y-85296614D01*
X124363399Y-85296609D01*
X124369190Y-85289349D01*
X124369846Y-85289872D01*
X124379235Y-85277629D01*
X129457487Y-80199378D01*
X129518810Y-80165893D01*
X129545168Y-80163059D01*
X130397720Y-80163059D01*
X130464759Y-80182744D01*
X130479944Y-80194241D01*
X130544963Y-80251842D01*
X130544965Y-80251843D01*
X130684837Y-80325255D01*
X130838217Y-80363059D01*
X130838218Y-80363059D01*
X130996188Y-80363059D01*
X131149568Y-80325255D01*
X131159405Y-80320092D01*
X131289443Y-80251842D01*
X131407686Y-80147089D01*
X131497423Y-80017082D01*
X131553440Y-79869377D01*
X131572481Y-79712559D01*
X131553440Y-79555741D01*
X131497423Y-79408036D01*
X131407686Y-79278029D01*
X131289443Y-79173276D01*
X131289441Y-79173275D01*
X131289440Y-79173274D01*
X131149568Y-79099862D01*
X130996189Y-79062059D01*
X130996188Y-79062059D01*
X130838218Y-79062059D01*
X130838217Y-79062059D01*
X130684837Y-79099862D01*
X130544965Y-79173274D01*
X130538985Y-79178572D01*
X130482337Y-79228758D01*
X130479947Y-79230875D01*
X130416713Y-79260596D01*
X130397720Y-79262059D01*
X129339465Y-79262059D01*
X129325582Y-79261279D01*
X129321938Y-79260868D01*
X129290169Y-79257288D01*
X129233987Y-79267917D01*
X129229419Y-79268693D01*
X129172916Y-79277211D01*
X129172915Y-79277211D01*
X129172910Y-79277212D01*
X129164753Y-79279727D01*
X129156731Y-79282535D01*
X129106167Y-79309259D01*
X129102029Y-79311347D01*
X129050564Y-79336132D01*
X129043513Y-79340938D01*
X129036661Y-79345995D01*
X128996248Y-79386408D01*
X128992911Y-79389623D01*
X128951007Y-79428505D01*
X128945215Y-79435768D01*
X128944563Y-79435248D01*
X128935171Y-79447485D01*
X123856919Y-84525740D01*
X123795596Y-84559225D01*
X123769238Y-84562059D01*
X123385169Y-84562059D01*
X123318130Y-84542374D01*
X123297488Y-84525740D01*
X123026488Y-84254740D01*
X122993003Y-84193417D01*
X122997987Y-84123725D01*
X123039859Y-84067792D01*
X123105323Y-84043375D01*
X123114169Y-84043059D01*
X123216188Y-84043059D01*
X123369568Y-84005255D01*
X123449031Y-83963549D01*
X123509443Y-83931842D01*
X123627686Y-83827089D01*
X123717423Y-83697082D01*
X123773440Y-83549377D01*
X123792481Y-83392559D01*
X123788289Y-83358030D01*
X123773440Y-83235740D01*
X123737911Y-83142059D01*
X123717423Y-83088036D01*
X123627686Y-82958029D01*
X123627682Y-82958025D01*
X123622712Y-82952415D01*
X123624156Y-82951135D01*
X123592348Y-82900419D01*
X123587703Y-82866799D01*
X123587703Y-80327053D01*
X123588483Y-80313168D01*
X123592473Y-80277758D01*
X123592473Y-80277757D01*
X123581836Y-80221545D01*
X123581067Y-80217011D01*
X123572551Y-80160505D01*
X123572549Y-80160501D01*
X123570039Y-80152363D01*
X123567227Y-80144326D01*
X123567226Y-80144320D01*
X123540488Y-80093733D01*
X123538426Y-80089646D01*
X123528265Y-80068546D01*
X123513628Y-80038150D01*
X123513626Y-80038148D01*
X123513626Y-80038147D01*
X123508845Y-80031134D01*
X123503769Y-80024257D01*
X123503768Y-80024254D01*
X123463368Y-79983854D01*
X123460150Y-79980513D01*
X123421263Y-79938601D01*
X123413995Y-79932806D01*
X123414515Y-79932153D01*
X123402270Y-79922756D01*
X116561972Y-73082458D01*
X116528487Y-73021135D01*
X116528036Y-72970587D01*
X116545633Y-72882128D01*
X116526190Y-72784387D01*
X116484802Y-72722445D01*
X116484800Y-72722442D01*
X115318538Y-71556180D01*
X115297796Y-71542321D01*
X115256594Y-71514791D01*
X115158853Y-71495348D01*
X115061112Y-71514791D01*
X114999168Y-71556180D01*
X114398591Y-72156757D01*
X114357202Y-72218701D01*
X114343505Y-72287555D01*
X114311118Y-72349465D01*
X114250402Y-72384038D01*
X114246083Y-72384978D01*
X114177229Y-72398675D01*
X114115285Y-72440064D01*
X113514708Y-73040641D01*
X113473319Y-73102585D01*
X113459622Y-73171439D01*
X113427235Y-73233349D01*
X113366518Y-73267921D01*
X113362199Y-73268861D01*
X113293345Y-73282558D01*
X113231401Y-73323947D01*
X112630824Y-73924524D01*
X112589435Y-73986468D01*
X112580414Y-74031820D01*
X112569992Y-74084209D01*
X111624026Y-74084209D01*
X109661682Y-72121865D01*
X109599739Y-72080477D01*
X109501999Y-72061034D01*
X109404258Y-72080477D01*
X109342313Y-72121866D01*
X107822498Y-73641681D01*
X107781109Y-73703626D01*
X107762953Y-73794899D01*
X107761666Y-73801367D01*
X100609275Y-73801367D01*
X100609275Y-73708809D01*
X100610032Y-73695126D01*
X100611569Y-73681282D01*
X100611892Y-73678635D01*
X100623048Y-73595230D01*
X100628696Y-73571352D01*
X100639068Y-73541220D01*
X100641955Y-73533657D01*
X100665285Y-73478136D01*
X100674039Y-73461119D01*
X100692816Y-73430660D01*
X100700604Y-73419462D01*
X100735784Y-73374404D01*
X100744741Y-73364154D01*
X100769754Y-73338533D01*
X100784123Y-73325927D01*
X100832334Y-73289825D01*
X100839008Y-73285165D01*
X100865652Y-73267842D01*
X100887492Y-73256553D01*
X100967116Y-73224968D01*
X100969569Y-73224027D01*
X100980889Y-73219824D01*
X100993962Y-73215775D01*
X101352565Y-73126148D01*
X102072962Y-72909707D01*
X102570175Y-72734456D01*
X102782391Y-72659657D01*
X103355219Y-72426952D01*
X103479292Y-72376549D01*
X104162120Y-72061011D01*
X104662549Y-71800559D01*
X104829341Y-71713751D01*
X104829351Y-71713744D01*
X104829367Y-71713737D01*
X105479561Y-71335496D01*
X106111264Y-70927123D01*
X106723083Y-70489520D01*
X107313664Y-70023654D01*
X107881704Y-69530553D01*
X108425949Y-69011307D01*
X108945195Y-68467063D01*
X108979664Y-68427355D01*
X113135678Y-68427355D01*
X113155121Y-68525095D01*
X113196509Y-68587038D01*
X115352724Y-70743253D01*
X115414667Y-70784641D01*
X115512407Y-70804084D01*
X115610148Y-70784641D01*
X115672090Y-70743253D01*
X117191909Y-69223434D01*
X117233297Y-69161492D01*
X117252740Y-69063751D01*
X117233297Y-68966011D01*
X117191909Y-68904068D01*
X115035694Y-66747853D01*
X114973751Y-66706465D01*
X114876011Y-66687022D01*
X114778270Y-66706465D01*
X114716325Y-66747854D01*
X113196510Y-68267669D01*
X113166581Y-68312463D01*
X113155121Y-68329614D01*
X113135678Y-68427355D01*
X108979664Y-68427355D01*
X109438295Y-67899022D01*
X109904162Y-67308441D01*
X110341765Y-66696622D01*
X110750138Y-66064919D01*
X111128378Y-65414725D01*
X111128394Y-65414696D01*
X111302251Y-65080647D01*
X111475652Y-64747477D01*
X111791190Y-64064650D01*
X112074297Y-63367751D01*
X112074298Y-63367749D01*
X112312967Y-62690609D01*
X112324348Y-62658319D01*
X112540788Y-61937922D01*
X112561329Y-61855740D01*
X112614340Y-61643642D01*
X112614396Y-61643544D01*
X112630316Y-61579734D01*
X112634374Y-61566613D01*
X112639489Y-61552835D01*
X112640364Y-61550554D01*
X112671017Y-61473201D01*
X112682320Y-61451323D01*
X112700478Y-61423390D01*
X112705151Y-61416698D01*
X112740226Y-61369856D01*
X112752833Y-61355483D01*
X112779316Y-61329628D01*
X112789577Y-61320662D01*
X112833505Y-61286363D01*
X112844728Y-61278558D01*
X112876208Y-61259152D01*
X112893215Y-61250403D01*
X112947176Y-61227731D01*
X112954792Y-61224824D01*
X112986325Y-61213971D01*
X113010265Y-61208314D01*
X113091302Y-61197505D01*
X113093753Y-61197205D01*
X113110139Y-61195387D01*
X113123794Y-61194633D01*
X120410913Y-61194633D01*
X120411570Y-61194567D01*
X120464865Y-61194571D01*
X120592156Y-61160469D01*
X120706283Y-61094583D01*
X120799467Y-61001403D01*
X120865359Y-60887279D01*
X120899467Y-60759990D01*
X120899467Y-60628210D01*
X120865359Y-60500921D01*
X120799467Y-60386797D01*
X120706283Y-60293617D01*
X120701064Y-60290604D01*
X120592158Y-60227731D01*
X120592153Y-60227730D01*
X120464866Y-60193629D01*
X120464865Y-60193629D01*
X120431920Y-60193631D01*
X120398974Y-60193633D01*
X112671203Y-60193633D01*
X112604164Y-60173948D01*
X112558409Y-60121144D01*
X112547203Y-60069633D01*
X112547203Y-57694134D01*
X124903166Y-57694134D01*
X124923580Y-57979566D01*
X124984404Y-58259170D01*
X124984406Y-58259176D01*
X124984407Y-58259179D01*
X125069152Y-58486388D01*
X125084411Y-58527299D01*
X125221546Y-58778442D01*
X125221551Y-58778450D01*
X125393030Y-59007520D01*
X125393046Y-59007538D01*
X125595370Y-59209862D01*
X125595388Y-59209878D01*
X125824458Y-59381357D01*
X125824466Y-59381362D01*
X126075609Y-59518497D01*
X126075608Y-59518497D01*
X126075612Y-59518498D01*
X126075615Y-59518500D01*
X126343730Y-59618502D01*
X126343736Y-59618503D01*
X126343738Y-59618504D01*
X126623342Y-59679328D01*
X126623344Y-59679328D01*
X126623348Y-59679329D01*
X126876996Y-59697470D01*
X126908775Y-59699743D01*
X126908776Y-59699743D01*
X126908777Y-59699743D01*
X126937371Y-59697697D01*
X127194204Y-59679329D01*
X127473822Y-59618502D01*
X127741937Y-59518500D01*
X127993091Y-59381359D01*
X128222171Y-59209872D01*
X128424515Y-59007528D01*
X128596002Y-58778448D01*
X128733143Y-58527294D01*
X128833145Y-58259179D01*
X128852735Y-58169126D01*
X128893971Y-57979566D01*
X128893971Y-57979565D01*
X128893972Y-57979561D01*
X128914386Y-57694133D01*
X128893972Y-57408705D01*
X128893863Y-57408205D01*
X128833147Y-57129095D01*
X128833146Y-57129093D01*
X128833145Y-57129087D01*
X128733143Y-56860972D01*
X128713905Y-56825741D01*
X128596005Y-56609823D01*
X128596000Y-56609815D01*
X128424521Y-56380745D01*
X128424505Y-56380727D01*
X128222181Y-56178403D01*
X128222163Y-56178387D01*
X127993093Y-56006908D01*
X127993085Y-56006903D01*
X127741942Y-55869768D01*
X127741943Y-55869768D01*
X127634691Y-55829765D01*
X127473822Y-55769764D01*
X127473819Y-55769763D01*
X127473813Y-55769761D01*
X127194209Y-55708937D01*
X126908777Y-55688523D01*
X126908775Y-55688523D01*
X126623342Y-55708937D01*
X126343738Y-55769761D01*
X126075609Y-55869768D01*
X125824466Y-56006903D01*
X125824458Y-56006908D01*
X125595388Y-56178387D01*
X125595370Y-56178403D01*
X125393046Y-56380727D01*
X125393030Y-56380745D01*
X125221551Y-56609815D01*
X125221546Y-56609823D01*
X125084411Y-56860966D01*
X124984404Y-57129095D01*
X124923580Y-57408699D01*
X124903166Y-57694131D01*
X124903166Y-57694134D01*
X112547203Y-57694134D01*
X112547203Y-55318634D01*
X112566888Y-55251595D01*
X112619692Y-55205840D01*
X112671203Y-55194634D01*
X120410892Y-55194634D01*
X120411571Y-55194566D01*
X120464865Y-55194570D01*
X120592155Y-55160468D01*
X120592156Y-55160467D01*
X120592158Y-55160467D01*
X120706277Y-55094585D01*
X120706277Y-55094584D01*
X120706282Y-55094582D01*
X120799466Y-55001402D01*
X120865358Y-54887279D01*
X120899466Y-54759990D01*
X120899466Y-54628210D01*
X120865358Y-54500921D01*
X120799466Y-54386798D01*
X120706282Y-54293618D01*
X120706279Y-54293616D01*
X120706277Y-54293614D01*
X120592158Y-54227732D01*
X120592153Y-54227731D01*
X120464866Y-54193630D01*
X120464865Y-54193630D01*
X120431920Y-54193632D01*
X120398974Y-54193634D01*
X113123448Y-54193634D01*
X113109760Y-54192876D01*
X113095624Y-54191306D01*
X113092918Y-54190976D01*
X113047880Y-54184968D01*
X113010080Y-54179926D01*
X112986124Y-54174265D01*
X112955363Y-54163677D01*
X112947685Y-54160746D01*
X112893002Y-54137769D01*
X112875966Y-54129005D01*
X112845027Y-54109932D01*
X112833781Y-54102111D01*
X112833737Y-54102077D01*
X112821098Y-54092207D01*
X112789327Y-54067398D01*
X112779018Y-54058389D01*
X112753013Y-54032999D01*
X112740384Y-54018601D01*
X112704793Y-53971065D01*
X112700134Y-53964391D01*
X112682400Y-53937108D01*
X112671100Y-53915236D01*
X112640091Y-53837015D01*
X112639160Y-53834591D01*
X112634534Y-53822128D01*
X112630297Y-53808276D01*
X112620309Y-53767172D01*
X112619286Y-53764446D01*
X112540782Y-53450346D01*
X112324342Y-52729949D01*
X112074293Y-52020518D01*
X111932889Y-51672436D01*
X111791193Y-51323632D01*
X111791187Y-51323618D01*
X111475649Y-50640791D01*
X111364564Y-50427353D01*
X111128390Y-49973568D01*
X111128368Y-49973529D01*
X110815375Y-49435495D01*
X110750136Y-49323349D01*
X110750134Y-49323345D01*
X110750127Y-49323334D01*
X110341761Y-48691642D01*
X110006250Y-48222559D01*
X109904161Y-48079826D01*
X109438295Y-47489245D01*
X109192302Y-47205867D01*
X108945214Y-46921226D01*
X108945201Y-46921212D01*
X108945199Y-46921210D01*
X108945194Y-46921204D01*
X108799953Y-46768970D01*
X110929134Y-46768970D01*
X110959882Y-47015651D01*
X110959883Y-47015655D01*
X111030812Y-47253902D01*
X111139990Y-47477228D01*
X111139991Y-47477231D01*
X111210385Y-47575823D01*
X112197037Y-46589170D01*
X112207184Y-46635814D01*
X112276090Y-46762005D01*
X112377757Y-46863672D01*
X112503948Y-46932578D01*
X112550589Y-46942724D01*
X111563937Y-47929376D01*
X111662531Y-47999769D01*
X111662541Y-47999775D01*
X111885859Y-48108949D01*
X112124106Y-48179878D01*
X112124110Y-48179879D01*
X112370791Y-48210627D01*
X112619161Y-48200356D01*
X112862461Y-48149341D01*
X112862471Y-48149338D01*
X113094038Y-48058979D01*
X113307597Y-47931726D01*
X113449777Y-47811305D01*
X114731086Y-46529996D01*
X114731086Y-46529994D01*
X114023979Y-45822888D01*
X114377532Y-45469335D01*
X115084639Y-46176442D01*
X116365944Y-44895138D01*
X116365949Y-44895133D01*
X116486368Y-44752955D01*
X116486377Y-44752943D01*
X116613621Y-44539397D01*
X116613621Y-44539396D01*
X116703982Y-44307824D01*
X116703984Y-44307818D01*
X116754999Y-44064522D01*
X116755000Y-44064513D01*
X116765272Y-43816145D01*
X116734523Y-43569466D01*
X116734522Y-43569462D01*
X116663593Y-43331215D01*
X116554415Y-43107889D01*
X116554414Y-43107886D01*
X116484019Y-43009293D01*
X115497367Y-43995945D01*
X115487221Y-43949305D01*
X115418315Y-43823113D01*
X115316649Y-43721447D01*
X115190457Y-43652541D01*
X115143813Y-43642394D01*
X116130467Y-42655740D01*
X116031875Y-42585347D01*
X116031872Y-42585346D01*
X115808546Y-42476168D01*
X115570299Y-42405239D01*
X115570295Y-42405238D01*
X115323614Y-42374490D01*
X115075248Y-42384761D01*
X115075239Y-42384762D01*
X114831943Y-42435777D01*
X114831937Y-42435779D01*
X114600365Y-42526140D01*
X114600364Y-42526140D01*
X114386818Y-42653384D01*
X114386806Y-42653393D01*
X114244628Y-42773812D01*
X114244623Y-42773818D01*
X111328462Y-45689979D01*
X111328456Y-45689984D01*
X111208035Y-45832164D01*
X111080782Y-46045723D01*
X110990423Y-46277290D01*
X110990420Y-46277300D01*
X110939405Y-46520600D01*
X110929134Y-46768970D01*
X108799953Y-46768970D01*
X108729624Y-46695255D01*
X108425949Y-46376959D01*
X108078765Y-46045723D01*
X107881705Y-45857714D01*
X107313665Y-45364613D01*
X107010661Y-45125596D01*
X106723097Y-44898758D01*
X106723095Y-44898756D01*
X106723088Y-44898751D01*
X106723083Y-44898747D01*
X106366299Y-44643557D01*
X106111267Y-44461145D01*
X105571306Y-44112080D01*
X108670049Y-44112080D01*
X108675100Y-44337122D01*
X108720250Y-44557632D01*
X108720254Y-44557645D01*
X108804052Y-44766552D01*
X108923811Y-44957148D01*
X109053609Y-45099152D01*
X109075674Y-45123292D01*
X109254765Y-45259652D01*
X109455325Y-45361843D01*
X109670909Y-45426580D01*
X109894587Y-45451782D01*
X109894589Y-45451781D01*
X109894591Y-45451782D01*
X109994402Y-45445052D01*
X110119172Y-45436640D01*
X110337443Y-45381640D01*
X110542386Y-45288551D01*
X110727414Y-45160364D01*
X113675132Y-42212646D01*
X113783256Y-42083135D01*
X113894341Y-41887361D01*
X113968686Y-41674899D01*
X113981465Y-41594215D01*
X114003898Y-41452579D01*
X114003296Y-41425741D01*
X113998847Y-41227538D01*
X113953696Y-41007020D01*
X113946762Y-40989735D01*
X113869894Y-40798105D01*
X113750135Y-40607511D01*
X113598275Y-40441369D01*
X113598269Y-40441364D01*
X113419182Y-40305007D01*
X113419178Y-40305005D01*
X113218622Y-40202817D01*
X113218618Y-40202815D01*
X113003039Y-40138080D01*
X112779366Y-40112879D01*
X112779355Y-40112878D01*
X112554777Y-40128019D01*
X112554774Y-40128019D01*
X112336508Y-40183018D01*
X112336505Y-40183019D01*
X112131565Y-40276107D01*
X112131555Y-40276113D01*
X111946533Y-40404296D01*
X108998819Y-43352010D01*
X108890692Y-43481524D01*
X108890688Y-43481530D01*
X108779607Y-43677298D01*
X108705262Y-43889757D01*
X108705261Y-43889760D01*
X108670049Y-44112080D01*
X105571306Y-44112080D01*
X105479575Y-44052779D01*
X105479558Y-44052769D01*
X104829381Y-43674537D01*
X104829342Y-43674515D01*
X104162140Y-43327267D01*
X104162132Y-43327263D01*
X104162120Y-43327257D01*
X103479293Y-43011718D01*
X103479290Y-43011716D01*
X103479271Y-43011708D01*
X102782397Y-42728612D01*
X102782399Y-42728612D01*
X102072973Y-42478565D01*
X101352597Y-42262130D01*
X101352578Y-42262125D01*
X101352565Y-42262121D01*
X101058283Y-42188568D01*
X101058183Y-42188510D01*
X100994379Y-42172592D01*
X100981231Y-42168525D01*
X100967900Y-42163575D01*
X100965346Y-42162595D01*
X100887687Y-42131793D01*
X100865822Y-42120492D01*
X100838534Y-42102753D01*
X100831798Y-42098050D01*
X100819929Y-42089163D01*
X100784330Y-42062509D01*
X100769937Y-42049884D01*
X100744518Y-42023851D01*
X100735511Y-42013544D01*
X100700816Y-41969115D01*
X100693000Y-41957879D01*
X100673910Y-41926920D01*
X100665148Y-41909894D01*
X100642150Y-41855177D01*
X100639246Y-41847570D01*
X100628646Y-41816787D01*
X100622982Y-41792820D01*
X100621089Y-41778627D01*
X106336596Y-41778627D01*
X106341647Y-42003669D01*
X106386797Y-42224179D01*
X106386801Y-42224192D01*
X106470599Y-42433099D01*
X106590358Y-42623695D01*
X106727577Y-42773818D01*
X106742221Y-42789839D01*
X106921312Y-42926199D01*
X107121872Y-43028390D01*
X107337456Y-43093127D01*
X107561134Y-43118329D01*
X107561136Y-43118328D01*
X107561138Y-43118329D01*
X107660949Y-43111599D01*
X107785719Y-43103187D01*
X108003990Y-43048187D01*
X108208933Y-42955098D01*
X108393961Y-42826911D01*
X111341679Y-39879193D01*
X111449803Y-39749682D01*
X111560888Y-39553908D01*
X111635233Y-39341446D01*
X111664295Y-39157956D01*
X111670445Y-39119126D01*
X111669865Y-39093275D01*
X111665394Y-38894085D01*
X111620243Y-38673567D01*
X111618027Y-38668043D01*
X111536441Y-38464652D01*
X111416682Y-38274058D01*
X111264822Y-38107916D01*
X111264816Y-38107911D01*
X111085729Y-37971554D01*
X111085725Y-37971552D01*
X110885169Y-37869364D01*
X110885165Y-37869362D01*
X110669586Y-37804627D01*
X110445913Y-37779426D01*
X110445902Y-37779425D01*
X110221324Y-37794566D01*
X110221321Y-37794566D01*
X110003055Y-37849565D01*
X110003052Y-37849566D01*
X109798112Y-37942654D01*
X109798102Y-37942660D01*
X109613080Y-38070843D01*
X106665366Y-41018557D01*
X106557239Y-41148071D01*
X106557235Y-41148077D01*
X106446154Y-41343845D01*
X106371809Y-41556304D01*
X106371808Y-41556307D01*
X106336596Y-41778627D01*
X100621089Y-41778627D01*
X100611809Y-41709062D01*
X100611479Y-41706364D01*
X100610035Y-41693372D01*
X100609276Y-41679674D01*
X100609276Y-34338044D01*
X100609276Y-34338042D01*
X100575168Y-34210748D01*
X100509276Y-34096620D01*
X100416090Y-34003434D01*
X100359026Y-33970488D01*
X100301963Y-33937542D01*
X100238315Y-33920488D01*
X100174668Y-33903434D01*
X100042884Y-33903434D01*
X99915588Y-33937542D01*
X99801462Y-34003434D01*
X99801459Y-34003436D01*
X99708278Y-34096617D01*
X99708276Y-34096620D01*
X99642384Y-34210746D01*
X99608276Y-34338042D01*
X99608276Y-42499361D01*
X99608328Y-42499901D01*
X99608252Y-42544875D01*
X99634465Y-42657157D01*
X99685509Y-42760539D01*
X99758714Y-42849614D01*
X99758717Y-42849617D01*
X99850254Y-42919723D01*
X99955329Y-42967189D01*
X100010263Y-42977940D01*
X100013333Y-42978582D01*
X100088579Y-42995360D01*
X100149727Y-43029163D01*
X100182893Y-43090660D01*
X100185227Y-43106878D01*
X100747202Y-50412558D01*
X100747203Y-50412559D01*
X103978533Y-55769764D01*
X104090455Y-55955318D01*
X104108275Y-56019363D01*
X104108275Y-60392763D01*
X104108266Y-60392793D01*
X104108268Y-60518050D01*
X104137114Y-60663037D01*
X104137116Y-60663045D01*
X104159501Y-60717083D01*
X104193693Y-60799624D01*
X104275827Y-60922543D01*
X104380363Y-61027078D01*
X104380366Y-61027080D01*
X104503283Y-61109211D01*
X104627136Y-61160515D01*
X104639864Y-61165787D01*
X104784858Y-61194631D01*
X104834009Y-61194631D01*
X104834015Y-61194633D01*
X104858676Y-61194633D01*
X104858775Y-61194633D01*
X104859275Y-61194633D01*
X106807369Y-61194633D01*
X106807508Y-61194674D01*
X106858775Y-61194674D01*
X106858775Y-61194675D01*
X106932696Y-61194677D01*
X107077698Y-61165837D01*
X107103655Y-61155084D01*
X107173123Y-61147613D01*
X107235603Y-61178886D01*
X107257290Y-61205599D01*
X108233779Y-62824514D01*
X108251549Y-62892086D01*
X108229965Y-62958538D01*
X108175881Y-63002773D01*
X108127599Y-63012559D01*
X92671203Y-63012559D01*
X92604164Y-62992874D01*
X92558409Y-62940070D01*
X92547203Y-62888559D01*
X92547203Y-62887059D01*
X92566888Y-62820020D01*
X92619692Y-62774265D01*
X92671203Y-62763059D01*
X97710634Y-62763059D01*
X97710636Y-62763059D01*
X97731704Y-62756213D01*
X97750620Y-62751671D01*
X97772507Y-62748205D01*
X97792247Y-62738145D01*
X97810214Y-62730703D01*
X97831293Y-62723855D01*
X97849229Y-62710822D01*
X97865791Y-62700673D01*
X97885545Y-62690609D01*
X97885552Y-62690601D01*
X97890869Y-62686740D01*
X97956676Y-62663261D01*
X97963754Y-62663059D01*
X98076188Y-62663059D01*
X98229568Y-62625255D01*
X98369443Y-62551842D01*
X98487686Y-62447089D01*
X98577423Y-62317082D01*
X98633440Y-62169377D01*
X98652481Y-62012559D01*
X98633440Y-61855741D01*
X98577423Y-61708036D01*
X98487686Y-61578029D01*
X98369443Y-61473276D01*
X98369441Y-61473275D01*
X98369440Y-61473274D01*
X98229568Y-61399862D01*
X98076189Y-61362059D01*
X98076188Y-61362059D01*
X97918218Y-61362059D01*
X97918217Y-61362059D01*
X97764837Y-61399862D01*
X97624965Y-61473274D01*
X97624963Y-61473276D01*
X97534265Y-61553627D01*
X97506719Y-61578030D01*
X97416984Y-61708034D01*
X97416983Y-61708035D01*
X97360965Y-61855740D01*
X97359171Y-61863023D01*
X97357196Y-61862536D01*
X97333674Y-61917186D01*
X97275739Y-61956241D01*
X97238202Y-61962059D01*
X92671203Y-61962059D01*
X92604164Y-61942374D01*
X92558409Y-61889570D01*
X92547203Y-61838059D01*
X92547203Y-50617206D01*
X92547550Y-50607932D01*
X92574383Y-50250157D01*
X93093237Y-43332095D01*
X93117881Y-43266718D01*
X93173959Y-43225040D01*
X93183955Y-43221825D01*
X93476571Y-43141281D01*
X93482214Y-43139873D01*
X93747649Y-43080388D01*
X94202218Y-42979030D01*
X94205368Y-42978372D01*
X94205657Y-42978315D01*
X94205658Y-42978316D01*
X94262247Y-42967252D01*
X94367349Y-42919796D01*
X94458909Y-42849686D01*
X94532132Y-42760595D01*
X94551514Y-42721333D01*
X94598842Y-42669935D01*
X94666445Y-42652282D01*
X94732860Y-42673981D01*
X94777000Y-42728142D01*
X94786703Y-42776226D01*
X94786703Y-44153300D01*
X94767018Y-44220339D01*
X94714214Y-44266094D01*
X94645056Y-44276038D01*
X94581500Y-44247013D01*
X94560653Y-44223740D01*
X94528215Y-44176746D01*
X94487686Y-44118029D01*
X94369443Y-44013276D01*
X94369441Y-44013275D01*
X94369440Y-44013274D01*
X94229568Y-43939862D01*
X94076189Y-43902059D01*
X94076188Y-43902059D01*
X93918218Y-43902059D01*
X93918217Y-43902059D01*
X93764837Y-43939862D01*
X93624965Y-44013274D01*
X93506719Y-44118030D01*
X93416984Y-44248034D01*
X93416983Y-44248035D01*
X93360966Y-44395739D01*
X93341612Y-44555128D01*
X93334187Y-44581490D01*
X93334536Y-44581593D01*
X93332037Y-44590103D01*
X93331349Y-44594886D01*
X93324801Y-44620545D01*
X93323113Y-44625072D01*
X93323112Y-44625075D01*
X93319568Y-44674613D01*
X93318623Y-44683404D01*
X93316703Y-44696759D01*
X93316703Y-44710249D01*
X93316387Y-44719096D01*
X93312844Y-44768628D01*
X93312844Y-44768632D01*
X93313869Y-44773344D01*
X93316703Y-44799702D01*
X93316703Y-60293901D01*
X93297018Y-60360940D01*
X93294753Y-60364341D01*
X93236984Y-60448034D01*
X93236983Y-60448035D01*
X93180965Y-60595740D01*
X93161925Y-60752558D01*
X93161925Y-60752559D01*
X93180965Y-60909377D01*
X93225604Y-61027078D01*
X93236983Y-61057082D01*
X93326720Y-61187089D01*
X93444963Y-61291842D01*
X93444965Y-61291843D01*
X93584837Y-61365255D01*
X93738217Y-61403059D01*
X93738218Y-61403059D01*
X93896188Y-61403059D01*
X94049568Y-61365255D01*
X94109595Y-61333750D01*
X94189443Y-61291842D01*
X94307686Y-61187089D01*
X94397423Y-61057082D01*
X94453440Y-60909377D01*
X94472481Y-60752559D01*
X94468174Y-60717083D01*
X94453440Y-60595740D01*
X94423976Y-60518050D01*
X94397423Y-60448036D01*
X94339653Y-60364341D01*
X94317770Y-60297986D01*
X94317703Y-60293901D01*
X94317703Y-55210959D01*
X94337388Y-55143920D01*
X94390192Y-55098165D01*
X94459350Y-55088221D01*
X94522906Y-55117246D01*
X94557644Y-55166987D01*
X94606983Y-55297082D01*
X94696720Y-55427089D01*
X94814963Y-55531842D01*
X94814965Y-55531843D01*
X94954837Y-55605255D01*
X95108217Y-55643059D01*
X95108218Y-55643059D01*
X95266188Y-55643059D01*
X95419568Y-55605255D01*
X95559443Y-55531842D01*
X95677686Y-55427089D01*
X95767423Y-55297082D01*
X95823440Y-55149377D01*
X95842481Y-54992559D01*
X95836566Y-54943840D01*
X95823440Y-54835740D01*
X95790746Y-54749535D01*
X95767423Y-54688036D01*
X95677686Y-54558029D01*
X95677683Y-54558026D01*
X95677681Y-54558024D01*
X95629476Y-54515318D01*
X95592349Y-54456129D01*
X95587703Y-54422503D01*
X95587703Y-34531708D01*
X95607388Y-34464669D01*
X95660192Y-34418914D01*
X95729350Y-34408970D01*
X95792906Y-34437995D01*
X95799384Y-34444027D01*
X96330384Y-34975027D01*
X96363869Y-35036350D01*
X96366703Y-35062708D01*
X96366703Y-51045988D01*
X96366704Y-51045998D01*
X96373549Y-51067066D01*
X96378090Y-51085977D01*
X96381557Y-51107863D01*
X96381558Y-51107866D01*
X96391615Y-51127604D01*
X96399060Y-51145577D01*
X96405907Y-51166649D01*
X96418929Y-51184573D01*
X96429093Y-51201159D01*
X96439152Y-51220899D01*
X96439153Y-51220901D01*
X96458593Y-51240341D01*
X96458622Y-51240372D01*
X100810384Y-55592133D01*
X100843869Y-55653456D01*
X100846703Y-55679814D01*
X100846703Y-56555302D01*
X100827018Y-56622341D01*
X100810384Y-56642983D01*
X100747627Y-56705740D01*
X100686304Y-56739225D01*
X100659946Y-56742059D01*
X100548217Y-56742059D01*
X100394837Y-56779862D01*
X100254965Y-56853274D01*
X100136719Y-56958030D01*
X100046984Y-57088034D01*
X100046983Y-57088035D01*
X99990965Y-57235740D01*
X99971925Y-57392558D01*
X99971925Y-57392559D01*
X99990965Y-57549377D01*
X100045864Y-57694131D01*
X100046983Y-57697082D01*
X100136720Y-57827089D01*
X100254963Y-57931842D01*
X100254965Y-57931843D01*
X100394837Y-58005255D01*
X100401853Y-58007916D01*
X100401174Y-58009704D01*
X100452953Y-58039842D01*
X100484751Y-58102057D01*
X100477865Y-58171586D01*
X100450591Y-58212777D01*
X98937628Y-59725740D01*
X98876305Y-59759225D01*
X98849947Y-59762059D01*
X98738217Y-59762059D01*
X98584837Y-59799862D01*
X98444965Y-59873274D01*
X98326719Y-59978030D01*
X98236984Y-60108034D01*
X98236983Y-60108035D01*
X98180965Y-60255740D01*
X98161925Y-60412558D01*
X98161925Y-60412559D01*
X98180965Y-60569377D01*
X98228267Y-60694100D01*
X98236983Y-60717082D01*
X98326720Y-60847089D01*
X98444963Y-60951842D01*
X98444965Y-60951843D01*
X98584837Y-61025255D01*
X98738217Y-61063059D01*
X98738218Y-61063059D01*
X98896188Y-61063059D01*
X99049568Y-61025255D01*
X99189443Y-60951842D01*
X99307686Y-60847089D01*
X99397423Y-60717082D01*
X99453440Y-60569377D01*
X99472481Y-60412559D01*
X99470134Y-60393230D01*
X99481594Y-60324308D01*
X99505546Y-60290607D01*
X99819208Y-59976945D01*
X99880529Y-59943462D01*
X99950221Y-59948446D01*
X100006154Y-59990318D01*
X100022828Y-60020656D01*
X100066983Y-60137082D01*
X100156720Y-60267089D01*
X100274963Y-60371842D01*
X100274965Y-60371843D01*
X100414837Y-60445255D01*
X100568217Y-60483059D01*
X100568218Y-60483059D01*
X100726188Y-60483059D01*
X100879568Y-60445255D01*
X100978688Y-60393232D01*
X101019443Y-60371842D01*
X101137686Y-60267089D01*
X101227423Y-60137082D01*
X101283440Y-59989377D01*
X101302481Y-59832559D01*
X101300134Y-59813230D01*
X101311594Y-59744308D01*
X101335546Y-59710607D01*
X102552687Y-58493468D01*
X102552687Y-58493467D01*
X102559755Y-58486400D01*
X102559760Y-58486393D01*
X102575253Y-58470901D01*
X102585312Y-58451157D01*
X102595472Y-58434577D01*
X102608499Y-58416648D01*
X102615345Y-58395576D01*
X102622791Y-58377602D01*
X102632848Y-58357864D01*
X102632849Y-58357863D01*
X102636315Y-58335975D01*
X102640854Y-58317069D01*
X102647703Y-58295992D01*
X102647703Y-58169126D01*
X102647703Y-54881040D01*
X102647703Y-54849126D01*
X102640856Y-54828056D01*
X102636314Y-54809136D01*
X102635499Y-54803990D01*
X102632849Y-54787255D01*
X102622787Y-54767508D01*
X102615343Y-54749535D01*
X102608498Y-54728468D01*
X102595477Y-54710546D01*
X102585311Y-54693957D01*
X102582294Y-54688036D01*
X102575253Y-54674217D01*
X102557028Y-54655992D01*
X102557010Y-54655972D01*
X98204022Y-50302984D01*
X98170537Y-50241661D01*
X98167703Y-50215303D01*
X98167703Y-33369128D01*
X98167703Y-33369126D01*
X98160856Y-33348056D01*
X98156314Y-33329136D01*
X98152849Y-33307255D01*
X98142787Y-33287508D01*
X98135343Y-33269535D01*
X98128498Y-33248468D01*
X98115477Y-33230546D01*
X98105311Y-33213957D01*
X98095253Y-33194217D01*
X98077028Y-33175992D01*
X98077010Y-33175972D01*
X92795172Y-27894134D01*
X95103166Y-27894134D01*
X95123580Y-28179566D01*
X95184404Y-28459170D01*
X95184406Y-28459176D01*
X95184407Y-28459179D01*
X95284409Y-28727294D01*
X95284411Y-28727299D01*
X95421546Y-28978442D01*
X95421551Y-28978450D01*
X95593030Y-29207520D01*
X95593046Y-29207538D01*
X95795370Y-29409862D01*
X95795388Y-29409878D01*
X96024458Y-29581357D01*
X96024466Y-29581362D01*
X96275609Y-29718497D01*
X96275608Y-29718497D01*
X96275612Y-29718498D01*
X96275615Y-29718500D01*
X96543730Y-29818502D01*
X96543736Y-29818503D01*
X96543738Y-29818504D01*
X96823342Y-29879328D01*
X96823344Y-29879328D01*
X96823348Y-29879329D01*
X97076996Y-29897470D01*
X97108775Y-29899743D01*
X97108776Y-29899743D01*
X97108777Y-29899743D01*
X97137371Y-29897697D01*
X97394204Y-29879329D01*
X97673822Y-29818502D01*
X97941937Y-29718500D01*
X98193091Y-29581359D01*
X98422171Y-29409872D01*
X98624515Y-29207528D01*
X98796002Y-28978448D01*
X98933143Y-28727294D01*
X99033145Y-28459179D01*
X99093972Y-28179561D01*
X99114386Y-27894133D01*
X99093972Y-27608705D01*
X99077563Y-27533276D01*
X99033147Y-27329095D01*
X99033146Y-27329093D01*
X99033145Y-27329087D01*
X98933143Y-27060972D01*
X98916129Y-27029814D01*
X98796005Y-26809823D01*
X98796000Y-26809815D01*
X98624521Y-26580745D01*
X98624505Y-26580727D01*
X98422181Y-26378403D01*
X98422163Y-26378387D01*
X98193093Y-26206908D01*
X98193085Y-26206903D01*
X97941942Y-26069768D01*
X97941943Y-26069768D01*
X97834691Y-26029765D01*
X97673822Y-25969764D01*
X97673819Y-25969763D01*
X97673813Y-25969761D01*
X97394209Y-25908937D01*
X97108777Y-25888523D01*
X97108775Y-25888523D01*
X96823342Y-25908937D01*
X96543738Y-25969761D01*
X96275609Y-26069768D01*
X96024466Y-26206903D01*
X96024458Y-26206908D01*
X95795388Y-26378387D01*
X95795370Y-26378403D01*
X95593046Y-26580727D01*
X95593030Y-26580745D01*
X95421551Y-26809815D01*
X95421546Y-26809823D01*
X95284411Y-27060966D01*
X95184404Y-27329095D01*
X95123580Y-27608699D01*
X95103166Y-27894131D01*
X95103166Y-27894134D01*
X92795172Y-27894134D01*
X91565016Y-26663978D01*
X91564985Y-26663949D01*
X91545545Y-26644509D01*
X91545543Y-26644508D01*
X91525803Y-26634449D01*
X91509217Y-26624285D01*
X91491293Y-26611263D01*
X91491294Y-26611263D01*
X91470221Y-26604416D01*
X91452248Y-26596971D01*
X91432510Y-26586914D01*
X91432507Y-26586913D01*
X91410621Y-26583446D01*
X91391710Y-26578905D01*
X91370642Y-26572060D01*
X91370637Y-26572059D01*
X91370636Y-26572059D01*
X91370632Y-26572059D01*
X90813125Y-26572059D01*
X90746086Y-26552374D01*
X90730898Y-26540875D01*
X90727686Y-26538030D01*
X90727686Y-26538029D01*
X90609443Y-26433276D01*
X90609441Y-26433275D01*
X90609440Y-26433274D01*
X90469568Y-26359862D01*
X90316189Y-26322059D01*
X90316188Y-26322059D01*
X90158218Y-26322059D01*
X90158217Y-26322059D01*
X90004837Y-26359862D01*
X89864965Y-26433274D01*
X89746719Y-26538030D01*
X89656984Y-26668034D01*
X89656983Y-26668035D01*
X89600965Y-26815740D01*
X89600964Y-26815745D01*
X89599495Y-26827846D01*
X89571871Y-26892023D01*
X89513936Y-26931077D01*
X89444083Y-26932610D01*
X89388719Y-26900576D01*
X84842122Y-22353978D01*
X84842091Y-22353949D01*
X84822651Y-22334509D01*
X84822649Y-22334508D01*
X84802909Y-22324449D01*
X84786323Y-22314285D01*
X84768399Y-22301263D01*
X84768400Y-22301263D01*
X84747327Y-22294416D01*
X84729354Y-22286971D01*
X84709616Y-22276914D01*
X84709613Y-22276913D01*
X84687727Y-22273446D01*
X84668816Y-22268905D01*
X84647748Y-22262060D01*
X84647743Y-22262059D01*
X84647742Y-22262059D01*
X84647738Y-22262059D01*
X82489556Y-22262059D01*
X82422517Y-22242374D01*
X82377174Y-22190464D01*
X82281238Y-21984730D01*
X82281237Y-21984728D01*
X82145697Y-21791156D01*
X81978605Y-21624065D01*
X81978598Y-21624060D01*
X81964322Y-21614064D01*
X81939724Y-21596840D01*
X81785037Y-21488526D01*
X81785033Y-21488524D01*
X81763586Y-21478523D01*
X81570866Y-21388656D01*
X81570862Y-21388655D01*
X81570858Y-21388653D01*
X81342616Y-21327497D01*
X81342606Y-21327495D01*
X81107204Y-21306900D01*
X81107202Y-21306900D01*
X80871799Y-21327495D01*
X80871789Y-21327497D01*
X80643547Y-21388653D01*
X80643538Y-21388657D01*
X80429374Y-21488523D01*
X80429372Y-21488524D01*
X80235800Y-21624064D01*
X80068708Y-21791156D01*
X79933168Y-21984728D01*
X79933167Y-21984730D01*
X79833301Y-22198894D01*
X79833297Y-22198903D01*
X79772141Y-22427145D01*
X79772139Y-22427155D01*
X79751544Y-22662558D01*
X79751544Y-22662559D01*
X79772139Y-22897962D01*
X79772141Y-22897972D01*
X79833297Y-23126214D01*
X79833299Y-23126218D01*
X79833300Y-23126222D01*
X79880446Y-23227326D01*
X79933168Y-23340389D01*
X79933170Y-23340393D01*
X80068704Y-23533954D01*
X80068709Y-23533961D01*
X80235800Y-23701052D01*
X80235806Y-23701057D01*
X80372090Y-23796484D01*
X80415715Y-23851061D01*
X80422909Y-23920559D01*
X80391386Y-23982914D01*
X80331156Y-24018328D01*
X80300967Y-24022059D01*
X79534458Y-24022059D01*
X79467419Y-24002374D01*
X79446777Y-23985740D01*
X78804953Y-23343916D01*
X78771468Y-23282593D01*
X78776452Y-23212901D01*
X78780245Y-23203846D01*
X78821106Y-23116222D01*
X78882266Y-22887967D01*
X78902862Y-22652559D01*
X78882266Y-22417151D01*
X78823787Y-22198903D01*
X78821108Y-22188903D01*
X78821107Y-22188902D01*
X78821106Y-22188896D01*
X78721238Y-21974730D01*
X78691237Y-21931883D01*
X78585697Y-21781156D01*
X78418605Y-21614065D01*
X78418598Y-21614060D01*
X78409993Y-21608035D01*
X78379724Y-21586840D01*
X78225037Y-21478526D01*
X78225033Y-21478524D01*
X78069582Y-21406036D01*
X78010866Y-21378656D01*
X78010862Y-21378655D01*
X78010858Y-21378653D01*
X77782616Y-21317497D01*
X77782606Y-21317495D01*
X77547204Y-21296900D01*
X77547202Y-21296900D01*
X77311799Y-21317495D01*
X77311789Y-21317497D01*
X77083547Y-21378653D01*
X77083538Y-21378657D01*
X76869374Y-21478523D01*
X76869372Y-21478524D01*
X76675800Y-21614064D01*
X76508708Y-21781156D01*
X76373168Y-21974728D01*
X76373167Y-21974730D01*
X76273301Y-22188894D01*
X76273297Y-22188903D01*
X76212141Y-22417145D01*
X76212139Y-22417155D01*
X76191544Y-22652558D01*
X76191544Y-22652559D01*
X76212139Y-22887962D01*
X76212141Y-22887972D01*
X76273297Y-23116214D01*
X76273299Y-23116218D01*
X76273300Y-23116222D01*
X76325109Y-23227326D01*
X76373168Y-23330389D01*
X76373170Y-23330393D01*
X76446763Y-23435494D01*
X76508708Y-23523960D01*
X76675802Y-23691054D01*
X76708838Y-23714186D01*
X76869368Y-23826591D01*
X76869370Y-23826592D01*
X76869373Y-23826594D01*
X77083540Y-23926462D01*
X77311795Y-23987622D01*
X77500121Y-24004098D01*
X77547202Y-24008218D01*
X77547203Y-24008218D01*
X77547204Y-24008218D01*
X77586437Y-24004785D01*
X77782611Y-23987622D01*
X78010866Y-23926462D01*
X78098474Y-23885608D01*
X78167550Y-23875116D01*
X78231334Y-23903634D01*
X78238560Y-23910309D01*
X78778629Y-24450378D01*
X78812114Y-24511701D01*
X78807130Y-24581393D01*
X78765258Y-24637326D01*
X78699794Y-24661743D01*
X78690948Y-24662059D01*
X74930247Y-24662059D01*
X74863208Y-24642374D01*
X74848023Y-24630877D01*
X74839443Y-24623276D01*
X74839441Y-24623275D01*
X74839440Y-24623274D01*
X74839436Y-24623271D01*
X74699568Y-24549862D01*
X74546189Y-24512059D01*
X74546188Y-24512059D01*
X74388218Y-24512059D01*
X74388217Y-24512059D01*
X74234837Y-24549862D01*
X74094965Y-24623274D01*
X73976719Y-24728030D01*
X73886984Y-24858034D01*
X73886983Y-24858035D01*
X73830965Y-25005740D01*
X73811925Y-25162558D01*
X73811925Y-25162559D01*
X73830965Y-25319377D01*
X73872593Y-25429139D01*
X73886983Y-25467082D01*
X73976720Y-25597089D01*
X74094963Y-25701842D01*
X74094965Y-25701843D01*
X74234837Y-25775255D01*
X74388217Y-25813059D01*
X74388218Y-25813059D01*
X74546188Y-25813059D01*
X74699568Y-25775255D01*
X74839436Y-25701846D01*
X74839437Y-25701844D01*
X74839443Y-25701842D01*
X74848021Y-25694242D01*
X74911253Y-25664522D01*
X74930247Y-25663059D01*
X83628527Y-25663059D01*
X83695566Y-25682744D01*
X83716208Y-25699378D01*
X86340384Y-28323554D01*
X86373869Y-28384877D01*
X86376703Y-28411235D01*
X86376703Y-32065417D01*
X86373870Y-32091765D01*
X86372844Y-32096486D01*
X86372844Y-32096488D01*
X86372844Y-32096489D01*
X86376387Y-32146020D01*
X86376703Y-32154867D01*
X86376703Y-32168356D01*
X86378623Y-32181713D01*
X86379568Y-32190505D01*
X86383112Y-32240045D01*
X86384796Y-32244559D01*
X86391351Y-32270241D01*
X86392037Y-32275014D01*
X86412660Y-32320171D01*
X86416048Y-32328349D01*
X86433406Y-32374888D01*
X86436299Y-32378753D01*
X86449820Y-32401542D01*
X86451822Y-32405926D01*
X86451825Y-32405931D01*
X86451826Y-32405932D01*
X86484347Y-32443463D01*
X86489891Y-32450344D01*
X86497982Y-32461152D01*
X86507536Y-32470706D01*
X86513556Y-32477173D01*
X86546075Y-32514702D01*
X86546077Y-32514704D01*
X86550131Y-32517309D01*
X86570774Y-32533944D01*
X87588927Y-33552097D01*
X87622412Y-33613420D01*
X87624342Y-33624830D01*
X87630965Y-33679375D01*
X87630966Y-33679380D01*
X87686983Y-33827082D01*
X87776720Y-33957089D01*
X87894963Y-34061842D01*
X87894965Y-34061843D01*
X88034837Y-34135255D01*
X88188217Y-34173059D01*
X88188218Y-34173059D01*
X88346188Y-34173059D01*
X88499568Y-34135255D01*
X88639443Y-34061842D01*
X88757686Y-33957089D01*
X88847423Y-33827082D01*
X88903440Y-33679377D01*
X88922481Y-33522559D01*
X88903440Y-33365741D01*
X88896733Y-33348057D01*
X88849173Y-33222651D01*
X88847423Y-33218036D01*
X88757686Y-33088029D01*
X88639443Y-32983276D01*
X88639441Y-32983275D01*
X88639440Y-32983274D01*
X88499569Y-32909863D01*
X88350990Y-32873242D01*
X88292984Y-32840526D01*
X87414022Y-31961564D01*
X87380537Y-31900241D01*
X87377703Y-31873883D01*
X87377703Y-28219702D01*
X87380537Y-28193344D01*
X87381562Y-28188632D01*
X87378019Y-28139096D01*
X87377703Y-28130249D01*
X87377703Y-28116760D01*
X87375782Y-28103402D01*
X87374836Y-28094604D01*
X87371294Y-28045076D01*
X87369610Y-28040561D01*
X87363053Y-28014871D01*
X87362368Y-28010102D01*
X87341733Y-27964919D01*
X87338358Y-27956771D01*
X87320999Y-27910228D01*
X87318108Y-27906366D01*
X87304582Y-27883569D01*
X87302580Y-27879186D01*
X87270063Y-27841659D01*
X87264509Y-27834766D01*
X87256431Y-27823975D01*
X87256429Y-27823972D01*
X87256424Y-27823966D01*
X87246880Y-27814422D01*
X87240861Y-27807959D01*
X87208331Y-27770416D01*
X87208328Y-27770413D01*
X87204269Y-27767805D01*
X87183631Y-27751173D01*
X84467198Y-25034740D01*
X84433713Y-24973417D01*
X84438697Y-24903725D01*
X84480569Y-24847792D01*
X84546033Y-24823375D01*
X84554879Y-24823059D01*
X85419948Y-24823059D01*
X85486987Y-24842744D01*
X85507629Y-24859378D01*
X94362452Y-33714201D01*
X94395937Y-33775524D01*
X94390953Y-33845216D01*
X94349081Y-33901149D01*
X94283617Y-33925566D01*
X94242679Y-33921657D01*
X94174669Y-33903434D01*
X94042885Y-33903434D01*
X93915589Y-33937542D01*
X93801463Y-34003434D01*
X93801460Y-34003436D01*
X93708279Y-34096617D01*
X93708277Y-34096620D01*
X93642385Y-34210746D01*
X93608277Y-34338042D01*
X93608277Y-41679475D01*
X93607522Y-41693141D01*
X93605958Y-41707246D01*
X93605627Y-41709955D01*
X93594586Y-41792829D01*
X93588925Y-41816798D01*
X93578337Y-41847570D01*
X93575408Y-41855248D01*
X93552442Y-41909922D01*
X93543676Y-41926965D01*
X93524597Y-41957918D01*
X93516777Y-41969163D01*
X93482079Y-42013604D01*
X93473068Y-42023917D01*
X93447666Y-42049936D01*
X93433258Y-42062573D01*
X93385791Y-42098113D01*
X93379053Y-42102818D01*
X93351810Y-42120527D01*
X93329881Y-42131852D01*
X93250111Y-42163439D01*
X93247607Y-42164400D01*
X93236822Y-42168403D01*
X93223691Y-42172464D01*
X93188494Y-42181245D01*
X93187992Y-42181391D01*
X92865006Y-42262118D01*
X92864960Y-42262131D01*
X92144580Y-42478566D01*
X91435173Y-42728608D01*
X91435136Y-42728621D01*
X90738275Y-43011713D01*
X90394931Y-43170375D01*
X90055434Y-43327259D01*
X90055428Y-43327261D01*
X90055413Y-43327269D01*
X89388211Y-43674517D01*
X89388172Y-43674539D01*
X88737995Y-44052771D01*
X88737978Y-44052781D01*
X88106286Y-44461147D01*
X87494458Y-44898758D01*
X87494456Y-44898760D01*
X86903907Y-45364600D01*
X86903900Y-45364606D01*
X86903889Y-45364615D01*
X86645920Y-45588550D01*
X86335854Y-45857711D01*
X85791604Y-46376960D01*
X85272354Y-46921210D01*
X85190369Y-47015655D01*
X84779258Y-47489245D01*
X84779252Y-47489251D01*
X84779249Y-47489256D01*
X84779243Y-47489263D01*
X84313402Y-48079812D01*
X84313400Y-48079814D01*
X83875789Y-48691642D01*
X83467423Y-49323334D01*
X83467413Y-49323351D01*
X83089181Y-49973528D01*
X83089159Y-49973567D01*
X82741911Y-50640769D01*
X82741911Y-50640770D01*
X82741901Y-50640790D01*
X82700673Y-50730007D01*
X82426355Y-51323631D01*
X82143253Y-52020517D01*
X81893208Y-52729935D01*
X81676772Y-53450316D01*
X81676759Y-53450362D01*
X81587227Y-53808572D01*
X81583173Y-53821668D01*
X81578224Y-53834996D01*
X81577246Y-53837542D01*
X81546445Y-53915213D01*
X81535142Y-53937087D01*
X81517410Y-53964364D01*
X81512704Y-53971103D01*
X81477163Y-54018568D01*
X81464526Y-54032974D01*
X81438510Y-54058372D01*
X81428199Y-54067382D01*
X81383761Y-54102077D01*
X81372517Y-54109896D01*
X81341573Y-54128970D01*
X81324532Y-54137734D01*
X81269857Y-54160702D01*
X81262181Y-54163632D01*
X81231372Y-54174234D01*
X81207463Y-54179887D01*
X81126795Y-54190677D01*
X81124028Y-54191016D01*
X81110050Y-54192566D01*
X81107250Y-54192877D01*
X81093581Y-54193633D01*
X73870003Y-54193633D01*
X73869771Y-54193565D01*
X73752686Y-54193569D01*
X73752685Y-54193569D01*
X73625384Y-54227684D01*
X73511255Y-54293582D01*
X73511250Y-54293585D01*
X73418069Y-54386771D01*
X73418064Y-54386778D01*
X73352176Y-54500903D01*
X73352175Y-54500905D01*
X73351478Y-54503508D01*
X73350290Y-54505455D01*
X73349066Y-54508413D01*
X73348604Y-54508221D01*
X73315113Y-54563168D01*
X73252267Y-54593698D01*
X73182891Y-54585404D01*
X73129013Y-54540919D01*
X73107738Y-54474367D01*
X73107703Y-54471415D01*
X73107703Y-53299813D01*
X73127388Y-53232774D01*
X73144022Y-53212132D01*
X75112686Y-51243468D01*
X75135253Y-51220901D01*
X75145312Y-51201156D01*
X75155474Y-51184573D01*
X75168499Y-51166649D01*
X75175344Y-51145581D01*
X75182789Y-51127604D01*
X75192849Y-51107863D01*
X75196315Y-51085974D01*
X75200855Y-51067060D01*
X75207702Y-51045992D01*
X75207702Y-51019213D01*
X75207703Y-51019188D01*
X75207703Y-43762017D01*
X77535909Y-43762017D01*
X77551051Y-43986593D01*
X77551051Y-43986598D01*
X77606050Y-44204864D01*
X77606051Y-44204867D01*
X77699139Y-44409808D01*
X77699145Y-44409818D01*
X77824046Y-44590102D01*
X77827328Y-44594840D01*
X80775046Y-47542558D01*
X80904557Y-47650682D01*
X81100331Y-47761767D01*
X81191006Y-47793496D01*
X81312789Y-47836111D01*
X81312792Y-47836112D01*
X81354630Y-47842738D01*
X81535116Y-47871324D01*
X81760154Y-47866273D01*
X81980672Y-47821122D01*
X82189585Y-47737321D01*
X82380178Y-47617563D01*
X82520576Y-47489234D01*
X82546322Y-47465701D01*
X82546327Y-47465695D01*
X82586785Y-47412559D01*
X82682684Y-47286609D01*
X82784874Y-47086049D01*
X82806013Y-47015655D01*
X82849611Y-46870466D01*
X82849611Y-46870463D01*
X82850376Y-46863672D01*
X82874813Y-46646786D01*
X82874073Y-46635814D01*
X82859672Y-46422203D01*
X82859672Y-46422200D01*
X82804673Y-46203934D01*
X82804672Y-46203931D01*
X82771554Y-46131020D01*
X82711583Y-45998988D01*
X82583396Y-45813960D01*
X79635677Y-42866241D01*
X79506167Y-42758118D01*
X79506161Y-42758114D01*
X79310393Y-42647033D01*
X79097934Y-42572688D01*
X79097931Y-42572687D01*
X78875608Y-42537475D01*
X78650569Y-42542526D01*
X78430059Y-42587676D01*
X78430046Y-42587680D01*
X78221139Y-42671478D01*
X78030543Y-42791237D01*
X77864402Y-42943097D01*
X77728037Y-43122195D01*
X77625849Y-43322749D01*
X77561111Y-43538336D01*
X77535910Y-43762006D01*
X77535909Y-43762017D01*
X75207703Y-43762017D01*
X75207703Y-41769128D01*
X75207703Y-41769126D01*
X75200856Y-41748056D01*
X75196314Y-41729136D01*
X75192849Y-41707255D01*
X75182787Y-41687508D01*
X75175343Y-41669535D01*
X75168498Y-41648468D01*
X75155477Y-41630546D01*
X75145311Y-41613957D01*
X75135253Y-41594217D01*
X75117028Y-41575992D01*
X75117010Y-41575972D01*
X74969602Y-41428564D01*
X79869362Y-41428564D01*
X79884504Y-41653140D01*
X79884504Y-41653145D01*
X79939503Y-41871411D01*
X79939504Y-41871414D01*
X80032592Y-42076355D01*
X80032598Y-42076365D01*
X80099175Y-42172464D01*
X80160781Y-42261387D01*
X83108499Y-45209105D01*
X83238010Y-45317229D01*
X83433784Y-45428314D01*
X83565350Y-45474352D01*
X83646242Y-45502658D01*
X83646245Y-45502659D01*
X83688083Y-45509285D01*
X83868569Y-45537871D01*
X84093607Y-45532820D01*
X84314125Y-45487669D01*
X84523038Y-45403868D01*
X84713631Y-45284110D01*
X84849016Y-45160363D01*
X84879775Y-45132248D01*
X84879780Y-45132242D01*
X84906175Y-45097576D01*
X85016137Y-44953156D01*
X85118327Y-44752596D01*
X85123056Y-44736850D01*
X85183064Y-44537013D01*
X85183064Y-44537010D01*
X85188933Y-44484918D01*
X85208266Y-44313333D01*
X85207894Y-44307818D01*
X85193125Y-44088750D01*
X85193125Y-44088747D01*
X85138126Y-43870481D01*
X85138125Y-43870478D01*
X85049125Y-43674539D01*
X85045036Y-43665535D01*
X84916849Y-43480507D01*
X81969130Y-40532788D01*
X81839620Y-40424665D01*
X81839614Y-40424661D01*
X81643846Y-40313580D01*
X81431387Y-40239235D01*
X81431384Y-40239234D01*
X81209061Y-40204022D01*
X80984022Y-40209073D01*
X80763512Y-40254223D01*
X80763499Y-40254227D01*
X80554592Y-40338025D01*
X80363996Y-40457784D01*
X80197855Y-40609644D01*
X80061490Y-40788742D01*
X79959302Y-40989296D01*
X79894564Y-41204883D01*
X79869363Y-41428553D01*
X79869362Y-41428564D01*
X74969602Y-41428564D01*
X73295549Y-39754512D01*
X73262064Y-39693189D01*
X73260134Y-39651886D01*
X73262481Y-39632559D01*
X73243440Y-39475741D01*
X73187423Y-39328036D01*
X73097686Y-39198029D01*
X72979443Y-39093276D01*
X72973432Y-39090121D01*
X72914063Y-39058961D01*
X72863851Y-39010376D01*
X72847877Y-38942357D01*
X72868447Y-38884304D01*
X82130975Y-38884304D01*
X82141246Y-39132676D01*
X82192261Y-39375976D01*
X82192264Y-39375986D01*
X82282623Y-39607553D01*
X82409876Y-39821112D01*
X82530297Y-39963292D01*
X85446469Y-42879464D01*
X85588647Y-42999883D01*
X85588659Y-42999892D01*
X85802205Y-43127136D01*
X86033778Y-43217497D01*
X86033784Y-43217499D01*
X86277080Y-43268514D01*
X86277089Y-43268515D01*
X86525455Y-43278786D01*
X86772136Y-43248038D01*
X86772140Y-43248037D01*
X87010387Y-43177108D01*
X87233713Y-43067930D01*
X87233716Y-43067929D01*
X87332308Y-42997535D01*
X86345655Y-42010882D01*
X86392298Y-42000736D01*
X86518490Y-41931830D01*
X86620156Y-41830164D01*
X86689062Y-41703972D01*
X86699208Y-41657330D01*
X87685860Y-42643982D01*
X87756255Y-42545389D01*
X87756256Y-42545387D01*
X87865434Y-42322061D01*
X87936363Y-42083814D01*
X87936364Y-42083810D01*
X87967112Y-41837129D01*
X87956841Y-41588763D01*
X87956840Y-41588754D01*
X87905825Y-41345458D01*
X87905823Y-41345452D01*
X87815462Y-41113880D01*
X87815462Y-41113879D01*
X87688218Y-40900333D01*
X87688209Y-40900321D01*
X87567790Y-40758143D01*
X87567785Y-40758138D01*
X86286480Y-39476834D01*
X86286479Y-39476834D01*
X85579373Y-40183940D01*
X85225820Y-39830387D01*
X85932927Y-39123281D01*
X85932927Y-39123280D01*
X84651618Y-37841971D01*
X84509438Y-37721550D01*
X84295879Y-37594297D01*
X84064312Y-37503938D01*
X84064302Y-37503935D01*
X83821002Y-37452920D01*
X83572632Y-37442649D01*
X83325951Y-37473397D01*
X83325947Y-37473398D01*
X83087700Y-37544327D01*
X82864374Y-37653505D01*
X82864371Y-37653506D01*
X82765779Y-37723899D01*
X83752432Y-38710552D01*
X83705789Y-38720699D01*
X83579598Y-38789605D01*
X83477931Y-38891272D01*
X83409025Y-39017463D01*
X83398878Y-39064105D01*
X82412226Y-38077452D01*
X82341833Y-38176046D01*
X82341827Y-38176056D01*
X82232653Y-38399374D01*
X82161724Y-38637621D01*
X82161723Y-38637625D01*
X82130975Y-38884304D01*
X72868447Y-38884304D01*
X72871213Y-38876499D01*
X72883999Y-38861493D01*
X72946117Y-38799375D01*
X73007440Y-38765893D01*
X73033797Y-38763059D01*
X75070634Y-38763059D01*
X75070636Y-38763059D01*
X75091704Y-38756213D01*
X75110620Y-38751671D01*
X75132507Y-38748205D01*
X75152247Y-38738145D01*
X75170214Y-38730703D01*
X75191293Y-38723855D01*
X75209229Y-38710822D01*
X75225791Y-38700673D01*
X75245545Y-38690609D01*
X75261037Y-38675116D01*
X75261044Y-38675111D01*
X83276776Y-30659378D01*
X83338099Y-30625893D01*
X83364457Y-30623059D01*
X83476188Y-30623059D01*
X83629568Y-30585255D01*
X83645666Y-30576806D01*
X83769443Y-30511842D01*
X83887686Y-30407089D01*
X83969338Y-30288794D01*
X84023620Y-30244804D01*
X84093069Y-30237144D01*
X84155634Y-30268247D01*
X84187329Y-30315261D01*
X84206982Y-30367080D01*
X84206984Y-30367083D01*
X84296720Y-30497090D01*
X84344929Y-30539798D01*
X84382056Y-30598987D01*
X84386703Y-30632614D01*
X84386703Y-31175303D01*
X84367018Y-31242342D01*
X84350384Y-31262984D01*
X81777628Y-33835740D01*
X81716305Y-33869225D01*
X81689947Y-33872059D01*
X81578217Y-33872059D01*
X81424837Y-33909862D01*
X81284965Y-33983274D01*
X81166719Y-34088030D01*
X81076984Y-34218034D01*
X81076983Y-34218035D01*
X81020965Y-34365740D01*
X81001925Y-34522558D01*
X81001925Y-34522559D01*
X81020965Y-34679377D01*
X81076983Y-34827082D01*
X81166720Y-34957089D01*
X81284963Y-35061842D01*
X81284965Y-35061843D01*
X81424837Y-35135255D01*
X81578217Y-35173059D01*
X81578218Y-35173059D01*
X81736188Y-35173059D01*
X81889568Y-35135255D01*
X82029443Y-35061842D01*
X82147686Y-34957089D01*
X82237423Y-34827082D01*
X82293440Y-34679377D01*
X82312481Y-34522559D01*
X82310134Y-34503230D01*
X82321594Y-34434308D01*
X82345546Y-34400607D01*
X85092686Y-31653468D01*
X85115253Y-31630901D01*
X85125312Y-31611156D01*
X85135474Y-31594573D01*
X85148499Y-31576649D01*
X85155344Y-31555581D01*
X85162789Y-31537604D01*
X85172849Y-31517863D01*
X85176315Y-31495974D01*
X85180855Y-31477060D01*
X85187702Y-31455992D01*
X85187702Y-31429213D01*
X85187703Y-31429188D01*
X85187703Y-30632614D01*
X85207388Y-30565575D01*
X85229477Y-30539798D01*
X85277685Y-30497090D01*
X85277686Y-30497089D01*
X85367423Y-30367082D01*
X85423440Y-30219377D01*
X85442481Y-30062559D01*
X85423440Y-29905741D01*
X85421165Y-29899743D01*
X85390355Y-29818504D01*
X85367423Y-29758036D01*
X85277686Y-29628029D01*
X85159443Y-29523276D01*
X85159441Y-29523275D01*
X85159440Y-29523274D01*
X85019568Y-29449862D01*
X84866189Y-29412059D01*
X84866188Y-29412059D01*
X84708218Y-29412059D01*
X84708217Y-29412059D01*
X84554837Y-29449862D01*
X84414965Y-29523274D01*
X84296719Y-29628030D01*
X84215067Y-29746323D01*
X84160784Y-29790313D01*
X84091335Y-29797973D01*
X84028770Y-29766869D01*
X83997075Y-29719855D01*
X83996560Y-29718497D01*
X83977423Y-29668036D01*
X83887686Y-29538029D01*
X83769443Y-29433276D01*
X83769441Y-29433275D01*
X83769440Y-29433274D01*
X83629568Y-29359862D01*
X83476189Y-29322059D01*
X83476188Y-29322059D01*
X83318218Y-29322059D01*
X83318217Y-29322059D01*
X83164837Y-29359862D01*
X83024965Y-29433274D01*
X82906719Y-29538030D01*
X82816984Y-29668034D01*
X82816983Y-29668035D01*
X82760965Y-29815740D01*
X82741925Y-29972558D01*
X82741925Y-29972561D01*
X82744271Y-29991887D01*
X82732809Y-30060810D01*
X82708856Y-30094511D01*
X74877629Y-37925740D01*
X74816306Y-37959225D01*
X74789948Y-37962059D01*
X72879975Y-37962059D01*
X72753109Y-37962059D01*
X72753106Y-37962059D01*
X72753104Y-37962060D01*
X72732032Y-37968906D01*
X72713124Y-37973445D01*
X72691240Y-37976912D01*
X72691236Y-37976913D01*
X72671493Y-37986972D01*
X72653529Y-37994413D01*
X72632453Y-38001262D01*
X72614527Y-38014286D01*
X72597942Y-38024449D01*
X72578201Y-38034507D01*
X72566918Y-38045790D01*
X72555636Y-38057072D01*
X72555635Y-38057072D01*
X65991716Y-44620991D01*
X65991716Y-44620992D01*
X65980434Y-44632274D01*
X65969151Y-44643557D01*
X65969151Y-44643558D01*
X65959094Y-44663295D01*
X65948934Y-44679875D01*
X65935909Y-44697803D01*
X65935906Y-44697808D01*
X65929057Y-44718886D01*
X65921616Y-44736850D01*
X65911557Y-44756593D01*
X65908090Y-44778480D01*
X65903550Y-44797389D01*
X65896703Y-44818465D01*
X65896703Y-45512503D01*
X65877018Y-45579542D01*
X65854930Y-45605318D01*
X65806724Y-45648024D01*
X65806718Y-45648031D01*
X65716984Y-45778034D01*
X65716983Y-45778035D01*
X65660965Y-45925740D01*
X65641925Y-46082558D01*
X65641925Y-46082559D01*
X65660965Y-46239377D01*
X65713144Y-46376959D01*
X65716983Y-46387082D01*
X65806720Y-46517089D01*
X65924963Y-46621842D01*
X65924965Y-46621843D01*
X66064837Y-46695255D01*
X66218217Y-46733059D01*
X66218218Y-46733059D01*
X66376188Y-46733059D01*
X66529568Y-46695255D01*
X66616252Y-46649759D01*
X66669443Y-46621842D01*
X66787686Y-46517089D01*
X66877423Y-46387082D01*
X66933440Y-46239377D01*
X66952481Y-46082559D01*
X66951411Y-46073742D01*
X66933440Y-45925740D01*
X66912195Y-45869723D01*
X66877423Y-45778036D01*
X66787686Y-45648029D01*
X66787683Y-45648026D01*
X66787681Y-45648024D01*
X66739476Y-45605318D01*
X66702349Y-45546129D01*
X66697703Y-45512503D01*
X66697703Y-45099152D01*
X66717388Y-45032113D01*
X66734017Y-45011476D01*
X71832591Y-39912901D01*
X71893912Y-39879418D01*
X71963604Y-39884402D01*
X72019537Y-39926274D01*
X72022542Y-39931033D01*
X72022722Y-39930909D01*
X72026983Y-39937082D01*
X72116720Y-40067089D01*
X72234963Y-40171842D01*
X72234965Y-40171843D01*
X72374837Y-40245255D01*
X72528217Y-40283059D01*
X72639948Y-40283059D01*
X72706987Y-40302744D01*
X72727629Y-40319378D01*
X74370384Y-41962133D01*
X74403869Y-42023456D01*
X74406703Y-42049814D01*
X74406703Y-44811375D01*
X74387018Y-44878414D01*
X74334214Y-44924169D01*
X74265056Y-44934113D01*
X74205913Y-44907103D01*
X74205615Y-44907536D01*
X74203180Y-44905855D01*
X74201500Y-44905088D01*
X74200481Y-44904195D01*
X74199443Y-44903276D01*
X74199441Y-44903274D01*
X74059568Y-44829862D01*
X73906189Y-44792059D01*
X73906188Y-44792059D01*
X73748218Y-44792059D01*
X73748217Y-44792059D01*
X73594837Y-44829862D01*
X73454965Y-44903274D01*
X73336719Y-45008030D01*
X73246984Y-45138034D01*
X73246983Y-45138035D01*
X73190966Y-45285740D01*
X73171925Y-45442559D01*
X73171925Y-45442560D01*
X73178099Y-45493413D01*
X73166638Y-45562336D01*
X73142684Y-45596039D01*
X70927984Y-47810740D01*
X70866661Y-47844225D01*
X70840303Y-47847059D01*
X66813511Y-47847059D01*
X66746472Y-47827374D01*
X66711460Y-47793497D01*
X66707686Y-47788029D01*
X66589443Y-47683276D01*
X66589441Y-47683275D01*
X66589440Y-47683274D01*
X66449568Y-47609862D01*
X66296189Y-47572059D01*
X66296188Y-47572059D01*
X66138218Y-47572059D01*
X66138217Y-47572059D01*
X65984837Y-47609862D01*
X65844965Y-47683274D01*
X65726719Y-47788030D01*
X65636984Y-47918034D01*
X65636983Y-47918035D01*
X65580965Y-48065740D01*
X65561925Y-48222558D01*
X65561925Y-48222559D01*
X65137703Y-48222559D01*
X65137703Y-37132559D01*
X65521925Y-37132559D01*
X65540965Y-37289377D01*
X65579421Y-37390775D01*
X65596983Y-37437082D01*
X65686720Y-37567089D01*
X65804963Y-37671842D01*
X65804965Y-37671843D01*
X65944837Y-37745255D01*
X66098217Y-37783059D01*
X66098218Y-37783059D01*
X66256188Y-37783059D01*
X66409568Y-37745255D01*
X66450258Y-37723899D01*
X66549443Y-37671842D01*
X66667686Y-37567089D01*
X66671460Y-37561620D01*
X66725740Y-37517630D01*
X66773511Y-37508059D01*
X66865399Y-37508059D01*
X66890844Y-37510698D01*
X66893927Y-37511344D01*
X66901471Y-37512926D01*
X66932879Y-37509010D01*
X66948217Y-37508059D01*
X66948315Y-37508059D01*
X66948317Y-37508059D01*
X66968846Y-37504632D01*
X66973876Y-37503900D01*
X67025829Y-37497425D01*
X67025831Y-37497423D01*
X67033344Y-37495187D01*
X67040809Y-37492625D01*
X67040809Y-37492624D01*
X67040813Y-37492624D01*
X67086839Y-37467716D01*
X67091396Y-37465371D01*
X67116864Y-37452920D01*
X67138414Y-37442385D01*
X67138416Y-37442382D01*
X67144797Y-37437827D01*
X67151023Y-37432980D01*
X67151029Y-37432978D01*
X67186496Y-37394449D01*
X67189998Y-37390799D01*
X75311421Y-29269378D01*
X75372744Y-29235893D01*
X75399102Y-29233059D01*
X75546188Y-29233059D01*
X75699568Y-29195255D01*
X75839443Y-29121842D01*
X75957686Y-29017089D01*
X76047423Y-28887082D01*
X76103440Y-28739377D01*
X76122481Y-28582559D01*
X76103440Y-28425741D01*
X76047423Y-28278036D01*
X75957686Y-28148029D01*
X75839443Y-28043276D01*
X75839441Y-28043275D01*
X75839440Y-28043274D01*
X75699568Y-27969862D01*
X75546189Y-27932059D01*
X75546188Y-27932059D01*
X75388218Y-27932059D01*
X75388217Y-27932059D01*
X75234837Y-27969862D01*
X75094965Y-28043274D01*
X74976719Y-28148030D01*
X74886984Y-28278034D01*
X74886983Y-28278035D01*
X74830966Y-28425740D01*
X74811925Y-28582559D01*
X74811925Y-28582560D01*
X74818099Y-28633413D01*
X74806638Y-28702336D01*
X74782684Y-28736039D01*
X66831355Y-36687368D01*
X66770032Y-36720853D01*
X66700340Y-36715869D01*
X66661451Y-36692505D01*
X66549443Y-36593276D01*
X66549440Y-36593273D01*
X66409568Y-36519862D01*
X66256189Y-36482059D01*
X66256188Y-36482059D01*
X66098218Y-36482059D01*
X66098217Y-36482059D01*
X65944837Y-36519862D01*
X65804965Y-36593274D01*
X65686719Y-36698030D01*
X65596984Y-36828034D01*
X65596983Y-36828035D01*
X65540965Y-36975740D01*
X65521925Y-37132558D01*
X65521925Y-37132559D01*
X65137703Y-37132559D01*
X65137703Y-25496639D01*
X65137702Y-25496624D01*
X65137702Y-25469127D01*
X65137702Y-25469126D01*
X65130856Y-25448060D01*
X65126314Y-25429139D01*
X65122849Y-25407255D01*
X65112789Y-25387511D01*
X65105343Y-25369533D01*
X65098500Y-25348472D01*
X65098499Y-25348471D01*
X65098499Y-25348469D01*
X65085472Y-25330540D01*
X65075307Y-25313951D01*
X65065253Y-25294217D01*
X64975545Y-25204509D01*
X63837554Y-24066518D01*
X65382964Y-24066518D01*
X65392920Y-24250150D01*
X65392922Y-24250157D01*
X65442119Y-24427353D01*
X65442122Y-24427359D01*
X65528265Y-24589842D01*
X65601707Y-24676304D01*
X65647324Y-24730008D01*
X65793732Y-24841304D01*
X65960642Y-24918525D01*
X65960643Y-24918525D01*
X65960645Y-24918526D01*
X66015134Y-24930519D01*
X66140249Y-24958059D01*
X66140252Y-24958059D01*
X66278042Y-24958059D01*
X66278048Y-24958059D01*
X66415032Y-24943161D01*
X66589313Y-24884439D01*
X66746895Y-24789625D01*
X66880411Y-24663152D01*
X66983618Y-24510934D01*
X67051689Y-24340088D01*
X67081442Y-24158603D01*
X67071485Y-23974966D01*
X67046513Y-23885024D01*
X67022286Y-23797764D01*
X67022283Y-23797758D01*
X66936140Y-23635275D01*
X66817082Y-23495110D01*
X66670674Y-23383814D01*
X66503764Y-23306593D01*
X66503760Y-23306591D01*
X66324157Y-23267059D01*
X66186358Y-23267059D01*
X66186356Y-23267059D01*
X66049373Y-23281957D01*
X65875092Y-23340679D01*
X65717509Y-23435494D01*
X65717508Y-23435495D01*
X65583997Y-23561963D01*
X65480786Y-23714186D01*
X65412718Y-23885024D01*
X65412717Y-23885028D01*
X65405924Y-23926464D01*
X65384135Y-24059377D01*
X65382964Y-24066518D01*
X63837554Y-24066518D01*
X59865549Y-20094512D01*
X59832064Y-20033189D01*
X59830134Y-19991886D01*
X59832481Y-19972559D01*
X59813440Y-19815741D01*
X59803426Y-19789337D01*
X59792195Y-19759723D01*
X59757423Y-19668036D01*
X59667686Y-19538029D01*
X59549443Y-19433276D01*
X59549441Y-19433275D01*
X59549440Y-19433274D01*
X59409568Y-19359862D01*
X59256189Y-19322059D01*
X59256188Y-19322059D01*
X59098218Y-19322059D01*
X59098217Y-19322059D01*
X58944837Y-19359862D01*
X58804965Y-19433274D01*
X58686719Y-19538030D01*
X58596984Y-19668034D01*
X58596983Y-19668035D01*
X58540965Y-19815740D01*
X58521925Y-19972558D01*
X58521925Y-19972559D01*
X58534134Y-20073113D01*
X58522673Y-20142036D01*
X58475769Y-20193822D01*
X58411038Y-20212059D01*
X58258217Y-20212059D01*
X58104837Y-20249862D01*
X57964965Y-20323274D01*
X57846719Y-20428030D01*
X57756984Y-20558034D01*
X57756983Y-20558035D01*
X57700965Y-20705740D01*
X57681925Y-20862558D01*
X57681925Y-20862559D01*
X56520151Y-20862559D01*
X56526938Y-20724375D01*
X56527971Y-20713395D01*
X56553467Y-20530619D01*
X56553564Y-20529948D01*
X56580713Y-20346921D01*
X56582654Y-20336785D01*
X56625382Y-20155116D01*
X56625704Y-20153788D01*
X56670160Y-19976312D01*
X56672845Y-19967125D01*
X56732385Y-19789481D01*
X56733162Y-19787240D01*
X56794459Y-19615924D01*
X56797741Y-19607703D01*
X56873631Y-19435831D01*
X56874864Y-19433134D01*
X56952455Y-19269081D01*
X56956203Y-19261792D01*
X57047704Y-19097517D01*
X57049581Y-19094269D01*
X57142771Y-18938790D01*
X57146776Y-18932546D01*
X57253086Y-18777354D01*
X57255787Y-18773565D01*
X57255883Y-18773436D01*
X57363622Y-18628165D01*
X57367764Y-18622890D01*
X57488043Y-18478044D01*
X57491424Y-18474146D01*
X57613054Y-18339948D01*
X57617153Y-18335644D01*
X57750282Y-18202515D01*
X57754608Y-18198396D01*
X57888737Y-18076829D01*
X57892705Y-18073385D01*
X58037526Y-17953127D01*
X58042815Y-17948976D01*
X58188242Y-17841119D01*
X58191961Y-17838468D01*
X58347185Y-17732137D01*
X58353457Y-17728115D01*
X58508885Y-17634955D01*
X58512207Y-17633036D01*
X58676426Y-17541566D01*
X58683694Y-17537828D01*
X58847777Y-17460223D01*
X58850648Y-17458912D01*
X58914784Y-17430593D01*
X59022317Y-17383112D01*
X59030588Y-17379811D01*
X59201990Y-17318483D01*
X59204046Y-17317770D01*
X59381761Y-17258207D01*
X59390952Y-17255520D01*
X59568478Y-17211052D01*
X59569788Y-17210734D01*
X59751418Y-17168015D01*
X59761551Y-17166075D01*
X59944766Y-17138898D01*
X59945119Y-17138847D01*
X60128037Y-17113331D01*
X60139040Y-17112295D01*
X60334293Y-17102703D01*
X60506009Y-17094764D01*
X60511733Y-17094633D01*
X133705906Y-17094633D01*
X133711630Y-17094764D01*
G37*
%TD.AperFunction*%
%TD*%
M02*
