%TF.GenerationSoftware,KiCad,Pcbnew,7.0.10*%
%TF.CreationDate,2024-07-31T11:10:04+01:00*%
%TF.ProjectId,algoritmi_foc,616c676f-7269-4746-9d69-5f666f632e6b,Andr_s Motta*%
%TF.SameCoordinates,Original*%
%TF.FileFunction,Profile,NP*%
%FSLAX46Y46*%
G04 Gerber Fmt 4.6, Leading zero omitted, Abs format (unit mm)*
G04 Created by KiCad (PCBNEW 7.0.10) date 2024-07-31 11:10:04*
%MOMM*%
%LPD*%
G01*
G04 APERTURE LIST*
%TA.AperFunction,Profile*%
%ADD10C,0.200000*%
%TD*%
G04 APERTURE END LIST*
D10*
X112631489Y-53815349D02*
G75*
G03*
X113116586Y-54194134I485111J121249D01*
G01*
X99608775Y-80984332D02*
G75*
G03*
X100608775Y-80984332I500000J0D01*
G01*
X99608776Y-34403934D02*
X99608776Y-42487227D01*
X100608752Y-41686323D02*
G75*
G03*
X100987563Y-42171407I500148J123D01*
G01*
X60508777Y-17094133D02*
X133708776Y-17094133D01*
X120398975Y-61194067D02*
G75*
G03*
X120398975Y-60194133I25J499967D01*
G01*
X94608777Y-42487227D02*
X94608777Y-34403934D01*
X94205552Y-42977776D02*
G75*
G03*
X82392417Y-54790907I2903218J-14716354D01*
G01*
X100987553Y-73216820D02*
G75*
G03*
X100608775Y-73701943I121347J-485180D01*
G01*
X81901870Y-60194132D02*
X73818577Y-60194132D01*
X91537709Y-64765200D02*
G75*
G03*
X88537709Y-64765200I-1500000J0D01*
G01*
X88537709Y-64765200D02*
G75*
G03*
X91537709Y-64765200I1500000J0D01*
G01*
X73818577Y-60194068D02*
G75*
G03*
X73818577Y-61194132I23J-500032D01*
G01*
X82392341Y-60597373D02*
G75*
G03*
X81901870Y-60194131I-490441J-96627D01*
G01*
X94608777Y-34403934D02*
G75*
G03*
X93608777Y-34403934I-500000J0D01*
G01*
X94608838Y-72901039D02*
G75*
G03*
X94205550Y-72410493I-499938J39D01*
G01*
X100012001Y-72410495D02*
G75*
G03*
X111825135Y-60597359I-2903231J14716365D01*
G01*
X106858775Y-61194175D02*
G75*
G03*
X107608775Y-60444133I25J749975D01*
G01*
X107608775Y-60444133D02*
X107608775Y-54944134D01*
X93229989Y-42171410D02*
G75*
G03*
X81586051Y-53815345I3878781J-15522720D01*
G01*
X112631494Y-53815348D02*
G75*
G03*
X100987564Y-42171409I-15522694J-3878752D01*
G01*
X100987564Y-73216860D02*
G75*
G03*
X112631501Y-61572921I-3878784J15522720D01*
G01*
X81901870Y-55194075D02*
G75*
G03*
X82392413Y-54790908I30J499975D01*
G01*
X82392409Y-60597359D02*
G75*
G03*
X94205550Y-72410493I14716351J2903219D01*
G01*
X111825126Y-54790910D02*
G75*
G03*
X112315682Y-55194135I490574J96810D01*
G01*
X92488776Y-98294133D02*
X60508777Y-98294132D01*
X94205561Y-42977825D02*
G75*
G03*
X94608778Y-42487227I-96761J490525D01*
G01*
X113116586Y-61194172D02*
G75*
G03*
X112631503Y-61572920I14J-500028D01*
G01*
X100608776Y-41686323D02*
X100608776Y-34403934D01*
X60508777Y-17094137D02*
G75*
G03*
X56508777Y-21094133I-7J-3999993D01*
G01*
X112315682Y-60194170D02*
G75*
G03*
X111825137Y-60597359I18J-500030D01*
G01*
X113116586Y-61194133D02*
X120398975Y-61194133D01*
X94608776Y-80984332D02*
X94608777Y-72901039D01*
X93608827Y-73701943D02*
G75*
G03*
X93229989Y-73216859I-499927J43D01*
G01*
X120398975Y-60194133D02*
X112315682Y-60194133D01*
X81100966Y-54194074D02*
G75*
G03*
X81586050Y-53815346I34J499974D01*
G01*
X93608776Y-80984332D02*
G75*
G03*
X94608776Y-80984332I500000J0D01*
G01*
X104108767Y-60444133D02*
G75*
G03*
X104858775Y-61194133I750033J33D01*
G01*
X100608775Y-80984332D02*
X100608775Y-73701943D01*
X137708776Y-21094133D02*
X137708776Y-94294132D01*
X100608776Y-34403934D02*
G75*
G03*
X99608776Y-34403934I-500000J0D01*
G01*
X81100966Y-54194133D02*
X73818577Y-54194133D01*
X111825129Y-54790909D02*
G75*
G03*
X100012002Y-42977773I-14716369J-2903231D01*
G01*
X112315682Y-55194134D02*
X120398975Y-55194134D01*
X93608777Y-34403934D02*
X93608777Y-41686323D01*
X133708776Y-98294176D02*
G75*
G03*
X137708776Y-94294132I24J3999976D01*
G01*
X81586045Y-61572922D02*
G75*
G03*
X93229988Y-73216858I15522755J3878822D01*
G01*
X93230003Y-42171464D02*
G75*
G03*
X93608777Y-41686323I-121203J485064D01*
G01*
X73818577Y-61194132D02*
X81100966Y-61194132D01*
X106858775Y-54194134D02*
X104858775Y-54194134D01*
X100012009Y-72410532D02*
G75*
G03*
X99608774Y-72901039I96791J-490568D01*
G01*
X120398975Y-55194066D02*
G75*
G03*
X120398975Y-54194134I25J499966D01*
G01*
X133708776Y-98294132D02*
X92488776Y-98294133D01*
X81586060Y-61572918D02*
G75*
G03*
X81100966Y-61194132I-485060J-121182D01*
G01*
X73818577Y-55194133D02*
X81901870Y-55194133D01*
X56508777Y-94294132D02*
X56508777Y-21094133D01*
X107608766Y-54944134D02*
G75*
G03*
X106858775Y-54194134I-749966J34D01*
G01*
X104858775Y-61194133D02*
X106858775Y-61194133D01*
X99608850Y-42487227D02*
G75*
G03*
X100012002Y-42977772I500050J27D01*
G01*
X56508768Y-94294132D02*
G75*
G03*
X60508777Y-98294132I4000032J32D01*
G01*
X99608775Y-72901039D02*
X99608775Y-80984332D01*
X93608776Y-73701943D02*
X93608776Y-80984332D01*
X104858775Y-54194175D02*
G75*
G03*
X104108775Y-54944134I25J-750025D01*
G01*
X137708767Y-21094133D02*
G75*
G03*
X133708776Y-17094133I-3999967J33D01*
G01*
X104108775Y-54944134D02*
X104108775Y-60444133D01*
X120398975Y-54194134D02*
X113116586Y-54194134D01*
X73818577Y-54194067D02*
G75*
G03*
X73818577Y-55194133I23J-500033D01*
G01*
M02*
