%TF.GenerationSoftware,KiCad,Pcbnew,8.0.4*%
%TF.CreationDate,2024-09-02T15:53:00+01:00*%
%TF.ProjectId,algoritmi_foc,616c676f-7269-4746-9d69-5f666f632e6b,Andr_s Motta*%
%TF.SameCoordinates,Original*%
%TF.FileFunction,Profile,NP*%
%FSLAX46Y46*%
G04 Gerber Fmt 4.6, Leading zero omitted, Abs format (unit mm)*
G04 Created by KiCad (PCBNEW 8.0.4) date 2024-09-02 15:53:00*
%MOMM*%
%LPD*%
G01*
G04 APERTURE LIST*
%TA.AperFunction,Profile*%
%ADD10C,0.200000*%
%TD*%
G04 APERTURE END LIST*
D10*
X113116586Y-54194134D02*
G75*
G02*
X112631489Y-53815349I14J500034D01*
G01*
X100608775Y-80984332D02*
G75*
G02*
X99608775Y-80984332I-500000J0D01*
G01*
X99608776Y-34403934D02*
X99608776Y-42487227D01*
X100987563Y-42171407D02*
G75*
G02*
X100608752Y-41686323I121337J485207D01*
G01*
X60508777Y-17094133D02*
X133708776Y-17094133D01*
X120398975Y-60194133D02*
G75*
G02*
X120398975Y-61194067I25J-499967D01*
G01*
X94608777Y-42487227D02*
X94608777Y-34403934D01*
X82392416Y-54790907D02*
G75*
G02*
X94205551Y-42977775I14716354J-2903223D01*
G01*
X100608775Y-73701943D02*
G75*
G02*
X100987553Y-73216820I500125J-57D01*
G01*
X81901870Y-60194132D02*
X73818577Y-60194132D01*
X91537709Y-64765200D02*
G75*
G02*
X88537709Y-64765200I-1500000J0D01*
G01*
X88537709Y-64765200D02*
G75*
G02*
X91537709Y-64765200I1500000J0D01*
G01*
X73818577Y-61194132D02*
G75*
G02*
X73818577Y-60194068I23J500032D01*
G01*
X81901870Y-60194131D02*
G75*
G02*
X82392341Y-60597373I30J-499869D01*
G01*
X93608777Y-34403934D02*
G75*
G02*
X94608777Y-34403934I500000J0D01*
G01*
X94205550Y-72410493D02*
G75*
G02*
X94608838Y-72901039I-96650J-490507D01*
G01*
X111825136Y-60597359D02*
G75*
G02*
X100012001Y-72410496I-14716366J2903229D01*
G01*
X107608775Y-60444133D02*
G75*
G02*
X106858775Y-61194175I-749975J-67D01*
G01*
X107608775Y-60444133D02*
X107608775Y-54944134D01*
X81586051Y-53815345D02*
G75*
G02*
X93229989Y-42171410I15522719J-3878785D01*
G01*
X100987564Y-42171408D02*
G75*
G02*
X112631495Y-53815348I-3878764J-15522692D01*
G01*
X112631501Y-61572921D02*
G75*
G02*
X100987564Y-73216860I-15522721J3878781D01*
G01*
X82392414Y-54790908D02*
G75*
G02*
X81901870Y-55194076I-490514J96808D01*
G01*
X94205550Y-72410493D02*
G75*
G02*
X82392409Y-60597359I2903210J14716353D01*
G01*
X112315682Y-55194135D02*
G75*
G02*
X111825126Y-54790910I18J500035D01*
G01*
X92488776Y-98294133D02*
X60508777Y-98294132D01*
X94608778Y-42487227D02*
G75*
G02*
X94205561Y-42977825I-499978J-73D01*
G01*
X112631502Y-61572920D02*
G75*
G02*
X113116586Y-61194171I485098J-121280D01*
G01*
X100608776Y-41686323D02*
X100608776Y-34403934D01*
X56508777Y-21094133D02*
G75*
G02*
X60508777Y-17094137I3999993J3D01*
G01*
X111825137Y-60597359D02*
G75*
G02*
X112315682Y-60194170I490563J-96841D01*
G01*
X113116586Y-61194133D02*
X120398975Y-61194133D01*
X94608776Y-80984332D02*
X94608777Y-72901039D01*
X93229989Y-73216859D02*
G75*
G02*
X93608827Y-73701943I-121089J-485041D01*
G01*
X120398975Y-60194133D02*
X112315682Y-60194133D01*
X81586050Y-53815346D02*
G75*
G02*
X81100966Y-54194074I-485050J121246D01*
G01*
X94608776Y-80984332D02*
G75*
G02*
X93608776Y-80984332I-500000J0D01*
G01*
X104858775Y-61194133D02*
G75*
G02*
X104108767Y-60444133I25J750033D01*
G01*
X100608775Y-80984332D02*
X100608775Y-73701943D01*
X137708776Y-21094133D02*
X137708776Y-94294132D01*
X99608776Y-34403934D02*
G75*
G02*
X100608776Y-34403934I500000J0D01*
G01*
X81100966Y-54194133D02*
X73818577Y-54194133D01*
X100012002Y-42977773D02*
G75*
G02*
X111825129Y-54790909I-2903242J-14716367D01*
G01*
X112315682Y-55194134D02*
X120398975Y-55194134D01*
X93608777Y-34403934D02*
X93608777Y-41686323D01*
X137708776Y-94294132D02*
G75*
G02*
X133708776Y-98294176I-3999976J-68D01*
G01*
X93229988Y-73216858D02*
G75*
G02*
X81586044Y-61572922I3878812J15522758D01*
G01*
X93608777Y-41686323D02*
G75*
G02*
X93230003Y-42171464I-499977J-77D01*
G01*
X73818577Y-61194132D02*
X81100966Y-61194132D01*
X106858775Y-54194134D02*
X104858775Y-54194134D01*
X99608774Y-72901039D02*
G75*
G02*
X100012009Y-72410532I500026J-61D01*
G01*
X120398975Y-54194134D02*
G75*
G02*
X120398975Y-55194066I25J-499966D01*
G01*
X133708776Y-98294132D02*
X92488776Y-98294133D01*
X81100966Y-61194132D02*
G75*
G02*
X81586060Y-61572918I34J-499968D01*
G01*
X73818577Y-55194133D02*
X81901870Y-55194133D01*
X56508777Y-94294132D02*
X56508777Y-21094133D01*
X106858775Y-54194134D02*
G75*
G02*
X107608766Y-54944134I25J-749966D01*
G01*
X104858775Y-61194133D02*
X106858775Y-61194133D01*
X100012002Y-42977772D02*
G75*
G02*
X99608850Y-42487227I96898J490572D01*
G01*
X60508777Y-98294132D02*
G75*
G02*
X56508768Y-94294132I23J4000032D01*
G01*
X99608775Y-72901039D02*
X99608775Y-80984332D01*
X93608776Y-73701943D02*
X93608776Y-80984332D01*
X104108775Y-54944134D02*
G75*
G02*
X104858775Y-54194175I750025J-66D01*
G01*
X133708776Y-17094133D02*
G75*
G02*
X137708767Y-21094133I24J-3999967D01*
G01*
X104108775Y-54944134D02*
X104108775Y-60444133D01*
X120398975Y-54194134D02*
X113116586Y-54194134D01*
X73818577Y-55194133D02*
G75*
G02*
X73818577Y-54194067I23J500033D01*
G01*
M02*
