%TF.GenerationSoftware,KiCad,Pcbnew,8.0.4*%
%TF.CreationDate,2024-09-23T11:02:56+01:00*%
%TF.ProjectId,algoritmi_foc,616c676f-7269-4746-9d69-5f666f632e6b,Andr_s Motta*%
%TF.SameCoordinates,Original*%
%TF.FileFunction,Copper,L2,Bot*%
%TF.FilePolarity,Positive*%
%FSLAX46Y46*%
G04 Gerber Fmt 4.6, Leading zero omitted, Abs format (unit mm)*
G04 Created by KiCad (PCBNEW 8.0.4) date 2024-09-23 11:02:56*
%MOMM*%
%LPD*%
G01*
G04 APERTURE LIST*
%TA.AperFunction,ViaPad*%
%ADD10C,0.800000*%
%TD*%
%TA.AperFunction,Conductor*%
%ADD11C,0.400000*%
%TD*%
%TA.AperFunction,Conductor*%
%ADD12C,0.250000*%
%TD*%
G04 APERTURE END LIST*
D10*
%TO.N,GND*%
X107400000Y-80800000D03*
X100800000Y-75200000D03*
X94600000Y-89000000D03*
X87638000Y-84490000D03*
X100938000Y-83290000D03*
%TO.N,+3.3V*%
X106638000Y-77090000D03*
X95600000Y-87800000D03*
%TO.N,U_OUT*%
X103838000Y-85090000D03*
X107828000Y-88570000D03*
%TO.N,V_OUT*%
X107858000Y-89660000D03*
X107163000Y-84165000D03*
%TO.N,W_OUT*%
X107868000Y-91030000D03*
X103838000Y-81490000D03*
%TO.N,VL*%
X92238000Y-85690000D03*
X85788000Y-84290000D03*
%TO.N,UL*%
X96200000Y-79890000D03*
X85788000Y-81890000D03*
%TO.N,WL*%
X94200000Y-83690000D03*
X85638000Y-85690000D03*
%TO.N,VH*%
X99238000Y-76890000D03*
X85838000Y-76890000D03*
%TO.N,E_CLK*%
X91838000Y-83290000D03*
X107838000Y-77080000D03*
%TO.N,E_CSN*%
X91838000Y-80890000D03*
X107908000Y-75700000D03*
%TO.N,WH*%
X85788000Y-79290000D03*
X96800000Y-77800000D03*
%TO.N,UH*%
X85838000Y-74290000D03*
X100838000Y-76890000D03*
%TD*%
D11*
%TO.N,+3.3V*%
X95600000Y-86928000D02*
X105438000Y-77090000D01*
X105438000Y-77090000D02*
X106638000Y-77090000D01*
X95600000Y-87800000D02*
X95600000Y-86928000D01*
%TO.N,U_OUT*%
X103838000Y-85090000D02*
X107318000Y-88570000D01*
X107318000Y-88570000D02*
X107828000Y-88570000D01*
%TO.N,V_OUT*%
X107869371Y-89660000D02*
X108628000Y-88901371D01*
X108628000Y-85630000D02*
X107163000Y-84165000D01*
X108628000Y-88901371D02*
X108628000Y-85630000D01*
X107858000Y-89660000D02*
X107869371Y-89660000D01*
%TO.N,W_OUT*%
X109288000Y-85158629D02*
X109288000Y-89610000D01*
X109288000Y-89610000D02*
X107868000Y-91030000D01*
X105619371Y-81490000D02*
X109288000Y-85158629D01*
X103838000Y-81490000D02*
X105619371Y-81490000D01*
D12*
%TO.N,VL*%
X91963000Y-85965000D02*
X87463000Y-85965000D01*
X92238000Y-85690000D02*
X91963000Y-85965000D01*
X87463000Y-85965000D02*
X85788000Y-84290000D01*
%TO.N,UL*%
X85788000Y-80340000D02*
X85788000Y-81890000D01*
X96200000Y-79890000D02*
X96200000Y-78252000D01*
X90488000Y-75640000D02*
X85788000Y-80340000D01*
X93588000Y-75640000D02*
X90488000Y-75640000D01*
X96200000Y-78252000D02*
X93588000Y-75640000D01*
%TO.N,WL*%
X86363000Y-86415000D02*
X85638000Y-85690000D01*
X92913000Y-86415000D02*
X86363000Y-86415000D01*
X94200000Y-83690000D02*
X94200000Y-85128000D01*
X94200000Y-85128000D02*
X92913000Y-86415000D01*
%TO.N,VH*%
X85838000Y-76890000D02*
X85838000Y-75690000D01*
X85838000Y-75690000D02*
X86788000Y-74740000D01*
X97088000Y-74740000D02*
X99238000Y-76890000D01*
X86788000Y-74740000D02*
X97088000Y-74740000D01*
D11*
%TO.N,E_CLK*%
X98789472Y-82890000D02*
X92238000Y-82890000D01*
X107838000Y-77080000D02*
X107759371Y-77080000D01*
X107759371Y-77080000D02*
X106969371Y-76290000D01*
X106969371Y-76290000D02*
X105389472Y-76290000D01*
X92238000Y-82890000D02*
X91838000Y-83290000D01*
X105389472Y-76290000D02*
X98789472Y-82890000D01*
%TO.N,E_CSN*%
X107217899Y-75690000D02*
X105140944Y-75690000D01*
X105140944Y-75690000D02*
X99940944Y-80890000D01*
X99940944Y-80890000D02*
X91838000Y-80890000D01*
X107908000Y-75700000D02*
X107227899Y-75700000D01*
X107227899Y-75700000D02*
X107217899Y-75690000D01*
D12*
%TO.N,WH*%
X88738000Y-75190000D02*
X85788000Y-78140000D01*
X85788000Y-78140000D02*
X85788000Y-79290000D01*
X96800000Y-77652000D02*
X94338000Y-75190000D01*
X96800000Y-77800000D02*
X96800000Y-77652000D01*
X94338000Y-75190000D02*
X88738000Y-75190000D01*
%TO.N,UH*%
X85838000Y-74290000D02*
X98238000Y-74290000D01*
X98238000Y-74290000D02*
X100838000Y-76890000D01*
%TD*%
%TA.AperFunction,Conductor*%
%TO.N,GND*%
G36*
X121743039Y-67019685D02*
G01*
X121788794Y-67072489D01*
X121800000Y-67124000D01*
X121800000Y-70600000D01*
X122151000Y-70600000D01*
X122218039Y-70619685D01*
X122263794Y-70672489D01*
X122275000Y-70724000D01*
X122275000Y-82200000D01*
X125276000Y-82200000D01*
X125343039Y-82219685D01*
X125388794Y-82272489D01*
X125400000Y-82324000D01*
X125400000Y-92476000D01*
X125380315Y-92543039D01*
X125327511Y-92588794D01*
X125276000Y-92600000D01*
X121800000Y-92600000D01*
X121800000Y-96076000D01*
X121780315Y-96143039D01*
X121727511Y-96188794D01*
X121676000Y-96200000D01*
X83924000Y-96200000D01*
X83856961Y-96180315D01*
X83811206Y-96127511D01*
X83800000Y-96076000D01*
X83800000Y-92600000D01*
X80324000Y-92600000D01*
X80256961Y-92580315D01*
X80211206Y-92527511D01*
X80200000Y-92476000D01*
X80200000Y-85689998D01*
X85032318Y-85689998D01*
X85032318Y-85690001D01*
X85052955Y-85846760D01*
X85052956Y-85846762D01*
X85113464Y-85992841D01*
X85209718Y-86118282D01*
X85335159Y-86214536D01*
X85481238Y-86275044D01*
X85509548Y-86278771D01*
X85637999Y-86295682D01*
X85638000Y-86295682D01*
X85638001Y-86295682D01*
X85673708Y-86290980D01*
X85705818Y-86286753D01*
X85774853Y-86297518D01*
X85809685Y-86322011D01*
X86098194Y-86610520D01*
X86098204Y-86610531D01*
X86102534Y-86614861D01*
X86102535Y-86614862D01*
X86163138Y-86675465D01*
X86163140Y-86675466D01*
X86174605Y-86682085D01*
X86174607Y-86682087D01*
X86174608Y-86682087D01*
X86237361Y-86718318D01*
X86320147Y-86740500D01*
X86320149Y-86740500D01*
X92955851Y-86740500D01*
X92955853Y-86740500D01*
X93038639Y-86718318D01*
X93112862Y-86675465D01*
X94460465Y-85327862D01*
X94503318Y-85253639D01*
X94525500Y-85170853D01*
X94525500Y-85085147D01*
X94525500Y-84258298D01*
X94545185Y-84191259D01*
X94574010Y-84159925D01*
X94628282Y-84118282D01*
X94724536Y-83992841D01*
X94785044Y-83846762D01*
X94798802Y-83742254D01*
X94805682Y-83690001D01*
X94805682Y-83689998D01*
X94791923Y-83585492D01*
X94785044Y-83533238D01*
X94772180Y-83502181D01*
X94755517Y-83461952D01*
X94748048Y-83392483D01*
X94779324Y-83330004D01*
X94839413Y-83294352D01*
X94870078Y-83290500D01*
X98371745Y-83290500D01*
X98438784Y-83310185D01*
X98484539Y-83362989D01*
X98494483Y-83432147D01*
X98465458Y-83495703D01*
X98459426Y-83502181D01*
X95279522Y-86682084D01*
X95279518Y-86682090D01*
X95226792Y-86773412D01*
X95226793Y-86773413D01*
X95199500Y-86875273D01*
X95199500Y-87293419D01*
X95179815Y-87360458D01*
X95173876Y-87368905D01*
X95075464Y-87497157D01*
X95014956Y-87643237D01*
X95014955Y-87643239D01*
X94994318Y-87799998D01*
X94994318Y-87800001D01*
X95014955Y-87956760D01*
X95014956Y-87956762D01*
X95064440Y-88076228D01*
X95075464Y-88102841D01*
X95171718Y-88228282D01*
X95297159Y-88324536D01*
X95443238Y-88385044D01*
X95521619Y-88395363D01*
X95599999Y-88405682D01*
X95600000Y-88405682D01*
X95600001Y-88405682D01*
X95652254Y-88398802D01*
X95756762Y-88385044D01*
X95902841Y-88324536D01*
X96028282Y-88228282D01*
X96124536Y-88102841D01*
X96185044Y-87956762D01*
X96205682Y-87800000D01*
X96185044Y-87643238D01*
X96124536Y-87497159D01*
X96124535Y-87497158D01*
X96124535Y-87497157D01*
X96026124Y-87368905D01*
X96000930Y-87303736D01*
X96000500Y-87293419D01*
X96000500Y-87145255D01*
X96020185Y-87078216D01*
X96036819Y-87057574D01*
X101604395Y-81489998D01*
X103232318Y-81489998D01*
X103232318Y-81490001D01*
X103252955Y-81646760D01*
X103252956Y-81646762D01*
X103288775Y-81733238D01*
X103313464Y-81792841D01*
X103409718Y-81918282D01*
X103535159Y-82014536D01*
X103681238Y-82075044D01*
X103759619Y-82085363D01*
X103837999Y-82095682D01*
X103838000Y-82095682D01*
X103838001Y-82095682D01*
X103890254Y-82088802D01*
X103994762Y-82075044D01*
X104140841Y-82014536D01*
X104266282Y-81918282D01*
X104266283Y-81918279D01*
X104269093Y-81916124D01*
X104334263Y-81890930D01*
X104344580Y-81890500D01*
X105402116Y-81890500D01*
X105469155Y-81910185D01*
X105489797Y-81926819D01*
X106971672Y-83408694D01*
X107005157Y-83470017D01*
X107000173Y-83539709D01*
X106958301Y-83595642D01*
X106931445Y-83610936D01*
X106860159Y-83640464D01*
X106734718Y-83736718D01*
X106638463Y-83862160D01*
X106577956Y-84008237D01*
X106577955Y-84008239D01*
X106557318Y-84164998D01*
X106557318Y-84165001D01*
X106577955Y-84321760D01*
X106577956Y-84321762D01*
X106638464Y-84467841D01*
X106734718Y-84593282D01*
X106860159Y-84689536D01*
X107006238Y-84750044D01*
X107163000Y-84770682D01*
X107163001Y-84770681D01*
X107166513Y-84771144D01*
X107230410Y-84799410D01*
X107238009Y-84806402D01*
X108191181Y-85759574D01*
X108224666Y-85820897D01*
X108227500Y-85847255D01*
X108227500Y-87899922D01*
X108207815Y-87966961D01*
X108155011Y-88012716D01*
X108085853Y-88022660D01*
X108056048Y-88014483D01*
X107984765Y-87984957D01*
X107984760Y-87984955D01*
X107828001Y-87964318D01*
X107827999Y-87964318D01*
X107671239Y-87984955D01*
X107671237Y-87984956D01*
X107525158Y-88045464D01*
X107517897Y-88051036D01*
X107452727Y-88076228D01*
X107384283Y-88062188D01*
X107354732Y-88040339D01*
X104479402Y-85165009D01*
X104445917Y-85103686D01*
X104444144Y-85093513D01*
X104443681Y-85089998D01*
X104423044Y-84933238D01*
X104362536Y-84787159D01*
X104266282Y-84661718D01*
X104140841Y-84565464D01*
X103994762Y-84504956D01*
X103994760Y-84504955D01*
X103838001Y-84484318D01*
X103837999Y-84484318D01*
X103681239Y-84504955D01*
X103681237Y-84504956D01*
X103535160Y-84565463D01*
X103409718Y-84661718D01*
X103313463Y-84787160D01*
X103252956Y-84933237D01*
X103252955Y-84933239D01*
X103232318Y-85089998D01*
X103232318Y-85090001D01*
X103252955Y-85246760D01*
X103252956Y-85246762D01*
X103308224Y-85380192D01*
X103313464Y-85392841D01*
X103409718Y-85518282D01*
X103535159Y-85614536D01*
X103681238Y-85675044D01*
X103838000Y-85695682D01*
X103838001Y-85695681D01*
X103841513Y-85696144D01*
X103905410Y-85724410D01*
X103913009Y-85731402D01*
X107072087Y-88890480D01*
X107163412Y-88943207D01*
X107265273Y-88970500D01*
X107321420Y-88970500D01*
X107388459Y-88990185D01*
X107396905Y-88996123D01*
X107399716Y-88998280D01*
X107399718Y-88998282D01*
X107438623Y-89028134D01*
X107479825Y-89084560D01*
X107483980Y-89154306D01*
X107449769Y-89215226D01*
X107438626Y-89224882D01*
X107429720Y-89231715D01*
X107333463Y-89357160D01*
X107272956Y-89503237D01*
X107272955Y-89503239D01*
X107252318Y-89659998D01*
X107252318Y-89660001D01*
X107272955Y-89816760D01*
X107272956Y-89816762D01*
X107333464Y-89962841D01*
X107429718Y-90088282D01*
X107555159Y-90184536D01*
X107670979Y-90232510D01*
X107725382Y-90276351D01*
X107747447Y-90342645D01*
X107730168Y-90410344D01*
X107679031Y-90457955D01*
X107670979Y-90461632D01*
X107565160Y-90505463D01*
X107439718Y-90601718D01*
X107343463Y-90727160D01*
X107282956Y-90873237D01*
X107282955Y-90873239D01*
X107262318Y-91029998D01*
X107262318Y-91030001D01*
X107282955Y-91186760D01*
X107282956Y-91186762D01*
X107343464Y-91332841D01*
X107439718Y-91458282D01*
X107565159Y-91554536D01*
X107711238Y-91615044D01*
X107789619Y-91625363D01*
X107867999Y-91635682D01*
X107868000Y-91635682D01*
X107868001Y-91635682D01*
X107920254Y-91628802D01*
X108024762Y-91615044D01*
X108170841Y-91554536D01*
X108296282Y-91458282D01*
X108392536Y-91332841D01*
X108453044Y-91186762D01*
X108473682Y-91030000D01*
X108473681Y-91029997D01*
X108474144Y-91026485D01*
X108502410Y-90962589D01*
X108509390Y-90955001D01*
X109608480Y-89855913D01*
X109661207Y-89764588D01*
X109688500Y-89662727D01*
X109688500Y-89557273D01*
X109688500Y-85105902D01*
X109661207Y-85004042D01*
X109661207Y-85004041D01*
X109608480Y-84912716D01*
X105865284Y-81169520D01*
X105819621Y-81143156D01*
X105773960Y-81116793D01*
X105723028Y-81103146D01*
X105672098Y-81089500D01*
X105672097Y-81089500D01*
X104344580Y-81089500D01*
X104277541Y-81069815D01*
X104269093Y-81063876D01*
X104266283Y-81061720D01*
X104266282Y-81061718D01*
X104140841Y-80965464D01*
X103994762Y-80904956D01*
X103994760Y-80904955D01*
X103838001Y-80884318D01*
X103837999Y-80884318D01*
X103681239Y-80904955D01*
X103681237Y-80904956D01*
X103535160Y-80965463D01*
X103409718Y-81061718D01*
X103313463Y-81187160D01*
X103252956Y-81333237D01*
X103252955Y-81333239D01*
X103232318Y-81489998D01*
X101604395Y-81489998D01*
X105567574Y-77526819D01*
X105628897Y-77493334D01*
X105655255Y-77490500D01*
X106131420Y-77490500D01*
X106198459Y-77510185D01*
X106206907Y-77516124D01*
X106209716Y-77518279D01*
X106209718Y-77518282D01*
X106335159Y-77614536D01*
X106481238Y-77675044D01*
X106559619Y-77685363D01*
X106637999Y-77695682D01*
X106638000Y-77695682D01*
X106638001Y-77695682D01*
X106690254Y-77688802D01*
X106794762Y-77675044D01*
X106940841Y-77614536D01*
X107066282Y-77518282D01*
X107143462Y-77417698D01*
X107199887Y-77376497D01*
X107269633Y-77372342D01*
X107330554Y-77406554D01*
X107340206Y-77417693D01*
X107409718Y-77508282D01*
X107535159Y-77604536D01*
X107681238Y-77665044D01*
X107757188Y-77675043D01*
X107837999Y-77685682D01*
X107838000Y-77685682D01*
X107838001Y-77685682D01*
X107918804Y-77675044D01*
X107994762Y-77665044D01*
X108140841Y-77604536D01*
X108266282Y-77508282D01*
X108362536Y-77382841D01*
X108423044Y-77236762D01*
X108443682Y-77080000D01*
X108423044Y-76923238D01*
X108362536Y-76777159D01*
X108266282Y-76651718D01*
X108140841Y-76555464D01*
X108052026Y-76518675D01*
X107997624Y-76474835D01*
X107975559Y-76408541D01*
X107992838Y-76340841D01*
X108043976Y-76293231D01*
X108057265Y-76288184D01*
X108057253Y-76288154D01*
X108064760Y-76285044D01*
X108064762Y-76285044D01*
X108210841Y-76224536D01*
X108336282Y-76128282D01*
X108432536Y-76002841D01*
X108493044Y-75856762D01*
X108513682Y-75700000D01*
X108493044Y-75543238D01*
X108432536Y-75397159D01*
X108336282Y-75271718D01*
X108210841Y-75175464D01*
X108140109Y-75146166D01*
X108064762Y-75114956D01*
X108064760Y-75114955D01*
X107908001Y-75094318D01*
X107907999Y-75094318D01*
X107751239Y-75114955D01*
X107751237Y-75114956D01*
X107605160Y-75175463D01*
X107605159Y-75175464D01*
X107479718Y-75271718D01*
X107479716Y-75271720D01*
X107476907Y-75273876D01*
X107411737Y-75299070D01*
X107401420Y-75299500D01*
X107324271Y-75299500D01*
X107292179Y-75295275D01*
X107270626Y-75289500D01*
X107270625Y-75289500D01*
X105201283Y-75289500D01*
X105201267Y-75289499D01*
X105193671Y-75289499D01*
X105088218Y-75289499D01*
X104990664Y-75315639D01*
X104990662Y-75315639D01*
X104986358Y-75316791D01*
X104986358Y-75316792D01*
X104895029Y-75369521D01*
X99811370Y-80453181D01*
X99750047Y-80486666D01*
X99723689Y-80489500D01*
X96748349Y-80489500D01*
X96681310Y-80469815D01*
X96635555Y-80417011D01*
X96625611Y-80347853D01*
X96649973Y-80290014D01*
X96724535Y-80192842D01*
X96724534Y-80192842D01*
X96724536Y-80192841D01*
X96785044Y-80046762D01*
X96805682Y-79890000D01*
X96785044Y-79733238D01*
X96724536Y-79587159D01*
X96628282Y-79461718D01*
X96628280Y-79461716D01*
X96628279Y-79461715D01*
X96574012Y-79420074D01*
X96532810Y-79363646D01*
X96525500Y-79321699D01*
X96525500Y-78510938D01*
X96545185Y-78443899D01*
X96597989Y-78398144D01*
X96665684Y-78387999D01*
X96742743Y-78398144D01*
X96799999Y-78405682D01*
X96800000Y-78405682D01*
X96800001Y-78405682D01*
X96857257Y-78398144D01*
X96956762Y-78385044D01*
X97102841Y-78324536D01*
X97228282Y-78228282D01*
X97324536Y-78102841D01*
X97385044Y-77956762D01*
X97405682Y-77800000D01*
X97404052Y-77787621D01*
X97385044Y-77643239D01*
X97385044Y-77643238D01*
X97324536Y-77497159D01*
X97228282Y-77371718D01*
X97102841Y-77275464D01*
X96956762Y-77214956D01*
X96906976Y-77208401D01*
X96844775Y-77200212D01*
X96780878Y-77171945D01*
X96773280Y-77164954D01*
X94885508Y-75277181D01*
X94852023Y-75215858D01*
X94857007Y-75146166D01*
X94898879Y-75090233D01*
X94964343Y-75065816D01*
X94973189Y-75065500D01*
X96901811Y-75065500D01*
X96968850Y-75085185D01*
X96989492Y-75101819D01*
X98605988Y-76718315D01*
X98639473Y-76779638D01*
X98641246Y-76822181D01*
X98632318Y-76889998D01*
X98632318Y-76890001D01*
X98652955Y-77046760D01*
X98652956Y-77046762D01*
X98704808Y-77171945D01*
X98713464Y-77192841D01*
X98809718Y-77318282D01*
X98935159Y-77414536D01*
X99081238Y-77475044D01*
X99107102Y-77478449D01*
X99237999Y-77495682D01*
X99238000Y-77495682D01*
X99238001Y-77495682D01*
X99290254Y-77488802D01*
X99394762Y-77475044D01*
X99540841Y-77414536D01*
X99666282Y-77318282D01*
X99762536Y-77192841D01*
X99823044Y-77046762D01*
X99843682Y-76890000D01*
X99839614Y-76859103D01*
X99823044Y-76733239D01*
X99823044Y-76733238D01*
X99780269Y-76629972D01*
X99772801Y-76560503D01*
X99804076Y-76498024D01*
X99864165Y-76462372D01*
X99933990Y-76464866D01*
X99982512Y-76494839D01*
X100205988Y-76718315D01*
X100239473Y-76779638D01*
X100241246Y-76822181D01*
X100232318Y-76889998D01*
X100232318Y-76890001D01*
X100252955Y-77046760D01*
X100252956Y-77046762D01*
X100304808Y-77171945D01*
X100313464Y-77192841D01*
X100409718Y-77318282D01*
X100535159Y-77414536D01*
X100681238Y-77475044D01*
X100707102Y-77478449D01*
X100837999Y-77495682D01*
X100838000Y-77495682D01*
X100838001Y-77495682D01*
X100890254Y-77488802D01*
X100994762Y-77475044D01*
X101140841Y-77414536D01*
X101266282Y-77318282D01*
X101362536Y-77192841D01*
X101423044Y-77046762D01*
X101443682Y-76890000D01*
X101439614Y-76859103D01*
X101423044Y-76733239D01*
X101423044Y-76733238D01*
X101362536Y-76587159D01*
X101266282Y-76461718D01*
X101140841Y-76365464D01*
X100994762Y-76304956D01*
X100994760Y-76304955D01*
X100838001Y-76284318D01*
X100837999Y-76284318D01*
X100770181Y-76293246D01*
X100701145Y-76282480D01*
X100666315Y-76257988D01*
X98437864Y-74029537D01*
X98437862Y-74029535D01*
X98400750Y-74008108D01*
X98363640Y-73986682D01*
X98322246Y-73975591D01*
X98280853Y-73964500D01*
X98280852Y-73964500D01*
X86406299Y-73964500D01*
X86339260Y-73944815D01*
X86307923Y-73915986D01*
X86266283Y-73861719D01*
X86266282Y-73861718D01*
X86140841Y-73765464D01*
X85994762Y-73704956D01*
X85994760Y-73704955D01*
X85838001Y-73684318D01*
X85837999Y-73684318D01*
X85681239Y-73704955D01*
X85681237Y-73704956D01*
X85535160Y-73765463D01*
X85409718Y-73861718D01*
X85313463Y-73987160D01*
X85252956Y-74133237D01*
X85252955Y-74133239D01*
X85232318Y-74289998D01*
X85232318Y-74290001D01*
X85252955Y-74446760D01*
X85252956Y-74446762D01*
X85313464Y-74592841D01*
X85409718Y-74718282D01*
X85535159Y-74814536D01*
X85681238Y-74875044D01*
X85838000Y-74895682D01*
X85860462Y-74892724D01*
X85929494Y-74903488D01*
X85981751Y-74949866D01*
X86000638Y-75017135D01*
X85980159Y-75083936D01*
X85964328Y-75103344D01*
X85577537Y-75490135D01*
X85577533Y-75490141D01*
X85534681Y-75564361D01*
X85534682Y-75564362D01*
X85512500Y-75647147D01*
X85512500Y-76321699D01*
X85492815Y-76388738D01*
X85463988Y-76420074D01*
X85409720Y-76461715D01*
X85313463Y-76587160D01*
X85252956Y-76733237D01*
X85252955Y-76733239D01*
X85232318Y-76889998D01*
X85232318Y-76890001D01*
X85252955Y-77046760D01*
X85252956Y-77046762D01*
X85304808Y-77171945D01*
X85313464Y-77192841D01*
X85409718Y-77318282D01*
X85535159Y-77414536D01*
X85681238Y-77475044D01*
X85707106Y-77478449D01*
X85771002Y-77506714D01*
X85809474Y-77565038D01*
X85810306Y-77634903D01*
X85778603Y-77689069D01*
X85527534Y-77940139D01*
X85527533Y-77940141D01*
X85484682Y-78014359D01*
X85480814Y-78028799D01*
X85462500Y-78097147D01*
X85462500Y-78721699D01*
X85442815Y-78788738D01*
X85413988Y-78820074D01*
X85359720Y-78861715D01*
X85263463Y-78987160D01*
X85202956Y-79133237D01*
X85202955Y-79133239D01*
X85182318Y-79289998D01*
X85182318Y-79290001D01*
X85202955Y-79446760D01*
X85202956Y-79446762D01*
X85263464Y-79592841D01*
X85359718Y-79718282D01*
X85485159Y-79814536D01*
X85573906Y-79851296D01*
X85628309Y-79895137D01*
X85650374Y-79961431D01*
X85633095Y-80029130D01*
X85614135Y-80053538D01*
X85527534Y-80140139D01*
X85527533Y-80140141D01*
X85484681Y-80214361D01*
X85484682Y-80214362D01*
X85462500Y-80297147D01*
X85462500Y-81321699D01*
X85442815Y-81388738D01*
X85413988Y-81420074D01*
X85359720Y-81461715D01*
X85263463Y-81587160D01*
X85202956Y-81733237D01*
X85202955Y-81733239D01*
X85182318Y-81889998D01*
X85182318Y-81890001D01*
X85202955Y-82046760D01*
X85202956Y-82046762D01*
X85263464Y-82192841D01*
X85359718Y-82318282D01*
X85485159Y-82414536D01*
X85631238Y-82475044D01*
X85709619Y-82485363D01*
X85787999Y-82495682D01*
X85788000Y-82495682D01*
X85788001Y-82495682D01*
X85840254Y-82488802D01*
X85944762Y-82475044D01*
X86090841Y-82414536D01*
X86216282Y-82318282D01*
X86312536Y-82192841D01*
X86373044Y-82046762D01*
X86393682Y-81890000D01*
X86373044Y-81733238D01*
X86312536Y-81587159D01*
X86216282Y-81461718D01*
X86216280Y-81461716D01*
X86216279Y-81461715D01*
X86162012Y-81420074D01*
X86120810Y-81363646D01*
X86113500Y-81321699D01*
X86113500Y-80526188D01*
X86133185Y-80459149D01*
X86149819Y-80438507D01*
X90586507Y-76001819D01*
X90647830Y-75968334D01*
X90674188Y-75965500D01*
X93401811Y-75965500D01*
X93468850Y-75985185D01*
X93489492Y-76001819D01*
X95838181Y-78350507D01*
X95871666Y-78411830D01*
X95874500Y-78438188D01*
X95874500Y-79321699D01*
X95854815Y-79388738D01*
X95825988Y-79420074D01*
X95771720Y-79461715D01*
X95675463Y-79587160D01*
X95614956Y-79733237D01*
X95614955Y-79733239D01*
X95594318Y-79889998D01*
X95594318Y-79890001D01*
X95614955Y-80046760D01*
X95614956Y-80046762D01*
X95675464Y-80192842D01*
X95750027Y-80290014D01*
X95775221Y-80355183D01*
X95761183Y-80423628D01*
X95712369Y-80473617D01*
X95651651Y-80489500D01*
X92344580Y-80489500D01*
X92277541Y-80469815D01*
X92269093Y-80463876D01*
X92266283Y-80461720D01*
X92266282Y-80461718D01*
X92140841Y-80365464D01*
X92098324Y-80347853D01*
X91994762Y-80304956D01*
X91994760Y-80304955D01*
X91838001Y-80284318D01*
X91837999Y-80284318D01*
X91681239Y-80304955D01*
X91681237Y-80304956D01*
X91535160Y-80365463D01*
X91409718Y-80461718D01*
X91313463Y-80587160D01*
X91252956Y-80733237D01*
X91252955Y-80733239D01*
X91232318Y-80889998D01*
X91232318Y-80890001D01*
X91252955Y-81046760D01*
X91252956Y-81046762D01*
X91313464Y-81192841D01*
X91409718Y-81318282D01*
X91535159Y-81414536D01*
X91681238Y-81475044D01*
X91759619Y-81485363D01*
X91837999Y-81495682D01*
X91838000Y-81495682D01*
X91838001Y-81495682D01*
X91890254Y-81488802D01*
X91994762Y-81475044D01*
X92140841Y-81414536D01*
X92266282Y-81318282D01*
X92266283Y-81318279D01*
X92269093Y-81316124D01*
X92334263Y-81290930D01*
X92344580Y-81290500D01*
X99523217Y-81290500D01*
X99590256Y-81310185D01*
X99636011Y-81362989D01*
X99645955Y-81432147D01*
X99616930Y-81495703D01*
X99610898Y-81502181D01*
X98659898Y-82453181D01*
X98598575Y-82486666D01*
X98572217Y-82489500D01*
X92185273Y-82489500D01*
X92083413Y-82516793D01*
X92083410Y-82516794D01*
X91992090Y-82569517D01*
X91992085Y-82569521D01*
X91913007Y-82648598D01*
X91851684Y-82682083D01*
X91841513Y-82683855D01*
X91681238Y-82704956D01*
X91681237Y-82704956D01*
X91535160Y-82765463D01*
X91409718Y-82861718D01*
X91313463Y-82987160D01*
X91252956Y-83133237D01*
X91252955Y-83133239D01*
X91232318Y-83289998D01*
X91232318Y-83290001D01*
X91252955Y-83446760D01*
X91252956Y-83446762D01*
X91301539Y-83564053D01*
X91313464Y-83592841D01*
X91409718Y-83718282D01*
X91535159Y-83814536D01*
X91681238Y-83875044D01*
X91759619Y-83885363D01*
X91837999Y-83895682D01*
X91838000Y-83895682D01*
X91838001Y-83895682D01*
X91890254Y-83888802D01*
X91994762Y-83875044D01*
X92140841Y-83814536D01*
X92266282Y-83718282D01*
X92362536Y-83592841D01*
X92423044Y-83446762D01*
X92429422Y-83398314D01*
X92457688Y-83334418D01*
X92516013Y-83295947D01*
X92552361Y-83290500D01*
X93529922Y-83290500D01*
X93596961Y-83310185D01*
X93642716Y-83362989D01*
X93652660Y-83432147D01*
X93644483Y-83461952D01*
X93614957Y-83533234D01*
X93614955Y-83533239D01*
X93594318Y-83689998D01*
X93594318Y-83690001D01*
X93614955Y-83846760D01*
X93614956Y-83846762D01*
X93675464Y-83992841D01*
X93771718Y-84118282D01*
X93825987Y-84159924D01*
X93867189Y-84216349D01*
X93874500Y-84258298D01*
X93874500Y-84941811D01*
X93854815Y-85008850D01*
X93838181Y-85029492D01*
X93051344Y-85816328D01*
X92990021Y-85849813D01*
X92920329Y-85844829D01*
X92864396Y-85802957D01*
X92839979Y-85737493D01*
X92840723Y-85712471D01*
X92843682Y-85690000D01*
X92823044Y-85533238D01*
X92762536Y-85387159D01*
X92666282Y-85261718D01*
X92540841Y-85165464D01*
X92394762Y-85104956D01*
X92394760Y-85104955D01*
X92238001Y-85084318D01*
X92237999Y-85084318D01*
X92081239Y-85104955D01*
X92081237Y-85104956D01*
X91935160Y-85165463D01*
X91809718Y-85261718D01*
X91713463Y-85387160D01*
X91652956Y-85533237D01*
X91650853Y-85541088D01*
X91649196Y-85540644D01*
X91624899Y-85595576D01*
X91566577Y-85634051D01*
X91530222Y-85639500D01*
X87649188Y-85639500D01*
X87582149Y-85619815D01*
X87561507Y-85603181D01*
X86420011Y-84461685D01*
X86386526Y-84400362D01*
X86384753Y-84357818D01*
X86393682Y-84290000D01*
X86393682Y-84289998D01*
X86377226Y-84165001D01*
X86373044Y-84133238D01*
X86312536Y-83987159D01*
X86216282Y-83861718D01*
X86090841Y-83765464D01*
X85944762Y-83704956D01*
X85944760Y-83704955D01*
X85788001Y-83684318D01*
X85787999Y-83684318D01*
X85631239Y-83704955D01*
X85631237Y-83704956D01*
X85485160Y-83765463D01*
X85359718Y-83861718D01*
X85263463Y-83987160D01*
X85202956Y-84133237D01*
X85202955Y-84133239D01*
X85182318Y-84289998D01*
X85182318Y-84290001D01*
X85202955Y-84446760D01*
X85202956Y-84446762D01*
X85263464Y-84592841D01*
X85359718Y-84718282D01*
X85485159Y-84814536D01*
X85485160Y-84814536D01*
X85485161Y-84814537D01*
X85588700Y-84857424D01*
X85643104Y-84901265D01*
X85665169Y-84967559D01*
X85647890Y-85035258D01*
X85596753Y-85082869D01*
X85557435Y-85094924D01*
X85481238Y-85104956D01*
X85481237Y-85104956D01*
X85335160Y-85165463D01*
X85209718Y-85261718D01*
X85113463Y-85387160D01*
X85052956Y-85533237D01*
X85052955Y-85533239D01*
X85032318Y-85689998D01*
X80200000Y-85689998D01*
X80200000Y-70724000D01*
X80219685Y-70656961D01*
X80272489Y-70611206D01*
X80324000Y-70600000D01*
X83800000Y-70600000D01*
X83800000Y-67124000D01*
X83819685Y-67056961D01*
X83872489Y-67011206D01*
X83924000Y-67000000D01*
X121676000Y-67000000D01*
X121743039Y-67019685D01*
G37*
%TD.AperFunction*%
%TD*%
M02*
